<?xml version="1.0" encoding="utf-8"?>
<!-- Generator: Adobe Illustrator 25.4.0, SVG Export Plug-In . SVG Version: 6.00 Build 0)  -->
<svg version="1.1" id="Wachtauf" xmlns="http://www.w3.org/2000/svg" xmlns:xlink="http://www.w3.org/1999/xlink" x="0px" y="0px"
	 viewBox="0 0 3840 2160" style="enable-background:new 0 0 3840 2160;" xml:space="preserve">
<style type="text/css">
	.st0{fill:#FFB699;}
	.st1{fill:#54A465;}
	.st2{fill:#FFF8C5;}
	.st3{fill:none;stroke:#2E753B;stroke-miterlimit:10;}
	.st4{fill:#76C484;}
	.st5{fill:#F99A79;}
	.st6{fill:#449353;}
	.st7{fill:none;stroke:#FFF8C5;stroke-width:2;stroke-miterlimit:10;}
	.st8{fill:#FFF8C5;stroke:#002A2B;stroke-miterlimit:10;}
	.st9{fill:none;stroke:#22722F;stroke-miterlimit:10;}
	.st10{fill:#CCF6E6;}
	.st11{fill:none;stroke:#002A2B;stroke-width:4;stroke-miterlimit:10;}
	.st12{fill:#995B34;}
	.st13{fill:#633318;}
	.st14{fill:#AA6944;}
	.st15{fill:#D86C45;}
	.st16{fill:#FFCAB8;}
	.st17{display:none;}
	.st18{display:inline;}
	.st19{display:none;fill:#FFFFFF;}
	.st20{display:none;fill:url(#SVGID_1_);}
	.st21{display:none;fill:#16100B;}
	.st22{fill:#FFFFFF;}
	.st23{display:inline;fill:url(#SVGID_00000001657944963187853160000009422509598085632646_);}
	.st24{display:inline;fill:#16100B;}
	.st25{display:inline;fill:#FFFFFF;}
	.st26{display:inline;fill:url(#SVGID_00000140734142991671120980000011839097518503165112_);}
	.st27{display:inline;fill:#FCD2CA;}
	.st28{display:inline;fill:url(#SVGID_00000106831315955122855660000009252327052130934672_);}
	.st29{display:inline;fill:url(#SVGID_00000041997565245772452650000007364170986600725174_);}
	.st30{fill:#841A06;}
	.st31{fill:#D64B2B;}
	.st32{fill:#FFAF9C;}
	.st33{fill:#894A27;}
	.st34{opacity:0.72;fill:#F99A79;}
	.st35{opacity:0.72;fill:#E27F64;}
	.st36{opacity:0.33;fill:#F98869;}
	.st37{fill:#D88C66;}
	.st38{fill:none;stroke:#995B34;stroke-miterlimit:10;}
	.st39{fill:#FCD2CA;}
	.st40{display:none;fill:url(#SVGID_00000057142844580447194330000004902059525815774630_);}
	.st41{fill:url(#SVGID_00000132067427119207411840000018127772021594309537_);}
	.st42{fill:#16100B;}
	.st43{fill:url(#SVGID_00000051384876543602698780000002665109087966569106_);}
	.st44{display:none;fill:url(#SVGID_00000085966921839503956950000012656677897862400131_);}
	.st45{fill:url(#SVGID_00000028314287968004080700000008060798119717128637_);}
	.st46{fill:url(#SVGID_00000155107908978414459600000001754147273572643738_);}
	.st47{fill:url(#SVGID_00000006672086285809580070000012327173090806715794_);}
	.st48{fill:#F0FFF9;}
	.st49{fill:#545454;}
	.st50{fill:#3F3F3F;}
	.st51{fill:#28564D;}
	.st52{opacity:0.41;fill:#28564D;}
	.st53{fill:#002A2B;}
	.st54{fill:none;stroke:#CCF6E6;stroke-miterlimit:10;}
	.st55{opacity:0.41;}
	.st56{fill:#336B61;stroke:#002A2B;stroke-miterlimit:10;}
	.st57{fill:none;stroke:#002A2B;stroke-width:2;stroke-miterlimit:10;}
	.st58{opacity:0.31;}
	.st59{fill:none;stroke:#006A58;stroke-width:0.25;stroke-miterlimit:10;}
	.st60{fill:#EAE0A4;}
	.st61{fill:#97D1B8;}
	.st62{opacity:0.44;fill:#C3EDDC;}
	.st63{fill:#EAE1AC;}
	.st64{opacity:0.31;fill:#002A2B;}
	.st65{opacity:0.44;}
	.st66{fill:#C3EDDC;}
	.st67{opacity:0.45;}
	.st68{display:none;opacity:0.45;}
	.st69{display:inline;fill:#F0FFF9;}
	.st70{fill:none;stroke:#64D250;stroke-width:16;stroke-miterlimit:10;}
	.st71{fill:none;stroke:#64D250;stroke-width:12;stroke-miterlimit:10;}
	.st72{fill:#A5EA96;}
	.st73{display:inline;fill:#FFB699;}
	.st74{display:inline;fill:#F99A79;}
</style>
<g id="Füsse_Kopie_Kopie_2_Kopie_Kopie">
	<g>
		<g>
			<polygon class="st0" points="1753.42,1858.83 1762.7,1952.71 1820.55,1958.71 1826.56,1835.36 			"/>
			<path class="st1" d="M1751.92,1907.41c0,0,0.61,32.75-11.89,51.56c-4.82,7.25-12.94,13.61-20.43,18.47
				c-1.45,0.94-2.92,1.8-4.39,2.56c-19.1,9.82-66.04,35.48-78.05,49.67c-12.01,14.19-13.1,26.2-13.1,26.2l-6.55,2.18l9.96,9.01
				c0,0,10.64,13.24,49.94,2.87c39.3-10.37,150.23-73.82,150.23-73.82l0.2-92.38l-4.91-0.2c0,0-9.48,8.26-34.59,7.16
				c-25.11-1.09-31.31-8.39-31.31-8.39L1751.92,1907.41z"/>
			<path class="st2" d="M1624.07,2055.86l-6.55,2.18l7.1,11.46c0,0,15.96,11.19,55.26,0.82c39.3-10.37,146.96-62.22,146.96-62.22
				l1.64-13.1l-25.38,13.92c0,0-45.03,19.65-70.82,29.06C1646.63,2069.25,1624.07,2055.86,1624.07,2055.86z"/>
			<path class="st3" d="M1827.92,1980.54"/>
			<g>
				<path class="st4" d="M1630.17,2050.91c1.06-11.13,8.08-21.51,18.02-26.62c1.13-0.58,2.88-0.89,3.35,0.29
					c0.3,0.77-0.24,1.58-0.76,2.23c-6.07,7.61-12.14,15.22-18.21,22.83c-0.49,0.62-1.31,1.3-1.96,0.86"/>
			</g>
			<path class="st5" d="M1753.97,1867.56l0.82,10.37c0,0,29.06,9.96,48.71,7.78c14.27-1.59,20.47-6.96,20.47-6.96l2.05-22.65
				l-72.04,6.55V1867.56"/>
		</g>
		<path class="st6" d="M1826.42,1919.28c0,0-1.64,53.21-17.19,63.86c-15.56,10.64-128.53,70-128.53,70s65.9-15.56,102.75-35.2
			c31.46-16.78,44.21-21.83,44.21-21.83L1826.42,1919.28z"/>
		<path class="st7" d="M1714.67,1977.81c28.24-11.87,46.05,16.17,46.05,16.17"/>
		<path class="st7" d="M1691.74,1990.5c28.24-11.87,46.05,16.17,46.05,16.17"/>
		<path class="st7" d="M1665.55,2006.06c28.24-11.87,46.05,16.17,46.05,16.17"/>
		<ellipse class="st8" cx="1807.88" cy="1941.41" rx="12.09" ry="17.35"/>
		<path class="st9" d="M1758.06,1905.22c0,0-0.27-1.09-3,8.19c-2.73,9.28-2.23,31.87,2.73,39.02c4.91,7.1,13.78,4.91,13.78,4.91"/>
		<path class="st10" d="M1757.34,1902.7c0,0,14.74,13.61,41.45,9.93c13.97-1.93,24.15-9.11,24.15-9.11l1.23-20.47
			c0,0-8.54,6.72-32.54,6.62c-23.74-0.1-35.82-5.59-35.82-5.59L1757.34,1902.7z"/>
		<ellipse class="st1" cx="1777.09" cy="1919.69" rx="21.49" ry="28.65"/>
		<path class="st6" d="M1796.13,1909.04c0,0-17.6,11.87-19.24,28.65c-1.64,16.78-5.32,19.65-5.32,19.65s9.01,1.64,18.42-19.65
			C1799.4,1916.41,1796.13,1909.04,1796.13,1909.04z"/>
		<path class="st11" d="M1752.6,1883.12c0,0,11.19,4.64,32.75,5.46c21.56,0.82,33.29-4.09,41.21-8.73"/>
	</g>
	<g>
		<g>
			<polygon class="st0" points="2055.41,1859.45 2058.27,1953.74 2001.67,1967.13 1979.86,1845.57 			"/>
			<path class="st1" d="M2063.14,1907.43c0,0,3.6,32.55,18.42,49.6c5.71,6.57,14.59,11.83,22.63,15.69
				c1.56,0.75,3.13,1.41,4.68,1.97c20.21,7.29,70.05,26.69,83.79,39.22c13.73,12.53,16.36,24.3,16.36,24.3l6.78,1.32l-8.72,10.21
				c0,0-8.85,14.49-49.16,9.26c-40.3-5.23-158.47-53.9-158.47-53.9l-12.08-91.58l4.85-0.83c0,0,10.47,6.97,35.22,2.66
				c24.76-4.31,29.98-12.35,29.98-12.35L2063.14,1907.43z"/>
			<path class="st2" d="M2209.02,2038.22l6.78,1.32l-5.56,12.28c0,0-14.39,13.15-54.7,7.92c-40.3-5.23-153.73-42.81-153.73-42.81
				l-3.31-12.78l26.96,10.54c0,0,47.18,13.7,73.97,19.72C2188.36,2054.4,2209.02,2038.22,2209.02,2038.22z"/>
			<path class="st3" d="M1997.17,1989.73"/>
			<g>
				<path class="st4" d="M2202.33,2034.09c-2.48-10.9-10.78-20.29-21.29-24.09c-1.19-0.43-2.97-0.51-3.28,0.72
					c-0.2,0.8,0.44,1.54,1.04,2.11c7,6.77,14,13.53,21,20.3c0.57,0.55,1.46,1.12,2.06,0.6"/>
			</g>
			<path class="st5" d="M2055.99,1868.18l0.52,10.39c0,0-27.54,13.61-47.31,13.97c-14.36,0.26-21.19-4.27-21.19-4.27l-4.94-22.2
				l72.29-2.77L2055.99,1868.18"/>
		</g>
		<path class="st6" d="M1990.78,1928.78c0,0,8.46,52.56,25.26,61.12c16.79,8.56,136.47,52.9,136.47,52.9s-67.36-6.95-106.42-21.7
			c-33.35-12.59-46.65-15.97-46.65-15.97L1990.78,1928.78z"/>
		<path class="st7" d="M2109.13,1972.46c-29.54-8.14-43.59,21.95-43.59,21.95"/>
		<path class="st7" d="M2133.5,1982.1c-29.54-8.14-43.59,21.95-43.59,21.95"/>
		<path class="st7" d="M2161.48,1994.16c-29.54-8.14-43.59,21.95-43.59,21.95"/>
		
			<ellipse transform="matrix(0.9917 -0.1285 0.1285 0.9917 -233.7508 274.7896)" class="st8" cx="2012.01" cy="1948.34" rx="12.09" ry="17.35"/>
		<path class="st9" d="M2056.77,1906.05c0,0,0.13-1.12,4.03,7.73c3.9,8.85,6.3,31.31,2.31,39.05c-3.96,7.67-13.04,6.64-13.04,6.64"
			/>
		<path class="st10" d="M2057.16,1903.46c0,0-12.86,15.39-39.83,15.17c-14.1-0.12-25.12-5.93-25.12-5.93l-3.85-20.14
			c0,0,9.33,5.57,33.12,2.38c23.53-3.15,34.8-10.15,34.8-10.15L2057.16,1903.46z"/>
		
			<ellipse transform="matrix(0.9917 -0.1285 0.1285 0.9917 -230.243 278.1443)" class="st1" cx="2039.75" cy="1922.84" rx="21.49" ry="28.65"/>
		<path class="st6" d="M2019.51,1914.73c0,0,18.98,9.51,22.76,25.94s7.8,18.8,7.8,18.8s-8.72,2.78-20.79-17.12
			S2019.51,1914.73,2019.51,1914.73z"/>
		<path class="st11" d="M2059.34,1883.43c0,0-10.5,6.04-31.77,9.62c-21.27,3.58-33.54,0.22-41.99-3.36"/>
	</g>
</g>
<g id="Haarehinten_11_">
	<path class="st12" d="M1962.71,533.87l-3.69,23.78c9.95,1.46,42.83-48.2,49.27-73.22c29.4-114.19,33.93-133.98,34.7-174.55
		c0.85-44.72-8.16-69.53-36-93.53c-37.75-32.53-61.75-38.91-151.46-49.47c-77.29-9.1-123.14,42.15-144.55,76.12
		c-10.7,16.98-14.69,51.01-26.28,125.54c-11.58,74.54-4.7,90.36-4.7,90.36s8.99,47.73,36.7,51.94l3.4,0.49l7.97-0.78
		c7,2.74-5.13-22.39,3.06-18.66c90.28,41.09,137.26-7.92,189.53-9.84l24.91,7.5l2.68,67.79c6.83-0.48-0.33,0.14,5.39-0.56
		L1962.71,533.87z"/>
	<path class="st13" d="M1968.14,447.48c0,0,6.95-13.03,8.25,7.01c1.83,28.28-32.84,102.22-32.84,102.22s-8.46-0.22-9.9-1.36
		c-1.43-1.14,13.83-31.34,13.83-31.34l-1.21-54.93L1968.14,447.48z"/>
	<path class="st13" d="M1905.69,442.08c-17.95-100.91,12.87-28.28-56.6-40.98c-85.35-15.6-71.76-94.96-110.41-62.7
		s-21.02,174.53-21.02,174.53c19.81,5.45,45.87,17.71,54.64,19.72c87.93,20.13,59.94,14.41,110.05,22.78
		C1882.66,555.48,1910.63,469.85,1905.69,442.08z"/>
	<polygon class="st13" points="1897.62,513.17 1885.84,554.61 1943.98,556.45 1963.39,436.99 	"/>
	<g>
		<g>
			<g>
				<path class="st14" d="M1734.52,422.2c-5.27,22.05-10.13,44.2-14.87,66.37c-1.45,6.8-2.9,13.6-4.33,20.41
					c-0.1,0.47,0.62,0.67,0.72,0.2c4.82-22.78,9.67-45.56,14.87-68.26c1.42-6.18,2.86-12.35,4.33-18.51
					C1735.36,421.93,1734.64,421.73,1734.52,422.2L1734.52,422.2z"/>
			</g>
		</g>
		<g>
			<g>
				<path class="st14" d="M1743.69,451.16c-4.26,15.22-6.78,30.85-9.67,46.37c-0.95,5.1-1.94,10.2-2.99,15.29
					c-0.1,0.47,0.63,0.67,0.72,0.2c3.36-16.25,5.83-32.69,9.46-48.88c0.96-4.28,2.02-8.54,3.2-12.77
					C1744.55,450.9,1743.82,450.7,1743.69,451.16L1743.69,451.16z"/>
			</g>
		</g>
		<g>
			<g>
				<path class="st14" d="M1933.46,487.21c-0.28-0.06-0.07-0.13-0.12,0.24c-0.03,0.2-0.01,0.41-0.02,0.61
					c-0.04,0.7-0.13,1.41-0.22,2.11c-0.2,1.57-0.46,3.13-0.72,4.68c-0.64,3.8-1.34,7.57-2.26,11.31
					c-2.6,10.56-6.21,20.84-9.22,31.29c-1.64,5.71-3.13,11.47-4.05,17.34c-0.07,0.47,0.65,0.68,0.72,0.2
					c1.77-11.22,5.45-22.05,8.79-32.87c2.84-9.21,5.31-18.42,6.89-27.93c0.28-1.71,0.56-3.43,0.74-5.16
					c0.05-0.47,0.46-2.39-0.33-2.54C1933.19,486.4,1932.99,487.12,1933.46,487.21L1933.46,487.21z"/>
			</g>
		</g>
		<g>
			<g>
				<path class="st14" d="M1937.57,487.54c-2.62,18.24-9.16,35.62-12.77,53.66c-0.98,4.87-1.73,9.79-2.11,14.75
					c-0.04,0.48,0.71,0.48,0.75,0c1.38-18.27,7.7-35.72,11.94-53.42c1.17-4.89,2.19-9.81,2.91-14.79
					C1938.36,487.27,1937.64,487.06,1937.57,487.54L1937.57,487.54z"/>
			</g>
		</g>
	</g>
</g>
<path class="st0" d="M1543.83,732.15c0,0-23.75,11.08-32.37,17.43c-8.62,6.35,4.23-98.54,0.4-106.97
	c-19.91-43.88-62.03,4.36-62.03,4.36s-41.68,145.26,11.69,208.19c17.04,20.09,138.05-50.84,138.05-50.84L1543.83,732.15z"/>
<g id="arm_x5F_L">
	<path class="st0" d="M2117.91,615.26c0,0,51.64-9.47,62.34-9.78c0,0-40.78-108.84-42.97-117.84c-11.38-46.82,38.7-30.45,38.7-30.45
		s144.54,192.2,67.01,220.43c-18.84,6.86-124.47,28.82-124.47,28.82L2117.91,615.26z"/>
	<polygon class="st5" points="2145.18,610.53 2158.51,697.93 2140.06,703.28 	"/>
</g>
<g id="Arm_x5F_R_7_">
	<path class="st5" d="M1526.29,740.57c0,0,19.58,51.58,57.03,66.63l2.26,1.26l10.83-19.35l-60.97-55.53L1526.29,740.57z"/>
</g>
<g id="Hals_9_">
	<path id="Hals_10_" class="st0" d="M1791.22,505.6l-1.23,66.11c0,0-44.76,9.96-61.67,18.69c-27.5,14.19,185.3,111.07,227.05,62.77
		c25-28.92,2.83-53.93-26.61-65.5c-11.46-4.5-45.64-13.71-45.64-13.71l-3.27-89.03L1791.22,505.6z"/>
	<path class="st15" d="M1790.81,509.9v19.65c0,0,43.19,36.43,91.28,15.35l-0.41-44L1790.81,509.9z"/>
	<path class="st16" d="M1793.26,534.46l-1.36,40.66c0,0,10.37-0.55,8.73-15.56C1798.99,544.56,1793.26,534.46,1793.26,534.46z"/>
	<path class="st5" d="M1882.23,563.39c0,0-18.28,33.29-54.31,45.3c-3.66,1.22-37.66,0-37.66,0l23.2,2.73c0,0,20.74,7.1,21.56,7.1
		s12.83,0.27,12.83,0.27l36.02-48.3L1882.23,563.39"/>
</g>
<g id="KOPFPBEN_Kopie_3_Kopie_Kopie_Kopie_Kopie_2_Kopie_Kopie">
	<g id="Kopf_11_">
		<path id="Kopf_12_" class="st0" d="M1746.9,234.52c0,0-13.85,133.32-13.87,172.64c-0.02,45.6,38.22,113.12,97.92,126.31
			c47.47,10.48,119.63-48.11,134.68-76.69c13.28-25.22,19.75-79.76,24.38-121.46c2.95-26.51-22.97-66.5-47.05-101.07
			c-13.78-19.77-39.79-26.73-61.58-16.43L1746.9,234.52z"/>
		<path class="st15" d="M1909.65,224.23c0,0-95.89,80.13-148.3,81.32c-52.41,1.19-19.4,4.68-19.4,4.68l11.1-43.26L1909.65,224.23z"
			/>
		<path class="st5" d="M1978.8,410.96c0,0-25.72,43.68-26.04,44c-6.87,6.9-77.05,85.3-116.37,78.38c0,0,34.63,9.35,87.2-33.44
			c25.18-20.5,41.13-42.14,41.13-42.14"/>
	</g>
	<g id="Augen_Kopie_3_Kopie_Kopie_Kopie_Kopie_2_Kopie_Kopie" class="st17">
		<g class="st18">
			<g>
				<path class="st19" d="M1902.32,371.73c0,0,17.94-15.83,32.87-12.24c14.93,3.6,19.12,11.02,22.44,22.77c0,0-9.04,8.59-25.88,5.68
					C1909.3,384.06,1902.32,371.73,1902.32,371.73z"/>
				
					<linearGradient id="SVGID_1_" gradientUnits="userSpaceOnUse" x1="1907.6398" y1="621.1957" x2="1907.448" y2="602.11" gradientTransform="matrix(0.9702 0.2423 -0.2423 0.9702 237.5618 -675.0706)">
					<stop  offset="0" style="stop-color:#008CB2"/>
					<stop  offset="0.2227" style="stop-color:#0188AD"/>
					<stop  offset="0.5014" style="stop-color:#047B9D"/>
					<stop  offset="0.8087" style="stop-color:#086684"/>
					<stop  offset="1" style="stop-color:#0B5570"/>
				</linearGradient>
				<path class="st20" d="M1958.35,379.14c1.02,1.67,2.14,0.23,0.88,1.64c-4.35,4.89-14.36,8.97-22.3,7.4
					c-10.23-2.03-16.49-10.06-13.98-17.95c1.03-3.25,3.17-5.59,6.03-7.07c4.08-2.11,6.46-3.11,12.46-1.92
					C1951.67,363.27,1954.04,372.09,1958.35,379.14z"/>
				
					<ellipse transform="matrix(0.0155 -0.9999 0.9999 0.0155 1537.8683 2308.574)" class="st21" cx="1941.29" cy="373.32" rx="6.06" ry="7.79"/>
				<g class="st17">
					<path class="st22" d="M1959.86,383.2c0,0-7.49-20.67-22.8-23.06c-15.31-2.39-22.29,2.61-32.24,11.73
						c0,0,4.68,10.95,21.27,14.66C1948.18,391.47,1959.86,383.2,1959.86,383.2z"/>
					
						<linearGradient id="SVGID_00000011021211214479642100000015392355125250674065_" gradientUnits="userSpaceOnUse" x1="1294.1948" y1="622.5356" x2="1293.9949" y2="602.6489" gradientTransform="matrix(-0.9702 -0.2423 -0.2423 0.9702 3335.4954 98.5683)">
						<stop  offset="0" style="stop-color:#008CB2"/>
						<stop  offset="0.2227" style="stop-color:#0188AD"/>
						<stop  offset="0.5014" style="stop-color:#047B9D"/>
						<stop  offset="0.8087" style="stop-color:#086684"/>
						<stop  offset="1" style="stop-color:#0B5570"/>
					</linearGradient>
					<path style="display:inline;fill:url(#SVGID_00000011021211214479642100000015392355125250674065_);" d="M1913.72,369.7
						c-2.51,7.89,2.63,15.13,12.86,17.16c6.63,1.31,13.29,2.07,17.87-0.08c6.86-3.22,8.76-10.59,8.52-13.46
						c-0.6-7.11-10.05-10.77-17.32-13.39c-5.33-1.92-10.38,0.71-14.73,2.47C1917.46,363.8,1914.83,366.2,1913.72,369.7z"/>
					
						<ellipse transform="matrix(0.0155 -0.9999 0.9999 0.0155 1529.8719 2299.6372)" class="st24" cx="1932.75" cy="372.91" rx="6.06" ry="7.79"/>
					<path class="st25" d="M1927.3,375.35l-13.39,2.81c-1.17,0.25-2.42-0.29-2.77-1.19l-0.13-0.33c-0.35-0.9,0.33-1.84,1.5-2.08
						l13.39-2.81c1.17-0.25,2.42,0.29,2.77,1.19l0.13,0.33C1929.15,374.17,1928.47,375.1,1927.3,375.35z"/>
				</g>
				<path class="st19" d="M1935.64,374.6l-13.39,2.81c-1.17,0.25-2.42-0.29-2.77-1.19l-0.13-0.33c-0.35-0.9,0.33-1.84,1.5-2.08
					l13.39-2.81c1.17-0.25,2.42,0.29,2.77,1.19l0.13,0.33C1937.49,373.42,1936.81,374.35,1935.64,374.6z"/>
			</g>
			<g>
				<g class="st17">
					<path class="st25" d="M1828.98,356.44c0,0-7.49-20.67-22.8-23.06c-15.31-2.39-22.29,2.61-32.24,11.73
						c0,0,4.68,10.95,21.27,14.66C1817.3,364.72,1828.98,356.44,1828.98,356.44z"/>
					
						<linearGradient id="SVGID_00000162324215758453080290000004786343645076653727_" gradientUnits="userSpaceOnUse" x1="1427.6626" y1="628.2896" x2="1427.4626" y2="608.4028" gradientTransform="matrix(-0.9702 -0.2423 -0.2423 0.9702 3335.4954 98.5683)">
						<stop  offset="0" style="stop-color:#008CB2"/>
						<stop  offset="0.2227" style="stop-color:#0188AD"/>
						<stop  offset="0.5014" style="stop-color:#047B9D"/>
						<stop  offset="0.8087" style="stop-color:#086684"/>
						<stop  offset="1" style="stop-color:#0B5570"/>
					</linearGradient>
					<path style="display:inline;fill:url(#SVGID_00000162324215758453080290000004786343645076653727_);" d="M1782.83,342.94
						c-2.51,7.89,2.63,15.13,12.86,17.16c6.63,1.31,13.29,2.08,17.87-0.08c6.86-3.22,8.77-10.59,8.52-13.46
						c-0.6-7.11-10.05-10.77-17.32-13.39c-5.33-1.92-10.38,0.71-14.73,2.47C1786.57,337.05,1783.95,339.44,1782.83,342.94z"/>
					
						<ellipse transform="matrix(0.0155 -0.9999 0.9999 0.0155 1427.7709 2142.4282)" class="st24" cx="1801.87" cy="346.16" rx="6.06" ry="7.79"/>
				</g>
				<path class="st19" d="M1796.41,348.6l-13.39,2.81c-1.18,0.25-2.42-0.29-2.77-1.19l-0.13-0.33c-0.35-0.9,0.33-1.84,1.5-2.08
					l13.39-2.81c1.17-0.25,2.42,0.29,2.77,1.19l0.13,0.33C1798.26,347.41,1797.59,348.35,1796.41,348.6z"/>
			</g>
		</g>
		<path class="st27" d="M1903.64,375.26c0.31,1.18,9.5,17.07,20.46,18c10.96,0.92,4.62,4.75-0.94,3.15
			C1904.75,391.11,1903.64,375.26,1903.64,375.26z"/>
		<path class="st27" d="M1830.78,359.15c-0.76,0.96-15.6,11.76-26,8.17c-10.4-3.59-6.15,2.47-0.41,3.26
			C1823.35,373.2,1830.78,359.15,1830.78,359.15z"/>
		
			<linearGradient id="SVGID_00000047767212296976837800000016240823906911944327_" gradientUnits="userSpaceOnUse" x1="2331.1958" y1="578.0392" x2="2396.6851" y2="578.0392" gradientTransform="matrix(-0.9784 -0.2069 -0.2069 0.9784 4227.1768 236.3521)">
			<stop  offset="0" style="stop-color:#FFB699;stop-opacity:0"/>
			<stop  offset="0.0426" style="stop-color:#FDAF91;stop-opacity:0.0818"/>
			<stop  offset="0.1473" style="stop-color:#FBA383;stop-opacity:0.2831"/>
			<stop  offset="0.2788" style="stop-color:#F99C7B;stop-opacity:0.5359"/>
			<stop  offset="0.5203" style="stop-color:#F99A79"/>
			<stop  offset="0.7469" style="stop-color:#F99C7B;stop-opacity:0.5276"/>
			<stop  offset="0.866" style="stop-color:#FBA383;stop-opacity:0.2793"/>
			<stop  offset="0.9599" style="stop-color:#FDAF91;stop-opacity:0.0836"/>
			<stop  offset="1" style="stop-color:#FFB699;stop-opacity:0"/>
		</linearGradient>
		<path style="display:inline;fill:url(#SVGID_00000047767212296976837800000016240823906911944327_);" d="M1827.21,315.38
			c-0.6,6.78-0.23,9.99-10.54,5.3s-15.48-8.92-23.17-6.16c-7.7,2.76-18.06,10.2-23.54,8.41s-12.53-9.97-6.11-13.64
			c6.42-3.66,19.35-11.41,32.23-10.96C1823.29,299.28,1827.21,315.38,1827.21,315.38z"/>
		
			<linearGradient id="SVGID_00000089548249898691892430000007073966879790168227_" gradientUnits="userSpaceOnUse" x1="1668.1062" y1="574.9016" x2="1733.5955" y2="574.9016" gradientTransform="matrix(0.9784 0.2069 -0.2069 0.9784 399.8366 -573.2172)">
			<stop  offset="0" style="stop-color:#FFB699;stop-opacity:0"/>
			<stop  offset="0.0426" style="stop-color:#FDAF91;stop-opacity:0.0818"/>
			<stop  offset="0.1473" style="stop-color:#FBA383;stop-opacity:0.2831"/>
			<stop  offset="0.2788" style="stop-color:#F99C7B;stop-opacity:0.5359"/>
			<stop  offset="0.5203" style="stop-color:#F99A79"/>
			<stop  offset="0.7469" style="stop-color:#F99C7B;stop-opacity:0.5276"/>
			<stop  offset="0.866" style="stop-color:#FBA383;stop-opacity:0.2793"/>
			<stop  offset="0.9599" style="stop-color:#FDAF91;stop-opacity:0.0836"/>
			<stop  offset="1" style="stop-color:#FFB699;stop-opacity:0"/>
		</linearGradient>
		<path style="display:inline;fill:url(#SVGID_00000089548249898691892430000007073966879790168227_);" d="M1914.16,330.57
			c-2.2,6.44-3.84,9.23,7.49,9.11c11.32-0.12,17.76-1.89,23.68,3.75c5.92,5.65,12.38,16.64,18.11,17.22s15.5-4.04,11.11-9.99
			c-4.39-5.95-13.07-18.27-25.03-23.08C1924.26,317.43,1914.16,330.57,1914.16,330.57z"/>
	</g>
	<g id="Mund_6_">
		<g>
			<path class="st30" d="M1806.01,437.59l-5.59-0.73c0,0,11.42,38.26,17.33,40.98c5.91,2.71,34.6,13.09,45.96,5.87
				s27.97-27.09,27.97-27.09s-32.88-8.49-33.92-8.51S1806.01,437.59,1806.01,437.59z"/>
			<path class="st22" d="M1802.35,435.17c0,0,0.52,3.35-0.5,3.61c-8.18,2.04,35.5,8.52,41.81,10.34
				c5.74,1.66,43.15,10.21,42.13,11.23c-1.57,1.57,7.3-8.39,2.04-10.21C1867.48,443.07,1806.06,438.36,1802.35,435.17z"/>
			<path class="st22" d="M1808.11,462.58c0,0,0.26-3.64,1.6-0.96c1.34,2.68,16.02,16.02,26.55,18.77c11.41,2.97,22.79,2.68,28.53,0
				s9.19-1.91,9.19-1.91s-11.11,17.62-21.64,17.04c-10.53-0.57-36-7.85-38.3-15.7C1811.75,471.96,1808.11,462.58,1808.11,462.58z"/>
			<path class="st31" d="M1799.88,436.86c0,0,6.51-9.93,35.75-6.18c7.54,0.97,12.76,5.28,13.97,5.15
				c3.32-0.34,11.96-0.04,13.59,0.39c31.61,8.38,28.44,20.64,28.44,20.64s-26.58-8.82-44.02-12.98
				C1824.32,438.32,1799.88,436.86,1799.88,436.86z"/>
			<path class="st31" d="M1800.13,436.73c4.69-0.26,1.53-5.11,3.83-0.26c6.15,12.98,10.34,36.77,24.38,44.68
				c14.38,8.1,29.42,3.52,35.1,1.38c5.68-2.14,27.58-31.85,22.73-28.7c-1.7,1.11,7.63-2.67,5.11,4.34
				c-4.6,12.77-17.62,29.62-25.44,35.99c-6.52,5.32-25.07,8.87-36.09,4.41c-16.09-6.51-24-27.89-26.55-35.81
				C1800.63,454.82,1800.13,436.73,1800.13,436.73z"/>
		</g>
		<path class="st32" d="M1823.33,432.26c0,0,5.54,0.97,10.38,2.34c5.99,1.69,9.79,4.16,4.74,3.3
			C1833.41,437.04,1823.33,432.26,1823.33,432.26z"/>
		<path class="st32" d="M1825.27,470.3"/>
		<path class="st32" d="M1837.02,473.36"/>
	</g>
	<g id="Brauen_Kopie_3_Kopie_Kopie_Kopie_Kopie_2_Kopie_Kopie">
		<path class="st33" d="M1912.36,303.57c0.91-0.33,16.85-11.79,29.85-11.57c13.97,0.23,16.88,2.74,27.48,8.53
			c11.25,6.15,20,19.19,20,19.19s2.03,3.25-10.4-5.23c-5.25-3.59-26.16-15.78-42.16-13.31c-6.99,1.08-19.8,4.66-21.76,5.44
			C1912.29,307.84,1912.36,303.57,1912.36,303.57z"/>
		<path class="st33" d="M1851.44,300.58c-0.66-0.7-9.85-18.06-21.59-23.64c-12.61-6-16.33-5.05-28.41-4.58
			c-12.81,0.5-26.45,8.29-26.45,8.29s-3.27,2.01,11.64-0.06c6.3-0.88,30.45-2.5,43.68,6.83c5.78,4.08,15.66,12.98,17.07,14.55
			C1849.6,304.43,1851.44,300.58,1851.44,300.58z"/>
	</g>
	<g id="sprossen_12_">
		
			<ellipse transform="matrix(0.2069 -0.9784 0.9784 0.2069 837.7646 2211.6816)" class="st34" cx="1783.1" cy="589.09" rx="1.84" ry="2.25"/>
		
			<ellipse transform="matrix(0.2069 -0.9784 0.9784 0.2069 824.6547 2189.8203)" class="st34" cx="1763.06" cy="586.24" rx="1.84" ry="2.25"/>
		
			<ellipse transform="matrix(0.2069 -0.9784 0.9784 0.2069 840.2954 2185.6819)" class="st34" cx="1768.33" cy="574.53" rx="1.84" ry="2.25"/>
		
			<ellipse transform="matrix(0.2069 -0.9784 0.9784 0.2069 828.3646 2175.1843)" class="st34" cx="1755.89" cy="576.64" rx="1.84" ry="2.25"/>
		
			<ellipse transform="matrix(0.2069 -0.9784 0.9784 0.2069 1075.5723 2082.637)" class="st35" cx="1822.41" cy="377.88" rx="1.74" ry="2.25"/>
		
			<ellipse transform="matrix(0.2069 -0.9784 0.9784 0.2069 1054.918 2080.5571)" class="st35" cx="1810.8" cy="389.58" rx="1.74" ry="2.25"/>
		
			<ellipse transform="matrix(0.2069 -0.9784 0.9784 0.2069 1061.0892 2064.0352)" class="st35" cx="1803.69" cy="377.51" rx="2.35" ry="2.56"/>
	</g>
	<g id="sprossen_11_">
		
			<ellipse transform="matrix(0.2069 -0.9784 0.9784 0.2069 869.7478 2276.4871)" class="st34" cx="1839.07" cy="601.76" rx="1.84" ry="2.25"/>
		
			<ellipse transform="matrix(0.2069 -0.9784 0.9784 0.2069 879.7978 2299.9133)" class="st34" cx="1858.54" cy="607.28" rx="1.84" ry="2.25"/>
		
			<ellipse transform="matrix(0.2069 -0.9784 0.9784 0.2069 892.3088 2289.655)" class="st34" cx="1858.47" cy="594.43" rx="1.84" ry="2.25"/>
		
			<ellipse transform="matrix(0.2069 -0.9784 0.9784 0.2069 1113.5801 2159.2231)" class="st35" cx="1888.65" cy="392.73" rx="1.74" ry="2.25"/>
		
			<ellipse transform="matrix(0.2069 -0.9784 0.9784 0.2069 1103.1757 2177.1863)" class="st35" cx="1894.53" cy="408.13" rx="1.74" ry="2.25"/>
		
			<ellipse transform="matrix(0.2069 -0.9784 0.9784 0.2069 1120.1836 2181.8545)" class="st35" cx="1905.91" cy="399.97" rx="2.35" ry="2.56"/>
	</g>
	<g id="Rouge_6_">
		<path class="st36" d="M1810.23,401.14c-2.48,11.73-21.99,17.7-37.74,14.37c-15.75-3.33-26.56-26.59-24.08-38.32
			s11.35-9.77,27.11-6.44C1791.28,374.08,1812.71,389.41,1810.23,401.14z"/>
		<path class="st36" d="M1901.36,421.81c-2.48,11.73,12.94,25.09,28.69,28.42c15.75,3.33,35.05-13.56,37.53-25.29
			c2.48-11.73-6.42-13.53-22.18-16.87C1929.64,404.74,1903.84,410.08,1901.36,421.81z"/>
	</g>
	<g id="Ohren_6_">
		<g>
			<g>
				<path class="st0" d="M1975.07,414.75c-4.12,19.46-10.72,41.82-10.28,42.62c9.99,17.94,48.46-13.49,52.58-32.95
					s-2.92-31.44-16.19-34.25C1987.91,387.37,1979.19,395.28,1975.07,414.75z"/>
			</g>
		</g>
		<g>
			<g>
				<path class="st0" d="M1746.24,365.11c-4.12,19.46-0.91,44.16-14.19,41.35c-27.23-5.76-36.3-34.76-32.18-54.23
					s14.54-24.82,27.81-22.01S1750.36,345.65,1746.24,365.11z"/>
			</g>
			<path class="st15" d="M1741,352.94c0,0-6.92-22.66-21.35-15.12c-14.43,7.55-10.81,19.47-10.81,19.47s16.45-14.26,11.05-2.13
				c-6.92,15.55,10.46,36.24,10.46,36.24s-7.31-31.39,2-30.54C1741.66,361.73,1741,352.94,1741,352.94z"/>
			<path class="st15" d="M1979.61,408.85c0,0,15.51-17.92,25.64-5.18c10.14,12.74,2,22.18,2,22.18s-9.26-19.7-9.24-6.42
				c0.03,17.02-24.24,28.9-24.24,28.9s19.39-25.74,10.54-28.73C1975.46,416.62,1979.61,408.85,1979.61,408.85z"/>
		</g>
	</g>
	<path id="nase_6_" class="st15" d="M1832.97,406.18c-0.39-0.64,0.22-1.41,0.92-1.16c4,1.42,13.35,4.63,19.24,5.88
		c8.08,1.71,16.98,2.81,20.84,3.25c0.73,0.08,0.96,1.03,0.34,1.44c-3.04,1.98-10.36,5.45-22.05,3.13
		C1840.56,416.39,1835.02,409.51,1832.97,406.18z"/>
	<g>
		<g id="Haareoben_6_">
			<g>
				<path class="st12" d="M1916.14,194.1c13.73,11.77,30.21,20.18,43.05,32.91c20.42,20.26,59.73,42.27,64.87,70.57
					c5.56,30.66,10.1,50.4-22.95,91.94c1.94-17.31-5.68-29.75-15.57-44.09c-9.89-14.34-32.74-29.06-41.74-43.98
					c-9.03-14.95-19.92-39.06-21.53-56.44c-1.25-13.43-4.36-23.31-9.07-36.23c-9.51-26.08-56.67-20.67-79.08-24.5
					c-25.76-4.39-23.91-11.54-49.46-6.04c-25.55,5.5-72.73,63.99-80.2,89.03c0,0-0.27,0.92-0.76,2.5
					c-3.34,10.7-5.08,51.49-38.3,74.03c-11.61,7.88,31.59-5.59,37.68-23.83"/>
			</g>
			<g>
				<path class="st12" d="M1722.55,343.84c6.88-20.47,0.74,13.05,20.27,3.82c25.22-11.92,6.47-59.08,33.56-65.7
					c41.66-10.18,147.15-43.9,162.01-84.13c-6.86,2.24-13.84,3.92-20.9,5.19c-24.53,4.39-50.06,3.68-75.13,3.24
					c-14.33-0.25-28.83-0.38-42.8,2.83c-22.98,5.27-46.52,6.08-59.27,25.91s-14.58,58.46-9.83,81.56
					c5.08-5.48-12.43,34.57-7.35,29.09"/>
			</g>
			<g>
				<g>
					<path class="st12" d="M1688.9,366.77c-1.76-14.88-2.37-29.92-1.32-44.87c0.9-12.81,3.03-25.54,6.64-37.87
						c3.16-10.78,7.45-21.22,12.9-31.05c4.95-8.92,10.84-17.32,17.54-25.02c6.24-7.17,13.16-13.74,20.59-19.66
						c6.89-5.49,14.24-10.42,21.88-14.8c6.96-3.99,14.17-7.54,21.57-10.64c6.43-2.69,13-5.06,19.68-7.09
						c5.32-1.62,10.71-3.02,16.15-4.17c3.61-0.76,7.37-1.44,10.87-1.83c0.57-0.06,1.15-0.12,1.72-0.17c0.96-0.08,0.96-1.58,0-1.5
						c-3.25,0.26-6.49,0.79-9.7,1.39c-5.12,0.96-10.2,2.18-15.22,3.59c-6.48,1.82-12.87,3.96-19.14,6.4
						c-7.34,2.86-14.51,6.13-21.47,9.83c-7.72,4.11-15.16,8.75-22.2,13.93c-7.58,5.58-14.71,11.78-21.21,18.6
						c-6.94,7.28-13.16,15.26-18.49,23.79c-5.85,9.35-10.62,19.37-14.29,29.77c-4.14,11.73-6.84,23.93-8.36,36.27
						c-1.76,14.37-1.89,28.92-0.8,43.35c0.29,3.92,0.68,7.84,1.14,11.75C1687.51,367.72,1689.01,367.73,1688.9,366.77L1688.9,366.77
						z"/>
				</g>
			</g>
			<g>
				<path class="st14" d="M1945.09,218.89c-0.17,20.3,12.81,43.9,24.59,60.43c15.11,21.19,28.44,24.45,33,25.95
					c7.18-50.4-51.2-64.25-57.91-87.56"/>
			</g>
			<path class="st14" d="M1699.04,280.99c0,0,10.34,53.04-3.92,109.7s27.9,124.78,27.9,124.78s-29.65-4.74-41.98-42.64
				C1670.3,439.82,1699.04,280.99,1699.04,280.99z"/>
			<path class="st33" d="M1710.12,262.92c-10.5,49.66,19.58,70.95,19.58,70.95l11.6,23.93c0,0,16.19-18.19,17.4-30.49
				s0.32-21.27,3.15-30.71c2.83-9.44,10.99-13.71,10.99-13.71s-79.16-14.79-13.25-65.28S1720.62,213.26,1710.12,262.92z"/>
			<path class="st33" d="M2021.94,251.19c0,0-33.99,36.74-10.37,88.6s9.29,96.52,9.29,96.52s21.33-90.33,15.45-148.19
				C2033.4,259.61,2021.94,251.19,2021.94,251.19z"/>
			<path class="st37" d="M1811,175.88c0,0-29.42,2.83-44.12,17.84c-14.7,15.01-24.84,30.12-9.52,17.75
				c17.38-14.03,40.21-20.73,40.21-20.73s54.12-21.09,33.14-15.29C1822.71,177.67,1811,175.88,1811,175.88z"/>
			<g>
				<g>
					<g>
						<path class="st12" d="M1785.23,177.44c-2.83,0.44-5.55,2-7.98,3.41c-3.58,2.07-6.99,4.44-10.32,6.89
							c-7.16,5.27-14.07,10.96-20.46,17.15c-2.15,2.08-4.31,4.23-6.07,6.66c-3.94,5.41-7.4,11.25-10.69,17.07
							c-6.78,11.97-12.49,24.55-17.05,37.52c-5.19,14.79-9.57,31.06-5.25,46.63c0.23,0.82,1.05,1.21,1.85,1.05
							c2.1-0.43,3.63-2.43,3.45-4.58c-0.16-1.91-3.16-1.93-3,0c0.07,0.9-0.35,1.5-1.25,1.69c0.62,0.35,1.23,0.7,1.85,1.05
							c-3.78-13.64-0.45-27.9,3.88-40.99c4.24-12.82,9.62-25.25,16.06-37.11c3.21-5.92,6.68-11.71,10.41-17.32
							c2-3.02,3.72-5.28,6.3-7.89c5.91-5.98,12.43-11.44,19.12-16.53c3.7-2.82,7.5-5.54,11.48-7.95c2.63-1.6,5.45-3.37,8.51-3.84
							C1787.93,180.04,1787.12,177.15,1785.23,177.44L1785.23,177.44z"/>
					</g>
				</g>
				<path class="st38" d="M1928.42,196.12c0,0-24.48,72.23,6.02,102.11s62.31,49.58,62.31,49.58l-57.69-126.84L1928.42,196.12z"/>
				<g>
					<g>
						<path class="st12" d="M1787.11,179.47c23.04-6.52,47.21-9.8,71.11-7.13c17.13,1.91,33.94,6.96,49,15.4
							c10.51,5.89,20.23,13.38,28.23,22.41c2.86,3.23,5.25,6.81,8.29,9.87c4.42,4.45,9.35,8.41,14.27,12.29
							c13.44,10.58,27.41,20.45,41,30.82c12.62,9.63,25.7,19.51,36.1,31.61c3.24,3.77,6.68,8.15,7.81,13.1
							c0.49,2.15,0.59,4.43,0.8,6.62c0.29,3.01,0.54,6.03,0.73,9.04c0.4,6.3,0.58,12.61,0.51,18.92c-0.13,12.82-1.2,25.72-4.1,38.23
							c-2.99,12.91-8.1,25.42-12.92,37.74c-5.04,12.89-10.26,25.71-15.07,38.69c-3.39,9.14-7.7,17.92-11.78,26.76
							c-4.49,9.72-8.91,19.51-12.42,29.63c-3.17,9.13-5.82,18.81-5.73,28.56c0.04,4.03,0.6,8.06,1.93,11.87
							c0.32,0.91,1.77,0.52,1.45-0.4c-3.06-8.78-1.97-18.41,0.14-27.27c2.52-10.62,6.64-20.83,11.02-30.8
							c4.23-9.62,8.86-19.06,13.07-28.7c4.81-11.03,8.73-22.45,13.17-33.63c5.09-12.8,10.2-25.59,14.64-38.63
							c4.06-11.93,6.41-24.13,7.43-36.69c1.03-12.82,0.88-25.74-0.13-38.56c-0.33-4.17-0.33-8.73-1.53-12.77
							c-0.67-2.25-1.79-4.36-3.05-6.33c-3.41-5.34-7.9-9.99-12.46-14.36c-5.95-5.7-12.3-10.98-18.75-16.1
							c-13.88-11.05-28.32-21.35-42.47-32.04c-9.74-7.36-19.93-14.71-27.45-24.42c-6.7-8.65-15.13-15.98-24.21-22.03
							c-13.4-8.93-28.59-15.01-44.33-18.27c-21.42-4.43-43.61-3.66-65.02,0.42c-6.62,1.26-13.18,2.85-19.66,4.69
							C1785.79,178.28,1786.18,179.73,1787.11,179.47L1787.11,179.47z"/>
					</g>
				</g>
			</g>
			<path class="st38" d="M1702.34,275.14c0,0-15.09,156.81-22.36,178.36c-4.48,13.28-18.7,26.95-18.7,26.95"/>
			<path class="st38" d="M1643.56,482.37"/>
			<path class="st38" d="M1693.78,326.96"/>
			<g>
				<path class="st14" d="M1751.6,252.6c-0.62-4.38,0.86-8.8,2.77-12.79c8.16-17.05,24.37-29.25,42.01-36.03
					c7.63-2.93,15.57-4.96,23.49-6.98c20.33-5.19,40.67-10.38,61.25-14.45c2.28-0.45,4.63-0.89,6.9-0.42
					c2.27,0.46,4.48,2.05,4.96,4.32c0.77,3.68-3,6.61-6.39,8.24c-9.4,4.52-19.64,6.96-29.75,9.53
					c-26.79,6.81-53.76,14.95-76.75,30.3c-5.66,3.78-11.07,7.99-17.14,11.09c-3.82,1.95-7.86,3.44-12.03,4.42"/>
			</g>
			<g>
				<g>
					<path class="st14" d="M1743.15,335.83c-2.38-11.86-3.72-24.07-2.7-36.17c0.73-8.71,2.75-17.39,6.67-25.23
						c3.1-6.2,7.36-11.76,12.57-16.34c4.48-3.93,9.59-7.1,15-9.58c4.48-2.05,9.17-3.62,13.93-4.88c7.6-2,15.35-3.45,23.11-4.68
						c7.92-1.25,15.87-2.32,23.75-3.78c4.99-0.93,10.12-1.76,14.8-3.79c7.8-3.4,14.96-8.42,21.83-13.37
						c8.45-6.1,16.59-12.63,24.46-19.46c6.44-5.6,12.87-11.37,18.52-17.79c0.89-1.01,1.75-2.04,2.55-3.11
						c0.29-0.39-0.36-0.76-0.65-0.38c-4.58,6.09-10.44,11.33-16.07,16.42c-7.81,7.06-15.94,13.77-24.35,20.1
						c-7.38,5.56-15.01,11.03-23.23,15.29c-3.25,1.69-6.49,2.89-10.06,3.72c-7.89,1.82-15.9,3.03-23.9,4.23
						c-9.75,1.47-19.48,3.03-29.05,5.4c-4.61,1.14-9.16,2.54-13.55,4.36c-5.32,2.21-10.39,5.03-14.95,8.57
						c-5.27,4.09-9.77,9.11-13.22,14.82c-4.24,7.03-6.83,14.95-8.12,23.04c-1.75,10.9-1.29,22.05,0.24,32.94
						c0.47,3.31,1.04,6.59,1.7,9.87C1742.52,336.51,1743.24,336.31,1743.15,335.83L1743.15,335.83z"/>
				</g>
			</g>
			<g>
				<g>
					<path class="st14" d="M1935.26,183.74c-2.17,14.33-2.82,28.92-2.11,43.39c0.73,14.97,2.89,30.06,7.62,44.32
						c2.13,6.44,4.82,12.73,8.31,18.56c4.37,7.31,9.68,14,15.29,20.38c5.67,6.45,11.66,12.61,17.45,18.96
						c2.51,2.75,5.02,5.5,7.2,8.53c2.07,2.87,3.93,5.89,5.64,8.99c7.13,12.91,12.27,27.38,14.72,41.94c0.28,1.66,0.51,3.34,0.7,5.02
						c0.05,0.47,0.8,0.48,0.75,0c-1.54-14.14-6.17-28.16-12.26-40.96c-2.98-6.26-6.43-12.36-10.75-17.8
						c-5.1-6.43-11.06-12.22-16.63-18.24c-10.97-11.85-21.44-24.32-27.48-39.47c-5.54-13.91-8.21-28.9-9.39-43.78
						c-1.18-14.8-0.87-29.76,0.96-44.49c0.21-1.71,0.45-3.42,0.71-5.13C1936.06,183.47,1935.34,183.26,1935.26,183.74
						L1935.26,183.74z"/>
				</g>
			</g>
			<g>
				<g>
					<path class="st14" d="M2002.37,318.13c-0.25,15.79,4.8,30.96,10.02,45.66c5.35,15.07,11.67,30.61,12.05,46.81
						c0.18,7.72-0.92,15.08-3.3,22.42c-2.42,7.48-5.69,14.66-8.88,21.84c-3.05,6.87-5.73,13.79-8.27,20.86
						c-2.66,7.42-5.56,14.76-8.22,22.19c-5.08,14.17-8.89,28.73-8.53,43.9c0.05,2.05,0.17,4.1,0.35,6.14c0.04,0.48,0.79,0.48,0.75,0
						c-0.69-7.96-0.39-15.96,0.93-23.84c1.23-7.32,3.27-14.48,5.65-21.5c2.49-7.34,5.32-14.56,8.02-21.83
						c2.72-7.33,5.21-14.7,8.35-21.87c5.86-13.41,13.11-27.19,13.81-42.1c0.38-8.14-0.54-16.06-2.5-23.96
						c-1.91-7.74-4.52-15.29-7.19-22.8c-5.32-14.95-11.19-30.13-12.17-46.13c-0.12-1.93-0.16-3.86-0.13-5.79
						C2003.12,317.65,2002.37,317.65,2002.37,318.13L2002.37,318.13z"/>
				</g>
			</g>
			<g>
				<g>
					<path class="st14" d="M1719.96,229.17c-6,10.07-11.38,20.67-16.14,31.37c-1.08,2.43-2.13,4.88-3,7.4
						c-0.9,2.6-1.21,5.16-1.61,7.88c-1.48,10.14-3.4,20.21-5.39,30.27c-3.99,20.25-8.33,40.52-10.13,61.12
						c-0.89,10.21-0.93,20.39-0.38,30.62c0.56,10.39,1.56,20.75,2.32,31.13c1.48,20.22,1.92,40.85-4.06,60.45
						c-0.77,2.53-1.65,5.02-2.61,7.48c-0.18,0.45,0.55,0.64,0.72,0.2c7.41-18.98,8.35-39.31,7.26-59.44
						c-1.11-20.51-4.06-41-3.11-61.58c0.97-20.83,5.06-41.37,9.11-61.77c2-10.07,4.03-20.15,5.72-30.28
						c0.71-4.23,1.06-8.59,1.95-12.78c0.46-2.17,1.3-4.27,2.13-6.32c4.63-11.43,10.52-22.5,16.61-33.22
						c0.41-0.72,0.82-1.44,1.24-2.15C1720.85,229.14,1720.21,228.76,1719.96,229.17L1719.96,229.17z"/>
				</g>
			</g>
		</g>
		<path class="st12" d="M1996.49,470.61c0,0-27.99,24.2-8.47,40.05c19.52,15.84,31.98,12.34,31.98,12.34s-23.91-16.21-24.29-30.24
			C1995.33,478.73,1996.49,470.61,1996.49,470.61z"/>
		<path class="st12" d="M1846.72,165.03c0,0,11.3-19.79,38.69-6.88c27.39,12.91,40.6,23.65,40.6,23.65s-25.28-14.97-42.44-16.93
			c-17.16-1.96-39.24,5.51-39.24,5.51L1846.72,165.03z"/>
		<path class="st33" d="M1855.53,166.9c0,0-22.13,26.14-37.87,26.72c-15.74,0.58,35.84,2,41.33-10.78
			c5.49-12.78,6.48-14.81,6.48-14.81L1855.53,166.9"/>
		<path class="st39" d="M1737.24,366.14c0,0-5.97,24.26-4.32,42.18c1.65,17.92,5.26,32.49,9.17,41.69c3.91,9.2-6.08-16.77-4.33-36.9
			S1737.24,366.14,1737.24,366.14z"/>
	</g>
	<g id="Augen_Kopie_3_Kopie_Kopie_Kopie_Kopie_2_Kopie_Kopie_3">
		<g>
			<g>
				<path class="st22" d="M1902.82,368.92c0,0,17.83-19.81,32.88-15.81s19.02,11.65,22.78,26.94c0,0-8.59,4.91-25.52,1.91
					C1910.39,377.97,1902.82,368.92,1902.82,368.92z"/>
				
					<linearGradient id="SVGID_00000065780502681393755030000016680800662622081694_" gradientUnits="userSpaceOnUse" x1="1912.3448" y1="625.1662" x2="1912.0942" y2="600.2346" gradientTransform="matrix(0.9786 0.2056 -0.2056 0.9786 195.18 -614.2665)">
					<stop  offset="0" style="stop-color:#008CB2"/>
					<stop  offset="0.2227" style="stop-color:#0188AD"/>
					<stop  offset="0.5014" style="stop-color:#047B9D"/>
					<stop  offset="0.8087" style="stop-color:#086684"/>
					<stop  offset="1" style="stop-color:#0B5570"/>
				</linearGradient>
				<path style="display:none;fill:url(#SVGID_00000065780502681393755030000016680800662622081694_);" d="M1959.1,375.92
					c1.08,2.14,2.14,0.2,0.95,2.12c-4.16,6.65-14.01,12.51-22.01,10.83c-10.3-2.16-16.86-12.42-14.65-22.91
					c0.91-4.33,2.95-7.51,5.76-9.6c4-2.97,6.33-4.41,12.38-3.14C1951.82,355.38,1954.52,366.86,1959.1,375.92z"/>
				
					<ellipse transform="matrix(0.2056 -0.9786 0.9786 0.2056 1181.4061 2193.5671)" class="st21" cx="1941.82" cy="369.1" rx="7.98" ry="7.78"/>
				<g>
					<path class="st19" d="M1960.76,381.18c0,0-8.27-26.81-23.67-29.21c-15.39-2.4-22.18,4.52-31.77,17.01
						c0,0,5.1,14.16,21.81,18.23C1949.41,392.63,1960.76,381.18,1960.76,381.18z"/>
					
						<linearGradient id="SVGID_00000066488817982950234490000015339912442558324383_" gradientUnits="userSpaceOnUse" x1="1289.4731" y1="619.3409" x2="1289.2737" y2="599.4877" gradientTransform="matrix(-0.9786 -0.2056 -0.2056 0.9786 3320.0493 42.1649)">
						<stop  offset="0" style="stop-color:#008CB2"/>
						<stop  offset="0.2227" style="stop-color:#0188AD"/>
						<stop  offset="0.5014" style="stop-color:#047B9D"/>
						<stop  offset="0.8087" style="stop-color:#086684"/>
						<stop  offset="1" style="stop-color:#0B5570"/>
					</linearGradient>
					<path style="fill:url(#SVGID_00000066488817982950234490000015339912442558324383_);" d="M1914.14,365.69
						c-2.2,10.49,2.8,12.06,2.8,12.06c16.6,6.51,31.02,5.23,31.21,5.04c5.75-5.75,5.7-10.5,5.35-14.26
						c-0.87-9.32-9.6-11.25-16.97-14.33c-5.4-2.26-11.2-0.97-15.47,1.55C1917.65,357.76,1915.12,361.03,1914.14,365.69z"/>
					
						<ellipse transform="matrix(0.2056 -0.9786 0.9786 0.2056 1174.7314 2185.1111)" class="st42" cx="1933.28" cy="368.98" rx="7.98" ry="7.78"/>
					<path class="st22" d="M1927.92,372.46l-12.77,4.33c-0.06,0.13-2.43-1.58-2.81-2.74l-0.65,0.9c-0.38-1.16,0.26-2.43,1.42-2.81
						l13.27-4.35c1.16-0.38,2.43,0.26,2.81,1.42l0.14,0.43C1929.73,370.81,1929.08,372.08,1927.92,372.46z"/>
				</g>
				<g>
					<path d="M1901.77,368.75c3.81-4.18,8.33-7.86,13.35-10.87c5.85-3.5,12.77-6.16,19.68-5.5c5.78,0.55,10.96,3.37,15.14,6.87
						c4.18,3.5,9.8,14.31,11.61,15.23c0,0,3.89,0.89,5.78,0.02c-2.54,1.9-5.75,4.55-8.9,5.45c-3.05-5.51-2.32-5.74-7.4-12.4
						c-3.75-4.91-9.15-9.78-16.07-10.63c-7.51-0.93-15.05,2.29-20.88,6.76c-5.19,3.99-8.12,7.3-8.44,7.74"/>
				</g>
				<path class="st19" d="M1936.23,371.06l-13.27,4.35c-1.16,0.38-2.43-0.26-2.81-1.42l-0.14-0.43c-0.38-1.16,0.26-2.43,1.42-2.81
					l13.27-4.35c1.16-0.38,2.43,0.26,2.81,1.42l0.14,0.43C1938.03,369.42,1937.39,370.68,1936.23,371.06z"/>
			</g>
			<g class="st17">
				<g class="st18">
					<path class="st22" d="M1828.95,352.43c0,0-5.16-22.45-20.55-24.85c-15.39-2.4-24.03,1.82-34.88,12.64
						c0,0,5.63,8.37,22.34,12.44C1818.13,358.09,1828.95,352.43,1828.95,352.43z"/>
					
						<linearGradient id="SVGID_00000018207034998271516310000010609602429502059934_" gradientUnits="userSpaceOnUse" x1="1424.5829" y1="624.9417" x2="1424.3502" y2="601.7957" gradientTransform="matrix(-0.9786 -0.2056 -0.2056 0.9786 3320.0493 42.1649)">
						<stop  offset="0" style="stop-color:#008CB2"/>
						<stop  offset="0.2227" style="stop-color:#0188AD"/>
						<stop  offset="0.5014" style="stop-color:#047B9D"/>
						<stop  offset="0.8087" style="stop-color:#086684"/>
						<stop  offset="1" style="stop-color:#0B5570"/>
					</linearGradient>
					<path style="fill:url(#SVGID_00000018207034998271516310000010609602429502059934_);" d="M1782.33,336.94
						c-2.2,10.49,3.21,19.77,13.5,21.93c6.67,1.4,13.36,2.08,17.86-0.98c6.73-4.57,8.35-14.36,8-18.12
						c-0.87-9.32-10.14-9.69-17.51-12.77c-5.4-2.26-11.04,0.35-15.32,2.87C1785.45,331.89,1783.31,332.28,1782.33,336.94z"/>
					
						<ellipse transform="matrix(0.2056 -0.9786 0.9786 0.2056 1098.1593 2033.274)" class="st42" cx="1801.47" cy="340.23" rx="7.98" ry="7.78"/>
				</g>
				<g class="st18">
					<path d="M1830.73,352.49c-1.43-5.32-3.75-10.41-6.87-15.02c-3.62-5.37-8.65-10.28-15.29-12.01
						c-5.56-1.44-11.68-0.49-17.23,1.45c-5.55,1.94-16,10.43-18.1,10.7c0,0-3.99-0.47-5.3-1.95c1.39,2.7,4.89,5.78,7.33,7.72
						c5.5-4.27,3.07-4.17,10.99-8.85c5.84-3.44,13.18-6.29,19.92-4.75c7.33,1.67,12.64,7.34,15.76,13.64
						c2.48,5,4.24,9.13,4.74,10.59c0.06,0.18-0.49-0.85,0.19,0.57"/>
				</g>
				<path class="st25" d="M1796.11,343.71l-13.27,4.35c-1.16,0.38-2.43-0.26-2.81-1.42l-0.14-0.43c-0.38-1.16,0.26-2.43,1.42-2.81
					l13.27-4.35c1.16-0.38,2.43,0.26,2.81,1.42l0.14,0.43C1797.92,342.06,1797.27,343.32,1796.11,343.71z"/>
			</g>
			<g>
				<path class="st22" d="M1831.69,350.33c0,0-8.41-25.29-23.81-27.65c-15.4-2.36-22.1,3.07-31.66,15.58c0,0,5.91,7.93,22.63,11.96
					C1821.14,355.59,1831.69,350.33,1831.69,350.33z"/>
				
					<linearGradient id="SVGID_00000000222256167881741330000016234748814530697368_" gradientUnits="userSpaceOnUse" x1="1797.302" y1="621.6494" x2="1797.0514" y2="596.7177" gradientTransform="matrix(-0.9791 -0.2033 -0.2033 0.9791 3676.7417 112.8024)">
					<stop  offset="0" style="stop-color:#008CB2"/>
					<stop  offset="0.2227" style="stop-color:#0188AD"/>
					<stop  offset="0.5014" style="stop-color:#047B9D"/>
					<stop  offset="0.8087" style="stop-color:#086684"/>
					<stop  offset="1" style="stop-color:#0B5570"/>
				</linearGradient>
				<path style="display:none;fill:url(#SVGID_00000000222256167881741330000016234748814530697368_);" d="M1777.32,334.23
					c-1.85,1.53-2.05-0.67-1.71,1.56c1.16,7.76,7.84,17.07,15.83,18.73c10.3,2.14,20.42-4.64,22.6-15.13
					c0.9-4.33,0.3-8.06-1.44-11.1c-2.47-4.33-4.04-6.58-10.09-7.83C1792.21,318.32,1785.14,327.76,1777.32,334.23z"/>
				
					<ellipse transform="matrix(0.2033 -0.9791 0.9791 0.2033 1102.9346 2025.2052)" class="st21" cx="1795.88" cy="334.89" rx="7.98" ry="7.78"/>
				<g>
					<path class="st19" d="M1773.69,338.38c0,0,18.31-21.26,33.38-17.3c15.06,3.96,18.52,13.02,22.31,28.3
						c0,0-10.34,10.94-27.28,7.98C1779.51,353.42,1773.69,338.38,1773.69,338.38z"/>
					
						<linearGradient id="SVGID_00000088125417528261061940000006120315048621284244_" gradientUnits="userSpaceOnUse" x1="1406.1438" y1="616.0173" x2="1405.944" y2="596.14" gradientTransform="matrix(0.9791 0.2033 -0.2033 0.9791 550.3308 -536.2468)">
						<stop  offset="0" style="stop-color:#008CB2"/>
						<stop  offset="0.2227" style="stop-color:#0188AD"/>
						<stop  offset="0.5014" style="stop-color:#047B9D"/>
						<stop  offset="0.8087" style="stop-color:#086684"/>
						<stop  offset="1" style="stop-color:#0B5570"/>
					</linearGradient>
					<path style="fill:url(#SVGID_00000088125417528261061940000006120315048621284244_);" d="M1824.15,343.33
						c-2.18,10.5-7.4,9.93-7.4,9.93c-17.81-0.68-30.42-7.37-30.52-7.62c-2.97-7.58-1.12-12.16,0.71-15.46
						c4.53-8.19,13.3-6.47,21.28-6.35c5.85,0.09,10.65,3.59,13.56,7.61C1824.1,334.65,1825.11,338.67,1824.15,343.33z"/>
					
						<ellipse transform="matrix(0.2033 -0.9791 0.9791 0.2033 1106.7194 2037.4402)" class="st42" cx="1805.29" cy="338.68" rx="7.98" ry="7.78"/>
					<path class="st22" d="M1798.21,341.87l-12.63,3.48c-0.06,0.13-2.08-1.16-2.94-1.83l-0.76-0.86c-0.39-1.16,0.36-0.67,1.53-1.06
						l13.25-4.4c1.16-0.39,2.43,0.25,2.82,1.41l0.14,0.43C1800.01,340.21,1799.37,341.48,1798.21,341.87z"/>
				</g>
				<g>
					<path d="M1832.72,350.6c-1.82-5.36-4.49-10.54-7.89-15.3c-3.96-5.55-9.23-10.75-15.84-12.91c-5.52-1.81-11.39-1.3-16.63,0.24
						c-5.23,1.53-14.71,9.19-16.73,9.31c0,0-3.92-0.74-5.31-2.3c1.57,2.76,3.45,6.47,5.98,8.56c5.01-3.83,4.42-4.33,11.75-8.4
						c5.4-3,12.3-5.3,18.98-3.31c7.26,2.16,12.88,8.12,16.42,14.55c3.16,5.73,4.52,9.94,4.64,10.47"/>
				</g>
				<path class="st19" d="M1800.22,338.93l10.42,9.29c0.91,0.82,2.33,0.73,3.15-0.18l0.3-0.34c0.82-0.91,0.73-2.33-0.18-3.15
					l-10.42-9.29c-0.91-0.82-2.33-0.73-3.15,0.18l-0.3,0.34C1799.23,336.7,1799.31,338.11,1800.22,338.93z"/>
			</g>
		</g>
		<path class="st39" d="M1903.73,375.25c0.31,1.18,12.19,13.13,23.16,14.04s2.79,3.94-2.78,2.35
			C1905.69,386.37,1903.73,375.25,1903.73,375.25z"/>
		<path class="st39" d="M1830.84,359.24c-0.76,0.96-18.75,5.03-29.15,1.45s-6.14,2.48-0.41,3.26
			C1820.26,366.54,1830.84,359.24,1830.84,359.24z"/>
		
			<linearGradient id="SVGID_00000157276673713327740550000008399785402117581980_" gradientUnits="userSpaceOnUse" x1="2326.4878" y1="578.4333" x2="2391.9771" y2="578.4333" gradientTransform="matrix(-0.9786 -0.2056 -0.2056 0.9786 4222.5376 231.7478)">
			<stop  offset="0" style="stop-color:#FFB699;stop-opacity:0"/>
			<stop  offset="0.0426" style="stop-color:#FDAF91;stop-opacity:0.0818"/>
			<stop  offset="0.1473" style="stop-color:#FBA383;stop-opacity:0.2831"/>
			<stop  offset="0.2788" style="stop-color:#F99C7B;stop-opacity:0.5359"/>
			<stop  offset="0.5203" style="stop-color:#F99A79"/>
			<stop  offset="0.7469" style="stop-color:#F99C7B;stop-opacity:0.5276"/>
			<stop  offset="0.866" style="stop-color:#FBA383;stop-opacity:0.2793"/>
			<stop  offset="0.9599" style="stop-color:#FDAF91;stop-opacity:0.0836"/>
			<stop  offset="1" style="stop-color:#FFB699;stop-opacity:0"/>
		</linearGradient>
		<path style="fill:url(#SVGID_00000157276673713327740550000008399785402117581980_);" d="M1827.21,315.48
			c-0.59,6.78-0.22,9.99-10.53,5.32c-10.31-4.68-15.49-8.9-23.18-6.12s-18.04,10.22-23.52,8.44c-5.48-1.78-12.55-9.96-6.13-13.63
			c6.42-3.67,19.33-11.44,32.22-11.01C1823.27,299.38,1827.21,315.48,1827.21,315.48z"/>
		
			<linearGradient id="SVGID_00000034063244151002011700000002035202128367683474_" gradientUnits="userSpaceOnUse" x1="1672.8143" y1="575.2957" x2="1738.3036" y2="575.2957" gradientTransform="matrix(0.9786 0.2056 -0.2056 0.9786 394.0726 -572.4857)">
			<stop  offset="0" style="stop-color:#FFB699;stop-opacity:0"/>
			<stop  offset="0.0426" style="stop-color:#FDAF91;stop-opacity:0.0818"/>
			<stop  offset="0.1473" style="stop-color:#FBA383;stop-opacity:0.2831"/>
			<stop  offset="0.2788" style="stop-color:#F99C7B;stop-opacity:0.5359"/>
			<stop  offset="0.5203" style="stop-color:#F99A79"/>
			<stop  offset="0.7469" style="stop-color:#F99C7B;stop-opacity:0.5276"/>
			<stop  offset="0.866" style="stop-color:#FBA383;stop-opacity:0.2793"/>
			<stop  offset="0.9599" style="stop-color:#FDAF91;stop-opacity:0.0836"/>
			<stop  offset="1" style="stop-color:#FFB699;stop-opacity:0"/>
		</linearGradient>
		<path style="fill:url(#SVGID_00000034063244151002011700000002035202128367683474_);" d="M1914.18,330.54
			c-2.19,6.44-3.82,9.24,7.5,9.1c11.32-0.13,17.76-1.92,23.69,3.72s12.4,16.62,18.14,17.2c5.73,0.58,15.49-4.07,11.1-10.01
			s-13.09-18.25-25.07-23.04C1924.26,317.39,1914.18,330.54,1914.18,330.54z"/>
	</g>
	<path class="st22" d="M879.96-634.08"/>
</g>
<g id="Hose_Kopie_Kopie_2_Kopie_Kopie">
	<g>
		<path class="st48" d="M1570.66,755.02c28.46-60.2,118.47-154.26,118.47-154.26l49.16-5.98c0,0-29.59,19.56-54.42,47.58
			c-15.83,17.86-68.05,95.28-92.31,131.56c-0.61,0.91-21.29-17.58-21.29-17.58"/>
		<path class="st49" d="M1669.91,1192.83c-2.85,2.14,18.34,162.74,35.75,331.43c9.28,89.91,22.59,182.27,25.79,257.07
			c0.02,0.38-10.78,2.33-10.64,3.14c4.97,29.87,16.99,68.09,19.75,75.35c0,0,28.48,28.02,95.28,2.97
			c0.23-0.09,3.68-30.02,11.05-76.14c0.23-1.47-9.72-0.26-9.69-1.77c1.43-66.05,4.09-166.69,5.95-262.26
			c3-154.33,5.78-302.91,5.78-302.91L1669.91,1192.83z"/>
		<path class="st50" d="M1731.45,1781.33c-0.37-0.08-10.78,2.33-10.64,3.14c4.97,29.87,16.99,68.09,19.75,75.35
			c0,0,28.48,28.02,95.28,2.97c0.23-0.09,3.68-30.02,11.05-76.14c0.23-1.47-8.22-2.15-9.69-1.77
			C1809.64,1791.97,1782.62,1792.79,1731.45,1781.33z"/>
		<path class="st49" d="M2031.23,1216.16c0.46-6.96,34.77,347.15,33.98,560.22c0,0.38,0,0.76,0,1.14c0,0.83,7.78,2.98,7.77,3.8
			c-0.17,30.28-5.98,69.92-7.56,77.53c0,0-23.68,32.18-93.6,18.03c-0.25-0.05-8.4-29.06-22.98-73.42c-0.46-1.41,8.4-4.51,8.12-6
			c-9.45-51.7-12.42-152.42-26.98-228.99c-33.29-175.11-81.6-341.12-81.6-341.12L2031.23,1216.16z"/>
		<g>
			<path class="st49" d="M1713.57,1016.11c-20.71,50.22-34.92,102.9-43.78,177.11c78.13,37.2,168.13,37.77,254.64,35.45
				c36.01-0.97,72.39-2.36,107.16-11.77c-11.13-62.31-49.98-214.64-51.67-215.51c-0.1-0.05-0.39,1.07-0.55,1.09
				c-3.82,0.55-9.05,2.82-9.28,2.18c-8.47,3.59-44.9,11.81-119.53,9.82c-38.86-1.03-86.1-1.5-133.58-6.14
				c-0.03,0-0.68,3.97-0.68,3.89"/>
		</g>
	</g>
	<path class="st51" d="M1738.41,1061.29c0,0,0.58,0.13,1.64,0.38c13.4,3.09,104.3,23.88,108.47,20.09c4.5-4.09,3.68-9.82,3.68-9.82
		l-113.29-23.71L1738.41,1061.29"/>
	<g>
		<path class="st52" d="M1738.41,1061.29c0,0,0.58,0.13,1.64,0.38c13.4,3.09,110.03,25.11,114.2,21.32
			c4.5-4.09,13.51-57.31,13.51-57.31l-128.84,22.55L1738.41,1061.29"/>
		<path class="st52" d="M1882.91,1073.98c0,0,0.57,3.85,1.64,4.09c13.4,3.09,107.58-7.26,111.75-11.05
			c4.5-4.09-11.05-51.99-11.05-51.99l-118.71,11.87l17.19,50.76"/>
	</g>
	<g>
		<path class="st52" d="M1897.51,1414.55c0,0,62.77,265.8,76.41,292.55c13.64,26.74,28.38,85.69,28.38,85.69l-46.12,5.46
			C1956.18,1798.25,1911.15,1444.57,1897.51,1414.55z"/>
		<g>
			<g>
				<path class="st53" d="M1857.69,1233.9c11.65,35.46,22.48,71.18,32.46,107.14c10.02,36.14,19.19,72.51,27.5,109.08
					c8.27,36.39,15.68,72.98,22.23,109.72c6.62,37.14,12.37,74.43,17.22,111.85c4.79,37.01,8.72,74.13,11.77,111.33
					c0.38,4.65,0.75,9.3,1.1,13.95c0.15,1.91,3.15,1.93,3,0c-2.85-37.39-6.57-74.72-11.18-111.93
					c-4.58-36.99-10.02-73.88-16.32-110.62c-6.37-37.14-13.62-74.12-21.75-110.92c-8.08-36.62-17.03-73.05-26.83-109.24
					s-20.46-72.16-31.96-107.85c-1.43-4.44-2.88-8.88-4.33-13.31C1859.98,1231.27,1857.09,1232.06,1857.69,1233.9L1857.69,1233.9z"
					/>
			</g>
		</g>
	</g>
	<path class="st54" d="M1968.58,1799.93l-10.22,5.15c0,0,18.28,62.22,22.92,74.23"/>
	<path class="st50" d="M2065.46,1779.07c0.36-0.13,10.98,0.99,10.95,1.81c-1.27,30.25-8.51,69.66-10.37,77.21
		c0,0-25.21,36.24-94.58,19.57c-0.24-0.06-9.96-29.63-22.92-74.5c-0.41-1.43,6.14-5.11,7.64-4.91
		C1984.41,1801.91,2016.08,1796.72,2065.46,1779.07z"/>
	<path class="st54" d="M1739.23,1784.33l-10.37,2.73c0,0,13.64,73.14,18.56,78.05"/>
	<g>
		<g class="st55">
			<path class="st51" d="M1847.84,1231.44c-3.82-1.23-42.3-3.27-49.94-2.18c-5.46,0.78,10.37,15.01,14.19,20.47
				c9.89,14.12,10.33,35.5,10.75,52.74c2.15,87.2-3.9,386.21-1.75,473.41c0.07,2.8,17.24,8.55,17.47-1.64
				c2.18-98.79,5.61-414.66,10.37-504.31c0.58-10.92,2.49-27.15-0.55-37.66"/>
		</g>
		<g class="st55">
			<path class="st51" d="M2034.88,1582.69c-3.68,2-4.93,7.4-8.29,11.56c-8.62,10.71-13.41,23.25-20.8,34.85
				c-2.76,4.34-5.04,10.96-0.77,13.83c2.54,1.71,5.97,0.81,8.77-0.44c21.61-9.67,31.74-63.02,21.14-59.87"/>
		</g>
		<g class="st55">
			<path class="st51" d="M2020.08,1650.7c-1.63,0.29-2.76,2.17-4.53,3.32c-4.55,2.96-7.9,7.07-12.09,10.51
				c-1.57,1.29-3.24,3.49-1.99,5.09c0.74,0.95,2.14,1.04,3.34,0.91c9.3-0.97,19.66-19.73,15.3-19.86"/>
		</g>
		<g class="st55">
			<path class="st51" d="M1802.37,1581.87c-3.68,2-4.93,7.4-8.29,11.56c-8.62,10.71-13.41,23.25-20.8,34.85
				c-2.76,4.34-5.04,10.96-0.77,13.83c2.54,1.71,5.97,0.81,8.77-0.44c21.61-9.67,31.74-63.02,21.14-59.87"/>
		</g>
		<g class="st55">
			<path class="st51" d="M1787.57,1649.88c-1.63,0.29-2.76,2.17-4.53,3.32c-4.55,2.96-7.9,7.07-12.09,10.51
				c-1.57,1.29-3.24,3.49-1.99,5.09c0.74,0.95,2.14,1.04,3.34,0.91c9.3-0.97,19.66-19.73,15.3-19.86"/>
		</g>
		<path class="st52" d="M1712.01,1043.43l-0.82,2.4l-28.45,91.18c0,0,36.02-17.19,46.67-40.93c7.93-17.69,9.52-47.86,9.52-47.86
			L1712.01,1043.43z"/>
		<path class="st52" d="M1988.01,1046.25l1.74,4.2l22.92,89.14c0,0-31.93-30.91-42.98-50.45c-9.54-16.87-14.02-35.1-14.02-35.1
			L1988.01,1046.25z"/>
		<path class="st52" d="M1772.27,1193.51c0,0,53.85,21.83,51.91,24.74s-43.66,0.97-49.97-1.94
			C1767.9,1213.4,1760.14,1196.42,1772.27,1193.51z"/>
		<path class="st52" d="M1868.04,1236.63c0,0,9.28,4.37,34.39-9.82c25.11-14.19,18.56,3.27,9.28,9.82
			C1902.42,1243.17,1868.04,1236.63,1868.04,1236.63z"/>
	</g>
	<g>
		<g class="st55">
			<path class="st51" d="M1956.52,1798.72c29.67,1.95,59.65-0.88,88.44-8.35c4.05-1.05,17.38-6.04,21.2-11.77
				c0.08-0.11-0.03-4.96-1.09-9.01c-33.72,11.35-72.96,23.7-108.39,26.94"/>
		</g>
		<g>
			<g>
				<path class="st53" d="M1952.83,1054.73c3.26,13.81,9.01,26.88,16.57,38.86c7.54,11.95,16.69,22.8,26.27,33.15
					c5.61,6.07,11.39,11.98,17.17,17.89c1.35,1.38,3.47-0.74,2.12-2.12c-9.96-10.18-19.94-20.38-29.02-31.36
					c-8.78-10.62-16.64-22.07-22.44-34.61c-3.35-7.25-5.94-14.83-7.78-22.6C1955.27,1052.05,1952.38,1052.85,1952.83,1054.73
					L1952.83,1054.73z"/>
			</g>
		</g>
	</g>
	<g>
		<path class="st56" d="M1704.03,1040.82c0,0,182.16,38.48,287.36,3.27l-9.82-42.71c-65.5,24.56-262.39,6.69-262.39,6.69
			L1704.03,1040.82z"/>
		<path class="st57" d="M1781.39,1189.41c0,0,61.81,28.24,66.72,40.93l4.09,0.82c11.05-6.55,15.56-173.15,15.56-173.15"/>
		<path class="st57" d="M1847.71,1229.94c0,0-39.71-3.68-49.94-1.64"/>
		<g>
			<g>
				<path class="st53" d="M1676.33,1188.6c4.78,37.67,9.24,75.38,13.49,113.12c4.39,39.01,8.56,78.05,12.58,117.11
					c4.07,39.52,8,79.05,11.84,118.59c3.81,39.18,7.55,78.38,11.27,117.57c3.61,38.01,7.21,76.03,10.87,114.04
					c0.45,4.65,0.9,9.3,1.34,13.95c0.18,1.9,3.19,1.92,3,0c-3.65-37.8-7.24-75.61-10.83-113.41c-3.71-39.09-7.43-78.18-11.21-117.26
					c-3.83-39.54-7.73-79.08-11.76-118.6c-4-39.16-8.13-78.31-12.48-117.43c-4.22-37.95-8.64-75.87-13.37-113.76
					c-0.58-4.63-1.16-9.27-1.75-13.9C1679.09,1186.71,1676.08,1186.68,1676.33,1188.6L1676.33,1188.6z"/>
			</g>
		</g>
		<g>
			<g>
				<path class="st53" d="M1739.18,1047.76c-1.7,10.36-3.06,20.8-5.51,31.01c-2.27,9.43-5.58,18.71-11.32,26.62
					c-2.84,3.91-6.3,7.42-10.14,10.34c-2.23,1.69-4.61,3.18-6.93,4.74c-6.12,4.1-12.27,8.21-18.13,12.69
					c-1.2,0.91-2.4,1.83-3.51,2.85c-0.35,0.31-0.69,0.64-0.99,0.99c-0.11,0.13-0.23,0.26-0.31,0.4c-0.14,0.24,0.01-0.19-0.01,0
					c0.75,0.21,1.5,0.42,2.25,0.62c0-0.02-0.01-0.04-0.01-0.06c0.03-0.02-0.03,0.43,0.04-0.04c0.14-0.93,0.39-2.43,0.66-3.66
					c0.21-0.93,0.47-1.85,0.66-2.79c0.27-1.37-1.43-2.65-2.51-1.46c-0.51,0.56-0.62,1.54-0.81,2.23c-0.51,1.94-0.99,3.89-1.44,5.85
					c-0.9,3.91-1.68,7.85-2.34,11.82c-1.32,7.98-2.18,16.03-2.53,24.11c-0.2,4.57-0.23,9.15-0.12,13.73c0.05,1.93,3.05,1.93,3,0
					c-0.25-9.96,0.24-19.93,1.48-29.81c0.63-4.97,1.46-9.91,2.47-14.81c0.49-2.36,1.02-4.71,1.59-7.05
					c0.31-1.25,0.62-2.49,0.96-3.73c-0.01,0.05,0.21-0.61,0.19-0.73c-0.04-0.24,0.95-0.91-0.35,0.52c-0.84-0.49-1.67-0.97-2.51-1.46
					c-0.43,2.2-1.09,4.35-1.36,6.59c-0.15,1.22,0.08,2.98,1.79,2.74c0.72-0.1,1.02-0.56,1.44-1.07c-0.32,0.39,0.04-0.03,0.13-0.12
					c0.19-0.19,0.38-0.38,0.57-0.56c2.28-2.12,4.89-3.92,7.42-5.73c3.36-2.41,6.76-4.75,10.18-7.06
					c6.32-4.28,12.84-8.24,18.01-13.97c6.87-7.6,11.18-16.99,13.99-26.77c3.4-11.82,4.88-24.09,6.87-36.19
					C1742.38,1046.67,1739.49,1045.85,1739.18,1047.76L1739.18,1047.76z"/>
			</g>
		</g>
		<g>
			<g>
				<path class="st53" d="M1849.33,1234.39c15.47,2.14,31.39-2.59,43.14-12.9c1.45-1.28-0.68-3.39-2.12-2.12
					c-10.85,9.54-25.89,14.11-40.22,12.13c-0.81-0.11-1.6,0.2-1.85,1.05C1848.09,1233.24,1848.53,1234.27,1849.33,1234.39
					L1849.33,1234.39z"/>
			</g>
		</g>
		<g class="st58">
			<path class="st53" d="M1688.97,696.33c-6.55,17.47,9.28,55.94,21.29,85.14"/>
		</g>
		<g class="st55">
			<path class="st51" d="M1730.63,1782.8c29.08,6.22,58.73,9.94,88.29,6.71c4.15-0.45,14.56-2.59,18.69-4.09
				c1.5-0.55,1.69-8.4,1.23-12.55c-35.01,6.36-72.21,9.71-107.74,7.79"/>
		</g>
	</g>
</g>
<g id="Shirt_7_">
	<path class="st2" d="M2121.79,607.63l18.47,1.86l-10.21,98.62c0,0-20.07-0.04-20.1,0C2108.94,709.37,2121.79,607.63,2121.79,607.63
		z"/>
	<g id="Kleidung_5_">
		<path class="st10" d="M1749.33,580.85c0,0,14.74,46.34,90.06,46.34c83.02,0,86.78-42.28,86.78-42.28l63.04,14.77
			c0,0,9.69,175.06-18.01,249.7c-13.92,54.85-5.47,78.02-5.39,78.66c1.64,12.49,6.74,22.7,14.8,73.48c0,0-42.84,17.87-135.08,14.05
			c-81.81-3.39-127.37-6.86-126.9-7.5c3.34-4.57,10.23-43.25,15.96-80.91c1.97-12.96-17.1-73.09-19.65-79.41
			c-39.3-97.42-19.44-249.5-19.44-249.5L1749.33,580.85z"/>
		<path class="st10" d="M1695.5,598.25c0,0-92.01,52.13-152.74,119.75c4.17,47.85,72,91.69,72,91.69l81.4-59.86L1695.5,598.25z"/>
		<path class="st10" d="M1961.5,597.22c0,0,65.85-10.56,159.6,8.23c1.63,48-6.62,103.32-6.62,103.32l-161.74,17.94L1961.5,597.22z"
			/>
	</g>
	<g>
		<path class="st2" d="M1997.12,1055.97c0,0-107.25,22.51-112.16,15.56c-4.91-6.96-18.01-58.54-18.01-58.54l114.62-12.69
			L1997.12,1055.97z"/>
		<path class="st2" d="M1694.2,1045.73c0,0,153.1,33.16,158.01,26.2s15.83-59.08,15.83-59.08l-149.27-7.23L1694.2,1045.73z"/>
	</g>
	<path class="st2" d="M1542.81,719.14l-10.63,11.2l55.14,86.57c0,0,19.63-7.25,19.67-7.22
		C1608.39,810.49,1542.81,719.14,1542.81,719.14z"/>
	<g>
		<path class="st59" d="M1738.36,600.34c0,0-72.3,45.51-84.08,66.21c-4.43,7.78-86.99,83.96-86.99,83.96"/>
		<path class="st59" d="M1744.14,616.97c0,0-74.12,79.85-79.18,87.23c-17.18,25.11-78.28,78.48-78.28,78.48"/>
		<path class="st59" d="M1758.33,610.05c0,0-60.45,90.6-51.44,135.63c3.64,18.2,32.88,132.36,32.88,145.45s-4.84,115.71-4.84,115.71
			"/>
		<path class="st59" d="M1753.97,1006.44c0,0,2.18-110.39,0.55-130.04c-1.64-19.65-25.91-118.08-25.52-133.17
			c0.82-31.52,43.53-122.8,43.53-122.8"/>
		<path class="st59" d="M1792.17,628.06c0,0-33.43,102.47-32.88,130.31c0.55,27.84,18.69,247.38,18.69,247.38"/>
		<path class="st59" d="M1815.09,633.52c0,0-20.6,92.1-21.83,130.58c-1.1,34.58,11.46,241.1,11.46,241.1"/>
		<path class="st59" d="M1830.1,635.16c0,0-1.77,93.88,0.41,126.08s0,250.11,0,250.11"/>
		<polyline class="st59" points="1851.66,635.16 1854.94,738.86 1862.44,1009.3 		"/>
		<polyline class="st59" points="1896.83,1006.85 1884.41,742.14 1872.4,632.43 		"/>
		<path class="st59" d="M1899.15,624.24c0,0,28.93,86.78,28.93,108.61c0,21.83,6,273.58,6,273.58"/>
		<path class="st59" d="M1959.05,1002.34c0,0-5.87-157.05-4.23-171.79c1.64-14.74,20.74-77.5,12.55-103.16s-52.4-114.62-52.4-114.62
			"/>
		<path class="st59" d="M1923.07,607.28c58.34,8.69,68.68,68.81,196.59,51.58"/>
		<path class="st59" d="M2120.43,627.84c-101.11,17.62-126-25.28-188.81-35.36"/>
	</g>
	<path class="st60" d="M1715.21,1012.03c147.91,24.01,270.44,1.36,270.44,1.36l-4.09-13.1c0,0-207.4,11.46-263.62,4.91"/>
	<path class="st61" d="M1718.49,1006.85c217.64,18.42,263.07-6.55,263.07-6.55l-4.5-13.1c-0.08-0.65-40.55,19.01-257.89,18.63"/>
	<path class="st62" d="M1973.75,596.05l-40.63-8.99l-1.15,1.99l-1.17-0.56c0,0-26.61,43.39-72.04,44.62
		c-45.44,1.23-93.74-19.24-93.74-19.24s63.04,62.63,122.39,40.12c45.44-17.24,59.41-23.12,69.1-30.37
		c6.11,4.85,163.12,17.1,163.91,9.57c0.77-7.28,1.91-27.19-27.19-32.55C2057.65,594.09,1973.75,596.05,1973.75,596.05z"/>
	<path class="st63" d="M1838.29,618.51c0,0-9.93,13.06-9.41,13.06c0.51,0,20.47-0.2,20.47-0.2L1838.29,618.51z"/>
	<path class="st62" d="M1733.7,926.41c0,0,42.5,44.96,42.5,62.97c0,18.01,1.5,16.24,1.5,16.24l-57.92,0.41L1733.7,926.41z"/>
	<polygon class="st64" points="1827.65,615.31 1821.92,635.57 1855.89,635.36 1851.59,622.27 	"/>
	<g>
		<path class="st64" d="M1742.5,583.31c0,0,49.39,87.87,59.22,86.78c9.82-1.09,37.39-50.9,37.39-50.9l-89.24-38.61L1742.5,583.31"/>
		<path class="st64" d="M1932.64,586.04c0,0-41.41,87.6-51.24,86.51c-9.82-1.09-44.55-53.35-44.55-53.35l92.03-33.43"/>
	</g>
	<g class="st65">
		<path class="st66" d="M1991.17,670.47c2.59,10.02,0.55,53.51-2.17,52.1c-0.84-0.44,67.1-7.42,67.1-7.42s58.98-5.36,58.98-7.66
			C2115.07,705.66,1994.01,670.06,1991.17,670.47"/>
	</g>
	<g class="st67">
		<path class="st48" d="M1693.66,717.44c-0.65,12.41,4.88,59.9,8.22,71.47c3.86,13.35,12.26,38.46,19.48,48.83
			c7.22,10.38,18.25,13.15,28.67,14.07c1.21,0.11,2.59,0.02,3.37-1.25c0.72-1.17,0.63-2.9,0.4-4.4
			c-1.63-10.36-8.11-17.69-13.92-24.64c-15.05-18-31.24-62.41-41.89-85.62"/>
	</g>
	<g class="st68">
		<path class="st69" d="M1695.12,597.85c-0.65,12.41-2.82,63.41,0.52,74.97c3.86,13.35,12.26,38.46,19.48,48.83
			c7.22,10.38,18.25,13.15,28.67,14.07c1.21,0.11,2.59,0.02,3.37-1.25c0.72-1.17,0.63-2.9,0.4-4.4
			c-1.63-10.36-8.11-17.69-13.92-24.64c-15.05-18-31.24-62.41-41.89-85.62"/>
	</g>
	<path class="st70" d="M1925.07,585.19c0,0-6.62,44.72-89.03,41.99c-75.07-2.49-87.8-46.05-87.8-46.05"/>
	<g>
		<path class="st71" d="M1538.94,719.62c0,0,48.87,74.16,72.13,93.81"/>
		<path class="st71" d="M2140.27,609.49c-0.98,9.44-3,49.31-5.99,98.62"/>
	</g>
	<g class="st65">
		<path class="st66" d="M1981.97,795.62c-10.09,30.62-23.13,84.73-46.05,129.97c-2.66,5.24-17.12,54.91-17.12,80.71
			c0,3.27,45.98-1.09,62.36-6.82c-9.2-34.53-18.95-66.36-19.03-88.62c-0.15-40.27,6.01-51.05,12.28-74.81
			c2.33-8.84,4.35-17.35,4.83-21.1"/>
	</g>
	<line class="st64" x1="1991.11" y1="712.94" x2="2115.07" y2="703.28"/>
	<path class="st64" d="M1672.15,722.08l24.01,43.94C1696.16,766.01,1674.06,739.54,1672.15,722.08z"/>
	<polygon class="st72" points="1543.87,716.76 1567.29,750.52 1558.89,759.29 1532.18,722.08 	"/>
	<g>
		<path class="st2" d="M1741.96,579.01l48.03-15.28l48.31,54.85c0,0-33.98,46.87-34.11,46.67
			C1803.48,664.21,1741.96,579.01,1741.96,579.01z"/>
		<path class="st2" d="M1930.26,584.4l-46.66-18.59l-45.31,52.7c0,0,39.35,46.88,39.57,46.67
			C1878.82,664.22,1930.26,584.4,1930.26,584.4z"/>
	</g>
</g>
<g id="Arm_x5F_L_x5F_oben_7_" class="st17">
	<path class="st73" d="M2029.57,828.87c-8.27-13.77-20.23-250.83-18.68-253.75c9.96-18.75,42.11-30.93,53.72-4.56
		c5.08,11.54,111.75,278.12-20.24,279.91c-37.05,0.5-23.53-18.3-23.53-18.3"/>
	<path class="st74" d="M2111.3,756.91l-7.4-52.17l3.12,67.6c-1.14,5.35-11.23,58.83-38.63,58.56c-17.22-0.17-39.17-4.9-39.17-4.9
		l-10.82,5.85l-3.33,1.2c4.66,24.43,26.21,23.39,29.21,23.46C2115.09,858.11,2111.3,756.91,2111.3,756.91z"/>
	<g class="st18">
		
			<ellipse transform="matrix(0.9685 -0.2491 0.2491 0.9685 -84.8009 532.9394)" class="st5" cx="2063.5" cy="601.56" rx="3.31" ry="3.02"/>
		<ellipse class="st5" cx="2068.83" cy="612.43" rx="2.05" ry="1.69"/>
		
			<ellipse transform="matrix(0.8059 -0.5921 0.5921 0.8059 33.2731 1344.2836)" class="st5" cx="2066.69" cy="621.4" rx="2.11" ry="1.97"/>
		<ellipse class="st5" cx="2072.51" cy="606.65" rx="1.84" ry="1.52"/>
	</g>
</g>
<path class="st48" d="M1545.84,717.44c53.73-49.39,143.29-116.68,143.29-116.68l49.16-5.98c0,0-29.59,19.56-54.42,47.58
	c-15.83,17.86-95.9,66.01-120.16,102.29c-0.61,0.91-19.83-27.88-19.83-27.88"/>
<g class="st17">
	<path class="st73" d="M2115.68,503.96c-3.04,12.5-30.97,34.63-53.96,37.53c-9.65,1.22-13.7-10.18-22.28-12.26
		c-29.03-7.05-33.99-35.48-29.68-53.23s34.95-25.87,63.98-18.83C2102.76,464.22,2119.99,486.21,2115.68,503.96z"/>
	<g class="st18">
		<path class="st0" d="M2012.7,479.14c3.21-6.41-3.72,2.91-2.53-4.17c3.59-21.3,22.57-43.55,30.26-63.74c0.76-2,1.91-4.08,3.9-4.87
			c3.55-1.42,8.48,1.35,9.26,5.09c5.09,24.41-6.98,31.31-10.16,51.96c-1.49,9.68-6.47,12.06-15.79,15.07
			c-4.18,1.35-10-0.11-10.67-4.45"/>
	</g>
	<path class="st73" d="M2044.32,461.49c0,0,17.39-20.47,29.69-41.17c11.59-19.51,16.46-42.32,21.15-44.44
		c21.24-9.58,16.06,23.72,1.81,52.15c-10.6,21.13-21.13,39.4-21.13,39.4L2044.32,461.49z"/>
	<path class="st73" d="M2060.41,467.53c0,0,15.07-19.75,27.37-40.45c11.59-19.51,20.79-47.84,25.48-49.96
		c21.24-9.58,14.05,28.52-0.21,56.95c-10.6,21.13-21.12,39.4-21.12,39.4L2060.41,467.53z"/>
	<path class="st73" d="M2076.13,478.63c0,0,15.08-19.75,27.37-40.45c11.59-19.51,21.3-53.63,25.99-55.75
		c21.24-9.58,13.54,34.31-0.72,62.74c-10.6,21.13-21.13,39.4-21.13,39.4L2076.13,478.63z"/>
	<path class="st73" d="M2083.64,500.58c0,0,15.07-19.75,27.37-40.45c11.59-19.51,26.58-54.67,31.27-56.79
		c21.24-9.58,8.26,35.35-5.99,63.78c-10.6,21.13-21.12,39.4-21.12,39.4L2083.64,500.58z"/>
	<path class="st74" d="M2107.44,385.66l-39.07,73.75c0,0,13.06-14.46,22.42-30.9C2095.22,420.75,2107.44,385.66,2107.44,385.66z"/>
	<path class="st74" d="M2126.17,390.65l-39.07,73.75c0,0,13.06-14.46,22.42-30.9C2113.95,425.74,2126.17,390.65,2126.17,390.65z"/>
	<path class="st74" d="M2142.81,402.71l-39.07,73.75c0,0,13.06-14.46,22.42-30.9C2130.59,437.8,2142.81,402.71,2142.81,402.71z"/>
	<path class="st74" d="M2029.82,480.67c0,0,24.67-7.28,49.51,1.53c24.83,8.81,18.26,6.79,18.26,6.79s-10.09-14.87-31.2-17.85
		C2045.28,468.16,2029.82,480.67,2029.82,480.67z"/>
</g>
<g id="Ebene_53_Kopie">
</g>
<g>
	<path class="st0" d="M2088.58,427.3c0,0-1.09,39.98,20.64,46.68c26.19,8.08,70.76,21.54,70.76,21.54s16.92-47.55,17.43-55.21
		c0.51-7.66-10.64-44.26-10.64-44.26L2088.58,427.3z"/>
	<path class="st0" d="M2106.57,370.56c-1.25-1.61-3.21-2.52-5.26-2.5c-4.74,0.03-13.96,1.24-17.27,9.83
		c-3.02,7.84-9.57,45.43,16.09,51.95c25.66,6.52,31.14-1.52,24.95-8.04c-6.19-6.51-18.26-8.5-15.18-22.69
		C2113.45,382.7,2109.43,374.24,2106.57,370.56z"/>
	<path class="st0" d="M2129.77,364.22c-1.25-1.61-3.21-2.52-5.26-2.5c-4.74,0.03-13.96,1.24-17.27,9.83
		c-3.02,7.84-9.57,45.43,16.08,51.95c25.66,6.52,31.14-1.52,24.95-8.04c-6.19-6.51-18.26-8.5-15.18-22.69
		C2136.65,376.36,2132.63,367.9,2129.77,364.22z"/>
	<path class="st0" d="M2151.65,359.94c-1.25-1.61-3.21-2.52-5.26-2.5c-4.74,0.03-13.96,1.24-17.27,9.83
		c-3.02,7.84-9.57,45.43,16.09,51.95c25.66,6.52,31.14-1.52,24.95-8.04c-6.19-6.51-18.26-8.5-15.18-22.69
		C2158.53,372.08,2154.51,363.62,2151.65,359.94z"/>
	<path class="st0" d="M2174.84,360.03c-1.25-1.61-3.21-2.52-5.26-2.5c-4.74,0.03-13.96,1.24-17.27,9.83
		c-3.02,7.84-19.47,45.61,6.19,52.13c25.66,6.52,29,3.45,22.82-3.06c-6.19-6.51,14.76,20.14,10.55,0
		C2188.44,400,2177.7,363.72,2174.84,360.03z"/>
	<path class="st0" d="M2100.52,408.35c0,0-0.8-0.41-2.17-1.03c-6.47-2.94-4.58-14.88-15.07-13.29c-17.62,2.67-9.27,24.49-6.99,31.87
		c3.83,12.38,25.46,45.52,26.07,43.75c0,0,23.64-31.55,23.73-40.55S2100.52,408.35,2100.52,408.35z"/>
	<path class="st5" d="M2081.15,393.81c2.13,0,59.45-2.65,59.45-2.65s-18.52-5.95-36.39-4.59
		C2086.34,387.92,2081.15,393.81,2081.15,393.81z"/>
	<path class="st5" d="M2143,399.1c0,0,5.08,8.53-2.94,13.12s-41.77,7.26-41.77,7.26s40.69,11.11,51.88,3.08S2143,399.1,2143,399.1z"
		/>
	<path class="st5" d="M2107.24,371.54v17.99c0,0-2.44-7.44-1.43-12.99C2106.97,370.18,2107.24,371.54,2107.24,371.54z"/>
	<path class="st5" d="M2130.48,365.28v17.99c0,0-2.44-7.44-1.43-12.99C2130.21,363.93,2130.48,365.28,2130.48,365.28z"/>
	<path class="st5" d="M2154.09,364.52v17.99c0,0-2.44-7.44-1.43-12.99C2153.82,363.16,2154.09,364.52,2154.09,364.52z"/>
	<path class="st5" d="M2166.77,405.07c-0.04,0.03-0.26,0.15-0.65,0.35c-4.89,2.56-35.43,18.22-41.78,29.23
		c-6.85,11.89-12.08,16.88-12.08,16.88s10.6-13.95,25.28-19.3C2152.22,426.9,2166.77,405.07,2166.77,405.07z"/>
</g>
<g>
	<path class="st0" d="M1540.39,595.08c0,0,1.09,39.98-20.64,46.68c-26.19,8.08-70.76,21.54-70.76,21.54s-16.91-47.55-17.43-55.21
		c-0.51-7.66,10.64-44.26,10.64-44.26L1540.39,595.08z"/>
	<path class="st0" d="M1522.4,538.34c1.25-1.61,3.21-2.52,5.26-2.5c4.74,0.03,13.96,1.24,17.27,9.83
		c3.02,7.84,9.57,45.43-16.09,51.95c-25.66,6.52-31.14-1.52-24.95-8.04c6.19-6.51,18.26-8.5,15.18-22.69
		C1515.52,550.49,1519.54,542.03,1522.4,538.34z"/>
	<path class="st0" d="M1499.21,532c1.25-1.61,3.21-2.52,5.26-2.5c4.74,0.03,13.96,1.24,17.27,9.83c3.02,7.84,9.57,45.43-16.09,51.95
		c-25.66,6.52-31.14-1.52-24.95-8.04c6.19-6.51,18.26-8.5,15.18-22.69C1492.32,544.15,1496.35,535.69,1499.21,532z"/>
	<path class="st0" d="M1477.33,527.73c1.25-1.61,3.21-2.52,5.26-2.5c4.74,0.03,13.96,1.24,17.27,9.83
		c3.02,7.84,9.57,45.43-16.09,51.95c-25.66,6.52-31.14-1.52-24.95-8.04c6.19-6.51,18.26-8.5,15.18-22.69
		C1470.44,539.87,1474.47,531.41,1477.33,527.73z"/>
	<path class="st0" d="M1454.13,527.82c1.25-1.61,3.21-2.52,5.26-2.5c4.74,0.03,13.96,1.24,17.27,9.83
		c3.02,7.84,19.47,45.61-6.19,52.13c-25.66,6.52-29,3.45-22.82-3.06c6.19-6.51-14.76,20.14-10.55,0
		C1440.54,567.79,1451.27,531.5,1454.13,527.82z"/>
	<path class="st0" d="M1528.46,576.14c0,0,0.8-0.41,2.17-1.03c6.47-2.94,4.58-14.88,15.07-13.29c17.62,2.67,9.27,24.49,6.99,31.87
		c-3.83,12.38-25.46,45.52-26.07,43.75c0,0-23.64-31.55-23.73-40.55C1502.8,587.89,1528.46,576.14,1528.46,576.14z"/>
	<path class="st5" d="M1547.83,561.59c-2.13,0-59.45-2.65-59.45-2.65s18.52-5.95,36.39-4.59
		C1542.63,555.71,1547.83,561.59,1547.83,561.59z"/>
	<path class="st5" d="M1485.97,566.89c0,0-5.08,8.53,2.94,13.12c8.02,4.59,41.77,7.26,41.77,7.26s-40.69,11.11-51.88,3.08
		C1467.61,582.31,1485.97,566.89,1485.97,566.89z"/>
	<path class="st5" d="M1521.73,539.33v17.99c0,0,2.44-7.44,1.43-12.99C1522,537.97,1521.73,539.33,1521.73,539.33z"/>
	<path class="st5" d="M1498.5,533.07v17.99c0,0,2.44-7.44,1.43-12.99C1498.77,531.72,1498.5,533.07,1498.5,533.07z"/>
	<path class="st5" d="M1474.88,532.3v17.99c0,0,2.44-7.44,1.43-12.99C1475.15,530.95,1474.88,532.3,1474.88,532.3z"/>
	<path class="st5" d="M1462.2,572.86c0.04,0.03,0.26,0.15,0.65,0.35c4.89,2.56,35.43,18.22,41.78,29.23
		c6.85,11.89,12.08,16.88,12.08,16.88s-10.6-13.95-25.28-19.3C1476.76,594.69,1462.2,572.86,1462.2,572.86z"/>
</g>
</svg>
