<?xml version="1.0" encoding="utf-8"?>
<!-- Generator: Adobe Illustrator 25.4.0, SVG Export Plug-In . SVG Version: 6.00 Build 0)  -->
<svg version="1.1" id="Thumbsup" xmlns="http://www.w3.org/2000/svg" xmlns:xlink="http://www.w3.org/1999/xlink" x="0px" y="0px"
	 viewBox="0 0 3840 2160" style="enable-background:new 0 0 3840 2160;" xml:space="preserve">
<style type="text/css">
	.st0{fill:#FFB699;}
	.st1{fill:#54A465;}
	.st2{fill:#FFF8C5;}
	.st3{fill:none;stroke:#2E753B;stroke-miterlimit:10;}
	.st4{fill:#76C484;}
	.st5{fill:#F99A79;}
	.st6{fill:#449353;}
	.st7{fill:none;stroke:#FFF8C5;stroke-width:2;stroke-miterlimit:10;}
	.st8{fill:#FFF8C5;stroke:#002A2B;stroke-miterlimit:10;}
	.st9{fill:none;stroke:#22722F;stroke-miterlimit:10;}
	.st10{fill:#CCF6E6;}
	.st11{fill:none;stroke:#002A2B;stroke-width:4;stroke-miterlimit:10;}
	.st12{fill:#995B34;}
	.st13{fill:#633318;}
	.st14{fill:#AA6944;}
	.st15{fill:#D86C45;}
	.st16{fill:#FFCAB8;}
	.st17{fill:#FFFFFF;}
	.st18{display:none;fill:url(#SVGID_1_);}
	.st19{display:none;fill:#16100B;}
	.st20{display:none;fill:#FFFFFF;}
	.st21{fill:url(#SVGID_00000077286699934425494680000003167134577091289001_);}
	.st22{fill:#16100B;}
	.st23{fill:url(#SVGID_00000097488279856264819820000003357138468320753033_);}
	.st24{fill:#FCD2CA;}
	.st25{fill:url(#SVGID_00000040576408403326911680000008468648099897577132_);}
	.st26{fill:url(#SVGID_00000163063391115151888930000001615214221494134154_);}
	.st27{fill:#841A06;}
	.st28{fill:#D64B2B;}
	.st29{fill:#FFAF9C;}
	.st30{fill:#894A27;}
	.st31{opacity:0.72;fill:#F99A79;}
	.st32{opacity:0.72;fill:#E27F64;}
	.st33{opacity:0.33;fill:#F98869;}
	.st34{fill:#D88C66;}
	.st35{fill:none;stroke:#995B34;stroke-miterlimit:10;}
	.st36{fill:none;stroke:#C9563F;stroke-width:0.5;stroke-miterlimit:10;}
	.st37{fill:#F0FFF9;}
	.st38{fill:#545454;}
	.st39{fill:#3F3F3F;}
	.st40{fill:#28564D;}
	.st41{opacity:0.41;fill:#28564D;}
	.st42{fill:#002A2B;}
	.st43{fill:none;stroke:#CCF6E6;stroke-miterlimit:10;}
	.st44{opacity:0.41;}
	.st45{fill:#336B61;stroke:#002A2B;stroke-miterlimit:10;}
	.st46{fill:none;stroke:#002A2B;stroke-width:2;stroke-miterlimit:10;}
	.st47{opacity:0.31;}
	.st48{fill:none;stroke:#006A58;stroke-width:0.25;stroke-miterlimit:10;}
	.st49{fill:#EAE0A4;}
	.st50{fill:#97D1B8;}
	.st51{opacity:0.44;fill:#C3EDDC;}
	.st52{fill:#EAE1AC;}
	.st53{opacity:0.31;fill:#002A2B;}
	.st54{opacity:0.44;}
	.st55{fill:#C3EDDC;}
	.st56{opacity:0.45;}
	.st57{display:none;opacity:0.45;}
	.st58{display:inline;fill:#F0FFF9;}
	.st59{fill:none;stroke:#64D250;stroke-width:16;stroke-miterlimit:10;}
	.st60{fill:none;stroke:#64D250;stroke-width:12;stroke-miterlimit:10;}
	.st61{fill:#A5EA96;}
	.st62{display:none;}
	.st63{display:inline;fill:#FFB699;}
	.st64{display:inline;fill:#F99A79;}
	.st65{display:inline;}
</style>
<g id="Füsse_Kopie_Kopie_2_Kopie">
	<g>
		<g>
			<polygon class="st0" points="1753.42,1858.83 1762.7,1952.71 1820.55,1958.71 1826.56,1835.36 			"/>
			<path class="st1" d="M1751.92,1907.41c0,0,0.61,32.75-11.89,51.56c-4.82,7.25-12.94,13.61-20.43,18.47
				c-1.45,0.94-2.92,1.8-4.39,2.56c-19.1,9.82-66.04,35.48-78.05,49.67c-12.01,14.19-13.1,26.2-13.1,26.2l-6.55,2.18l9.96,9.01
				c0,0,10.64,13.24,49.94,2.87c39.3-10.37,150.23-73.82,150.23-73.82l0.2-92.38l-4.91-0.2c0,0-9.48,8.26-34.59,7.16
				c-25.11-1.09-31.31-8.39-31.31-8.39L1751.92,1907.41z"/>
			<path class="st2" d="M1624.07,2055.86l-6.55,2.18l7.1,11.46c0,0,15.96,11.19,55.26,0.82c39.3-10.37,146.96-62.22,146.96-62.22
				l1.64-13.1l-25.38,13.92c0,0-45.03,19.65-70.82,29.06C1646.63,2069.25,1624.07,2055.86,1624.07,2055.86z"/>
			<path class="st3" d="M1827.92,1980.54"/>
			<g>
				<path class="st4" d="M1630.17,2050.91c1.06-11.13,8.08-21.51,18.02-26.62c1.13-0.58,2.88-0.89,3.35,0.29
					c0.3,0.77-0.24,1.58-0.76,2.23c-6.07,7.61-12.14,15.22-18.21,22.83c-0.49,0.62-1.31,1.3-1.96,0.86"/>
			</g>
			<path class="st5" d="M1753.97,1867.56l0.82,10.37c0,0,29.06,9.96,48.71,7.78c14.27-1.59,20.47-6.96,20.47-6.96l2.05-22.65
				l-72.04,6.55V1867.56"/>
		</g>
		<path class="st6" d="M1826.42,1919.28c0,0-1.64,53.21-17.19,63.86c-15.56,10.64-128.53,70-128.53,70s65.9-15.56,102.75-35.2
			c31.46-16.78,44.21-21.83,44.21-21.83L1826.42,1919.28z"/>
		<path class="st7" d="M1714.67,1977.81c28.24-11.87,46.05,16.17,46.05,16.17"/>
		<path class="st7" d="M1691.74,1990.5c28.24-11.87,46.05,16.17,46.05,16.17"/>
		<path class="st7" d="M1665.55,2006.06c28.24-11.87,46.05,16.17,46.05,16.17"/>
		<ellipse class="st8" cx="1807.88" cy="1941.41" rx="12.09" ry="17.35"/>
		<path class="st9" d="M1758.06,1905.22c0,0-0.27-1.09-3,8.19c-2.73,9.28-2.23,31.87,2.73,39.02c4.91,7.1,13.78,4.91,13.78,4.91"/>
		<path class="st10" d="M1757.34,1902.7c0,0,14.74,13.61,41.45,9.93c13.97-1.93,24.15-9.11,24.15-9.11l1.23-20.47
			c0,0-8.54,6.72-32.54,6.62c-23.74-0.1-35.82-5.59-35.82-5.59L1757.34,1902.7z"/>
		<ellipse class="st1" cx="1777.09" cy="1919.69" rx="21.49" ry="28.65"/>
		<path class="st6" d="M1796.13,1909.04c0,0-17.6,11.87-19.24,28.65c-1.64,16.78-5.32,19.65-5.32,19.65s9.01,1.64,18.42-19.65
			C1799.4,1916.41,1796.13,1909.04,1796.13,1909.04z"/>
		<path class="st11" d="M1752.6,1883.12c0,0,11.19,4.64,32.75,5.46c21.56,0.82,33.29-4.09,41.21-8.73"/>
	</g>
	<g>
		<g>
			<polygon class="st0" points="2055.41,1859.45 2058.27,1953.74 2001.67,1967.13 1979.86,1845.57 			"/>
			<path class="st1" d="M2063.14,1907.43c0,0,3.6,32.55,18.42,49.6c5.71,6.57,14.59,11.83,22.63,15.69
				c1.56,0.75,3.13,1.41,4.68,1.97c20.21,7.29,70.05,26.69,83.79,39.22c13.73,12.53,16.36,24.3,16.36,24.3l6.78,1.32l-8.72,10.21
				c0,0-8.85,14.49-49.16,9.26c-40.3-5.23-158.47-53.9-158.47-53.9l-12.08-91.58l4.85-0.83c0,0,10.47,6.97,35.22,2.66
				c24.76-4.31,29.98-12.35,29.98-12.35L2063.14,1907.43z"/>
			<path class="st2" d="M2209.02,2038.22l6.78,1.32l-5.56,12.28c0,0-14.39,13.15-54.7,7.92c-40.3-5.23-153.73-42.81-153.73-42.81
				l-3.31-12.78l26.96,10.54c0,0,47.18,13.7,73.97,19.72C2188.36,2054.4,2209.02,2038.22,2209.02,2038.22z"/>
			<path class="st3" d="M1997.17,1989.73"/>
			<g>
				<path class="st4" d="M2202.33,2034.09c-2.48-10.9-10.78-20.29-21.29-24.09c-1.19-0.43-2.97-0.51-3.28,0.72
					c-0.2,0.8,0.44,1.54,1.04,2.11c7,6.77,14,13.53,21,20.3c0.57,0.55,1.46,1.12,2.06,0.6"/>
			</g>
			<path class="st5" d="M2055.99,1868.18l0.52,10.39c0,0-27.54,13.61-47.31,13.97c-14.36,0.26-21.19-4.27-21.19-4.27l-4.94-22.2
				l72.29-2.77L2055.99,1868.18"/>
		</g>
		<path class="st6" d="M1990.78,1928.78c0,0,8.46,52.56,25.26,61.12c16.79,8.56,136.47,52.9,136.47,52.9s-67.36-6.95-106.42-21.7
			c-33.35-12.59-46.65-15.97-46.65-15.97L1990.78,1928.78z"/>
		<path class="st7" d="M2109.13,1972.46c-29.54-8.14-43.59,21.95-43.59,21.95"/>
		<path class="st7" d="M2133.5,1982.1c-29.54-8.14-43.59,21.95-43.59,21.95"/>
		<path class="st7" d="M2161.48,1994.16c-29.54-8.14-43.59,21.95-43.59,21.95"/>
		
			<ellipse transform="matrix(0.9917 -0.1285 0.1285 0.9917 -233.7508 274.7896)" class="st8" cx="2012.01" cy="1948.34" rx="12.09" ry="17.35"/>
		<path class="st9" d="M2056.77,1906.05c0,0,0.13-1.12,4.03,7.73c3.9,8.85,6.3,31.31,2.31,39.05c-3.96,7.67-13.04,6.64-13.04,6.64"
			/>
		<path class="st10" d="M2057.16,1903.46c0,0-12.86,15.39-39.83,15.17c-14.1-0.12-25.12-5.93-25.12-5.93l-3.85-20.14
			c0,0,9.33,5.57,33.12,2.38c23.53-3.15,34.8-10.15,34.8-10.15L2057.16,1903.46z"/>
		
			<ellipse transform="matrix(0.9917 -0.1285 0.1285 0.9917 -230.243 278.1443)" class="st1" cx="2039.75" cy="1922.84" rx="21.49" ry="28.65"/>
		<path class="st6" d="M2019.51,1914.73c0,0,18.98,9.51,22.76,25.94s7.8,18.8,7.8,18.8s-8.72,2.78-20.79-17.12
			S2019.51,1914.73,2019.51,1914.73z"/>
		<path class="st11" d="M2059.34,1883.43c0,0-10.5,6.04-31.77,9.62c-21.27,3.58-33.54,0.22-41.99-3.36"/>
	</g>
</g>
<g id="Haarehinten_7_">
	<path class="st12" d="M1967.37,518l-0.32,24.07c10.06,0.05,35.65-53.73,38.52-79.4c13.11-117.19,14.82-137.42,9.9-177.69
		c-5.43-44.4-17.82-67.7-48.75-87.56c-41.93-26.92-66.59-29.87-156.9-27.76c-77.81,1.82-116.02,58.99-132.46,95.62
		c-8.22,18.31-7.4,52.56-8.42,127.98c-1.02,75.42,8.01,90.12,8.01,90.12s15.59,46,43.62,46.28l3.43,0.01l7.78-1.89
		c7.31,1.73-8.21-21.45,0.42-18.91c95.15,28.03,134.79-27.08,186.28-36.3l25.72,3.94l12.15,66.75c6.7-1.43-0.31,0.19,5.26-1.31
		L1967.37,518z"/>
	<path class="st13" d="M1960.65,431.7c0,0,5.06-13.88,9.15,5.79c5.77,27.74-18.19,105.81-18.19,105.81s-8.41,0.97-9.99,0.04
		c-1.58-0.93,9.3-32.97,9.3-32.97l-8.9-54.22L1960.65,431.7z"/>
	<path class="st13" d="M1898.05,435.1c-31.91-97.39,8.78-29.8-61.79-32.65c-86.69-3.49-84.36-83.97-118.11-46.61
		c-33.75,37.36,3.65,175.75,3.65,175.75c20.38,2.62,47.9,11.11,56.87,11.87c89.88,7.61,61.37,5.87,112.16,7.14
		C1891.14,550.61,1906.83,461.9,1898.05,435.1z"/>
	<polygon class="st13" points="1900.03,506.63 1894.17,549.31 1951.99,542.98 1954.47,421.98 	"/>
	<g>
		<g>
			<g>
				<path class="st14" d="M1725.79,439.45c-2.13,22.57-3.84,45.18-5.42,67.8c-0.49,6.94-0.96,13.87-1.43,20.81
					c-0.03,0.48,0.72,0.48,0.75,0c1.58-23.23,3.19-46.47,5.16-69.67c0.54-6.31,1.1-12.63,1.7-18.94
					C1726.58,438.97,1725.83,438.97,1725.79,439.45L1725.79,439.45z"/>
			</g>
		</g>
		<g>
			<g>
				<path class="st14" d="M1738.93,466.85c-2.08,15.67-2.39,31.49-3.08,47.26c-0.23,5.19-0.49,10.37-0.82,15.55
					c-0.03,0.48,0.72,0.48,0.75,0c1.05-16.56,1.19-33.18,2.52-49.72c0.35-4.38,0.8-8.74,1.38-13.09
					C1739.74,466.37,1738.99,466.37,1738.93,466.85L1738.93,466.85z"/>
			</g>
		</g>
		<g>
			<g>
				<path class="st14" d="M1931.92,475.9c-0.36-0.02-0.12-0.07-0.12,0.3c0,0.22,0.05,0.46,0.07,0.68c0.05,0.73,0.06,1.46,0.07,2.18
					c0.01,1.53-0.02,3.07-0.06,4.6c-0.11,3.85-0.26,7.68-0.65,11.52c-1.1,10.93-3.28,21.72-4.8,32.6
					c-0.8,5.77-1.44,11.58-1.54,17.41c-0.01,0.48,0.74,0.48,0.75,0c0.18-11.47,2.35-22.81,4.15-34.11
					c1.5-9.41,2.63-18.76,2.85-28.29c0.04-1.77,0.08-3.55,0-5.33c-0.02-0.52,0.11-2.27-0.73-2.32
					C1931.44,475.13,1931.44,475.88,1931.92,475.9L1931.92,475.9z"/>
			</g>
		</g>
		<g>
			<g>
				<path class="st14" d="M1935.99,475.69c-0.04,18.28-4.01,36.26-5.1,54.47c-0.3,5.08-0.38,10.17-0.04,15.25
					c0.03,0.48,0.78,0.48,0.75,0c-1.19-18.24,2.58-36.36,4.31-54.44c0.49-5.08,0.82-10.17,0.83-15.27
					C1936.74,475.21,1935.99,475.21,1935.99,475.69L1935.99,475.69z"/>
			</g>
		</g>
	</g>
</g>
<polygon class="st15" points="1610.15,805.99 1686.7,854.71 1689.97,847.75 "/>
<g id="Arm_x5F_R_4_">
	<path class="st0" d="M1619.56,767.24c0,0-27.29,113.39-36.57,148.87c-4.7,17.98-59.49,184.75-62.22,187.48
		c-2.73,2.73,34.39,10.23,46.39,1.5c12.01-8.73,64.64-128.52,82.96-160.46c21.29-37.11,56.9-155.01,56.9-155.01"/>
	<path class="st5" d="M1610.9,812.92c0,0,28.72,47.11,68.29,55.02l2.46,0.82l7.1-21.01l-70.13-43.39L1610.9,812.92z"/>
	<polygon class="st16" points="1615.33,792.89 1628.43,800.26 1544.11,1047.51 	"/>
	<path class="st5" d="M1662.68,830.83c0,0-106.29,298.28-104.11,296.64c1.34-1.01,56.13-105.39,94.29-188.16
		c23.89-51.83,39.49-96.56,36.84-97.83C1680.28,836.97,1662.68,830.83,1662.68,830.83z"/>
</g>
<g id="Hals_7_">
	<path id="Hals_8_" class="st0" d="M1791.22,505.6l-1.23,66.11c0,0-44.76,9.96-61.67,18.69c-27.5,14.19,185.3,111.07,227.05,62.77
		c25-28.92,2.83-53.93-26.61-65.5c-11.46-4.5-45.64-13.71-45.64-13.71l-3.27-89.03L1791.22,505.6z"/>
	<path class="st15" d="M1790.81,509.9v19.65c0,0,43.19,36.43,91.28,15.35l-0.41-44L1790.81,509.9z"/>
	<path class="st16" d="M1793.26,534.46l-1.36,40.66c0,0,10.37-0.55,8.73-15.56C1798.99,544.56,1793.26,534.46,1793.26,534.46z"/>
	<path class="st5" d="M1882.23,563.39c0,0-18.28,33.29-54.31,45.3c-3.66,1.22-37.66,0-37.66,0l23.2,2.73c0,0,20.74,7.1,21.56,7.1
		s12.83,0.27,12.83,0.27l36.02-48.3L1882.23,563.39"/>
</g>
<g id="KOPFPBEN_Kopie_3_Kopie_Kopie_Kopie_Kopie_2_Kopie">
	<g id="Kopf_9_">
		<path id="Kopf_10_" class="st0" d="M1711.57,251.29c0,0,4.97,133.95,10.46,172.88c6.37,45.15,53.7,106.65,114.65,111.34
			c48.47,3.73,111.71-64.39,122.61-94.8c9.62-26.84,8.38-81.75,7.12-123.68c-0.8-26.66-32.06-62.63-60.75-93.48
			c-16.41-17.64-43.14-20.89-63.27-7.64L1711.57,251.29z"/>
		<path class="st15" d="M1871.45,218.85c0,0-83.71,92.78-135.44,101.3c-51.73,8.52-18.55,7.36-18.55,7.36l4.93-44.39L1871.45,218.85
			z"/>
		<path class="st5" d="M1966.08,394.05c0,0-19.35,46.86-19.62,47.22c-5.84,7.79-64.33,95.26-104.24,93.92c0,0,35.6,4.4,81.65-45.33
			c22.06-23.82,34.82-47.48,34.82-47.48"/>
	</g>
	<g id="Augen_Kopie_3_Kopie_Kopie_Kopie_Kopie_2_Kopie">
		<g>
			<g>
				<path class="st17" d="M1884.89,363.09c0,0,14.14-23.9,29.61-22.03c15.46,1.87,21.22,10.71,27.06,25.33
					c0,0-6.99,12.84-24.18,12.21C1894.47,377.78,1884.89,363.09,1884.89,363.09z"/>
				
					<linearGradient id="SVGID_1_" gradientUnits="userSpaceOnUse" x1="1892.4095" y1="629.4398" x2="1892.1591" y2="604.5081" gradientTransform="matrix(0.9977 0.0678 -0.0678 0.9977 77.5255 -376.5574)">
					<stop  offset="0" style="stop-color:#008CB2"/>
					<stop  offset="0.2227" style="stop-color:#0188AD"/>
					<stop  offset="0.5014" style="stop-color:#047B9D"/>
					<stop  offset="0.8087" style="stop-color:#086684"/>
					<stop  offset="1" style="stop-color:#0B5570"/>
				</linearGradient>
				<path class="st18" d="M1941.59,362.22c1.37,1.97,2.15-0.1,1.23,1.97c-3.2,7.16-12.14,14.33-20.29,13.78
					c-10.5-0.71-18.42-9.96-17.69-20.66c0.3-4.41,1.88-7.85,4.37-10.3c3.55-3.5,5.66-5.25,11.83-4.83
					C1931.54,342.88,1935.81,353.88,1941.59,362.22z"/>
				
					<ellipse transform="matrix(0.0678 -0.9977 0.9977 0.0678 1436.0879 2252.7065)" class="st19" cx="1923.54" cy="357.86" rx="7.98" ry="7.78"/>
				<g>
					<path class="st20" d="M1943.97,367.19c0,0-11.91-25.41-27.49-25.64s-21.34,7.56-29.11,21.25c0,0,7.01,13.32,24.13,15.03
						C1934.31,380.11,1943.97,367.19,1943.97,367.19z"/>
					
						<linearGradient id="SVGID_00000020389375742049207310000001946946784432627875_" gradientUnits="userSpaceOnUse" x1="1309.6146" y1="630.4449" x2="1309.3553" y2="604.6439" gradientTransform="matrix(-0.9977 -0.0678 -0.0678 0.9977 3263.25 -160.0629)">
						<stop  offset="0" style="stop-color:#008CB2"/>
						<stop  offset="0.2227" style="stop-color:#0188AD"/>
						<stop  offset="0.5014" style="stop-color:#047B9D"/>
						<stop  offset="0.8087" style="stop-color:#086684"/>
						<stop  offset="1" style="stop-color:#0B5570"/>
					</linearGradient>
					<path style="fill:url(#SVGID_00000020389375742049207310000001946946784432627875_);" d="M1895.65,358.32
						c-0.73,10.7,5.92,19.13,16.42,19.85c6.8,0.46,13.52,0.2,17.55-3.45c6.03-5.46,6.28-15.38,5.41-19.05
						c-2.16-9.11-12.25-12.09-19.97-14.12c-5.66-1.49-10.05,2.87-13.93,5.96C1898.02,349.98,1895.97,353.57,1895.65,358.32z"/>
					
						<ellipse transform="matrix(0.0678 -0.9977 0.9977 0.0678 1427.1157 2245.2444)" class="st22" cx="1915.06" cy="358.93" rx="7.98" ry="7.78"/>
					<path class="st17" d="M1910.24,363.11l-12.54,6.15c-1.1,0.54-2.44,0.08-2.98-1.02l-0.2-0.41c-0.54-1.1-0.08-2.44,1.02-2.98
						l12.54-6.15c1.1-0.54,2.44-0.08,2.98,1.02l0.2,0.41C1911.8,361.23,1911.34,362.57,1910.24,363.11z"/>
				</g>
				<g>
					<path d="M1883.52,360.85c3.08-5.49,6.94-10.49,11.42-14.76c5.21-4.97,11.62-9.08,18.58-9.26c5.82-0.15,11.42,2.49,16.14,6.06
						c4.73,3.58,12.09,15.64,14.03,16.48c0,0,4,0.51,5.73-0.78c-2.2,2.61-4.94,6.2-7.91,7.71c-3.94-6.13-3.25-6.5-9.39-13.7
						c-4.53-5.31-10.69-10.35-17.69-10.4c-7.59-0.06-14.53,4.81-19.55,10.93c-4.47,5.46-8.63,11.31-8.88,11.88"/>
				</g>
				<path class="st20" d="M1918.27,360.58l-12.54,6.15c-1.1,0.54-2.44,0.08-2.98-1.02l-0.2-0.41c-0.54-1.1-0.08-2.44,1.02-2.98
					l12.54-6.15c1.1-0.54,2.44-0.08,2.98,1.02l0.2,0.41C1919.83,358.69,1919.37,360.04,1918.27,360.58z"/>
			</g>
			<g>
				<g>
					<path class="st17" d="M1809.45,357.01c0,0-11.91-25.41-27.49-25.64s-21.34,7.56-29.11,21.25c0,0,7.01,13.32,24.13,15.03
						C1799.79,369.92,1809.45,357.01,1809.45,357.01z"/>
					
						<linearGradient id="SVGID_00000011725079777027059580000005775903630724848020_" gradientUnits="userSpaceOnUse" x1="1444.52" y1="629.4023" x2="1444.2607" y2="603.6013" gradientTransform="matrix(-0.9977 -0.0678 -0.0678 0.9977 3263.25 -160.0629)">
						<stop  offset="0" style="stop-color:#008CB2"/>
						<stop  offset="0.2227" style="stop-color:#0188AD"/>
						<stop  offset="0.5014" style="stop-color:#047B9D"/>
						<stop  offset="0.8087" style="stop-color:#086684"/>
						<stop  offset="1" style="stop-color:#0B5570"/>
					</linearGradient>
					<path style="fill:url(#SVGID_00000011725079777027059580000005775903630724848020_);" d="M1761.12,348.14
						c-0.73,10.7,5.92,19.13,16.42,19.85c6.8,0.46,13.52,0.2,17.55-3.45c6.03-5.46,6.28-15.38,5.41-19.05
						c-2.16-9.11-12.25-12.09-19.97-14.12c-5.66-1.49-10.05,2.87-13.93,5.96C1763.5,339.79,1761.45,343.39,1761.12,348.14z"/>
					
						<ellipse transform="matrix(0.0678 -0.9977 0.9977 0.0678 1311.8759 2101.5332)" class="st22" cx="1780.54" cy="348.74" rx="7.98" ry="7.78"/>
				</g>
				<g>
					<path d="M1811.11,355.06c-2.32-5.73-5.48-11.08-9.34-15.81c-4.5-5.51-10.3-10.34-17.17-11.44c-5.75-0.92-11.64,0.88-16.81,3.71
						c-5.16,2.83-14.07,13.52-16.11,14.07c0,0-4.03-0.04-5.57-1.52c1.83,2.82,4.06,6.66,6.81,8.52c4.73-5.4,4.09-5.85,11.14-12
						c5.2-4.53,11.98-8.58,18.92-7.69c7.53,0.96,13.75,6.59,17.91,13.19c3.3,5.24,6.3,10.73,7.04,12.29
						c0.09,0.19,0.15,0.32,0.17,0.39"/>
				</g>
				<path class="st17" d="M1775.71,352.93l-12.54,6.15c-1.1,0.54-2.44,0.08-2.98-1.02l-0.2-0.41c-0.54-1.1-0.08-2.44,1.02-2.98
					l12.54-6.15c1.1-0.54,2.44-0.08,2.98,1.02l0.2,0.41C1777.27,351.04,1776.81,352.39,1775.71,352.93z"/>
			</g>
		</g>
		<path class="st24" d="M1886.66,369.23c0.47,1.13,11.8,15.57,22.78,14.95c10.98-0.62,5.24,4.05-0.49,3.25
			C1889.99,384.77,1886.66,369.23,1886.66,369.23z"/>
		<path class="st24" d="M1812.26,363.49c-0.62,1.05-13.8,13.83-24.59,11.73c-10.8-2.1-5.74,3.31,0.05,3.29
			C1806.87,378.44,1812.26,363.49,1812.26,363.49z"/>
		
			<linearGradient id="SVGID_00000054252766073277097390000010774909741771379859_" gradientUnits="userSpaceOnUse" x1="2346.4231" y1="582.707" x2="2411.9124" y2="582.707" gradientTransform="matrix(-0.9977 -0.0678 -0.0678 0.9977 4183.314 -97.5374)">
			<stop  offset="0" style="stop-color:#FFB699;stop-opacity:0"/>
			<stop  offset="0.0426" style="stop-color:#FDAF91;stop-opacity:0.0818"/>
			<stop  offset="0.1473" style="stop-color:#FBA383;stop-opacity:0.2831"/>
			<stop  offset="0.2788" style="stop-color:#F99C7B;stop-opacity:0.5359"/>
			<stop  offset="0.5203" style="stop-color:#F99A79"/>
			<stop  offset="0.7469" style="stop-color:#F99C7B;stop-opacity:0.5276"/>
			<stop  offset="0.866" style="stop-color:#FBA383;stop-opacity:0.2793"/>
			<stop  offset="0.9599" style="stop-color:#FDAF91;stop-opacity:0.0836"/>
			<stop  offset="1" style="stop-color:#FFB699;stop-opacity:0"/>
		</linearGradient>
		<path style="fill:url(#SVGID_00000054252766073277097390000010774909741771379859_);" d="M1802.59,320.66
			c0.36,6.79,1.17,9.93-9.69,6.73c-10.86-3.2-16.57-6.67-23.81-2.85c-7.23,3.82-16.45,12.63-22.13,11.63
			c-5.68-1-13.81-8.12-7.96-12.64c5.85-4.53,17.56-14.01,30.38-15.37C1796.46,305.26,1802.59,320.66,1802.59,320.66z"/>
		
			<linearGradient id="SVGID_00000078039128852799473950000009849601939669501094_" gradientUnits="userSpaceOnUse" x1="1652.879" y1="579.5693" x2="1718.3683" y2="579.5693" gradientTransform="matrix(0.9977 0.0678 -0.0678 0.9977 280.2914 -362.7779)">
			<stop  offset="0" style="stop-color:#FFB699;stop-opacity:0"/>
			<stop  offset="0.0426" style="stop-color:#FDAF91;stop-opacity:0.0818"/>
			<stop  offset="0.1473" style="stop-color:#FBA383;stop-opacity:0.2831"/>
			<stop  offset="0.2788" style="stop-color:#F99C7B;stop-opacity:0.5359"/>
			<stop  offset="0.5203" style="stop-color:#F99A79"/>
			<stop  offset="0.7469" style="stop-color:#F99C7B;stop-opacity:0.5276"/>
			<stop  offset="0.866" style="stop-color:#FBA383;stop-opacity:0.2793"/>
			<stop  offset="0.9599" style="stop-color:#FDAF91;stop-opacity:0.0836"/>
			<stop  offset="1" style="stop-color:#FFB699;stop-opacity:0"/>
		</linearGradient>
		<path style="fill:url(#SVGID_00000078039128852799473950000009849601939669501094_);" d="M1890.81,323.51
			c-1.27,6.68-2.5,9.68,8.69,7.98c11.19-1.7,17.32-4.36,23.97,0.4c6.65,4.76,14.59,14.74,20.35,14.51
			c5.76-0.22,14.78-6.18,9.6-11.45c-5.18-5.28-15.5-16.26-28.02-19.34C1898.97,309.09,1890.81,323.51,1890.81,323.51z"/>
	</g>
	<g id="Mund_5_">
		<g>
			<path class="st27" d="M1798.73,444.63l-2.9,3.5c0,0,15.53,23.63,21.76,25.49c6.23,1.86,34.92,9.77,45.16,1.03
				s24.32-22.78,24.32-22.78s-34.59-4.2-35.62-4.06C1850.41,447.93,1798.73,444.63,1798.73,444.63z"/>
			<path class="st17" d="M1797.22,445.75c0,0,2.9,8.61,11.23,12.87c8.33,4.26,34.27,5.82,40.84,5.85
				c6.56,0.04,26.11-2.86,33.22-10.99C1889.62,445.35,1797.22,445.75,1797.22,445.75z"/>
			<path class="st28" d="M1787.61,445.31c0,0,8.77-5.53,38.25-5.91c7.6-0.1,13.38,3.44,14.56,3.14c3.23-0.81,11.84-1.72,13.51-1.52
				c32.47,3.87,33.14,10.84,33.14,10.84s-30.07,4.88-47.91,3.21C1815.3,452.83,1787.61,445.31,1787.61,445.31z"/>
			<path class="st28" d="M1787.18,445.48c3.67,0.3,2.17-4.55,13.6,4.47c11.27,8.9,14.18,10.03,27.7,13.41
				c16.01,4,28.81,1.8,34.13-1.12c5.33-2.92,24.19-15.54,19.83-11.73c-1.53,1.33,7.64-0.71,2.74,4.9s-11.86,12.93-18.57,18.01
				c-6.7,5.08-14.82,10.21-37.48,5.59c-22.66-4.62-27.92-19.67-33.18-26.79C1791,445.51,1787.18,445.48,1787.18,445.48z"/>
		</g>
		<path class="st29" d="M1811.19,445.47c0,0,5.62,0.19,10.61,0.86c6.17,0.83,10.28,2.75,5.16,2.61
			C1821.83,448.8,1811.19,445.47,1811.19,445.47z"/>
		<path class="st29" d="M1822.38,474.32c0,0,2.61,0.07,6.02,0.41c6.01,0.59,6.18,0.88,6.04,0.97
			C1830.68,478.23,1822.32,474.34,1822.38,474.32z"/>
		<g>
			<path class="st28" d="M1887.48,455.35c-1.4-1.77-2.24-3.97-2.37-6.21c-0.05-0.89,0.02-1.84,0.49-2.59
				c0.15-0.25,0.46-0.49,0.7-0.33c0.14,0.09,0.18,0.28,0.2,0.45c0.4,3.02,0.27,6.24,1.8,8.88
				C1888.21,455.67,1887.54,455.44,1887.48,455.35"/>
		</g>
		<g>
			<path class="st28" d="M1785.53,449.65c1.62-1.56,2.75-3.63,3.19-5.84c0.17-0.88,0.23-1.82-0.13-2.64
				c-0.12-0.26-0.39-0.55-0.65-0.42c-0.15,0.07-0.21,0.26-0.26,0.42c-0.8,2.94-1.11,6.15-2.98,8.55
				C1784.77,449.87,1785.46,449.74,1785.53,449.65"/>
		</g>
	</g>
	<g id="Brauen_Kopie_3_Kopie_Kopie_Kopie_Kopie_2_Kopie">
		<path class="st30" d="M1875.96,313.42c0.85-0.45,15.03-14.04,27.94-15.64c13.86-1.72,17.09,0.35,28.41,4.6
			c12,4.51,22.49,16.2,22.49,16.2s2.47,2.94-11.03-3.72c-5.71-2.82-28.11-11.96-43.61-7.27c-6.77,2.05-18.95,7.39-20.78,8.43
			C1876.49,317.66,1875.96,313.42,1875.96,313.42z"/>
		<path class="st30" d="M1815.23,319c-0.76-0.6-12.28-16.5-24.69-20.38c-13.33-4.17-16.88-2.71-28.77-0.55
			c-12.61,2.29-25.02,11.92-25.02,11.92s-2.95,2.45,11.52-1.69c6.12-1.75,29.8-6.75,44.21,0.64c6.3,3.23,17.33,10.66,18.94,12.01
			C1813.94,323.08,1815.23,319,1815.23,319z"/>
	</g>
	<g id="sprossen_10_">
		
			<ellipse transform="matrix(0.0678 -0.9977 0.9977 0.0678 1078.9552 2350.4465)" class="st31" cx="1797.28" cy="597.84" rx="1.84" ry="2.25"/>
		
			<ellipse transform="matrix(0.0678 -0.9977 0.9977 0.0678 1060.0948 2330.2454)" class="st31" cx="1777.04" cy="597.83" rx="1.84" ry="2.25"/>
		
			<ellipse transform="matrix(0.0678 -0.9977 0.9977 0.0678 1075.7373 2322.3081)" class="st31" cx="1780.61" cy="585.49" rx="1.84" ry="2.25"/>
		
			<ellipse transform="matrix(0.0678 -0.9977 0.9977 0.0678 1060.7062 2313.8867)" class="st31" cx="1768.59" cy="589.33" rx="1.84" ry="2.25"/>
		
			<ellipse transform="matrix(0.0678 -0.9977 0.9977 0.0678 1301.7817 2159.6658)" class="st32" cx="1806.6" cy="383.21" rx="1.74" ry="2.25"/>
		
			<ellipse transform="matrix(0.0678 -0.9977 0.9977 0.0678 1279.4128 2162.1487)" class="st32" cx="1796.74" cy="396.42" rx="1.74" ry="2.25"/>
		
			<ellipse transform="matrix(0.0678 -0.9977 0.9977 0.0678 1282.2057 2143.2319)" class="st32" cx="1788.02" cy="385.47" rx="2.35" ry="2.56"/>
	</g>
	<g id="sprossen_9_">
		
			<ellipse transform="matrix(0.0678 -0.9977 0.9977 0.0678 1127.5706 2411.8918)" class="st31" cx="1854.47" cy="602.55" rx="1.84" ry="2.25"/>
		
			<ellipse transform="matrix(0.0678 -0.9977 0.9977 0.0678 1143.5419 2434.4465)" class="st31" cx="1874.52" cy="605.28" rx="1.84" ry="2.25"/>
		
			<ellipse transform="matrix(0.0678 -0.9977 0.9977 0.0678 1154.4774 2420.7314)" class="st31" cx="1872.65" cy="592.57" rx="1.84" ry="2.25"/>
		
			<ellipse transform="matrix(0.0678 -0.9977 0.9977 0.0678 1359.4581 2232.2336)" class="st32" cx="1874.27" cy="388.63" rx="1.74" ry="2.25"/>
		
			<ellipse transform="matrix(0.0678 -0.9977 0.9977 0.0678 1352.5045 2253.6387)" class="st32" cx="1882.25" cy="403.05" rx="1.74" ry="2.25"/>
		
			<ellipse transform="matrix(0.0678 -0.9977 0.9977 0.0678 1371.5952 2254.7278)" class="st32" cx="1892.37" cy="393.38" rx="2.35" ry="2.56"/>
	</g>
	<g id="Rouge_5_">
		<path class="st33" d="M1797.8,407.95c-0.81,11.96-19.29,20.61-35.36,19.52c-16.07-1.09-30.02-22.6-29.21-34.56
			c0.81-11.96,9.87-11.27,25.94-10.18C1775.24,383.81,1798.62,395.99,1797.8,407.95z"/>
		<path class="st33" d="M1890.92,415.64c-0.81,11.96,16.32,23.03,32.39,24.12c16.07,1.09,32.8-18.33,33.61-30.3
			c0.81-11.96-8.25-12.5-24.32-13.59C1916.54,394.78,1891.74,403.68,1890.92,415.64z"/>
	</g>
	<g id="Ohren_5_">
		<g>
			<g>
				<path class="st0" d="M1962.92,398.32c-1.35,19.85-4.76,42.91-4.2,43.64c12.4,16.36,46.09-20.14,47.44-39.99
					s-7.29-30.72-20.83-31.64C1971.8,369.41,1964.27,378.47,1962.92,398.32z"/>
			</g>
		</g>
		<g>
			<g>
				<path class="st0" d="M1729.39,381.24c-1.35,19.85,5.28,43.85-8.25,42.93c-27.77-1.89-40.81-29.33-39.46-49.18
					s10.92-26.61,24.45-25.69C1719.66,350.22,1730.74,361.39,1729.39,381.24z"/>
			</g>
			<path class="st15" d="M1722.5,369.93c0,0-10.03-21.47-23.26-11.97c-13.23,9.5-7.98,20.79-7.98,20.79s14.28-16.42,10.64-3.65
				c-4.67,16.37,15.44,34.42,15.44,34.42s-11.63-30.06-2.3-30.52C1724.38,378.53,1722.5,369.93,1722.5,369.93z"/>
			<path class="st15" d="M1966.59,391.85c0,0,12.84-19.92,24.66-8.72c11.82,11.2,5.09,21.68,5.09,21.68s-11.93-18.21-10.05-5.06
				c2.41,16.85-19.95,32.01-19.95,32.01s15.59-28.21,6.41-29.93C1963.57,400.12,1966.59,391.85,1966.59,391.85z"/>
		</g>
	</g>
	<path id="nase_5_" class="st15" d="M1821.02,409.74c-0.48-0.57,0.02-1.43,0.75-1.28c4.16,0.84,13.87,2.72,19.88,3.13
		c8.24,0.56,17.2,0.41,21.09,0.3c0.74-0.02,1.1,0.89,0.54,1.38c-2.73,2.39-9.49,6.84-21.39,6.19
		C1829.97,418.8,1823.52,412.76,1821.02,409.74z"/>
	<g>
		<g id="Haareoben_5_">
			<g>
				<path class="st12" d="M1873.65,188.1c15.25,9.73,32.74,15.75,47.24,26.56c23.06,17.2,65.07,33.48,74.12,60.79
					c9.81,29.58,17.07,48.49-9.84,94.25c-0.5-17.41-9.79-28.66-21.59-41.47s-36.49-24.19-47.49-37.69
					c-11.03-13.54-25.19-35.89-29.23-52.86c-3.12-13.12-7.58-22.46-14.06-34.6c-13.07-24.49-59-12.53-81.74-13.17
					c-26.12-0.74-25.3-8.08-49.82,0.95c-24.53,9.03-63.05,73.55-66.93,99.39c0,0-0.14,0.95-0.4,2.58
					c-1.81,11.07,2.19,51.7-27.55,78.67c-10.39,9.43,30.49-9.96,33.96-28.87"/>
			</g>
			<g>
				<path class="st12" d="M1702.96,363.49c3.95-21.23,2.56,12.81,20.6,0.94c23.3-15.34-1.88-59.41,24.02-69.76
					c39.82-15.92,139.55-64.09,148.62-106c-6.48,3.18-13.16,5.82-19.97,8.07c-23.67,7.79-49.05,10.66-73.93,13.74
					c-14.23,1.76-28.59,3.67-41.98,8.8c-22.02,8.44-45.21,12.54-55.06,33.96c-9.85,21.43-6.24,59.93,1.69,82.14
					c4.26-6.14-7.46,35.97-3.2,29.83"/>
			</g>
			<g>
				<g>
					<path class="st12" d="M1672.83,390.83c-3.84-14.54-6.56-29.39-7.59-44.4c-0.88-12.75-0.57-25.62,1.29-38.27
						c1.63-11.1,4.42-22.02,8.43-32.5c3.65-9.54,8.33-18.68,13.88-27.24c5.16-7.96,11.08-15.41,17.6-22.3
						c6.06-6.4,12.64-12.32,19.59-17.73c6.34-4.94,13-9.45,19.9-13.56c6-3.57,12.18-6.84,18.5-9.79c5.02-2.34,10.14-4.48,15.35-6.36
						c3.49-1.26,7.02-2.43,10.61-3.36c0.56-0.14,1.12-0.28,1.68-0.41c0.94-0.21,0.54-1.66-0.4-1.45c-3.16,0.7-6.26,1.68-9.32,2.72
						c-4.95,1.68-9.82,3.61-14.6,5.71c-6.19,2.72-12.25,5.75-18.14,9.06c-6.87,3.86-13.52,8.12-19.88,12.77
						c-7.04,5.14-13.74,10.76-19.96,16.86c-6.7,6.57-12.86,13.7-18.32,21.33c-5.89,8.24-10.96,17.06-15.05,26.33
						c-4.45,10.07-7.77,20.62-9.92,31.41c-2.44,12.22-3.42,24.7-3.17,37.15c0.29,14.45,2.21,28.84,5.3,42.95
						c0.84,3.84,1.77,7.67,2.78,11.47C1671.63,392.16,1673.08,391.76,1672.83,390.83L1672.83,390.83z"/>
				</g>
			</g>
			<g>
				<path class="st14" d="M1905.79,208.6c2.68,20.12,18.83,41.68,32.82,56.39c17.93,18.86,31.58,20.22,36.31,21.07
					c0.04-50.91-59.7-56.44-69.61-78.58"/>
			</g>
			<path class="st14" d="M1670.87,304.56c0,0,17.67,51.07,11.49,109.17c-6.17,58.1,45.11,119.64,45.11,119.64
				s-30.02-0.54-47.54-36.33C1664.67,465.86,1670.87,304.56,1670.87,304.56z"/>
			<path class="st30" d="M1679.3,285.11c-3.44,50.64,29.33,67.5,29.33,67.5l14.84,22.07c0,0,13.48-20.28,12.95-32.63
				c-0.53-12.34-2.67-21.11-1.19-30.85c1.48-9.75,8.96-15.12,8.96-15.12s-80.45-3.55-22.27-62.78S1682.75,234.47,1679.3,285.11z"/>
			<path class="st30" d="M1986.4,229.81c0,0-28.51,41.14,2.15,89.18c30.65,48.04,22.72,94.27,22.72,94.27s8.46-92.42-5.47-148.9
				C1998.94,236.54,1986.4,229.81,1986.4,229.81z"/>
			<path class="st34" d="M1767,184.8c0,0-28.73,6.93-41.19,23.85c-12.45,16.92-20.37,33.3-6.94,18.91
				c15.24-16.33,36.9-26.16,36.9-26.16s50.63-28.47,30.67-19.78C1778.84,184.93,1767,184.8,1767,184.8z"/>
			<g>
				<g>
					<g>
						<path class="st12" d="M1741.9,189.89c-2.81,0.85-5.29,2.76-7.57,4.54c-3.25,2.53-6.28,5.33-9.22,8.21
							c-6.4,6.25-12.47,12.91-17.95,19.97c-1.81,2.33-3.67,4.72-5.04,7.34c-3.16,6.04-5.83,12.39-8.32,18.73
							c-5.24,13.33-9.23,27.14-11.9,41.21c-2.83,14.91-4.45,30.84,1.79,45.14c0.25,0.56,1.13,0.89,1.69,0.69
							c2.23-0.8,3.46-2.95,2.94-5.28c-0.43-1.88-3.32-1.09-2.89,0.8c0.15,0.66-0.19,1.35-0.84,1.59c0.56,0.23,1.13,0.46,1.69,0.69
							c-5.37-12.31-4.37-26.32-2.14-39.23c2.35-13.64,5.98-27.07,10.75-40.06c2.4-6.53,5.1-12.94,8.09-19.22
							c1.49-3.12,3.08-5.96,5.14-8.74c4.98-6.74,10.69-13.02,16.57-18.98c3.28-3.33,6.66-6.57,10.27-9.54
							c1.38-1.14,2.8-2.23,4.3-3.2c0.64-0.42,1.3-0.81,1.98-1.16c0.68-0.35,0.77-0.4,1.46-0.61
							C1744.54,192.22,1743.75,189.33,1741.9,189.89L1741.9,189.89z"/>
					</g>
				</g>
				<path class="st35" d="M1886.1,188.39c0,0-14.12,74.94,20.27,100.26c34.39,25.31,68.65,40.36,68.65,40.36l-74.89-117.51
					L1886.1,188.39z"/>
				<g>
					<g>
						<path class="st12" d="M1743.93,191.66c22.6-10,46.94-16.73,71.77-17.03c17.6-0.21,35.25,2.88,51.49,9.75
							c10.98,4.64,21.46,10.95,30.24,19.06c3.34,3.08,6.49,6.09,10.25,8.68c5.55,3.83,11.41,7.22,17.27,10.54
							c14.86,8.41,30.04,16.26,44.87,24.72c7.23,4.12,14.41,8.37,21.35,12.98c5.74,3.81,11.42,7.85,16.42,12.61
							c3.54,3.37,6.85,7.14,8.11,11.96c3.17,12.1,5.52,24.45,6.87,36.89c1.35,12.39,1.79,24.99,0.31,37.39
							c-1.58,13.23-4.95,26.35-8.06,39.29c-3.07,12.78-6,25.58-8.99,38.37c-2.19,9.34-5.17,18.49-7.92,27.67
							c-3.06,10.21-6.01,20.49-7.96,30.98c-1.72,9.19-2.81,18.77-1.36,28.08c0.61,3.91,1.74,7.71,3.56,11.24
							c0.44,0.86,1.74,0.1,1.3-0.76c-4.14-8.01-4.45-17.44-3.71-26.25c0.9-10.66,3.46-21.15,6.31-31.44
							c2.76-9.98,5.96-19.83,8.79-29.79c3.19-11.22,5.39-22.7,8.13-34.03c3.15-13.04,6.39-26.05,9-39.21
							c1.22-6.15,2.35-12.3,2.86-18.56c0.51-6.23,0.57-12.49,0.32-18.74c-0.51-12.67-2.23-25.29-4.78-37.71
							c-1.06-5.16-1.96-10.62-3.74-15.59c-0.74-2.06-1.91-3.93-3.23-5.65c-3.62-4.72-8.32-8.56-13.05-12.12
							c-6.31-4.75-13-8.99-19.77-13.05c-14.99-9.01-30.49-17.12-45.82-25.53c-6.62-3.63-13.24-7.3-19.67-11.26
							c-4.56-2.8-9.25-5.71-13.16-9.4c-3.39-3.21-6.72-6.36-10.46-9.18c-4.94-3.72-10.21-6.99-15.71-9.81
							c-14.54-7.47-30.56-11.8-46.83-13.15c-22.59-1.88-45.36,1.99-66.73,9.28c-6.46,2.2-12.81,4.73-19.05,7.49
							C1742.29,190.75,1743.05,192.05,1743.93,191.66L1743.93,191.66z"/>
					</g>
				</g>
			</g>
			<path class="st35" d="M1673.32,298.31c0,0,7.03,157.37,2.85,179.73c-2.58,13.77-14.74,29.31-14.74,29.31"/>
			<path class="st35" d="M1644.16,511.73"/>
			<path class="st35" d="M1672.1,350.82"/>
			<g>
				<path class="st14" d="M1718.93,269.09c-1.23-4.25-0.38-8.83,0.95-13.05c5.69-18.02,20.03-32.38,36.55-41.56
					c7.14-3.97,14.72-7.09,22.28-10.21c19.4-7.99,38.81-15.98,58.62-22.89c2.19-0.76,4.46-1.53,6.78-1.39
					c2.32,0.14,4.72,1.4,5.51,3.58c1.28,3.53-2.04,6.96-5.17,9.05c-8.67,5.8-18.47,9.65-28.12,13.61
					c-25.57,10.5-51.14,22.34-71.75,40.75c-5.08,4.54-9.84,9.46-15.42,13.38c-3.5,2.46-7.31,4.5-11.29,6.07"/>
			</g>
			<g>
				<g>
					<path class="st14" d="M1722.25,352.73c-6.88-19.55-11.48-41.99-4.42-62.17c4.38-12.52,13.31-22.56,24.52-29.45
						c11.84-7.28,25.67-11.41,38.84-15.35c7.39-2.21,14.79-4.36,22.06-6.96c4.01-1.43,7.88-2.87,11.46-5.21
						c7.1-4.63,13.43-10.53,19.5-16.41c7.42-7.19,14.49-14.76,21.25-22.58c5.38-6.23,10.72-12.63,15.26-19.52
						c0.74-1.12,1.45-2.26,2.1-3.43c0.23-0.42-0.41-0.8-0.65-0.38c-3.6,6.51-8.5,12.38-13.23,18.08
						c-6.53,7.87-13.43,15.45-20.62,22.72c-6.53,6.61-13.31,13.13-20.8,18.66c-2.54,1.88-5.22,3.73-8.15,4.96
						c-7,2.94-14.32,5.14-21.58,7.32c-10.36,3.12-20.73,6.18-30.8,10.14c-4.36,1.72-8.64,3.65-12.73,5.97
						c-10.98,6.23-20.25,15.29-25.43,26.92c-8.03,18.02-5.71,38.77-0.41,57.19c0.94,3.27,1.99,6.5,3.12,9.7
						C1721.68,353.39,1722.41,353.19,1722.25,352.73L1722.25,352.73z"/>
				</g>
			</g>
			<g>
				<g>
					<path class="st14" d="M1891.13,175.22c-0.14,14.29,1.24,28.61,3.89,42.65c2.75,14.56,6.9,29.01,13.37,42.37
						c2.93,6.06,6.38,11.89,10.52,17.21c5.21,6.69,11.37,12.61,17.76,18.15c6.49,5.63,13.28,10.9,19.91,16.34
						c2.92,2.4,5.87,4.78,8.54,7.46c2.59,2.6,4.97,5.41,7.2,8.32c9.14,11.96,16.45,25.88,20.98,40.25c0.49,1.57,0.95,3.16,1.35,4.75
						c0.12,0.47,0.84,0.27,0.72-0.2c-3.6-14.17-10.43-27.83-18.61-39.89c-3.92-5.78-8.3-11.37-13.51-16.04
						c-6.27-5.63-13.05-10.7-19.56-16.05c-6.61-5.43-13.09-11.05-18.89-17.34c-4.97-5.38-9.25-11.25-12.82-17.65
						c-7.2-12.93-11.81-27.25-14.98-41.67c-3.16-14.37-4.91-29.1-5.12-43.81c-0.02-1.62-0.03-3.24-0.01-4.86
						C1891.89,174.73,1891.14,174.73,1891.13,175.22L1891.13,175.22z"/>
				</g>
			</g>
			<g>
				<g>
					<path class="st14" d="M1976.4,298.78c1.85,14.83,8.33,28.47,15.14,41.59c7.1,13.69,15.33,27.49,18.83,42.66
						c1.74,7.53,2.3,15.23,1.33,22.9c-0.99,7.82-3.1,15.46-5.25,23.03c-2.08,7.32-4.16,14.61-5.64,22.08
						c-1.61,8.18-3.55,16.28-5.28,24.44c-3.27,15.41-5.36,31.02-2.8,46.72c0.34,2.11,0.77,4.21,1.25,6.3
						c0.11,0.47,0.83,0.27,0.72-0.2c-1.88-8.12-2.67-16.43-2.38-24.75c0.28-7.94,1.5-15.81,3.05-23.6c1.6-8.03,3.52-16,5.2-24.02
						c0.8-3.82,1.49-7.67,2.4-11.46c0.89-3.69,1.92-7.34,2.96-10.99c2.12-7.46,4.33-14.91,5.73-22.55
						c1.34-7.32,1.6-14.51,0.56-21.89c-2.14-15.22-9.58-29.08-16.63-42.52c-7.04-13.41-14.42-27.03-17.51-42
						c-0.39-1.9-0.71-3.81-0.95-5.73C1977.09,298.31,1976.34,298.3,1976.4,298.78L1976.4,298.78z"/>
				</g>
			</g>
			<g>
				<g>
					<path class="st14" d="M1684.31,250.37c-4.5,10.75-8.33,21.95-11.54,33.15c-0.75,2.6-1.45,5.22-1.97,7.87
						c-0.49,2.5-0.48,4.86-0.49,7.41c-0.02,10.2-0.5,20.4-1.05,30.59c-1.11,20.68-2.6,41.42-1.54,62.13
						c0.52,10.09,1.83,20.03,3.76,29.94c2,10.29,4.46,20.48,6.69,30.72c4.38,20.06,7.85,40.7,4.61,61.21
						c-0.41,2.58-0.92,5.15-1.52,7.7c-0.11,0.47,0.61,0.67,0.72,0.2c4.69-19.91,2.75-40.25-1.17-60.1
						c-4.02-20.36-9.88-40.45-11.75-61.18c-1.85-20.57-0.68-41.29,0.46-61.87c0.57-10.3,1.17-20.6,1.42-30.91
						c0.06-2.49,0.1-4.98,0.11-7.47c0.01-1.73-0.1-3.48,0.03-5.21c0.17-2.27,0.74-4.53,1.3-6.73c3-11.86,7.23-23.54,11.71-34.92
						c0.31-0.78,0.62-1.56,0.94-2.33C1685.22,250.12,1684.49,249.93,1684.31,250.37L1684.31,250.37z"/>
				</g>
			</g>
		</g>
		<path class="st12" d="M1991.95,450.63c0,0-24.32,27.89-2.78,40.84c21.55,12.95,33.39,7.74,33.39,7.74s-25.94-12.7-28.28-26.54
			C1991.94,458.83,1991.95,450.63,1991.95,450.63z"/>
		<path class="st12" d="M1800.84,169.06c0,0,8.41-21.17,37.35-12.23s43.52,17.73,43.52,17.73s-27.13-11.28-44.4-10.81
			c-17.26,0.47-38.08,10.95-38.08,10.95L1800.84,169.06z"/>
		<path class="st30" d="M1809.83,169.67c0,0-18.24,28.98-33.75,31.76c-15.51,2.78,35.77-3.04,39.41-16.47
			c3.65-13.43,4.34-15.57,4.34-15.57L1809.83,169.67"/>
		<path class="st24" d="M1720.62,383.52c0,0-2.51,24.86,1.63,42.37s9.76,31.44,14.92,39.99c5.16,8.56-8.37-15.75-9.46-35.93
			C1726.63,409.78,1720.62,383.52,1720.62,383.52z"/>
	</g>
</g>
<g id="Hand_x5F_R_7_">
	<path class="st0" d="M1542.33,1091.99l-80.37,23.2c0,0,0.55,41.21,27.56,37.11c27.02-4.09,37.11,3,53.21-6
		c16.1-9.01,31.93-51.85,31.93-51.85L1542.33,1091.99z"/>
	<path class="st0" d="M1510.54,1139.75c0,0-15.5,8.37-29.61,18.56c-12.7,9.17-23.94,20.08-27.43,22.92
		c-6.43,5.24-0.82,11.73,14.74,7.64c15.56-4.09,40.25-21.56,41.34-22.1c1.09-0.55,25.32-11.27,32.75-18.69
		c7.23-7.23,12.69-17.33,12.69-17.33L1510.54,1139.75z"/>
	<path class="st0" d="M1474.25,1133.2l-37.66,21.01l-39.3,32.75c0,0-9.01,5.73,1.36,6.55s23.4-7.03,26.4-10.85
		c1.04-1.33,21.95-11.25,29.06-16.58c0.82-0.61,46.46-14.53,46.46-14.53L1474.25,1133.2z"/>
	<path class="st0" d="M1470.15,1121.19l-37.66,21.01l-39.3,32.75c0,0-9.01,5.73,1.36,6.55c10.37,0.82,37.39-16.65,40.39-20.47
		s58.13-24.56,58.13-24.56L1470.15,1121.19z"/>
	<path class="st0" d="M1461.15,1117.64l-35.56,19.61l-35.46,33.8c0,0-8.26,6.07,1.79,6.07c10.05,0,34.8-18.48,37.41-22.3
		s54.2-27.48,54.2-27.48L1461.15,1117.64z"/>
	<path class="st0" d="M1463.33,1115.32l-22.51,7.78l-44.43,31.48c0,0-9.12,4.67,0.8,6.28s37.3-12.67,40.49-16.03
		c3.19-3.36,57.89-18.46,57.89-18.46L1463.33,1115.32z"/>
	<g>
		<path class="st36" d="M1470.15,1139.2c0,0-12.14,4.98-24.42,10.92s-36.23,26.2-36.23,26.2"/>
		<path class="st36" d="M1461.15,1131.7c0,0-15.56,6.48-27.84,12.42c-12.28,5.94-36.23,26.2-36.23,26.2"/>
		<path class="st36" d="M1456.64,1125.83c0,0-8.05,3.07-20.33,9.01c-12.28,5.94-36.23,26.2-36.23,26.2"/>
	</g>
	<path class="st16" d="M1520.77,1103.59c0.94-0.97-72.18,15.42-68.5,17.06S1513.95,1110.68,1520.77,1103.59z"/>
</g>
<g id="Hose_Kopie_Kopie_2_Kopie">
	<g>
		<path class="st37" d="M1607.15,771.61c16.92-64.4,88.13-173.39,88.13-173.39l47.23-14.91c0,0-25.49,24.66-44.76,56.76
			c-12.28,20.47-49.39,106.16-66.59,146.27c-0.43,1-24.15-13.37-24.15-13.37"/>
		<path class="st38" d="M1669.91,1192.83c-2.85,2.14,18.34,162.74,35.75,331.43c9.28,89.91,22.59,182.27,25.79,257.07
			c0.02,0.38-10.78,2.33-10.64,3.14c4.97,29.87,16.99,68.09,19.75,75.35c0,0,28.48,28.02,95.28,2.97
			c0.23-0.09,3.68-30.02,11.05-76.14c0.23-1.47-9.72-0.26-9.69-1.77c1.43-66.05,4.09-166.69,5.95-262.26
			c3-154.33,5.78-302.91,5.78-302.91L1669.91,1192.83z"/>
		<path class="st39" d="M1731.45,1781.33c-0.37-0.08-10.78,2.33-10.64,3.14c4.97,29.87,16.99,68.09,19.75,75.35
			c0,0,28.48,28.02,95.28,2.97c0.23-0.09,3.68-30.02,11.05-76.14c0.23-1.47-8.22-2.15-9.69-1.77
			C1809.64,1791.97,1782.62,1792.79,1731.45,1781.33z"/>
		<path class="st38" d="M2031.23,1216.16c0.46-6.96,34.77,347.15,33.98,560.22c0,0.38,0,0.76,0,1.14c0,0.83,7.78,2.98,7.77,3.8
			c-0.17,30.28-5.98,69.92-7.56,77.53c0,0-23.68,32.18-93.6,18.03c-0.25-0.05-8.4-29.06-22.98-73.42c-0.46-1.41,8.4-4.51,8.12-6
			c-9.45-51.7-12.42-152.42-26.98-228.99c-33.29-175.11-81.6-341.12-81.6-341.12L2031.23,1216.16z"/>
		<g>
			<path class="st38" d="M1713.57,1016.11c-20.71,50.22-34.92,102.9-43.78,177.11c78.13,37.2,168.13,37.77,254.64,35.45
				c36.01-0.97,72.39-2.36,107.16-11.77c-11.13-62.31-49.98-214.64-51.67-215.51c-0.1-0.05-0.39,1.07-0.55,1.09
				c-3.82,0.55-9.05,2.82-9.28,2.18c-8.47,3.59-44.9,11.81-119.53,9.82c-38.86-1.03-86.1-1.5-133.58-6.14
				c-0.03,0-0.68,3.97-0.68,3.89"/>
		</g>
	</g>
	<path class="st40" d="M1738.41,1061.29c0,0,0.58,0.13,1.64,0.38c13.4,3.09,104.3,23.88,108.47,20.09c4.5-4.09,3.68-9.82,3.68-9.82
		l-113.29-23.71L1738.41,1061.29"/>
	<g>
		<path class="st41" d="M1738.41,1061.29c0,0,0.58,0.13,1.64,0.38c13.4,3.09,110.03,25.11,114.2,21.32
			c4.5-4.09,13.51-57.31,13.51-57.31l-128.84,22.55L1738.41,1061.29"/>
		<path class="st41" d="M1882.91,1073.98c0,0,0.57,3.85,1.64,4.09c13.4,3.09,107.58-7.26,111.75-11.05
			c4.5-4.09-11.05-51.99-11.05-51.99l-118.71,11.87l17.19,50.76"/>
	</g>
	<g>
		<path class="st41" d="M1897.51,1414.55c0,0,62.77,265.8,76.41,292.55c13.64,26.74,28.38,85.69,28.38,85.69l-46.12,5.46
			C1956.18,1798.25,1911.15,1444.57,1897.51,1414.55z"/>
		<g>
			<g>
				<path class="st42" d="M1857.69,1233.9c11.65,35.46,22.48,71.18,32.46,107.14c10.02,36.14,19.19,72.51,27.5,109.08
					c8.27,36.39,15.68,72.98,22.23,109.72c6.62,37.14,12.37,74.43,17.22,111.85c4.79,37.01,8.72,74.13,11.77,111.33
					c0.38,4.65,0.75,9.3,1.1,13.95c0.15,1.91,3.15,1.93,3,0c-2.85-37.39-6.57-74.72-11.18-111.93
					c-4.58-36.99-10.02-73.88-16.32-110.62c-6.37-37.14-13.62-74.12-21.75-110.92c-8.08-36.62-17.03-73.05-26.83-109.24
					s-20.46-72.16-31.96-107.85c-1.43-4.44-2.88-8.88-4.33-13.31C1859.98,1231.27,1857.09,1232.06,1857.69,1233.9L1857.69,1233.9z"
					/>
			</g>
		</g>
	</g>
	<path class="st43" d="M1968.58,1799.93l-10.22,5.15c0,0,18.28,62.22,22.92,74.23"/>
	<path class="st39" d="M2065.46,1779.07c0.36-0.13,10.98,0.99,10.95,1.81c-1.27,30.25-8.51,69.66-10.37,77.21
		c0,0-25.21,36.24-94.58,19.57c-0.24-0.06-9.96-29.63-22.92-74.5c-0.41-1.43,6.14-5.11,7.64-4.91
		C1984.41,1801.91,2016.08,1796.72,2065.46,1779.07z"/>
	<path class="st43" d="M1739.23,1784.33l-10.37,2.73c0,0,13.64,73.14,18.56,78.05"/>
	<g>
		<g class="st44">
			<path class="st40" d="M1847.84,1231.44c-3.82-1.23-42.3-3.27-49.94-2.18c-5.46,0.78,10.37,15.01,14.19,20.47
				c9.89,14.12,10.33,35.5,10.75,52.74c2.15,87.2-3.9,386.21-1.75,473.41c0.07,2.8,17.24,8.55,17.47-1.64
				c2.18-98.79,5.61-414.66,10.37-504.31c0.58-10.92,2.49-27.15-0.55-37.66"/>
		</g>
		<g class="st44">
			<path class="st40" d="M2034.88,1582.69c-3.68,2-4.93,7.4-8.29,11.56c-8.62,10.71-13.41,23.25-20.8,34.85
				c-2.76,4.34-5.04,10.96-0.77,13.83c2.54,1.71,5.97,0.81,8.77-0.44c21.61-9.67,31.74-63.02,21.14-59.87"/>
		</g>
		<g class="st44">
			<path class="st40" d="M2020.08,1650.7c-1.63,0.29-2.76,2.17-4.53,3.32c-4.55,2.96-7.9,7.07-12.09,10.51
				c-1.57,1.29-3.24,3.49-1.99,5.09c0.74,0.95,2.14,1.04,3.34,0.91c9.3-0.97,19.66-19.73,15.3-19.86"/>
		</g>
		<g class="st44">
			<path class="st40" d="M1802.37,1581.87c-3.68,2-4.93,7.4-8.29,11.56c-8.62,10.71-13.41,23.25-20.8,34.85
				c-2.76,4.34-5.04,10.96-0.77,13.83c2.54,1.71,5.97,0.81,8.77-0.44c21.61-9.67,31.74-63.02,21.14-59.87"/>
		</g>
		<g class="st44">
			<path class="st40" d="M1787.57,1649.88c-1.63,0.29-2.76,2.17-4.53,3.32c-4.55,2.96-7.9,7.07-12.09,10.51
				c-1.57,1.29-3.24,3.49-1.99,5.09c0.74,0.95,2.14,1.04,3.34,0.91c9.3-0.97,19.66-19.73,15.3-19.86"/>
		</g>
		<path class="st41" d="M1712.01,1043.43l-0.82,2.4l-28.45,91.18c0,0,36.02-17.19,46.67-40.93c7.93-17.69,9.52-47.86,9.52-47.86
			L1712.01,1043.43z"/>
		<path class="st41" d="M1988.01,1046.25l1.74,4.2l22.92,89.14c0,0-31.93-30.91-42.98-50.45c-9.54-16.87-14.02-35.1-14.02-35.1
			L1988.01,1046.25z"/>
		<path class="st41" d="M1772.27,1193.51c0,0,53.85,21.83,51.91,24.74s-43.66,0.97-49.97-1.94
			C1767.9,1213.4,1760.14,1196.42,1772.27,1193.51z"/>
		<path class="st41" d="M1868.04,1236.63c0,0,9.28,4.37,34.39-9.82c25.11-14.19,18.56,3.27,9.28,9.82
			C1902.42,1243.17,1868.04,1236.63,1868.04,1236.63z"/>
	</g>
	<g>
		<g class="st44">
			<path class="st40" d="M1956.52,1798.72c29.67,1.95,59.65-0.88,88.44-8.35c4.05-1.05,17.38-6.04,21.2-11.77
				c0.08-0.11-0.03-4.96-1.09-9.01c-33.72,11.35-72.96,23.7-108.39,26.94"/>
		</g>
		<g>
			<g>
				<path class="st42" d="M1952.83,1054.73c3.26,13.81,9.01,26.88,16.57,38.86c7.54,11.95,16.69,22.8,26.27,33.15
					c5.61,6.07,11.39,11.98,17.17,17.89c1.35,1.38,3.47-0.74,2.12-2.12c-9.96-10.18-19.94-20.38-29.02-31.36
					c-8.78-10.62-16.64-22.07-22.44-34.61c-3.35-7.25-5.94-14.83-7.78-22.6C1955.27,1052.05,1952.38,1052.85,1952.83,1054.73
					L1952.83,1054.73z"/>
			</g>
		</g>
	</g>
	<g>
		<path class="st45" d="M1704.03,1040.82c0,0,182.16,38.48,287.36,3.27l-9.82-42.71c-65.5,24.56-262.39,6.69-262.39,6.69
			L1704.03,1040.82z"/>
		<path class="st46" d="M1781.39,1189.41c0,0,61.81,28.24,66.72,40.93l4.09,0.82c11.05-6.55,15.56-173.15,15.56-173.15"/>
		<path class="st46" d="M1847.71,1229.94c0,0-39.71-3.68-49.94-1.64"/>
		<g>
			<g>
				<path class="st42" d="M1676.33,1188.6c4.78,37.67,9.24,75.38,13.49,113.12c4.39,39.01,8.56,78.05,12.58,117.11
					c4.07,39.52,8,79.05,11.84,118.59c3.81,39.18,7.55,78.38,11.27,117.57c3.61,38.01,7.21,76.03,10.87,114.04
					c0.45,4.65,0.9,9.3,1.34,13.95c0.18,1.9,3.19,1.92,3,0c-3.65-37.8-7.24-75.61-10.83-113.41c-3.71-39.09-7.43-78.18-11.21-117.26
					c-3.83-39.54-7.73-79.08-11.76-118.6c-4-39.16-8.13-78.31-12.48-117.43c-4.22-37.95-8.64-75.87-13.37-113.76
					c-0.58-4.63-1.16-9.27-1.75-13.9C1679.09,1186.71,1676.08,1186.68,1676.33,1188.6L1676.33,1188.6z"/>
			</g>
		</g>
		<g>
			<g>
				<path class="st42" d="M1739.18,1047.76c-1.7,10.36-3.06,20.8-5.51,31.01c-2.27,9.43-5.58,18.71-11.32,26.62
					c-2.84,3.91-6.3,7.42-10.14,10.34c-2.23,1.69-4.61,3.18-6.93,4.74c-6.12,4.1-12.27,8.21-18.13,12.69
					c-1.2,0.91-2.4,1.83-3.51,2.85c-0.35,0.31-0.69,0.64-0.99,0.99c-0.11,0.13-0.23,0.26-0.31,0.4c-0.14,0.24,0.01-0.19-0.01,0
					c0.75,0.21,1.5,0.42,2.25,0.62c0-0.02-0.01-0.04-0.01-0.06c0.03-0.02-0.03,0.43,0.04-0.04c0.14-0.93,0.39-2.43,0.66-3.66
					c0.21-0.93,0.47-1.85,0.66-2.79c0.27-1.37-1.43-2.65-2.51-1.46c-0.51,0.56-0.62,1.54-0.81,2.23c-0.51,1.94-0.99,3.89-1.44,5.85
					c-0.9,3.91-1.68,7.85-2.34,11.82c-1.32,7.98-2.18,16.03-2.53,24.11c-0.2,4.57-0.23,9.15-0.12,13.73c0.05,1.93,3.05,1.93,3,0
					c-0.25-9.96,0.24-19.93,1.48-29.81c0.63-4.97,1.46-9.91,2.47-14.81c0.49-2.36,1.02-4.71,1.59-7.05
					c0.31-1.25,0.62-2.49,0.96-3.73c-0.01,0.05,0.21-0.61,0.19-0.73c-0.04-0.24,0.95-0.91-0.35,0.52c-0.84-0.49-1.67-0.97-2.51-1.46
					c-0.43,2.2-1.09,4.35-1.36,6.59c-0.15,1.22,0.08,2.98,1.79,2.74c0.72-0.1,1.02-0.56,1.44-1.07c-0.32,0.39,0.04-0.03,0.13-0.12
					c0.19-0.19,0.38-0.38,0.57-0.56c2.28-2.12,4.89-3.92,7.42-5.73c3.36-2.41,6.76-4.75,10.18-7.06
					c6.32-4.28,12.84-8.24,18.01-13.97c6.87-7.6,11.18-16.99,13.99-26.77c3.4-11.82,4.88-24.09,6.87-36.19
					C1742.38,1046.67,1739.49,1045.85,1739.18,1047.76L1739.18,1047.76z"/>
			</g>
		</g>
		<g>
			<g>
				<path class="st42" d="M1849.33,1234.39c15.47,2.14,31.39-2.59,43.14-12.9c1.45-1.28-0.68-3.39-2.12-2.12
					c-10.85,9.54-25.89,14.11-40.22,12.13c-0.81-0.11-1.6,0.2-1.85,1.05C1848.09,1233.24,1848.53,1234.27,1849.33,1234.39
					L1849.33,1234.39z"/>
			</g>
		</g>
		<g class="st47">
			<path class="st42" d="M1686.29,744.05c-6.55,17.47,9.28,55.94,21.29,85.14"/>
		</g>
		<g class="st44">
			<path class="st40" d="M1730.63,1782.8c29.08,6.22,58.73,9.94,88.29,6.71c4.15-0.45,14.56-2.59,18.69-4.09
				c1.5-0.55,1.69-8.4,1.23-12.55c-35.01,6.36-72.21,9.71-107.74,7.79"/>
		</g>
	</g>
</g>
<g id="Shirt_4_">
	<g id="Kleidung_4_">
		<path class="st10" d="M1749.33,580.85c0,0,14.74,46.34,90.06,46.34c83.02,0,86.78-42.28,86.78-42.28l63.04,14.77
			c0,0,9.69,175.06-18.01,249.7c-13.92,54.85-5.47,78.02-5.39,78.66c1.64,12.49,6.74,22.7,14.8,73.48c0,0-42.84,17.87-135.08,14.05
			c-81.81-3.39-127.37-6.86-126.9-7.5c3.34-4.57,10.23-43.25,15.96-80.91c1.97-12.96-17.1-73.09-19.65-79.41
			c-39.3-97.42-19.44-249.5-19.44-249.5L1749.33,580.85z"/>
		<path class="st10" d="M1695.28,598.22c0,0-61.4,88.42-88.42,175.2c23.74,41.75,92.51,50.76,92.51,50.76l39.3-85.14L1695.28,598.22
			z"/>
		<path class="st10" d="M1988.38,599.96c0,0,72.59,79.83,99.61,166.61c-23.74,41.75-88.93,53.36-88.93,53.36l-54.06-79.15
			L1988.38,599.96z"/>
	</g>
	<g>
		<path class="st2" d="M1997.12,1055.97c0,0-107.25,22.51-112.16,15.56c-4.91-6.96-18.01-58.54-18.01-58.54l114.62-12.69
			L1997.12,1055.97z"/>
		<path class="st2" d="M1694.2,1045.73c0,0,153.1,33.16,158.01,26.2s15.83-59.08,15.83-59.08l-149.27-7.23L1694.2,1045.73z"/>
	</g>
	<path class="st2" d="M1608.7,788.87l-3.68,14.99l86.58,45.64c0,0,5.17-14.33,5.22-14.33
		C1698.43,835.18,1608.7,788.87,1608.7,788.87z"/>
	<path class="st2" d="M2088.74,769.92l10.15,17.04l-77.99,50.33c0,0-9.93-14.77-9.99-14.77
		C2009.3,822.52,2088.74,769.92,2088.74,769.92z"/>
	<g>
		<path class="st48" d="M1743.6,588.77c0,0-50.21,68.09-57.99,90.6c-2.92,8.46-45.18,112.93-45.18,112.93"/>
		<path class="st48" d="M1752.33,604.05c0,0-58.2,92.1-61.81,100.29c-12.28,27.84-32.9,97.27-32.9,97.27"/>
		<path class="st48" d="M1758.33,610.05c0,0-60.45,90.6-51.44,135.63c3.64,18.2,32.88,132.36,32.88,145.45s-4.84,115.71-4.84,115.71
			"/>
		<path class="st48" d="M1753.97,1006.44c0,0,2.18-110.39,0.55-130.04c-1.64-19.65-25.91-118.08-25.52-133.17
			c0.82-31.52,43.53-122.8,43.53-122.8"/>
		<path class="st48" d="M1792.17,628.06c0,0-33.43,102.47-32.88,130.31c0.55,27.84,18.69,247.38,18.69,247.38"/>
		<path class="st48" d="M1815.09,633.52c0,0-20.6,92.1-21.83,130.58c-1.1,34.58,11.46,241.1,11.46,241.1"/>
		<path class="st48" d="M1830.1,635.16c0,0-1.77,93.88,0.41,126.08s0,250.11,0,250.11"/>
		<polyline class="st48" points="1851.66,635.16 1854.94,738.86 1862.44,1009.3 		"/>
		<polyline class="st48" points="1896.83,1006.85 1884.41,742.14 1872.4,632.43 		"/>
		<path class="st48" d="M1899.15,624.24c0,0,28.93,86.78,28.93,108.61c0,21.83,6,273.58,6,273.58"/>
		<path class="st48" d="M1959.05,1002.34c0,0-5.87-157.05-4.23-171.79c1.64-14.74,20.74-77.5,12.55-103.16s-52.4-114.62-52.4-114.62
			"/>
		<path class="st48" d="M1927.53,596.95c0,0,20.74,12.55,36.02,39.3s66.5,170.46,66.5,170.46"/>
		<path class="st48" d="M2055.02,790.07c0,0-51.08-155.46-61.99-166.37c-10.92-10.92-63.86-33.57-63.86-33.57"/>
	</g>
	<path class="st49" d="M1715.21,1012.03c147.91,24.01,270.44,1.36,270.44,1.36l-4.09-13.1c0,0-207.4,11.46-263.62,4.91"/>
	<path class="st50" d="M1718.49,1006.85c217.64,18.42,263.07-6.55,263.07-6.55l-4.5-13.1c-0.08-0.65-40.55,19.01-257.89,18.63"/>
	<path class="st51" d="M1988.72,600.37l-55.6-13.3l-1.15,1.99l-1.17-0.56c0,0-26.61,43.39-72.04,44.62
		c-45.44,1.23-93.74-19.24-93.74-19.24s63.04,62.63,122.39,40.12c45.44-17.24,68.76-38.53,78.46-45.78
		c6.11,4.85,14.57,14.24,18.97,20.4c16.37,22.92,82.89,116.77,60.69,69.64C2023.31,651.12,1988.72,600.37,1988.72,600.37z"/>
	<path class="st52" d="M1838.29,618.51c0,0-9.93,13.06-9.41,13.06c0.51,0,20.47-0.2,20.47-0.2L1838.29,618.51z"/>
	<path class="st51" d="M1733.7,926.41c0,0,42.5,44.96,42.5,62.97c0,18.01,1.5,16.24,1.5,16.24l-57.92,0.41L1733.7,926.41z"/>
	<polygon class="st53" points="1827.65,615.31 1821.92,635.57 1855.89,635.36 1851.59,622.27 	"/>
	<g>
		<path class="st53" d="M1742.5,583.31c0,0,49.39,87.87,59.22,86.78c9.82-1.09,37.39-50.9,37.39-50.9l-89.24-38.61L1742.5,583.31"/>
		<path class="st53" d="M1932.64,586.04c0,0-41.41,87.6-51.24,86.51c-9.82-1.09-44.55-53.35-44.55-53.35l92.03-33.43"/>
	</g>
	<g class="st54">
		<path class="st55" d="M1994.69,710.19c-3.95,9.57-8.53,68.44-12.69,85.71c-0.04,0.18,16.12,23.4,16.12,23.4
			s45.54-24.51,44.1-21.64c-0.82,1.64-22.99-48.78-37.55-72.92c-1.48-2.46-7.47-14.43-9.99-15.81"/>
	</g>
	<g class="st56">
		<path class="st37" d="M1693.66,717.44c-0.65,12.41,4.88,59.9,8.22,71.47c3.86,13.35,12.26,38.46,19.48,48.83
			c7.22,10.38,18.25,13.15,28.67,14.07c1.21,0.11,2.59,0.02,3.37-1.25c0.72-1.17,0.63-2.9,0.4-4.4
			c-1.63-10.36-8.11-17.69-13.92-24.64c-15.05-18-31.24-62.41-41.89-85.62"/>
	</g>
	<g class="st57">
		<path class="st58" d="M1695.12,597.85c-0.65,12.41-2.82,63.41,0.52,74.97c3.86,13.35,12.26,38.46,19.48,48.83
			c7.22,10.38,18.25,13.15,28.67,14.07c1.21,0.11,2.59,0.02,3.37-1.25c0.72-1.17,0.63-2.9,0.4-4.4
			c-1.63-10.36-8.11-17.69-13.92-24.64c-15.05-18-31.24-62.41-41.89-85.62"/>
	</g>
	<path class="st59" d="M1925.07,585.19c0,0-6.62,44.72-89.03,41.99c-75.07-2.49-87.8-46.05-87.8-46.05"/>
	<g>
		<path class="st60" d="M1595.34,773.31c0,0,61.27,38.21,109.3,58.13"/>
		<path class="st60" d="M2093.5,764.07c0,0-45.77,39.32-96.94,60.12"/>
	</g>
	<g class="st54">
		<path class="st55" d="M1981.97,795.62c-10.09,30.62-23.13,84.73-46.05,129.97c-2.66,5.24-17.12,54.91-17.12,80.71
			c0,3.27,45.98-1.09,62.36-6.82c-9.2-34.53-18.95-66.36-19.03-88.62c-0.15-40.27,6.01-51.05,12.28-74.81
			c2.33-8.84,4.35-17.35,4.83-21.1"/>
	</g>
	<path class="st53" d="M1991.39,730.54l-8.56,67.23c0,0,9.78,7.27,11.83-11.56S1991.39,730.54,1991.39,730.54z"/>
	<path class="st53" d="M1679.19,771.06l24.01,43.94C1703.21,815,1681.1,788.53,1679.19,771.06z"/>
	<polygon class="st61" points="1598.55,767.92 1631.03,786.89 1626.25,798.9 1591.73,778.84 	"/>
	<g>
		<path class="st2" d="M1741.96,579.01l48.03-15.28l48.31,54.85c0,0-33.98,46.87-34.11,46.67
			C1803.48,664.21,1741.96,579.01,1741.96,579.01z"/>
		<path class="st2" d="M1930.26,584.4l-46.66-18.59l-45.31,52.7c0,0,39.35,46.88,39.57,46.67
			C1878.82,664.22,1930.26,584.4,1930.26,584.4z"/>
	</g>
</g>
<g>
	<path class="st0" d="M2025.07,833.49l20.29,99.57c0,0-3.6,51.68,24.83,46.57c56.75-10.19,23.98-189.85,23.98-189.85L2025.07,833.49
		z"/>
	<path class="st0" d="M1985.65,690.53c2.11,6.62,88.64,176.27,93.8,205.39c9.67,54.63,0.64,94.27-21.8,81.52
		c-22.44-12.74-114.32-226.14-107.27-244.54S1985.65,690.53,1985.65,690.53z"/>
</g>
<g id="Arm_x5F_L_x5F_oben_6_" class="st62">
	<path class="st63" d="M2029.57,828.87c-8.27-13.77-20.23-250.83-18.68-253.75c9.96-18.75,42.11-30.93,53.72-4.56
		c5.08,11.54,111.75,278.12-20.24,279.91c-37.05,0.5-23.53-18.3-23.53-18.3"/>
	<path class="st64" d="M2111.3,756.91l-7.4-52.17l3.12,67.6c-1.14,5.35-11.23,58.83-38.63,58.56c-17.22-0.17-39.17-4.9-39.17-4.9
		l-10.82,5.85l-3.33,1.2c4.66,24.43,26.21,23.39,29.21,23.46C2115.09,858.11,2111.3,756.91,2111.3,756.91z"/>
	<g class="st65">
		
			<ellipse transform="matrix(0.9685 -0.2491 0.2491 0.9685 -84.8009 532.9394)" class="st5" cx="2063.5" cy="601.56" rx="3.31" ry="3.02"/>
		<ellipse class="st5" cx="2068.83" cy="612.43" rx="2.05" ry="1.69"/>
		
			<ellipse transform="matrix(0.8059 -0.5921 0.5921 0.8059 33.2731 1344.2836)" class="st5" cx="2066.69" cy="621.4" rx="2.11" ry="1.97"/>
		<ellipse class="st5" cx="2072.51" cy="606.65" rx="1.84" ry="1.52"/>
	</g>
</g>
<path class="st37" d="M1607.15,771.61c16.92-64.4,88.13-173.39,88.13-173.39l47.23-14.91c0,0-25.49,24.66-44.76,56.76
	c-12.28,20.47-49.39,106.16-66.59,146.27c-0.43,1-24.15-13.37-24.15-13.37"/>
<g class="st62">
	<path class="st63" d="M2115.68,503.96c-3.04,12.5-30.97,34.63-53.96,37.53c-9.65,1.22-13.7-10.18-22.28-12.26
		c-29.03-7.05-33.99-35.48-29.68-53.23s34.95-25.87,63.98-18.83C2102.76,464.22,2119.99,486.21,2115.68,503.96z"/>
	<g class="st65">
		<path class="st0" d="M2012.7,479.14c3.21-6.41-3.72,2.91-2.53-4.17c3.59-21.3,22.57-43.55,30.26-63.74c0.76-2,1.91-4.08,3.9-4.87
			c3.55-1.42,8.48,1.35,9.26,5.09c5.09,24.41-6.98,31.31-10.16,51.96c-1.49,9.68-6.47,12.06-15.79,15.07
			c-4.18,1.35-10-0.11-10.67-4.45"/>
	</g>
	<path class="st63" d="M2044.32,461.49c0,0,17.39-20.47,29.69-41.17c11.59-19.51,16.46-42.32,21.15-44.44
		c21.24-9.58,16.06,23.72,1.81,52.15c-10.6,21.13-21.13,39.4-21.13,39.4L2044.32,461.49z"/>
	<path class="st63" d="M2060.41,467.53c0,0,15.07-19.75,27.37-40.45c11.59-19.51,20.79-47.84,25.48-49.96
		c21.24-9.58,14.05,28.52-0.21,56.95c-10.6,21.13-21.12,39.4-21.12,39.4L2060.41,467.53z"/>
	<path class="st63" d="M2076.13,478.63c0,0,15.08-19.75,27.37-40.45c11.59-19.51,21.3-53.63,25.99-55.75
		c21.24-9.58,13.54,34.31-0.72,62.74c-10.6,21.13-21.13,39.4-21.13,39.4L2076.13,478.63z"/>
	<path class="st63" d="M2083.64,500.58c0,0,15.07-19.75,27.37-40.45c11.59-19.51,26.58-54.67,31.27-56.79
		c21.24-9.58,8.26,35.35-5.99,63.78c-10.6,21.13-21.12,39.4-21.12,39.4L2083.64,500.58z"/>
	<path class="st64" d="M2107.44,385.66l-39.07,73.75c0,0,13.06-14.46,22.42-30.9C2095.22,420.75,2107.44,385.66,2107.44,385.66z"/>
	<path class="st64" d="M2126.17,390.65l-39.07,73.75c0,0,13.06-14.46,22.42-30.9C2113.95,425.74,2126.17,390.65,2126.17,390.65z"/>
	<path class="st64" d="M2142.81,402.71l-39.07,73.75c0,0,13.06-14.46,22.42-30.9C2130.59,437.8,2142.81,402.71,2142.81,402.71z"/>
	<path class="st64" d="M2029.82,480.67c0,0,24.67-7.28,49.51,1.53c24.83,8.81,18.26,6.79,18.26,6.79s-10.09-14.87-31.2-17.85
		C2045.28,468.16,2029.82,480.67,2029.82,480.67z"/>
</g>
<g id="Ebene_53">
	<g>
		<path class="st0" d="M1957.79,631.74l-56.35,17.02c-6.18,0.49-9.99-11.96-10.38-19.6l0,0c-0.4-7.64,3.56-30.94,62.44-21.75
			l19.18,5.37c0.81,0,0.46-0.55,0.86,7.08l0,0C1973.94,627.5,1963.98,631.25,1957.79,631.74z"/>
		<path class="st0" d="M1956.18,646.87l-56.35,17.02c-6.18,0.49-9.99-11.96-10.38-19.6l0,0c-0.4-7.64,3.56-30.94,62.44-21.75
			l20.85,0.6c6.18-0.49-1.2,4.22-0.81,11.86l0,0C1972.32,642.63,1962.36,646.38,1956.18,646.87z"/>
		<path class="st0" d="M1960.22,668.61l-56.35,17.02c-6.18,0.49-9.99-11.96-10.38-19.6l0,0c-0.4-7.64,3.56-30.94,62.44-21.75
			l20.85,0.6c6.18-0.49-1.2,4.22-0.81,11.86l0,0C1976.37,664.37,1966.41,668.12,1960.22,668.61z"/>
		<path class="st0" d="M1966.05,690.35l-49.44,19.59c-6.18,0.49-16.9-14.53-17.3-22.17l0,0c-0.4-7.64,3.56-30.94,62.44-21.75
			l20.85,0.6c6.18-0.49-1.2,4.22-0.81,11.86l0,0C1982.2,686.11,1972.24,689.86,1966.05,690.35z"/>
		<path class="st0" d="M1944.19,610c0,0,27.23-6.18,30.16,1.6c1.25,3.32,11.14,16.02,14.78,34.64c2.62,13.41-3.92,30.3-2.15,41.26
			c1.54,9.51,2.42,16.47,2.08,18.04c-1.27,5.9-18.08,42.19-28.78,38.56c-10.7-3.63-51.35-13.1-48.37-47.43
			C1914.89,662.35,1944.19,610,1944.19,610z"/>
	</g>
	<path class="st0" d="M1944.99,629.6c0,0,0.67-9.06,0.25-26.25c-0.4-16.03,7.14-43.86,12.33-50.88c5.2-7.02,17.33-11.18,18.99,4.13
		c1.66,15.31-6.15,74.78-6.15,74.78l-24.87-1.68"/>
	<polygon class="st5" points="1945.31,606.35 1973.06,609.47 1974.35,597.8 	"/>
	<path class="st5" d="M1892.18,633.52c0,0,29.64-19.57,49.29-12.34c19.65,7.23,21.94,7.98,21.94,7.98s-24.83-8.22-34.24-6.3
		C1919.75,624.77,1892.18,633.52,1892.18,633.52z"/>
	<path class="st5" d="M1894.09,659.92c0,0,26.38-14.16,40.59-14.22c9.56-0.04,18.07,6.24,18.07,6.24s-12.26-4.6-21.67-2.69
		C1921.66,651.17,1894.09,659.92,1894.09,659.92z"/>
	<path class="st5" d="M1899.56,683.7c0,0,28.74-15.58,39.73-14.61c6.31,0.55,16.79,6.93,16.79,6.93s-11.61-5.61-21.03-3.69
		C1925.64,674.24,1899.56,683.7,1899.56,683.7z"/>
	<polygon class="st5" points="1912.77,708.74 1939.28,706.15 1939.28,708.74 	"/>
</g>
<path class="st5" d="M2055.02,834.92c0.08,0.19,0.42,0.83,0.96,1.87c5.48,10.49,31.93,60.82,29.6,74.32
	c-2.57,14.84,8.54-29.91-4.6-49.79S2055.02,834.92,2055.02,834.92z"/>
<path class="st5" d="M2047.73,819.16l4.46,9.6c3.01-1.91,44.29-24.66,44.14-25.66c-0.15-1-2.16-13.32-2.16-13.32L2047.73,819.16z"/>
</svg>
