<?xml version="1.0" encoding="utf-8"?>
<!-- Generator: Adobe Illustrator 25.4.0, SVG Export Plug-In . SVG Version: 6.00 Build 0)  -->
<svg version="1.1" id="Fragend" xmlns="http://www.w3.org/2000/svg" xmlns:xlink="http://www.w3.org/1999/xlink" x="0px" y="0px"
	 viewBox="0 0 3840 2160" style="enable-background:new 0 0 3840 2160;" xml:space="preserve">
<style type="text/css">
	.st0{fill:#FFB699;}
	.st1{fill:#54A465;}
	.st2{fill:#FFF8C5;}
	.st3{fill:none;stroke:#2E753B;stroke-miterlimit:10;}
	.st4{fill:#76C484;}
	.st5{fill:#F99A79;}
	.st6{fill:#449353;}
	.st7{fill:none;stroke:#FFF8C5;stroke-width:2;stroke-miterlimit:10;}
	.st8{fill:#FFF8C5;stroke:#002A2B;stroke-miterlimit:10;}
	.st9{fill:none;stroke:#22722F;stroke-miterlimit:10;}
	.st10{fill:#CCF6E6;}
	.st11{fill:none;stroke:#002A2B;stroke-width:4;stroke-miterlimit:10;}
	.st12{display:none;}
	.st13{display:inline;fill:#995B34;}
	.st14{display:inline;fill:#633318;}
	.st15{display:inline;}
	.st16{fill:#AA6944;}
	.st17{fill:#995B34;}
	.st18{fill:#633318;}
	.st19{display:inline;fill:#FFB699;}
	.st20{display:inline;fill:#F99A79;}
	.st21{display:inline;fill:#FFCAB8;}
	.st22{display:inline;fill:#D86C45;}
	.st23{fill:#D86C45;}
	.st24{fill:#FFCAB8;}
	.st25{fill:#FFFFFF;}
	.st26{fill:url(#SVGID_1_);}
	.st27{fill:#16100B;}
	.st28{fill:url(#SVGID_00000011023675108565662690000016050048744619082662_);}
	.st29{display:inline;fill:#FCD2CA;}
	.st30{display:inline;fill:url(#SVGID_00000107572306564749470060000006332111031168771753_);}
	.st31{display:inline;fill:url(#SVGID_00000173121663154674840230000002490583549578664837_);}
	.st32{fill:#841A06;}
	.st33{fill:#D64B2B;}
	.st34{fill:#FFAF9C;}
	.st35{fill:#894A27;}
	.st36{opacity:0.72;fill:#F99A79;}
	.st37{opacity:0.72;fill:#E27F64;}
	.st38{opacity:0.33;fill:#F98869;}
	.st39{fill:#FCD2CA;}
	.st40{fill:url(#SVGID_00000085934940431570394770000005960254137849540520_);}
	.st41{fill:url(#SVGID_00000092445751828183375000000014651303868699933583_);}
	.st42{fill:url(#SVGID_00000165955780656033378820000001183736991495603885_);}
	.st43{fill:url(#SVGID_00000070827817445021543450000015307472692666000795_);}
	.st44{fill:none;stroke:#841A06;stroke-width:0.25;stroke-miterlimit:10;}
	.st45{fill:#D88C66;}
	.st46{fill:none;stroke:#995B34;stroke-miterlimit:10;}
	.st47{fill:none;stroke:#C9563F;stroke-width:0.5;stroke-miterlimit:10;}
	.st48{fill:none;stroke:#E58065;stroke-width:0.5;stroke-miterlimit:10;}
	.st49{fill:#F0FFF9;}
	.st50{fill:#545454;}
	.st51{fill:#3F3F3F;}
	.st52{fill:#28564D;}
	.st53{opacity:0.41;fill:#28564D;}
	.st54{fill:#002A2B;}
	.st55{fill:none;stroke:#CCF6E6;stroke-miterlimit:10;}
	.st56{opacity:0.41;}
	.st57{fill:#336B61;stroke:#002A2B;stroke-miterlimit:10;}
	.st58{fill:none;stroke:#002A2B;stroke-width:2;stroke-miterlimit:10;}
	.st59{opacity:0.31;}
	.st60{fill:none;stroke:#006A58;stroke-width:0.25;stroke-miterlimit:10;}
	.st61{fill:#EAE0A4;}
	.st62{fill:#97D1B8;}
	.st63{opacity:0.44;fill:#C3EDDC;}
	.st64{fill:#EAE1AC;}
	.st65{opacity:0.31;fill:#002A2B;}
	.st66{opacity:0.44;}
	.st67{fill:#C3EDDC;}
	.st68{opacity:0.45;}
	.st69{display:none;opacity:0.45;}
	.st70{display:inline;fill:#F0FFF9;}
	.st71{fill:none;stroke:#64D250;stroke-width:16;stroke-miterlimit:10;}
	.st72{fill:none;stroke:#64D250;stroke-width:12;stroke-miterlimit:10;}
	.st73{fill:#A5EA96;}
</style>
<g id="Füsse_Kopie_Kopie">
	<g>
		<g>
			<polygon class="st0" points="1751.11,1864.59 1760.5,1959.56 1819.03,1965.63 1825.1,1840.85 			"/>
			<path class="st1" d="M1749.6,1913.73c0,0,0.62,33.13-12.03,52.16c-4.87,7.33-13.09,13.77-20.67,18.69
				c-1.47,0.96-2.95,1.83-4.44,2.59c-19.33,9.94-66.81,35.89-78.96,50.25c-12.15,14.36-13.25,26.5-13.25,26.5l-6.63,2.21l10.08,9.11
				c0,0,10.77,13.39,50.52,2.9c39.76-10.49,151.98-74.68,151.98-74.68l0.21-93.45l-4.97-0.21c0,0-9.59,8.35-34.99,7.25
				c-25.4-1.1-31.68-8.49-31.68-8.49L1749.6,1913.73z"/>
			<path class="st2" d="M1620.25,2063.92l-6.63,2.21l7.18,11.6c0,0,16.15,11.32,55.91,0.83c39.76-10.49,148.67-62.95,148.67-62.95
				l1.66-13.25l-25.68,14.08c0,0-45.55,19.88-71.64,29.4C1643.08,2077.47,1620.25,2063.92,1620.25,2063.92z"/>
			<path class="st3" d="M1826.48,1987.72"/>
			<g>
				<path class="st4" d="M1626.42,2058.91c1.07-11.26,8.18-21.76,18.23-26.94c1.14-0.59,2.92-0.9,3.39,0.3
					c0.3,0.78-0.25,1.6-0.77,2.25c-6.14,7.7-12.28,15.4-18.43,23.09c-0.5,0.62-1.32,1.31-1.99,0.87"/>
			</g>
			<path class="st5" d="M1751.67,1873.42l0.83,10.49c0,0,29.4,10.08,49.28,7.87c14.44-1.6,20.71-7.04,20.71-7.04l2.07-22.91
				l-72.89,6.63V1873.42"/>
		</g>
		<path class="st6" d="M1824.97,1925.74c0,0-1.66,53.84-17.39,64.6c-15.74,10.77-130.03,70.81-130.03,70.81
			s66.67-15.74,103.94-35.61c31.82-16.97,44.73-22.09,44.73-22.09L1824.97,1925.74z"/>
		<path class="st7" d="M1711.91,1984.96c28.57-12.01,46.59,16.36,46.59,16.36"/>
		<path class="st7" d="M1688.72,1997.8c28.57-12.01,46.59,16.36,46.59,16.36"/>
		<path class="st7" d="M1662.22,2013.53c28.57-12.01,46.59,16.36,46.59,16.36"/>
		<ellipse class="st8" cx="1806.21" cy="1948.13" rx="12.23" ry="17.56"/>
		<path class="st9" d="M1755.81,1911.52c0,0-0.28-1.1-3.04,8.28c-2.76,9.39-2.25,32.24,2.76,39.48c4.97,7.18,13.94,4.97,13.94,4.97"
			/>
		<path class="st10" d="M1755.08,1908.97c0,0,14.91,13.77,41.93,10.04c14.13-1.95,24.43-9.21,24.43-9.21l1.24-20.71
			c0,0-8.64,6.8-32.92,6.69c-24.02-0.1-36.24-5.66-36.24-5.66L1755.08,1908.97z"/>
		<ellipse class="st1" cx="1775.06" cy="1926.15" rx="21.74" ry="28.99"/>
		<path class="st6" d="M1794.32,1915.39c0,0-17.81,12.01-19.46,28.99c-1.66,16.98-5.38,19.88-5.38,19.88s9.11,1.66,18.64-19.88
			S1794.32,1915.39,1794.32,1915.39z"/>
		<path class="st11" d="M1750.29,1889.16c0,0,11.32,4.69,33.13,5.52c21.81,0.83,33.68-4.14,41.69-8.83"/>
	</g>
	<g>
		<g>
			<polygon class="st0" points="2056.63,1865.21 2059.53,1960.6 2002.26,1974.15 1980.2,1851.18 			"/>
			<path class="st1" d="M2064.45,1913.75c0,0,3.64,32.93,18.63,50.18c5.77,6.64,14.76,11.97,22.9,15.87c1.58,0.76,3.16,1.43,4.73,2
				c20.44,7.37,70.87,27,84.76,39.68c13.89,12.68,16.55,24.58,16.55,24.58l6.85,1.34l-8.82,10.33c0,0-8.96,14.66-49.73,9.37
				c-40.77-5.29-160.32-54.52-160.32-54.52l-12.22-92.65l4.9-0.84c0,0,10.59,7.05,35.63,2.69c25.05-4.36,30.33-12.49,30.33-12.49
				L2064.45,1913.75z"/>
			<path class="st2" d="M2212.02,2046.07l6.85,1.34l-5.63,12.42c0,0-14.56,13.3-55.34,8.01c-40.77-5.29-155.53-43.31-155.53-43.31
				l-3.35-12.93l27.27,10.66c0,0,47.73,13.86,74.83,19.95C2191.13,2062.44,2212.02,2046.07,2212.02,2046.07z"/>
			<path class="st3" d="M1997.71,1997.01"/>
			<g>
				<path class="st4" d="M2205.26,2041.89c-2.51-11.03-10.91-20.53-21.54-24.37c-1.21-0.44-3.01-0.52-3.32,0.73
					c-0.2,0.81,0.45,1.56,1.05,2.14c7.08,6.84,14.16,13.69,21.24,20.53c0.57,0.56,1.48,1.13,2.08,0.61"/>
			</g>
			<path class="st5" d="M2057.21,1874.04l0.53,10.51c0,0-27.86,13.77-47.86,14.14c-14.52,0.27-21.44-4.32-21.44-4.32l-5-22.46
				l73.13-2.8L2057.21,1874.04"/>
		</g>
		<path class="st6" d="M1991.25,1935.35c0,0,8.56,53.18,25.55,61.83c16.99,8.66,138.06,53.51,138.06,53.51s-68.14-7.04-107.66-21.96
			c-33.74-12.74-47.19-16.15-47.19-16.15L1991.25,1935.35z"/>
		<path class="st7" d="M2110.98,1979.54c-29.88-8.24-44.1,22.21-44.1,22.21"/>
		<path class="st7" d="M2135.63,1989.29c-29.88-8.24-44.1,22.21-44.1,22.21"/>
		<path class="st7" d="M2163.93,2001.49c-29.88-8.24-44.1,22.21-44.1,22.21"/>
		
			<ellipse transform="matrix(0.9917 -0.1285 0.1285 0.9917 -234.6192 274.9375)" class="st8" cx="2012.72" cy="1955.14" rx="12.23" ry="17.56"/>
		<path class="st9" d="M2058,1912.36c0,0,0.13-1.13,4.08,7.82c3.94,8.95,6.38,31.68,2.34,39.51c-4.01,7.76-13.19,6.72-13.19,6.72"/>
		<path class="st10" d="M2058.4,1909.73c0,0-13.01,15.57-40.29,15.35c-14.27-0.12-25.41-6-25.41-6l-3.89-20.37
			c0,0,9.44,5.63,33.51,2.41c23.81-3.19,35.21-10.27,35.21-10.27L2058.4,1909.73z"/>
		
			<ellipse transform="matrix(0.9917 -0.1285 0.1285 0.9917 -231.0705 278.3312)" class="st1" cx="2040.79" cy="1929.35" rx="21.74" ry="28.99"/>
		<path class="st6" d="M2020.31,1921.14c0,0,19.2,9.62,23.03,26.25s7.89,19.02,7.89,19.02s-8.82,2.81-21.04-17.32
			C2017.98,1928.96,2020.31,1921.14,2020.31,1921.14z"/>
		<path class="st11" d="M2060.61,1889.47c0,0-10.62,6.11-32.15,9.73c-21.52,3.62-33.93,0.22-42.48-3.4"/>
	</g>
</g>
<g id="Haarehinten_3_" class="st12">
	<path class="st13" d="M2852.88,983.76l3.77,22.87c27.37-7.92,32.82-16.19,32.82-16.19s-9.47-58.13-7.68-80.64
		c11.49-144.26,11.15-167.1,4.65-216.46c-7.16-54.42-22.64-82.89-60.83-106.91c-51.77-32.56-82.06-35.91-192.86-32.29
		c-95.47,3.12-141.72,73.71-161.48,118.85c-9.88,22.57-8.49,64.59-8.89,157.16c-0.4,92.58-14.2,149.9-14.2,149.9
		s18.07,5.53,61.6,14.25l5.3-56.05l-5.45,46.29c8.99,2.04,21.07-16.23,31.69-13.21c117.09,33.33,165.12-34.75,228.2-46.66
		l31.61,4.54l15.67,81.78c8.2-1.83,29.94-1.31,36.76-3.21L2852.88,983.76z"/>
	<path class="st14" d="M2820.82,874.01c0,0,17.93-18.7,23.17,5.39c7.4,33.98,7.17,95.03,7.17,95.03l2.4,33.36
		c0,0-34.81,4.33-36.76,3.21c-1.95-1.12-7.03-40.34-7.03-40.34l-11.53-66.44L2820.82,874.01z"/>
	<path class="st14" d="M2744.04,878.9c-40.27-119.17,10.44-36.68-76.2-39.37c-106.43-3.3-136.12-47.24-136.12-47.24l-23.6,201.93
		c25.04,2.98,44.59,3.61,55.6,4.44c110.4,8.33,125.72,10.23,188.06,11.21C2752.16,1009.87,2755.12,911.69,2744.04,878.9z"/>
	<polygon class="st14" points="2747.28,966.65 2754.44,1010.35 2811.46,1010.68 2813.13,862.15 	"/>
	<g class="st15">
		<g>
			<g>
				<path class="st16" d="M2532.76,886.18c-2.37,27.84-4.21,55.73-5.91,83.62c-0.51,8.4-1.01,16.8-1.5,25.2
					c-0.03,0.48,0.72,0.48,0.75,0c1.68-28.64,3.4-57.28,5.57-85.89c0.58-7.64,1.19-15.29,1.84-22.93
					C2533.55,885.7,2532.8,885.7,2532.76,886.18L2532.76,886.18z"/>
			</g>
		</g>
		<g>
			<g>
				<path class="st16" d="M2549.2,919.65c-2.39,19.31-2.58,38.78-3.24,58.2c-0.22,6.31-0.48,12.63-0.82,18.94
					c-0.03,0.48,0.72,0.48,0.75,0c1.1-20.39,1.09-40.83,2.53-61.2c0.38-5.33,0.88-10.64,1.53-15.94
					C2550.01,919.17,2549.26,919.18,2549.2,919.65L2549.2,919.65z"/>
			</g>
		</g>
		<g>
			<g>
				<path class="st16" d="M2786.07,928.5c-0.36,0-0.09-0.14-0.1,0.19c-0.01,0.22,0.08,0.49,0.1,0.72c0.07,0.66,0.09,1.33,0.11,1.99
					c0.05,1.61,0.05,3.22,0.03,4.84c-0.04,3.69-0.09,7.37-0.1,11.06c-0.06,13.03-0.11,26.06-0.17,39.09
					c-0.03,7.39-0.06,14.77-0.09,22.16c0,0.48,0.75,0.48,0.75,0c0.1-24.39,0.21-48.79,0.37-73.18c0.01-1.81,0.02-3.63-0.11-5.44
					c-0.04-0.49,0.02-2.19-0.79-2.19C2785.58,927.75,2785.58,928.5,2786.07,928.5L2786.07,928.5z"/>
			</g>
		</g>
		<g>
			<g>
				<path class="st16" d="M2791.14,928.28c0.19,21.3,0.94,42.59,2.26,63.85c0.37,6.04,0.79,12.07,1.26,18.11
					c0.04,0.48,0.79,0.48,0.75,0c-1.63-21.24-2.71-42.52-3.22-63.81c-0.14-6.05-0.24-12.1-0.3-18.15
					C2791.88,927.8,2791.13,927.8,2791.14,928.28L2791.14,928.28z"/>
			</g>
		</g>
	</g>
</g>
<g id="Haarehinten_6_">
	<path class="st17" d="M1971.42,509.92l-0.02,24.35c10.17-0.07,35.38-54.8,37.96-80.81c11.78-118.71,13.25-139.2,7.76-179.87
		c-6.05-44.84-18.89-68.26-50.43-87.95c-42.76-26.7-67.74-29.38-159.07-26.09c-78.68,2.83-116.61,61.15-132.78,98.41
		c-8.08,18.63-6.82,53.26-6.9,129.57c-0.08,76.31,9.25,91.07,9.25,91.07s16.36,46.33,44.71,46.26l3.47-0.03l7.84-2.01
		c7.42,1.65-8.58-21.59,0.18-19.13c96.61,27.15,136.01-29.1,187.97-39.09l26.07,3.65l13.14,67.36c6.75-1.53-0.31,0.19,5.3-1.39
		L1971.42,509.92z"/>
	<path class="st18" d="M1963.52,422.7c0,0,4.94-14.1,9.33,5.74c6.19,27.99-17.05,107.27-17.05,107.27s-8.5,1.08-10.11,0.17
		c-1.61-0.92,8.99-33.47,8.99-33.47l-9.69-54.73L1963.52,422.7z"/>
	<path class="st18" d="M1900.24,426.94c-33.52-98.12,8.5-30.26-62.92-32.24c-87.74-2.43-86.41-83.87-120.07-45.65
		c-33.66,38.22,5.92,177.74,5.92,177.74c20.65,2.39,48.6,10.63,57.68,11.29c91.02,6.56,62.16,5.16,113.55,5.79
		C1894.72,543.88,1909.47,453.94,1900.24,426.94z"/>
	<polygon class="st18" points="1903.15,499.27 1897.77,542.52 1956.18,535.38 1957.15,412.95 	"/>
	<g>
		<g>
			<g>
				<path class="st16" d="M1726.04,433.52c-1.87,22.93-3.32,45.89-4.63,68.86c-0.4,6.95-0.79,13.91-1.17,20.86
					c-0.03,0.48,0.72,0.48,0.75,0c1.31-23.59,2.64-47.18,4.35-70.74c0.46-6.33,0.94-12.66,1.46-18.98
					C1726.83,433.04,1726.08,433.04,1726.04,433.52L1726.04,433.52z"/>
			</g>
		</g>
		<g>
			<g>
				<path class="st16" d="M1739.68,461.07c-1.91,15.91-2.02,31.95-2.51,47.95c-0.16,5.22-0.36,10.43-0.63,15.64
					c-0.02,0.48,0.73,0.48,0.75,0c0.85-16.8,0.79-33.64,1.92-50.42c0.3-4.4,0.7-8.79,1.22-13.17
					C1740.49,460.59,1739.74,460.59,1739.68,461.07L1739.68,461.07z"/>
			</g>
		</g>
		<g>
			<g>
				<path class="st16" d="M1935.02,467.78c-0.36-0.01-0.09-0.06-0.11,0.29c-0.02,0.24,0.06,0.52,0.08,0.75
					c0.06,0.68,0.07,1.37,0.09,2.06c0.03,1.57,0.02,3.13,0,4.7c-0.06,3.82-0.16,7.62-0.49,11.43c-0.96,11.1-3.02,22.07-4.43,33.11
					c-0.76,5.92-1.34,11.87-1.36,17.83c0,0.48,0.75,0.48,0.75,0c0.04-11.67,2.11-23.23,3.79-34.74c1.38-9.45,2.39-18.84,2.5-28.39
					c0.02-1.84,0.04-3.68-0.07-5.52c-0.03-0.51,0.07-2.24-0.75-2.27C1934.54,467.01,1934.54,467.76,1935.02,467.78L1935.02,467.78z"
					/>
			</g>
		</g>
		<g>
			<g>
				<path class="st16" d="M1939.14,467.52c0.19,18.56-3.62,36.86-4.47,55.36c-0.23,5.07-0.24,10.16,0.16,15.23
					c0.04,0.48,0.79,0.48,0.75,0c-1.44-18.51,2.17-36.95,3.69-55.33c0.42-5.08,0.68-10.17,0.63-15.26
					C1939.88,467.03,1939.13,467.03,1939.14,467.52L1939.14,467.52z"/>
			</g>
		</g>
	</g>
</g>
<g id="Arm_x5F_R_3_" class="st12">
	<path class="st19" d="M2398.94,1282.97c0,0-33.49,139.16-44.88,182.7c-5.77,22.07-73.01,226.75-76.36,230.09
		c-3.35,3.35,42.2,12.56,56.94,1.84s79.33-157.73,101.82-196.94c26.12-45.55,69.83-190.24,69.83-190.24"/>
	<path class="st20" d="M2388.3,1339.03c0,0,35.25,57.82,83.82,67.53l3.01,1l8.71-25.79l-86.08-53.25L2388.3,1339.03z"/>
	<polygon class="st21" points="2393.75,1314.45 2409.82,1323.5 2306.33,1626.94 	"/>
	<path class="st20" d="M2451.86,1361.01c0,0-130.45,366.07-127.77,364.07c1.65-1.24,68.89-129.35,115.72-230.93
		c29.32-63.61,48.47-118.51,45.22-120.07C2473.46,1368.54,2451.86,1361.01,2451.86,1361.01z"/>
	<g class="st15">
		<circle class="st5" cx="2303.32" cy="1650.72" r="2.68"/>
		<ellipse class="st5" cx="2306.5" cy="1662.27" rx="2.18" ry="2.51"/>
		<ellipse class="st5" cx="2308.34" cy="1642.68" rx="1.67" ry="2.01"/>
	</g>
</g>
<g id="Arm_x5F_L_x5F_oben_8_">
	<path class="st0" d="M2085.38,749.03c0,0,8.2,27.14,20.83,64.18c0.07,0.21-9.19-247.73-7.58-251.29
		c10.35-22.82,29.9-22.07,49.67,15.15c7.05,13.27,54.71,339.12-13.68,324.42c-36.65-7.87-130.09-109.99-130.09-109.99"/>
	<path class="st5" d="M2099.47,793c0,0,17.47,48.56-34.73,67.77l-15.78-11.58l-23.04-22.48l61.45-60.61L2099.47,793z"/>
	<polygon class="st5" points="2021.92,822.89 2034.86,835.52 2099.9,792.58 2092.95,774.27 	"/>
	<path class="st5" d="M2055.7,848.35l25.26-12.42c0,0,19.6,22.86,59.14,35.57c41.25,13.26,28.83-135.33,28.83-135.33l10.61,121.32
		c0,0,0.97,50.84-41.34,45.16c-15.83-2.13-69.87-32.62-91.76-56.19"/>
	<g>
		<ellipse class="st5" cx="2139.73" cy="642.67" rx="3.31" ry="3.73"/>
		<circle class="st5" cx="2147.6" cy="654.68" r="2.07"/>
		<ellipse class="st5" cx="2147.6" cy="665.86" rx="2.07" ry="2.48"/>
		<circle class="st5" cx="2149.88" cy="647.02" r="1.86"/>
	</g>
</g>
<g id="Arm_x5F_L_x5F_oben_3_">
	<path class="st0" d="M1616.63,767.97c0,0-8.2,27.14-20.83,64.18c-0.07,0.21,9.19-247.73,7.58-251.29
		c-10.35-22.82-29.9-22.07-49.67,15.15c-7.05,13.27-54.71,339.12,13.68,324.42c36.65-7.87,130.09-109.99,130.09-109.99"/>
	<path class="st5" d="M1602.54,811.94c0,0-17.47,48.56,34.73,67.77l15.78-11.58l23.04-22.48l-61.45-60.61L1602.54,811.94z"/>
	<polygon class="st5" points="1684.87,840.57 1668.87,851.93 1603.63,808.58 1610.37,792.16 	"/>
	<path class="st5" d="M1646.31,867.3l-25.26-12.42c0,0-19.6,22.86-59.14,35.57c-41.25,13.26-28.83-135.33-28.83-135.33l-8.19,118.97
		c0,0-3.39,53.19,38.91,47.5c15.83-2.13,69.87-32.62,91.76-56.19"/>
	<g>
		<ellipse class="st5" cx="1562.28" cy="661.61" rx="3.31" ry="3.73"/>
		<circle class="st5" cx="1554.41" cy="673.62" r="2.07"/>
		<ellipse class="st5" cx="1554.41" cy="684.8" rx="2.07" ry="2.48"/>
		<circle class="st5" cx="1552.14" cy="665.96" r="1.86"/>
	</g>
</g>
<g id="Arm_x5F_L_x5F_oben_2_" class="st12">
	<path class="st19" d="M2403.67,1289.76c0,0-23.12,53.18-54.95,85.01c-0.19,0.19-103.94-288.28-105.89-292.6
		c-12.56-27.68-18.37-28.82-42.35,16.34c-8.55,16.09,60.49,394.04,143.46,376.21c44.46-9.55,157.82-133.43,157.82-133.43"/>
	<path class="st20" d="M2385.93,1337.54c0,0-20.55,64.48,42.77,87.78l19.15-14.04l27.95-27.27l-74.55-73.53L2385.93,1337.54z"/>
	<polygon class="st22" points="2482.85,1378.34 2467.79,1391.88 2380.44,1332.64 2389.64,1318.86 	"/>
	<path class="st20" d="M2439.68,1410.26l-30.64-15.06c0,0-23.78,27.73-71.74,43.15c-50.04,16.09-106.47-165.96-106.47-165.96
		l19.4,69.7c0,0,38.04,140.94,89.36,134.04c19.2-2.58,84.77-39.57,111.32-68.17"/>
	<g class="st15">
		<ellipse class="st5" cx="2243.52" cy="1189.84" rx="4.02" ry="4.52"/>
		<circle class="st5" cx="2233.98" cy="1204.41" r="2.51"/>
		<ellipse class="st5" cx="2233.98" cy="1217.97" rx="2.51" ry="3.01"/>
		<circle class="st5" cx="2231.22" cy="1195.11" r="2.26"/>
	</g>
</g>
<g id="Hals_5_">
	<path id="Hals_6_" class="st0" d="M1789.35,495.57l-1.24,66.88c0,0-45.28,10.08-62.39,18.91c-27.82,14.36,187.46,112.36,229.7,63.5
		c25.29-29.26,2.86-54.56-26.92-66.26c-11.6-4.56-46.17-13.87-46.17-13.87l-3.31-90.07L1789.35,495.57z"/>
	<path class="st23" d="M1788.94,499.92v19.88c0,0,43.69,36.86,92.35,15.53l-0.41-44.52L1788.94,499.92z"/>
	<path class="st24" d="M1791.42,524.77l-1.38,41.14c0,0,10.49-0.55,8.83-15.74S1791.42,524.77,1791.42,524.77z"/>
	<path class="st5" d="M1881.42,554.03c0,0-18.5,33.68-54.94,45.83c-3.7,1.23-38.1,0-38.1,0l23.47,2.76c0,0,20.98,7.18,21.81,7.18
		c0.83,0,12.98,0.28,12.98,0.28l36.44-48.87L1881.42,554.03"/>
</g>
<g id="KOPFPBEN_Kopie_3_Kopie_Kopie_Kopie_Kopie">
	<g id="Kopf_5_">
		<path id="Kopf_6_" class="st0" d="M1709.8,242.97c0,0,6.28,135.46,12.19,174.79c6.86,45.62,55.32,107.39,117.02,111.56
			c49.07,3.32,112.4-66.18,123.15-97.05c9.48-27.24,7.71-82.77,6.05-125.18c-1.05-26.96-33.02-63.05-62.33-94
			c-16.77-17.7-43.84-20.73-64.08-7.14L1709.8,242.97z"/>
		<path class="st23" d="M1871.23,208.67c0,0-83.82,94.64-136.07,103.74c-52.25,9.1-18.7,7.61-18.7,7.61l4.57-44.95L1871.23,208.67z"
			/>
	</g>
	<g id="Augen_Kopie_3_Kopie_Kopie_Kopie_Kopie" class="st12">
		<g class="st15">
			<g>
				<path class="st25" d="M2716.47,780.82c0,0,15.27-30.47,34.36-29.5c19.09,0.97,26.9,11.29,35.3,28.69c0,0-7.46,16.31-28.56,17.03
					C2729.46,797.99,2716.47,780.82,2716.47,780.82z"/>
				
					<linearGradient id="SVGID_1_" gradientUnits="userSpaceOnUse" x1="2753.4434" y1="1120.0612" x2="2753.136" y2="1089.4626" gradientTransform="matrix(1 -1.998511e-03 1.998511e-03 1 8.7535 -316.6049)">
					<stop  offset="0" style="stop-color:#008CB2"/>
					<stop  offset="0.2227" style="stop-color:#0188AD"/>
					<stop  offset="0.5014" style="stop-color:#047B9D"/>
					<stop  offset="0.8087" style="stop-color:#086684"/>
					<stop  offset="1" style="stop-color:#0B5570"/>
				</linearGradient>
				<path class="st26" d="M2785.82,774.9c1.84,2.3,2.63-0.3,1.67,2.3c-3.31,9.04-13.64,18.59-23.66,18.61
					c-12.91,0.03-23.4-10.62-23.43-23.78c-0.01-5.43,1.63-9.77,4.47-12.99c4.04-4.59,6.48-6.91,14.06-6.93
					C2771.85,752.09,2778.02,765.18,2785.82,774.9z"/>
				
					<ellipse transform="matrix(1 -1.998511e-03 1.998511e-03 1 -1.5355 5.5241)" class="st27" cx="2763.34" cy="771.1" rx="9.55" ry="9.8"/>
				<g>
					<path d="M2714.6,778.2c3.3-6.99,7.6-13.44,12.71-19.05c5.95-6.54,13.44-12.12,21.95-12.93c7.11-0.68,14.19,2.07,20.28,6.04
						c6.09,3.98,16.14,18.12,18.59,18.98c0,0,4.94,0.29,6.95-1.44c-2.47,3.39-5.51,8.02-9.02,10.12
						c-5.35-7.16-4.54-7.68-12.68-15.97c-6-6.11-13.98-11.75-22.55-11.21c-9.3,0.58-17.38,7.13-23,15.06
						c-5.01,7.07-9.6,14.59-9.85,15.3"/>
				</g>
				<path class="st25" d="M2757.5,774.67l-15.58,9.04c-1.09,0.63-2.51,0.26-3.14-0.83l-0.72-1.24c-0.63-1.09-0.26-2.51,0.83-3.14
					l15.58-9.04c1.09-0.63,2.51-0.26,3.14,0.83l0.72,1.24C2758.97,772.62,2758.59,774.03,2757.5,774.67z"/>
			</g>
			<g>
				<path class="st25" d="M2623.58,779.84c0,0-16.76-30.08-35.85-29.04c-19.09,1.04-25.48,11.08-33.81,28.51
					c0,0,9.73,15.71,30.83,16.34C2612.87,796.48,2623.58,779.84,2623.58,779.84z"/>
				
					<linearGradient id="SVGID_00000132047568878208866910000007029397337770543006_" gradientUnits="userSpaceOnUse" x1="604.0917" y1="1118.0884" x2="603.7979" y2="1088.8588" gradientTransform="matrix(-1 1.998511e-03 1.998511e-03 1 3201.7942 -322.9863)">
					<stop  offset="0" style="stop-color:#008CB2"/>
					<stop  offset="0.2227" style="stop-color:#0188AD"/>
					<stop  offset="0.5014" style="stop-color:#047B9D"/>
					<stop  offset="0.8087" style="stop-color:#086684"/>
					<stop  offset="1" style="stop-color:#0B5570"/>
				</linearGradient>
				<path style="fill:url(#SVGID_00000132047568878208866910000007029397337770543006_);" d="M2577.45,771.35
					c0.03,13.16,8.89,22.92,21.8,22.89c8.37-0.02,18.24-6.48,22.38-11.71c2.66-3.37-0.03-3.82-1.41-8.24
					c-3.42-10.97-13.26-19.66-22.88-21.48c-7.05-1.34-9.61,0.72-14.1,4.83C2579.65,760.93,2577.44,765.51,2577.45,771.35z"/>
				
					<ellipse transform="matrix(1 -1.998511e-03 1.998511e-03 1 -1.5345 5.2002)" class="st27" cx="2601.27" cy="770.43" rx="9.55" ry="9.8"/>
				<g>
					<path d="M2625.45,777.32c-3.33-6.81-7.65-13.09-12.79-18.55c-5.98-6.36-13.49-11.78-22-12.54c-7.11-0.64-14.18,2.07-20.26,5.98
						s-16.07,17.75-18.52,18.61c0,0-4.94,0.3-6.95-1.38c2.48,3.3,5.54,7.81,9.06,9.84c5.32-7.02,4.51-7.51,12.61-15.65
						c5.97-5.99,13.93-11.53,22.5-11.04c9.3,0.53,17.4,6.89,23.06,14.61c4.48,6.13,8.64,12.6,9.67,14.44
						c0.13,0.23,0.21,0.38,0.24,0.46"/>
				</g>
				<path class="st25" d="M2596.1,775.75l-15.58,9.04c-1.09,0.63-2.51,0.26-3.14-0.83l-0.72-1.24c-0.63-1.09-0.26-2.51,0.83-3.14
					l15.58-9.04c1.09-0.63,2.51-0.26,3.14,0.83l0.72,1.24C2597.57,773.7,2597.19,775.11,2596.1,775.75z"/>
			</g>
		</g>
		<path class="st29" d="M2719.17,788.19c0.67,1.34,15.78,18.05,29.17,16.35c13.39-1.7,6.76,4.51-0.33,4.02
			C2724.56,806.93,2719.17,788.19,2719.17,788.19z"/>
		<path class="st29" d="M2627.59,787.53c-0.67,1.34-15.71,18.12-29.11,16.47c-13.4-1.65-6.74,4.54,0.34,4.02
			C2622.27,806.3,2627.59,787.53,2627.59,787.53z"/>
		
			<linearGradient id="SVGID_00000146468277822364795930000008586947874440414869_" gradientUnits="userSpaceOnUse" x1="1513.4441" y1="1062.7062" x2="1593.8188" y2="1062.7062" gradientTransform="matrix(-1 1.998511e-03 1.998511e-03 1 4123.9785 -324.8293)">
			<stop  offset="0" style="stop-color:#FFB699;stop-opacity:0"/>
			<stop  offset="0.0426" style="stop-color:#FDAF91;stop-opacity:0.0818"/>
			<stop  offset="0.1473" style="stop-color:#FBA383;stop-opacity:0.2831"/>
			<stop  offset="0.2788" style="stop-color:#F99C7B;stop-opacity:0.5359"/>
			<stop  offset="0.5203" style="stop-color:#F99A79"/>
			<stop  offset="0.7469" style="stop-color:#F99C7B;stop-opacity:0.5276"/>
			<stop  offset="0.866" style="stop-color:#FBA383;stop-opacity:0.2793"/>
			<stop  offset="0.9599" style="stop-color:#FDAF91;stop-opacity:0.0836"/>
			<stop  offset="1" style="stop-color:#FFB699;stop-opacity:0"/>
		</linearGradient>
		<path style="display:inline;fill:url(#SVGID_00000146468277822364795930000008586947874440414869_);" d="M2612.08,735.92
			c1.02,8.29,2.28,12.05-11.29,9.07c-13.57-2.99-20.86-6.74-29.39-1.45c-8.53,5.29-19.06,16.87-26.09,16.13
			c-7.03-0.74-17.6-8.76-10.83-14.8c6.77-6.04,20.29-18.66,35.88-21.42C2603.25,717.6,2612.08,735.92,2612.08,735.92z"/>
		
			<linearGradient id="SVGID_00000052078788767093050320000001813773591993822349_" gradientUnits="userSpaceOnUse" x1="2505.6631" y1="1058.8553" x2="2586.0378" y2="1058.8553" gradientTransform="matrix(1 -1.998511e-03 1.998511e-03 1 211.9867 -317.0111)">
			<stop  offset="0" style="stop-color:#FFB699;stop-opacity:0"/>
			<stop  offset="0.0426" style="stop-color:#FDAF91;stop-opacity:0.0818"/>
			<stop  offset="0.1473" style="stop-color:#FBA383;stop-opacity:0.2831"/>
			<stop  offset="0.2788" style="stop-color:#F99C7B;stop-opacity:0.5359"/>
			<stop  offset="0.5203" style="stop-color:#F99A79"/>
			<stop  offset="0.7469" style="stop-color:#F99C7B;stop-opacity:0.5276"/>
			<stop  offset="0.866" style="stop-color:#FBA383;stop-opacity:0.2793"/>
			<stop  offset="0.9599" style="stop-color:#FDAF91;stop-opacity:0.0836"/>
			<stop  offset="1" style="stop-color:#FFB699;stop-opacity:0"/>
		</linearGradient>
		<path style="display:inline;fill:url(#SVGID_00000052078788767093050320000001813773591993822349_);" d="M2720.33,731.85
			c-0.99,8.29-2.24,12.06,11.32,9.02c13.56-3.04,20.84-6.82,29.39-1.57c8.55,5.26,19.12,16.79,26.16,16.02s17.57-8.83,10.77-14.84
			c-6.79-6.02-20.37-18.57-35.96-21.28C2729.08,713.5,2720.33,731.85,2720.33,731.85z"/>
	</g>
	<g id="Mund_3_">
		<g>
			<path class="st32" d="M1799.78,437.75l-2.91,3.56c0,0,19.53,13.76,25.85,15.59c6.32,1.82,29.71,9.15,39.99,0.21
				c10.27-8.94,26.5-12.87,26.5-12.87s-35.03-3.92-36.08-3.78C1852.08,440.61,1799.78,437.75,1799.78,437.75z"/>
			<path class="st33" d="M1788.53,438.54c0,0,8.82-5.68,38.64-6.34c7.68-0.17,13.57,3.35,14.76,3.04c3.26-0.85,17.18-0.91,18.83-0.5
				c29.25,7.21,28.45,9.5,28.45,9.5s-30.37,5.22-48.44,3.69C1816.62,445.89,1788.53,438.54,1788.53,438.54z"/>
			<path class="st33" d="M1789.73,438.43c3.71,0.27,2.05-1.63,12.15,1.21c11.44,3.22,15.02,5.23,28.73,8.52
				c16.23,3.9,28.28-0.14,34.41-0.63c7.89-0.63,23.87-8.49,19.49-4.6c-1.53,1.36,8.83-0.91,2.61,3.34
				c-6.21,4.24-11.26,7.42-18.52,12.52c-6.96,4.89-17.68,9.68-37.78,6.21c-14.37-2.48-24.94-11.58-36.83-22.52
				C1787.78,436.76,1789.73,438.43,1789.73,438.43z"/>
		</g>
		<path class="st34" d="M1812.39,438.49c0,0,5.69,0.14,10.74,0.77c6.25,0.78,10.42,2.69,5.24,2.59
			C1823.19,441.75,1812.39,438.49,1812.39,438.49z"/>
		<path class="st34" d="M1818.3,449.18c0,0,2.64,0.05,6.1,0.36c6.09,0.54,6.26,0.83,6.12,0.93
			C1826.73,453.06,1818.23,449.2,1818.3,449.18z"/>
	</g>
	<g id="Brauen_Kopie_3_Kopie_Kopie_Kopie_Kopie">
		<path class="st35" d="M1877.82,310.8c0.81-0.54,13.72-15.64,26.55-18.55c13.78-3.13,17.24-1.37,29.06,1.78
			c12.54,3.33,24.27,14.05,24.27,14.05s2.78,2.71-11.48-2.64c-6.03-2.26-29.5-9.22-44.63-2.94c-6.61,2.74-18.34,9.34-20.07,10.58
			C1878.78,315.01,1877.82,310.8,1877.82,310.8z"/>
		<path class="st35" d="M1818.34,308.36c-0.72-0.66-11.26-17.5-23.52-22.27c-13.17-5.13-16.85-3.9-29-2.54
			c-12.89,1.44-26.08,10.3-26.08,10.3s-3.15,2.27,11.74-0.91c6.29-1.35,30.54-4.75,44.58,3.69c6.13,3.69,16.75,11.95,18.29,13.43
			C1816.77,312.39,1818.34,308.36,1818.34,308.36z"/>
	</g>
	<g id="sprossen_6_">
		
			<ellipse transform="matrix(0.0586 -0.9983 0.9983 0.0586 1102.5315 2354.6624)" class="st36" cx="1799.73" cy="592.76" rx="1.86" ry="2.28"/>
		
			<ellipse transform="matrix(0.0586 -0.9983 0.9983 0.0586 1083.0751 2334.3921)" class="st36" cx="1779.26" cy="592.94" rx="1.86" ry="2.28"/>
		
			<ellipse transform="matrix(0.0586 -0.9983 0.9983 0.0586 1098.8649 2326.1035)" class="st36" cx="1782.76" cy="580.42" rx="1.86" ry="2.28"/>
		
			<ellipse transform="matrix(0.0586 -0.9983 0.9983 0.0586 1083.4666 2317.7542)" class="st36" cx="1770.63" cy="584.41" rx="1.86" ry="2.28"/>
		
			<ellipse transform="matrix(0.0586 -0.9983 0.9983 0.0586 1326.3635 2157.592)" class="st37" cx="1807.16" cy="375.54" rx="1.76" ry="2.28"/>
		
			<ellipse transform="matrix(0.0586 -0.9983 0.9983 0.0586 1303.6593 2160.4302)" class="st37" cx="1797.31" cy="389" rx="1.76" ry="2.28"/>
		
			<ellipse transform="matrix(0.0586 -0.9983 0.9983 0.0586 1306.2324 2141.1614)" class="st37" cx="1788.38" cy="378" rx="2.38" ry="2.59"/>
	</g>
	<g id="sprossen_5_">
		
			<ellipse transform="matrix(0.0586 -0.9983 0.9983 0.0586 1152.8152 2416.4412)" class="st36" cx="1857.63" cy="596.98" rx="1.86" ry="2.28"/>
		
			<ellipse transform="matrix(0.0586 -0.9983 0.9983 0.0586 1169.3679 2439.1445)" class="st36" cx="1877.95" cy="599.56" rx="1.86" ry="2.28"/>
		
			<ellipse transform="matrix(0.0586 -0.9983 0.9983 0.0586 1180.2916 2425.0488)" class="st36" cx="1875.93" cy="586.72" rx="1.86" ry="2.28"/>
		
			<ellipse transform="matrix(0.0586 -0.9983 0.9983 0.0586 1386.0144 2230.5496)" class="st37" cx="1875.67" cy="380.39" rx="1.76" ry="2.28"/>
		
			<ellipse transform="matrix(0.0586 -0.9983 0.9983 0.0586 1379.2468 2252.4067)" class="st37" cx="1883.88" cy="394.91" rx="1.76" ry="2.28"/>
		
			<ellipse transform="matrix(0.0586 -0.9983 0.9983 0.0586 1398.6687 2253.2454)" class="st37" cx="1894.03" cy="385.03" rx="2.38" ry="2.59"/>
	</g>
	<g id="Rouge_3_">
		<path class="st38" d="M1798.5,400.65c-0.71,12.11-19.32,21.03-35.58,20.07c-16.26-0.95-30.58-22.59-29.87-34.69
			s9.88-11.49,26.14-10.54C1775.45,376.45,1799.21,388.54,1798.5,400.65z"/>
		<path class="st38" d="M1892.77,407.56c-0.71,12.11,16.73,23.14,32.99,24.1c16.26,0.95,33.01-18.85,33.72-30.96
			c0.71-12.11-8.47-12.57-24.73-13.52C1918.49,386.22,1893.48,395.46,1892.77,407.56z"/>
	</g>
	<g id="Ohren_3_">
		<g>
			<g>
				<path class="st0" d="M1960.53,392.84c-1.18,20.09-12.52,38.82,1.07,40.72c20.57,2.87,46.44-20.81,47.62-40.9
					s-7.66-31.01-21.36-31.81S1961.71,372.75,1960.53,392.84z"/>
			</g>
		</g>
		<g>
			<g>
				<path class="st0" d="M1729.04,374.28c-1.18,20.09,5.75,44.31-7.95,43.51c-28.11-1.65-41.56-29.29-40.38-49.38
					c1.18-20.09,10.79-27.02,24.49-26.22C1718.9,342.98,1730.22,354.18,1729.04,374.28z"/>
			</g>
			<path class="st23" d="M1721.96,362.89c0,0-10.35-21.63-23.64-11.9c-13.29,9.73-7.88,21.11-7.88,21.11s14.3-16.75,10.73-3.79
				c-4.57,16.6,15.94,34.68,15.94,34.68s-12.05-30.3-2.61-30.85C1723.94,371.58,1721.96,362.89,1721.96,362.89z"/>
			<path class="st23" d="M1969.09,382.79c0,0,12.81-20.27,24.87-9.05c12.06,11.22,5.35,21.89,5.35,21.89s-12.24-18.31-10.21-5.02
				c2.6,17.02-19.89,32.57-19.89,32.57s15.51-28.68,6.21-30.33C1966.11,391.19,1969.09,382.79,1969.09,382.79z"/>
		</g>
	</g>
	<path id="nase_3_" class="st23" d="M1822,402.25c-0.49-0.58,0.01-1.44,0.75-1.3c4.21,0.81,14.06,2.62,20.14,2.98
		c8.34,0.49,17.41,0.25,21.33,0.11c0.75-0.03,1.12,0.89,0.56,1.39c-2.74,2.44-9.54,7.01-21.58,6.46
		C1831.14,411.33,1824.56,405.28,1822,402.25z"/>
	<path class="st5" d="M1968.6,385.02c0,0-19.14,47.58-19.41,47.95c-5.84,7.94-64.19,96.96-104.57,95.98c0,0,36.06,4.12,82.18-46.62
		c22.09-24.31,34.78-48.36,34.78-48.36"/>
	<path class="st39" d="M1720.19,376.66c0,0-2.31,25.17,2.05,42.85c4.36,17.68,10.17,31.71,15.47,40.32
		c5.3,8.61-8.61-15.85-9.9-36.26C1726.51,403.17,1720.19,376.66,1720.19,376.66z"/>
	<g id="Augen_Kopie_3_Kopie_Kopie">
		<g>
			<g>
				<path class="st25" d="M1886.02,354.9c0,0,13.79-18.56,29.45-16.83c15.66,1.73,21.84,4.85,27.91,19.58
					c0,0-8.09,15.57-25.48,15.13C1894.71,372.18,1886.02,354.9,1886.02,354.9z"/>
				
					<linearGradient id="SVGID_00000065047734728838120210000011948961301258896519_" gradientUnits="userSpaceOnUse" x1="1884.3458" y1="655.079" x2="1884.0925" y2="629.8766" gradientTransform="matrix(0.9984 0.0574 -0.0574 0.9984 71.9453 -386.865)">
					<stop  offset="0" style="stop-color:#008CB2"/>
					<stop  offset="0.2227" style="stop-color:#0188AD"/>
					<stop  offset="0.5014" style="stop-color:#047B9D"/>
					<stop  offset="0.8087" style="stop-color:#086684"/>
					<stop  offset="1" style="stop-color:#0B5570"/>
				</linearGradient>
				<path style="fill:url(#SVGID_00000065047734728838120210000011948961301258896519_);" d="M1935.81,355.1
					c-0.62,10.83-9.74,19.11-20.37,18.5s-18.74-9.89-18.11-20.71s8.92-15.9,19.55-15.29C1927.5,338.21,1936.44,344.27,1935.81,355.1
					z"/>
				
					<ellipse transform="matrix(0.0574 -0.9983 0.9983 0.0574 1453.5012 2246.0479)" class="st27" cx="1916.25" cy="353.25" rx="8.08" ry="7.87"/>
				<g>
					<path d="M1884.56,353.36c3-4.58,6.8-8.74,11.23-12.29c5.16-4.14,11.56-7.56,18.59-7.69c5.88-0.11,11.59,2.09,16.44,5.08
						s12.54,13.06,14.53,13.77c0,0,4.05,0.44,5.77-0.64c-2.17,2.18-4.86,5.17-7.84,6.42c-4.11-5.11-3.42-5.42-9.78-11.44
						c-4.69-4.43-11.02-8.64-18.1-8.7c-7.68-0.06-14.59,3.98-19.53,9.09c-4.41,4.55-8.49,9.42-8.73,9.89"/>
				</g>
				<path class="st25" d="M1911.37,355.85l-13.47,6.78c-0.87,0.44-1.95,0.08-2.39-0.79l-0.63-1.26c-0.44-0.87-0.08-1.95,0.79-2.39
					l13.47-6.78c0.87-0.44,1.95-0.08,2.39,0.79l0.63,1.26C1912.6,354.33,1912.25,355.41,1911.37,355.85z"/>
			</g>
			<g>
				<path class="st25" d="M1809.63,349.54c0,0-11.57-20.02-27.33-20.1c-15.76-0.08-22.26,2.31-29.97,16.25
					c0,0,6.25,16.4,23.58,17.95C1799.01,365.7,1809.63,349.54,1809.63,349.54z"/>
				
					<linearGradient id="SVGID_00000101783722550869226280000013731273456132923541_" gradientUnits="userSpaceOnUse" x1="1446.5554" y1="654.1129" x2="1446.3021" y2="628.9106" gradientTransform="matrix(-0.9984 -0.0574 -0.0574 0.9984 3259.6821 -203.4388)">
					<stop  offset="0" style="stop-color:#008CB2"/>
					<stop  offset="0.2227" style="stop-color:#0188AD"/>
					<stop  offset="0.5014" style="stop-color:#047B9D"/>
					<stop  offset="0.8087" style="stop-color:#086684"/>
					<stop  offset="1" style="stop-color:#0B5570"/>
				</linearGradient>
				<path style="fill:url(#SVGID_00000101783722550869226280000013731273456132923541_);" d="M1760.14,344.03
					c-0.62,10.83,7.49,20.1,18.11,20.71c10.63,0.61,19.75-7.67,20.37-18.5s-7.04-16.82-17.66-17.43
					C1770.33,328.2,1760.76,333.2,1760.14,344.03z"/>
				
					<ellipse transform="matrix(0.0574 -0.9983 0.9983 0.0574 1333.6741 2101.4861)" class="st27" cx="1779.78" cy="344.43" rx="8.08" ry="7.87"/>
				<g>
					<path d="M1811.25,348.17c-2.45-4.89-5.75-9.46-9.75-13.5c-4.65-4.7-10.61-8.83-17.58-9.77c-5.83-0.79-11.76,0.75-16.92,3.16
						s-13.96,11.54-16.01,12.01c0,0-4.08-0.03-5.66-1.3c1.91,2.41,4.24,5.69,7.05,7.27c4.67-4.61,4.02-4.99,11.03-10.24
						c5.16-3.87,11.94-7.32,18.97-6.56c7.63,0.82,14.03,5.63,18.36,11.27c3.86,5.02,7.36,10.33,7.53,10.82"/>
				</g>
				<path class="st25" d="M1775.37,348.5l-13.47,6.78c-0.87,0.44-1.95,0.08-2.39-0.79l-0.63-1.26c-0.44-0.87-0.08-1.95,0.79-2.39
					l13.47-6.78c0.87-0.44,1.95-0.08,2.39,0.79l0.63,1.26C1776.6,346.99,1776.24,348.06,1775.37,348.5z"/>
			</g>
		</g>
		<path class="st39" d="M1887.87,361.09c0.49,1.13,12.1,15.63,23.2,14.89c11.1-0.74,5.34,4.04-0.47,3.29
			C1891.39,376.78,1887.87,361.09,1887.87,361.09z"/>
		<path class="st39" d="M1812.55,356.07c-0.61,1.07-13.81,14.14-24.76,12.13s-5.77,3.4,0.09,3.32
			C1807.25,371.25,1812.55,356.07,1812.55,356.07z"/>
		
			<linearGradient id="SVGID_00000091735179217255243300000014974182185536345744_" gradientUnits="userSpaceOnUse" x1="2346.9402" y1="608.3379" x2="2413.1931" y2="608.3379" gradientTransform="matrix(-0.9984 -0.0574 -0.0574 0.9984 4180.3452 -150.4626)">
			<stop  offset="0" style="stop-color:#FFB699;stop-opacity:0"/>
			<stop  offset="0.0426" style="stop-color:#FDAF91;stop-opacity:0.0818"/>
			<stop  offset="0.1473" style="stop-color:#FBA383;stop-opacity:0.2831"/>
			<stop  offset="0.2788" style="stop-color:#F99C7B;stop-opacity:0.5359"/>
			<stop  offset="0.5203" style="stop-color:#F99A79"/>
			<stop  offset="0.7469" style="stop-color:#F99C7B;stop-opacity:0.5276"/>
			<stop  offset="0.866" style="stop-color:#FBA383;stop-opacity:0.2793"/>
			<stop  offset="0.9599" style="stop-color:#FDAF91;stop-opacity:0.0836"/>
			<stop  offset="1" style="stop-color:#FFB699;stop-opacity:0"/>
		</linearGradient>
		<path style="fill:url(#SVGID_00000091735179217255243300000014974182185536345744_);" d="M1802.09,317.92
			c0.43,6.87,1.29,10.03-9.73,6.91c-11.02-3.12-16.84-6.57-24.11-2.63c-7.28,3.94-16.51,12.95-22.26,11.99
			c-5.75-0.95-14.05-8.07-8.19-12.71c5.87-4.64,17.61-14.36,30.57-15.87C1795.72,302.42,1802.09,317.92,1802.09,317.92z"/>
		
			<linearGradient id="SVGID_00000009559700165550561120000000752950866480528027_" gradientUnits="userSpaceOnUse" x1="1656.6669" y1="607.2333" x2="1722.9197" y2="607.2333" gradientTransform="matrix(0.9984 0.0574 -0.0574 0.9984 274.8434 -375.19)">
			<stop  offset="0" style="stop-color:#FFB699;stop-opacity:0"/>
			<stop  offset="0.0426" style="stop-color:#FDAF91;stop-opacity:0.0818"/>
			<stop  offset="0.1473" style="stop-color:#FBA383;stop-opacity:0.2831"/>
			<stop  offset="0.2788" style="stop-color:#F99C7B;stop-opacity:0.5359"/>
			<stop  offset="0.5203" style="stop-color:#F99A79"/>
			<stop  offset="0.7469" style="stop-color:#F99C7B;stop-opacity:0.5276"/>
			<stop  offset="0.866" style="stop-color:#FBA383;stop-opacity:0.2793"/>
			<stop  offset="0.9599" style="stop-color:#FDAF91;stop-opacity:0.0836"/>
			<stop  offset="1" style="stop-color:#FFB699;stop-opacity:0"/>
		</linearGradient>
		<path style="fill:url(#SVGID_00000009559700165550561120000000752950866480528027_);" d="M1894.61,322.14
			c-1.22,6.77-2.43,9.82,8.87,7.98c11.31-1.84,17.48-4.59,24.26,0.15c6.78,4.75,14.91,14.75,20.74,14.47s14.89-6.4,9.59-11.68
			s-15.85-16.28-28.55-19.27C1902.71,307.47,1894.61,322.14,1894.61,322.14z"/>
	</g>
	<path class="st44" d="M1790.2,439.01c0,0,29.99,5.68,37.09,7.58c7.1,1.89,20.52,2.21,20.52,2.21l18.94-1.58l21.62-2.68"/>
	<g>
		<g id="Haareoben_4_">
			<g>
				<path class="st17" d="M1872.42,177.39c15.55,9.64,33.32,15.51,48.12,26.26c23.55,17.1,66.25,33.04,75.75,60.55
					c10.29,29.8,17.88,48.83-8.76,95.47c-0.73-17.61-10.27-28.87-22.37-41.68c-12.1-12.81-37.22-24.01-48.52-37.53
					c-11.33-13.56-25.94-35.98-30.24-53.1c-3.32-13.23-7.96-22.63-14.66-34.82c-13.54-24.6-59.85-11.92-82.85-12.29
					c-26.44-0.42-25.69-7.85-50.39,1.59s-62.85,75.2-66.44,101.39c0,0-0.13,0.96-0.38,2.62c-1.69,11.22,2.87,52.27-26.87,79.93
					c-10.39,9.67,30.72-10.47,33.99-29.64"/>
			</g>
			<g>
				<path class="st17" d="M1701.98,356.98c3.72-21.53,2.75,12.93,20.85,0.69c23.37-15.81-2.65-60.07,23.42-70.87
					c40.08-16.61,140.35-66.61,149-109.12c-6.52,3.3-13.23,6.06-20.1,8.41c-23.85,8.18-49.48,11.4-74.62,14.84
					c-14.37,1.96-28.88,4.07-42.35,9.43c-22.17,8.82-45.57,13.25-55.26,35.05c-9.69,21.8-5.55,60.7,2.75,83.07
					c4.23-6.26-7.09,36.48-2.86,30.22"/>
			</g>
			<g>
				<g>
					<path class="st17" d="M1671.84,385.02c-4.07-14.66-7.01-29.65-8.25-44.82c-1.05-12.87-0.89-25.85,0.81-38.66
						c1.49-11.28,4.19-22.4,8.13-33.07c3.58-9.7,8.19-19,13.7-27.74c5.12-8.12,11.02-15.73,17.53-22.78
						c6.05-6.55,12.63-12.62,19.6-18.19c6.35-5.07,13.04-9.73,19.96-13.97c6.02-3.69,12.23-7.07,18.59-10.13
						c5.05-2.43,10.2-4.66,15.44-6.63c3.51-1.32,7.06-2.54,10.68-3.52c0.56-0.15,1.12-0.3,1.68-0.43c0.94-0.22,0.54-1.67-0.4-1.45
						c-3.17,0.75-6.28,1.77-9.34,2.85c-5,1.76-9.92,3.78-14.75,5.97c-6.2,2.82-12.27,5.94-18.16,9.36
						c-6.93,4.01-13.63,8.42-20.03,13.22c-7.06,5.29-13.76,11.06-19.98,17.32c-6.7,6.73-12.83,14.02-18.26,21.82
						c-5.83,8.37-10.83,17.33-14.84,26.72c-4.4,10.28-7.63,21.03-9.68,32.03c-2.3,12.34-3.14,24.93-2.73,37.48
						c0.47,14.67,2.61,29.27,5.93,43.56c0.89,3.85,1.88,7.68,2.93,11.48C1670.66,386.35,1672.1,385.96,1671.84,385.02
						L1671.84,385.02z"/>
				</g>
			</g>
			<g>
				<path class="st16" d="M1905.19,197.71c2.97,20.32,19.58,41.92,33.92,56.63c18.38,18.85,32.21,20.06,37,20.85
					c-0.6-51.5-61.11-56.33-71.41-78.61"/>
			</g>
			<path class="st16" d="M1668.78,297.77c0,0,18.52,51.43,13.01,110.29c-5.51,58.85,47.15,120.45,47.15,120.45
				s-30.37-0.17-48.56-36.15C1664.55,461.01,1668.78,297.77,1668.78,297.77z"/>
			<path class="st35" d="M1677.06,277.99c-2.84,51.27,30.53,67.91,30.53,67.91l15.3,22.14c0,0,13.38-20.69,12.69-33.17
				s-2.97-21.32-1.59-31.19s8.87-15.41,8.87-15.41s-81.43-2.57-23.32-63.23C1777.63,164.39,1679.9,226.72,1677.06,277.99z"/>
			<path class="st35" d="M1987.01,218.14c0,0-28.32,41.98,3.3,90.18c31.62,48.2,24.18,95.07,24.18,95.07s7.38-93.6-7.43-150.55
				C1999.78,224.79,1987.01,218.14,1987.01,218.14z"/>
			<path class="st45" d="M1764.49,175.4c0,0-28.98,7.38-41.36,24.65s-20.19,33.95-6.78,19.22c15.21-16.71,37-26.93,37-26.93
				s50.86-29.44,30.78-20.4C1776.47,175.38,1764.49,175.4,1764.49,175.4z"/>
			<g>
				<g>
					<g>
						<path class="st17" d="M1739.19,180.88c-2.79,0.89-5.23,2.8-7.49,4.59c-3.28,2.61-6.33,5.5-9.29,8.47
							c-6.42,6.42-12.48,13.27-17.97,20.51c-1.79,2.36-3.63,4.79-4.97,7.45c-3.14,6.2-5.79,12.72-8.24,19.21
							c-5.1,13.51-8.95,27.49-11.46,41.71c-2.67,15.1-4.11,31.22,2.37,45.59c0.25,0.56,1.12,0.9,1.69,0.69
							c2.23-0.81,3.49-3.01,2.91-5.34c-0.46-1.87-3.35-1.08-2.89,0.8c0.16,0.66-0.15,1.41-0.82,1.65c0.56,0.23,1.13,0.46,1.69,0.69
							c-5.59-12.4-4.77-26.58-2.67-39.69c2.2-13.78,5.68-27.37,10.33-40.53c2.33-6.61,4.97-13.12,7.9-19.49
							c1.48-3.21,3.04-6.12,5.1-8.98c4.93-6.87,10.59-13.27,16.44-19.36c3.3-3.44,6.71-6.8,10.35-9.88c1.42-1.2,2.88-2.36,4.43-3.39
							c0.63-0.42,1.28-0.82,1.95-1.17c0.67-0.35,0.84-0.43,1.45-0.62C1741.82,183.19,1741.04,180.29,1739.19,180.88L1739.19,180.88z
							"/>
					</g>
				</g>
				<path class="st46" d="M1885.02,177.52c0,0-13.33,75.99,21.77,101.16s69.96,39.96,69.96,39.96l-77.25-117.92L1885.02,177.52z"/>
				<g>
					<g>
						<path class="st17" d="M1741.23,182.63c22.81-10.44,47.45-17.58,72.65-18.15c17.71-0.4,35.48,2.51,51.92,9.19
							c11.22,4.56,21.97,10.86,30.98,19c3.42,3.09,6.66,6.07,10.51,8.65c5.62,3.77,11.55,7.09,17.47,10.35
							c15.12,8.31,30.54,16.04,45.64,24.4c7.36,4.08,14.67,8.28,21.74,12.84c5.9,3.8,11.74,7.84,16.89,12.62
							c3.62,3.36,7.01,7.13,8.34,11.98c3.36,12.21,5.9,24.68,7.43,37.25c1.54,12.61,2.14,25.46,0.76,38.12
							c-1.46,13.4-4.7,26.71-7.69,39.84c-2.92,12.85-5.69,25.73-8.53,38.6c-2.09,9.47-4.99,18.75-7.65,28.06
							c-2.96,10.36-5.81,20.79-7.66,31.41c-1.62,9.32-2.62,19.02-1.06,28.41c0.66,3.98,1.86,7.85,3.76,11.41
							c0.45,0.85,1.75,0.1,1.3-0.76c-4.32-8.11-4.74-17.71-4.08-26.7c0.79-10.71,3.22-21.26,5.94-31.61
							c2.66-10.13,5.77-20.13,8.5-30.23c3.08-11.36,5.16-22.97,7.78-34.44c3.02-13.21,6.13-26.4,8.61-39.72
							c1.17-6.3,2.26-12.59,2.7-18.99c0.44-6.26,0.42-12.55,0.1-18.82c-0.66-12.92-2.59-25.78-5.35-38.4
							c-1.13-5.16-2.11-10.64-3.95-15.61c-0.77-2.08-1.98-3.95-3.34-5.69c-3.71-4.73-8.54-8.57-13.37-12.1
							c-6.38-4.68-13.13-8.84-19.96-12.84c-15.31-8.95-31.13-16.97-46.77-25.3c-6.74-3.59-13.47-7.21-20.03-11.13
							c-4.68-2.79-9.5-5.69-13.53-9.4c-3.44-3.17-6.82-6.3-10.6-9.08c-5.03-3.7-10.4-6.94-15.99-9.73
							c-14.79-7.39-31.04-11.58-47.5-12.76c-22.98-1.64-46.05,2.58-67.67,10.27c-6.46,2.3-12.8,4.92-19.04,7.77
							C1739.6,181.73,1740.36,183.03,1741.23,182.63L1741.23,182.63z"/>
					</g>
				</g>
			</g>
			<path class="st46" d="M1671.17,291.42c0,0,9.11,159.11,5.17,181.78c-2.43,13.97-14.54,29.84-14.54,29.84"/>
			<path class="st46" d="M1644.38,507.68"/>
			<path class="st46" d="M1670.61,344.55"/>
			<g>
				<path class="st16" d="M1716.94,261.28c-1.29-4.29-0.5-8.93,0.79-13.22c5.53-18.3,19.85-33,36.44-42.5
					c7.18-4.11,14.8-7.36,22.41-10.61c19.52-8.33,39.06-16.65,59.01-23.9c2.21-0.8,4.49-1.6,6.84-1.49c2.35,0.11,4.8,1.36,5.62,3.55
					c1.34,3.56-1.98,7.07-5.11,9.22c-8.7,5.97-18.56,9.99-28.27,14.12c-25.74,10.94-51.45,23.24-72.07,42.14
					c-5.08,4.65-9.84,9.7-15.42,13.73c-3.51,2.54-7.33,4.65-11.35,6.28"/>
			</g>
			<g>
				<g>
					<path class="st16" d="M1721.35,345.85c-7.22-19.73-12.17-42.43-5.22-62.96c4.31-12.73,13.26-22.99,24.55-30.08
						c11.93-7.5,25.89-11.84,39.21-16.01c7.52-2.36,15.07-4.65,22.46-7.42c3.98-1.49,7.75-3.01,11.28-5.39
						c7.11-4.82,13.44-10.88,19.51-16.92c7.31-7.28,14.27-14.91,20.91-22.8c5.4-6.41,10.75-12.98,15.27-20.06
						c0.72-1.13,1.41-2.27,2.04-3.45c0.23-0.43-0.42-0.8-0.65-0.38c-3.53,6.59-8.39,12.57-13.08,18.36
						c-6.48,8.01-13.32,15.73-20.47,23.15c-6.51,6.77-13.28,13.45-20.75,19.16c-2.53,1.93-5.18,3.83-8.09,5.15
						c-6.87,3.13-14.22,5.35-21.4,7.62c-10.61,3.35-21.23,6.6-31.54,10.8c-4.39,1.79-8.7,3.79-12.8,6.17
						c-11.06,6.43-20.36,15.7-25.49,27.55c-7.95,18.37-5.32,39.39,0.29,58.01c0.99,3.27,2.08,6.5,3.25,9.71
						C1720.79,346.5,1721.52,346.31,1721.35,345.85L1721.35,345.85z"/>
				</g>
			</g>
			<g>
				<g>
					<path class="st16" d="M1889.95,164.13c0.04,14.44,1.61,28.91,4.47,43.06c2.95,14.62,7.3,29.12,13.96,42.51
						c3.02,6.08,6.55,11.92,10.77,17.24c5.31,6.7,11.58,12.6,18.08,18.12c6.69,5.67,13.68,10.97,20.53,16.44
						c2.98,2.38,5.99,4.74,8.73,7.4c2.58,2.5,4.95,5.21,7.18,8.02c4.96,6.25,9.25,13.05,13.01,20.08
						c3.58,6.68,6.72,13.64,9.08,20.85c0.52,1.57,0.99,3.16,1.42,4.76c0.12,0.47,0.85,0.27,0.72-0.2
						c-1.84-6.89-4.54-13.54-7.62-19.96c-3.42-7.1-7.37-13.97-11.9-20.43c-4.05-5.79-8.58-11.37-13.93-16
						c-6.49-5.61-13.42-10.7-20.1-16.06c-6.75-5.41-13.37-11.04-19.3-17.36c-5.07-5.4-9.44-11.32-13.1-17.76
						c-7.36-12.97-12.16-27.34-15.51-41.83c-3.33-14.37-5.26-29.11-5.67-43.85c-0.05-1.67-0.07-3.35-0.08-5.02
						C1890.7,163.64,1889.95,163.64,1889.95,164.13L1889.95,164.13z"/>
				</g>
			</g>
			<g>
				<g>
					<path class="st16" d="M1977.79,288.14c2.07,15.06,8.91,28.85,16.01,42.11c7.28,13.6,15.64,27.3,19.37,42.41
						c1.88,7.62,2.57,15.43,1.69,23.23c-0.89,7.94-2.93,15.71-5.01,23.41c-2.01,7.44-4.04,14.86-5.43,22.45
						c-1.53,8.35-3.41,16.63-5.06,24.96c-3.09,15.53-4.99,31.24-2.24,46.98c0.38,2.19,0.85,4.36,1.37,6.52
						c0.11,0.47,0.84,0.27,0.72-0.2c-2.01-8.24-2.92-16.69-2.72-25.17c0.19-8.02,1.33-15.98,2.8-23.85c1.53-8.21,3.39-16.36,5-24.55
						c0.76-3.9,1.41-7.81,2.31-11.68c0.86-3.72,1.85-7.41,2.85-11.09c2.07-7.65,4.23-15.3,5.52-23.13
						c1.22-7.43,1.31-14.71,0.11-22.15c-2.46-15.35-10.25-29.27-17.55-42.77c-7.25-13.39-14.8-27.02-18.03-42.04
						c-0.4-1.85-0.72-3.72-0.98-5.6C1978.45,287.46,1977.72,287.66,1977.79,288.14L1977.79,288.14z"/>
				</g>
			</g>
			<g>
				<g>
					<path class="st16" d="M1681.68,242.77c-4.42,10.94-8.15,22.31-11.25,33.68c-0.72,2.64-1.4,5.3-1.89,7.99
						c-0.47,2.6-0.43,5.08-0.4,7.73c0.1,10.28-0.26,20.56-0.68,30.83c-0.86,20.93-2.1,41.92-0.75,62.85
						c0.65,10.08,2.08,20.01,4.12,29.9c2.15,10.39,4.76,20.67,7.15,31c4.71,20.32,8.53,41.23,5.5,62.11
						c-0.38,2.62-0.86,5.22-1.44,7.8c-0.1,0.47,0.62,0.67,0.72,0.2c4.49-20.2,2.28-40.75-1.95-60.78
						c-4.34-20.61-10.54-40.91-12.68-61.93c-2.12-20.79-1.19-41.76-0.29-62.59c0.44-10.3,0.91-20.6,1.03-30.91
						c0.03-2.59,0.04-5.18,0.02-7.77c-0.01-1.74-0.15-3.51-0.04-5.25c0.14-2.26,0.67-4.51,1.19-6.7
						c2.88-12.08,7.03-23.99,11.43-35.6c0.3-0.79,0.61-1.58,0.92-2.37C1682.58,242.53,1681.86,242.33,1681.68,242.77L1681.68,242.77
						z"/>
				</g>
			</g>
		</g>
		<path class="st17" d="M1995.43,441.45c0,0-24.25,28.52-2.29,41.35c21.96,12.83,33.88,7.41,33.88,7.41s-26.4-12.52-28.95-26.49
			C1995.52,449.75,1995.43,441.45,1995.43,441.45z"/>
		<path class="st17" d="M1798.53,159.04c0,0,8.24-21.53,37.62-12.85s44.25,17.38,44.25,17.38s-27.59-11.07-45.05-10.37
			c-17.46,0.69-38.38,11.56-38.38,11.56L1798.53,159.04z"/>
		<path class="st35" d="M1807.63,159.55c0,0-18.09,29.55-33.74,32.56c-15.65,3,36.14-3.53,39.66-17.16
			c3.52-13.63,4.19-15.81,4.19-15.81L1807.63,159.55"/>
		<path class="st39" d="M1720.1,377.01c0,0-2.22,25.18,2.19,42.84s10.27,31.68,15.61,40.27s-8.66-15.83-10.02-36.22
			C1726.52,403.5,1720.1,377.01,1720.1,377.01z"/>
	</g>
</g>
<g id="Hand_x5F_R_3_">
	<path class="st0" d="M1556.91,603.8l-51.2-55.14c0,0,15.03-38.89,39.21-25.49c24.18,13.4,36.26,10.22,48.36,24.43
		c12.1,14.21,9.73,34.1,9.73,34.1L1556.91,603.8z"/>
	<path class="st0" d="M1560.42,542.47c0,0-11.75-13.4-21.55-28.03c-8.81-13.16-15.63-27.47-17.94-31.4
		c-4.26-7.24,3.36-11.42,16.67-2.06c13.31,9.36,30.58,34.62,31.43,35.52c0.84,0.9,20.05,19.6,24.48,29.26
		c4.31,9.41,5.93,20.9,5.93,20.9L1560.42,542.47z"/>
	<path class="st0" d="M1523.69,535.9l-28.32-33.19l-25.74-44.9c0,0-6.52-8.61,3.6-5.73s19.72,14.9,21.22,19.58
		c0.52,1.63,16.86,18.4,21.73,25.96c0.56,0.87,38.95,30.14,38.95,30.14L1523.69,535.9z"/>
	<path class="st0" d="M1515.58,545.85l-28.32-33.19l-25.74-44.9c0,0-6.52-8.61,3.6-5.73c10.12,2.87,29.6,28.95,31.1,33.63
		c1.5,4.68,46.48,43.76,46.48,43.76L1515.58,545.85z"/>
	<path class="st0" d="M1505.79,546.04l-26.82-31.13l-21.73-44.54c0,0-5.69-8.67,3.84-5.13c9.53,3.54,26.5,29.78,27.63,34.32
		c1.13,4.55,41.72,45.15,41.72,45.15L1505.79,546.04z"/>
	<path class="st0" d="M1507.05,549.01l-18.61-15.3l-31.05-45.5c0,0-7-7.65,2.97-5.68c9.97,1.97,30.92,25.15,32.76,29.46
		s48.41,37.89,48.41,37.89L1507.05,549.01z"/>
	<g>
		<path class="st47" d="M1521.93,528.77c0,0-9.76-9-19.32-18.95c-9.56-9.95-25.13-37.6-25.13-37.6"/>
		<path class="st47" d="M1510.74,532.71c0,0-12.47-11.62-22.03-21.58c-9.56-9.95-25.13-37.6-25.13-37.6"/>
		<path class="st47" d="M1504.41,536.69c0,0-6.55-5.75-16.11-15.7c-9.56-9.95-25.13-37.6-25.13-37.6"/>
	</g>
	<path class="st24" d="M1550.6,586.75c0.55,1.25-56.23-46.42-52.16-46.68C1502.51,539.82,1546.62,577.62,1550.6,586.75z"/>
</g>
<g id="Hand_x5F_L_3_">
	<g>
		<path class="st0" d="M2123.6,593.69l73.72-41.23c0,0-9.4-40.19-35.14-30.1c-25.74,10.09-37.29,5.35-51.16,17.84
			c-13.87,12.49,11.9,47.52,11.9,47.52L2123.6,593.69z"/>
		<path class="st0" d="M2144.27,539.46c0,0,13.42-11.73,25.06-24.94c10.47-11.89,19.12-25.17,21.92-28.76
			c5.17-6.61-1.82-11.76-16.25-4.24s-34.88,30.28-35.84,31.07c-0.95,0.78-26.61,24.32-32.28,33.31c-5.51,8.75-8.54,19.04-8.54,19.04
			L2144.27,539.46z"/>
		<path class="st0" d="M2181.54,537.79l32.45-29.17l31.43-41.11c0,0,7.6-7.67-2.81-6.16c-10.41,1.51-21.51,12.17-23.62,16.62
			c-0.73,1.55-19.14,16.01-24.96,22.87c-0.67,0.79-42.58,24.74-42.58,24.74L2181.54,537.79z"/>
		<path class="st0" d="M2188.27,548.72l32.45-29.17l31.43-41.11c0,0,7.6-7.67-2.81-6.16c-10.41,1.51-33.16,24.8-35.26,29.24
			c-2.11,4.44-51.84,37.25-51.84,37.25L2188.27,548.72z"/>
		<path class="st0" d="M2197.95,550.2l30.69-27.32l27.42-41.29c0,0,6.79-7.84-3.13-5.59s-30.19,26.02-31.91,30.38
			c-1.72,4.36-47.31,39.25-47.31,39.25L2197.95,550.2z"/>
		<path class="st0" d="M2196.32,552.98l20.47-12.72l36.78-41.01c0,0,7.95-6.65-2.19-6.02c-10.14,0.64-33.96,20.86-36.36,24.89
			c-2.4,4.03-52.98,31.18-52.98,31.18L2196.32,552.98z"/>
		<g>
			<path class="st48" d="M2184.24,530.95c0,0,10.87-7.63,21.65-16.24c10.79-8.61,29.87-33.96,29.87-33.96"/>
			<path class="st48" d="M2194.8,536.33c0,0,13.89-9.88,24.68-18.48c10.79-8.61,29.87-33.96,29.87-33.96"/>
			<path class="st48" d="M2200.56,541.11c0,0,7.25-4.83,18.04-13.44c10.79-8.61,29.87-33.96,29.87-33.96"/>
		</g>
	</g>
	<g>
		<path class="st0" d="M2123.6,593.69l73.72-41.23c0,0-9.4-40.19-35.14-30.1c-25.74,10.09-37.29,5.35-51.16,17.84
			c-13.87,12.49,11.9,47.52,11.9,47.52L2123.6,593.69z"/>
		<path class="st0" d="M2144.27,539.46c0,0,13.42-11.73,25.06-24.94c10.47-11.89,19.12-25.17,21.92-28.76
			c5.17-6.61-1.82-11.76-16.25-4.24s-34.88,30.28-35.84,31.07c-0.95,0.78-27.62,25.93-33.28,34.92c-5.51,8.75-3.48,10.8-3.48,10.8
			L2144.27,539.46z"/>
		<path class="st0" d="M2181.54,537.79l32.45-29.17l31.43-41.11c0,0,7.6-7.67-2.81-6.16c-10.41,1.51-21.51,12.17-23.62,16.62
			c-0.73,1.55-19.14,16.01-24.96,22.87c-0.67,0.79-42.58,24.74-42.58,24.74L2181.54,537.79z"/>
		<path class="st0" d="M2188.27,548.72l32.45-29.17l31.43-41.11c0,0,7.6-7.67-2.81-6.16c-10.41,1.51-33.16,24.8-35.26,29.24
			c-2.11,4.44-51.84,37.25-51.84,37.25L2188.27,548.72z"/>
		<path class="st0" d="M2197.95,550.2l30.69-27.32l27.42-41.29c0,0,6.79-7.84-3.13-5.59s-30.19,26.02-31.91,30.38
			c-1.72,4.36-47.31,39.25-47.31,39.25L2197.95,550.2z"/>
		<path class="st0" d="M2196.32,552.98l20.47-12.72l36.78-41.01c0,0,7.95-6.65-2.19-6.02c-10.14,0.64-33.96,20.86-36.36,24.89
			c-2.4,4.03-52.98,31.18-52.98,31.18L2196.32,552.98z"/>
		<g>
			<path class="st48" d="M2184.24,530.95c0,0,10.87-7.63,21.65-16.24c10.79-8.61,29.87-33.96,29.87-33.96"/>
			<path class="st48" d="M2194.8,536.33c0,0,13.89-9.88,24.68-18.48c10.79-8.61,29.87-33.96,29.87-33.96"/>
			<path class="st48" d="M2200.56,541.11c0,0,7.25-4.83,18.04-13.44c10.79-8.61,29.87-33.96,29.87-33.96"/>
		</g>
	</g>
</g>
<g id="Hose_Kopie_Kopie">
	<g>
		<path class="st49" d="M1603.13,764.68c17.12-65.16,89.16-175.41,89.16-175.41l47.78-15.08c0,0-25.79,24.95-45.28,57.42
			c-12.42,20.71-49.97,107.4-67.36,147.98c-0.43,1.02-24.43-13.53-24.43-13.53"/>
		<path class="st50" d="M1666.63,1190.81c-2.88,2.16,18.55,164.64,36.17,335.3c9.39,90.96,22.85,184.39,26.09,260.07
			c0.02,0.39-10.9,2.35-10.77,3.17c5.03,30.22,17.19,68.88,19.98,76.23c0,0,28.81,28.34,96.39,3c0.24-0.09,3.73-30.37,11.18-77.03
			c0.24-1.48-9.83-0.26-9.8-1.79c1.45-66.82,4.14-168.63,6.02-265.31c3.04-156.13,5.85-306.45,5.85-306.45L1666.63,1190.81z"/>
		<path class="st51" d="M1728.89,1786.18c-0.38-0.08-10.9,2.35-10.77,3.17c5.03,30.22,17.19,68.88,19.98,76.23
			c0,0,28.81,28.34,96.39,3c0.24-0.09,3.73-30.37,11.18-77.03c0.24-1.48-8.31-2.18-9.8-1.79
			C1807.99,1796.95,1780.65,1797.78,1728.89,1786.18z"/>
		<path class="st50" d="M2032.16,1214.42c0.47-7.04,35.17,351.2,34.38,566.76c0,0.39,0,0.77,0,1.16c0,0.84,7.87,3.01,7.86,3.84
			c-0.17,30.63-6.05,70.74-7.65,78.44c0,0-23.95,32.55-94.69,18.24c-0.25-0.05-8.49-29.39-23.25-74.28
			c-0.47-1.43,8.49-4.56,8.22-6.07c-9.56-52.3-12.56-154.2-27.29-231.67c-33.68-177.15-82.55-345.1-82.55-345.1L2032.16,1214.42z"/>
		<g>
			<path class="st50" d="M1710.8,1012.03c-20.95,50.8-35.33,104.1-44.29,179.18c79.05,37.63,170.09,38.21,257.61,35.86
				c36.43-0.98,73.23-2.39,108.41-11.91c-11.26-63.04-50.56-217.15-52.27-218.03c-0.1-0.05-0.39,1.08-0.55,1.1
				c-3.87,0.55-9.16,2.85-9.39,2.21c-8.57,3.63-45.42,11.95-120.92,9.94c-39.32-1.04-87.1-1.52-135.14-6.21
				c-0.03,0-0.69,4.01-0.69,3.93"/>
		</g>
	</g>
	<path class="st52" d="M1735.93,1057.74c0,0,0.58,0.14,1.66,0.38c13.56,3.13,105.52,24.16,109.74,20.32
		c4.56-4.14,3.73-9.94,3.73-9.94l-114.61-23.98L1735.93,1057.74"/>
	<g>
		<path class="st53" d="M1735.93,1057.74c0,0,0.58,0.14,1.66,0.38c13.56,3.13,111.31,25.4,115.53,21.56
			c4.56-4.14,13.67-57.98,13.67-57.98l-130.34,22.81L1735.93,1057.74"/>
		<path class="st53" d="M1882.11,1070.58c0,0,0.58,3.89,1.66,4.14c13.56,3.13,108.84-7.35,113.06-11.18
			c4.56-4.14-11.18-52.59-11.18-52.59l-120.1,12.01l17.39,51.35"/>
	</g>
	<g>
		<path class="st53" d="M1896.88,1415.13c0,0,63.5,268.9,77.3,295.96c13.8,27.06,28.71,86.69,28.71,86.69l-46.66,5.52
			C1956.24,1803.3,1910.69,1445.5,1896.88,1415.13z"/>
		<g>
			<g>
				<path class="st54" d="M1856.62,1232.36c11.79,35.87,22.74,72.01,32.83,108.39c10.14,36.56,19.42,73.35,27.82,110.35
					c8.36,36.82,15.86,73.83,22.49,111c6.7,37.57,12.52,75.31,17.42,113.16c4.85,37.44,8.82,75,11.9,112.63
					c0.39,4.7,0.76,9.41,1.11,14.11c0.15,1.91,3.15,1.93,3,0c-2.88-37.83-6.65-75.59-11.31-113.24
					c-4.63-37.42-10.14-74.74-16.51-111.9c-6.45-37.57-13.78-74.99-22-112.21c-8.18-37.05-17.23-73.9-27.15-110.52
					c-9.92-36.62-20.7-73-32.34-109.11c-1.45-4.49-2.91-8.98-4.38-13.46C1858.91,1229.74,1856.01,1230.52,1856.62,1232.36
					L1856.62,1232.36z"/>
			</g>
		</g>
	</g>
	<path class="st55" d="M1968.79,1805l-10.34,5.21c0,0,18.5,62.95,23.19,75.09"/>
	<path class="st51" d="M2066.79,1783.9c0.36-0.13,11.11,1,11.07,1.83c-1.29,30.6-8.61,70.47-10.49,78.11c0,0-25.5,36.67-95.68,19.8
		c-0.25-0.06-10.07-29.98-23.19-75.37c-0.42-1.44,6.21-5.17,7.73-4.97C1984.8,1807,2016.84,1801.75,2066.79,1783.9z"/>
	<path class="st55" d="M1736.76,1789.22l-10.49,2.76c0,0,13.8,73.99,18.77,78.96"/>
	<g>
		<g class="st56">
			<path class="st52" d="M1846.64,1229.88c-3.87-1.24-42.79-3.31-50.52-2.21c-5.52,0.79,10.49,15.18,14.36,20.71
				c10,14.29,10.45,35.92,10.88,53.35c2.18,88.21-3.94,390.72-1.77,478.93c0.07,2.83,17.44,8.65,17.67-1.66
				c2.21-99.94,5.67-419.5,10.49-510.2c0.59-11.05,2.52-27.47-0.55-38.1"/>
		</g>
		<g class="st56">
			<path class="st52" d="M2035.86,1585.23c-3.73,2.02-4.99,7.48-8.39,11.7c-8.72,10.83-13.57,23.52-21.04,35.25
				c-2.79,4.39-5.1,11.09-0.78,13.99c2.57,1.73,6.04,0.82,8.87-0.45c21.86-9.78,32.11-63.75,21.38-60.57"/>
		</g>
		<g class="st56">
			<path class="st52" d="M2020.89,1654.02c-1.65,0.3-2.79,2.19-4.59,3.36c-4.61,2.99-7.99,7.15-12.23,10.63
				c-1.59,1.3-3.28,3.53-2.02,5.15c0.75,0.96,2.17,1.05,3.38,0.92c9.41-0.98,19.89-19.96,15.48-20.09"/>
		</g>
		<g class="st56">
			<path class="st52" d="M1800.64,1584.4c-3.73,2.02-4.99,7.48-8.39,11.7c-8.72,10.83-13.57,23.52-21.04,35.25
				c-2.79,4.39-5.1,11.09-0.78,13.99c2.57,1.73,6.04,0.82,8.87-0.45c21.86-9.78,32.11-63.75,21.38-60.57"/>
		</g>
		<g class="st56">
			<path class="st52" d="M1785.67,1653.2c-1.65,0.3-2.79,2.19-4.59,3.36c-4.61,2.99-7.99,7.15-12.23,10.63
				c-1.59,1.3-3.28,3.53-2.02,5.15c0.75,0.96,2.17,1.05,3.38,0.92c9.41-0.98,19.89-19.96,15.48-20.09"/>
		</g>
		<path class="st53" d="M1709.22,1039.68l-0.83,2.43l-28.78,92.25c0,0,36.44-17.39,47.21-41.41c8.02-17.89,9.63-48.42,9.63-48.42
			L1709.22,1039.68z"/>
		<path class="st53" d="M1988.44,1042.52l1.76,4.24l23.19,90.17c0,0-32.3-31.27-43.48-51.04c-9.65-17.07-14.18-35.51-14.18-35.51
			L1988.44,1042.52z"/>
		<path class="st53" d="M1770.18,1191.5c0,0,54.48,22.08,52.51,25.03c-1.96,2.94-44.17,0.98-50.55-1.96
			C1765.77,1211.63,1757.92,1194.45,1770.18,1191.5z"/>
		<path class="st53" d="M1867.07,1235.12c0,0,9.39,4.42,34.79-9.94s18.77,3.31,9.39,9.94
			C1901.85,1241.75,1867.07,1235.12,1867.07,1235.12z"/>
	</g>
	<g>
		<g class="st56">
			<path class="st52" d="M1956.59,1803.77c30.02,1.97,60.35-0.89,89.47-8.45c4.09-1.06,17.58-6.11,21.45-11.91
				c0.08-0.11-0.03-5.02-1.1-9.11c-34.11,11.48-73.81,23.98-109.66,27.25"/>
		</g>
		<g>
			<g>
				<path class="st54" d="M1952.86,1051.1c3.31,14.01,9.15,27.27,16.84,39.42c7.63,12.06,16.87,23.02,26.55,33.47
					c5.67,6.12,11.5,12.09,17.33,18.05c1.35,1.38,3.47-0.74,2.12-2.12c-10.11-10.33-20.24-20.68-29.45-31.83
					c-8.82-10.69-16.72-22.2-22.56-34.79c-3.42-7.37-6.06-15.08-7.93-22.99C1955.31,1048.43,1952.42,1049.22,1952.86,1051.1
					L1952.86,1051.1z"/>
			</g>
		</g>
	</g>
	<g>
		<path class="st57" d="M1701.14,1037.04c0,0,184.28,38.93,290.71,3.31l-9.94-43.21c-66.26,24.85-265.45,6.76-265.45,6.76
			L1701.14,1037.04z"/>
		<path class="st58" d="M1779.41,1187.36c0,0,62.53,28.57,67.5,41.41l4.14,0.83c11.18-6.63,15.74-175.17,15.74-175.17"/>
		<path class="st58" d="M1846.5,1228.36c0,0-40.17-3.73-50.52-1.66"/>
		<g>
			<g>
				<path class="st54" d="M1673.14,1186.53c4.84,38.11,9.35,76.26,13.65,114.44c4.44,39.47,8.66,78.97,12.73,118.48
					c4.12,39.98,8.09,79.97,11.98,119.98c3.86,39.64,7.64,79.29,11.4,118.94c3.65,38.46,7.29,76.91,10.99,115.37
					c0.45,4.7,0.91,9.41,1.36,14.11c0.18,1.9,3.19,1.92,3,0c-3.69-38.24-7.32-76.49-10.95-114.74
					c-3.75-39.55-7.51-79.09-11.34-118.63c-3.87-40-7.82-80-11.9-119.99c-4.05-39.62-8.23-79.22-12.63-118.8
					c-4.27-38.39-8.74-76.75-13.53-115.08c-0.59-4.69-1.18-9.38-1.77-14.06C1675.9,1184.64,1672.9,1184.62,1673.14,1186.53
					L1673.14,1186.53z"/>
			</g>
		</g>
		<g>
			<g>
				<path class="st54" d="M1736.73,1044.06c-1.72,10.46-3.09,21-5.56,31.32c-2.28,9.53-5.62,18.91-11.41,26.9
					c-2.9,4-6.43,7.59-10.36,10.58c-2.27,1.73-4.71,3.25-7.08,4.84c-6.16,4.13-12.34,8.26-18.23,12.76
					c-1.22,0.93-2.44,1.87-3.58,2.9c-0.34,0.31-0.68,0.63-0.98,0.99c-0.12,0.14-0.25,0.28-0.34,0.43c-0.1,0.18,0.03-0.23,0.02-0.03
					c-0.09,1.33,2.54-0.07,2.27,0.83c0.03-0.08-0.01-0.2,0-0.29c0.11-0.64,0.09-0.83,0.22-1.56c0.14-0.75,0.3-1.5,0.47-2.25
					c0.2-0.91,0.47-1.82,0.65-2.74c0.3-1.59-1.87-2.73-2.74-1.16c-0.39,0.71-0.5,1.63-0.69,2.39c-0.52,2.01-1.01,4.03-1.47,6.06
					c-0.88,3.9-1.65,7.82-2.29,11.76c-1.3,7.94-2.14,15.95-2.5,23.99c-0.2,4.63-0.24,9.27-0.12,13.9c0.05,1.93,3.05,1.93,3,0
					c-0.25-10.07,0.24-20.14,1.5-30.13c0.62-4.94,1.45-9.85,2.45-14.73c0.51-2.5,1.08-5,1.69-7.48c0.3-1.24,0.62-2.48,0.95-3.72
					c0.06-0.23,0.49-1.26,0.08-0.51c-0.91-0.39-1.83-0.77-2.74-1.16c-0.42,2.25-1.11,4.43-1.38,6.71c-0.14,1.16,0.02,2.76,1.6,2.74
					c0.81-0.01,1.19-0.55,1.64-1.1c-0.32,0.39,0.04-0.03,0.12-0.12c0.21-0.2,0.41-0.41,0.62-0.6c2.29-2.11,4.89-3.91,7.42-5.73
					c3.39-2.43,6.83-4.8,10.28-7.14c6.37-4.32,12.95-8.3,18.18-14.05c7-7.69,11.39-17.23,14.25-27.14
					c3.45-11.97,4.95-24.4,6.97-36.67C1739.93,1042.97,1737.04,1042.15,1736.73,1044.06L1736.73,1044.06z"/>
			</g>
		</g>
		<g>
			<g>
				<path class="st54" d="M1848.15,1232.84c15.64,2.16,31.75-2.62,43.62-13.05c1.45-1.28-0.68-3.39-2.12-2.12
					c-10.98,9.65-26.21,14.28-40.71,12.28c-0.81-0.11-1.6,0.2-1.85,1.05C1846.9,1231.7,1847.35,1232.73,1848.15,1232.84
					L1848.15,1232.84z"/>
			</g>
		</g>
		<g class="st59">
			<path class="st54" d="M1683.2,736.8c-6.63,17.67,9.39,56.6,21.53,86.14"/>
		</g>
		<g class="st56">
			<path class="st52" d="M1728.06,1787.67c29.42,6.29,59.41,10.06,89.32,6.79c4.2-0.46,14.73-2.62,18.91-4.14
				c1.52-0.55,1.71-8.5,1.24-12.7c-35.42,6.43-73.05,9.83-109,7.88"/>
		</g>
	</g>
</g>
<g id="Shirt_3_">
	<g id="Kleidung_3_">
		<path class="st10" d="M1746.97,571.7c0,0,14.91,46.88,91.11,46.88c83.98,0,87.79-42.78,87.79-42.78l63.77,14.94
			c0,0,9.8,177.11-18.22,252.61c-14.08,55.49-5.54,78.93-5.45,79.58c1.66,12.63,6.81,22.97,14.98,74.33
			c0,0-43.34,18.08-136.66,14.22c-82.76-3.43-128.85-6.94-128.38-7.59c3.38-4.62,10.35-43.76,16.15-81.86
			c1.99-13.11-17.3-73.95-19.88-80.34c-39.76-98.56-19.67-252.41-19.67-252.41L1746.97,571.7z"/>
		<path class="st10" d="M1692.29,589.27c0,0-62.12,89.45-89.45,177.24c24.02,42.24,93.59,51.35,93.59,51.35l39.76-86.14
			L1692.29,589.27z"/>
		<path class="st10" d="M1988.82,591.03c0,0,73.44,80.76,100.77,168.55c-24.02,42.24-89.97,53.98-89.97,53.98l-54.69-80.08
			L1988.82,591.03z"/>
	</g>
	<g>
		<path class="st2" d="M1997.65,1052.36c0,0-108.5,22.78-113.47,15.74s-18.22-59.22-18.22-59.22l115.95-12.84L1997.65,1052.36z"/>
		<path class="st2" d="M1691.2,1042.01c0,0,154.88,33.54,159.85,26.5c4.97-7.04,16.01-59.77,16.01-59.77l-151.02-7.32
			L1691.2,1042.01z"/>
	</g>
	<path class="st2" d="M1604.86,782.04l-3.73,15.17l87.59,46.17c0,0,5.06-17.65,4.99-17.97
		C1693.33,823.82,1604.86,782.04,1604.86,782.04z"/>
	<path class="st2" d="M2090.42,761.22l14.94,17.47l-83.65,52.44c0,0-10.05-14.94-10.1-14.94
		C2009.98,816.19,2090.42,761.22,2090.42,761.22z"/>
	<g>
		<path class="st60" d="M1741.18,579.71c0,0-50.8,68.88-58.67,91.66c-2.96,8.56-45.71,114.25-45.71,114.25"/>
		<path class="st60" d="M1750.01,595.17c0,0-58.88,93.17-62.53,101.46c-12.42,28.16-33.29,98.41-33.29,98.41"/>
		<path class="st60" d="M1756.08,601.24c0,0-61.15,91.66-52.04,137.21c3.68,18.41,33.27,133.9,33.27,147.15
			c0,13.25-4.9,117.06-4.9,117.06"/>
		<path class="st60" d="M1751.67,1002.25c0,0,2.21-111.67,0.55-131.55s-26.21-119.46-25.81-134.73
			c0.83-31.89,44.03-124.24,44.03-124.24"/>
		<path class="st60" d="M1790.32,619.46c0,0-33.82,103.67-33.27,131.83s18.91,250.27,18.91,250.27"/>
		<path class="st60" d="M1813.51,624.99c0,0-20.84,93.18-22.09,132.1c-1.12,34.98,11.6,243.92,11.6,243.92"/>
		<path class="st60" d="M1828.69,626.64c0,0-1.79,94.97,0.41,127.55c2.21,32.58,0,253.03,0,253.03"/>
		<polyline class="st60" points="1850.5,626.64 1853.82,731.55 1861.41,1005.15 		"/>
		<polyline class="st60" points="1896.19,1002.66 1883.63,734.87 1871.49,623.88 		"/>
		<path class="st60" d="M1898.54,615.6c0,0,29.26,87.79,29.26,109.88s6.07,276.77,6.07,276.77"/>
		<path class="st60" d="M1959.14,998.11c0,0-5.94-158.88-4.28-173.79c1.66-14.91,20.98-78.41,12.7-104.36
			c-8.28-25.95-53.01-115.95-53.01-115.95"/>
		<path class="st60" d="M1927.25,587.99c0,0,20.98,12.7,36.44,39.76c15.46,27.06,67.28,172.45,67.28,172.45"/>
		<path class="st60" d="M2056.23,783.36c0,0-51.67-157.27-62.72-168.31s-64.6-33.96-64.6-33.96"/>
	</g>
	<path class="st61" d="M1712.46,1007.91c149.64,24.3,273.6,1.38,273.6,1.38l-4.14-13.25c0,0-209.82,11.6-266.69,4.97"/>
	<path class="st62" d="M1715.78,1002.66c220.17,18.64,266.14-6.63,266.14-6.63l-4.56-13.25c-0.08-0.65-41.02,19.23-260.9,18.84"/>
	<path class="st63" d="M1989.16,591.44l-56.25-13.46l-1.16,2.01l-1.18-0.56c0,0-26.92,43.9-72.89,45.14
		c-45.97,1.24-94.83-19.46-94.83-19.46s63.77,63.36,123.82,40.58c45.97-17.44,69.56-38.98,79.37-46.31
		c6.18,4.91,14.74,14.41,19.19,20.64c16.56,23.19,83.86,118.13,61.39,70.45C2024.16,642.79,1989.16,591.44,1989.16,591.44z"/>
	<path class="st64" d="M1836.98,609.8c0,0-10.04,13.22-9.52,13.22c0.52,0,20.71-0.21,20.71-0.21L1836.98,609.8z"/>
	<path class="st63" d="M1731.17,921.29c0,0,43,45.48,43,63.71s1.52,16.43,1.52,16.43l-58.6,0.41L1731.17,921.29z"/>
	<polygon class="st65" points="1826.21,606.56 1820.41,627.06 1854.78,626.85 1850.43,613.6 	"/>
	<g>
		<path class="st65" d="M1740.07,574.19c0,0,49.97,88.9,59.91,87.79s37.82-51.49,37.82-51.49l-90.28-39.07L1740.07,574.19"/>
		<path class="st65" d="M1932.43,576.95c0,0-41.9,88.62-51.83,87.52c-9.94-1.1-45.07-53.97-45.07-53.97l93.11-33.82"/>
	</g>
	<g class="st66">
		<path class="st67" d="M1995.2,702.54c-4,9.68-8.63,69.24-12.84,86.71c-0.04,0.18,16.31,23.68,16.31,23.68s46.07-24.8,44.62-21.89
			c-0.83,1.66-23.26-49.35-37.99-73.77c-1.5-2.49-7.55-14.6-10.1-15.99"/>
	</g>
	<g class="st68">
		<path class="st49" d="M1690.66,709.88c-0.65,12.55,4.94,60.6,8.32,72.3c3.9,13.51,12.4,38.91,19.71,49.4
			c7.31,10.5,18.47,13.31,29.01,14.23c1.22,0.11,2.62,0.02,3.41-1.26c0.73-1.18,0.64-2.93,0.4-4.45
			c-1.64-10.48-8.2-17.89-14.08-24.93c-15.23-18.21-31.61-63.14-42.38-86.62"/>
	</g>
	<g class="st69">
		<path class="st70" d="M1692.14,588.9c-0.65,12.55-2.85,64.15,0.53,75.85c3.9,13.51,12.4,38.91,19.71,49.4
			c7.31,10.5,18.47,13.31,29.01,14.23c1.22,0.11,2.62,0.02,3.41-1.26c0.73-1.18,0.64-2.93,0.4-4.45
			c-1.64-10.48-8.2-17.89-14.08-24.93c-15.23-18.21-31.61-63.14-42.38-86.62"/>
	</g>
	<path class="st71" d="M1924.77,576.09c0,0-6.69,45.24-90.07,42.48c-75.94-2.51-88.83-46.59-88.83-46.59"/>
	<g>
		<path class="st72" d="M1591.19,766.41c0,0,61.98,38.65,110.57,58.81"/>
		<path class="st72" d="M2095.17,757.05c0,0-46.3,39.78-98.07,60.82"/>
	</g>
	<g class="st66">
		<path class="st67" d="M1982.33,788.98c-10.2,30.98-23.4,85.72-46.59,131.48c-2.69,5.3-17.32,55.55-17.32,81.65
			c0,3.31,46.52-1.1,63.08-6.9c-9.31-34.94-19.17-67.13-19.26-89.66c-0.16-40.74,6.08-51.65,12.42-75.68
			c2.36-8.94,4.4-17.55,4.88-21.34"/>
	</g>
	<path class="st65" d="M1991.86,723.13l-8.65,68.01c0,0,9.9,7.36,11.97-11.69S1991.86,723.13,1991.86,723.13z"/>
	<path class="st65" d="M1676.02,764.13l24.3,44.45C1700.32,808.58,1677.95,781.8,1676.02,764.13z"/>
	<polygon class="st73" points="1594.44,760.96 1627.29,780.14 1622.46,792.29 1587.54,772 	"/>
	<g>
		<path class="st2" d="M1739.52,569.84l48.59-15.46l48.87,55.49c0,0-34.37,47.42-34.51,47.21
			C1801.76,656.03,1739.52,569.84,1739.52,569.84z"/>
		<path class="st2" d="M1930.01,575.29l-47.2-18.81l-45.84,53.32c0,0,39.81,47.43,40.03,47.21
			C1877.97,656.05,1930.01,575.29,1930.01,575.29z"/>
	</g>
	<path class="st49" d="M1603.13,764.68c17.12-65.16,89.16-175.41,89.16-175.41l47.78-15.08c0,0-25.79,24.95-45.28,57.42
		c-12.42,20.71-49.97,107.4-67.36,147.98c-0.43,1.02-24.43-13.53-24.43-13.53"/>
</g>
</svg>
