<?xml version="1.0" encoding="utf-8"?>
<!-- Generator: Adobe Illustrator 25.4.0, SVG Export Plug-In . SVG Version: 6.00 Build 0)  -->
<svg version="1.1" id="Musik" xmlns="http://www.w3.org/2000/svg" xmlns:xlink="http://www.w3.org/1999/xlink" x="0px" y="0px"
	 viewBox="0 0 3840 2160" style="enable-background:new 0 0 3840 2160;" xml:space="preserve">
<style type="text/css">
	.st0{fill:#FFB699;}
	.st1{fill:#54A465;}
	.st2{fill:#FFF8C5;}
	.st3{fill:none;stroke:#2E753B;stroke-miterlimit:10;}
	.st4{fill:#76C484;}
	.st5{fill:#F99A79;}
	.st6{fill:#449353;}
	.st7{fill:none;stroke:#FFF8C5;stroke-width:2;stroke-miterlimit:10;}
	.st8{fill:#FFF8C5;stroke:#002A2B;stroke-miterlimit:10;}
	.st9{fill:none;stroke:#22722F;stroke-miterlimit:10;}
	.st10{fill:#CCF6E6;}
	.st11{fill:none;stroke:#002A2B;stroke-width:4;stroke-miterlimit:10;}
	.st12{fill:#995B34;}
	.st13{fill:#633318;}
	.st14{fill:#AA6944;}
	.st15{fill:#D86C45;}
	.st16{fill:#FFCAB8;}
	.st17{fill:#FFFFFF;}
	.st18{display:none;fill:url(#SVGID_1_);}
	.st19{display:none;fill:#16100B;}
	.st20{display:none;fill:#FFFFFF;}
	.st21{fill:url(#SVGID_00000160897675768327440230000002381574398060784023_);}
	.st22{fill:#16100B;}
	.st23{fill:url(#SVGID_00000067202066633578007920000000135780380651039415_);}
	.st24{fill:#FCD2CA;}
	.st25{fill:url(#SVGID_00000067955558214560970090000016987465813162847880_);}
	.st26{fill:url(#SVGID_00000072982037202176422020000012927253529361009288_);}
	.st27{display:none;}
	.st28{display:inline;}
	.st29{fill:#841A06;}
	.st30{fill:#D64B2B;}
	.st31{display:inline;fill:#FFAF9C;}
	.st32{fill:#894A27;}
	.st33{opacity:0.72;fill:#F99A79;}
	.st34{opacity:0.72;fill:#E27F64;}
	.st35{opacity:0.33;fill:#F98869;}
	.st36{fill:#D88C66;}
	.st37{fill:none;stroke:#995B34;stroke-miterlimit:10;}
	.st38{fill:#FFAF9C;}
	.st39{fill:#F0FFF9;}
	.st40{fill:#545454;}
	.st41{fill:#3F3F3F;}
	.st42{fill:#28564D;}
	.st43{opacity:0.41;fill:#28564D;}
	.st44{fill:#002A2B;}
	.st45{fill:none;stroke:#CCF6E6;stroke-miterlimit:10;}
	.st46{opacity:0.41;}
	.st47{fill:#336B61;stroke:#002A2B;stroke-miterlimit:10;}
	.st48{fill:none;stroke:#002A2B;stroke-width:2;stroke-miterlimit:10;}
	.st49{opacity:0.31;}
	.st50{fill:#FCA181;}
	.st51{fill:none;stroke:#64D250;stroke-width:12;stroke-miterlimit:10;}
	.st52{fill:none;stroke:#006A58;stroke-width:0.25;stroke-miterlimit:10;}
	.st53{fill:#EAE0A4;}
	.st54{fill:#97D1B8;}
	.st55{opacity:0.44;fill:#C3EDDC;}
	.st56{fill:#EAE1AC;}
	.st57{opacity:0.31;fill:#002A2B;}
	.st58{opacity:0.44;}
	.st59{fill:#C3EDDC;}
	.st60{opacity:0.45;}
	.st61{display:none;opacity:0.45;}
	.st62{display:inline;fill:#F0FFF9;}
	.st63{fill:none;stroke:#64D250;stroke-width:16;stroke-miterlimit:10;}
	.st64{fill:#A5EA96;}
	.st65{display:inline;fill:#FFB699;}
	.st66{display:inline;fill:#F99A79;}
	.st67{display:inline;fill:#9DE88E;}
	.st68{display:inline;fill:#64D250;}
	.st69{display:inline;fill:#FCA181;}
	.st70{display:inline;fill:none;stroke:#FFFFFF;stroke-miterlimit:10;}
	.st71{fill:#64D250;}
</style>
<g id="Füsse_Kopie_Kopie_2_Kopie_Kopie_2_Kopie">
	<g>
		<g>
			<polygon class="st0" points="1753.42,1858.83 1762.7,1952.71 1820.55,1958.71 1826.56,1835.36 			"/>
			<path class="st1" d="M1751.92,1907.41c0,0,0.61,32.75-11.89,51.56c-4.82,7.25-12.94,13.61-20.43,18.47
				c-1.45,0.94-2.92,1.8-4.39,2.56c-19.1,9.82-66.04,35.48-78.05,49.67c-12.01,14.19-13.1,26.2-13.1,26.2l-6.55,2.18l9.96,9.01
				c0,0,10.64,13.24,49.94,2.87c39.3-10.37,150.23-73.82,150.23-73.82l0.2-92.38l-4.91-0.2c0,0-9.48,8.26-34.59,7.16
				c-25.11-1.09-31.31-8.39-31.31-8.39L1751.92,1907.41z"/>
			<path class="st2" d="M1624.07,2055.86l-6.55,2.18l7.1,11.46c0,0,15.96,11.19,55.26,0.82c39.3-10.37,146.96-62.22,146.96-62.22
				l1.64-13.1l-25.38,13.92c0,0-45.03,19.65-70.82,29.06C1646.63,2069.25,1624.07,2055.86,1624.07,2055.86z"/>
			<path class="st3" d="M1827.92,1980.54"/>
			<g>
				<path class="st4" d="M1630.17,2050.91c1.06-11.13,8.08-21.51,18.02-26.62c1.13-0.58,2.88-0.89,3.35,0.29
					c0.3,0.77-0.24,1.58-0.76,2.23c-6.07,7.61-12.14,15.22-18.21,22.83c-0.49,0.62-1.31,1.3-1.96,0.86"/>
			</g>
			<path class="st5" d="M1753.97,1867.56l0.82,10.37c0,0,29.06,9.96,48.71,7.78c14.27-1.59,20.47-6.96,20.47-6.96l2.05-22.65
				l-72.04,6.55V1867.56"/>
		</g>
		<path class="st6" d="M1826.42,1919.28c0,0-1.64,53.21-17.19,63.86c-15.56,10.64-128.53,70-128.53,70s65.9-15.56,102.75-35.2
			c31.46-16.78,44.21-21.83,44.21-21.83L1826.42,1919.28z"/>
		<path class="st7" d="M1714.67,1977.81c28.24-11.87,46.05,16.17,46.05,16.17"/>
		<path class="st7" d="M1691.74,1990.5c28.24-11.87,46.05,16.17,46.05,16.17"/>
		<path class="st7" d="M1665.55,2006.06c28.24-11.87,46.05,16.17,46.05,16.17"/>
		<ellipse class="st8" cx="1807.88" cy="1941.41" rx="12.09" ry="17.35"/>
		<path class="st9" d="M1758.06,1905.22c0,0-0.27-1.09-3,8.19c-2.73,9.28-2.23,31.87,2.73,39.02c4.91,7.1,13.78,4.91,13.78,4.91"/>
		<path class="st10" d="M1757.34,1902.7c0,0,14.74,13.61,41.45,9.93c13.97-1.93,24.15-9.11,24.15-9.11l1.23-20.47
			c0,0-8.54,6.72-32.54,6.62c-23.74-0.1-35.82-5.59-35.82-5.59L1757.34,1902.7z"/>
		<ellipse class="st1" cx="1777.09" cy="1919.69" rx="21.49" ry="28.65"/>
		<path class="st6" d="M1796.13,1909.04c0,0-17.6,11.87-19.24,28.65c-1.64,16.78-5.32,19.65-5.32,19.65s9.01,1.64,18.42-19.65
			C1799.4,1916.41,1796.13,1909.04,1796.13,1909.04z"/>
		<path class="st11" d="M1752.6,1883.12c0,0,11.19,4.64,32.75,5.46c21.56,0.82,33.29-4.09,41.21-8.73"/>
	</g>
	<g>
		<g>
			<polygon class="st0" points="2055.41,1859.45 2058.27,1953.74 2001.67,1967.13 1979.86,1845.57 			"/>
			<path class="st1" d="M2063.14,1907.43c0,0,3.6,32.55,18.42,49.6c5.71,6.57,14.59,11.83,22.63,15.69
				c1.56,0.75,3.13,1.41,4.68,1.97c20.21,7.29,70.05,26.69,83.79,39.22c13.73,12.53,16.36,24.3,16.36,24.3l6.78,1.32l-8.72,10.21
				c0,0-8.85,14.49-49.16,9.26c-40.3-5.23-158.47-53.9-158.47-53.9l-12.08-91.58l4.85-0.83c0,0,10.47,6.97,35.22,2.66
				c24.76-4.31,29.98-12.35,29.98-12.35L2063.14,1907.43z"/>
			<path class="st2" d="M2209.02,2038.22l6.78,1.32l-5.56,12.28c0,0-14.39,13.15-54.7,7.92c-40.3-5.23-153.73-42.81-153.73-42.81
				l-3.31-12.78l26.96,10.54c0,0,47.18,13.7,73.97,19.72C2188.36,2054.4,2209.02,2038.22,2209.02,2038.22z"/>
			<path class="st3" d="M1997.17,1989.73"/>
			<g>
				<path class="st4" d="M2202.33,2034.09c-2.48-10.9-10.78-20.29-21.29-24.09c-1.19-0.43-2.97-0.51-3.28,0.72
					c-0.2,0.8,0.44,1.54,1.04,2.11c7,6.77,14,13.53,21,20.3c0.57,0.55,1.46,1.12,2.06,0.6"/>
			</g>
			<path class="st5" d="M2055.99,1868.18l0.52,10.39c0,0-27.54,13.61-47.31,13.97c-14.36,0.26-21.19-4.27-21.19-4.27l-4.94-22.2
				l72.29-2.77L2055.99,1868.18"/>
		</g>
		<path class="st6" d="M1990.78,1928.78c0,0,8.46,52.56,25.26,61.12c16.79,8.56,136.47,52.9,136.47,52.9s-67.36-6.95-106.42-21.7
			c-33.35-12.59-46.65-15.97-46.65-15.97L1990.78,1928.78z"/>
		<path class="st7" d="M2109.13,1972.46c-29.54-8.14-43.59,21.95-43.59,21.95"/>
		<path class="st7" d="M2133.5,1982.1c-29.54-8.14-43.59,21.95-43.59,21.95"/>
		<path class="st7" d="M2161.48,1994.16c-29.54-8.14-43.59,21.95-43.59,21.95"/>
		
			<ellipse transform="matrix(0.9917 -0.1285 0.1285 0.9917 -233.7508 274.7896)" class="st8" cx="2012.01" cy="1948.34" rx="12.09" ry="17.35"/>
		<path class="st9" d="M2056.77,1906.05c0,0,0.13-1.12,4.03,7.73c3.9,8.85,6.3,31.31,2.31,39.05c-3.96,7.67-13.04,6.64-13.04,6.64"
			/>
		<path class="st10" d="M2057.16,1903.46c0,0-12.86,15.39-39.83,15.17c-14.1-0.12-25.12-5.93-25.12-5.93l-3.85-20.14
			c0,0,9.33,5.57,33.12,2.38c23.53-3.15,34.8-10.15,34.8-10.15L2057.16,1903.46z"/>
		
			<ellipse transform="matrix(0.9917 -0.1285 0.1285 0.9917 -230.243 278.1443)" class="st1" cx="2039.75" cy="1922.84" rx="21.49" ry="28.65"/>
		<path class="st6" d="M2019.51,1914.73c0,0,18.98,9.51,22.76,25.94s7.8,18.8,7.8,18.8s-8.72,2.78-20.79-17.12
			S2019.51,1914.73,2019.51,1914.73z"/>
		<path class="st11" d="M2059.34,1883.43c0,0-10.5,6.04-31.77,9.62c-21.27,3.58-33.54,0.22-41.99-3.36"/>
	</g>
</g>
<g id="Haarehinten_15_">
	<path class="st12" d="M1964.73,492.01l5.57,23.42c9.76-2.4,21.45-60.8,17.97-86.4c-15.89-116.84-19.17-136.88-33.78-174.73
		c-16.1-41.73-33.81-61.3-68.66-73.01c-47.24-15.87-71.87-12.71-158.93,11.38c-75.01,20.76-91.06,105.99-98.06,145.52
		c-3.5,19.76-1.39,32.32,16.03,105.71c17.42,73.39,29.77,85.44,29.77,85.44s26.35,40.8,53.6,34.23l3.33-0.82l7.08-3.73
		c7.51-0.11-13.2-18.8-4.21-18.44c99.12,3.96,124.1-59.16,171.78-80.68l25.9-2.46l28.08,61.76c6.14-3.02-0.25,0.26,4.78-2.55
		L1964.73,492.01z"/>
	<path class="st13" d="M1937.14,409.96c0,0,1.52-14.69,10.29,3.38c12.37,25.5,8.2,107.05,8.2,107.05s-7.92,2.99-9.68,2.48
		c-1.76-0.51,0.97-34.25,0.97-34.25l-21.86-50.4L1937.14,409.96z"/>
	<path class="st13" d="M1877.27,428.54c-54.72-86.66,1.24-31.05-67.89-16.57c-84.92,17.78-102.31-60.83-125.91-16.36
		c-23.6,44.47,46.44,169.54,46.44,169.54c20.4-2.44,49.17-0.92,58.05-2.37c89.02-14.56,60.95-9.29,110.51-20.46
		C1898.76,542.24,1892.33,452.39,1877.27,428.54z"/>
	<polygon class="st13" points="1896.64,497.42 1901.38,540.24 1955.91,519.99 1928.77,402.04 	"/>
	<g>
		<g>
			<g>
				<path class="st14" d="M1711.28,474.82c3.45,22.41,7.31,44.75,11.29,67.07c1.22,6.85,2.46,13.69,3.69,20.53
					c0.09,0.47,0.81,0.27,0.72-0.2c-4.14-22.92-8.25-45.84-12.01-68.82c-1.02-6.25-2.02-12.51-2.98-18.78
					C1711.93,474.14,1711.2,474.34,1711.28,474.82L1711.28,474.82z"/>
			</g>
		</g>
		<g>
			<g>
				<path class="st14" d="M1730.69,498.08c1.81,15.74,5.38,31.19,8.57,46.68c1.05,5.09,2.06,10.18,3,15.28
					c0.09,0.47,0.81,0.27,0.72-0.2c-3.01-16.25-6.91-32.34-9.67-48.64c-0.74-4.36-1.38-8.74-1.88-13.13
					C1731.39,497.6,1730.64,497.6,1730.69,498.08L1730.69,498.08z"/>
			</g>
		</g>
		<g>
			<g>
				<path class="st14" d="M1920.08,459.83c-0.37,0.07-0.11-0.02-0.04,0.36c0.05,0.23,0.17,0.47,0.24,0.7
					c0.21,0.66,0.39,1.34,0.57,2.01c0.39,1.52,0.74,3.04,1.08,4.57c0.83,3.75,1.61,7.49,2.17,11.29c1.6,10.93,2.12,21.99,3.32,32.97
					c0.62,5.71,1.42,11.41,2.74,17.01c0.11,0.47,0.83,0.27,0.72-0.2c-2.62-11.15-3.28-22.66-4.29-34.03
					c-0.84-9.43-2.01-18.72-4.1-27.97c-0.41-1.8-0.82-3.62-1.35-5.39c-0.15-0.51-0.45-2.22-1.28-2.06
					C1919.41,459.2,1919.61,459.93,1920.08,459.83L1920.08,459.83z"/>
			</g>
		</g>
		<g>
			<g>
				<path class="st14" d="M1923.96,458.65c4.43,17.75,4.96,36.18,8.36,54.12c0.94,4.98,2.11,9.92,3.67,14.75
					c0.15,0.46,0.87,0.26,0.72-0.2c-5.62-17.42-6.37-35.92-9.12-53.9c-0.77-5.03-1.69-10.03-2.92-14.96
					C1924.57,457.98,1923.85,458.18,1923.96,458.65L1923.96,458.65z"/>
			</g>
		</g>
	</g>
</g>
<g id="Hals_19_">
	<path id="Hals_20_" class="st0" d="M1791.22,505.6l-1.23,66.11c0,0-46.44,14.93-63.36,23.67c-27.5,14.19,186.98,106.1,228.74,57.79
		c25-28.92,2.83-53.93-26.61-65.5c-11.46-4.5-45.64-13.71-45.64-13.71l-3.27-89.03L1791.22,505.6z"/>
	<path class="st15" d="M1790.81,509.9v19.65c0,0,43.19,36.43,91.28,15.35l-0.41-44L1790.81,509.9z"/>
	<path class="st16" d="M1793.26,534.46l-1.36,40.66c0,0,10.37-0.55,8.73-15.56C1798.99,544.56,1793.26,534.46,1793.26,534.46z"/>
	<path class="st5" d="M1882.23,563.39c0,0-18.28,33.29-54.31,45.3c-3.66,1.22-37.66,0-37.66,0l23.2,2.73c0,0,20.74,7.1,21.56,7.1
		s12.83,0.27,12.83,0.27l36.02-48.3L1882.23,563.39"/>
</g>
<g id="KOPFPBEN_Kopie_3_Kopie_Kopie_Kopie_Kopie_2_Kopie_Kopie_2_Kopie">
	<g id="Kopf_19_">
		<path id="Kopf_20_" class="st0" d="M1651.55,295.81c0,0,37.52,128.68,52.35,165.09c17.2,42.23,78.11,90.31,138.36,79.98
			c47.91-8.22,92.61-89.72,95.75-121.87c2.78-28.37-11.83-81.32-23.29-121.68c-7.28-25.66-46.38-52.9-81.73-75.82
			c-20.22-13.1-46.94-9.73-63.22,8.04L1651.55,295.81z"/>
		<path class="st15" d="M1798.67,225.32c0,0-58.53,110.41-106.61,131.3c-48.08,20.89-16.2,11.66-16.2,11.66l-6.05-44.25
			L1798.67,225.32z"/>
		<path class="st5" d="M1933.21,372.12c0,0-7.33,50.16-7.5,50.58c-3.76,8.98-39.13,108.08-78.16,116.52c0,0,35.6-4.42,68.11-63.89
			c15.58-28.49,22.17-54.55,22.17-54.55"/>
	</g>
	<g id="Augen_Kopie_3_Kopie_Kopie_Kopie_Kopie_2_Kopie_Kopie_2_Kopie">
		<g>
			<g>
				<path class="st17" d="M1846.93,361.92c0,0,7.88-26.63,23.33-28.59c15.45-1.96,23.19,5.21,32.43,17.96
					c0,0-3.65,14.15-20.47,17.75C1859.8,373.83,1846.93,361.92,1846.93,361.92z"/>
				
					<linearGradient id="SVGID_1_" gradientUnits="userSpaceOnUse" x1="1853.4475" y1="623.7973" x2="1853.1969" y2="598.8657" gradientTransform="matrix(0.9841 -0.1778 0.1778 0.9841 -46.9811 84.4985)">
					<stop  offset="0" style="stop-color:#008CB2"/>
					<stop  offset="0.2227" style="stop-color:#0188AD"/>
					<stop  offset="0.5014" style="stop-color:#047B9D"/>
					<stop  offset="0.8087" style="stop-color:#086684"/>
					<stop  offset="1" style="stop-color:#0B5570"/>
				</linearGradient>
				<path class="st18" d="M1901.7,347.23c1.81,1.58,2.06-0.62,1.67,1.61c-1.36,7.72-8.28,16.86-16.31,18.31
					c-10.35,1.87-20.29-5.17-22.2-15.72c-0.79-4.35-0.09-8.07,1.72-11.06c2.58-4.26,4.21-6.47,10.29-7.57
					C1887.22,330.94,1894.05,340.56,1901.7,347.23z"/>
				
					<ellipse transform="matrix(0.9841 -0.1778 0.1778 0.9841 -31.7649 340.381)" class="st19" cx="1883.12" cy="347.41" rx="7.78" ry="7.98"/>
				<g>
					<path class="st20" d="M1905.22,351.48c0,0-17.76-21.73-32.92-18.16c-15.16,3.57-18.85,12.54-23.04,27.71
						c0,0,10.05,11.21,27.07,8.69C1899.01,366.36,1905.22,351.48,1905.22,351.48z"/>
					
						<linearGradient id="SVGID_00000103958825152547808320000015405023780265058442_" gradientUnits="userSpaceOnUse" x1="1344.0522" y1="623.7927" x2="1343.793" y2="597.9916" gradientTransform="matrix(-0.9841 0.1778 0.1778 0.9841 3095.207 -483.2727)">
						<stop  offset="0" style="stop-color:#008CB2"/>
						<stop  offset="0.2227" style="stop-color:#0188AD"/>
						<stop  offset="0.5014" style="stop-color:#047B9D"/>
						<stop  offset="0.8087" style="stop-color:#086684"/>
						<stop  offset="1" style="stop-color:#0B5570"/>
					</linearGradient>
					<path style="fill:url(#SVGID_00000103958825152547808320000015405023780265058442_);" d="M1860.46,352.87
						c1.91,10.55,10.41,17.11,20.76,15.24c6.71-1.21,13.16-3.11,16.18-7.63c4.52-6.77,2.34-16.45,0.6-19.8
						c-4.32-8.31-14.83-8.74-22.81-8.82c-5.85-0.06-9.04,5.23-12.06,9.18C1860.73,344.2,1859.62,348.19,1860.46,352.87z"/>
					
						<ellipse transform="matrix(0.9841 -0.1778 0.1778 0.9841 -32.0566 339.746)" class="st22" cx="1879.44" cy="348.72" rx="7.78" ry="7.98"/>
					<path class="st17" d="M1875.78,353.96l-10.66,9.02c-0.94,0.79-2.35,0.67-3.14-0.26l-0.29-0.35c-0.79-0.94-0.67-2.35,0.26-3.14
						l10.66-9.02c0.94-0.79,2.35-0.67,3.14,0.26l0.29,0.35C1876.83,351.75,1876.72,353.16,1875.78,353.96z"/>
				</g>
				<g>
					<path d="M1845.04,360.08c1.64-6.08,4.17-11.87,7.47-17.1c3.84-6.09,9.05-11.65,15.75-13.52c5.61-1.56,11.68-0.38,17.13,1.94
						c5.46,2.32,15.54,12.22,17.63,12.56c0,0,4-0.48,5.37-2.15c-1.5,3.07-3.27,7.22-5.79,9.41c-5.32-4.98-4.74-5.51-12.46-10.99
						c-5.69-4.04-12.89-7.42-19.69-5.76c-7.38,1.8-12.92,8.21-16.29,15.37c-3.01,6.39-5.61,13.07-5.71,13.68"/>
				</g>
				<path class="st20" d="M1878.68,351.33l-10.66,9.02c-0.94,0.79-2.35,0.67-3.14-0.26l-0.29-0.35c-0.79-0.94-0.67-2.35,0.26-3.14
					l10.66-9.02c0.94-0.79,2.35-0.67,3.14,0.26l0.29,0.35C1879.73,349.13,1879.61,350.54,1878.68,351.33z"/>
			</g>
			<g>
				<g>
					<path class="st17" d="M1772.28,374.44c0,0-17.76-21.73-32.92-18.16c-15.16,3.57-18.85,12.54-23.04,27.71
						c0,0,10.05,11.21,27.07,8.69C1766.06,389.32,1772.28,374.44,1772.28,374.44z"/>
					
						<linearGradient id="SVGID_00000034071442639212959790000003771369716628039834_" gradientUnits="userSpaceOnUse" x1="1478.9578" y1="622.7501" x2="1478.6984" y2="596.949" gradientTransform="matrix(-0.9841 0.1778 0.1778 0.9841 3095.207 -483.2727)">
						<stop  offset="0" style="stop-color:#008CB2"/>
						<stop  offset="0.2227" style="stop-color:#0188AD"/>
						<stop  offset="0.5014" style="stop-color:#047B9D"/>
						<stop  offset="0.8087" style="stop-color:#086684"/>
						<stop  offset="1" style="stop-color:#0B5570"/>
					</linearGradient>
					<path style="fill:url(#SVGID_00000034071442639212959790000003771369716628039834_);" d="M1727.52,375.83
						c1.91,10.55,10.41,17.11,20.76,15.24c6.71-1.21,13.16-3.11,16.18-7.63c4.52-6.77,2.34-16.45,0.6-19.8
						c-4.32-8.31-14.83-8.74-22.81-8.82c-5.85-0.06-9.04,5.23-12.06,9.18C1727.79,367.16,1726.68,371.15,1727.52,375.83z"/>
					
						<ellipse transform="matrix(0.9841 -0.1778 0.1778 0.9841 -38.258 316.4732)" class="st22" cx="1746.49" cy="371.68" rx="7.78" ry="7.98"/>
				</g>
				<g>
					<path d="M1773.41,372.15c-3.64-4.99-8.02-9.41-12.91-13.05c-5.7-4.24-12.51-7.51-19.44-6.91c-5.8,0.51-11.08,3.7-15.39,7.7
						s-10.34,16.54-12.19,17.58c0,0-3.92,0.95-5.77-0.11c2.47,2.29,5.56,5.47,8.68,6.6c3.27-6.39,2.54-6.67,7.87-14.36
						c3.93-5.66,9.52-11.24,16.47-12.08c7.54-0.91,14.95,3.03,20.59,8.42c4.48,4.27,8.73,8.87,9.83,10.2
						c0.14,0.16,0.22,0.28,0.26,0.34"/>
				</g>
				<path class="st17" d="M1738.57,378.72l-10.66,9.02c-0.94,0.79-2.35,0.67-3.14-0.26l-0.29-0.35c-0.79-0.94-0.67-2.35,4.53-4.94
					l10.66-9.02c-3.34,1.01-1.92,1.12-1.13,2.06l0.29,0.35C1739.62,376.51,1739.5,377.92,1738.57,378.72z"/>
			</g>
		</g>
		<path class="st24" d="M1850.14,367.44c0.73,0.98,15.24,12.22,25.74,8.94c10.5-3.28,6.07,2.65,0.31,3.27
			C1857.16,381.7,1850.14,367.44,1850.14,367.44z"/>
		<path class="st24" d="M1776.59,380.04c-0.34,1.17-10,16.78-20.99,17.38c-10.98,0.6-4.76,4.61,0.85,3.17
			C1775.01,395.85,1776.59,380.04,1776.59,380.04z"/>
		
			<linearGradient id="SVGID_00000146458770047939471240000016687848646701958847_" gradientUnits="userSpaceOnUse" x1="2385.3853" y1="577.0645" x2="2450.8745" y2="577.0645" gradientTransform="matrix(-0.9841 0.1778 0.1778 0.9841 4002.6973 -647.2498)">
			<stop  offset="0" style="stop-color:#FFB699;stop-opacity:0"/>
			<stop  offset="0.0426" style="stop-color:#FDAF91;stop-opacity:0.0818"/>
			<stop  offset="0.1473" style="stop-color:#FBA383;stop-opacity:0.2831"/>
			<stop  offset="0.2788" style="stop-color:#F99C7B;stop-opacity:0.5359"/>
			<stop  offset="0.5203" style="stop-color:#F99A79"/>
			<stop  offset="0.7469" style="stop-color:#F99C7B;stop-opacity:0.5276"/>
			<stop  offset="0.866" style="stop-color:#FBA383;stop-opacity:0.2793"/>
			<stop  offset="0.9599" style="stop-color:#FDAF91;stop-opacity:0.0836"/>
			<stop  offset="1" style="stop-color:#FFB699;stop-opacity:0"/>
		</linearGradient>
		<path style="fill:url(#SVGID_00000146458770047939471240000016687848646701958847_);" d="M1756.75,340.86
			c2.01,6.5,3.56,9.34-7.75,8.89c-11.31-0.45-17.7-2.42-23.78,3.05c-6.08,5.47-12.87,16.26-18.62,16.68
			c-5.75,0.41-15.37-4.5-10.81-10.32s13.61-17.87,25.71-22.32C1747.05,327.43,1756.75,340.86,1756.75,340.86z"/>
		
			<linearGradient id="SVGID_00000124842123175295822110000014975864796118812315_" gradientUnits="userSpaceOnUse" x1="1613.917" y1="573.9268" x2="1679.4062" y2="573.9268" gradientTransform="matrix(0.9841 -0.1778 0.1778 0.9841 153.0138 48.3609)">
			<stop  offset="0" style="stop-color:#FFB699;stop-opacity:0"/>
			<stop  offset="0.0426" style="stop-color:#FDAF91;stop-opacity:0.0818"/>
			<stop  offset="0.1473" style="stop-color:#FBA383;stop-opacity:0.2831"/>
			<stop  offset="0.2788" style="stop-color:#F99C7B;stop-opacity:0.5359"/>
			<stop  offset="0.5203" style="stop-color:#F99A79"/>
			<stop  offset="0.7469" style="stop-color:#F99C7B;stop-opacity:0.5276"/>
			<stop  offset="0.866" style="stop-color:#FBA383;stop-opacity:0.2793"/>
			<stop  offset="0.9599" style="stop-color:#FDAF91;stop-opacity:0.0836"/>
			<stop  offset="1" style="stop-color:#FFB699;stop-opacity:0"/>
		</linearGradient>
		<path style="fill:url(#SVGID_00000124842123175295822110000014975864796118812315_);" d="M1843,322.09
			c0.4,6.79-0.07,10,10.37,5.61c10.44-4.38,15.73-8.46,23.35-5.47c7.61,2.99,17.75,10.73,23.28,9.11c5.53-1.62,12.82-9.6,6.51-13.45
			c-6.31-3.85-19-11.98-31.9-11.92C1847.39,306.11,1843,322.09,1843,322.09z"/>
		<path d="M1458.16,386.93c4.05,8.98-3.85,17.27-15.28,22.43s-23.24,3.85-27.29-5.13c-4.05-8.98,3.84-16.55,15.27-21.7
			C1442.28,377.37,1454.11,377.95,1458.16,386.93z"/>
		<path d="M2070.07,182.19c-1.15,7.92-10.19,10.14-20.27,8.68c-10.08-1.47-17.6-7.52-16.45-15.44c1.15-7.92,9.86-9.66,19.94-8.19
			C2063.38,168.71,2071.23,174.27,2070.07,182.19z"/>
		<path d="M2139.6,198.02c-1.15,7.92-10.19,10.14-20.27,8.68s-17.6-7.52-16.45-15.44c1.15-7.92,9.86-9.66,19.94-8.19
			S2140.76,190.1,2139.6,198.02z"/>
		<path d="M1544.85,292.45c-0.96,9.8-12.32,14.56-24.8,13.34c-12.48-1.22-21.34-7.96-20.38-17.76c0.96-9.8,10.27-15.25,22.75-14.02
			C1534.9,275.22,1545.81,282.64,1544.85,292.45z"/>
		<path d="M2114.92,421.31c-0.91,9.81-12.46,14.25-24.94,13.1c-12.48-1.15-21.16-7.46-20.26-17.27c0.91-9.81,10.12-13.83,22.6-12.67
			C2104.8,405.62,2115.82,411.5,2114.92,421.31z"/>
		<g>
			<g>
				<path d="M1415.63,404.33c7.97,14.74,15.66,29.63,23.79,44.29c2.32,4.19,4.68,8.35,7.08,12.49c1.94,3.35,7.02,0.37,5.18-3.03
					c-0.19-0.32-0.22-0.39-0.08-0.19c0,0.27-0.01,0.22-0.02-0.16c0.02-0.37,0.02-0.43,0-0.18c0.05-0.22,0.11-0.43,0.19-0.64
					c0.1-0.23,0.54-0.81,0.99-1.14c1.6-1.15,3.91-1.28,5.81-1.53c2.4-0.32,4.81-0.64,7.21-0.96c2.54-0.34,5-0.73,7.36-1.78
					c3.85-1.73,6.91-5.5,7.76-9.65c0.96-4.66-0.48-9.47-3.79-12.88c-2.69-2.78-6.93,1.47-4.24,4.24c2.39,2.46,3.05,6.19,1.54,9.13
					c-1.83,3.56-5.28,4.47-9.07,5c-2.42,0.34-4.85,0.64-7.27,0.97c-2.5,0.33-4.96,0.62-7.26,1.7c-4.11,1.93-6.61,6.87-4.31,11.1
					c1.73-1.01,3.45-2.02,5.18-3.03c-8.41-14.5-16.22-29.33-24.09-44.12c-2.25-4.23-4.5-8.45-6.78-12.66
					C1418.97,397.91,1413.79,400.93,1415.63,404.33L1415.63,404.33z"/>
			</g>
		</g>
		<g>
			<g>
				<path d="M1445.92,448c-0.13-1.28,0.21-2.23,1.26-3.17c1.07-0.96,2.66-1.42,4.12-1.6c4.04-0.51,8.11,0.48,12.14-0.34
					c3.85-0.79,6.76-3.76,7.71-7.54c1.02-4.05-0.26-8.11-2.21-11.67c-1.86-3.38-7.04-0.36-5.18,3.03c0.78,1.42,1.47,2.92,1.71,4.54
					c0.2,1.35,0.03,2.6-0.52,3.69c-0.61,1.19-1.5,1.82-2.9,2.13c-1.74,0.38-3.64,0.23-5.42,0.15c-3.87-0.15-7.83-0.17-11.36,1.69
					c-3.24,1.71-5.72,5.34-5.35,9.09c0.16,1.61,1.27,3,3,3C1444.42,451,1446.08,449.62,1445.92,448L1445.92,448z"/>
			</g>
		</g>
		<g>
			<g>
				<path d="M1487.49,284.85c17.57,4.07,35.28,7.48,53.14,10.05c5.3,0.76,10.61,1.46,15.93,2.11c1.61,0.2,3-1.52,3-3
					c0-1.78-1.38-2.8-3-3c-17.48-2.14-34.87-4.94-52.11-8.55c-5.13-1.07-10.25-2.21-15.36-3.39c-1.58-0.37-3.25,0.49-3.69,2.1
					C1484.98,282.68,1485.9,284.49,1487.49,284.85L1487.49,284.85z"/>
			</g>
		</g>
		<g>
			<g>
				<path d="M2114.59,422.13c-1.31-20.81-1.81-41.66-1.47-62.51c0.1-5.9,0.26-11.79,0.49-17.68c-1.96,0.27-3.93,0.53-5.89,0.8
					c2.73,7.27,6.67,15.06,14.27,18.18c6.33,2.6,14.69,1.15,18.28-5.11c1.93-3.35-3.26-6.38-5.18-3.03
					c-0.54,0.93-1.27,1.68-2.04,2.16c-1.05,0.64-1.59,0.81-2.97,1.1c-0.66,0.14,0.18,0.01-0.44,0.07c-0.31,0.03-0.63,0.05-0.95,0.06
					c-0.54,0.01-1.56-0.04-1.82-0.07c-0.28-0.04-1.26-0.25-1.79-0.41c-0.31-0.09-0.61-0.19-0.91-0.3c-0.53-0.2,0.1,0.08-0.45-0.2
					c-5.38-2.71-8.19-8.62-10.22-14.03c-1.16-3.1-5.76-2.73-5.89,0.8c-0.8,20.83-0.78,41.7,0.06,62.53
					c0.24,5.89,0.55,11.78,0.92,17.67c0.1,1.62,1.31,3,3,3C2113.14,425.13,2114.7,423.75,2114.59,422.13L2114.59,422.13z"/>
			</g>
		</g>
		<g>
			<g>
				<path d="M2069.44,183.53c3.46-18.95,6.93-37.89,10.39-56.84c0.99-5.39,1.97-10.78,2.96-16.17c0.34-1.89-2.55-2.7-2.89-0.8
					c-3.46,18.95-6.93,37.89-10.39,56.84c-0.99,5.39-1.97,10.78-2.96,16.17C2066.21,184.62,2069.1,185.43,2069.44,183.53
					L2069.44,183.53z"/>
			</g>
		</g>
		<g>
			<g>
				<path d="M2149.93,121.71c-6.03,18.43-10.44,37.38-13.13,56.59c-0.77,5.49-1.4,10.99-1.9,16.5c-0.17,1.92,2.83,1.91,3,0
					c1.73-19.18,5.17-38.2,10.26-56.78c1.43-5.21,2.99-10.39,4.67-15.52C2153.42,120.67,2150.53,119.88,2149.93,121.71
					L2149.93,121.71z"/>
			</g>
		</g>
		<g>
			<g>
				<path d="M2080.94,110.56c17.53,6.68,36.27,11.27,55.03,12.44c5.08,0.32,10.17,0.34,15.25-0.09c1.91-0.16,1.93-3.16,0-3
					c-18.5,1.55-37.46-2.15-55.13-7.4c-4.84-1.44-9.63-3.05-14.35-4.84C2079.94,106.98,2079.15,109.88,2080.94,110.56
					L2080.94,110.56z"/>
			</g>
		</g>
		<g>
			<g>
				<path d="M2078.42,124.3c15.56,10.24,34.52,15.13,53.1,13.88c5.28-0.35,10.52-1.19,15.64-2.52c1.87-0.48,1.08-3.38-0.8-2.89
					c-17.49,4.52-36.31,3.05-52.97-3.88c-4.7-1.96-9.21-4.39-13.46-7.18C2078.32,120.65,2076.82,123.25,2078.42,124.3L2078.42,124.3
					z"/>
			</g>
		</g>
	</g>
	<g id="Mund_10_" class="st27">
		<g class="st28">
			<path class="st29" d="M1783.27,462.02l-1.96,4.1c0,0,20.83,19.12,27.33,19.4s36.25,0.95,44.05-10.02
				c7.79-10.98,18.02-28.03,18.02-28.03s-34.57,4.37-35.54,4.76C1834.19,452.61,1783.27,462.02,1783.27,462.02z"/>
			<path class="st17" d="M1782.08,463.49c0,0,4.92,7.64,14.03,9.74s34.66-2.73,41.03-4.29c6.37-1.57,24.62-9.15,29.53-18.77
				C1871.59,440.53,1782.08,463.49,1782.08,463.49z"/>
			<path class="st30" d="M1772.65,465.4c0,0,7.15-7.5,35.65-15.07c7.34-1.95,13.81,0.07,14.88-0.51c2.94-1.57,11.06-4.55,12.73-4.77
				c32.43-4.17,34.78,2.42,34.78,2.42s-27.97,12.07-45.68,14.81C1801.35,465.93,1772.65,465.4,1772.65,465.4z"/>
			<path class="st30" d="M1772.29,465.67c3.63-0.61,1-4.94,14.28,1.02c13.1,5.88,16.2,6.27,30.14,6.25
				c16.5-0.03,28.37-5.29,32.83-9.42s19.66-20.97,16.36-16.22c-1.16,1.66,7.23-2.56,3.86,4.09c-3.38,6.64-8.34,15.43-13.61,22
				c-5.26,6.57-11.88,13.51-34.98,14.57c-23.1,1.05-31.88-12.26-38.72-17.88C1775.99,464.77,1772.29,465.67,1772.29,465.67z"/>
		</g>
		<path class="st31" d="M1795.56,459.8c0,0,5.5-1.19,10.5-1.76c6.18-0.7,10.64,0.16,5.64,1.27
			C1806.7,460.43,1795.56,459.8,1795.56,459.8z"/>
		<path class="st31" d="M1813.46,485.04c0,0,2.55-0.56,5.94-1.07c5.98-0.9,6.2-0.65,6.09-0.53
			C1822.46,486.81,1813.4,485.08,1813.46,485.04z"/>
		<g class="st28">
			<path class="st30" d="M1871.96,450.75c-1.79-1.37-3.14-3.3-3.82-5.45c-0.27-0.85-0.43-1.78-0.16-2.63
				c0.09-0.28,0.33-0.59,0.6-0.49c0.16,0.06,0.24,0.23,0.3,0.39c1.12,2.83,1.79,5.99,3.91,8.17
				C1872.74,450.89,1872.04,450.83,1871.96,450.75"/>
		</g>
		<g class="st28">
			<path class="st30" d="M1771.7,470.12c1.19-1.91,1.78-4.19,1.67-6.44c-0.05-0.89-0.22-1.82-0.77-2.52
				c-0.18-0.23-0.51-0.43-0.74-0.25c-0.13,0.11-0.15,0.3-0.15,0.47c-0.06,3.04,0.42,6.24-0.8,9.02
				C1771.01,470.52,1771.65,470.22,1771.7,470.12"/>
		</g>
	</g>
	<g id="Brauen_Kopie_3_Kopie_Kopie_Kopie_Kopie_2_Kopie_Kopie_2_Kopie">
		<path class="st32" d="M1833.41,310.51c0.71-0.65,11.15-17.28,23.27-21.99c13.02-5.06,16.66-3.84,28.67-2.48
			c12.74,1.44,25.76,10.22,25.76,10.22s3.11,2.25-11.61-0.92c-6.22-1.34-30.18-4.74-44.07,3.6c-6.07,3.64-16.57,11.79-18.09,13.25
			C1834.96,314.5,1833.41,310.51,1833.41,310.51z"/>
		<path class="st32" d="M1768.6,338.55c-0.88-0.4-15.94-13-28.92-13.74c-13.95-0.79-17.03,1.49-28.04,6.49
			c-11.67,5.3-21.36,17.66-21.36,17.66s-2.27,3.1,10.76-4.45c5.5-3.19,27.25-13.82,43.03-10.17c6.89,1.59,19.4,6.1,21.3,7.03
			C1768.35,342.82,1768.6,338.55,1768.6,338.55z"/>
	</g>
	<g id="sprossen_20_">
		
			<ellipse transform="matrix(0.9841 -0.1778 0.1778 0.9841 -79.6445 333.2263)" class="st33" cx="1819.27" cy="610.95" rx="2.25" ry="1.84"/>
		
			<ellipse transform="matrix(0.9841 -0.1778 0.1778 0.9841 -80.8346 329.8144)" class="st33" cx="1799.64" cy="615.89" rx="2.25" ry="1.84"/>
		
			<ellipse transform="matrix(0.9841 -0.1778 0.1778 0.9841 -78.5445 329.6905)" class="st33" cx="1800.09" cy="603.05" rx="2.25" ry="1.84"/>
		
			<ellipse transform="matrix(0.9841 -0.1778 0.1778 0.9841 -79.8982 327.8898)" class="st33" cx="1789.37" cy="609.7" rx="2.25" ry="1.84"/>
		
			<ellipse transform="matrix(0.9841 -0.1778 0.1778 0.9841 -42.9212 322.1635)" class="st34" cx="1775.91" cy="400.54" rx="2.25" ry="1.74"/>
		
			<ellipse transform="matrix(0.9841 -0.1778 0.1778 0.9841 -45.728 321.28)" class="st34" cx="1769.58" cy="415.76" rx="2.25" ry="1.74"/>
		
			<ellipse transform="matrix(0.9841 -0.1778 0.1778 0.9841 -44.3957 319.1645)" class="st34" cx="1758.44" cy="407.27" rx="2.56" ry="2.35"/>
	</g>
	<g id="sprossen_19_">
		
			<ellipse transform="matrix(0.9841 -0.1778 0.1778 0.9841 -77.0716 343.1422)" class="st33" cx="1875.88" cy="601.56" rx="2.25" ry="1.84"/>
		
			<ellipse transform="matrix(0.9841 -0.1778 0.1778 0.9841 -76.3513 346.6831)" class="st33" cx="1895.99" cy="599.31" rx="2.25" ry="1.84"/>
		
			<ellipse transform="matrix(0.9841 -0.1778 0.1778 0.9841 -74.3194 345.6196)" class="st33" cx="1891.07" cy="587.44" rx="2.25" ry="1.84"/>
		
			<ellipse transform="matrix(0.9841 -0.1778 0.1778 0.9841 -39.8513 333.888)" class="st34" cx="1842.86" cy="389.28" rx="2.25" ry="1.74"/>
		
			<ellipse transform="matrix(0.9841 -0.1778 0.1778 0.9841 -41.8127 336.0816)" class="st34" cx="1854.11" cy="401.32" rx="2.25" ry="1.74"/>
		
			<ellipse transform="matrix(0.9841 -0.1778 0.1778 0.9841 -39.5864 337.2193)" class="st34" cx="1861.57" cy="389.46" rx="2.56" ry="2.35"/>
	</g>
	<g id="Rouge_10_">
		<path class="st35" d="M1773.42,426.68c2.13,11.8-13.67,24.69-29.52,27.56c-15.85,2.86-34.63-14.59-36.76-26.39
			c-2.13-11.8,6.82-13.34,22.67-16.2C1745.65,408.78,1771.29,414.88,1773.42,426.68z"/>
		<path class="st35" d="M1865.6,411.41c2.13,11.8,21.45,18.35,37.3,15.48c15.85-2.86,27.33-25.79,25.2-37.58
			c-2.13-11.8-11.06-10.11-26.9-7.24S1863.47,399.61,1865.6,411.41z"/>
	</g>
	<g id="Ohren_10_">
		<g>
			<g>
				<path class="st0" d="M1931.19,377.03c3.54,19.58,5.86,42.77,6.58,43.35c16.02,12.84,39.78-30.79,36.24-50.36
					c-3.54-19.58-14.57-28.01-27.92-25.6C1932.74,346.83,1927.65,357.45,1931.19,377.03z"/>
			</g>
		</g>
		<g>
			<g>
				<path class="st0" d="M1700.56,417.48c3.54,19.58,15.83,41.23,2.48,43.65c-27.39,4.95-46.74-18.48-50.28-38.06
					c-3.54-19.58,4.09-28.47,17.44-30.88C1683.55,389.78,1697.02,397.91,1700.56,417.48z"/>
			</g>
			<path class="st15" d="M1691.11,408.19c0,0-14.97-18.37-25.48-5.93c-10.51,12.44-2.66,22.11-2.66,22.11s9.84-19.41,9.43-6.14
				c-0.53,17.01,23.38,29.61,23.38,29.61s-18.62-26.31-9.68-29.03S1691.11,408.19,1691.11,408.19z"/>
			<path class="st15" d="M1933.17,369.86c0,0,7.59-22.45,21.79-14.48s10.23,19.78,10.23,19.78s-16.01-14.74-10.98-2.45
				c6.45,15.75-11.54,35.92-11.54,35.92s8.24-31.16-1.09-30.59S1933.17,369.86,1933.17,369.86z"/>
		</g>
	</g>
	<path id="nase_10_" class="st15" d="M1796.37,422.75c-0.6-0.44-0.33-1.39,0.42-1.42c4.23-0.2,14.11-0.75,20.04-1.82
		c8.12-1.47,16.78-3.81,20.52-4.86c0.71-0.2,1.28,0.6,0.86,1.2c-2.07,2.98-7.53,8.95-19.23,11.22
		C1807.26,429.35,1799.53,425.07,1796.37,422.75z"/>
	<g>
		<g id="Haareoben_13_">
			<g>
				<path class="st12" d="M1793.3,194.97c17.16,5.71,35.6,7.28,52.29,14.22c26.56,11.05,71.27,16.58,86.72,40.85
					c16.73,26.29,28.39,42.85,13.47,93.8c-4.74-16.76-16.49-25.4-31.06-34.94s-41.29-14.55-55.26-24.96
					c-14-10.44-33.19-28.65-41.25-44.13c-6.23-11.96-12.84-19.93-22.08-30.12c-18.66-20.55-60.28,2.26-82.48,7.18
					c-25.51,5.66-26.5-1.66-48.08,13.08c-21.58,14.74-40.19,84.33-37.64,110.34c0,0,0.39,5.29,0.53,6.95
					c0.95,11.17,11.46,47.64-10.79,81.06c-7.78,11.68,27.14-17.11,25.89-36.29"/>
			</g>
			<g>
				<path class="st12" d="M1670.59,406.73c-1.36-21.55,5.61,11.8,20.21-4.12c18.85-20.56-16.32-57.15,6.27-73.51
					c34.73-25.16,119.68-96.22,118.25-139.08c-5.51,4.66-11.34,8.86-17.4,12.7c-21.06,13.33-44.96,22.31-68.34,31.37
					c-13.37,5.18-26.83,10.54-38.56,18.78c-19.29,13.56-40.78,23.19-45.1,46.37s8.58,59.64,21.69,79.24
					c2.63-6.99,1.55,36.7,4.18,29.71"/>
			</g>
			<g>
				<g>
					<path class="st12" d="M1648.04,440.58c-5.79-13.06-10.57-26.58-13.99-40.46c-2.99-12.13-4.93-24.53-5.6-37.01
						c-0.6-11.16-0.18-22.38,1.32-33.46c1.37-10.09,3.64-20.05,6.75-29.74c2.87-8.93,6.45-17.62,10.68-25.99
						c3.89-7.71,8.33-15.14,13.22-22.25c4.4-6.39,9.19-12.52,14.31-18.35c4.39-5,9.03-9.79,13.91-14.31
						c3.85-3.57,7.85-6.99,12.04-10.16c2.82-2.13,5.72-4.2,8.8-5.95c0.49-0.28,0.98-0.55,1.48-0.8c0.86-0.43,0.1-1.73-0.76-1.3
						c-2.77,1.4-5.37,3.17-7.88,4.98c-4.03,2.89-7.88,6.03-11.59,9.31c-4.83,4.27-9.43,8.8-13.81,13.54
						c-5.14,5.57-9.97,11.44-14.45,17.56c-5.04,6.87-9.64,14.07-13.73,21.55c-4.46,8.15-8.31,16.63-11.49,25.36
						c-3.45,9.48-6.09,19.25-7.85,29.19c-1.93,10.85-2.83,21.88-2.72,32.9c0.12,12.17,1.48,24.32,3.87,36.25
						c2.73,13.62,6.82,26.94,11.94,39.84c1.34,3.38,2.76,6.74,4.23,10.07C1647.14,442.22,1648.43,441.45,1648.04,440.58
						L1648.04,440.58z"/>
				</g>
			</g>
			<g>
				<path class="st14" d="M1829.47,207c7.51,18.86,28.44,35.82,45.59,46.67c22,13.91,35.56,11.9,40.36,11.56
					c-12.38-49.38-71.67-40.16-86.68-59.21"/>
			</g>
			<path class="st14" d="M1628.97,357.11c0,0,25.72,45.5,33.92,103.35s72.95,105.01,72.95,105.01s-29.24,6.8-54.97-23.63
				C1658.45,515.34,1628.97,357.11,1628.97,357.11z"/>
			<path class="st32" d="M1628.52,336.49c9.03,49.95,44.92,58.3,44.92,58.3l19.78,17.78c0,0,8.12-22.96,4.6-34.8
				s-7.74-19.82-8.68-29.63c-0.94-9.81,5-16.85,5-16.85s-78.88,16.19-36.92-55.45S1619.49,286.54,1628.52,336.49z"/>
			<path class="st32" d="M1912.83,207.89c0,0-17.6,46.86,23.85,85.96s45.05,85.87,45.05,85.87s-14.36-91.69-41.66-143.06
				C1926.62,211.36,1912.83,207.89,1912.83,207.89z"/>
			<path class="st36" d="M1689.07,217.8c0,0-26.17,13.73-34.12,33.18s-11.63,37.27-2.11,20.03c10.79-19.55,29.4-34.38,29.4-34.38
				s42.15-39.97,24.92-26.67C1700.58,215.04,1689.07,217.8,1689.07,217.8z"/>
			<g>
				<g>
					<g>
						<path class="st12" d="M1665.96,228.88c-2.47,1.49-4.39,3.89-6.13,6.13c-2.56,3.29-4.85,6.78-7.03,10.33
							c-4.68,7.62-8.95,15.56-12.53,23.75c-1.18,2.7-2.4,5.48-3.09,8.35c-1.69,7.07-2.77,14.35-3.66,21.56
							c-1.82,14.81-2.2,29.81-1.11,44.7c1.04,14.12,3.69,28.68,12.55,40.14c0.38,0.49,1.32,0.57,1.82,0.23
							c1.98-1.31,2.61-3.73,1.53-5.84c-0.88-1.72-3.47-0.2-2.59,1.51c0.31,0.61,0.12,1.36-0.46,1.74c0.61,0.08,1.21,0.16,1.82,0.23
							c-7.67-9.92-10.3-22.71-11.42-34.93c-1.3-14.2-1.13-28.57,0.29-42.75c0.72-7.23,1.8-14.41,3.22-21.53
							c0.7-3.54,1.56-6.79,2.93-10.12c3.18-7.75,7.19-15.23,11.43-22.45c2.37-4.03,4.86-8,7.63-11.76c1.77-2.39,3.98-5.31,6.31-6.71
							C1669.12,230.47,1667.62,227.88,1665.96,228.88L1665.96,228.88z"/>
					</g>
				</g>
				<path class="st37" d="M1805.44,192.21c0,0,4.6,76.12,44.13,92.28s76.42,22.38,76.42,22.38l-101.31-95.67L1805.44,192.21z"/>
				<g>
					<g>
						<path class="st12" d="M1668.38,230.08c20.87-16.3,44.64-29.46,70.63-35.3c17.86-4.02,36.56-4.43,54.47-0.47
							c6.55,1.45,13.01,3.46,19.18,6.11c2.45,1.05,4.87,2.21,7.21,3.48c1.87,1.01,3.64,2.19,5.55,3.13
							c4.91,2.42,10.29,3.95,15.55,5.4c7.36,2.03,14.81,3.74,22.25,5.42c16.95,3.83,33.98,7.38,50.71,12.08
							c7.36,2.07,14.7,4.34,21.76,7.29c5.15,2.15,10.56,4.68,14.64,8.58c1.41,1.35,2.7,2.92,3.38,4.78c0.3,0.82,0.45,1.66,0.5,2.53
							c0.16,3.1,0.34,6.18,0.77,9.26c1.52,10.82,5.48,20.94,10.45,30.6c4.3,8.36,9.35,16.45,12.41,25.38
							c1.64,4.8,2.4,9.62,2.71,14.67c0.47,7.49,0.74,15,0.88,22.51c0.29,14.74,0.18,29.49,0.66,44.23c0.32,9.98-0.2,19.93-0.66,29.9
							c-0.51,11.05-0.97,22.13-0.4,33.19c0.5,9.83,1.69,19.98,5.53,29.13c1.57,3.74,3.62,7.25,6.31,10.3
							c0.64,0.72,1.7-0.34,1.06-1.06c-6.24-7.06-8.82-16.65-10.19-25.77c-1.64-10.84-1.62-21.9-1.31-32.84
							c0.3-10.66,1.06-21.31,1.27-31.97c0.11-5.52-0.13-11.03-0.26-16.55c-0.18-7.4-0.24-14.79-0.3-22.19
							c-0.06-7.33-0.13-14.66-0.34-21.99c-0.2-7.21-0.26-14.55-1.13-21.71c-1.11-9.15-5.09-17.49-9.38-25.54
							c-4.86-9.12-9.93-18.14-13.02-28.05c-1.8-5.77-2.95-11.74-3.39-17.77c-0.2-2.83-0.02-5.48-1.35-8.05
							c-2.17-4.18-6.55-7.03-10.54-9.24c-6-3.32-12.52-5.71-19.02-7.84c-16.46-5.39-33.47-9.06-50.36-12.83
							c-14.43-3.22-29.27-5.96-43.22-10.97c-4.36-1.57-8.11-3.94-12.2-6.04c-5.39-2.78-11.06-5.01-16.86-6.77
							c-16.21-4.93-33.46-6.15-50.26-4.09c-23.98,2.94-46.7,12.41-66.96,25.36c-6.14,3.93-12.06,8.18-17.8,12.67
							C1666.56,229.61,1667.63,230.67,1668.38,230.08L1668.38,230.08z"/>
					</g>
				</g>
			</g>
			<path class="st37" d="M1634.68,351.54c0,0,36.5,150.11,37.9,172.81c0.86,13.99-7.14,32.02-7.14,32.02"/>
			<path class="st37" d="M1649.76,564.83"/>
			<path class="st37" d="M1637.58,401.97"/>
			<g>
				<path class="st14" d="M1663.03,311.28c-2.23-3.83-2.53-8.47-2.27-12.89c1.12-18.87,11.52-36.29,25.3-49.22
					c5.96-5.6,12.54-10.47,19.11-15.34c16.86-12.48,33.74-24.97,51.26-36.51c1.94-1.28,3.95-2.57,6.23-3s4.92,0.2,6.22,2.13
					c2.1,3.11-0.28,7.25-2.8,10.04c-7,7.74-15.55,13.86-23.94,20.06c-22.24,16.42-44.14,34.14-59.63,57.04
					c-3.82,5.64-7.24,11.58-11.68,16.74c-2.8,3.24-5.98,6.15-9.47,8.64"/>
			</g>
			<g>
				<g>
					<path class="st14" d="M1686.67,391.58c-11.95-18.05-22.41-40.04-19.1-62.29c2-13.45,9.24-25.16,19.12-34.28
						c3.49-3.22,7.26-6.1,11.14-8.83c9.68-6.81,19.94-12.65,30.04-18.8c5.34-3.25,10.87-6.51,15.75-10.44
						c2.34-1.88,4.35-4.17,6.24-6.48c5.39-6.58,10-13.81,14.38-21.09c5-8.31,9.64-16.84,13.94-25.53
						c3.37-6.82,6.66-13.76,9.15-20.96c0.42-1.21,0.81-2.43,1.13-3.66c0.12-0.47-0.6-0.67-0.72-0.2c-1.78,6.74-4.84,13.2-7.81,19.47
						c-4.08,8.63-8.55,17.08-13.31,25.35c-4.52,7.84-9.3,15.6-14.75,22.84c-2.07,2.75-4.24,5.44-6.7,7.85
						c-3.57,3.5-8.03,6.12-12.22,8.79c-15.02,9.57-31.28,17.65-44.82,29.38c-9.82,8.51-17.56,19.42-20.5,32.22
						c-4.6,19.99,2.72,40.5,12.61,57.71c1.82,3.17,3.76,6.27,5.78,9.32C1686.29,392.36,1686.94,391.98,1686.67,391.58
						L1686.67,391.58z"/>
				</g>
			</g>
			<g>
				<g>
					<path class="st14" d="M1807.11,178.21c3.34,13.86,8.17,27.39,14.15,40.33c6.21,13.43,13.74,26.41,23.25,37.78
						c4.4,5.26,9.25,10.17,14.68,14.37c6.63,5.13,13.95,9.32,21.42,13.1c7.72,3.9,15.64,7.38,23.46,11.07
						c3.44,1.62,6.91,3.23,10.17,5.2c3.11,1.88,6.08,4.01,8.92,6.27c11.79,9.4,22.28,21.12,30.17,33.98
						c0.84,1.36,1.64,2.75,2.4,4.16c0.23,0.42,0.88,0.05,0.65-0.38c-6.93-12.82-16.85-24.37-27.68-34.05
						c-5.2-4.65-10.8-8.99-16.97-12.27c-7.47-3.97-15.32-7.23-22.97-10.84c-7.85-3.7-15.63-7.63-22.89-12.41
						c-6.11-4.01-11.66-8.67-16.65-14.01c-10.1-10.8-18.04-23.56-24.61-36.75c-6.52-13.09-11.77-26.87-15.55-41
						c-0.42-1.58-0.82-3.16-1.21-4.75C1807.72,177.55,1807,177.75,1807.11,178.21L1807.11,178.21z"/>
				</g>
			</g>
			<g>
				<g>
					<path class="st14" d="M1919.97,277.22c5.39,13.87,14.96,25.48,24.72,36.5c10.11,11.41,21.28,22.62,28.44,36.23
						c3.77,7.16,6.33,14.85,7.27,22.89c0.93,7.97,0.72,16.03,0.47,24.03c-0.24,7.86-0.36,15.66,0.02,23.52
						c0.4,8.22,0.49,16.44,0.82,24.66c0.62,15.36,2.49,30.6,8.64,44.83c0.85,1.97,1.77,3.9,2.75,5.81c0.22,0.43,0.87,0.05,0.65-0.38
						c-3.74-7.29-6.51-15.02-8.26-23.03c-1.65-7.56-2.42-15.27-2.83-22.98c-0.43-8.01-0.52-16.03-0.81-24.05
						c-0.15-4-0.44-8-0.51-12.01c-0.07-3.92,0.03-7.84,0.14-11.76c0.24-8.06,0.6-16.14,0.07-24.19c-0.51-7.74-2.15-15.04-5.17-22.2
						c-5.91-14.03-16.51-25.52-26.54-36.73c-9.96-11.13-20.25-22.41-26.81-35.97c-0.85-1.76-1.63-3.55-2.34-5.38
						C1920.52,276.58,1919.79,276.77,1919.97,277.22L1919.97,277.22z"/>
				</g>
			</g>
			<g>
				<g>
					<path class="st14" d="M1632.42,298.78c-0.94,6.11-2.2,12.17-3.19,18.28c-1.07,6.58-2.3,13.42-2.06,20.11
						c0.12,3.19,1.18,6.25,1.86,9.34c0.97,4.41,1.79,8.85,2.52,13.31c1.57,9.64,2.72,19.35,3.87,29.05
						c2.27,19.13,4.33,38.48,9.43,57.1c5.2,18.95,15.08,36.13,23.76,53.63c9,18.16,17.2,37.12,19.02,57.52
						c0.23,2.57,0.36,5.14,0.39,7.72c0.01,0.48,0.76,0.48,0.75,0c-0.3-20.16-6.96-39.17-15.45-57.23
						c-4.32-9.19-9.04-18.19-13.56-27.28c-4.4-8.85-8.83-17.77-11.95-27.17c-6.06-18.24-8.43-37.54-10.72-56.54
						c-2.23-18.56-3.96-37.37-8.58-55.53c-0.66-2.61-0.69-5.2-0.54-7.88c0.2-3.57,0.65-7.12,1.15-10.66
						c0.98-6.83,2.27-13.62,3.47-20.41c0.19-1.06,0.37-2.11,0.53-3.17C1633.21,298.51,1632.49,298.31,1632.42,298.78L1632.42,298.78
						z"/>
				</g>
			</g>
		</g>
		<path class="st12" d="M1972.11,420.67c0,0-16.78,32.98,7.28,40.28c24.06,7.3,34.27-0.65,34.27-0.65s-28.26-5.99-33.91-18.83
			S1972.11,420.67,1972.11,420.67z"/>
		<path class="st12" d="M1718.05,194.27c0,0,2.99-22.59,33.23-20.98c30.24,1.61,46.53,6.57,46.53,6.57s-29.07-4.32-45.69,0.35
			s-34.25,19.92-34.25,19.92L1718.05,194.27z"/>
		<path class="st32" d="M1726.91,192.67c0,0-10.62,32.56-24.98,39.04s33.94-11.68,34.2-25.59c0.26-13.91,0.41-16.16,0.41-16.16
			L1726.91,192.67"/>
		<path class="st24" d="M1692.61,421.83c0,0,3.63,24.72,11.93,40.69c8.29,15.97,17.14,28.1,24.24,35.14
			c7.1,7.04-11.96-13.23-17.94-32.53S1692.61,421.83,1692.61,421.83z"/>
	</g>
	<g id="Mund_11_">
		<g>
			<path class="st29" d="M1783.11,462.28l-1.94,4.11c0,0,18.45,21.97,24.95,22.21c6.5,0.25,39.1-0.19,46.84-11.21
				c7.74-11.01,17.51-30.11,17.51-30.11s-34.54,4.55-35.51,4.94C1833.98,452.62,1783.11,462.28,1783.11,462.28z"/>
			<path class="st17" d="M1781.92,463.75c0,0,4.95,7.61,14.08,9.66c9.12,2.05,34.64-2.9,41-4.5c6.36-1.6,24.57-9.27,29.44-18.92
				C1871.31,440.35,1781.92,463.75,1781.92,463.75z"/>
			<path class="st30" d="M1772.5,465.71c0,0,7.12-7.54,35.57-15.25c7.33-1.99,13.81,0,14.88-0.58c2.93-1.59,9.07-3.02,10.74-3.25
				c32.41-4.34,36.76,0.66,36.76,0.66s-27.9,12.21-45.6,15.04C1801.2,466.1,1772.5,465.71,1772.5,465.71z"/>
			<path class="st30" d="M1772.14,465.99c3.63-0.63,3.92-6.34,15.46,2.54c11.82,9.1,16.79,14.16,30.72,14.06
				c16.5-0.11,27.31-4.25,31.74-8.4c4.43-4.15,18.86-31.82,15.58-27.04c-1.15,1.67,7.22-2.59,3.88,4.07
				c-3.34,6.66-5.4,25.77-10.63,32.37c-5.23,6.59-12.67,13.6-35.76,14.77c-23.1,1.17-33.94-22.42-40.81-28.01
				C1775.84,465.07,1772.14,465.99,1772.14,465.99z"/>
		</g>
		<path class="st38" d="M1795.38,460c0,0,5.49-1.22,10.49-1.81c6.18-0.73,10.64,0.1,5.64,1.24
			C1806.52,460.57,1795.38,460,1795.38,460z"/>
		<path class="st38" d="M1821.81,488.76c0,0,2.55-0.58,5.94-1.1c5.97-0.93,6.2-0.69,6.09-0.56
			C1830.82,490.48,1821.75,488.79,1821.81,488.76z"/>
		<g>
			<path class="st30" d="M1871.73,450.56c-1.79-1.36-3.15-3.28-3.84-5.43c-0.27-0.85-0.44-1.78-0.17-2.63
				c0.09-0.28,0.33-0.59,0.6-0.49c0.16,0.06,0.24,0.23,0.31,0.39c1.14,2.82,1.82,5.98,3.95,8.15
				C1872.51,450.69,1871.81,450.64,1871.73,450.56"/>
		</g>
		<g>
			<path class="st30" d="M1771.58,470.44c1.18-1.92,1.76-4.2,1.64-6.45c-0.05-0.89-0.23-1.82-0.79-2.52
				c-0.18-0.23-0.52-0.43-0.74-0.25c-0.13,0.11-0.14,0.3-0.15,0.47c-0.05,3.04,0.45,6.23-0.76,9.03
				C1770.89,470.84,1771.53,470.54,1771.58,470.44"/>
		</g>
	</g>
</g>
<g id="Hose_Kopie_Kopie_2_Kopie_Kopie_2_Kopie">
	<g>
		<path class="st39" d="M1620.53,797.01c16.92-64.4,53.99-172.77,53.99-172.77l67.99-40.93c0,0-25.49,24.66-44.76,56.76
			c-12.28,20.47-24.24,130.33-41.44,170.44c-0.43,1-32.86-12.29-32.86-12.29"/>
		<path class="st40" d="M1669.91,1192.83c-2.85,2.14,18.34,162.74,35.75,331.43c9.28,89.91,22.59,182.27,25.79,257.07
			c0.02,0.38-10.78,2.33-10.64,3.14c4.97,29.87,16.99,68.09,19.75,75.35c0,0,28.48,28.02,95.28,2.97
			c0.23-0.09,3.68-30.02,11.05-76.14c0.23-1.47-9.72-0.26-9.69-1.77c1.43-66.05,4.09-166.69,5.95-262.26
			c3-154.33,5.78-302.91,5.78-302.91L1669.91,1192.83z"/>
		<path class="st41" d="M1731.45,1781.33c-0.37-0.08-10.78,2.33-10.64,3.14c4.97,29.87,16.99,68.09,19.75,75.35
			c0,0,28.48,28.02,95.28,2.97c0.23-0.09,3.68-30.02,11.05-76.14c0.23-1.47-8.22-2.15-9.69-1.77
			C1809.64,1791.97,1782.62,1792.79,1731.45,1781.33z"/>
		<path class="st40" d="M2031.23,1216.16c0.46-6.96,34.77,347.15,33.98,560.22c0,0.38,0,0.76,0,1.14c0,0.83,7.78,2.98,7.77,3.8
			c-0.17,30.28-5.98,69.92-7.56,77.53c0,0-23.68,32.18-93.6,18.03c-0.25-0.05-8.4-29.06-22.98-73.42c-0.46-1.41,8.4-4.51,8.12-6
			c-9.45-51.7-12.42-152.42-26.98-228.99c-33.29-175.11-81.6-341.12-81.6-341.12L2031.23,1216.16z"/>
		<g>
			<path class="st40" d="M1713.57,1016.11c-20.71,50.22-34.92,102.9-43.78,177.11c78.13,37.2,168.13,37.77,254.64,35.45
				c36.01-0.97,72.39-2.36,107.16-11.77c-11.13-62.31-49.98-214.64-51.67-215.51c-0.1-0.05-0.39,1.07-0.55,1.09
				c-3.82,0.55-9.05,2.82-9.28,2.18c-8.47,3.59-44.9,11.81-119.53,9.82c-38.86-1.03-86.1-1.5-133.58-6.14
				c-0.03,0-0.68,3.97-0.68,3.89"/>
		</g>
	</g>
	<path class="st42" d="M1738.41,1061.29c0,0,0.58,0.13,1.64,0.38c13.4,3.09,104.3,23.88,108.47,20.09c4.5-4.09,3.68-9.82,3.68-9.82
		l-113.29-23.71L1738.41,1061.29"/>
	<g>
		<path class="st43" d="M1738.41,1061.29c0,0,0.58,0.13,1.64,0.38c13.4,3.09,110.03,25.11,114.2,21.32
			c4.5-4.09,13.51-57.31,13.51-57.31l-128.84,22.55L1738.41,1061.29"/>
		<path class="st43" d="M1882.91,1073.98c0,0,0.57,3.85,1.64,4.09c13.4,3.09,107.58-7.26,111.75-11.05
			c4.5-4.09-11.05-51.99-11.05-51.99l-118.71,11.87l17.19,50.76"/>
	</g>
	<g>
		<path class="st43" d="M1897.51,1414.55c0,0,62.77,265.8,76.41,292.55c13.64,26.74,28.38,85.69,28.38,85.69l-46.12,5.46
			C1956.18,1798.25,1911.15,1444.57,1897.51,1414.55z"/>
		<g>
			<g>
				<path class="st44" d="M1857.69,1233.9c11.65,35.46,22.48,71.18,32.46,107.14c10.02,36.14,19.19,72.51,27.5,109.08
					c8.27,36.39,15.68,72.98,22.23,109.72c6.62,37.14,12.37,74.43,17.22,111.85c4.79,37.01,8.72,74.13,11.77,111.33
					c0.38,4.65,0.75,9.3,1.1,13.95c0.15,1.91,3.15,1.93,3,0c-2.85-37.39-6.57-74.72-11.18-111.93
					c-4.58-36.99-10.02-73.88-16.32-110.62c-6.37-37.14-13.62-74.12-21.75-110.92c-8.08-36.62-17.03-73.05-26.83-109.24
					s-20.46-72.16-31.96-107.85c-1.43-4.44-2.88-8.88-4.33-13.31C1859.98,1231.27,1857.09,1232.06,1857.69,1233.9L1857.69,1233.9z"
					/>
			</g>
		</g>
	</g>
	<path class="st45" d="M1968.58,1799.93l-10.22,5.15c0,0,18.28,62.22,22.92,74.23"/>
	<path class="st41" d="M2065.46,1779.07c0.36-0.13,10.98,0.99,10.95,1.81c-1.27,30.25-8.51,69.66-10.37,77.21
		c0,0-25.21,36.24-94.58,19.57c-0.24-0.06-9.96-29.63-22.92-74.5c-0.41-1.43,6.14-5.11,7.64-4.91
		C1984.41,1801.91,2016.08,1796.72,2065.46,1779.07z"/>
	<path class="st45" d="M1739.23,1784.33l-10.37,2.73c0,0,13.64,73.14,18.56,78.05"/>
	<g>
		<g class="st46">
			<path class="st42" d="M1847.84,1231.44c-3.82-1.23-42.3-3.27-49.94-2.18c-5.46,0.78,10.37,15.01,14.19,20.47
				c9.89,14.12,10.33,35.5,10.75,52.74c2.15,87.2-3.9,386.21-1.75,473.41c0.07,2.8,17.24,8.55,17.47-1.64
				c2.18-98.79,5.61-414.66,10.37-504.31c0.58-10.92,2.49-27.15-0.55-37.66"/>
		</g>
		<g class="st46">
			<path class="st42" d="M2034.88,1582.69c-3.68,2-4.93,7.4-8.29,11.56c-8.62,10.71-13.41,23.25-20.8,34.85
				c-2.76,4.34-5.04,10.96-0.77,13.83c2.54,1.71,5.97,0.81,8.77-0.44c21.61-9.67,31.74-63.02,21.14-59.87"/>
		</g>
		<g class="st46">
			<path class="st42" d="M2020.08,1650.7c-1.63,0.29-2.76,2.17-4.53,3.32c-4.55,2.96-7.9,7.07-12.09,10.51
				c-1.57,1.29-3.24,3.49-1.99,5.09c0.74,0.95,2.14,1.04,3.34,0.91c9.3-0.97,19.66-19.73,15.3-19.86"/>
		</g>
		<g class="st46">
			<path class="st42" d="M1802.37,1581.87c-3.68,2-4.93,7.4-8.29,11.56c-8.62,10.71-13.41,23.25-20.8,34.85
				c-2.76,4.34-5.04,10.96-0.77,13.83c2.54,1.71,5.97,0.81,8.77-0.44c21.61-9.67,31.74-63.02,21.14-59.87"/>
		</g>
		<g class="st46">
			<path class="st42" d="M1787.57,1649.88c-1.63,0.29-2.76,2.17-4.53,3.32c-4.55,2.96-7.9,7.07-12.09,10.51
				c-1.57,1.29-3.24,3.49-1.99,5.09c0.74,0.95,2.14,1.04,3.34,0.91c9.3-0.97,19.66-19.73,15.3-19.86"/>
		</g>
		<path class="st43" d="M1712.01,1043.43l-0.82,2.4l-28.45,91.18c0,0,36.02-17.19,46.67-40.93c7.93-17.69,9.52-47.86,9.52-47.86
			L1712.01,1043.43z"/>
		<path class="st43" d="M1988.01,1046.25l1.74,4.2l22.92,89.14c0,0-31.93-30.91-42.98-50.45c-9.54-16.87-14.02-35.1-14.02-35.1
			L1988.01,1046.25z"/>
		<path class="st43" d="M1772.27,1193.51c0,0,53.85,21.83,51.91,24.74s-43.66,0.97-49.97-1.94
			C1767.9,1213.4,1760.14,1196.42,1772.27,1193.51z"/>
		<path class="st43" d="M1868.04,1236.63c0,0,9.28,4.37,34.39-9.82c25.11-14.19,18.56,3.27,9.28,9.82
			C1902.42,1243.17,1868.04,1236.63,1868.04,1236.63z"/>
	</g>
	<g>
		<g class="st46">
			<path class="st42" d="M1956.52,1798.72c29.67,1.95,59.65-0.88,88.44-8.35c4.05-1.05,17.38-6.04,21.2-11.77
				c0.08-0.11-0.03-4.96-1.09-9.01c-33.72,11.35-72.96,23.7-108.39,26.94"/>
		</g>
		<g>
			<g>
				<path class="st44" d="M1952.83,1054.73c3.26,13.81,9.01,26.88,16.57,38.86c7.54,11.95,16.69,22.8,26.27,33.15
					c5.61,6.07,11.39,11.98,17.17,17.89c1.35,1.38,3.47-0.74,2.12-2.12c-9.96-10.18-19.94-20.38-29.02-31.36
					c-8.78-10.62-16.64-22.07-22.44-34.61c-3.35-7.25-5.94-14.83-7.78-22.6C1955.27,1052.05,1952.38,1052.85,1952.83,1054.73
					L1952.83,1054.73z"/>
			</g>
		</g>
	</g>
	<g>
		<path class="st47" d="M1704.03,1040.82c0,0,182.16,38.48,287.36,3.27l-9.82-42.71c-65.5,24.56-262.39,6.69-262.39,6.69
			L1704.03,1040.82z"/>
		<path class="st48" d="M1781.39,1189.41c0,0,61.81,28.24,66.72,40.93l4.09,0.82c11.05-6.55,15.56-173.15,15.56-173.15"/>
		<path class="st48" d="M1847.71,1229.94c0,0-39.71-3.68-49.94-1.64"/>
		<g>
			<g>
				<path class="st44" d="M1676.33,1188.6c4.78,37.67,9.24,75.38,13.49,113.12c4.39,39.01,8.56,78.05,12.58,117.11
					c4.07,39.52,8,79.05,11.84,118.59c3.81,39.18,7.55,78.38,11.27,117.57c3.61,38.01,7.21,76.03,10.87,114.04
					c0.45,4.65,0.9,9.3,1.34,13.95c0.18,1.9,3.19,1.92,3,0c-3.65-37.8-7.24-75.61-10.83-113.41c-3.71-39.09-7.43-78.18-11.21-117.26
					c-3.83-39.54-7.73-79.08-11.76-118.6c-4-39.16-8.13-78.31-12.48-117.43c-4.22-37.95-8.64-75.87-13.37-113.76
					c-0.58-4.63-1.16-9.27-1.75-13.9C1679.09,1186.71,1676.08,1186.68,1676.33,1188.6L1676.33,1188.6z"/>
			</g>
		</g>
		<g>
			<g>
				<path class="st44" d="M1739.18,1047.76c-1.7,10.36-3.06,20.8-5.51,31.01c-2.27,9.43-5.58,18.71-11.32,26.62
					c-2.84,3.91-6.3,7.42-10.14,10.34c-2.23,1.69-4.61,3.18-6.93,4.74c-6.12,4.1-12.27,8.21-18.13,12.69
					c-1.2,0.91-2.4,1.83-3.51,2.85c-0.35,0.31-0.69,0.64-0.99,0.99c-0.11,0.13-0.23,0.26-0.31,0.4c-0.14,0.24,0.01-0.19-0.01,0
					c0.75,0.21,1.5,0.42,2.25,0.62c0-0.02-0.01-0.04-0.01-0.06c0.03-0.02-0.03,0.43,0.04-0.04c0.14-0.93,0.39-2.43,0.66-3.66
					c0.21-0.93,0.47-1.85,0.66-2.79c0.27-1.37-1.43-2.65-2.51-1.46c-0.51,0.56-0.62,1.54-0.81,2.23c-0.51,1.94-0.99,3.89-1.44,5.85
					c-0.9,3.91-1.68,7.85-2.34,11.82c-1.32,7.98-2.18,16.03-2.53,24.11c-0.2,4.57-0.23,9.15-0.12,13.73c0.05,1.93,3.05,1.93,3,0
					c-0.25-9.96,0.24-19.93,1.48-29.81c0.63-4.97,1.46-9.91,2.47-14.81c0.49-2.36,1.02-4.71,1.59-7.05
					c0.31-1.25,0.62-2.49,0.96-3.73c-0.01,0.05,0.21-0.61,0.19-0.73c-0.04-0.24,0.95-0.91-0.35,0.52c-0.84-0.49-1.67-0.97-2.51-1.46
					c-0.43,2.2-1.09,4.35-1.36,6.59c-0.15,1.22,0.08,2.98,1.79,2.74c0.72-0.1,1.02-0.56,1.44-1.07c-0.32,0.39,0.04-0.03,0.13-0.12
					c0.19-0.19,0.38-0.38,0.57-0.56c2.28-2.12,4.89-3.92,7.42-5.73c3.36-2.41,6.76-4.75,10.18-7.06
					c6.32-4.28,12.84-8.24,18.01-13.97c6.87-7.6,11.18-16.99,13.99-26.77c3.4-11.82,4.88-24.09,6.87-36.19
					C1742.38,1046.67,1739.49,1045.85,1739.18,1047.76L1739.18,1047.76z"/>
			</g>
		</g>
		<g>
			<g>
				<path class="st44" d="M1849.33,1234.39c15.47,2.14,31.39-2.59,43.14-12.9c1.45-1.28-0.68-3.39-2.12-2.12
					c-10.85,9.54-25.89,14.11-40.22,12.13c-0.81-0.11-1.6,0.2-1.85,1.05C1848.09,1233.24,1848.53,1234.27,1849.33,1234.39
					L1849.33,1234.39z"/>
			</g>
		</g>
		<g class="st49">
			<path class="st44" d="M1686.29,744.05c-6.55,17.47,9.28,55.94,21.29,85.14"/>
		</g>
		<g class="st46">
			<path class="st42" d="M1730.63,1782.8c29.08,6.22,58.73,9.94,88.29,6.71c4.15-0.45,14.56-2.59,18.69-4.09
				c1.5-0.55,1.69-8.4,1.23-12.55c-35.01,6.36-72.21,9.71-107.74,7.79"/>
		</g>
	</g>
</g>
<g>
	<g>
		<path class="st0" d="M1485.86,678.4l53.19-25.21c4.91-3.79,0.82-14.45-4.01-20.38l0,0c-0.85-2.71-43.08-16.28-62.36,21.6
			l-6.82,18.72c4.77,2.2-2.73,1.8,2.1,7.73l-1.75-0.69C1471.05,686.1,1480.95,682.19,1485.86,678.4z"/>
		<path class="st0" d="M1497.22,688.53l53.19-25.21c4.91-3.79,1.91-18.45-5.46-21.5l0,0c-4.83-5.93-41.53-0.2-60.88,25.79
			l-15.05,14.44c-4.91,3.79,3.73,2.32,8.56,8.25l0,0C1482.41,696.23,1492.3,692.32,1497.22,688.53z"/>
		<path class="st0" d="M1508.81,707.36l53.19-25.21c4.91-3.79-0.63-15.57-5.46-21.5l0,0c-4.83-5.93-23.41-20.55-60.88,25.79
			l-15.05,14.44c-4.91,3.79,3.73,2.32,8.56,8.25l0,0C1494,715.06,1503.9,711.15,1508.81,707.36z"/>
		<path class="st0" d="M1519.08,727.39l41.97-13.96c4.91-3.79,10.6-26.82,5.77-32.75l0,0c-4.83-5.93-23.41-20.55-60.88,25.79
			l-12.67,12.15c-4.91,3.79,1.34,4.61,6.18,10.53l0,0C1504.27,735.08,1514.17,731.18,1519.08,727.39z"/>
		<path class="st0" d="M1477.41,646.71c0,0-12.78,14.06-12.76,27.03c0,2.9,4.7,15.08,14.5,31.33c7.06,11.7,16.47,24.94,22.52,34.25
			c5.25,8.08,11.35,35.13,12.87,24.78c0.88-5.97,41.81,8.61,47.3-1.26s15.42-36.57-9.84-60.01
			C1526.75,679.38,1477.41,646.71,1477.41,646.71z"/>
		<path class="st5" d="M1538.55,639.69c0,0-33.18-1.9-48.12,14.03c-14.32,15.27-4.02,6.67-4.02,6.67s6.86-7.74,15.13-12.64
			C1509.8,642.85,1538.55,639.69,1538.55,639.69z"/>
		<path class="st5" d="M1552,656.54c0,0-28.01,2.97-38.59,12.47c-7.11,6.38-11.87,17.23-11.87,17.23s7.05-12.72,15.32-17.62
			C1525.12,663.72,1552,656.54,1552,656.54z"/>
		<path class="st5" d="M1563.91,677.83c0,0-31.76,7.74-39.26,15.84c-4.3,4.64-7.79,16.41-7.79,16.41s4.84-11.95,13.11-16.85
			C1538.23,688.32,1563.91,677.83,1563.91,677.83z"/>
		<polygon class="st5" points="1560.23,713.2 1546.47,712.2 1547.2,712.98 		"/>
	</g>
	<g>
		<path class="st0" d="M1548.56,721.81L1675,934.7c0,0,11.48,64.79-17.04,69.36c-56.93,9.13-147.82-243.65-147.82-243.65
			L1548.56,721.81z"/>
		<path class="st0" d="M1634.9,823.76c0.2,6.94-9.96,107.61-5.21,136.79c8.92,54.76,38.09,49.4,55.06,29.96
			c16.97-19.44,33.09-131.35,33.09-131.35C1699.45,851.21,1634.9,823.76,1634.9,823.76z"/>
		<path class="st50" d="M1634.2,867.5c0,0,33.83,60.06,31.14,82.51s20.23-13.98,10.78-35.83S1634.2,867.5,1634.2,867.5z"/>
		<polygon class="st50" points="1634.2,830.43 1715.18,875.48 1717.84,860.88 		"/>
	</g>
</g>
<g id="Shirt_9_">
	<path class="st2" d="M1634.2,810.52l-3.18,18.67l89.25,34.74c0,0,3.13-29.92,3.18-29.92
		C1725.08,834.01,1634.2,810.52,1634.2,810.52z"/>
	<path class="st10" d="M1682.98,620.42c0,0-32.51,94.41-59.53,181.19c31.74,24.96,101.36,31.37,101.36,31.37l13.85-93.95
		L1682.98,620.42z"/>
	<path class="st51" d="M1627.15,806.69c0,0,50.1,20.11,99.19,30.54"/>
	<g id="Kleidung_10_">
		<path class="st10" d="M1749.58,578.43c0,0,14.48,48.76,89.8,48.76c83.02,0,86.78-42.28,86.78-42.28l63.04,14.77
			c0,0,9.69,175.06-18.01,249.7c-13.92,54.85-5.47,78.02-5.39,78.66c1.64,12.49,6.74,22.7,14.8,73.48c0,0-42.84,17.87-135.08,14.05
			c-81.81-3.39-127.37-6.86-126.9-7.5c3.34-4.57,10.23-43.25,15.96-80.91c1.97-12.96-17.1-73.09-19.65-79.41
			c-39.3-97.42-39.4-219.68-39.4-219.68L1749.58,578.43z"/>
		<path class="st10" d="M1988.38,599.96c0,0,72.59,79.83,99.61,166.61c-23.74,41.75-88.93,53.36-88.93,53.36l-54.06-79.15
			L1988.38,599.96z"/>
	</g>
	<g>
		<path class="st2" d="M1997.12,1055.97c0,0-107.25,22.51-112.16,15.56c-4.91-6.96-18.01-58.54-18.01-58.54l114.62-12.69
			L1997.12,1055.97z"/>
		<path class="st2" d="M1694.2,1045.73c0,0,153.1,33.16,158.01,26.2s15.83-59.08,15.83-59.08l-149.27-7.23L1694.2,1045.73z"/>
	</g>
	<g>
		<path class="st52" d="M1743.6,588.77c0,0-50.21,68.09-57.99,90.6c-2.92,8.46-27.65,135.32-27.65,135.32"/>
		<path class="st52" d="M1752.33,604.05c0,0-52.55,90.73-56.16,98.92c-12.28,27.84-18.91,115.89-18.91,115.89"/>
		<path class="st52" d="M1758.33,610.05c0,0-60.45,90.6-51.44,135.63c3.64,18.2,32.88,132.36,32.88,145.45s-4.84,115.71-4.84,115.71
			"/>
		<path class="st52" d="M1753.97,1006.44c0,0,2.18-110.39,0.55-130.04c-1.64-19.65-25.91-118.08-25.52-133.17
			c0.82-31.52,43.53-122.8,43.53-122.8"/>
		<path class="st52" d="M1792.17,628.06c0,0-33.43,102.47-32.88,130.31c0.55,27.84,18.69,247.38,18.69,247.38"/>
		<path class="st52" d="M1815.09,633.52c0,0-20.6,92.1-21.83,130.58c-1.1,34.58,11.46,241.1,11.46,241.1"/>
		<path class="st52" d="M1830.1,635.16c0,0-1.77,93.88,0.41,126.08s0,250.11,0,250.11"/>
		<polyline class="st52" points="1851.66,635.16 1854.94,738.86 1862.44,1009.3 		"/>
		<polyline class="st52" points="1896.83,1006.85 1884.41,742.14 1872.4,632.43 		"/>
		<path class="st52" d="M1899.15,624.24c0,0,28.93,86.78,28.93,108.61c0,21.83,6,273.58,6,273.58"/>
		<path class="st52" d="M1959.05,1002.34c0,0-5.87-157.05-4.23-171.79c1.64-14.74,20.74-77.5,12.55-103.16s-52.4-114.62-52.4-114.62
			"/>
		<path class="st52" d="M1927.53,596.95c0,0,20.74,12.55,36.02,39.3s66.5,170.46,66.5,170.46"/>
		<path class="st52" d="M2055.02,790.07c0,0-51.08-155.46-61.99-166.37c-10.92-10.92-63.86-33.57-63.86-33.57"/>
	</g>
	<path class="st53" d="M1715.21,1012.03c147.91,24.01,270.44,1.36,270.44,1.36l-4.09-13.1c0,0-207.4,11.46-263.62,4.91"/>
	<path class="st54" d="M1718.49,1006.85c217.64,18.42,263.07-6.55,263.07-6.55l-4.5-13.1c-0.08-0.65-40.55,19.01-257.89,18.63"/>
	<path class="st55" d="M1988.72,600.37l-55.6-13.3l-1.15,1.99l-1.17-0.56c0,0-26.61,43.39-72.04,44.62
		c-45.44,1.23-93.74-19.24-93.74-19.24s63.04,62.63,122.39,40.12c45.44-17.24,68.76-38.53,78.46-45.78
		c6.11,4.85,14.57,14.24,18.97,20.4c16.37,22.92,82.89,116.77,60.69,69.64C2023.31,651.12,1988.72,600.37,1988.72,600.37z"/>
	<path class="st56" d="M1838.29,618.51c0,0-9.93,13.06-9.41,13.06c0.51,0,20.47-0.2,20.47-0.2L1838.29,618.51z"/>
	<path class="st55" d="M1733.7,926.41c0,0,42.5,44.96,42.5,62.97c0,18.01,1.5,16.24,1.5,16.24l-57.92,0.41L1733.7,926.41z"/>
	<polygon class="st57" points="1827.65,615.31 1821.92,635.57 1855.89,635.36 1851.59,622.27 	"/>
	<g>
		<path class="st57" d="M1742.5,583.31c0,0,49.39,87.87,59.22,86.78c9.82-1.09,37.39-50.9,37.39-50.9l-89.24-38.61L1742.5,583.31"/>
		<path class="st57" d="M1932.64,586.04c0,0-41.41,87.6-51.24,86.51c-9.82-1.09-44.55-53.35-44.55-53.35l92.03-33.43"/>
	</g>
	<g class="st58">
		<path class="st59" d="M1994.69,710.19c-3.95,9.57-8.53,68.44-12.69,85.71c-0.04,0.18,16.12,23.4,16.12,23.4
			s45.54-24.51,44.1-21.64c-0.82,1.64-22.99-48.78-37.55-72.92c-1.48-2.46-7.47-14.43-9.99-15.81"/>
	</g>
	<g class="st60">
		<path class="st39" d="M1693.66,717.44c-0.65,12.41,4.88,59.9,8.22,71.47c3.86,13.35,12.26,38.46,19.48,48.83
			c7.22,10.38,18.25,13.15,28.67,14.07c1.21,0.11,2.59,0.02,3.37-1.25c0.72-1.17,0.63-2.9,0.4-4.4
			c-1.63-10.36-8.11-17.69-13.92-24.64c-15.05-18-31.24-62.41-41.89-85.62"/>
	</g>
	<g class="st61">
		<path class="st62" d="M1695.12,597.85c-0.65,12.41-2.82,63.41,0.52,74.97c3.86,13.35,12.26,38.46,19.48,48.83
			c7.22,10.38,18.25,13.15,28.67,14.07c1.21,0.11,2.59,0.02,3.37-1.25c0.72-1.17,0.63-2.9,0.4-4.4
			c-1.63-10.36-8.11-17.69-13.92-24.64c-15.05-18-31.24-62.41-41.89-85.62"/>
	</g>
	<path class="st63" d="M1925.07,585.19c0,0-6.62,44.72-89.03,41.99c-75.07-2.49-87.8-46.05-87.8-46.05"/>
	<g>
		<path class="st51" d="M2093.5,764.07c0,0-45.97,28.83-96.94,60.12"/>
	</g>
	<g class="st58">
		<path class="st59" d="M1981.97,795.62c-10.09,30.62-23.13,84.73-46.05,129.97c-2.66,5.24-17.12,54.91-17.12,80.71
			c0,3.27,45.98-1.09,62.36-6.82c-9.2-34.53-18.95-66.36-19.03-88.62c-0.15-40.27,6.01-51.05,12.28-74.81
			c2.33-8.84,4.35-17.35,4.83-21.1"/>
	</g>
	<path class="st57" d="M1991.39,730.54l-8.56,67.23c0,0,9.78,7.27,11.83-11.56S1991.39,730.54,1991.39,730.54z"/>
	<path class="st57" d="M1679.19,771.06l24.01,43.94C1703.21,815,1681.1,788.53,1679.19,771.06z"/>
	<polygon class="st64" points="1618.6,796.22 1646.27,806.69 1642.5,818.86 1615.54,810.52 	"/>
	<g>
		<path class="st2" d="M1741.96,579.01l48.03-15.28l48.31,54.85c0,0-33.98,46.87-34.11,46.67
			C1803.48,664.21,1741.96,579.01,1741.96,579.01z"/>
		<path class="st2" d="M1930.26,584.4l-46.66-18.59l-45.31,52.7c0,0,39.35,46.88,39.57,46.67
			C1878.82,664.22,1930.26,584.4,1930.26,584.4z"/>
	</g>
</g>
<path class="st2" d="M2088.1,775.09l8.54,12.96l-78.48,51.03c0,0-9.63-14.89-9.68-14.89C2006.85,824.19,2088.1,775.09,2088.1,775.09
	z"/>
<g class="st27">
	<path class="st65" d="M2025.07,833.49l50.06,79.11c0,0,21.34,44.46,49.77,39.36c56.75-10.19-30.72-162.17-30.72-162.17
		L2025.07,833.49z"/>
	<path class="st65" d="M2008.22,987.18c5.92-3.63,95.9-103.07,122.93-115.06c0,0,13.5,46.32,6.52,71.16
		c-6.98,24.84-79.66,82.22-99.23,79.79C2018.87,1020.64,2008.22,987.18,2008.22,987.18z"/>
</g>
<g id="Arm_x5F_L_x5F_oben_13_" class="st27">
	<path class="st65" d="M2029.57,828.87c-8.27-13.77-20.23-250.83-18.68-253.75c9.96-18.75,42.11-30.93,53.72-4.56
		c5.08,11.54,111.75,278.12-20.24,279.91c-37.05,0.5-23.53-18.3-23.53-18.3"/>
	<path class="st66" d="M2111.3,756.91l-7.4-52.17l3.12,67.6c-1.14,5.35-11.23,58.83-38.63,58.56c-17.22-0.17-39.17-4.9-39.17-4.9
		l-10.82,5.85l-3.33,1.2c4.66,24.43,26.21,23.39,29.21,23.46C2115.09,858.11,2111.3,756.91,2111.3,756.91z"/>
	<g class="st28">
		
			<ellipse transform="matrix(0.9685 -0.2491 0.2491 0.9685 -84.8009 532.9394)" class="st5" cx="2063.5" cy="601.56" rx="3.31" ry="3.02"/>
		<ellipse class="st5" cx="2068.83" cy="612.43" rx="2.05" ry="1.69"/>
		
			<ellipse transform="matrix(0.8059 -0.5921 0.5921 0.8059 33.2731 1344.2836)" class="st5" cx="2066.69" cy="621.4" rx="2.11" ry="1.97"/>
		<ellipse class="st5" cx="2072.51" cy="606.65" rx="1.84" ry="1.52"/>
	</g>
</g>
<path class="st39" d="M1623.45,798.22c14.89-56.67,43.51-144.51,50.17-164.79c0.91-2.77,2.71-5.16,5.13-6.8l63.76-43.32
	c0,0-25.49,24.66-44.76,56.76c-12.28,20.47-34.29,126.5-51.48,166.61c-0.43,1-20.48-7.5-20.48-7.5"/>
<g id="Ebene_69_Kopie">
</g>
<g class="st27">
	<polygon class="st67" points="1525.66,686.59 1459.28,708.07 1397.33,655.9 1415.11,577.6 1493.66,553.2 1499.57,553.49 	"/>
	<polygon class="st68" points="1536.46,685.22 1470.94,704.3 1408.68,651.6 1425.1,577.07 1499.57,553.49 1555.95,608.51 	"/>
</g>
<g id="Ebene_53_Kopie_2_Kopie">
</g>
<g class="st27">
	<polygon class="st67" points="1616.05,698.35 1549.66,719.82 1487.72,667.65 1505.49,589.35 1584.04,564.95 1589.95,565.24 	"/>
	<polygon class="st68" points="1626.84,696.98 1561.32,716.05 1499.06,663.36 1515.49,588.83 1589.95,565.24 1646.34,620.26 	"/>
</g>
<g class="st27">
	<path class="st65" d="M2115.68,503.96c-3.04,12.5-30.97,34.63-53.96,37.53c-9.65,1.22-13.7-10.18-22.28-12.26
		c-29.03-7.05-33.99-35.48-29.68-53.23s34.95-25.87,63.98-18.83C2102.76,464.22,2119.99,486.21,2115.68,503.96z"/>
	<g class="st28">
		<path class="st0" d="M2012.7,479.14c3.21-6.41-3.72,2.91-2.53-4.17c3.59-21.3,22.57-43.55,30.26-63.74c0.76-2,1.91-4.08,3.9-4.87
			c3.55-1.42,8.48,1.35,9.26,5.09c5.09,24.41-6.98,31.31-10.16,51.96c-1.49,9.68-6.47,12.06-15.79,15.07
			c-4.18,1.35-10-0.11-10.67-4.45"/>
	</g>
	<path class="st65" d="M2044.32,461.49c0,0,17.39-20.47,29.69-41.17c11.59-19.51,16.46-42.32,21.15-44.44
		c21.24-9.58,16.06,23.72,1.81,52.15c-10.6,21.13-21.13,39.4-21.13,39.4L2044.32,461.49z"/>
	<path class="st65" d="M2060.41,467.53c0,0,15.07-19.75,27.37-40.45c11.59-19.51,20.79-47.84,25.48-49.96
		c21.24-9.58,14.05,28.52-0.21,56.95c-10.6,21.13-21.12,39.4-21.12,39.4L2060.41,467.53z"/>
	<path class="st65" d="M2076.13,478.63c0,0,15.08-19.75,27.37-40.45c11.59-19.51,21.3-53.63,25.99-55.75
		c21.24-9.58,13.54,34.31-0.72,62.74c-10.6,21.13-21.13,39.4-21.13,39.4L2076.13,478.63z"/>
	<path class="st65" d="M2083.64,500.58c0,0,15.07-19.75,27.37-40.45c11.59-19.51,26.58-54.67,31.27-56.79
		c21.24-9.58,8.26,35.35-5.99,63.78c-10.6,21.13-21.12,39.4-21.12,39.4L2083.64,500.58z"/>
	<path class="st66" d="M2107.44,385.66l-39.07,73.75c0,0,13.06-14.46,22.42-30.9C2095.22,420.75,2107.44,385.66,2107.44,385.66z"/>
	<path class="st66" d="M2126.17,390.65l-39.07,73.75c0,0,13.06-14.46,22.42-30.9C2113.95,425.74,2126.17,390.65,2126.17,390.65z"/>
	<path class="st66" d="M2142.81,402.71l-39.07,73.75c0,0,13.06-14.46,22.42-30.9C2130.59,437.8,2142.81,402.71,2142.81,402.71z"/>
	<path class="st66" d="M2029.82,480.67c0,0,24.67-7.28,49.51,1.53c24.83,8.81,18.26,6.79,18.26,6.79s-10.09-14.87-31.2-17.85
		C2045.28,468.16,2029.82,480.67,2029.82,480.67z"/>
</g>
<g id="Ebene_44_Kopie_Kopie" class="st27">
	<g class="st28">
		<path class="st0" d="M1956.24,1002.97c0,0,12.96,1.5,22.55,13.14c9.31,11.3,28.51,14.04,38.36,14.05
			c10.34,0,25.71-6.59,29.19-8.24c7.83-3.71,5.85-10.58,5.85-10.58s-43.48-45.63-49.72-45.63
			C1962.76,965.72,1956.24,1002.97,1956.24,1002.97z"/>
	</g>
	<polygon class="st65" points="2015.41,983.81 2036.3,975.38 2034,1017.45 	"/>
	<path class="st65" d="M2004.77,966.86c0,0-34.86-17.39-45.28-20c-10.12-2.54-28.69-7.85-40.37-9.77
		c-1.72-0.28-16.86-5.36-13.44,3.45c2.46,6.33,23.99,13.91,29.94,13.6c5.96-0.31,27.18,13.72,27.18,13.72s16.42,9.44,18.22,9.28
		C1982.82,976.98,2004.77,966.86,2004.77,966.86z"/>
	<path class="st65" d="M1992.89,973.28c0,0-33.15-17.25-44.31-17.79s-30.44,15.08-30.44,15.08s-11.65,5.93-7.28,12.37
		c4.37,6.44,41.81-10.47,41.81-10.47l23.37,10.34L1992.89,973.28z"/>
	<path class="st65" d="M1987.78,987.62l-31.76-20.03c0,0-38.02,12.56-41.46,16.69c-6.43,7.72,1.44,16.4,7.63,13.41
		c6.19-2.98,23.73-10.07,23.73-10.07l24.17,5.46L1987.78,987.62z"/>
	<path class="st65" d="M1975.68,989.14c0,0-32.49-3.57-42.99-1.9c-14.43,2.3-20.1,13.46-8.19,15.06c11.91,1.6,31.73,0.67,31.73,0.67
		l20.77,9.57L1975.68,989.14z"/>
	<path class="st69" d="M1915.54,983.91c0,0,18.39-18.34,31.41-16.33c13.02,2.01,14.92,3.21,14.92,3.21s-15.11-2.46-20.76-0.73
		C1935.46,971.78,1915.54,983.91,1915.54,983.91z"/>
	<path class="st69" d="M1918.06,996.81c0,0,18.39-18.34,31.41-16.33c13.02,2.01,14.92,3.21,14.92,3.21s-15.11-2.46-20.76-0.73
		C1937.97,984.68,1918.06,996.81,1918.06,996.81z"/>
	<path class="st69" d="M2076.25,918.38c0,0,42.26-14.03,40.73-14.41c-1.53-0.38-21.11-4.5-28.99,3.07S2076.25,918.38,2076.25,918.38
		z"/>
</g>
<g id="Ebene_70_Kopie" class="st27">
	<path class="st68" d="M1657.07,263.33c-14.72,19.67-12.06,54.44-9.22,54.46c168.92,0.78,339.7-31.58,339.7-31.58
		s-1.47-51.11-12.91-54.36C1963.19,228.59,1657.07,263.33,1657.07,263.33z"/>
	<path class="st70" d="M1650.89,274.72c0.28-0.72,266.76-21.28,330.63-32.92"/>
	<path class="st70" d="M1648.75,281.1c0.77,0,268.9-21.28,332.76-32.92"/>
</g>
<g>
	<path class="st0" d="M2225.23,630.57c-3.47,12.39-32.16,33.52-55.24,35.61c-9.69,0.88-13.33-10.65-21.84-13.04
		c-28.76-8.06-32.72-36.65-27.79-54.24c4.93-17.59,35.84-24.63,64.6-16.57C2213.72,590.4,2230.16,612.98,2225.23,630.57z"/>
	<g>
		<path class="st0" d="M2125.99,607.57c0.29-7.17-2.19,4.18-4.02-2.75c-5.51-20.89,2.62-48.99,1.3-70.55
			c-0.13-2.14,0.06-4.5,1.54-6.05c2.65-2.75,8.28-2.27,10.54,0.82c14.7,20.14,6.55,31.41,12.16,51.53
			c2.63,9.43-0.92,13.65-8.18,20.24c-3.25,2.95-9.15,4.02-11.55,0.34"/>
	</g>
	<path class="st0" d="M2155.41,585.61c0,0,18.1-19.85,31.12-40.1c12.27-19.09,17.94-41.72,22.7-43.67
		c21.56-8.83,15.22,24.27-0.03,52.18c-11.34,20.75-22.5,38.63-22.5,38.63L2155.41,585.61z"/>
	<path class="st0" d="M2171.27,592.22c0,0,15.76-19.21,28.78-39.46c12.27-19.09,22.46-47.08,27.22-49.03
		c21.56-8.83,13.04,29-2.21,56.91c-11.34,20.75-22.5,38.63-22.5,38.63L2171.27,592.22z"/>
	<path class="st0" d="M2186.59,603.86c0,0,15.76-19.21,28.78-39.46c12.27-19.09,23.17-52.85,27.93-54.8
		c21.56-8.83,12.33,34.77-2.92,62.67c-11.34,20.75-22.5,38.63-22.5,38.63L2186.59,603.86z"/>
	<path class="st0" d="M2193.33,626.06c0,0,15.76-19.21,28.78-39.46c12.27-19.09,28.48-53.7,33.25-55.65
		c21.56-8.83,7.02,35.62-8.23,63.53c-11.34,20.75-22.5,38.63-22.5,38.63L2193.33,626.06z"/>
	<path class="st5" d="M2221.15,512.05l-41.63,72.33c0,0,13.56-13.99,23.49-30.09C2207.71,546.69,2221.15,512.05,2221.15,512.05z"/>
	<path class="st5" d="M2239.69,517.69l-41.63,72.33c0,0,13.56-13.99,23.49-30.09C2226.24,552.33,2239.69,517.69,2239.69,517.69z"/>
	<path class="st5" d="M2255.9,530.34l-41.63,72.33c0,0,13.56-13.99,23.49-30.09C2242.45,564.98,2255.9,530.34,2255.9,530.34z"/>
	<path class="st5" d="M2140.25,604.28c0,0,24.91-6.41,49.42,3.27c24.51,9.68,18.01,7.43,18.01,7.43s-9.56-15.21-30.56-18.94
		C2156.13,592.31,2140.25,604.28,2140.25,604.28z"/>
	<path class="st5" d="M2120.65,597.96c1.24-0.87,10.5-9.45,21.55-15.7c0.36-0.2,4.95-2.2,5.36-2.17l-0.6-1.64
		c0,0-4.7,1.57-12.36,5.92C2127.06,588.66,2120.65,597.96,2120.65,597.96z"/>
</g>
<g id="arm_x5F_L_Kopie">
	<path class="st0" d="M2094.17,789.79c0,0,5.17,5.83,13.52,16.4c0,0,20.07-157.5,22.31-166.49c11.67-46.75,50.17,25.47,50.17,25.47
		s19.72,264.73-62.04,253.72c-19.87-2.68-93.06-85.4-93.06-85.4L2094.17,789.79z"/>
	<polygon class="st5" points="2111.25,783.34 2136.39,847.28 2107.69,806.19 	"/>
	<path class="st0" d="M1498.47,599.5c0.57,0.57-5.69,45.6-10.34,49.69c-4.65,4.09,28.4-9.57,28.4-9.57s10.29-23.09,3.65-38.06
		C1508.24,574.6,1498.47,599.5,1498.47,599.5z"/>
	<path class="st5" d="M1493.33,633.1c0,0,11.94-5.2,25.86-4.66c0.37,0.01,0.73,0.03,1.1,0.05l1.24-6.79
		C1521.53,621.71,1516.53,616.15,1493.33,633.1z"/>
</g>
<polygon class="st50" points="2025.07,833.49 2042.11,852.18 2100.06,796.74 2094.17,789.79 "/>
<g>
	<g>
		<path class="st71" d="M1537.03,550.29c8.97,10.73,12.95,25.08,11.28,38.91c-0.19,1.61,1.52,3,3,3c1.78,0,2.81-1.38,3-3
			c1.86-15.45-3.1-31.26-13.04-43.16c-1.04-1.24-3.17-1.07-4.24,0C1535.8,547.28,1535.99,549.04,1537.03,550.29L1537.03,550.29z"/>
	</g>
</g>
<g>
	<g>
		<path class="st71" d="M1556.83,565.37c3.88,8.08,4.48,17.49,1.91,26.04c-1.11,3.71,4.68,5.29,5.79,1.6
			c3.05-10.16,2.06-21.13-2.51-30.67c-0.7-1.46-2.79-1.85-4.1-1.08C1556.41,562.14,1556.13,563.9,1556.83,565.37L1556.83,565.37z"/>
	</g>
</g>
<g transform="translate(-26 18) rotate(-10 1838.5 377.895)">
<path fill-rule="evenodd" clip-rule="evenodd" d="M1842.89 384.387L1846.38 395.508L1847.18 396.552L1847.18 396.552L1847.18 396.555L1847.19 396.563L1847.23 396.623C1847.27 396.68 1847.34 396.768 1847.43 396.884C1847.6 397.112 1847.85 397.447 1848.14 397.863C1843.89 398.309 1839.08 399.985 1834.56 404.367C1831.6 407.23 1831.53 411.947 1834.39 414.903C1837.26 417.859 1841.97 417.933 1844.93 415.07C1847.58 412.505 1850.1 412.386 1852.84 412.812C1853.59 412.928 1854.31 413.082 1855.11 413.259C1855.18 413.273 1855.24 413.288 1855.31 413.304C1855.98 413.453 1856.96 413.668 1857.83 413.785C1857.85 413.788 1857.87 413.79 1857.89 413.793C1858.55 413.884 1861.05 414.225 1863.53 412.962C1865.15 412.137 1866.52 410.758 1867.31 408.933C1868.02 407.294 1868.05 405.774 1867.97 404.802C1867.78 402.267 1866.7 399.833 1865.93 398.279C1865.04 396.488 1863.96 394.685 1862.97 393.15C1861.97 391.593 1860.99 390.192 1860.26 389.186C1860.14 389.018 1860.03 388.861 1859.92 388.715C1859.01 385.408 1858.03 382.41 1857.03 379.665L1845.61 343.223L1831.05 345.451C1831.05 355.659 1833.7 362.9 1836.79 369.995C1837.3 371.159 1837.82 372.312 1838.34 373.473C1839.86 376.882 1841.41 380.363 1842.89 384.387ZM1859.81 399.015C1860.01 399.041 1859.95 399.013 1859.72 399.001C1859.75 399.007 1859.78 399.011 1859.81 399.015Z" fill="#FFAD8E"/>
<path fill-rule="evenodd" clip-rule="evenodd" d="M1834.11 384.387L1830.62 395.508L1829.82 396.552L1829.82 396.552L1829.82 396.555L1829.81 396.563L1829.77 396.623C1829.73 396.68 1829.66 396.768 1829.57 396.884C1829.4 397.112 1829.15 397.447 1828.86 397.863C1833.11 398.309 1837.92 399.985 1842.44 404.367C1845.4 407.23 1845.47 411.947 1842.61 414.903C1839.74 417.859 1835.03 417.933 1832.07 415.07C1829.42 412.505 1826.9 412.386 1824.16 412.812C1823.41 412.928 1822.69 413.082 1821.89 413.259C1821.82 413.273 1821.76 413.288 1821.69 413.304C1821.02 413.453 1820.04 413.668 1819.17 413.785C1819.15 413.788 1819.13 413.79 1819.11 413.793C1818.45 413.884 1815.95 414.225 1813.47 412.962C1811.85 412.137 1810.48 410.758 1809.69 408.933C1808.98 407.294 1808.95 405.774 1809.03 404.802C1809.22 402.267 1810.3 399.833 1811.07 398.279C1811.96 396.488 1813.04 394.685 1814.03 393.15C1815.03 391.593 1816.01 390.192 1816.74 389.186C1816.86 389.018 1816.97 388.861 1817.08 388.715C1817.99 385.408 1818.97 382.41 1819.97 379.665L1831.39 343.223L1845.95 345.451C1845.95 355.659 1843.3 362.9 1840.21 369.995C1839.7 371.159 1839.18 372.312 1838.66 373.473C1837.14 376.882 1835.59 380.363 1834.11 384.387ZM1817.19 399.015C1816.99 399.041 1817.05 399.013 1817.28 399.001C1817.25 399.007 1817.22 399.011 1817.19 399.015Z" fill="#FFBEA6"/>
<path fill-rule="evenodd" clip-rule="evenodd" d="M1838.5 338C1842.61 338 1845.95 341.336 1845.95 345.451V410.339C1845.95 414.454 1842.61 417.79 1838.5 417.79C1834.38 417.79 1831.05 414.454 1831.05 410.339V345.451C1831.05 341.336 1834.38 338 1838.5 338Z" fill="#FFB195"/>
<path d="M1835.55 410.693C1831.82 400.758 1827.17 401.068 1824.06 404.173C1822.24 405.994 1822.7 407.261 1825.92 408.209C1828.2 408.878 1832.47 409.024 1835.55 410.693Z" fill="#DE7454"/>
<path d="M1844.55 410.441C1848.28 400.506 1852.94 400.817 1856.04 403.921C1857.87 405.742 1857.4 407.009 1854.18 407.957C1851.91 408.626 1847.64 408.772 1844.55 410.441Z" fill="#DE7454"/>
<ellipse cx="1839.12" cy="398.541" rx="4.65703" ry="11.7978" transform="rotate(90 1839.12 398.541)" fill="#FEC5BA"/>
</g>
</svg>
