<?xml version="1.0" encoding="utf-8"?>
<!-- Generator: Adobe Illustrator 25.4.0, SVG Export Plug-In . SVG Version: 6.00 Build 0)  -->
<svg version="1.1" id="Neutral" xmlns="http://www.w3.org/2000/svg" xmlns:xlink="http://www.w3.org/1999/xlink" x="0px" y="0px"
	 viewBox="0 0 3840 2160" style="enable-background:new 0 0 3840 2160;" xml:space="preserve">
<style type="text/css">
	.st0{fill:#FFB699;}
	.st1{fill:#54A465;}
	.st2{fill:#FFF8C5;}
	.st3{fill:none;stroke:#2E753B;stroke-miterlimit:10;}
	.st4{fill:#76C484;}
	.st5{fill:#F99A79;}
	.st6{fill:#449353;}
	.st7{fill:none;stroke:#FFF8C5;stroke-width:2;stroke-miterlimit:10;}
	.st8{fill:#FFF8C5;stroke:#002A2B;stroke-miterlimit:10;}
	.st9{fill:none;stroke:#22722F;stroke-miterlimit:10;}
	.st10{fill:#CCF6E6;}
	.st11{fill:none;stroke:#002A2B;stroke-width:4;stroke-miterlimit:10;}
	.st12{fill:#995B34;}
	.st13{fill:#633318;}
	.st14{fill:#AA6944;}
	.st15{fill:#D86C45;}
	.st16{fill:none;stroke:#64D250;stroke-width:12;stroke-miterlimit:10;}
	.st17{fill:#545454;}
	.st18{fill:#FFFFFF;}
	.st19{fill:url(#SVGID_1_);}
	.st20{fill:#16100B;}
	.st21{fill:url(#SVGID_00000146477597880045474810000016765093660625518769_);}
	.st22{fill:#FCD2CA;}
	.st23{fill:url(#SVGID_00000113341480079291947050000002690392613523458998_);}
	.st24{fill:url(#SVGID_00000169519025922999515600000008337825969788521648_);}
	.st25{fill:#841A06;}
	.st26{fill:#D64B2B;}
	.st27{fill:#FFAF9C;}
	.st28{fill:#894A27;}
	.st29{opacity:0.72;fill:#F99A79;}
	.st30{opacity:0.72;fill:#E27F64;}
	.st31{opacity:0.33;fill:#F98869;}
	.st32{fill:#D88C66;}
	.st33{fill:none;stroke:#995B34;stroke-miterlimit:10;}
	.st34{fill:#F0FFF9;}
	.st35{fill:#3F3F3F;}
	.st36{fill:none;stroke:#C9563F;stroke-width:0.5;stroke-miterlimit:10;}
	.st37{fill:none;stroke:#E58065;stroke-width:0.5;stroke-miterlimit:10;}
	.st38{fill:none;stroke:#54A465;stroke-miterlimit:10;}
	.st39{fill:#336B61;stroke:#002A2B;stroke-miterlimit:10;}
	.st40{fill:none;stroke:#002A2B;stroke-width:2;stroke-miterlimit:10;}
	.st41{fill:#002A2B;}
	.st42{opacity:0.31;}
	.st43{opacity:0.41;}
	.st44{fill:#28564D;}
	.st45{opacity:0.44;}
	.st46{fill:#C3EDDC;}
	.st47{opacity:0.41;fill:#28564D;}
	.st48{fill:#FFCAB8;}
	.st49{fill:#A5EA96;}
	.st50{fill:none;stroke:#CCF6E6;stroke-miterlimit:10;}
	.st51{fill:none;stroke:#006A58;stroke-width:0.25;stroke-miterlimit:10;}
	.st52{opacity:0.31;fill:#002A2B;}
	.st53{fill:none;stroke:#64D250;stroke-width:16;stroke-miterlimit:10;}
	.st54{opacity:0.45;}
	.st55{fill:#034437;}
	.st56{fill:#E1D223;}
	.st57{opacity:0.44;fill:#C3EDDC;}
	.st58{fill:#EAE0A4;}
	.st59{fill:#97D1B8;}
	.st60{fill:#EAE1AC;}
</style>
<g>
	<g>
		<g>
			<polygon class="st0" points="1755.07,1857.14 1764.34,1951.01 1822.2,1957.01 1828.2,1833.67 			"/>
			<path class="st1" d="M1753.57,1905.71c0,0,0.61,32.75-11.89,51.56c-4.82,7.25-12.94,13.61-20.43,18.47
				c-1.45,0.94-2.92,1.8-4.39,2.56c-19.1,9.82-66.04,35.47-78.04,49.66c-12.01,14.19-13.1,26.2-13.1,26.2l-6.55,2.18l9.96,9.01
				c0,0,10.64,13.23,49.94,2.87c39.29-10.37,150.22-73.81,150.22-73.81l0.2-92.37l-4.91-0.2c0,0-9.48,8.25-34.59,7.16
				c-25.11-1.09-31.31-8.39-31.31-8.39L1753.57,1905.71z"/>
			<path class="st2" d="M1625.72,2054.16l-6.55,2.18l7.09,11.46c0,0,15.96,11.19,55.26,0.82c39.29-10.37,146.95-62.22,146.95-62.22
				l1.64-13.1l-25.38,13.92c0,0-45.03,19.65-70.81,29.06C1648.28,2067.55,1625.72,2054.16,1625.72,2054.16z"/>
			<path class="st3" d="M1829.56,1978.84"/>
			<g>
				<path class="st4" d="M1631.82,2049.2c1.06-11.13,8.08-21.51,18.02-26.62c1.13-0.58,2.88-0.89,3.35,0.29
					c0.3,0.77-0.24,1.58-0.76,2.23c-6.07,7.61-12.14,15.22-18.21,22.83c-0.49,0.62-1.31,1.3-1.96,0.86"/>
			</g>
			<path class="st5" d="M1755.61,1865.87l0.82,10.37c0,0,29.06,9.96,48.71,7.78c14.27-1.59,20.47-6.96,20.47-6.96l2.05-22.65
				l-72.04,6.55V1865.87"/>
		</g>
		<path class="st6" d="M1828.06,1917.58c0,0-1.64,53.21-17.19,63.85c-15.55,10.64-128.53,69.99-128.53,69.99s65.9-15.55,102.74-35.2
			c31.45-16.78,44.21-21.83,44.21-21.83L1828.06,1917.58z"/>
		<path class="st7" d="M1716.32,1976.11c28.24-11.87,46.05,16.17,46.05,16.17"/>
		<path class="st7" d="M1693.4,1988.8c28.24-11.87,46.05,16.17,46.05,16.17"/>
		<path class="st7" d="M1667.2,2004.36c28.24-11.87,46.05,16.17,46.05,16.17"/>
		<ellipse class="st8" cx="1809.53" cy="1939.71" rx="12.09" ry="17.35"/>
		<path class="st9" d="M1759.71,1903.53c0,0-0.27-1.09-3,8.19c-2.73,9.28-2.23,31.86,2.73,39.02c4.91,7.09,13.78,4.91,13.78,4.91"/>
		<path class="st10" d="M1758.99,1901c0,0,14.74,13.61,41.44,9.93c13.97-1.93,24.15-9.11,24.15-9.11l1.23-20.47
			c0,0-8.54,6.72-32.54,6.62c-23.74-0.1-35.82-5.59-35.82-5.59L1758.99,1901z"/>
		<ellipse class="st1" cx="1778.74" cy="1917.99" rx="21.49" ry="28.65"/>
		<path class="st6" d="M1797.77,1907.35c0,0-17.6,11.87-19.24,28.65c-1.64,16.78-5.32,19.65-5.32,19.65s9.01,1.64,18.42-19.65
			S1797.77,1907.35,1797.77,1907.35z"/>
		<path class="st11" d="M1754.25,1881.42c0,0,11.19,4.64,32.75,5.46c21.56,0.82,33.29-4.09,41.21-8.73"/>
	</g>
	<g>
		<g>
			<polygon class="st0" points="2057.04,1857.75 2059.9,1952.04 2003.3,1965.43 1981.5,1843.88 			"/>
			<path class="st1" d="M2064.77,1905.73c0,0,3.6,32.55,18.42,49.6c5.71,6.57,14.58,11.83,22.63,15.69
				c1.56,0.75,3.13,1.41,4.68,1.97c20.21,7.29,70.05,26.69,83.78,39.22c13.73,12.53,16.36,24.3,16.36,24.3l6.78,1.32l-8.72,10.21
				c0,0-8.85,14.49-49.15,9.26c-40.3-5.23-158.46-53.89-158.46-53.89l-12.08-91.58l4.84-0.83c0,0,10.47,6.97,35.22,2.66
				c24.76-4.31,29.97-12.35,29.97-12.35L2064.77,1905.73z"/>
			<path class="st2" d="M2210.64,2036.51l6.78,1.32l-5.56,12.28c0,0-14.39,13.15-54.69,7.91c-40.3-5.23-153.73-42.81-153.73-42.81
				l-3.31-12.78l26.96,10.54c0,0,47.18,13.7,73.96,19.72C2189.98,2052.69,2210.64,2036.51,2210.64,2036.51z"/>
			<path class="st3" d="M1998.8,1988.02"/>
			<g>
				<path class="st4" d="M2203.95,2032.38c-2.48-10.9-10.78-20.29-21.29-24.09c-1.19-0.43-2.97-0.51-3.28,0.72
					c-0.2,0.8,0.45,1.54,1.04,2.11c7,6.77,14,13.53,20.99,20.3c0.57,0.55,1.46,1.12,2.06,0.6"/>
			</g>
			<path class="st5" d="M2057.62,1866.48l0.52,10.39c0,0-27.54,13.61-47.31,13.97c-14.35,0.26-21.19-4.27-21.19-4.27l-4.94-22.2
				l72.28-2.77L2057.62,1866.48"/>
		</g>
		<path class="st6" d="M1992.42,1927.08c0,0,8.46,52.56,25.26,61.11c16.79,8.55,136.46,52.89,136.46,52.89s-67.35-6.95-106.41-21.7
			c-33.35-12.59-46.65-15.97-46.65-15.97L1992.42,1927.08z"/>
		<path class="st7" d="M2110.76,1970.76c-29.53-8.14-43.59,21.95-43.59,21.95"/>
		<path class="st7" d="M2135.12,1980.4c-29.53-8.14-43.59,21.95-43.59,21.95"/>
		<path class="st7" d="M2163.1,1992.46c-29.53-8.14-43.59,21.95-43.59,21.95"/>
		
			<ellipse transform="matrix(0.9917 -0.1285 0.1285 0.9917 -233.5187 274.9854)" class="st8" cx="2013.64" cy="1946.64" rx="12.09" ry="17.35"/>
		<path class="st9" d="M2058.4,1904.35c0,0,0.13-1.12,4.03,7.73c3.9,8.85,6.3,31.31,2.31,39.05c-3.96,7.67-13.03,6.64-13.03,6.64"/>
		<path class="st10" d="M2058.79,1901.76c0,0-12.86,15.39-39.82,15.17c-14.1-0.12-25.12-5.93-25.12-5.93l-3.85-20.14
			c0,0,9.33,5.57,33.12,2.38c23.53-3.15,34.8-10.15,34.8-10.15L2058.79,1901.76z"/>
		
			<ellipse transform="matrix(0.9917 -0.1285 0.1285 0.9917 -230.0112 278.3398)" class="st1" cx="2041.38" cy="1921.14" rx="21.49" ry="28.65"/>
		<path class="st6" d="M2021.14,1913.03c0,0,18.98,9.51,22.76,25.94c3.78,16.43,7.8,18.8,7.8,18.8s-8.72,2.78-20.79-17.12
			S2021.14,1913.03,2021.14,1913.03z"/>
		<path class="st11" d="M2060.97,1881.73c0,0-10.5,6.04-31.77,9.62c-21.27,3.58-33.54,0.22-41.99-3.36"/>
	</g>
	<g id="Haarehinten_12_">
		<path class="st12" d="M1989.95,501.32l4.16,18.42c21.89-7.75,25.92-14.74,25.92-14.74s-10.48-46.83-10.1-65.22
			c2.46-117.88,1.09-136.44-6.55-176.28c-8.42-43.92-22.37-66.33-54.58-84.05c-43.66-24.01-68.46-25.29-158.41-17.06
			c-77.5,7.09-111.75,66.72-125.66,104.38c-6.96,18.83-3.82,52.94,0.27,128.25c4.09,75.32,2.18,127.98,2.18,127.98
			s8.39-1.74,44.21,3.27l1.64-45.84l-2.22,37.91c7.41,1.23,16.36-14.21,25.14-12.26c96.83,21.52,132.64-36.15,183.38-48.85
			l25.92,2.18l16.65,65.76c6.58-1.88,24.29-2.5,29.74-4.37L1989.95,501.32z"/>
		<path class="st13" d="M1958.64,413.59c0,0,13.69-16.06,19.1,3.27c7.64,27.29,10.37,76.95,10.37,76.95l3.55,27.02
			c0,0-28.11,5.18-29.74,4.37c-1.64-0.82-7.64-32.47-7.64-32.47l-12.55-53.48L1958.64,413.59z"/>
		<path class="st13" d="M1896.42,421.23c-38.44-95,6.74-30.33-63.85-28.38c-86.73,2.4-112.97-31.93-112.97-31.93l-9.55,165.37
			c20.51,1.23,36.44,0.81,45.43,0.96c90.19,1.5,102.74,2.32,153.5,0.14C1909.28,527.37,1907,447.37,1896.42,421.23z"/>
		<polygon class="st13" points="1903.24,492.45 1911.15,527.65 1957.54,525.2 1951.81,404.31 		"/>
		<g>
			<g>
				<g>
					<path class="st14" d="M1724.85,437.22c-0.59,22.66-0.76,45.33-0.81,68c-0.01,6.95-0.02,13.91-0.02,20.86
						c0,0.48,0.75,0.48,0.75,0c0-23.29,0.03-46.57,0.42-69.86c0.11-6.34,0.24-12.67,0.41-19.01
						C1725.62,436.74,1724.87,436.74,1724.85,437.22L1724.85,437.22z"/>
				</g>
			</g>
			<g>
				<g>
					<path class="st14" d="M1739.82,463.66c-1.01,15.77-0.25,31.58,0.14,47.36c0.13,5.19,0.21,10.38,0.24,15.57
						c0,0.48,0.75,0.48,0.75,0c-0.08-16.59-1.06-33.18-0.86-49.78c0.05-4.39,0.2-8.78,0.49-13.16
						C1740.6,463.18,1739.85,463.18,1739.82,463.66L1739.82,463.66z"/>
				</g>
			</g>
			<g>
				<g>
					<path class="st14" d="M1932.95,459.64c-0.36,0.01-0.09-0.15-0.11,0.17c-0.01,0.16,0.08,0.39,0.11,0.55
						c0.09,0.56,0.14,1.13,0.19,1.7c0.12,1.32,0.19,2.64,0.25,3.97c0.14,3.03,0.29,6.06,0.45,9.09c0.58,10.57,1.15,21.14,1.73,31.72
						c0.32,5.95,0.65,11.89,0.97,17.84c0.03,0.48,0.78,0.48,0.75,0c-1.08-19.92-2.13-39.84-3.21-59.76
						c-0.08-1.46-0.16-2.92-0.36-4.36c-0.06-0.44-0.1-1.67-0.78-1.66C1932.47,458.9,1932.47,459.65,1932.95,459.64L1932.95,459.64z"
						/>
				</g>
			</g>
			<g>
				<g>
					<path class="st14" d="M1937.01,459.13c1.19,17.46,2.83,34.88,4.94,52.25c0.58,4.79,1.2,9.57,1.85,14.34
						c0.06,0.48,0.79,0.27,0.72-0.2c-2.34-17.22-4.23-34.51-5.66-51.83c-0.4-4.85-0.76-9.71-1.09-14.57
						C1937.73,458.65,1936.98,458.65,1937.01,459.13L1937.01,459.13z"/>
				</g>
			</g>
		</g>
	</g>
	<g>
		<path class="st0" d="M1621.22,765.61c0,0-27.29,113.38-36.57,148.86c-4.7,17.98-59.49,184.74-62.22,187.47
			c-2.73,2.73,34.38,10.23,46.39,1.5c12.01-8.73,64.64-128.51,82.96-160.45c21.28-37.11,56.9-155,56.9-155"/>
		<path class="st5" d="M1612.55,811.28c0,0,28.72,47.11,68.29,55.02l2.46,0.82l7.09-21.01l-70.13-43.39L1612.55,811.28z"/>
	</g>
	<g>
		<path class="st0" d="M2065.6,760.97c0,0,27.29,113.38,36.57,148.86c4.7,17.98,59.49,184.74,62.22,187.47
			c2.73,2.73-34.38,10.23-46.39,1.5c-12.01-8.73-64.64-128.51-82.96-160.45c-21.28-37.11-56.9-155-56.9-155"/>
		<path class="st5" d="M2084.16,836.15c0,0-25.92,13.64-80.51,20.19l-2.46,0.82l-7.09-21.01l79.42-48.57L2084.16,836.15z"/>
	</g>
	<g id="Hals_17_">
		<path id="Hals_18_" class="st0" d="M1792.86,503.98l-1.23,66.11c0,0-44.75,9.96-61.67,18.69
			c-27.5,14.19,185.29,111.06,227.04,62.76c25-28.92,2.83-53.93-26.61-65.49c-11.46-4.5-45.64-13.71-45.64-13.71l-3.27-89.03
			L1792.86,503.98z"/>
		<path class="st15" d="M1792.45,508.28v19.65c0,0,43.18,36.43,91.28,15.35l-0.41-44L1792.45,508.28z"/>
	</g>
	<g id="Kleidung_9_">
		<path class="st10" d="M1750.97,579.23c0,0,14.74,46.34,90.05,46.34c83.01,0,86.78-42.28,86.78-42.28l63.04,14.77
			c0,0,9.69,175.05-18.01,249.69c-13.92,54.85-5.47,78.02-5.39,78.66c1.64,12.48,6.74,22.7,14.8,73.47c0,0-42.84,17.87-135.08,14.05
			c-81.8-3.39-127.36-6.86-126.89-7.5c3.34-4.57,10.23-43.25,15.96-80.91c1.97-12.96-17.1-73.09-19.65-79.41
			c-39.3-97.42-19.44-249.48-19.44-249.48L1750.97,579.23z"/>
		<path class="st10" d="M1696.93,596.59c0,0-61.4,88.41-88.41,175.19c23.74,41.75,92.51,50.76,92.51,50.76l39.3-85.14
			L1696.93,596.59z"/>
		<path class="st10" d="M1990.02,598.33c0,0,61.4,88.41,88.41,175.19c-23.74,41.75-92.51,50.76-92.51,50.76l-39.3-85.14
			L1990.02,598.33z"/>
	</g>
	<path class="st16" d="M1597,771.68c0,0,61.26,38.2,109.29,58.12"/>
	<path class="st16" d="M2088.8,774.34c0,0-57.99,37.38-106.01,57.31"/>
	<g>
		<path class="st17" d="M1715.22,1014.46c-20.71,50.21-34.92,102.89-43.77,177.1c78.13,37.2,168.12,37.77,254.62,35.45
			c36.01-0.97,72.39-2.36,107.16-11.77c-11.13-62.3-49.98-214.63-51.67-215.5c-0.1-0.05-0.39,1.07-0.55,1.09
			c-3.82,0.55-9.05,2.82-9.28,2.18c-8.47,3.59-44.9,11.81-119.52,9.82c-38.86-1.03-86.09-1.5-133.58-6.14
			c-0.03,0-0.68,3.97-0.68,3.89"/>
	</g>
	<g id="Kopf_17_">
		<path id="Kopf_18_" class="st0" d="M1697.91,250.49c0,0,14.04,133.3,22.15,171.76c9.41,44.62,60.8,102.76,121.93,103.3
			c48.61,0.43,107.08-71.82,115.89-102.89c7.78-27.42,2.81-82.12-1.28-123.87c-2.6-26.54-36.23-60.3-66.95-89.14
			c-17.57-16.49-44.46-17.92-63.64-3.33L1697.91,250.49z"/>
		<path class="st15" d="M1855.21,207.29c0,0-77.23,98.24-128.25,110.24s-18.01,8.6-18.01,8.6l1.91-44.62L1855.21,207.29z"/>
	</g>
	<g>
		<g>
			<path class="st18" d="M1878.41,350.28c0,0,12.55-19.1,28.11-18.28c15.55,0.82,21.83,3.55,28.65,17.74c0,0-7.09,15.83-24.29,16.37
				C1887.97,366.84,1878.41,350.28,1878.41,350.28z"/>
			<linearGradient id="SVGID_1_" gradientUnits="userSpaceOnUse" x1="1908.7231" y1="368.8174" x2="1908.4728" y2="343.9068">
				<stop  offset="0" style="stop-color:#008CB2"/>
				<stop  offset="0.2227" style="stop-color:#0188AD"/>
				<stop  offset="0.5014" style="stop-color:#047B9D"/>
				<stop  offset="0.8087" style="stop-color:#086684"/>
				<stop  offset="1" style="stop-color:#0B5570"/>
			</linearGradient>
			<path class="st19" d="M1927.56,347.65c0,10.72-8.53,19.41-19.05,19.41c-10.52,0-19.05-8.69-19.05-19.41
				c0-10.72,7.9-16.2,18.42-16.2C1918.4,331.45,1927.56,336.93,1927.56,347.65z"/>
			<ellipse class="st20" cx="1908.15" cy="346.94" rx="7.78" ry="7.98"/>
			<g>
				<path d="M1876.88,348.84c2.7-4.69,6.21-9.01,10.39-12.77c4.86-4.38,10.97-8.11,17.9-8.65c5.8-0.45,11.56,1.41,16.51,4.08
					s13.12,12.18,15.12,12.76c0,0,4.02,0.2,5.66-0.96c-2.02,2.27-4.5,5.37-7.37,6.78c-4.35-4.81-3.68-5.16-10.3-10.73
					c-4.88-4.11-11.37-7.9-18.35-7.56c-7.58,0.38-14.17,4.76-18.76,10.07c-4.09,4.74-7.85,9.77-8.05,10.25"/>
			</g>
			<path class="st18" d="M1903.08,350.01l-12.09,6.98c-1.06,0.61-2.43,0.25-3.05-0.82l-0.23-0.39c-0.61-1.06-0.25-2.43,0.82-3.05
				l12.09-6.98c1.06-0.61,2.43-0.25,3.05,0.82l0.23,0.39C1904.51,348.03,1904.14,349.4,1903.08,350.01z"/>
		</g>
		<g>
			<path class="st18" d="M1802.73,349.33c0,0-12.55-19.1-28.11-18.28c-15.55,0.82-21.83,3.55-28.65,17.74
				c0,0,7.09,15.83,24.29,16.37C1793.16,365.88,1802.73,349.33,1802.73,349.33z"/>
			
				<linearGradient id="SVGID_00000109741817510389893680000010620250708779886236_" gradientUnits="userSpaceOnUse" x1="1420.6593" y1="367.8622" x2="1420.4089" y2="342.9518" gradientTransform="matrix(-1 0 0 1 3193.0723 0)">
				<stop  offset="0" style="stop-color:#008CB2"/>
				<stop  offset="0.2227" style="stop-color:#0188AD"/>
				<stop  offset="0.5014" style="stop-color:#047B9D"/>
				<stop  offset="0.8087" style="stop-color:#086684"/>
				<stop  offset="1" style="stop-color:#0B5570"/>
			</linearGradient>
			<path style="fill:url(#SVGID_00000109741817510389893680000010620250708779886236_);" d="M1753.58,346.7
				c0,10.72,8.53,19.41,19.05,19.41c10.52,0,19.05-8.69,19.05-19.41s-7.9-16.2-18.42-16.2
				C1762.73,330.5,1753.58,335.98,1753.58,346.7z"/>
			<ellipse class="st20" cx="1772.98" cy="345.98" rx="7.78" ry="7.98"/>
			<g>
				<path d="M1804.25,347.89c-2.7-4.69-6.21-9.01-10.39-12.77c-4.86-4.38-10.97-8.11-17.9-8.65c-5.8-0.45-11.56,1.41-16.51,4.08
					c-4.96,2.68-13.12,12.18-15.12,12.76c0,0-4.02,0.2-5.66-0.96c2.02,2.27,4.5,5.37,7.37,6.78c4.35-4.81,3.68-5.16,10.3-10.73
					c4.88-4.11,11.37-7.9,18.35-7.56c7.58,0.38,14.17,4.76,18.76,10.07c4.09,4.74,7.85,9.77,8.05,10.25"/>
			</g>
			<path class="st18" d="M1768.45,350.49l-12.09,6.98c-1.06,0.61-2.43,0.25-3.05-0.82l-0.23-0.39c-0.61-1.06-0.25-2.43,0.82-3.05
				l12.09-6.98c1.06-0.61,2.43-0.25,3.05,0.82l0.23,0.39C1769.88,348.5,1769.52,349.87,1768.45,350.49z"/>
		</g>
	</g>
	<path class="st22" d="M1880.59,356.29c0.55,1.09,12.83,14.74,23.74,13.37s5.5,3.69-0.27,3.27
		C1884.96,371.57,1880.59,356.29,1880.59,356.29z"/>
	<path class="st22" d="M1805.98,355.6c-0.55,1.09-12.83,14.74-23.74,13.37s-5.5,3.69,0.27,3.27
		C1801.61,370.88,1805.98,355.6,1805.98,355.6z"/>
	
		<linearGradient id="SVGID_00000060709226449924968920000006423921930709340572_" gradientUnits="userSpaceOnUse" x1="2321.301" y1="322.6173" x2="2386.7869" y2="322.6173" gradientTransform="matrix(-1 0 0 1 4115.2583 0)">
		<stop  offset="0" style="stop-color:#FFB699;stop-opacity:0"/>
		<stop  offset="0.0426" style="stop-color:#FDAF91;stop-opacity:0.0818"/>
		<stop  offset="0.1473" style="stop-color:#FBA383;stop-opacity:0.2831"/>
		<stop  offset="0.2788" style="stop-color:#F99C7B;stop-opacity:0.5359"/>
		<stop  offset="0.5203" style="stop-color:#F99A79"/>
		<stop  offset="0.7469" style="stop-color:#F99C7B;stop-opacity:0.5276"/>
		<stop  offset="0.866" style="stop-color:#FBA383;stop-opacity:0.2793"/>
		<stop  offset="0.9599" style="stop-color:#FDAF91;stop-opacity:0.0836"/>
		<stop  offset="1" style="stop-color:#FFB699;stop-opacity:0"/>
	</linearGradient>
	<path style="fill:url(#SVGID_00000060709226449924968920000006423921930709340572_);" d="M1793.49,318.56
		c0.82,6.75,1.84,9.82-9.21,7.37c-11.05-2.46-16.99-5.53-23.95-1.23c-6.96,4.3-15.55,13.71-21.28,13.1
		c-5.73-0.61-14.33-7.16-8.8-12.08c5.53-4.91,16.57-15.17,29.27-17.4C1786.33,303.62,1793.49,318.56,1793.49,318.56z"/>
	
		<linearGradient id="SVGID_00000071527957036053360690000012005014172729173409_" gradientUnits="userSpaceOnUse" x1="1681.3263" y1="321.5258" x2="1746.8119" y2="321.5258" gradientTransform="matrix(1 0 0 1 203.2336 0)">
		<stop  offset="0" style="stop-color:#FFB699;stop-opacity:0"/>
		<stop  offset="0.0426" style="stop-color:#FDAF91;stop-opacity:0.0818"/>
		<stop  offset="0.1473" style="stop-color:#FBA383;stop-opacity:0.2831"/>
		<stop  offset="0.2788" style="stop-color:#F99C7B;stop-opacity:0.5359"/>
		<stop  offset="0.5203" style="stop-color:#F99A79"/>
		<stop  offset="0.7469" style="stop-color:#F99C7B;stop-opacity:0.5276"/>
		<stop  offset="0.866" style="stop-color:#FBA383;stop-opacity:0.2793"/>
		<stop  offset="0.9599" style="stop-color:#FDAF91;stop-opacity:0.0836"/>
		<stop  offset="1" style="stop-color:#FFB699;stop-opacity:0"/>
	</linearGradient>
	<path style="fill:url(#SVGID_00000071527957036053360690000012005014172729173409_);" d="M1885.03,317.47
		c-0.82,6.75-1.84,9.82,9.21,7.37s16.99-5.53,23.95-1.23s15.55,13.71,21.28,13.1c5.73-0.61,14.33-7.16,8.8-12.08
		s-16.57-15.17-29.27-17.4C1892.19,302.53,1885.03,317.47,1885.03,317.47z"/>
	<g id="Mund_9_">
		<g>
			<path class="st25" d="M1797.98,437.47l-2.66,3.68c0,0,14.12,24.97,20.47,26.4c6.34,1.43,38.48,6.96,48.1-2.46
				c9.62-9.41,22.72-26.4,22.72-26.4s-34.79-1.84-35.82-1.64C1849.76,437.26,1797.98,437.47,1797.98,437.47z"/>
			<path class="st18" d="M1796.54,438.7c0,0,3.48,8.39,12.08,12.08c8.6,3.68,34.59,3.48,41.14,3.07s25.85-4.62,32.4-13.22
				C1888.71,432.03,1796.54,438.7,1796.54,438.7z"/>
			<path class="st26" d="M1786.93,438.9c0,0,8.37-6.11,37.76-8.49c7.57-0.61,13.58,2.52,14.74,2.15c3.17-1.02,9.47-1.31,11.15-1.23
				c32.66,1.66,36.02,7.37,36.02,7.37s-29.67,6.91-47.58,6.45C1815.07,444.53,1786.93,438.9,1786.93,438.9z"/>
			<path class="st26" d="M1786.52,439.1c3.68,0.05,5.02-5.52,14.74,5.32c9.95,11.1,13.92,16.99,27.63,19.44
				c16.24,2.91,27.63,0.82,32.75-2.46c5.12-3.27,24.35-27.83,20.26-23.74c-1.43,1.43,7.57-1.23,3.07,4.71
				c-4.5,5.94-10.02,24.35-16.37,29.88c-6.34,5.53-14.94,11.05-37.86,7.98c-22.92-3.07-29.27-28.24-35-35
				C1790.32,438.88,1786.52,439.1,1786.52,439.1z"/>
		</g>
		<path class="st27" d="M1810.46,437.47c0,0,5.62-0.19,10.64,0.14c6.21,0.41,10.44,2.05,5.32,2.25S1810.46,437.47,1810.46,437.47z"
			/>
		<path class="st27" d="M1831.18,470.57c0,0,2.61-0.1,6.04,0c6.04,0.18,6.22,0.46,6.09,0.56
			C1839.73,473.91,1831.12,470.6,1831.18,470.57z"/>
		<g>
			<path class="st26" d="M1887.25,442.15c-1.51-1.67-2.5-3.81-2.79-6.04c-0.11-0.89-0.11-1.83,0.31-2.62
				c0.14-0.26,0.43-0.52,0.68-0.38c0.15,0.08,0.2,0.27,0.23,0.44c0.6,2.98,0.69,6.21,2.39,8.74
				C1888,442.42,1887.31,442.24,1887.25,442.15"/>
		</g>
		<g>
			<path class="st26" d="M1785.15,443.37c1.51-1.67,2.5-3.81,2.79-6.04c0.11-0.89,0.11-1.83-0.31-2.62
				c-0.14-0.26-0.43-0.52-0.68-0.38c-0.15,0.08-0.2,0.27-0.23,0.44c-0.6,2.98-0.69,6.21-2.39,8.74
				C1784.4,443.65,1785.09,443.47,1785.15,443.37"/>
		</g>
	</g>
	<path class="st28" d="M1866.54,314.57c0.82-0.51,14.05-15.02,26.81-17.5c13.71-2.66,17.08-0.81,28.65,2.66
		c12.28,3.68,23.54,14.63,23.54,14.63s2.66,2.76-11.26-2.97c-5.88-2.42-28.86-10.03-44-4.3c-6.62,2.5-18.41,8.65-20.16,9.82
		C1867.36,318.76,1866.54,314.57,1866.54,314.57z"/>
	<path class="st28" d="M1804.93,315.93c-0.82-0.51-14.05-15.02-26.81-17.5c-13.71-2.66-17.08-0.81-28.65,2.66
		c-12.28,3.68-23.54,14.63-23.54,14.63s-2.66,2.76,11.26-2.97c5.88-2.42,28.86-10.03,44-4.3c6.62,2.5,18.41,8.65,20.16,9.82
		C1804.12,320.13,1804.93,315.93,1804.93,315.93z"/>
	<g id="sprossen_18_">
		<ellipse class="st29" cx="1806.91" cy="590.42" rx="2.25" ry="1.84"/>
		<ellipse class="st29" cx="1786.72" cy="591.78" rx="2.25" ry="1.84"/>
		<ellipse class="st29" cx="1789.45" cy="579.23" rx="2.25" ry="1.84"/>
		<ellipse class="st29" cx="1777.72" cy="583.87" rx="2.25" ry="1.84"/>
		<ellipse class="st30" cx="1801.66" cy="375.66" rx="2.25" ry="1.74"/>
		<ellipse class="st30" cx="1792.72" cy="389.51" rx="2.25" ry="1.74"/>
		<ellipse class="st30" cx="1783.28" cy="379.17" rx="2.56" ry="2.35"/>
	</g>
	<g id="sprossen_17_">
		<ellipse class="st29" cx="1864.29" cy="591.24" rx="2.25" ry="1.84"/>
		<ellipse class="st29" cx="1884.48" cy="592.6" rx="2.25" ry="1.84"/>
		<ellipse class="st29" cx="1881.75" cy="580.05" rx="2.25" ry="1.84"/>
		<ellipse class="st29" cx="1893.49" cy="584.69" rx="2.25" ry="1.84"/>
		<ellipse class="st30" cx="1869.54" cy="376.48" rx="2.25" ry="1.74"/>
		<ellipse class="st30" cx="1878.48" cy="390.33" rx="2.25" ry="1.74"/>
		<ellipse class="st30" cx="1887.93" cy="379.99" rx="2.56" ry="2.35"/>
	</g>
	<g id="Rouge_9_">
		<path class="st31" d="M1794.56,400.94c0,11.99-17.85,21.87-33.95,21.87c-16.1,0-31.48-20.51-31.48-32.5
			c0-11.99,9.08-11.91,25.19-11.91C1770.42,378.39,1794.56,388.95,1794.56,400.94z"/>
		<path class="st31" d="M1887.99,402.3c0,11.99,17.85,21.87,33.95,21.87c16.1,0,31.48-20.51,31.48-32.5s-9.08-11.91-25.19-11.91
			C1912.13,379.75,1887.99,390.31,1887.99,402.3z"/>
	</g>
	<g id="Haareoben_11_">
		<g>
			<path class="st12" d="M1855.33,176.47c15.87,8.67,33.73,13.49,48.93,23.29c24.17,15.59,67.18,28.99,78.07,55.62
				c11.79,28.84,20.31,47.22-3.43,94.7c-1.68-17.34-11.71-27.93-24.35-39.91c-12.64-11.98-38.05-21.66-49.94-34.38
				c-11.92-12.76-27.57-34.1-32.75-50.76c-4-12.88-9.09-21.9-16.37-33.56c-14.7-23.54-59.71-8.5-82.44-7.6
				c-26.11,1.03-25.78-6.35-49.64,4.32c-23.86,10.67-57.91,77.65-60.03,103.7c0,0-0.07,0.95-0.23,2.6
				c-1.05,11.16,5.69,51.43-22.15,80.35c-9.73,10.11,29.74-12.01,31.93-31.11"/>
		</g>
		<g>
			<path class="st12" d="M1696.93,363.02c2.5-21.45,3.42,12.61,20.62-0.46c22.2-16.88-5.9-59.14,19.24-71.22
				c38.65-18.58,134.87-73.4,141.09-115.83c-6.25,3.61-12.73,6.7-19.38,9.4c-23.09,9.37-48.21,13.96-72.83,18.72
				c-14.07,2.72-28.28,5.6-41.28,11.62c-21.39,9.91-44.25,15.57-52.62,37.61c-8.37,22.04-2.16,60.21,7.26,81.83
				c3.83-6.41-5,36.39-1.17,29.98"/>
		</g>
		<g>
			<g>
				<path class="st12" d="M1668.74,392.38c-4.8-14.18-8.5-28.75-10.57-43.59c-1.77-12.71-2.32-25.62-1.34-38.42
					c0.85-11.19,2.9-22.3,6.2-33.03c3.01-9.79,7.05-19.25,12.03-28.2c4.61-8.27,9.99-16.11,16.02-23.4
					c5.61-6.79,11.75-13.12,18.32-18.99c6-5.37,12.35-10.34,18.98-14.93c5.73-3.96,11.66-7.63,17.77-11
					c4.88-2.69,9.88-5.19,14.98-7.44c3.36-1.48,6.76-2.87,10.25-4.02c0.54-0.18,1.09-0.35,1.63-0.51c0.92-0.27,0.53-1.72-0.4-1.45
					c-3.1,0.91-6.12,2.1-9.1,3.34c-4.84,2.01-9.58,4.26-14.22,6.69c-5.96,3.11-11.76,6.53-17.39,10.21
					c-6.61,4.33-12.97,9.03-19.02,14.11c-6.7,5.62-13.02,11.7-18.83,18.23c-6.23,7-11.89,14.51-16.81,22.48
					c-5.3,8.59-9.74,17.71-13.21,27.19c-3.79,10.36-6.36,21.13-7.8,32.07c-1.62,12.31-1.76,24.79-0.68,37.15
					c1.26,14.43,4.14,28.69,8.18,42.59c1.11,3.8,2.3,7.58,3.57,11.33C1667.6,393.69,1669.05,393.3,1668.74,392.38L1668.74,392.38z"
					/>
			</g>
		</g>
		<g>
			<path class="st14" d="M1888.78,194.74c4.04,19.9,21.61,40.3,36.57,54.03c19.17,17.6,32.88,18.03,37.66,18.56
				c-3.41-50.79-63.38-52.26-74.77-73.68"/>
		</g>
		<path class="st14" d="M1663.92,315.9v39.3l28.38,167.82c0,0-30.64,0.02-30.56-1.36C1663.65,487,1663.92,315.9,1663.92,315.9z"/>
		<path class="st28" d="M1668.02,286.43c0,50.76,33.84,65.36,33.84,65.36l16.3,21.01c0,0,12.07-21.15,10.71-33.43
			s-4.09-20.88-3.27-30.7c0.82-9.82,7.91-15.69,7.91-15.69s-80.5,1.91-26.47-61.13S1668.02,235.67,1668.02,286.43z"/>
		<path class="st28" d="M1970.64,210.43c0,0-25.65,42.98,8.19,88.82s29.06,92.51,29.06,92.51s2.17-92.78-15.55-148.17
			C1983.6,216.3,1970.64,210.43,1970.64,210.43z"/>
		<path class="st32" d="M1748.7,180.4c0,0-28.2,8.86-39.47,26.59c-11.28,17.72-18.07,34.6-5.64,19.33
			c14.1-17.32,35.04-28.6,35.04-28.6s48.58-31.83,29.26-21.81C1760.52,179.73,1748.7,180.4,1748.7,180.4z"/>
		<g>
			<g>
				<g>
					<path class="st12" d="M1724.1,187.15c-2.76,1.05-5.1,3.06-7.27,5c-3.07,2.74-5.91,5.75-8.65,8.81
						c-5.99,6.7-11.63,13.79-16.65,21.25c-1.62,2.41-3.28,4.88-4.45,7.55c-2.78,6.33-5.06,12.92-7.14,19.51
						c-4.36,13.83-7.39,28.07-9.1,42.47c-1.75,14.77-2.18,30.54,4.87,44.1c0.41,0.78,1.34,0.84,2.05,0.54
						c1.99-0.86,2.96-3.21,2.34-5.25c-0.56-1.84-3.46-1.06-2.89,0.8c0.27,0.88-0.16,1.51-0.96,1.86c0.68,0.18,1.37,0.36,2.05,0.54
						c-6.07-11.68-6.17-25.3-4.94-38.1c1.34-13.95,4.07-27.78,7.98-41.23c1.96-6.75,4.23-13.41,6.81-19.94
						c1.3-3.3,2.55-6.03,4.57-9.19c4.52-7.07,9.75-13.72,15.22-20.08c3.05-3.54,6.2-7.01,9.6-10.21c1.3-1.23,2.63-2.43,4.06-3.51
						c0.61-0.46,1.24-0.9,1.89-1.29c0.26-0.16,0.52-0.31,0.79-0.45c0.12-0.06,0.25-0.13,0.38-0.18c0.23-0.11-0.13,0.04,0.24-0.1
						C1726.69,189.37,1725.91,186.47,1724.1,187.15L1724.1,187.15z"/>
				</g>
			</g>
			<path class="st33" d="M1867.77,175.91c0,0-9.01,75.72,27.02,98.65s71.22,35.61,71.22,35.61l-82.68-112.15L1867.77,175.91z"/>
			<g>
				<g>
					<path class="st12" d="M1726.11,188.84c20.91-11.01,43.61-19.17,67.22-21.59c16.95-1.74,34.2-0.46,50.55,4.41
						c11.58,3.45,22.74,8.66,32.57,15.72c3.36,2.41,6.32,5.31,9.7,7.69c4.47,3.15,9.35,5.72,14.21,8.2
						c13.79,7.04,28.03,13.2,42.07,19.72c14.24,6.61,28.6,13.32,41.91,21.68c4.99,3.14,9.95,6.53,14.09,10.76
						c1.52,1.55,2.94,3.24,4,5.15c0.56,1.02,0.93,2.08,1.3,3.18c0.89,2.68,1.74,5.37,2.55,8.07c3.42,11.46,6.12,23.15,7.84,34.99
						c1.7,11.68,2.49,23.63,1.31,35.41c-1.3,12.89-3.45,25.69-5.64,38.45c-1.05,6.15-2.13,12.3-3.14,18.45
						c-1.01,6.15-2.16,12.33-2.71,18.53c-2.03,22.8,5.05,46.11,14.94,66.41c2.39,4.91,5.02,9.7,7.87,14.36
						c0.5,0.82,1.8,0.07,1.3-0.76c-12.19-19.91-21.21-43-22.73-66.45c-0.8-12.31,1.54-24.37,3.57-36.45
						c2.11-12.53,4.39-25.04,6.17-37.63c0.87-6.16,1.77-12.35,2.17-18.56c0.38-5.87,0.3-11.76-0.09-17.63
						c-0.8-12.02-2.86-23.95-5.67-35.66c-1.37-5.71-2.94-11.38-4.69-16.99c-0.98-3.13-1.77-6.48-3.53-9.29
						c-2.65-4.24-6.68-7.57-10.65-10.53c-11.93-8.9-25.63-15.49-39.01-21.89c-14.67-7.02-29.59-13.52-44.25-20.56
						c-5.8-2.79-11.6-5.64-17.15-8.9c-3.83-2.25-7.13-4.86-10.55-7.65c-8.54-6.99-18.41-12.35-28.69-16.3
						c-14.88-5.72-30.87-8.34-46.8-8.15c-21.76,0.26-43.18,5.69-63.15,14.14c-6,2.54-11.87,5.36-17.64,8.39
						C1724.5,187.99,1725.26,189.29,1726.11,188.84L1726.11,188.84z"/>
				</g>
			</g>
		</g>
		<path class="st33" d="M1663.65,346.73c0,0,0.47,115.22-2.18,137.81c-1.64,13.92-16.65,27.83-16.65,27.83"/>
		<path class="st33" d="M1648.32,514.89"/>
		<line class="st33" x1="1665.29" y1="352.46" x2="1682.48" y2="520.56"/>
		<g>
			<path class="st14" d="M1706.46,267.75c-1.51-4.16-0.98-8.78,0.06-13.09c4.45-18.37,17.79-33.66,33.65-43.94
				c6.86-4.45,14.21-8.08,21.54-11.69c18.81-9.29,37.64-18.57,56.93-26.81c2.13-0.91,4.34-1.82,6.67-1.84
				c2.32-0.02,4.81,1.08,5.74,3.2c1.52,3.44-1.57,7.09-4.54,9.38c-8.26,6.37-17.77,10.88-27.13,15.48
				c-24.8,12.21-49.5,25.75-68.82,45.52c-4.76,4.87-9.18,10.11-14.47,14.39c-3.33,2.69-6.98,4.99-10.86,6.82"/>
		</g>
		<g>
			<g>
				<path class="st14" d="M1715.41,350.91c-8.26-19.21-14.41-41.59-8.41-62.33c3.7-12.79,12.13-23.33,22.97-30.86
					c4.01-2.78,8.28-5.16,12.67-7.28c8.71-4.21,17.72-7.7,26.77-11.08c7.04-2.63,14.08-5.26,20.94-8.34
					c3.52-1.58,6.74-3.22,9.79-5.58c6.77-5.23,12.71-11.59,18.4-17.94c6.71-7.5,13.07-15.31,19.11-23.36
					c4.93-6.56,9.8-13.28,13.84-20.43c0.66-1.17,1.29-2.35,1.86-3.57c0.2-0.43-0.44-0.82-0.65-0.38
					c-3.08,6.59-7.46,12.66-11.69,18.55c-5.94,8.26-12.26,16.26-18.9,23.97c-6.02,7-12.28,13.91-19.26,19.96
					c-2.44,2.11-4.99,4.19-7.83,5.73c-6.16,3.34-12.92,5.77-19.45,8.26c-10.61,4.03-21.26,7.89-31.54,12.71
					c-4.24,1.99-8.39,4.17-12.33,6.71c-10.68,6.92-19.47,16.53-24.02,28.53c-7.07,18.65-3.27,39.5,3.34,57.69
					c1.15,3.17,2.41,6.3,3.75,9.41C1714.96,351.73,1715.6,351.35,1715.41,350.91L1715.41,350.91z"/>
			</g>
		</g>
		<g>
			<g>
				<path class="st14" d="M1871.89,162.4c0.82,14.21,3.15,28.36,6.73,42.14c3.71,14.29,8.79,28.4,16.1,41.27
					c3.32,5.84,7.12,11.43,11.58,16.46c5.53,6.23,11.93,11.65,18.55,16.68c6.83,5.2,13.96,10,20.96,14.98
					c3.2,2.28,6.46,4.52,9.43,7.1c2.71,2.35,5.23,4.92,7.61,7.6c5.21,5.87,9.79,12.29,13.87,18.99c3.91,6.42,7.42,13.13,10.16,20.14
					c0.6,1.54,1.17,3.1,1.68,4.68c0.15,0.46,0.87,0.26,0.72-0.2c-4.56-13.89-12.27-27.02-21.24-38.51
					c-4.37-5.6-9.21-10.96-14.84-15.32c-6.61-5.11-13.63-9.7-20.42-14.55c-7.05-5.03-13.98-10.27-20.26-16.26
					c-5.27-5.02-9.89-10.57-13.84-16.68c-8.01-12.4-13.55-26.34-17.66-40.46c-4.1-14.07-6.83-28.6-8.04-43.21
					c-0.13-1.61-0.25-3.22-0.34-4.83C1872.62,161.92,1871.87,161.92,1871.89,162.4L1871.89,162.4z"/>
			</g>
		</g>
		<g>
			<g>
				<path class="st14" d="M1965.35,279.99c2.72,13.99,9.62,26.65,16.91,38.73c7.5,12.42,15.88,24.64,21.08,38.27
					c2.89,7.58,4.23,15.58,5.09,23.62c0.9,8.4,1.14,16.87,0.8,25.31c-0.34,8.41-1.43,16.73-2.33,25.09
					c-0.89,8.23-1.55,16.48-1.82,24.75c-0.53,16.28,0.51,32.73,4.55,48.55c0.5,1.95,1.05,3.89,1.63,5.82
					c0.14,0.46,0.86,0.26,0.72-0.2c-4.83-15.87-6.45-32.49-6.27-49.03c0.09-8.2,0.61-16.38,1.39-24.54
					c0.8-8.4,2.03-16.75,2.59-25.17c0.57-8.42,0.59-16.88-0.04-25.3c-0.6-7.99-1.56-16.11-3.81-23.82
					c-4.06-13.85-12.23-26.27-19.72-38.46c-7.52-12.23-15.14-24.78-18.89-38.77c-0.45-1.67-0.83-3.36-1.16-5.06
					C1965.99,279.32,1965.26,279.52,1965.35,279.99L1965.35,279.99z"/>
			</g>
		</g>
		<g>
			<g>
				<path class="st14" d="M1670.66,251.4c-3.81,11.17-6.91,22.75-9.36,34.29c-0.55,2.6-1.06,5.22-1.38,7.87
					c-0.34,2.85-0.04,5.6,0.13,8.46c0.63,10.11,0.82,20.25,0.96,30.38c0.28,20.68,0.24,41.45,2.8,62.01
					c1.23,9.93,3.26,19.67,5.85,29.33c2.7,10.05,5.82,19.98,8.71,29.98c5.64,19.47,10.36,39.55,8.62,59.97
					c-0.23,2.68-0.57,5.34-1.01,8c-0.08,0.47,0.64,0.68,0.72,0.2c3.3-19.97,0.1-39.93-5.07-59.29
					c-5.3-19.83-12.45-39.25-15.82-59.55c-3.4-20.47-3.68-41.33-3.94-62.03c-0.13-10.24-0.22-20.48-0.64-30.7
					c-0.18-4.5-0.67-9.02-0.77-13.52c-0.05-2.23,0.35-4.48,0.74-6.67c2.15-12.22,5.66-24.33,9.41-36.14
					c0.25-0.8,0.51-1.59,0.78-2.39C1671.54,251.14,1670.81,250.94,1670.66,251.4L1670.66,251.4z"/>
			</g>
		</g>
	</g>
	<g id="Ohren_9_">
		<g>
			<g>
				<path class="st0" d="M1954,383.85c0,19.89-10.11,39.03,3.41,40.11c20.47,1.64,44.62-23.22,44.62-43.12s-9.36-30.15-22.92-30.15
					C1965.54,350.69,1954,363.95,1954,383.85z"/>
			</g>
		</g>
		<g>
			<g>
				<path class="st0" d="M1724.5,378.93c0,19.89,8.24,43.39-5.32,43.39c-27.83,0-42.71-26.5-42.71-46.39s9.09-27.29,22.65-27.29
					S1724.5,359.04,1724.5,378.93z"/>
			</g>
			<path class="st15" d="M1716.86,368.11c0,0-11.46-20.74-24.01-10.37c-12.55,10.37-6.55,21.28-6.55,21.28s13.14-17.35,10.37-4.37
				c-3.55,16.65,17.74,33.29,17.74,33.29s-13.64-29.2-4.37-30.29S1716.86,368.11,1716.86,368.11z"/>
			<path class="st15" d="M1961.86,373.43c0,0,11.46-20.74,24.01-10.37c12.55,10.37,6.55,21.28,6.55,21.28s-13.14-17.35-10.37-4.37
				c3.55,16.65-17.74,33.29-17.74,33.29s13.64-29.2,4.37-30.29C1959.41,381.89,1961.86,373.43,1961.86,373.43z"/>
		</g>
	</g>
	<path id="nase_9_" class="st15" d="M1817.85,401.16c-0.51-0.54-0.08-1.43,0.66-1.33c4.2,0.56,14.02,1.77,20.04,1.77
		c8.25,0,17.19-0.76,21.06-1.13c0.74-0.07,1.15,0.81,0.63,1.34c-2.56,2.57-9,7.47-20.92,7.62
		C1827.39,409.58,1820.55,403.99,1817.85,401.16z"/>
	<circle class="st5" cx="1515.48" cy="1109.98" r="2.18"/>
	<ellipse class="st5" cx="1506.74" cy="1114.9" rx="1.64" ry="2.18"/>
	<ellipse class="st5" cx="1494.46" cy="1108.62" rx="1.91" ry="1.36"/>
	<circle class="st5" cx="1543.31" cy="1065.23" r="2.18"/>
	<ellipse class="st5" cx="1545.9" cy="1074.65" rx="1.77" ry="2.05"/>
	<ellipse class="st5" cx="1547.4" cy="1058.68" rx="1.36" ry="1.64"/>
	<circle class="st5" cx="1508.52" cy="1108.48" r="1.77"/>
	<ellipse class="st5" cx="1498.69" cy="1110.94" rx="1.23" ry="1.5"/>
	<circle class="st5" cx="1503.88" cy="1116.4" r="2.32"/>
	<ellipse class="st5" cx="2106.81" cy="970" rx="3.27" ry="3.68"/>
	<circle class="st5" cx="2114.59" cy="981.87" r="2.05"/>
	<ellipse class="st5" cx="2114.59" cy="992.92" rx="2.05" ry="2.46"/>
	<circle class="st5" cx="2116.84" cy="974.29" r="1.84"/>
	<path class="st5" d="M1961.5,375.66c0,0-16.13,48.06-16.37,48.44c-5.3,8.17-57.72,99.39-97.62,100.76c0,0,35.82,1.98,78.39-50.76
		c20.39-25.26,31.52-49.73,31.52-49.73"/>
	<path class="st22" d="M1715.91,381.8c0,0-0.82,24.97,4.5,42.16s11.87,30.7,17.6,38.89c5.73,8.19-9.41-15.14-11.87-35.2
		C1723.68,407.59,1715.91,381.8,1715.91,381.8z"/>
	<path class="st5" d="M1995.2,838.19l28.52-3.27l69.18,215.3l-0.82,6.55C2092.08,1056.77,2013.76,898.77,1995.2,838.19"/>
	<path class="st12" d="M2005.03,425.6c0,0-22.38,29.47,0,40.93c22.38,11.46,33.84,5.46,33.84,5.46s-26.74-10.92-30.02-24.56
		C2005.57,433.78,2005.03,425.6,2005.03,425.6z"/>
	<path class="st12" d="M1781.4,162.4c0,0,6.96-21.69,36.43-14.74c29.47,6.96,44.62,14.74,44.62,14.74s-27.83-9.41-45.03-7.78
		s-37.25,13.51-37.25,13.51L1781.4,162.4z"/>
	<path class="st28" d="M1790.4,162.4c0,0-16.24,30.15-31.52,33.97c-15.28,3.82,35.47-5.46,38.2-19.1
		c2.73-13.64,3.27-15.83,3.27-15.83L1790.4,162.4"/>
	<path class="st34" d="M1608.8,769.97c16.92-64.4,88.12-173.38,88.12-173.38l47.23-14.91c0,0-25.49,24.66-44.75,56.76
		c-12.28,20.47-49.39,106.15-66.58,146.26c-0.43,1-24.15-13.37-24.15-13.37"/>
	<path class="st17" d="M1671.56,1191.17c-2.85,2.14,18.34,162.74,35.75,331.42c9.28,89.91,22.59,182.26,25.79,257.05
		c0.02,0.38-10.78,2.33-10.64,3.14c4.97,29.87,16.99,68.08,19.75,75.35c0,0,28.47,28.02,95.27,2.97
		c0.23-0.09,3.68-30.02,11.05-76.13c0.23-1.47-9.72-0.26-9.69-1.77c1.43-66.05,4.09-166.68,5.95-262.24
		c3-154.32,5.78-302.9,5.78-302.9L1671.56,1191.17z"/>
	<path class="st35" d="M1733.1,1779.64c-0.37-0.08-10.78,2.33-10.64,3.14c4.97,29.87,16.99,68.08,19.75,75.35
		c0,0,28.47,28.02,95.27,2.97c0.23-0.09,3.68-30.02,11.05-76.13c0.23-1.47-8.22-2.15-9.69-1.77
		C1811.28,1790.28,1784.26,1791.1,1733.1,1779.64z"/>
	<path class="st17" d="M2032.86,1214.5c0.46-6.96,34.77,347.13,33.98,560.19c0,0.38,0,0.76,0,1.14c0,0.83,7.77,2.98,7.77,3.8
		c-0.17,30.28-5.98,69.92-7.56,77.53c0,0-23.67,32.18-93.6,18.03c-0.25-0.05-8.4-29.05-22.98-73.42c-0.46-1.41,8.39-4.51,8.12-6
		c-9.45-51.7-12.42-152.41-26.97-228.98c-33.29-175.1-81.59-341.1-81.59-341.1L2032.86,1214.5z"/>
	<g>
		<path class="st0" d="M1543.99,1090.34l-80.36,23.19c0,0,0.55,41.21,27.56,37.11c27.02-4.09,37.11,3,53.21-6
			c16.1-9.01,31.93-51.85,31.93-51.85L1543.99,1090.34z"/>
		<path class="st0" d="M1512.2,1138.09c0,0-15.5,8.37-29.61,18.56c-12.7,9.17-23.93,20.08-27.42,22.92
			c-6.43,5.24-0.82,11.73,14.74,7.64s40.25-21.56,41.34-22.1c1.09-0.55,25.32-11.27,32.75-18.69c7.23-7.23,12.69-17.33,12.69-17.33
			L1512.2,1138.09z"/>
		<path class="st0" d="M1475.91,1131.54l-37.66,21.01l-39.3,32.75c0,0-9.01,5.73,1.36,6.55c10.37,0.82,23.4-7.03,26.4-10.85
			c1.04-1.33,21.95-11.25,29.06-16.58c0.82-0.61,46.46-14.53,46.46-14.53L1475.91,1131.54z"/>
		<path class="st0" d="M1471.81,1119.54l-37.66,21.01l-39.29,32.75c0,0-9.01,5.73,1.36,6.55c10.37,0.82,37.38-16.65,40.39-20.47
			s58.12-24.56,58.12-24.56L1471.81,1119.54z"/>
		<path class="st0" d="M1462.81,1115.99l-35.56,19.61l-35.46,33.8c0,0-8.26,6.07,1.79,6.07c10.05,0,34.79-18.47,37.41-22.3
			s54.19-27.48,54.19-27.48L1462.81,1115.99z"/>
		<path class="st0" d="M1464.99,1113.67l-22.51,7.78l-44.43,31.48c0,0-9.12,4.67,0.8,6.28c9.92,1.61,37.3-12.67,40.49-16.03
			s57.89-18.46,57.89-18.46L1464.99,1113.67z"/>
		<g>
			<path class="st36" d="M1471.81,1137.55c0,0-12.14,4.98-24.42,10.92c-12.28,5.94-36.23,26.2-36.23,26.2"/>
			<path class="st36" d="M1462.81,1130.04c0,0-15.55,6.48-27.83,12.42c-12.28,5.94-36.23,26.2-36.23,26.2"/>
			<path class="st36" d="M1458.31,1124.17c0,0-8.05,3.07-20.33,9.01c-12.28,5.94-36.23,26.2-36.23,26.2"/>
		</g>
	</g>
	<g>
		<path class="st0" d="M2143.79,1086.24l80.08,23.6c0,0-0.27,40.8-27.28,36.7s-37.11,3-53.21-6c-16.1-9.01-29.82-47.65-29.82-47.65
			L2143.79,1086.24z"/>
		<path class="st0" d="M2175.58,1134c0,0,15.5,8.37,29.61,18.56c12.7,9.17,23.93,20.08,27.42,22.92c6.43,5.24,0.82,11.73-14.74,7.64
			c-15.55-4.09-40.25-21.56-41.34-22.1s-25.32-11.27-32.75-18.69c-7.23-7.23-12.69-17.33-12.69-17.33L2175.58,1134z"/>
		<path class="st0" d="M2211.88,1127.45l37.66,21.01l39.29,32.75c0,0,9.01,5.73-1.36,6.55c-10.37,0.82-23.4-7.03-26.4-10.85
			c-1.04-1.33-21.95-11.25-29.06-16.58c-0.82-0.61-46.46-14.53-46.46-14.53L2211.88,1127.45z"/>
		<path class="st0" d="M2215.97,1115.44l37.66,21.01l39.3,32.75c0,0,9.01,5.73-1.36,6.55c-10.37,0.82-37.38-16.65-40.39-20.47
			c-3-3.82-58.12-24.56-58.12-24.56L2215.97,1115.44z"/>
		<path class="st0" d="M2224.98,1111.9l35.56,19.61l35.46,33.8c0,0,8.26,6.07-1.79,6.07c-10.05,0-34.79-18.48-37.41-22.3
			c-2.61-3.83-54.19-27.48-54.19-27.48L2224.98,1111.9z"/>
		<path class="st0" d="M2222.79,1109.58l22.51,7.78l44.43,31.48c0,0,9.12,4.67-0.8,6.28c-9.92,1.61-37.3-12.67-40.49-16.03
			s-57.89-18.46-57.89-18.46L2222.79,1109.58z"/>
		<g>
			<path class="st37" d="M2215.97,1133.45c0,0,12.14,4.98,24.42,10.92c12.28,5.94,36.23,26.2,36.23,26.2"/>
			<path class="st37" d="M2224.98,1125.95c0,0,15.55,6.48,27.83,12.42c12.28,5.94,36.23,26.2,36.23,26.2"/>
			<path class="st37" d="M2229.48,1120.08c0,0,8.05,3.07,20.33,9.01c12.28,5.94,36.23,26.2,36.23,26.2"/>
		</g>
	</g>
	<path class="st38" d="M1714.13,1016.66"/>
	<path class="st39" d="M1705.67,1039.17c0,0,182.15,38.48,287.34,3.27l-9.82-42.71c-65.49,24.56-262.38,6.69-262.38,6.69
		L1705.67,1039.17z"/>
	<path class="st40" d="M1783.04,1187.76c0,0,61.81,28.24,66.72,40.93l4.09,0.82c11.05-6.55,15.55-173.14,15.55-173.14"/>
	<path class="st40" d="M1849.35,1228.28c0,0-39.7-3.68-49.94-1.64"/>
	<g>
		<g>
			<path class="st41" d="M1677.98,1186.94c4.78,37.67,9.24,75.38,13.49,113.11c4.39,39.01,8.56,78.05,12.58,117.1
				c4.07,39.52,8,79.05,11.84,118.59c3.81,39.18,7.55,78.37,11.27,117.56c3.61,38.01,7.21,76.02,10.87,114.03
				c0.45,4.65,0.9,9.3,1.34,13.94c0.18,1.9,3.19,1.92,3,0c-3.65-37.8-7.24-75.6-10.83-113.41c-3.71-39.09-7.43-78.18-11.21-117.26
				c-3.83-39.54-7.73-79.08-11.76-118.6c-4-39.16-8.13-78.31-12.48-117.43c-4.22-37.94-8.64-75.87-13.37-113.75
				c-0.58-4.63-1.16-9.27-1.75-13.9C1680.74,1185.05,1677.74,1185.02,1677.98,1186.94L1677.98,1186.94z"/>
		</g>
	</g>
	<g>
		<g>
			<path class="st41" d="M1740.83,1046.11c-1.7,10.35-3.06,20.8-5.51,31.01c-2.27,9.43-5.58,18.71-11.32,26.62
				c-2.84,3.91-6.3,7.42-10.14,10.34c-2.23,1.69-4.61,3.18-6.93,4.74c-6.12,4.1-12.27,8.21-18.12,12.69
				c-1.2,0.91-2.4,1.83-3.51,2.85c-0.35,0.31-0.69,0.64-0.99,0.99c-0.11,0.13-0.23,0.26-0.31,0.4c-0.14,0.24,0.01-0.19-0.01,0
				c0.75,0.21,1.5,0.42,2.25,0.62c0-0.02-0.01-0.04-0.01-0.06c0.03-0.02-0.03,0.43,0.04-0.04c0.14-0.93,0.39-2.42,0.66-3.66
				c0.21-0.93,0.47-1.85,0.66-2.79c0.27-1.37-1.43-2.65-2.51-1.46c-0.51,0.56-0.62,1.54-0.81,2.23c-0.51,1.94-0.99,3.89-1.44,5.85
				c-0.9,3.91-1.68,7.85-2.34,11.82c-1.32,7.97-2.18,16.03-2.53,24.11c-0.2,4.57-0.23,9.15-0.12,13.73c0.05,1.93,3.05,1.93,3,0
				c-0.25-9.96,0.24-19.93,1.48-29.81c0.63-4.97,1.46-9.91,2.47-14.81c0.49-2.36,1.02-4.71,1.59-7.05c0.31-1.25,0.62-2.49,0.96-3.73
				c-0.01,0.05,0.21-0.61,0.19-0.73c-0.04-0.24,0.95-0.91-0.35,0.52c-0.84-0.49-1.67-0.97-2.51-1.46c-0.43,2.2-1.09,4.35-1.36,6.59
				c-0.15,1.22,0.08,2.98,1.79,2.74c0.72-0.1,1.02-0.56,1.44-1.07c-0.32,0.39,0.04-0.03,0.13-0.12c0.19-0.19,0.38-0.38,0.57-0.56
				c2.28-2.12,4.89-3.92,7.42-5.73c3.36-2.41,6.76-4.75,10.18-7.06c6.32-4.28,12.84-8.24,18.01-13.96
				c6.87-7.6,11.18-16.99,13.99-26.77c3.4-11.82,4.88-24.09,6.87-36.19C1744.03,1045.02,1741.14,1044.2,1740.83,1046.11
				L1740.83,1046.11z"/>
		</g>
	</g>
	<g>
		<g>
			<path class="st41" d="M1850.98,1232.72c15.47,2.14,31.39-2.59,43.14-12.9c1.45-1.28-0.68-3.39-2.12-2.12
				c-10.85,9.54-25.89,14.11-40.22,12.13c-0.81-0.11-1.6,0.2-1.85,1.05C1849.73,1231.58,1850.17,1232.61,1850.98,1232.72
				L1850.98,1232.72z"/>
		</g>
	</g>
	<g class="st42">
		<path class="st41" d="M1687.94,742.41c-6.55,17.46,9.28,55.94,21.28,85.14"/>
	</g>
	<g class="st43">
		<path class="st44" d="M1732.28,1781.11c29.08,6.22,58.72,9.94,88.28,6.71c4.15-0.45,14.56-2.59,18.69-4.09
			c1.5-0.55,1.69-8.4,1.23-12.55c-35.01,6.35-72.21,9.71-107.73,7.79"/>
	</g>
	<g class="st43">
		<path class="st44" d="M1958.16,1797.03c29.67,1.95,59.65-0.88,88.43-8.35c4.05-1.05,17.38-6.04,21.2-11.77
			c0.08-0.11-0.03-4.96-1.09-9.01c-33.72,11.35-72.95,23.7-108.38,26.93"/>
	</g>
	<g>
		<g>
			<path class="st41" d="M1954.46,1053.08c3.26,13.81,9.01,26.88,16.57,38.86c7.54,11.95,16.69,22.8,26.27,33.15
				c5.61,6.07,11.39,11.98,17.17,17.89c1.35,1.38,3.47-0.74,2.12-2.12c-9.96-10.18-19.94-20.37-29.02-31.36
				c-8.78-10.62-16.64-22.07-22.44-34.61c-3.35-7.25-5.94-14.83-7.78-22.6C1956.91,1050.4,1954.02,1051.2,1954.46,1053.08
				L1954.46,1053.08z"/>
		</g>
	</g>
	<g class="st45">
		<path class="st46" d="M1983.6,793.99c-10.09,30.62-23.13,84.73-46.05,129.96c-2.66,5.24-17.12,54.91-17.12,80.7
			c0,3.27,45.98-1.09,62.35-6.82c-9.2-34.53-18.95-66.36-19.03-88.62c-0.15-40.27,6.01-51.05,12.28-74.8
			c2.33-8.84,4.35-17.35,4.83-21.1"/>
	</g>
	<g class="st45">
		<path class="st46" d="M2000.11,714.85c-8.32,14.98-19.24,83.09-19.24,98.49c0,0.19,4.78,10.11,4.78,10.11s47.08-24.78,45.64-21.9
			c-0.82,1.64-25.42-62.97-31.18-88.35c-0.64-2.8,1.97-0.94-0.55-2.32"/>
	</g>
	<g class="st43">
		<path class="st44" d="M1849.48,1229.78c-3.82-1.23-42.3-3.27-49.94-2.18c-5.46,0.78,10.37,15.01,14.19,20.47
			c9.89,14.12,10.33,35.5,10.75,52.73c2.15,87.19-3.9,386.19-1.75,473.38c0.07,2.8,17.24,8.55,17.46-1.64
			c2.18-98.78,5.61-414.64,10.37-504.29c0.58-10.92,2.49-27.15-0.55-37.66"/>
	</g>
	<g class="st43">
		<path class="st44" d="M2036.51,1581.01c-3.68,2-4.93,7.4-8.29,11.56c-8.62,10.71-13.41,23.25-20.8,34.84
			c-2.76,4.34-5.04,10.96-0.77,13.83c2.54,1.71,5.97,0.81,8.77-0.44c21.61-9.67,31.73-63.02,21.14-59.87"/>
	</g>
	<g class="st43">
		<path class="st44" d="M2021.71,1649.01c-1.63,0.29-2.76,2.17-4.53,3.32c-4.55,2.96-7.89,7.07-12.09,10.51
			c-1.57,1.29-3.24,3.49-1.99,5.09c0.74,0.95,2.14,1.04,3.34,0.91c9.3-0.96,19.66-19.73,15.3-19.85"/>
	</g>
	<g class="st43">
		<path class="st44" d="M1804.01,1580.19c-3.68,2-4.93,7.4-8.29,11.56c-8.62,10.71-13.41,23.25-20.8,34.84
			c-2.76,4.34-5.04,10.96-0.77,13.83c2.54,1.71,5.97,0.81,8.77-0.44c21.61-9.67,31.73-63.02,21.14-59.87"/>
	</g>
	<g class="st43">
		<path class="st44" d="M1789.22,1648.19c-1.63,0.29-2.76,2.17-4.53,3.32c-4.55,2.96-7.89,7.07-12.09,10.51
			c-1.57,1.29-3.24,3.49-1.99,5.09c0.74,0.95,2.14,1.04,3.34,0.91c9.3-0.97,19.66-19.73,15.3-19.85"/>
	</g>
	<path class="st47" d="M1713.66,1041.78l-0.82,2.4l-28.45,91.18c0,0,36.02-17.19,46.66-40.93c7.93-17.68,9.52-47.86,9.52-47.86
		L1713.66,1041.78z"/>
	<path class="st47" d="M1989.64,1044.6l1.74,4.2l22.92,89.13c0,0-31.93-30.9-42.98-50.45c-9.54-16.87-14.02-35.1-14.02-35.1
		L1989.64,1044.6z"/>
	<path class="st47" d="M1773.92,1191.85c0,0,53.84,21.83,51.9,24.74c-1.94,2.91-43.66,0.97-49.96-1.94
		S1761.79,1194.76,1773.92,1191.85z"/>
	<path class="st47" d="M1869.68,1234.96c0,0,9.28,4.37,34.38-9.82c25.11-14.19,18.56,3.27,9.28,9.82
		C1904.06,1241.51,1869.68,1234.96,1869.68,1234.96z"/>
	<path class="st3" d="M1835.02,1214.36"/>
	<path class="st3" d="M1833.38,1056.77"/>
	<path class="st5" d="M1664.33,829.19c0,0-106.29,298.26-104.1,296.62c1.34-1.01,56.13-105.39,94.28-188.15
		c23.89-51.82,39.49-96.56,36.84-97.83C1681.93,835.33,1664.33,829.19,1664.33,829.19z"/>
	<path class="st5" d="M1904.61,578.27c0,0-42.71,42.43-76.27,40.8c0,0,23.47,10.37,69.31-7.23c0,0,18.01-13.92,23.74-29.06
		L1904.61,578.27z"/>
	<polygon class="st48" points="1616.99,791.26 1630.09,798.63 1545.77,1045.86 	"/>
	<polygon class="st49" points="1600.21,766.29 1632.68,785.26 1627.9,797.26 1593.38,777.21 	"/>
	<path class="st50" d="M1740.88,1782.64l-10.37,2.73c0,0,13.64,73.13,18.56,78.04"/>
	<path class="st35" d="M2067.09,1777.38c0.36-0.13,10.98,0.99,10.95,1.81c-1.27,30.25-8.51,69.65-10.37,77.2
		c0,0-25.21,36.24-94.57,19.57c-0.24-0.06-9.96-29.63-22.92-74.5c-0.41-1.43,6.13-5.11,7.64-4.91
		C1986.04,1800.22,2017.71,1795.03,2067.09,1777.38z"/>
	<path class="st50" d="M1970.22,1798.23l-10.22,5.14c0,0,18.28,62.22,22.92,74.22"/>
	<g>
		<path class="st51" d="M1745.24,587.14c0,0-50.21,68.08-57.99,90.6c-2.92,8.46-45.18,112.92-45.18,112.92"/>
		<path class="st51" d="M1753.97,602.42c0,0-58.19,92.09-61.81,100.28c-12.28,27.83-32.9,97.27-32.9,97.27"/>
		<path class="st51" d="M1759.98,608.43c0,0-60.44,90.6-51.44,135.62c3.64,18.2,32.88,132.35,32.88,145.45
			c0,13.1-4.84,115.7-4.84,115.7"/>
		<path class="st51" d="M1755.61,1004.79c0,0,2.18-110.38,0.55-130.03s-25.91-118.08-25.51-133.17
			c0.82-31.52,43.52-122.8,43.52-122.8"/>
		<path class="st51" d="M1793.82,626.44c0,0-33.43,102.47-32.88,130.3c0.55,27.83,18.69,247.37,18.69,247.37"/>
		<path class="st51" d="M1816.74,631.9c0,0-20.6,92.1-21.83,130.57c-1.1,34.58,11.46,241.09,11.46,241.09"/>
		<path class="st51" d="M1831.75,633.53c0,0-1.77,93.87,0.41,126.07c2.18,32.2,0,250.1,0,250.1"/>
		<polyline class="st51" points="1853.3,633.53 1856.58,737.23 1864.08,1007.65 		"/>
		<polyline class="st51" points="1898.47,1005.2 1886.05,740.5 1874.04,630.8 		"/>
		<path class="st51" d="M1900.79,622.62c0,0,28.93,86.78,28.93,108.61s6,273.56,6,273.56"/>
		<path class="st51" d="M1960.68,1000.7c0,0-5.87-157.04-4.23-171.78c1.64-14.74,20.74-77.5,12.55-103.15
			c-8.19-25.65-52.39-114.61-52.39-114.61"/>
		<path class="st51" d="M1929.16,595.33c0,0,20.74,12.55,36.02,39.29s66.58,166.46,66.58,166.46"/>
		<path class="st51" d="M2060.15,783.75c0,0-54.58-150.77-65.49-161.68s-63.85-33.56-63.85-33.56"/>
	</g>
	<path class="st48" d="M1522.43,1101.93c0.94-0.97-72.18,15.42-68.49,17.06C1457.62,1120.63,1515.61,1109.03,1522.43,1101.93z"/>
	<path class="st52" d="M1680.84,769.43l24.01,43.93C1704.86,813.36,1682.75,786.89,1680.84,769.43z"/>
	<path class="st52" d="M1993.02,728.91l-11.73,86.5c0,0,12.96-12.01,15.01-30.84S1993.02,728.91,1993.02,728.91z"/>
	<ellipse class="st22" cx="1740.47" cy="386.3" rx="11.87" ry="4.91"/>
	<ellipse class="st22" cx="1941.85" cy="383.57" rx="11.87" ry="4.91"/>
	<path class="st48" d="M1794.91,532.84l-1.36,40.66c0,0,10.37-0.55,8.73-15.55C1800.64,542.94,1794.91,532.84,1794.91,532.84z"/>
	<path class="st53" d="M1926.71,583.56c0,0-6.62,44.72-89.03,41.99c-75.06-2.49-87.8-46.05-87.8-46.05"/>
	<g class="st54">
		<path class="st34" d="M1695.31,715.81c-0.65,12.41,4.88,59.9,8.22,71.46c3.86,13.35,12.26,38.45,19.48,48.83
			c7.22,10.38,18.25,13.15,28.67,14.07c1.21,0.11,2.59,0.02,3.37-1.25c0.72-1.17,0.63-2.9,0.4-4.4
			c-1.63-10.36-8.11-17.69-13.92-24.64c-15.05-18-31.24-62.41-41.89-85.61"/>
	</g>
	<polygon class="st55" points="1968.46,1007.38 1975.01,1043.4 1990.84,1039.58 1981.56,1004.11 	"/>
	<path class="st47" d="M1899.15,1412.88c0,0,62.76,265.79,76.41,292.53c13.64,26.74,28.38,85.68,28.38,85.68l-46.12,5.46
		C1957.82,1796.56,1912.79,1442.9,1899.15,1412.88z"/>
	<g>
		<g>
			<path class="st41" d="M1859.33,1232.24c11.65,35.45,22.48,71.18,32.45,107.14c10.02,36.13,19.19,72.5,27.5,109.07
				c8.27,36.39,15.68,72.98,22.23,109.72c6.62,37.14,12.37,74.43,17.22,111.84c4.79,37.01,8.72,74.13,11.77,111.32
				c0.38,4.65,0.75,9.3,1.1,13.95c0.15,1.91,3.15,1.93,3,0c-2.85-37.39-6.57-74.71-11.18-111.93
				c-4.58-36.99-10.02-73.87-16.32-110.61c-6.37-37.13-13.62-74.12-21.75-110.91c-8.08-36.62-17.03-73.04-26.83-109.24
				s-20.46-72.16-31.96-107.85c-1.43-4.44-2.88-8.88-4.33-13.31C1861.63,1229.61,1858.73,1230.4,1859.33,1232.24L1859.33,1232.24z"
				/>
		</g>
	</g>
	<polygon class="st15" points="1997.93,848.15 1999.3,852.52 2079.25,816.23 2077.07,805.31 	"/>
	<polygon class="st15" points="1611.8,804.36 1688.35,853.07 1691.62,846.11 	"/>
	<path class="st44" d="M1740.06,1059.64c0,0,0.58,0.13,1.64,0.38c13.4,3.09,104.29,23.88,108.46,20.09c4.5-4.09,3.68-9.82,3.68-9.82
		l-113.28-23.71L1740.06,1059.64"/>
	<path class="st47" d="M1740.06,1059.64c0,0,0.58,0.13,1.64,0.38c13.4,3.09,110.02,25.1,114.19,21.31
		c4.5-4.09,13.51-57.31,13.51-57.31l-128.83,22.55L1740.06,1059.64"/>
	<path class="st47" d="M1884.55,1072.33c0,0,0.57,3.85,1.64,4.09c13.4,3.09,107.58-7.26,111.75-11.05
		c4.5-4.09-11.05-51.98-11.05-51.98l-118.7,11.87l17.19,50.76"/>
	<path class="st2" d="M1695.85,1044.08c0,0,153.09,33.16,158,26.2c4.91-6.96,15.83-59.08,15.83-59.08l-149.27-7.23L1695.85,1044.08z
		"/>
	<path class="st52" d="M1744.15,581.69c0,0,49.39,87.87,59.22,86.78c9.82-1.09,37.38-50.89,37.38-50.89l-89.23-38.61L1744.15,581.69
		"/>
	<path class="st52" d="M1934.28,584.41c0,0-41.41,87.6-51.23,86.5c-9.82-1.09-44.55-53.35-44.55-53.35l92.03-33.43"/>
	<path class="st5" d="M1883.87,561.77c0,0-18.28,33.29-54.3,45.3c-3.66,1.22-37.66,0-37.66,0l23.19,2.73c0,0,20.74,7.09,21.56,7.09
		c0.82,0,12.83,0.27,12.83,0.27l36.02-48.3L1883.87,561.77"/>
	<polygon class="st52" points="1829.29,613.68 1823.56,633.94 1857.53,633.74 1853.24,620.64 	"/>
	<path class="st2" d="M1998.75,1054.32c0,0-107.24,22.51-112.15,15.55s-18.01-58.53-18.01-58.53l114.61-12.69L1998.75,1054.32z"/>
	<path class="st56" d="M2050.32,576.77"/>
	<path class="st57" d="M1735.35,924.77c0,0,42.5,44.96,42.5,62.97c0,18.01,1.5,16.24,1.5,16.24l-57.92,0.41L1735.35,924.77z"/>
	<path class="st57" d="M1990.36,598.74l-55.6-13.3l-1.15,1.99l-1.17-0.56c0,0-26.61,43.39-72.04,44.62
		c-45.43,1.23-93.73-19.24-93.73-19.24s63.04,62.63,122.39,40.11c45.44-17.24,68.76-38.53,78.45-45.78
		c6.11,4.85,14.57,14.24,18.97,20.4c16.37,22.92,82.89,116.76,60.68,69.64S1990.36,598.74,1990.36,598.74z"/>
	<path class="st58" d="M1716.86,1010.38c147.9,24.01,270.43,1.36,270.43,1.36l-4.09-13.1c0,0-207.39,11.46-263.6,4.91"/>
	<path class="st59" d="M1720.14,1005.2c217.62,18.42,263.06-6.55,263.06-6.55l-4.5-13.1c-0.08-0.65-40.55,19-257.87,18.62"/>
	<path class="st2" d="M1610.35,787.23l-3.68,14.99l86.57,45.64c0,0,5.17-14.33,5.22-14.33
		C1700.08,833.54,1610.35,787.23,1610.35,787.23z"/>
	<path class="st2" d="M2078.74,789.28l3.68,14.99l-86.57,45.64c0,0-5.17-14.33-5.22-14.33
		C1989.02,835.59,2078.74,789.28,2078.74,789.28z"/>
	<path class="st60" d="M1839.93,616.89c0,0-9.93,13.06-9.41,13.06c0.51,0,20.47-0.2,20.47-0.2L1839.93,616.89z"/>
	<g>
		<path class="st2" d="M1743.61,577.39l46.94-12.01l49.39,51.57c0,0-33.97,46.87-34.11,46.66
			C1805.13,662.58,1743.61,577.39,1743.61,577.39z"/>
		<path class="st2" d="M1931.89,582.78l-47.07-16.51l-44.89,50.62c0,0,39.35,46.88,39.57,46.66
			C1880.46,662.6,1931.89,582.78,1931.89,582.78z"/>
	</g>
</g>
    <path fill-rule="evenodd" clip-rule="evenodd" d="M1842.89 384.387L1846.38 395.508L1847.18 396.552L1847.18 396.552L1847.18 396.555L1847.19 396.563L1847.23 396.623C1847.27 396.68 1847.34 396.768 1847.43 396.884C1847.6 397.112 1847.85 397.447 1848.14 397.863C1843.89 398.309 1839.08 399.985 1834.56 404.367C1831.6 407.23 1831.53 411.947 1834.39 414.903C1837.26 417.859 1841.97 417.933 1844.93 415.07C1847.58 412.505 1850.1 412.386 1852.84 412.812C1853.59 412.928 1854.31 413.082 1855.11 413.259C1855.18 413.273 1855.24 413.288 1855.31 413.304C1855.98 413.453 1856.96 413.668 1857.83 413.785C1857.85 413.788 1857.87 413.79 1857.89 413.793C1858.55 413.884 1861.05 414.225 1863.53 412.962C1865.15 412.137 1866.52 410.758 1867.31 408.933C1868.02 407.294 1868.05 405.774 1867.97 404.802C1867.78 402.267 1866.7 399.833 1865.93 398.279C1865.04 396.488 1863.96 394.685 1862.97 393.15C1861.97 391.593 1860.99 390.192 1860.26 389.186C1860.14 389.018 1860.03 388.861 1859.92 388.715C1859.01 385.408 1858.03 382.41 1857.03 379.665L1845.61 343.223L1831.05 345.451C1831.05 355.659 1833.7 362.9 1836.79 369.995C1837.3 371.159 1837.82 372.312 1838.34 373.473C1839.86 376.882 1841.41 380.363 1842.89 384.387ZM1859.81 399.015C1860.01 399.041 1859.95 399.013 1859.72 399.001C1859.75 399.007 1859.78 399.011 1859.81 399.015Z" fill="#FFAD8E"/>
    <path fill-rule="evenodd" clip-rule="evenodd" d="M1834.11 384.387L1830.62 395.508L1829.82 396.552L1829.82 396.552L1829.82 396.555L1829.81 396.563L1829.77 396.623C1829.73 396.68 1829.66 396.768 1829.57 396.884C1829.4 397.112 1829.15 397.447 1828.86 397.863C1833.11 398.309 1837.92 399.985 1842.44 404.367C1845.4 407.23 1845.47 411.947 1842.61 414.903C1839.74 417.859 1835.03 417.933 1832.07 415.07C1829.42 412.505 1826.9 412.386 1824.16 412.812C1823.41 412.928 1822.69 413.082 1821.89 413.259C1821.82 413.273 1821.76 413.288 1821.69 413.304C1821.02 413.453 1820.04 413.668 1819.17 413.785C1819.15 413.788 1819.13 413.79 1819.11 413.793C1818.45 413.884 1815.95 414.225 1813.47 412.962C1811.85 412.137 1810.48 410.758 1809.69 408.933C1808.98 407.294 1808.95 405.774 1809.03 404.802C1809.22 402.267 1810.3 399.833 1811.07 398.279C1811.96 396.488 1813.04 394.685 1814.03 393.15C1815.03 391.593 1816.01 390.192 1816.74 389.186C1816.86 389.018 1816.97 388.861 1817.08 388.715C1817.99 385.408 1818.97 382.41 1819.97 379.665L1831.39 343.223L1845.95 345.451C1845.95 355.659 1843.3 362.9 1840.21 369.995C1839.7 371.159 1839.18 372.312 1838.66 373.473C1837.14 376.882 1835.59 380.363 1834.11 384.387ZM1817.19 399.015C1816.99 399.041 1817.05 399.013 1817.28 399.001C1817.25 399.007 1817.22 399.011 1817.19 399.015Z" fill="#FFBEA6"/>
    <path fill-rule="evenodd" clip-rule="evenodd" d="M1838.5 338C1842.61 338 1845.95 341.336 1845.95 345.451V410.339C1845.95 414.454 1842.61 417.79 1838.5 417.79C1834.38 417.79 1831.05 414.454 1831.05 410.339V345.451C1831.05 341.336 1834.38 338 1838.5 338Z" fill="#FFB195"/>
    <path d="M1835.55 410.693C1831.82 400.758 1827.17 401.068 1824.06 404.173C1822.24 405.994 1822.7 407.261 1825.92 408.209C1828.2 408.878 1832.47 409.024 1835.55 410.693Z" fill="#DE7454"/>
    <path d="M1844.55 410.441C1848.28 400.506 1852.94 400.817 1856.04 403.921C1857.87 405.742 1857.4 407.009 1854.18 407.957C1851.91 408.626 1847.64 408.772 1844.55 410.441Z" fill="#DE7454"/>
    <ellipse cx="1839.12" cy="398.541" rx="4.65703" ry="11.7978" transform="rotate(90 1839.12 398.541)" fill="#FEC5BA"/>
</svg>
