<?xml version="1.0" encoding="utf-8"?>
<!-- Generator: Adobe Illustrator 25.4.0, SVG Export Plug-In . SVG Version: 6.00 Build 0)  -->
<svg version="1.1" id="Notfall" xmlns="http://www.w3.org/2000/svg" xmlns:xlink="http://www.w3.org/1999/xlink" x="0px" y="0px"
	 viewBox="0 0 3840 2160" style="enable-background:new 0 0 3840 2160;" xml:space="preserve">
<style type="text/css">
	.st0{fill:#FFB699;}
	.st1{fill:#54A465;}
	.st2{fill:#FFF8C5;}
	.st3{fill:none;stroke:#2E753B;stroke-miterlimit:10;}
	.st4{fill:#76C484;}
	.st5{fill:#F99A79;}
	.st6{fill:#449353;}
	.st7{fill:none;stroke:#FFF8C5;stroke-width:2;stroke-miterlimit:10;}
	.st8{fill:#FFF8C5;stroke:#002A2B;stroke-miterlimit:10;}
	.st9{fill:none;stroke:#22722F;stroke-miterlimit:10;}
	.st10{fill:#CCF6E6;}
	.st11{fill:none;stroke:#002A2B;stroke-width:4;stroke-miterlimit:10;}
	.st12{fill:#995B34;}
	.st13{fill:#633318;}
	.st14{fill:#AA6944;}
	.st15{fill:#D86C45;}
	.st16{fill:#FFCAB8;}
	.st17{fill:#FFFFFF;}
	.st18{display:none;fill:url(#SVGID_1_);}
	.st19{display:none;fill:#16100B;}
	.st20{display:none;fill:#FFFFFF;}
	.st21{fill:url(#SVGID_00000044889424121188438080000008080722952105322159_);}
	.st22{fill:#16100B;}
	.st23{fill:url(#SVGID_00000093175055710571334580000004405084899858486180_);}
	.st24{fill:#FCD2CA;}
	.st25{fill:url(#SVGID_00000013896154541271897120000012112776962510612410_);}
	.st26{fill:url(#SVGID_00000027602853614131922180000005243159095728702374_);}
	.st27{display:none;}
	.st28{display:inline;}
	.st29{fill:#841A06;}
	.st30{fill:#D64B2B;}
	.st31{display:inline;fill:#FFAF9C;}
	.st32{fill:#FFAF9C;}
	.st33{fill:#894A27;}
	.st34{opacity:0.72;fill:#F99A79;}
	.st35{opacity:0.72;fill:#E27F64;}
	.st36{opacity:0.33;fill:#F98869;}
	.st37{fill:#D88C66;}
	.st38{fill:none;stroke:#995B34;stroke-miterlimit:10;}
	.st39{fill:none;stroke:#C9563F;stroke-width:0.5;stroke-miterlimit:10;}
	.st40{fill:#F0FFF9;}
	.st41{fill:#545454;}
	.st42{fill:#3F3F3F;}
	.st43{fill:#28564D;}
	.st44{opacity:0.41;fill:#28564D;}
	.st45{fill:#002A2B;}
	.st46{fill:none;stroke:#CCF6E6;stroke-miterlimit:10;}
	.st47{opacity:0.41;}
	.st48{fill:#336B61;stroke:#002A2B;stroke-miterlimit:10;}
	.st49{fill:none;stroke:#002A2B;stroke-width:2;stroke-miterlimit:10;}
	.st50{opacity:0.31;}
	.st51{fill:none;stroke:#006A58;stroke-width:0.25;stroke-miterlimit:10;}
	.st52{fill:#EAE0A4;}
	.st53{fill:#97D1B8;}
	.st54{opacity:0.44;fill:#C3EDDC;}
	.st55{fill:#EAE1AC;}
	.st56{opacity:0.31;fill:#002A2B;}
	.st57{opacity:0.44;}
	.st58{fill:#C3EDDC;}
	.st59{opacity:0.45;}
	.st60{display:none;opacity:0.45;}
	.st61{display:inline;fill:#F0FFF9;}
	.st62{fill:none;stroke:#64D250;stroke-width:16;stroke-miterlimit:10;}
	.st63{fill:none;stroke:#64D250;stroke-width:12;stroke-miterlimit:10;}
	.st64{fill:#A5EA96;}
	.st65{display:inline;fill:#FFB699;}
	.st66{display:inline;fill:#F99A79;}
	.st67{fill:#64D250;}
</style>
<g id="Füsse_Kopie_Kopie_2_Kopie_Kopie_3">
	<g>
		<g>
			<polygon class="st0" points="1706.17,1858.83 1715.45,1952.71 1773.31,1958.71 1779.31,1835.36 			"/>
			<path class="st1" d="M1704.67,1907.41c0,0,0.61,32.75-11.89,51.56c-4.82,7.25-12.94,13.61-20.43,18.47
				c-1.45,0.94-2.92,1.8-4.39,2.56c-19.1,9.82-66.04,35.48-78.05,49.67c-12.01,14.19-13.1,26.2-13.1,26.2l-6.55,2.18l9.96,9.01
				c0,0,10.64,13.24,49.94,2.87c39.3-10.37,150.23-73.82,150.23-73.82l0.2-92.38l-4.91-0.2c0,0-9.48,8.26-34.59,7.16
				c-25.11-1.09-31.31-8.39-31.31-8.39L1704.67,1907.41z"/>
			<path class="st2" d="M1576.82,2055.86l-6.55,2.18l7.1,11.46c0,0,15.96,11.19,55.26,0.82c39.3-10.37,146.96-62.22,146.96-62.22
				l1.64-13.1l-25.38,13.92c0,0-45.03,19.65-70.82,29.06C1599.38,2069.25,1576.82,2055.86,1576.82,2055.86z"/>
			<path class="st3" d="M1780.67,1980.54"/>
			<g>
				<path class="st4" d="M1582.92,2050.91c1.06-11.13,8.08-21.51,18.02-26.62c1.13-0.58,2.88-0.89,3.35,0.29
					c0.3,0.77-0.24,1.58-0.76,2.23c-6.07,7.61-12.14,15.22-18.21,22.83c-0.49,0.62-1.31,1.3-1.96,0.86"/>
			</g>
			<path class="st5" d="M1706.72,1867.56l0.82,10.37c0,0,29.06,9.96,48.71,7.78c14.27-1.59,20.47-6.96,20.47-6.96l2.05-22.65
				l-72.04,6.55V1867.56"/>
		</g>
		<path class="st6" d="M1779.17,1919.28c0,0-1.64,53.21-17.19,63.86s-128.53,70-128.53,70s65.9-15.56,102.75-35.2
			c31.46-16.78,44.21-21.83,44.21-21.83L1779.17,1919.28z"/>
		<path class="st7" d="M1667.42,1977.81c28.24-11.87,46.05,16.17,46.05,16.17"/>
		<path class="st7" d="M1644.5,1990.5c28.24-11.87,46.05,16.17,46.05,16.17"/>
		<path class="st7" d="M1618.3,2006.06c28.24-11.87,46.05,16.17,46.05,16.17"/>
		<ellipse class="st8" cx="1760.64" cy="1941.41" rx="12.09" ry="17.35"/>
		<path class="st9" d="M1710.81,1905.22c0,0-0.27-1.09-3,8.19c-2.73,9.28-2.23,31.87,2.73,39.02c4.91,7.1,13.78,4.91,13.78,4.91"/>
		<path class="st10" d="M1710.1,1902.7c0,0,14.74,13.61,41.45,9.93c13.97-1.93,24.15-9.11,24.15-9.11l1.23-20.47
			c0,0-8.54,6.72-32.54,6.62c-23.74-0.1-35.82-5.59-35.82-5.59L1710.1,1902.7z"/>
		<ellipse class="st1" cx="1729.85" cy="1919.69" rx="21.49" ry="28.65"/>
		<path class="st6" d="M1748.88,1909.04c0,0-17.6,11.87-19.24,28.65c-1.64,16.78-5.32,19.65-5.32,19.65s9.01,1.64,18.42-19.65
			C1752.16,1916.41,1748.88,1909.04,1748.88,1909.04z"/>
		<path class="st11" d="M1705.36,1883.12c0,0,11.19,4.64,32.75,5.46c21.56,0.82,33.29-4.09,41.21-8.73"/>
	</g>
	<g>
		<g>
			<polygon class="st0" points="2008.16,1859.45 2011.03,1953.74 1954.43,1967.13 1932.62,1845.57 			"/>
			<path class="st1" d="M2015.9,1907.43c0,0,3.6,32.55,18.42,49.6c5.71,6.57,14.59,11.83,22.63,15.69c1.56,0.75,3.13,1.41,4.68,1.97
				c20.21,7.29,70.05,26.69,83.79,39.22c13.73,12.53,16.36,24.3,16.36,24.3l6.78,1.32l-8.72,10.21c0,0-8.85,14.49-49.16,9.26
				c-40.3-5.23-158.47-53.9-158.47-53.9l-12.08-91.58l4.85-0.83c0,0,10.47,6.97,35.22,2.66c24.76-4.31,29.98-12.35,29.98-12.35
				L2015.9,1907.43z"/>
			<path class="st2" d="M2161.77,2038.22l6.78,1.32l-5.56,12.28c0,0-14.39,13.15-54.7,7.92c-40.3-5.23-153.73-42.81-153.73-42.81
				l-3.31-12.78l26.96,10.54c0,0,47.18,13.7,73.97,19.72C2141.12,2054.4,2161.77,2038.22,2161.77,2038.22z"/>
			<path class="st3" d="M1949.93,1989.73"/>
			<g>
				<path class="st4" d="M2155.08,2034.09c-2.48-10.9-10.78-20.29-21.29-24.09c-1.19-0.43-2.97-0.51-3.28,0.72
					c-0.2,0.8,0.44,1.54,1.04,2.11c7,6.77,14,13.53,21,20.3c0.57,0.55,1.46,1.12,2.06,0.6"/>
			</g>
			<path class="st5" d="M2008.74,1868.18l0.52,10.39c0,0-27.54,13.61-47.31,13.97c-14.36,0.26-21.19-4.27-21.19-4.27l-4.94-22.2
				l72.29-2.77L2008.74,1868.18"/>
		</g>
		<path class="st6" d="M1943.54,1928.78c0,0,8.46,52.56,25.26,61.12c16.79,8.56,136.47,52.9,136.47,52.9s-67.36-6.95-106.42-21.7
			c-33.35-12.59-46.65-15.97-46.65-15.97L1943.54,1928.78z"/>
		<path class="st7" d="M2061.89,1972.46c-29.54-8.14-43.59,21.95-43.59,21.95"/>
		<path class="st7" d="M2086.25,1982.1c-29.54-8.14-43.59,21.95-43.59,21.95"/>
		<path class="st7" d="M2114.23,1994.16c-29.54-8.14-43.59,21.95-43.59,21.95"/>
		
			<ellipse transform="matrix(0.9917 -0.1285 0.1285 0.9917 -234.1427 268.7166)" class="st8" cx="1964.77" cy="1948.34" rx="12.09" ry="17.35"/>
		<path class="st9" d="M2009.53,1906.05c0,0,0.13-1.12,4.03,7.73c3.9,8.85,6.3,31.31,2.31,39.05c-3.96,7.67-13.04,6.64-13.04,6.64"
			/>
		<path class="st10" d="M2009.91,1903.46c0,0-12.86,15.39-39.83,15.17c-14.1-0.12-25.12-5.93-25.12-5.93l-3.85-20.14
			c0,0,9.33,5.57,33.12,2.38c23.53-3.15,34.8-10.15,34.8-10.15L2009.91,1903.46z"/>
		
			<ellipse transform="matrix(0.9917 -0.1285 0.1285 0.9917 -230.635 272.0712)" class="st1" cx="1992.51" cy="1922.84" rx="21.49" ry="28.65"/>
		<path class="st6" d="M1972.26,1914.73c0,0,18.98,9.51,22.76,25.94s7.8,18.8,7.8,18.8s-8.72,2.78-20.79-17.12
			C1969.96,1922.46,1972.26,1914.73,1972.26,1914.73z"/>
		<path class="st11" d="M2012.1,1883.43c0,0-10.5,6.04-31.77,9.62c-21.27,3.58-33.54,0.22-41.99-3.36"/>
	</g>
</g>
<g id="Haarehinten_20_">
	<path class="st12" d="M1920.02,510.95l2.23,23.97c10.01-1.01,29.77-57.19,29.92-83.02c0.66-117.92,0.22-138.21-8.93-177.74
		c-10.09-43.58-24.87-65.44-57.73-81.92c-44.54-22.34-69.37-22.67-158.95-11.03c-77.18,10.03-109.14,70.92-121.61,109.08
		c-6.24,19.08-1.81,53.05,5.14,128.16c6.95,75.11,17.49,88.77,17.49,88.77s20.37,44.09,48.27,41.41l3.41-0.35l7.53-2.7
		c7.45,0.95-10.43-20.46-1.58-18.84c97.58,17.83,131.18-41.16,181.4-55.78l25.99,1.2l19.13,65.09c6.51-2.13-0.29,0.22,5.09-1.86
		L1920.02,510.95z"/>
	<path class="st13" d="M1904.21,425.84c0,0,3.56-14.33,9.71,4.79c8.67,26.98-6.91,107.14-6.91,107.14s-8.26,1.85-9.93,1.09
		c-1.67-0.76,5.77-33.77,5.77-33.77l-14.58-52.97L1904.21,425.84z"/>
	<path class="st13" d="M1842.32,435.84c-42.02-93.48,5.58-30.56-64.89-25.94c-86.58,5.69-92.76-74.59-122.37-33.87
		s22.19,174.38,22.19,174.38c20.54,0.45,48.81,5.99,57.8,5.8c90.18-1.92,61.65-0.64,112.29-4.75
		C1847.65,551.44,1853.89,461.56,1842.32,435.84z"/>
	<polygon class="st13" points="1851.85,506.75 1850.53,549.82 1907.36,537.42 1897.04,416.83 	"/>
	<g>
		<g>
			<g>
				<path class="st14" d="M1671.48,458.32c0.27,22.67,0.96,45.33,1.77,67.99c0.25,6.95,0.51,13.9,0.77,20.85
					c0.02,0.48,0.77,0.48,0.75,0c-0.88-23.27-1.74-46.54-2.23-69.83c-0.13-6.34-0.24-12.67-0.31-19.01
					C1672.23,457.84,1671.48,457.84,1671.48,458.32L1671.48,458.32z"/>
			</g>
		</g>
		<g>
			<g>
				<path class="st14" d="M1687.44,484.18c-0.42,15.8,0.95,31.57,1.93,47.32c0.32,5.18,0.61,10.37,0.83,15.55
					c0.02,0.48,0.77,0.48,0.75,0c-0.71-16.58-2.32-33.12-2.75-49.71c-0.11-4.39-0.13-8.78-0.01-13.17
					C1688.2,483.69,1687.45,483.69,1687.44,484.18L1687.44,484.18z"/>
			</g>
		</g>
		<g>
			<g>
				<path class="st14" d="M1880.28,472.83c-0.3,0.02-0.1-0.1-0.06,0.27c0.02,0.2,0.09,0.4,0.13,0.59c0.14,0.74,0.23,1.49,0.32,2.24
					c0.17,1.52,0.3,3.05,0.42,4.58c0.3,3.84,0.55,7.67,0.57,11.52c0.06,10.88-0.94,21.73-1.31,32.59c-0.2,5.93-0.24,11.89,0.3,17.81
					c0.04,0.48,0.79,0.48,0.75,0c-1.02-11.31-0.09-22.71,0.51-34.02c0.51-9.62,0.66-19.16-0.13-28.77
					c-0.14-1.73-0.29-3.47-0.54-5.19c-0.07-0.48-0.13-2.42-0.95-2.38C1879.8,472.11,1879.79,472.86,1880.28,472.83L1880.28,472.83z"
					/>
			</g>
		</g>
		<g>
			<g>
				<path class="st14" d="M1884.33,472.16c1.91,18.33-0.19,36.78,0.71,55.15c0.24,4.97,0.71,9.92,1.56,14.82
					c0.08,0.47,0.8,0.27,0.72-0.2c-3.12-18.05-1.25-36.51-1.45-54.72c-0.06-5.03-0.27-10.05-0.79-15.05
					C1885.03,471.68,1884.28,471.68,1884.33,472.16L1884.33,472.16z"/>
			</g>
		</g>
	</g>
</g>
<polygon class="st15" points="1562.9,805.99 1639.45,854.71 1642.73,847.75 "/>
<g id="Arm_x5F_R_9_">
	<path class="st0" d="M1572.32,767.24c0,0-27.29,113.39-36.57,148.87c-4.7,17.98-59.49,184.75-62.22,187.48
		c-2.73,2.73,34.39,10.23,46.39,1.5c12.01-8.73,64.64-128.52,82.96-160.46c21.29-37.11,56.9-155.01,56.9-155.01"/>
	<path class="st5" d="M1563.65,812.92c0,0,28.72,47.11,68.29,55.02l2.46,0.82l7.1-21.01l-70.13-43.39L1563.65,812.92z"/>
	<polygon class="st16" points="1568.09,792.89 1581.19,800.26 1496.86,1047.51 	"/>
	<path class="st5" d="M1615.44,830.83c0,0-106.29,298.28-104.11,296.64c1.34-1.01,56.13-105.39,94.29-188.16
		c23.89-51.83,39.49-96.56,36.84-97.83C1633.04,836.97,1615.44,830.83,1615.44,830.83z"/>
</g>
<g id="Hals_27_">
	<path id="Hals_28_" class="st0" d="M1743.97,505.6l-1.23,66.11c0,0-44.76,9.96-61.67,18.69c-27.5,14.19,185.3,111.07,227.05,62.77
		c25-28.92,2.83-53.93-26.61-65.5c-11.46-4.5-45.64-13.71-45.64-13.71l-3.27-89.03L1743.97,505.6z"/>
	<path class="st15" d="M1743.56,509.9v19.65c0,0,43.19,36.43,91.28,15.35l-0.41-44L1743.56,509.9z"/>
	<path class="st16" d="M1746.02,534.46l-1.36,40.66c0,0,10.37-0.55,8.73-15.56C1751.75,544.56,1746.02,534.46,1746.02,534.46z"/>
	<path class="st5" d="M1834.98,563.39c0,0-18.28,33.29-54.31,45.3c-3.66,1.22-37.66,0-37.66,0l23.2,2.73c0,0,20.74,7.1,21.56,7.1
		c0.82,0,12.83,0.27,12.83,0.27l36.02-48.3L1834.98,563.39"/>
</g>
<g id="KOPFPBEN_Kopie_3_Kopie_Kopie_Kopie_Kopie_2_Kopie_Kopie_3">
	<g id="Kopf_29_">
		<path id="Kopf_30_" class="st0" d="M1637.47,272.75c0,0,19.09,132.68,28.66,170.81c11.1,44.23,64.66,100.38,125.77,98.6
			c48.59-1.41,104.28-75.83,111.91-107.23c6.73-27.7-0.31-82.17-5.98-123.74c-3.61-26.42-38.5-58.89-70.29-86.53
			c-18.18-15.81-45.11-16.22-63.72-0.91L1637.47,272.75z"/>
		<path class="st15" d="M1793.02,223.61c0,0-73.44,101.1-123.98,115.04c-50.54,13.94-17.67,9.27-17.67,9.27l0.21-44.66
			L1793.02,223.61z"/>
		<path class="st5" d="M1905.63,387.83c0,0-14.29,48.64-14.52,49.03c-4.98,8.37-53.91,101.52-93.73,104.4c0,0,35.87,0.62,76.41-53.7
			c19.42-26.02,29.61-50.9,29.61-50.9"/>
	</g>
	<g id="Augen_Kopie_3_Kopie_Kopie_Kopie_Kopie_2_Kopie_Kopie_4">
		<g>
			<g>
				<path class="st17" d="M1821.63,365.62c0,0,11.54-25.26,27.11-25.03c15.57,0.23,22.23,8.41,29.59,22.33c0,0-5.6,13.5-22.76,14.7
					C1832.71,379.22,1821.63,365.62,1821.63,365.62z"/>
				
					<linearGradient id="SVGID_1_" gradientUnits="userSpaceOnUse" x1="1831.0533" y1="635.3519" x2="1830.8027" y2="610.4203" gradientTransform="matrix(0.9993 -0.038 0.038 0.9993 7.3295 -187.2009)">
					<stop  offset="0" style="stop-color:#008CB2"/>
					<stop  offset="0.2227" style="stop-color:#0188AD"/>
					<stop  offset="0.5014" style="stop-color:#047B9D"/>
					<stop  offset="0.8087" style="stop-color:#086684"/>
					<stop  offset="1" style="stop-color:#0B5570"/>
				</linearGradient>
				<path class="st18" d="M1877.92,358.76c1.57,1.81,2.13-0.32,1.43,1.83c-2.43,7.46-10.56,15.53-18.72,15.84
					c-10.51,0.4-19.37-7.96-19.77-18.68c-0.17-4.42,1.04-8,3.26-10.71c3.16-3.86,5.07-5.82,11.25-6.05
					C1865.88,340.6,1871.29,351.08,1877.92,358.76z"/>
				
					<ellipse transform="matrix(0.9993 -0.038 0.038 0.9993 -12.1898 70.8675)" class="st19" cx="1859.51" cy="356.33" rx="7.78" ry="7.98"/>
				<g>
					<path class="st20" d="M1880.81,363.46c0,0-14.53-24.01-30.04-22.6c-15.51,1.41-20.42,9.77-26.7,24.21
						c0,0,8.38,12.51,25.58,12.4C1872.57,377.32,1880.81,363.46,1880.81,363.46z"/>
					
						<linearGradient id="SVGID_00000048489523766599052860000017390928390588554125_" gradientUnits="userSpaceOnUse" x1="1370.9709" y1="636.357" x2="1370.7117" y2="610.556" gradientTransform="matrix(-0.9993 0.038 0.038 0.9993 3198.0989 -308.4504)">
						<stop  offset="0" style="stop-color:#008CB2"/>
						<stop  offset="0.2227" style="stop-color:#0188AD"/>
						<stop  offset="0.5014" style="stop-color:#047B9D"/>
						<stop  offset="0.8087" style="stop-color:#086684"/>
						<stop  offset="1" style="stop-color:#0B5570"/>
					</linearGradient>
					<path style="fill:url(#SVGID_00000048489523766599052860000017390928390588554125_);" d="M1831.82,359.74
						c0.41,10.71,7.91,18.4,18.42,18c6.81-0.26,13.47-1.23,17.09-5.28c5.42-6.07,4.62-15.96,3.37-19.52
						c-3.11-8.83-13.46-10.73-21.35-11.93c-5.78-0.88-9.69,3.91-13.22,7.4C1833.3,351.19,1831.64,354.99,1831.82,359.74z"/>
					
						<ellipse transform="matrix(0.9993 -0.038 0.038 0.9993 -12.2702 70.5531)" class="st22" cx="1851.19" cy="358.29" rx="7.78" ry="7.98"/>
					<path class="st17" d="M1846.84,362.96l-11.82,7.44c-1.04,0.65-2.42,0.34-3.07-0.7l-0.24-0.39c-0.65-1.04-0.34-2.42,0.7-3.07
						l11.82-7.44c1.04-0.65,2.42-0.34,3.07,0.7l0.24,0.39C1848.19,360.93,1847.87,362.31,1846.84,362.96z"/>
				</g>
				<g>
					<path d="M1820.03,363.54c2.48-5.79,5.8-11.17,9.79-15.89c4.65-5.5,10.59-10.26,17.49-11.17c5.77-0.76,11.61,1.27,16.69,4.33
						c5.08,3.06,13.67,14.28,15.69,14.91c0,0,4.03,0.09,5.61-1.38c-1.91,2.83-4.25,6.69-7.05,8.5c-4.57-5.68-3.92-6.12-10.79-12.63
						c-5.06-4.8-11.73-9.16-18.69-8.47c-7.56,0.75-13.94,6.31-18.28,12.94c-3.87,5.9-7.39,12.16-7.57,12.75"/>
				</g>
				<path class="st20" d="M1854.56,359.59l-11.82,7.44c-1.04,0.65-2.42,0.34-3.07-0.7l-0.24-0.39c-0.65-1.04-0.34-2.42,0.7-3.07
					l11.82-7.44c1.04-0.65,2.42-0.34,3.07,0.7l0.24,0.39C1855.91,357.56,1855.59,358.94,1854.56,359.59z"/>
			</g>
			<g>
				<g>
					<path class="st17" d="M1745.96,367.54c0,0-14.53-24.01-30.04-22.6s-20.42,9.77-26.7,24.21c0,0,8.38,12.5,25.58,12.4
						C1737.73,381.4,1745.96,367.54,1745.96,367.54z"/>
					
						<linearGradient id="SVGID_00000047022048814705091990000015604329161453517712_" gradientUnits="userSpaceOnUse" x1="1505.8763" y1="635.3144" x2="1505.6171" y2="609.5134" gradientTransform="matrix(-0.9993 0.038 0.038 0.9993 3198.0989 -308.4504)">
						<stop  offset="0" style="stop-color:#008CB2"/>
						<stop  offset="0.2227" style="stop-color:#0188AD"/>
						<stop  offset="0.5014" style="stop-color:#047B9D"/>
						<stop  offset="0.8087" style="stop-color:#086684"/>
						<stop  offset="1" style="stop-color:#0B5570"/>
					</linearGradient>
					<path style="fill:url(#SVGID_00000047022048814705091990000015604329161453517712_);" d="M1696.98,363.82
						c0.41,10.71,7.91,18.4,18.42,18c6.81-0.26,13.47-1.23,17.09-5.28c5.42-6.07,4.62-15.96,3.37-19.52
						c-3.11-8.83-13.46-10.73-21.35-11.93c-5.78-0.88-9.69,3.91-13.22,7.4C1698.46,355.27,1696.79,359.07,1696.98,363.82z"/>
					
						<ellipse transform="matrix(0.9993 -0.038 0.038 0.9993 -12.5224 65.4355)" class="st22" cx="1716.34" cy="362.37" rx="7.78" ry="7.98"/>
				</g>
				<g>
					<path d="M1747.41,365.43c-2.91-5.45-6.62-10.44-10.96-14.73c-5.05-5-11.33-9.2-18.28-9.57c-5.81-0.31-11.49,2.1-16.32,5.46
						s-12.56,14.93-14.53,15.69c0,0-4.01,0.39-5.7-0.92c2.12,2.61,4.74,6.2,7.67,7.75c4.13-5.87,3.45-6.25,9.81-13.11
						c4.69-5.05,11.01-9.8,18-9.65c7.59,0.16,14.37,5.1,19.2,11.22c3.83,4.86,7.4,10.01,8.3,11.48c0.11,0.18,0.18,0.31,0.21,0.37"/>
				</g>
				<path class="st17" d="M1711.99,367.05l-11.82,7.44c-1.04,0.65-2.42,0.34-3.07-0.7l-0.24-0.39c-0.65-1.04-0.34-2.42,0.7-3.07
					l11.82-7.44c1.04-0.65,2.42-0.34,3.07,0.7l0.24,0.39C1713.34,365.01,1713.03,366.39,1711.99,367.05z"/>
			</g>
		</g>
		<path class="st24" d="M1824.04,371.54c0.59,1.07,13.38,14.24,24.23,12.46c10.86-1.78,5.64,3.48-0.15,3.28
			C1828.99,386.64,1824.04,371.54,1824.04,371.54z"/>
		<path class="st24" d="M1749.45,373.69c-0.5,1.11-12.26,15.21-23.22,14.26c-10.96-0.95-5.36,3.89,0.4,3.26
			C1745.67,389.13,1749.45,373.69,1749.45,373.69z"/>
		
			<linearGradient id="SVGID_00000078760510447322157320000003312065552586621372_" gradientUnits="userSpaceOnUse" x1="2407.7793" y1="588.6191" x2="2473.2686" y2="588.6191" gradientTransform="matrix(-0.9993 0.038 0.038 0.9993 4119.6196 -343.4683)">
			<stop  offset="0" style="stop-color:#FFB699;stop-opacity:0"/>
			<stop  offset="0.0426" style="stop-color:#FDAF91;stop-opacity:0.0818"/>
			<stop  offset="0.1473" style="stop-color:#FBA383;stop-opacity:0.2831"/>
			<stop  offset="0.2788" style="stop-color:#F99C7B;stop-opacity:0.5359"/>
			<stop  offset="0.5203" style="stop-color:#F99A79"/>
			<stop  offset="0.7469" style="stop-color:#F99C7B;stop-opacity:0.5276"/>
			<stop  offset="0.866" style="stop-color:#FBA383;stop-opacity:0.2793"/>
			<stop  offset="0.9599" style="stop-color:#FDAF91;stop-opacity:0.0836"/>
			<stop  offset="1" style="stop-color:#FFB699;stop-opacity:0"/>
		</linearGradient>
		<path style="fill:url(#SVGID_00000078760510447322157320000003312065552586621372_);" d="M1735.31,332.12
			c1.07,6.72,2.21,9.75-8.92,7.71s-17.19-4.88-23.98-0.32c-6.79,4.56-15.02,14.29-20.77,13.9s-14.59-6.61-9.25-11.73
			c5.34-5.12,15.98-15.79,28.59-18.5C1727.58,317.46,1735.31,332.12,1735.31,332.12z"/>
		
			<linearGradient id="SVGID_00000153668250163755841810000013219785853887065228_" gradientUnits="userSpaceOnUse" x1="1591.5228" y1="585.4814" x2="1657.0121" y2="585.4814" gradientTransform="matrix(0.9993 -0.038 0.038 0.9993 210.4166 -194.9182)">
			<stop  offset="0" style="stop-color:#FFB699;stop-opacity:0"/>
			<stop  offset="0.0426" style="stop-color:#FDAF91;stop-opacity:0.0818"/>
			<stop  offset="0.1473" style="stop-color:#FBA383;stop-opacity:0.2831"/>
			<stop  offset="0.2788" style="stop-color:#F99C7B;stop-opacity:0.5359"/>
			<stop  offset="0.5203" style="stop-color:#F99A79"/>
			<stop  offset="0.7469" style="stop-color:#F99C7B;stop-opacity:0.5276"/>
			<stop  offset="0.866" style="stop-color:#FBA383;stop-opacity:0.2793"/>
			<stop  offset="0.9599" style="stop-color:#FDAF91;stop-opacity:0.0836"/>
			<stop  offset="1" style="stop-color:#FFB699;stop-opacity:0"/>
		</linearGradient>
		<path style="fill:url(#SVGID_00000153668250163755841810000013219785853887065228_);" d="M1823.34,325.63
			c-0.56,6.78-1.47,9.89,9.48,7.01c10.95-2.87,16.77-6.17,23.88-2.14c7.12,4.03,16.06,13.11,21.77,12.28
			c5.7-0.83,14.04-7.7,8.34-12.4c-5.71-4.7-17.13-14.53-29.91-16.27C1829.93,310.43,1823.34,325.63,1823.34,325.63z"/>
	</g>
	<g id="Mund_18_" class="st27">
		<g class="st28">
			<path class="st29" d="M1744.56,455.8l-2.52,3.78c0,0,17.94,21.86,24.33,23.05c6.39,1.19,35.76,6.03,45.02-3.74
				s21.77-25.22,21.77-25.22s-34.84-0.52-35.85-0.28S1744.56,455.8,1744.56,455.8z"/>
			<path class="st17" d="M1743.18,457.08c0,0,3.8,8.25,12.53,11.61c8.73,3.36,34.7,2.16,41.23,1.51c6.53-0.66,25.66-5.6,31.88-14.44
				C1835.03,446.92,1743.18,457.08,1743.18,457.08z"/>
			<path class="st30" d="M1733.57,457.65c0,0,8.14-6.42,37.41-9.92c7.54-0.9,13.67,2,14.81,1.59c3.13-1.14,11.59-2.96,13.28-2.94
				c32.7,0.42,34.1,7.28,34.1,7.28s-29.38,8.03-47.31,8.25C1761.91,462.21,1733.57,457.65,1733.57,457.65z"/>
			<path class="st30" d="M1733.17,457.87c3.68-0.09,1.68-4.76,13.99,3.01c12.14,7.66,15.17,8.48,28.96,10.41
				c16.34,2.29,28.84-1.25,33.82-4.72s22.41-18.01,18.48-13.76c-1.38,1.49,7.52-1.51,3.25,4.59c-4.27,6.1-10.43,14.11-16.56,19.88
				c-6.13,5.76-13.66,11.71-36.68,9.52c-23.02-2.2-29.84-16.61-35.82-23.14C1736.97,457.5,1733.17,457.87,1733.17,457.87z"/>
		</g>
		<path class="st31" d="M1757.04,455.33c0,0,5.61-0.41,10.64-0.27c6.22,0.17,10.51,1.65,5.4,2.05
			C1767.98,457.51,1757.04,455.33,1757.04,455.33z"/>
		<path class="st31" d="M1771.22,482.83c0,0,2.6-0.2,6.03-0.23c6.04-0.05,6.23,0.22,6.11,0.33
			C1779.89,485.85,1771.16,482.86,1771.22,482.83z"/>
		<g class="st28">
			<path class="st30" d="M1833.95,457.09c-1.58-1.61-2.64-3.71-3.01-5.93c-0.15-0.88-0.18-1.83,0.21-2.63
				c0.13-0.26,0.41-0.53,0.67-0.4c0.15,0.08,0.21,0.26,0.25,0.43c0.72,2.96,0.93,6.18,2.72,8.64
				C1834.71,457.33,1834.02,457.18,1833.95,457.09"/>
		</g>
		<g class="st28">
			<path class="st30" d="M1731.97,462.19c1.45-1.72,2.35-3.9,2.55-6.14c0.08-0.89,0.04-1.83-0.41-2.61
				c-0.15-0.25-0.45-0.5-0.69-0.35c-0.14,0.09-0.19,0.28-0.21,0.45c-0.49,3-0.46,6.23-2.06,8.82
				C1731.23,462.49,1731.91,462.29,1731.97,462.19"/>
		</g>
	</g>
	<g id="Mund_17_">
		<g>
			<path class="st29" d="M1745.63,457.12l-2.55,3.83c0,0,20.76,11.82,27.23,13.02c6.47,1.2,30.46,6.24,39.82-3.65
				c9.36-9.89,25.14-15.36,25.14-15.36s-35.25-0.53-36.27-0.28C1797.97,454.93,1745.63,457.12,1745.63,457.12z"/>
			<path class="st30" d="M1734.51,459c0,0,8.23-6.5,37.85-10.04c7.63-0.91,13.83,2.03,14.98,1.61c3.17-1.16,17.01-2.56,18.7-2.31
				c29.81,4.35,29.23,6.71,29.23,6.71s-29.73,8.12-47.86,8.35C1763.18,463.61,1734.51,459,1734.51,459z"/>
			<path class="st30" d="M1735.7,458.77c3.72-0.09,1.89-1.82,12.21,0.03c11.7,2.1,15.46,3.76,29.42,5.71
				c16.53,2.32,28.14-2.87,34.19-3.95c7.79-1.39,22.94-10.76,18.96-6.46c-1.39,1.5,8.7-1.76,2.92,3.07
				c-5.77,4.82-10.49,8.47-17.23,14.25c-6.46,5.54-16.66,11.34-37,9.82c-14.54-1.09-25.94-9.12-38.83-18.86
				C1733.59,457.3,1735.7,458.77,1735.7,458.77z"/>
		</g>
		<path class="st32" d="M1758.25,456.64c0,0,5.67-0.41,10.76-0.27c6.29,0.18,10.63,1.67,5.47,2.07S1758.25,456.64,1758.25,456.64z"
			/>
		<path class="st32" d="M1765.17,466.71c0,0,2.63-0.2,6.1-0.23c6.11-0.05,6.31,0.23,6.18,0.34
			C1773.94,469.76,1765.11,466.74,1765.17,466.71z"/>
	</g>
	<g id="Brauen_Kopie_3_Kopie_Kopie_Kopie_Kopie_2_Kopie_Kopie_3">
		<path class="st33" d="M1810.7,305.11c0.91-0.32,17.03-11.53,30.03-11.1c13.96,0.45,16.83,3,27.35,8.96
			c11.15,6.32,19.7,19.5,19.7,19.5s1.98,3.29-10.32-5.4c-5.2-3.67-25.91-16.19-41.95-13.97c-7.01,0.97-19.87,4.35-21.84,5.1
			C1810.57,309.38,1810.7,305.11,1810.7,305.11z"/>
		<path class="st33" d="M1743.57,308.76c-0.95-0.18-18.52-8.94-31.32-6.64c-13.75,2.47-16.22,5.41-25.76,12.83
			c-10.12,7.87-16.67,22.15-16.67,22.15s-1.48,3.54,9.43-6.83c4.61-4.38,23.29-19.77,39.48-19.9c7.07-0.05,20.29,1.43,22.35,1.88
			C1744.32,312.97,1743.57,308.76,1743.57,308.76z"/>
	</g>
	<g id="sprossen_30_">
		
			<ellipse transform="matrix(0.9993 -0.038 0.038 0.9993 -21.8304 67.2442)" class="st34" cx="1759.3" cy="608.31" rx="2.25" ry="1.84"/>
		
			<ellipse transform="matrix(0.9993 -0.038 0.038 0.9993 -21.9258 66.4815)" class="st34" cx="1739.18" cy="610.44" rx="2.25" ry="1.84"/>
		
			<ellipse transform="matrix(0.9993 -0.038 0.038 0.9993 -21.4439 66.5578)" class="st34" cx="1741.43" cy="597.79" rx="2.25" ry="1.84"/>
		
			<ellipse transform="matrix(0.9993 -0.038 0.038 0.9993 -21.6452 66.1229)" class="st34" cx="1729.88" cy="602.88" rx="2.25" ry="1.84"/>
		
			<ellipse transform="matrix(0.9993 -0.038 0.038 0.9993 -13.6981 66.5806)" class="st35" cx="1745.9" cy="393.9" rx="2.25" ry="1.74"/>
		
			<ellipse transform="matrix(0.9993 -0.038 0.038 0.9993 -14.2426 66.2716)" class="st35" cx="1737.49" cy="408.07" rx="2.25" ry="1.74"/>
		
			<ellipse transform="matrix(0.9993 -0.038 0.038 0.9993 -13.8711 65.891)" class="st35" cx="1727.66" cy="398.1" rx="2.56" ry="2.35"/>
	</g>
	<g id="sprossen_29_">
		
			<ellipse transform="matrix(0.9993 -0.038 0.038 0.9993 -21.7373 69.4216)" class="st34" cx="1816.67" cy="606.95" rx="2.25" ry="1.84"/>
		
			<ellipse transform="matrix(0.9993 -0.038 0.038 0.9993 -21.7454 70.1903)" class="st34" cx="1836.9" cy="607.55" rx="2.25" ry="1.84"/>
		
			<ellipse transform="matrix(0.9993 -0.038 0.038 0.9993 -21.2753 70.0597)" class="st34" cx="1833.7" cy="595.11" rx="2.25" ry="1.84"/>
		
			<ellipse transform="matrix(0.9993 -0.038 0.038 0.9993 -13.5823 69.1563)" class="st35" cx="1813.76" cy="392.14" rx="2.25" ry="1.74"/>
		
			<ellipse transform="matrix(0.9993 -0.038 0.038 0.9993 -14.0881 69.5252)" class="st35" cx="1823.22" cy="405.64" rx="2.25" ry="1.74"/>
		
			<ellipse transform="matrix(0.9993 -0.038 0.038 0.9993 -13.6758 69.8611)" class="st35" cx="1832.27" cy="394.95" rx="2.56" ry="2.35"/>
	</g>
	<g id="Rouge_15_">
		<path class="st36" d="M1739.77,419.42c0.46,11.98-17,22.53-33.1,23.14s-32.24-19.31-32.69-31.29
			c-0.46-11.98,8.62-12.25,24.72-12.86S1739.31,407.44,1739.77,419.42z"/>
		<path class="st36" d="M1833.18,417.24c0.46,11.98,18.67,21.17,34.76,20.56c16.09-0.61,30.68-21.7,30.23-33.68
			c-0.46-11.98-9.53-11.56-25.62-10.95S1832.72,405.26,1833.18,417.24z"/>
	</g>
	<g id="Ohren_15_">
		<g>
			<g>
				<path class="st0" d="M1902.94,392.41c0.76,19.88-0.2,43.17,0.43,43.84c14.06,14.96,43.7-24.9,42.95-44.78
					c-0.76-19.88-10.5-29.78-24.05-29.26C1908.72,362.72,1902.19,372.53,1902.94,392.41z"/>
			</g>
		</g>
		<g>
			<g>
				<path class="st0" d="M1668.92,400.1c0.76,19.88,9.88,43.05-3.67,43.56c-27.82,1.06-43.68-24.86-44.44-44.74
					c-0.76-19.88,8.04-27.62,21.6-28.13C1655.96,370.28,1668.16,380.22,1668.92,400.1z"/>
			</g>
			<path class="st15" d="M1660.87,389.57c0,0-12.24-20.29-24.39-9.45c-12.15,10.84-5.74,21.52-5.74,21.52s12.47-17.84,10.2-4.76
				c-2.91,16.77,18.99,32.6,18.99,32.6s-14.74-28.66-5.51-30.1C1663.65,397.93,1660.87,389.57,1660.87,389.57z"/>
			<path class="st15" d="M1905.91,385.58c0,0,10.67-21.16,23.6-11.27s7.35,21.02,7.35,21.02s-13.79-16.84-10.53-3.97
				c4.18,16.5-16.46,33.94-16.46,33.94s12.53-29.7,3.21-30.44S1905.91,385.58,1905.91,385.58z"/>
		</g>
	</g>
	<path id="nase_15_" class="st15" d="M1763.04,418.76c-0.53-0.52-0.13-1.42,0.61-1.35c4.22,0.4,14.08,1.24,20.09,1.01
		c8.25-0.31,17.15-1.41,21-1.93c0.73-0.1,1.18,0.77,0.68,1.31c-2.46,2.66-8.71,7.81-20.62,8.41
		C1772.9,426.82,1765.85,421.49,1763.04,418.76z"/>
	<g>
		<g id="Haareoben_19_">
			<g>
				<path class="st12" d="M1791.97,192.8c16.19,8.06,34.22,12.2,49.78,21.42c24.75,14.67,68.24,26.42,80.13,52.62
					c12.88,28.38,22.09,46.41,0.17,94.76c-2.34-17.26-12.77-27.46-25.85-38.96c-13.09-11.49-38.84-20.2-51.21-32.46
					c-12.4-12.3-28.84-33.03-34.65-49.48c-4.49-12.71-9.91-21.54-17.64-32.92c-15.59-22.97-60-6.22-82.67-4.46
					c-26.06,2.02-26.01-5.36-49.44,6.21c-23.43,11.57-54.93,79.8-56.06,105.91c0,0-0.04,0.95-0.13,2.61
					c-0.63,11.2,7.63,51.18-19.08,81.14c-9.34,10.47,29.27-13.13,30.72-32.3"/>
			</g>
			<g>
				<path class="st12" d="M1640.76,385.24c1.68-21.53,3.9,12.47,20.58-1.24c21.55-17.71-8.14-58.87,16.52-71.91
					c37.92-20.03,132-78.47,136.59-121.11c-6.11,3.84-12.47,7.18-19.01,10.13c-22.72,10.24-47.65,15.78-72.07,21.47
					c-13.96,3.25-28.05,6.67-40.81,13.18c-21,10.72-43.63,17.24-51.16,39.59c-7.53,22.35,0.12,60.25,10.36,81.5
					c3.59-6.56-3.62,36.56-0.03,30"/>
			</g>
			<g>
				<g>
					<path class="st12" d="M1613.71,415.68c-5.35-14.03-9.61-28.49-12.24-43.27c-2.25-12.62-3.28-25.47-2.78-38.29
						c0.43-11.21,2.05-22.36,4.93-33.2c2.63-9.89,6.3-19.48,10.93-28.6c4.29-8.46,9.39-16.5,15.15-24.04
						c5.34-7,11.25-13.56,17.58-19.67c5.79-5.58,11.94-10.8,18.38-15.62c5.59-4.19,11.4-8.09,17.38-11.69
						c4.75-2.86,9.62-5.53,14.61-7.96c3.35-1.63,6.66-3.14,10.12-4.43c0.53-0.2,1.07-0.39,1.61-0.57c0.91-0.31,0.52-1.76-0.4-1.45
						c-3.08,1.04-6.08,2.35-9.03,3.71c-4.72,2.18-9.34,4.59-13.85,7.17c-5.85,3.35-11.54,6.99-17.04,10.89
						c-6.43,4.57-12.6,9.5-18.45,14.8c-6.47,5.86-12.55,12.17-18.11,18.9c-5.98,7.25-11.37,14.99-16,23.17
						c-4.97,8.77-9.06,18.04-12.16,27.64c-3.38,10.48-5.56,21.33-6.58,32.3c-1.16,12.4-0.82,24.91,0.74,37.26
						c1.81,14.36,5.22,28.48,9.78,42.2c1.25,3.75,2.58,7.47,3.99,11.17C1612.6,416.97,1614.05,416.58,1613.71,415.68L1613.71,415.68
						z"/>
				</g>
			</g>
			<g>
				<path class="st14" d="M1826.09,209.79c4.79,19.73,23.13,39.45,38.59,52.61c19.83,16.86,33.54,16.77,38.34,17.11
					c-5.33-50.63-65.33-49.82-77.52-70.79"/>
			</g>
			<path class="st14" d="M1602.63,330.02c0,0,22.96,48.91,22.96,107.34s57.49,114.2,57.49,114.2s-29.91,2.63-51.11-31.11
				C1613.49,491.08,1602.63,330.02,1602.63,330.02z"/>
			<path class="st33" d="M1608.96,309.8c1.93,50.72,36.3,64.03,36.3,64.03l17.09,20.38c0,0,11.26-21.59,9.43-33.81
				s-4.88-20.71-4.44-30.55c0.44-9.85,7.31-15.98,7.31-15.98s-80.37,4.97-28.77-60.08C1697.48,188.73,1607.03,259.08,1608.96,309.8z
				"/>
			<path class="st33" d="M1908.49,222.36c0,0-24,43.92,11.55,88.45s32.56,91.34,32.56,91.34s-1.35-92.8-21.17-147.49
				C1921.67,227.73,1908.49,222.36,1908.49,222.36z"/>
			<path class="st37" d="M1685.56,200.78c0,0-27.84,9.93-38.44,28.07c-10.6,18.14-16.74,35.27-4.9,19.54
				c13.43-17.84,33.93-29.91,33.93-29.91s47.34-33.66,28.41-22.91C1697.35,199.66,1685.56,200.78,1685.56,200.78z"/>
			<g>
				<g>
					<g>
						<path class="st12" d="M1660.93,208.59c-2.63,1.11-4.88,3.3-6.9,5.26c-2.97,2.88-5.7,6.01-8.33,9.2
							c-5.66,6.86-10.97,14.07-15.65,21.63c-1.58,2.55-3.15,5.16-4.26,7.95c-2.61,6.52-4.63,13.35-6.47,20.12
							c-3.78,13.94-6.24,28.24-7.37,42.65c-1.15,14.67-0.93,30.3,6.55,43.44c0.43,0.75,1.33,0.88,2.05,0.54
							c1.95-0.92,2.91-3.28,2.21-5.31c-0.63-1.81-3.53-1.03-2.89,0.8c0.3,0.85-0.02,1.54-0.83,1.92c0.68,0.18,1.37,0.36,2.05,0.54
							c-6.48-11.4-7.15-24.89-6.43-37.69c0.8-14.07,3-28.08,6.42-41.75c1.72-6.87,3.75-13.65,6.1-20.33c0.7-2,1.28-3.76,2.08-5.41
							c0.66-1.35,1.4-2.66,2.17-3.96c4.27-7.25,9.26-14.13,14.51-20.69c2.9-3.63,5.92-7.2,9.19-10.51c2.15-2.18,4.47-4.6,7.32-5.8
							c0.75-0.32,0.9-1.41,0.54-2.05C1662.54,208.36,1661.67,208.28,1660.93,208.59L1660.93,208.59z"/>
					</g>
				</g>
				<path class="st38" d="M1804.38,191.77c0,0-6.12,76.02,30.74,97.56c36.87,21.54,72.53,32.88,72.53,32.88l-86.89-108.94
					L1804.38,191.77z"/>
				<g>
					<g>
						<path class="st12" d="M1663.28,210.08c21.48-12.36,45.04-21.69,69.78-24.58c17.39-2.04,35.17-0.82,51.96,4.24
							c11.45,3.45,22.54,8.62,32.17,15.75c1.64,1.22,3.18,2.58,4.85,3.76c2.01,1.42,4.15,2.66,6.31,3.84
							c5.85,3.18,11.95,5.89,18.05,8.54c15.63,6.78,31.52,12.97,47.13,19.79c7.65,3.34,15.26,6.82,22.68,10.67
							c6.12,3.18,12.2,6.59,17.7,10.76c3.71,2.81,7.6,6.19,9.33,10.63c4.49,11.5,8.03,23.46,10.72,35.5
							c2.77,12.38,4.63,25.09,4.5,37.8c-0.14,13.34-2.09,26.76-3.81,39.97c-1.7,13.07-3.31,26.14-4.9,39.22
							c-1.17,9.59-3.2,19.07-4.98,28.56c-1.94,10.34-3.76,20.74-4.62,31.24c-0.77,9.43-0.9,19.23,1.56,28.44
							c1.02,3.81,2.53,7.49,4.71,10.79c0.53,0.8,1.83,0.05,1.3-0.76c-4.96-7.53-6.3-16.82-6.5-25.67
							c-0.24-10.61,1.16-21.23,2.88-31.68c1.68-10.17,3.8-20.27,5.57-30.43c1.98-11.4,2.96-22.96,4.47-34.43
							c1.76-13.36,3.63-26.71,4.86-40.14c0.59-6.41,1.1-12.81,0.94-19.25c-0.15-6.23-0.75-12.43-1.65-18.6
							c-1.85-12.76-4.97-25.34-8.91-37.61c-1.56-4.88-3.03-10.03-5.23-14.67c-0.93-1.95-2.3-3.68-3.78-5.24
							c-4.11-4.34-9.26-7.7-14.36-10.74c-6.75-4.02-13.81-7.51-20.93-10.82c-15.83-7.36-32.07-13.78-48.17-20.51
							c-6.98-2.91-13.94-5.87-20.77-9.13c-4.84-2.31-9.81-4.71-14.1-7.95c-3.71-2.8-7.31-5.6-11.31-8
							c-5.25-3.15-10.79-5.82-16.49-8.05c-15.26-5.96-31.72-8.61-48.08-8.25c-22.67,0.51-44.87,6.73-65.36,16.21
							c-6.23,2.88-12.31,6.07-18.25,9.49C1661.69,209.27,1662.44,210.56,1663.28,210.08L1663.28,210.08z"/>
					</g>
				</g>
			</g>
			<path class="st38" d="M1604.4,323.55c0,0,23.62,155.75,21.82,178.43c-1.11,13.97-11.56,30.7-11.56,30.7"/>
			<path class="st38" d="M1597.95,538.86"/>
			<path class="st38" d="M1608.74,375.89"/>
			<g>
				<path class="st14" d="M1646.67,289.68c-1.67-4.1-1.31-8.74-0.44-13.08c3.75-18.52,16.5-34.31,31.95-45.19
					c6.68-4.7,13.89-8.61,21.08-12.5c18.45-9.99,36.91-19.99,55.88-28.95c2.1-0.99,4.27-1.99,6.59-2.09
					c2.32-0.11,4.84,0.89,5.86,2.98c1.65,3.38-1.3,7.14-4.18,9.55c-8.01,6.68-17.34,11.54-26.52,16.5
					c-24.32,13.14-48.49,27.61-67.04,48.1c-4.57,5.05-8.79,10.45-13.92,14.93c-3.22,2.82-6.79,5.25-10.59,7.23"/>
			</g>
			<g>
				<g>
					<path class="st14" d="M1658.78,372.45c-9.07-19.05-16.13-41.47-10.62-62.59c3.37-12.92,11.57-23.69,22.22-31.55
						c3.9-2.88,8.07-5.36,12.36-7.62c9.06-4.76,18.47-8.74,27.91-12.69c6.79-2.84,13.56-5.72,20.12-9.06
						c3.12-1.59,5.88-3.37,8.54-5.64c6.52-5.59,12.2-12.19,17.65-18.8c6.33-7.68,12.31-15.66,17.97-23.85
						c4.59-6.64,9.11-13.42,12.8-20.61c0.6-1.17,1.16-2.35,1.67-3.56c0.19-0.44-0.54-0.64-0.72-0.2
						c-2.81,6.67-6.96,12.88-10.94,18.89c-5.56,8.39-11.51,16.54-17.78,24.43c-5.69,7.16-11.62,14.23-18.26,20.53
						c-2.37,2.25-4.85,4.46-7.63,6.19c-2.36,1.47-4.94,2.64-7.45,3.84c-3.37,1.62-6.79,3.13-10.23,4.61
						c-10.92,4.69-21.95,9.07-32.53,14.5c-4.16,2.13-8.22,4.44-12.06,7.11c-10.44,7.25-18.94,17.1-23.14,29.23
						c-6.55,18.95-2.01,39.78,5.3,57.8c1.29,3.18,2.69,6.32,4.17,9.43C1658.34,373.26,1658.98,372.88,1658.78,372.45L1658.78,372.45
						z"/>
				</g>
			</g>
			<g>
				<g>
					<path class="st14" d="M1807.99,178.1c1.36,14.17,4.22,28.22,8.32,41.86c4.25,14.14,9.86,28.05,17.66,40.63
						c3.53,5.71,7.55,11.16,12.2,16.01c5.76,6.02,12.37,11.19,19.17,15.97c7.03,4.94,14.33,9.47,21.51,14.17
						c3.29,2.15,6.63,4.27,9.7,6.74c2.8,2.25,5.41,4.72,7.9,7.3c10.48,10.94,19.3,24.08,25.41,37.95c0.7,1.59,1.35,3.2,1.96,4.84
						c0.17,0.45,0.89,0.25,0.72-0.2c-5.08-13.71-13.28-26.54-22.68-37.68c-4.53-5.37-9.51-10.49-15.22-14.61
						c-6.83-4.94-14.11-9.27-21.15-13.9c-7.24-4.76-14.37-9.73-20.87-15.47c-5.46-4.82-10.29-10.18-14.46-16.15
						c-8.47-12.09-14.54-25.8-19.19-39.77c-4.63-13.91-7.92-28.32-9.68-42.88c-0.19-1.6-0.37-3.21-0.52-4.82
						C1808.69,177.62,1807.94,177.62,1807.99,178.1L1807.99,178.1z"/>
				</g>
			</g>
			<g>
				<g>
					<path class="st14" d="M1905.85,292.06c3.39,14.48,11.25,27.32,19.37,39.59c8.38,12.67,17.84,25.31,23.02,39.73
						c2.65,7.38,4.14,15.13,4.03,22.99c-0.11,8.02-1.42,15.98-2.78,23.87c-1.28,7.44-2.6,14.86-3.26,22.39
						c-0.73,8.35-1.81,16.67-2.68,25c-1.63,15.65-2.08,31.38,2.1,46.69c0.57,2.09,1.22,4.17,1.93,6.22c0.16,0.45,0.88,0.26,0.72-0.2
						c-2.73-7.91-4.42-16.12-5-24.47c-0.54-7.71-0.19-15.45,0.5-23.15c0.73-8.18,1.8-16.33,2.64-24.51c0.41-4,0.69-8.02,1.21-12.01
						c0.51-3.87,1.16-7.71,1.83-11.55c1.34-7.74,2.76-15.49,3.32-23.34c0.55-7.66-0.1-15.04-2.08-22.46
						c-3.93-14.74-12.86-27.62-21.24-40.14c-8.32-12.44-16.93-25.1-21.46-39.5c-0.55-1.76-1.04-3.55-1.46-5.35
						C1906.46,291.39,1905.74,291.59,1905.85,292.06L1905.85,292.06z"/>
				</g>
			</g>
			<g>
				<g>
					<path class="st14" d="M1610.27,274.68c-1.46,4.87-2.66,9.83-3.84,14.77c-1.61,6.7-3.12,13.43-4.27,20.23
						c-0.44,2.61-0.85,5.24-1.05,7.88c-0.22,2.95,0.26,5.82,0.54,8.75c0.99,10.13,1.56,20.3,2.09,30.46
						c1.06,20.6,1.83,41.29,5.2,61.67c3.35,20.26,10.53,39.41,16.94,58.83c6.32,19.14,11.69,38.94,10.64,59.28
						c-0.13,2.59-0.37,5.18-0.7,7.75c-0.06,0.48,0.69,0.47,0.75,0c2.54-20.09-1.45-39.94-7.37-59.09
						c-6.03-19.52-13.86-38.57-18-58.63c-4.17-20.23-5.26-40.97-6.3-61.55c-0.52-10.26-1-20.53-1.81-30.78
						c-0.36-4.58-1-9.14-1.3-13.72c-0.14-2.16,0.15-4.37,0.44-6.51c0.87-6.51,2.28-12.96,3.74-19.36c1.32-5.79,2.73-11.57,4.31-17.3
						c0.23-0.83,0.46-1.66,0.71-2.49C1611.13,274.41,1610.41,274.22,1610.27,274.68L1610.27,274.68z"/>
				</g>
			</g>
		</g>
		<path class="st12" d="M1937.34,441.36c0,0-21.24,30.3,1.55,40.91c22.8,10.6,34.02,4.17,34.02,4.17s-27.14-9.89-30.93-23.4
			C1938.2,449.52,1937.34,441.36,1937.34,441.36z"/>
		<path class="st12" d="M1717.55,181.55c0,0,6.13-21.94,35.85-16.11c29.72,5.83,45.15,13.03,45.15,13.03s-28.17-8.35-45.29-6.06
			c-17.12,2.29-36.71,14.91-36.71,14.91L1717.55,181.55z"/>
		<path class="st33" d="M1726.55,181.21c0,0-15.08,30.75-30.21,35.15c-15.13,4.4,35.24-6.8,37.45-20.54
			c2.21-13.74,2.67-15.94,2.67-15.94L1726.55,181.21"/>
		<path class="st24" d="M1660.44,403.29c0,0,0.13,24.98,6.1,41.96c5.97,16.98,13.03,30.23,19.07,38.19
			c6.04,7.96-9.98-14.78-13.2-34.73C1669.19,428.76,1660.44,403.29,1660.44,403.29z"/>
	</g>
</g>
<g id="Hand_x5F_R_10_">
	<path class="st0" d="M1495.09,1091.99l-80.37,23.2c0,0,0.55,41.21,27.56,37.11c27.02-4.09,37.11,3,53.21-6s31.93-51.85,31.93-51.85
		L1495.09,1091.99z"/>
	<path class="st0" d="M1463.3,1139.75c0,0-15.5,8.37-29.61,18.56c-12.7,9.17-23.94,20.08-27.43,22.92
		c-6.43,5.24-0.82,11.73,14.74,7.64c15.56-4.09,40.25-21.56,41.34-22.1s25.32-11.27,32.75-18.69c7.23-7.23,12.69-17.33,12.69-17.33
		L1463.3,1139.75z"/>
	<path class="st0" d="M1427,1133.2l-37.66,21.01l-39.3,32.75c0,0-9.01,5.73,1.36,6.55c10.37,0.82,23.4-7.03,26.4-10.85
		c1.04-1.33,21.95-11.25,29.06-16.58c0.82-0.61,46.46-14.53,46.46-14.53L1427,1133.2z"/>
	<path class="st0" d="M1422.91,1121.19l-37.66,21.01l-39.3,32.75c0,0-9.01,5.73,1.36,6.55c10.37,0.82,37.39-16.65,40.39-20.47
		s58.13-24.56,58.13-24.56L1422.91,1121.19z"/>
	<path class="st0" d="M1413.9,1117.64l-35.56,19.61l-35.46,33.8c0,0-8.26,6.07,1.79,6.07c10.05,0,34.8-18.48,37.41-22.3
		s54.2-27.48,54.2-27.48L1413.9,1117.64z"/>
	<path class="st0" d="M1416.08,1115.32l-22.51,7.78l-44.43,31.48c0,0-9.12,4.67,0.8,6.28s37.3-12.67,40.49-16.03
		c3.19-3.36,57.89-18.46,57.89-18.46L1416.08,1115.32z"/>
	<g>
		<path class="st39" d="M1422.91,1139.2c0,0-12.14,4.98-24.42,10.92s-36.23,26.2-36.23,26.2"/>
		<path class="st39" d="M1413.9,1131.7c0,0-15.56,6.48-27.84,12.42c-12.28,5.94-36.23,26.2-36.23,26.2"/>
		<path class="st39" d="M1409.4,1125.83c0,0-8.05,3.07-20.33,9.01c-12.28,5.94-36.23,26.2-36.23,26.2"/>
	</g>
	<path class="st16" d="M1473.53,1103.59c0.94-0.97-72.18,15.42-68.5,17.06C1408.72,1122.28,1466.71,1110.68,1473.53,1103.59z"/>
</g>
<g id="Hose_Kopie_Kopie_2_Kopie_Kopie_3">
	<g>
		<path class="st40" d="M1559.9,771.61c16.92-64.4,88.13-173.39,88.13-173.39l47.23-14.91c0,0-25.49,24.66-44.76,56.76
			c-12.28,20.47-49.39,106.16-66.59,146.27c-0.43,1-24.15-13.37-24.15-13.37"/>
		<path class="st41" d="M1622.67,1192.83c-2.85,2.14,18.34,162.74,35.75,331.43c9.28,89.91,22.59,182.27,25.79,257.07
			c0.02,0.38-10.78,2.33-10.64,3.14c4.97,29.87,16.99,68.09,19.75,75.35c0,0,28.48,28.02,95.28,2.97
			c0.23-0.09,3.68-30.02,11.05-76.14c0.23-1.47-9.72-0.26-9.69-1.77c1.43-66.05,4.09-166.69,5.95-262.26
			c3-154.33,5.78-302.91,5.78-302.91L1622.67,1192.83z"/>
		<path class="st42" d="M1684.21,1781.33c-0.37-0.08-10.78,2.33-10.64,3.14c4.97,29.87,16.99,68.09,19.75,75.35
			c0,0,28.48,28.02,95.28,2.97c0.23-0.09,3.68-30.02,11.05-76.14c0.23-1.47-8.22-2.15-9.69-1.77
			C1762.39,1791.97,1735.37,1792.79,1684.21,1781.33z"/>
		<path class="st41" d="M1983.98,1216.16c0.46-6.96,34.77,347.15,33.98,560.22c0,0.38,0,0.76,0,1.14c0,0.83,7.78,2.98,7.77,3.8
			c-0.17,30.28-5.98,69.92-7.56,77.53c0,0-23.68,32.18-93.6,18.03c-0.25-0.05-8.4-29.06-22.98-73.42c-0.46-1.41,8.4-4.51,8.12-6
			c-9.45-51.7-12.42-152.42-26.98-228.99c-33.29-175.11-81.6-341.12-81.6-341.12L1983.98,1216.16z"/>
		<g>
			<path class="st41" d="M1666.32,1016.11c-20.71,50.22-34.92,102.9-43.78,177.11c78.13,37.2,168.13,37.77,254.64,35.45
				c36.01-0.97,72.39-2.36,107.16-11.77c-11.13-62.31-49.98-214.64-51.67-215.51c-0.1-0.05-0.39,1.07-0.55,1.09
				c-3.82,0.55-9.05,2.82-9.28,2.18c-8.47,3.59-44.9,11.81-119.53,9.82c-38.86-1.03-86.1-1.5-133.58-6.14
				c-0.03,0-0.68,3.97-0.68,3.89"/>
		</g>
	</g>
	<path class="st43" d="M1691.16,1061.29c0,0,0.58,0.13,1.64,0.38c13.4,3.09,104.3,23.88,108.47,20.09c4.5-4.09,3.68-9.82,3.68-9.82
		l-113.29-23.71L1691.16,1061.29"/>
	<g>
		<path class="st44" d="M1691.16,1061.29c0,0,0.58,0.13,1.64,0.38c13.4,3.09,110.03,25.11,114.2,21.32
			c4.5-4.09,13.51-57.31,13.51-57.31l-128.84,22.55L1691.16,1061.29"/>
		<path class="st44" d="M1835.66,1073.98c0,0,0.57,3.85,1.64,4.09c13.4,3.09,107.58-7.26,111.75-11.05
			c4.5-4.09-11.05-51.99-11.05-51.99l-118.71,11.87l17.19,50.76"/>
	</g>
	<g>
		<path class="st44" d="M1850.26,1414.55c0,0,62.77,265.8,76.41,292.55c13.64,26.74,28.38,85.69,28.38,85.69l-46.12,5.46
			C1908.94,1798.25,1863.91,1444.57,1850.26,1414.55z"/>
		<g>
			<g>
				<path class="st45" d="M1810.45,1233.9c11.65,35.46,22.48,71.18,32.46,107.14c10.02,36.14,19.19,72.51,27.5,109.08
					c8.27,36.39,15.68,72.98,22.23,109.72c6.62,37.14,12.37,74.43,17.22,111.85c4.79,37.01,8.72,74.13,11.77,111.33
					c0.38,4.65,0.75,9.3,1.1,13.95c0.15,1.91,3.15,1.93,3,0c-2.85-37.39-6.57-74.72-11.18-111.93
					c-4.58-36.99-10.02-73.88-16.32-110.62c-6.37-37.14-13.62-74.12-21.75-110.92c-8.08-36.62-17.03-73.05-26.83-109.24
					c-9.8-36.2-20.46-72.16-31.96-107.85c-1.43-4.44-2.88-8.88-4.33-13.31C1812.74,1231.27,1809.84,1232.06,1810.45,1233.9
					L1810.45,1233.9z"/>
			</g>
		</g>
	</g>
	<path class="st46" d="M1921.34,1799.93l-10.22,5.15c0,0,18.28,62.22,22.92,74.23"/>
	<path class="st42" d="M2018.21,1779.07c0.36-0.13,10.98,0.99,10.95,1.81c-1.27,30.25-8.51,69.66-10.37,77.21
		c0,0-25.21,36.24-94.58,19.57c-0.24-0.06-9.96-29.63-22.92-74.5c-0.41-1.43,6.14-5.11,7.64-4.91
		C1937.16,1801.91,1968.84,1796.72,2018.21,1779.07z"/>
	<path class="st46" d="M1691.98,1784.33l-10.37,2.73c0,0,13.64,73.14,18.56,78.05"/>
	<g>
		<g class="st47">
			<path class="st43" d="M1800.6,1231.44c-3.82-1.23-42.3-3.27-49.94-2.18c-5.46,0.78,10.37,15.01,14.19,20.47
				c9.89,14.12,10.33,35.5,10.75,52.74c2.15,87.2-3.9,386.21-1.75,473.41c0.07,2.8,17.24,8.55,17.47-1.64
				c2.18-98.79,5.61-414.66,10.37-504.31c0.58-10.92,2.49-27.15-0.55-37.66"/>
		</g>
		<g class="st47">
			<path class="st43" d="M1987.63,1582.69c-3.68,2-4.93,7.4-8.29,11.56c-8.62,10.71-13.41,23.25-20.8,34.85
				c-2.76,4.34-5.04,10.96-0.77,13.83c2.54,1.71,5.97,0.81,8.77-0.44c21.61-9.67,31.74-63.02,21.14-59.87"/>
		</g>
		<g class="st47">
			<path class="st43" d="M1972.84,1650.7c-1.63,0.29-2.76,2.17-4.53,3.32c-4.55,2.96-7.89,7.07-12.09,10.51
				c-1.57,1.29-3.24,3.49-1.99,5.09c0.74,0.95,2.14,1.04,3.34,0.91c9.3-0.97,19.66-19.73,15.3-19.86"/>
		</g>
		<g class="st47">
			<path class="st43" d="M1755.12,1581.87c-3.68,2-4.93,7.4-8.29,11.56c-8.62,10.71-13.41,23.25-20.8,34.85
				c-2.76,4.34-5.04,10.96-0.77,13.83c2.54,1.71,5.97,0.81,8.77-0.44c21.61-9.67,31.74-63.02,21.14-59.87"/>
		</g>
		<g class="st47">
			<path class="st43" d="M1740.33,1649.88c-1.63,0.29-2.76,2.17-4.53,3.32c-4.55,2.96-7.89,7.07-12.09,10.51
				c-1.57,1.29-3.24,3.49-1.99,5.09c0.74,0.95,2.14,1.04,3.34,0.91c9.3-0.97,19.66-19.73,15.3-19.86"/>
		</g>
		<path class="st44" d="M1664.76,1043.43l-0.82,2.4l-28.45,91.18c0,0,36.02-17.19,46.67-40.93c7.93-17.69,9.52-47.86,9.52-47.86
			L1664.76,1043.43z"/>
		<path class="st44" d="M1940.76,1046.25l1.74,4.2l22.92,89.14c0,0-31.93-30.91-42.98-50.45c-9.54-16.87-14.02-35.1-14.02-35.1
			L1940.76,1046.25z"/>
		<path class="st44" d="M1725.02,1193.51c0,0,53.85,21.83,51.91,24.74s-43.66,0.97-49.97-1.94
			C1720.66,1213.4,1712.9,1196.42,1725.02,1193.51z"/>
		<path class="st44" d="M1820.79,1236.63c0,0,9.28,4.37,34.39-9.82s18.56,3.27,9.28,9.82
			C1855.18,1243.17,1820.79,1236.63,1820.79,1236.63z"/>
	</g>
	<g>
		<g class="st47">
			<path class="st43" d="M1909.28,1798.72c29.67,1.95,59.65-0.88,88.44-8.35c4.05-1.05,17.38-6.04,21.2-11.77
				c0.08-0.11-0.03-4.96-1.09-9.01c-33.72,11.35-72.96,23.7-108.39,26.94"/>
		</g>
		<g>
			<g>
				<path class="st45" d="M1905.58,1054.73c3.26,13.81,9.01,26.88,16.57,38.86c7.54,11.95,16.69,22.8,26.27,33.15
					c5.61,6.07,11.39,11.98,17.17,17.89c1.35,1.38,3.47-0.74,2.12-2.12c-9.96-10.18-19.94-20.38-29.02-31.36
					c-8.78-10.62-16.64-22.07-22.44-34.61c-3.35-7.25-5.94-14.83-7.78-22.6C1908.03,1052.05,1905.14,1052.85,1905.58,1054.73
					L1905.58,1054.73z"/>
			</g>
		</g>
	</g>
	<g>
		<path class="st48" d="M1656.78,1040.82c0,0,182.16,38.48,287.36,3.27l-9.82-42.71c-65.5,24.56-262.39,6.69-262.39,6.69
			L1656.78,1040.82z"/>
		<path class="st49" d="M1734.15,1189.41c0,0,61.81,28.24,66.72,40.93l4.09,0.82c11.05-6.55,15.56-173.15,15.56-173.15"/>
		<path class="st49" d="M1800.46,1229.94c0,0-39.71-3.68-49.94-1.64"/>
		<g>
			<g>
				<path class="st45" d="M1629.08,1188.6c4.78,37.67,9.24,75.38,13.49,113.12c4.39,39.01,8.56,78.05,12.58,117.11
					c4.07,39.52,8,79.05,11.84,118.59c3.81,39.18,7.55,78.38,11.27,117.57c3.61,38.01,7.21,76.03,10.87,114.04
					c0.45,4.65,0.9,9.3,1.34,13.95c0.18,1.9,3.19,1.92,3,0c-3.65-37.8-7.24-75.61-10.83-113.41c-3.71-39.09-7.43-78.18-11.21-117.26
					c-3.83-39.54-7.73-79.08-11.76-118.6c-4-39.16-8.13-78.31-12.48-117.43c-4.22-37.95-8.64-75.87-13.37-113.76
					c-0.58-4.63-1.16-9.27-1.75-13.9C1631.84,1186.71,1628.84,1186.68,1629.08,1188.6L1629.08,1188.6z"/>
			</g>
		</g>
		<g>
			<g>
				<path class="st45" d="M1691.94,1047.76c-1.7,10.36-3.06,20.8-5.51,31.01c-2.27,9.43-5.58,18.71-11.32,26.62
					c-2.84,3.91-6.3,7.42-10.14,10.34c-2.23,1.69-4.61,3.18-6.93,4.74c-6.12,4.1-12.27,8.21-18.13,12.69
					c-1.2,0.91-2.4,1.83-3.51,2.85c-0.35,0.31-0.69,0.64-0.99,0.99c-0.11,0.13-0.23,0.26-0.31,0.4c-0.14,0.24,0.01-0.19-0.01,0
					c0.75,0.21,1.5,0.42,2.25,0.62c0-0.02-0.01-0.04-0.01-0.06c0.03-0.02-0.03,0.43,0.04-0.04c0.14-0.93,0.39-2.43,0.66-3.66
					c0.21-0.93,0.47-1.85,0.66-2.79c0.27-1.37-1.43-2.65-2.51-1.46c-0.51,0.56-0.62,1.54-0.81,2.23c-0.51,1.94-0.99,3.89-1.44,5.85
					c-0.9,3.91-1.68,7.85-2.34,11.82c-1.32,7.98-2.18,16.03-2.53,24.11c-0.2,4.57-0.23,9.15-0.12,13.73c0.05,1.93,3.05,1.93,3,0
					c-0.25-9.96,0.24-19.93,1.48-29.81c0.63-4.97,1.46-9.91,2.47-14.81c0.49-2.36,1.02-4.71,1.59-7.05
					c0.31-1.25,0.62-2.49,0.96-3.73c-0.01,0.05,0.21-0.61,0.19-0.73c-0.04-0.24,0.95-0.91-0.35,0.52c-0.84-0.49-1.67-0.97-2.51-1.46
					c-0.43,2.2-1.09,4.35-1.36,6.59c-0.15,1.22,0.08,2.98,1.79,2.74c0.72-0.1,1.02-0.56,1.44-1.07c-0.32,0.39,0.04-0.03,0.13-0.12
					c0.19-0.19,0.38-0.38,0.57-0.56c2.28-2.12,4.89-3.92,7.42-5.73c3.36-2.41,6.76-4.75,10.18-7.06
					c6.32-4.28,12.84-8.24,18.01-13.97c6.87-7.6,11.18-16.99,13.99-26.77c3.4-11.82,4.88-24.09,6.87-36.19
					C1695.14,1046.67,1692.25,1045.85,1691.94,1047.76L1691.94,1047.76z"/>
			</g>
		</g>
		<g>
			<g>
				<path class="st45" d="M1802.09,1234.39c15.47,2.14,31.39-2.59,43.14-12.9c1.45-1.28-0.68-3.39-2.12-2.12
					c-10.85,9.54-25.89,14.11-40.22,12.13c-0.81-0.11-1.6,0.2-1.85,1.05C1800.84,1233.24,1801.29,1234.27,1802.09,1234.39
					L1802.09,1234.39z"/>
			</g>
		</g>
		<g class="st50">
			<path class="st45" d="M1639.04,744.05c-6.55,17.47,9.28,55.94,21.29,85.14"/>
		</g>
		<g class="st47">
			<path class="st43" d="M1683.38,1782.8c29.08,6.22,58.73,9.94,88.29,6.71c4.15-0.45,14.56-2.59,18.69-4.09
				c1.5-0.55,1.69-8.4,1.23-12.55c-35.01,6.36-72.21,9.71-107.74,7.79"/>
		</g>
	</g>
</g>
<g id="Shirt_12_">
	<g id="Kleidung_14_">
		<path class="st10" d="M1702.08,580.85c0,0,14.74,46.34,90.06,46.34c83.02,0,86.78-42.28,86.78-42.28l63.04,14.77
			c0,0,9.69,175.06-18.01,249.7c-13.92,54.85-5.47,78.02-5.39,78.66c1.64,12.49,6.74,22.7,14.8,73.48c0,0-42.84,17.87-135.08,14.05
			c-81.81-3.39-127.37-6.86-126.9-7.5c3.34-4.57,10.23-43.25,15.96-80.91c1.97-12.96-17.1-73.09-19.65-79.41
			c-39.3-97.42-19.44-249.5-19.44-249.5L1702.08,580.85z"/>
		<path class="st10" d="M1648.03,598.22c0,0-61.4,88.42-88.42,175.2c23.74,41.75,92.51,50.76,92.51,50.76l39.3-85.14L1648.03,598.22
			z"/>
		<path class="st10" d="M1941.14,599.96c0,0,72.59,79.83,99.61,166.61c-23.74,41.75-88.93,53.36-88.93,53.36l-54.06-79.15
			L1941.14,599.96z"/>
	</g>
	<g>
		<path class="st2" d="M1949.87,1055.97c0,0-107.25,22.51-112.16,15.56c-4.91-6.96-18.01-58.54-18.01-58.54l114.62-12.69
			L1949.87,1055.97z"/>
		<path class="st2" d="M1646.96,1045.73c0,0,153.1,33.16,158.01,26.2c4.91-6.96,15.83-59.08,15.83-59.08l-149.27-7.23
			L1646.96,1045.73z"/>
	</g>
	<path class="st2" d="M1561.45,788.87l-3.68,14.99l86.58,45.64c0,0,5.17-14.33,5.22-14.33
		C1651.18,835.18,1561.45,788.87,1561.45,788.87z"/>
	<path class="st2" d="M2041.49,769.92l10.15,17.04l-77.99,50.33c0,0-9.93-14.77-9.99-14.77
		C1962.05,822.52,2041.49,769.92,2041.49,769.92z"/>
	<g>
		<path class="st51" d="M1696.35,588.77c0,0-50.21,68.09-57.99,90.6c-2.92,8.46-45.18,112.93-45.18,112.93"/>
		<path class="st51" d="M1705.08,604.05c0,0-58.2,92.1-61.81,100.29c-12.28,27.84-32.9,97.27-32.9,97.27"/>
		<path class="st51" d="M1711.09,610.05c0,0-60.45,90.6-51.44,135.63c3.64,18.2,32.88,132.36,32.88,145.45s-4.84,115.71-4.84,115.71
			"/>
		<path class="st51" d="M1706.72,1006.44c0,0,2.18-110.39,0.55-130.04c-1.64-19.65-25.91-118.08-25.52-133.17
			c0.82-31.52,43.53-122.8,43.53-122.8"/>
		<path class="st51" d="M1744.93,628.06c0,0-33.43,102.47-32.88,130.31s18.69,247.38,18.69,247.38"/>
		<path class="st51" d="M1767.85,633.52c0,0-20.6,92.1-21.83,130.58c-1.1,34.58,11.46,241.1,11.46,241.1"/>
		<path class="st51" d="M1782.86,635.16c0,0-1.77,93.88,0.41,126.08c2.18,32.2,0,250.11,0,250.11"/>
		<polyline class="st51" points="1804.42,635.16 1807.69,738.86 1815.2,1009.3 		"/>
		<polyline class="st51" points="1849.58,1006.85 1837.16,742.14 1825.16,632.43 		"/>
		<path class="st51" d="M1851.9,624.24c0,0,28.93,86.78,28.93,108.61c0,21.83,6,273.58,6,273.58"/>
		<path class="st51" d="M1911.8,1002.34c0,0-5.87-157.05-4.23-171.79c1.64-14.74,20.74-77.5,12.55-103.16
			c-8.19-25.65-52.4-114.62-52.4-114.62"/>
		<path class="st51" d="M1880.28,596.95c0,0,20.74,12.55,36.02,39.3c15.28,26.74,66.5,170.46,66.5,170.46"/>
		<path class="st51" d="M2007.77,790.07c0,0-51.08-155.46-61.99-166.37c-10.92-10.92-63.86-33.57-63.86-33.57"/>
	</g>
	<path class="st52" d="M1667.97,1012.03c147.91,24.01,270.44,1.36,270.44,1.36l-4.09-13.1c0,0-207.4,11.46-263.62,4.91"/>
	<path class="st53" d="M1671.24,1006.85c217.64,18.42,263.07-6.55,263.07-6.55l-4.5-13.1c-0.08-0.65-40.55,19.01-257.89,18.63"/>
	<path class="st54" d="M1941.48,600.37l-55.6-13.3l-1.15,1.99l-1.17-0.56c0,0-26.61,43.39-72.04,44.62
		c-45.44,1.23-93.74-19.24-93.74-19.24s63.04,62.63,122.39,40.12c45.44-17.24,68.76-38.53,78.46-45.78
		c6.11,4.85,14.57,14.24,18.97,20.4c16.37,22.92,82.89,116.77,60.69,69.64C1976.07,651.12,1941.48,600.37,1941.48,600.37z"/>
	<path class="st55" d="M1791.04,618.51c0,0-9.93,13.06-9.42,13.06c0.51,0,20.47-0.2,20.47-0.2L1791.04,618.51z"/>
	<path class="st54" d="M1686.46,926.41c0,0,42.5,44.96,42.5,62.97c0,18.01,1.5,16.24,1.5,16.24l-57.92,0.41L1686.46,926.41z"/>
	<polygon class="st56" points="1780.4,615.31 1774.67,635.57 1808.65,635.36 1804.35,622.27 	"/>
	<g>
		<path class="st56" d="M1695.26,583.31c0,0,49.39,87.87,59.22,86.78c9.82-1.09,37.39-50.9,37.39-50.9l-89.24-38.61L1695.26,583.31"
			/>
		<path class="st56" d="M1885.4,586.04c0,0-41.41,87.6-51.24,86.51c-9.82-1.09-44.55-53.35-44.55-53.35l92.03-33.43"/>
	</g>
	<g class="st57">
		<path class="st58" d="M1947.44,710.19c-3.95,9.57-8.53,68.44-12.69,85.71c-0.04,0.18,16.12,23.4,16.12,23.4
			s45.54-24.51,44.1-21.64c-0.82,1.64-22.99-48.78-37.55-72.92c-1.48-2.46-7.47-14.43-9.99-15.81"/>
	</g>
	<g class="st59">
		<path class="st40" d="M1646.41,717.44c-0.65,12.41,4.88,59.9,8.22,71.47c3.86,13.35,12.26,38.46,19.48,48.83
			c7.22,10.38,18.25,13.15,28.67,14.07c1.21,0.11,2.59,0.02,3.37-1.25c0.72-1.17,0.63-2.9,0.4-4.4
			c-1.63-10.36-8.11-17.69-13.92-24.64c-15.05-18-31.24-62.41-41.89-85.62"/>
	</g>
	<g class="st60">
		<path class="st61" d="M1647.88,597.85c-0.65,12.41-2.82,63.41,0.52,74.97c3.86,13.35,12.26,38.46,19.48,48.83
			s18.25,13.15,28.67,14.07c1.21,0.11,2.59,0.02,3.37-1.25c0.72-1.17,0.63-2.9,0.4-4.4c-1.63-10.36-8.11-17.69-13.92-24.64
			c-15.05-18-31.24-62.41-41.89-85.62"/>
	</g>
	<path class="st62" d="M1877.83,585.19c0,0-6.62,44.72-89.03,41.99c-75.07-2.49-87.8-46.05-87.8-46.05"/>
	<g>
		<path class="st63" d="M1548.1,773.31c0,0,61.27,38.21,109.3,58.13"/>
		<path class="st63" d="M2046.26,764.07c0,0-45.77,39.32-96.94,60.12"/>
	</g>
	<g class="st57">
		<path class="st58" d="M1934.73,795.62c-10.09,30.62-23.13,84.73-46.05,129.97c-2.66,5.24-17.12,54.91-17.12,80.71
			c0,3.27,45.98-1.09,62.36-6.82c-9.2-34.53-18.95-66.36-19.03-88.62c-0.15-40.27,6.01-51.05,12.28-74.81
			c2.33-8.84,4.35-17.35,4.83-21.1"/>
	</g>
	<path class="st56" d="M1944.14,730.54l-8.56,67.23c0,0,9.78,7.27,11.83-11.56S1944.14,730.54,1944.14,730.54z"/>
	<path class="st56" d="M1631.95,771.06l24.01,43.94C1655.96,815,1633.86,788.53,1631.95,771.06z"/>
	<polygon class="st64" points="1551.3,767.92 1583.78,786.89 1579,798.9 1544.48,778.84 	"/>
	<g>
		<path class="st2" d="M1694.71,579.01l48.03-15.28l48.31,54.85c0,0-33.98,46.87-34.11,46.67
			C1756.24,664.21,1694.71,579.01,1694.71,579.01z"/>
		<path class="st2" d="M1883.01,584.4l-46.66-18.59l-45.31,52.7c0,0,39.35,46.88,39.57,46.67
			C1831.57,664.22,1883.01,584.4,1883.01,584.4z"/>
	</g>
</g>
<g>
	<path class="st0" d="M1977.82,833.49l46.21,100.34c0,0,13.71,28.46,42.14,23.35c56.75-10.19-22.38-165.42-22.38-165.42
		L1977.82,833.49z"/>
	<path class="st0" d="M2096.71,658.23c-0.53,6.93,14.14,167.6,10.03,225.57c-3.93,55.34-27.68,86.8-53.33,69.95
		c-21.57-14.16-13.13-269.84,0.31-284.26C2067.15,655.06,2096.71,658.23,2096.71,658.23z"/>
</g>
<g id="Arm_x5F_L_x5F_oben_18_" class="st27">
	<path class="st65" d="M2029.57,828.87c-8.27-13.77-20.23-250.83-18.68-253.75c9.96-18.75,42.11-30.93,53.72-4.56
		c5.08,11.54,111.75,278.12-20.24,279.91c-37.05,0.5-23.53-18.3-23.53-18.3"/>
	<path class="st66" d="M2111.3,756.91l-7.4-52.17l3.12,67.6c-1.14,5.35-11.23,58.83-38.63,58.56c-17.22-0.17-39.17-4.9-39.17-4.9
		l-10.82,5.85l-3.33,1.2c4.66,24.43,26.21,23.39,29.21,23.46C2115.09,858.11,2111.3,756.91,2111.3,756.91z"/>
	<g class="st28">
		
			<ellipse transform="matrix(0.9685 -0.2491 0.2491 0.9685 -84.8009 532.9394)" class="st5" cx="2063.5" cy="601.56" rx="3.31" ry="3.02"/>
		<ellipse class="st5" cx="2068.83" cy="612.43" rx="2.05" ry="1.69"/>
		
			<ellipse transform="matrix(0.8059 -0.5921 0.5921 0.8059 33.2731 1344.2836)" class="st5" cx="2066.69" cy="621.4" rx="2.11" ry="1.97"/>
		<ellipse class="st5" cx="2072.51" cy="606.65" rx="1.84" ry="1.52"/>
	</g>
</g>
<path class="st40" d="M1559.9,771.61c16.92-64.4,88.13-173.39,88.13-173.39l47.23-14.91c0,0-25.49,24.66-44.76,56.76
	c-12.28,20.47-49.39,106.16-66.59,146.27c-0.43,1-24.15-13.37-24.15-13.37"/>
<g class="st27">
	<path class="st65" d="M2115.68,503.96c-3.04,12.5-30.97,34.63-53.96,37.53c-9.65,1.22-13.7-10.18-22.28-12.26
		c-29.03-7.05-33.99-35.48-29.68-53.23s34.95-25.87,63.98-18.83C2102.76,464.22,2119.99,486.21,2115.68,503.96z"/>
	<g class="st28">
		<path class="st0" d="M2012.7,479.14c3.21-6.41-3.72,2.91-2.53-4.17c3.59-21.3,22.57-43.55,30.26-63.74c0.76-2,1.91-4.08,3.9-4.87
			c3.55-1.42,8.48,1.35,9.26,5.09c5.09,24.41-6.98,31.31-10.16,51.96c-1.49,9.68-6.47,12.06-15.79,15.07
			c-4.18,1.35-10-0.11-10.67-4.45"/>
	</g>
	<path class="st65" d="M2044.32,461.49c0,0,17.39-20.47,29.69-41.17c11.59-19.51,16.46-42.32,21.15-44.44
		c21.24-9.58,16.06,23.72,1.81,52.15c-10.6,21.13-21.13,39.4-21.13,39.4L2044.32,461.49z"/>
	<path class="st65" d="M2060.41,467.53c0,0,15.07-19.75,27.37-40.45c11.59-19.51,20.79-47.84,25.48-49.96
		c21.24-9.58,14.05,28.52-0.21,56.95c-10.6,21.13-21.12,39.4-21.12,39.4L2060.41,467.53z"/>
	<path class="st65" d="M2076.13,478.63c0,0,15.08-19.75,27.37-40.45c11.59-19.51,21.3-53.63,25.99-55.75
		c21.24-9.58,13.54,34.31-0.72,62.74c-10.6,21.13-21.13,39.4-21.13,39.4L2076.13,478.63z"/>
	<path class="st65" d="M2083.64,500.58c0,0,15.07-19.75,27.37-40.45c11.59-19.51,26.58-54.67,31.27-56.79
		c21.24-9.58,8.26,35.35-5.99,63.78c-10.6,21.13-21.12,39.4-21.12,39.4L2083.64,500.58z"/>
	<path class="st66" d="M2107.44,385.66l-39.07,73.75c0,0,13.06-14.46,22.42-30.9C2095.22,420.75,2107.44,385.66,2107.44,385.66z"/>
	<path class="st66" d="M2126.17,390.65l-39.07,73.75c0,0,13.06-14.46,22.42-30.9C2113.95,425.74,2126.17,390.65,2126.17,390.65z"/>
	<path class="st66" d="M2142.81,402.71l-39.07,73.75c0,0,13.06-14.46,22.42-30.9C2130.59,437.8,2142.81,402.71,2142.81,402.71z"/>
	<path class="st66" d="M2029.82,480.67c0,0,24.67-7.28,49.51,1.53c24.83,8.81,18.26,6.79,18.26,6.79s-10.09-14.87-31.2-17.85
		C2045.28,468.16,2029.82,480.67,2029.82,480.67z"/>
</g>
<g id="Ebene_53_Kopie_3">
	<g>
		<path class="st0" d="M2088.02,617l-45.88,1.7c-5.27,0.23-11.58-2.61-11.54-10.26l0,0c0.04-7.64,5.5-27.56,54.97-15.92l17.65,1.47
			c5.27-0.23-1.23,4.17-1.27,11.81l0,0C2101.92,613.44,2093.29,616.77,2088.02,617z"/>
		<path class="st0" d="M2041.62,570.27c0,0,36.69-8.7,49.44-6.51c3.49,0.6,15.42-1.84,18.15,16.94
			c1.96,13.52-1.31,71.71-14.86,89.16c-5.91,7.61-10.3-0.88-10.71,0.67c-1.56,5.83,7.44,5.49-3.85,5.25
			c-54.48-1.12-35.94-25.01-39.93-31.04C2007.76,596.15,2041.62,570.27,2041.62,570.27z"/>
	</g>
	<path class="st0" d="M2104.56,490.76c-17.38,1.96-20.43,21.71-22.62,66.25s26.99,34.93,26.99,34.93s-3.79-27.86-3.8-54.34
		C2105.11,513.06,2112.92,489.82,2104.56,490.76z"/>
	<path class="st0" d="M2065.1,583.12c0,0-22.42-53.05-38.84-27.19c-3.12,4.92-2.65,11.33-0.39,17.56
		c3.08,8.47,8.63,16.01,8.63,16.01l51.85-6.67L2065.1,583.12z"/>
	<path class="st5" d="M2056.76,567.08c0,0-14.16-0.34-18.62,7.11c-4.46,7.45-7.22,9.88-7.22,9.88s-5.03-5.11,3.75-12.09
		S2056.76,567.08,2056.76,567.08z"/>
	<path class="st5" d="M2034.51,589.5c0,0-10.41,13,3.6,21.74c3.64,2.27-1.09,10.62,1.46,14.27c4.68,6.72,15.79,9.98,15.79,9.98
		s-13.07,12.62-14.1,18.48c-1.03,5.86,3.45-20.71,3.45-20.71s-12.8-7.23-14.84-15.12C2024.16,596,2034.51,589.5,2034.51,589.5z"/>
	<path class="st5" d="M2081.84,563.55c0,0,17.13-5.88,24.59,7.92c0,0,1.27-4.45-2.46-10.33S2081.84,563.55,2081.84,563.55z"/>
	<path class="st5" d="M2036.11,589.58c0.44-0.34,51.36-12.57,60.09-8.05c0,0-17.75-4.27-31.18-0.13
		C2051.58,585.54,2036.11,589.58,2036.11,589.58z"/>
	<path class="st5" d="M2041.04,611.39c0.44-0.34,51.36-12.57,60.09-8.05c0,0-17.75-4.27-31.18-0.13
		C2056.51,607.35,2041.04,611.39,2041.04,611.39z"/>
</g>
<g id="Ebene_109">
	<circle class="st67" cx="2094.24" cy="429.35" r="23.4"/>
	<path class="st67" d="M2106.46,385.1h-24.43c-5.26,0-9.53-4.27-9.53-9.53V237.96c0-5.26,4.27-9.53,9.53-9.53h24.43
		c5.26,0,9.53,4.27,9.53,9.53v137.61C2115.99,380.83,2111.72,385.1,2106.46,385.1z"/>
</g>
<path class="st5" d="M2046.26,806.74c-0.08,0.19-0.42,0.83-0.96,1.87c-5.48,10.49-31.93,60.82-29.6,74.32
	c2.57,14.84-8.54-29.91,4.6-49.79C2033.43,813.26,2046.26,806.74,2046.26,806.74z"/>
<path class="st5" d="M1977.82,833.49l3.43,7.45c3.01-1.91,58.93-33.73,63.33-37.34c0.78-0.64-0.79-11.84-0.79-11.84L1977.82,833.49z
	"/>
</svg>
