<?xml version="1.0" encoding="utf-8"?>
<!-- Generator: Adobe Illustrator 25.4.0, SVG Export Plug-In . SVG Version: 6.00 Build 0)  -->
<svg version="1.1" id="Nachdenklich_1_" xmlns="http://www.w3.org/2000/svg" xmlns:xlink="http://www.w3.org/1999/xlink" x="0px"
	 y="0px" viewBox="0 0 3840 2160" style="enable-background:new 0 0 3840 2160;" xml:space="preserve">
<style type="text/css">
	.st0{fill:#FFB699;}
	.st1{fill:#54A465;}
	.st2{fill:#FFF8C5;}
	.st3{fill:none;stroke:#2E753B;stroke-miterlimit:10;}
	.st4{fill:#76C484;}
	.st5{fill:#F99A79;}
	.st6{fill:#449353;}
	.st7{fill:none;stroke:#FFF8C5;stroke-width:2;stroke-miterlimit:10;}
	.st8{fill:#FFF8C5;stroke:#002A2B;stroke-miterlimit:10;}
	.st9{fill:none;stroke:#22722F;stroke-miterlimit:10;}
	.st10{fill:#CCF6E6;}
	.st11{fill:none;stroke:#002A2B;stroke-width:4;stroke-miterlimit:10;}
	.st12{display:none;}
	.st13{display:inline;fill:#995B34;}
	.st14{display:inline;fill:#633318;}
	.st15{display:inline;}
	.st16{fill:#AA6944;}
	.st17{fill:#995B34;}
	.st18{fill:#633318;}
	.st19{fill:#FFCAB8;}
	.st20{display:inline;fill:#FFB699;}
	.st21{display:inline;fill:#F99A79;}
	.st22{display:inline;fill:#D86C45;}
	.st23{fill:#D86C45;}
	.st24{fill:#FFFFFF;}
	.st25{fill:url(#SVGID_1_);}
	.st26{fill:#16100B;}
	.st27{fill:url(#SVGID_00000143619389147346683870000015753986838150499504_);}
	.st28{display:inline;fill:#FCD2CA;}
	.st29{display:inline;fill:url(#SVGID_00000098908219822544337080000003750339680509209225_);}
	.st30{display:inline;fill:url(#SVGID_00000153680738850377178710000015647972469597347998_);}
	.st31{fill:#841A06;}
	.st32{fill:#D64B2B;}
	.st33{fill:#FFAF9C;}
	.st34{fill:none;stroke:#841A06;stroke-width:0.25;stroke-miterlimit:10;}
	.st35{fill:#894A27;}
	.st36{opacity:0.72;fill:#F99A79;}
	.st37{opacity:0.72;fill:#E27F64;}
	.st38{opacity:0.33;fill:#F98869;}
	.st39{fill:#FCD2CA;}
	.st40{fill:url(#SVGID_00000072979199887613262220000015272078605273988269_);}
	.st41{fill:url(#SVGID_00000079475331521775365870000000285072625978946436_);}
	.st42{display:inline;fill:#FFFFFF;}
	.st43{display:inline;fill:url(#SVGID_00000066504750201463332420000000779398341206820760_);}
	.st44{display:inline;fill:#16100B;}
	.st45{fill:url(#SVGID_00000022554620465423486580000009009358243187645863_);}
	.st46{fill:url(#SVGID_00000163048434670118707820000009210036075743354516_);}
	.st47{fill:#D88C66;}
	.st48{fill:none;stroke:#995B34;stroke-miterlimit:10;}
	.st49{display:inline;fill:#894A27;}
	.st50{fill:none;stroke:#C9563F;stroke-width:0.5;stroke-miterlimit:10;}
	.st51{fill:none;stroke:#E58065;stroke-width:0.5;stroke-miterlimit:10;}
	.st52{fill:#F0FFF9;}
	.st53{fill:#545454;}
	.st54{fill:#3F3F3F;}
	.st55{fill:#28564D;}
	.st56{opacity:0.41;fill:#28564D;}
	.st57{fill:#002A2B;}
	.st58{fill:none;stroke:#CCF6E6;stroke-miterlimit:10;}
	.st59{opacity:0.41;}
	.st60{fill:#336B61;stroke:#002A2B;stroke-miterlimit:10;}
	.st61{fill:none;stroke:#002A2B;stroke-width:2;stroke-miterlimit:10;}
	.st62{opacity:0.31;}
	.st63{fill:none;stroke:#006A58;stroke-width:0.25;stroke-miterlimit:10;}
	.st64{fill:#EAE0A4;}
	.st65{fill:#97D1B8;}
	.st66{opacity:0.44;fill:#C3EDDC;}
	.st67{fill:#EAE1AC;}
	.st68{opacity:0.31;fill:#002A2B;}
	.st69{opacity:0.44;}
	.st70{fill:#C3EDDC;}
	.st71{opacity:0.45;}
	.st72{display:none;opacity:0.45;}
	.st73{display:inline;fill:#F0FFF9;}
	.st74{fill:none;stroke:#64D250;stroke-width:16;stroke-miterlimit:10;}
	.st75{fill:none;stroke:#64D250;stroke-width:12;stroke-miterlimit:10;}
	.st76{fill:#A5EA96;}
	.st77{opacity:0.22;}
	.st78{fill:none;stroke:#64D250;stroke-width:6;stroke-miterlimit:10;}
	.st79{fill:none;stroke:#64D250;stroke-width:20;stroke-miterlimit:10;}
	.st80{fill:#64D250;}
</style>
<g id="Füsse_Kopie_Kopie_Kopie_Kopie_2">
	<g>
		<g>
			<polygon class="st0" points="1751.69,1865.21 1761.03,1959.75 1819.29,1965.79 1825.34,1841.57 			"/>
			<path class="st1" d="M1750.18,1914.13c0,0,0.62,32.98-11.97,51.92c-4.85,7.3-13.04,13.71-20.57,18.6
				c-1.46,0.95-2.94,1.82-4.42,2.58c-19.24,9.89-66.51,35.73-78.6,50.02c-12.09,14.29-13.19,26.38-13.19,26.38l-6.6,2.2l10.03,9.07
				c0,0,10.72,13.33,50.29,2.89c39.57-10.44,151.29-74.34,151.29-74.34l0.21-93.03l-4.95-0.21c0,0-9.55,8.31-34.83,7.21
				c-25.28-1.1-31.54-8.45-31.54-8.45L1750.18,1914.13z"/>
			<path class="st2" d="M1621.42,2063.63l-6.6,2.2l7.15,11.54c0,0,16.08,11.27,55.65,0.82c39.57-10.44,147.99-62.66,147.99-62.66
				l1.65-13.19l-25.56,14.02c0,0-45.35,19.79-71.32,29.27C1644.14,2077.11,1621.42,2063.63,1621.42,2063.63z"/>
			<path class="st3" d="M1826.72,1987.78"/>
			<g>
				<path class="st4" d="M1627.57,2058.64c1.06-11.2,8.14-21.66,18.14-26.81c1.14-0.59,2.91-0.89,3.37,0.3
					c0.3,0.77-0.25,1.6-0.76,2.24c-6.11,7.66-12.23,15.33-18.34,22.99c-0.5,0.62-1.32,1.31-1.98,0.86"/>
			</g>
			<path class="st5" d="M1752.24,1874l0.82,10.44c0,0,29.27,10.03,49.06,7.83c14.37-1.6,20.61-7.01,20.61-7.01l2.06-22.81
				l-72.55,6.6V1874"/>
		</g>
		<path class="st6" d="M1825.2,1926.08c0,0-1.65,53.59-17.31,64.31c-15.66,10.72-129.44,70.49-129.44,70.49
			s66.37-15.66,103.47-35.45c31.68-16.9,44.52-21.99,44.52-21.99L1825.2,1926.08z"/>
		<path class="st7" d="M1712.66,1985.03c28.44-11.95,46.38,16.28,46.38,16.28"/>
		<path class="st7" d="M1689.58,1997.81c28.44-11.95,46.38,16.28,46.38,16.28"/>
		<path class="st7" d="M1663.2,2013.47c28.44-11.95,46.38,16.28,46.38,16.28"/>
		<ellipse class="st8" cx="1806.54" cy="1948.37" rx="12.17" ry="17.48"/>
		<path class="st9" d="M1756.36,1911.93c0,0-0.27-1.1-3.02,8.24c-2.75,9.34-2.24,32.09,2.75,39.3c4.95,7.15,13.88,4.95,13.88,4.95"
			/>
		<path class="st10" d="M1755.64,1909.39c0,0,14.84,13.71,41.74,10c14.07-1.94,24.32-9.17,24.32-9.17l1.24-20.61
			c0,0-8.6,6.77-32.77,6.66c-23.91-0.1-36.07-5.63-36.07-5.63L1755.64,1909.39z"/>
		<ellipse class="st1" cx="1775.53" cy="1926.49" rx="21.64" ry="28.86"/>
		<path class="st6" d="M1794.7,1915.77c0,0-17.73,11.95-19.38,28.86s-5.36,19.79-5.36,19.79s9.07,1.65,18.55-19.79
			C1798,1923.2,1794.7,1915.77,1794.7,1915.77z"/>
		<path class="st11" d="M1750.86,1889.67c0,0,11.27,4.67,32.98,5.5c21.71,0.82,33.53-4.12,41.5-8.79"/>
	</g>
	<g>
		<g>
			<polygon class="st0" points="2055.81,1865.83 2058.69,1960.78 2001.69,1974.27 1979.73,1851.86 			"/>
			<path class="st1" d="M2063.6,1914.15c0,0,3.63,32.78,18.55,49.95c5.75,6.61,14.69,11.92,22.79,15.8
				c1.57,0.75,3.15,1.42,4.71,1.99c20.35,7.34,70.55,26.88,84.38,39.5s16.47,24.47,16.47,24.47l6.82,1.33l-8.78,10.28
				c0,0-8.92,14.6-49.5,9.33c-40.59-5.27-159.59-54.28-159.59-54.28l-12.16-92.23l4.88-0.84c0,0,10.54,7.02,35.47,2.68
				c24.93-4.34,30.19-12.43,30.19-12.43L2063.6,1914.15z"/>
			<path class="st2" d="M2210.5,2045.86l6.82,1.33l-5.6,12.37c0,0-14.5,13.24-55.08,7.97c-40.59-5.27-154.82-43.12-154.82-43.12
				l-3.33-12.87l27.15,10.61c0,0,47.51,13.79,74.49,19.86C2189.7,2062.15,2210.5,2045.86,2210.5,2045.86z"/>
			<path class="st3" d="M1997.16,1997.03"/>
			<g>
				<path class="st4" d="M2203.77,2041.7c-2.5-10.98-10.86-20.43-21.44-24.26c-1.2-0.43-3-0.51-3.31,0.73
					c-0.2,0.8,0.45,1.55,1.04,2.13c7.05,6.81,14.1,13.63,21.14,20.44c0.57,0.55,1.47,1.13,2.07,0.6"/>
			</g>
			<path class="st5" d="M2056.39,1874.62l0.52,10.46c0,0-27.74,13.71-47.64,14.07c-14.46,0.26-21.34-4.3-21.34-4.3l-4.98-22.36
				l72.8-2.79L2056.39,1874.62"/>
		</g>
		<path class="st6" d="M1990.73,1935.65c0,0,8.52,52.93,25.44,61.55s137.43,53.27,137.43,53.27s-67.83-7-107.17-21.86
			c-33.59-12.68-46.98-16.08-46.98-16.08L1990.73,1935.65z"/>
		<path class="st7" d="M2109.91,1979.64c-29.74-8.2-43.9,22.11-43.9,22.11"/>
		<path class="st7" d="M2134.45,1989.35c-29.74-8.2-43.9,22.11-43.9,22.11"/>
		<path class="st7" d="M2162.63,2001.49c-29.75-8.2-43.9,22.11-43.9,22.11"/>
		
			<ellipse transform="matrix(0.9917 -0.1285 0.1285 0.9917 -234.6509 274.8599)" class="st8" cx="2012.1" cy="1955.35" rx="12.17" ry="17.48"/>
		<path class="st9" d="M2057.18,1912.76c0,0,0.13-1.13,4.06,7.79s6.35,31.54,2.33,39.33c-3.99,7.72-13.13,6.69-13.13,6.69"/>
		<path class="st10" d="M2057.57,1910.15c0,0-12.96,15.5-40.11,15.28c-14.2-0.12-25.3-5.97-25.3-5.97l-3.88-20.28
			c0,0,9.4,5.61,33.36,2.4c23.7-3.18,35.05-10.22,35.05-10.22L2057.57,1910.15z"/>
		
			<ellipse transform="matrix(0.9917 -0.1285 0.1285 0.9917 -231.1184 278.2381)" class="st1" cx="2040.04" cy="1929.67" rx="21.64" ry="28.86"/>
		<path class="st6" d="M2019.66,1921.5c0,0,19.12,9.58,22.92,26.13s7.86,18.93,7.86,18.93s-8.78,2.8-20.94-17.24
			C2017.34,1929.29,2019.66,1921.5,2019.66,1921.5z"/>
		<path class="st11" d="M2059.77,1889.98c0,0-10.57,6.08-32,9.69s-33.78,0.22-42.28-3.39"/>
	</g>
</g>
<g id="Haarehinten_9_" class="st12">
	<path class="st13" d="M1310.36,940.58l8.17,21.69c25.3-13.11,29.03-22.29,29.03-22.29s-20.64-55.16-23.28-77.58
		c-16.91-143.73-21.7-166.06-37.71-213.2c-17.65-51.98-38.39-76.87-80.53-92.97c-57.13-21.83-87.49-19.19-195.46,6
		c-93.02,21.7-124.59,99.97-135.16,148.1c-5.28,24.06,4.29,65,21.97,155.87c17.69,90.87,15.35,149.79,15.35,149.79
		s18.81,1.9,63.2,1.95l-5.75-56.01l3.7,46.46c9.22,0.24,17.49-20.03,28.5-19.14c121.35,9.82,155.15-66.33,214.69-90.33l31.88-1.72
		l31.33,77.14c7.69-3.4,29.11-7.13,35.42-10.33L1310.36,940.58z"/>
	<path class="st14" d="M1257.49,839.21c0,0,13.93-21.84,23.77,0.76c13.89,31.89,25.59,91.8,25.59,91.8l8.87,32.24
		c0,0-33.29,11.05-35.42,10.33c-2.13-0.72-14.77-38.19-14.77-38.19l-24.29-62.9L1257.49,839.21z"/>
	<path class="st14" d="M1183.14,859c-62.76-109.01,3.07-38.01-82.42-23.73c-105.03,17.55-142.73-19.75-142.73-19.75l16.29,202.65
		c25.14-1.97,44.43-5.17,55.4-6.51c109.9-13.39,125.29-14.52,186.63-25.74C1216.68,985.86,1200.41,888.99,1183.14,859z"/>
	<polygon class="st14" points="1203.45,944.43 1219.02,985.89 1275,975.08 1247.63,829.08 	"/>
	<g class="st15">
		<g>
			<g>
				<path class="st16" d="M977.35,907.32c3.1,27.65,6.72,55.23,10.49,82.79c1.16,8.49,2.34,16.99,3.51,25.48
					c0.07,0.48,0.79,0.27,0.72-0.2c-3.94-28.39-7.85-56.78-11.3-85.23c-0.92-7.61-1.82-15.23-2.67-22.84
					C978.05,906.85,977.3,906.84,977.35,907.32L977.35,907.32z"/>
			</g>
		</g>
		<g>
			<g>
				<path class="st16" d="M1000,936.94c1.43,19.43,5.06,38.61,8.2,57.81c1.02,6.24,2,12.48,2.89,18.73c0.07,0.48,0.79,0.27,0.72-0.2
					c-2.89-20.18-6.9-40.19-9.45-60.41c-0.67-5.3-1.22-10.61-1.61-15.93C1000.72,936.47,999.97,936.46,1000,936.94L1000,936.94z"/>
			</g>
		</g>
		<g>
			<g>
				<path class="st16" d="M1234.07,899.43c-0.38,0.08-0.12-0.07-0.07,0.25c0.03,0.22,0.17,0.46,0.23,0.67
					c0.2,0.64,0.35,1.29,0.5,1.93c0.37,1.57,0.67,3.15,0.97,4.74c0.68,3.62,1.35,7.25,2.06,10.87c2.49,12.79,4.98,25.58,7.47,38.37
					c1.41,7.25,2.82,14.5,4.24,21.75c0.09,0.47,0.82,0.27,0.72-0.2c-4.66-23.94-9.32-47.89-13.93-71.84
					c-0.34-1.78-0.68-3.57-1.17-5.31c-0.14-0.51-0.4-2.12-1.23-1.96C1233.4,898.8,1233.6,899.53,1234.07,899.43L1234.07,899.43z"/>
			</g>
		</g>
		<g>
			<g>
				<path class="st16" d="M1238.98,898.26c4.35,20.84,9.24,41.57,14.68,62.16c1.55,5.86,3.14,11.71,4.78,17.54
					c0.13,0.46,0.85,0.27,0.72-0.2c-5.74-20.5-10.95-41.15-15.61-61.93c-1.33-5.91-2.61-11.84-3.84-17.77
					C1239.61,897.59,1238.89,897.79,1238.98,898.26L1238.98,898.26z"/>
			</g>
		</g>
	</g>
</g>
<g id="Haarehinten_8_">
	<path class="st17" d="M1961.15,488.36l4.28,23.86c9.95-1.87,24.99-59.93,22.93-85.86c-9.4-118.38-11.58-138.71-24.13-177.59
		c-13.84-42.86-30.55-63.54-64.92-77.27c-46.6-18.61-71.55-16.83-160.44,2.5c-76.59,16.66-103.46,80.48-112.72,119.84
		c-4.63,19.67,2.71,53.39,16.1,128.16c13.39,74.77,25.12,87.58,25.12,87.58s24.2,42.51,51.97,37.44l3.4-0.64l7.33-3.35
		c7.56,0.31-12.21-19.64-3.19-18.77c99.44,9.56,128.11-52.5,177.26-71.45l26.18-1.02l24.75,63.68c6.35-2.69-0.27,0.24,4.95-2.3
		L1961.15,488.36z"/>
	<path class="st18" d="M1938.02,404.3c0,0,2.35-14.69,10.15,3.97c11,26.33,2.22,108.1,2.22,108.1s-8.13,2.56-9.87,1.94
		c-1.74-0.62,2.91-34.38,2.91-34.38l-19.15-51.91L1938.02,404.3z"/>
	<path class="st18" d="M1876.78,419.62c-50.15-90.21,2.99-31.15-67.33-20.49c-86.39,13.1-99.45-66.92-125.68-23.54
		s37.16,173.09,37.16,173.09c20.65-1.3,49.49,1.84,58.5,0.88c90.33-9.63,61.8-5.91,112.27-14.35
		C1892,535.16,1890.58,444.44,1876.78,419.62z"/>
	<polygon class="st18" points="1892.39,489.97 1894.74,533.29 1950.71,515.99 1930.06,395.87 	"/>
	<g>
		<g>
			<g>
				<path class="st16" d="M1707.27,456.73c2.21,22.76,4.84,45.48,7.59,68.17c0.84,6.92,1.69,13.83,2.54,20.75
					c0.06,0.47,0.81,0.48,0.75,0c-2.88-23.31-5.73-46.62-8.21-69.97c-0.67-6.31-1.31-12.63-1.93-18.95
					C1707.97,456.25,1707.22,456.25,1707.27,456.73L1707.27,456.73z"/>
			</g>
		</g>
		<g>
			<g>
				<path class="st16" d="M1725.49,481.31c0.93,15.81,3.62,31.43,5.94,47.07c0.78,5.25,1.52,10.51,2.2,15.78
					c0.06,0.47,0.81,0.48,0.75,0c-2.13-16.61-5.16-33.09-7.01-49.74c-0.49-4.36-0.87-8.74-1.13-13.12
					C1726.21,480.83,1725.46,480.83,1725.49,481.31L1725.49,481.31z"/>
			</g>
		</g>
		<g>
			<g>
				<path class="st16" d="M1918.09,453.49c-0.44,0.06-0.15-0.14-0.11,0.26c0.02,0.21,0.15,0.46,0.2,0.67
					c0.19,0.7,0.34,1.4,0.48,2.11c0.31,1.52,0.57,3.05,0.82,4.57c0.65,3.92,1.23,7.83,1.58,11.79c0.97,10.98,0.89,22.01,1.46,33.01
					c0.31,5.85,0.79,11.7,1.81,17.47c0.08,0.47,0.81,0.27,0.72-0.2c-2.01-11.35-2.02-22.97-2.4-34.46
					c-0.31-9.53-0.98-18.94-2.55-28.35c-0.31-1.84-0.62-3.68-1.05-5.49c-0.13-0.55-0.32-2.24-1.18-2.11
					C1917.41,452.83,1917.62,453.55,1918.09,453.49L1918.09,453.49z"/>
			</g>
		</g>
		<g>
			<g>
				<path class="st16" d="M1922.05,452.55c3.47,18.19,2.95,36.85,5.4,55.17c0.67,4.96,1.55,9.9,2.82,14.75
					c0.12,0.47,0.85,0.27,0.72-0.2c-4.7-17.98-4.37-36.79-6.18-55.17c-0.48-4.94-1.12-9.87-2.05-14.75
					C1922.68,451.87,1921.96,452.07,1922.05,452.55L1922.05,452.55z"/>
			</g>
		</g>
	</g>
</g>
<g id="Arm_x5F_R_5_">
	<path class="st0" d="M1614.37,760.89c0,0-27.48,114.19-36.83,149.92c-4.74,18.11-59.91,186.06-62.66,188.8
		c-2.75,2.75,34.63,10.31,46.72,1.51c12.09-8.79,65.1-129.43,83.55-161.6c21.44-37.38,57.3-156.1,57.3-156.1"/>
	<path class="st5" d="M1605.65,806.89c0,0,28.93,47.44,68.77,55.41l2.47,0.82l7.15-21.16l-70.63-43.7L1605.65,806.89z"/>
	<polygon class="st19" points="1610.11,786.72 1623.31,794.14 1538.39,1043.13 	"/>
	<path class="st5" d="M1657.8,824.92c0,0-107.04,300.38-104.84,298.73c1.35-1.01,56.53-106.14,94.95-189.49
		c24.06-52.19,39.77-97.25,37.1-98.52C1675.52,831.1,1657.8,824.92,1657.8,824.92z"/>
	<g>
		<circle class="st5" cx="1535.91" cy="1062.64" r="2.2"/>
		<ellipse class="st5" cx="1538.52" cy="1072.12" rx="1.79" ry="2.06"/>
		<ellipse class="st5" cx="1540.03" cy="1056.05" rx="1.37" ry="1.65"/>
	</g>
</g>
<g id="Arm_x5F_L_x5F_oben_10_" class="st12">
	<path class="st20" d="M1197.85,1244.83c0,0,23.12,53.18,54.94,85.01c0.19,0.19,103.94-288.28,105.89-292.6
		c12.56-27.68,12.78-9.16,36.77,36c8.55,16.09-54.9,374.38-137.87,356.55c-44.46-9.55-157.82-133.43-157.82-133.43"/>
	<path class="st21" d="M1215.59,1292.6c0,0,20.55,64.48-42.77,87.78l-19.15-14.04l-27.95-27.27l74.55-73.53L1215.59,1292.6z"/>
	<polygon class="st22" points="1120.61,1331.92 1130.82,1347.24 1221.07,1287.71 1211.88,1273.92 	"/>
	<path class="st21" d="M1161.84,1365.32l30.64-15.06c0,0,23.78,27.73,71.74,43.15c50.04,16.09,106.47-165.96,106.47-165.96
		l-19.4,69.7c0,0-38.04,140.94-89.36,134.04c-19.2-2.58-84.77-39.57-111.32-68.17"/>
	<g class="st15">
		<ellipse class="st5" cx="1357.99" cy="1144.9" rx="4.02" ry="4.52"/>
		<circle class="st5" cx="1367.54" cy="1159.47" r="2.51"/>
		<ellipse class="st5" cx="1367.54" cy="1173.04" rx="2.51" ry="3.01"/>
		<circle class="st5" cx="1370.3" cy="1150.18" r="2.26"/>
	</g>
</g>
<g id="Arm_x5F_L_x5F_oben_9_" class="st12">
	<path class="st20" d="M632.78,1265.25c0,0-23.12,53.18-54.94,85.01c-0.19,0.19-103.94-288.28-105.89-292.6
		c-12.56-27.68-18.37-28.82-42.35,16.34c-8.55,16.09,60.49,394.04,143.46,376.21c44.46-9.55,157.82-133.43,157.82-133.43"/>
	<path class="st21" d="M615.04,1313.03c0,0-20.55,64.48,42.77,87.78l19.15-14.04l27.95-27.27l-74.55-73.53L615.04,1313.03z"/>
	<polygon class="st22" points="711.96,1353.83 696.9,1367.37 609.55,1308.13 618.75,1294.34 	"/>
	<path class="st21" d="M668.79,1385.75l-30.64-15.06c0,0-23.78,27.73-71.74,43.15c-50.04,16.09-106.47-165.96-106.47-165.96
		l19.4,69.7c0,0,38.04,140.94,89.36,134.04c19.2-2.58,84.77-39.57,111.32-68.17"/>
	<g class="st15">
		<ellipse class="st5" cx="472.63" cy="1165.33" rx="4.02" ry="4.52"/>
		<circle class="st5" cx="463.09" cy="1179.9" r="2.51"/>
		<ellipse class="st5" cx="463.09" cy="1193.46" rx="2.51" ry="3.01"/>
		<circle class="st5" cx="460.33" cy="1170.6" r="2.26"/>
	</g>
</g>
<g id="Hals_11_">
	<path id="Hals_12_" class="st0" d="M1789.75,502.43l-1.24,66.58c0,0-45.07,10.03-62.11,18.83
		c-27.7,14.29,186.6,111.85,228.65,63.21c25.18-29.12,2.85-54.31-26.8-65.96c-11.54-4.53-45.96-13.81-45.96-13.81l-3.3-89.66
		L1789.75,502.43z"/>
	<path class="st23" d="M1789.34,506.76v19.79c0,0,43.49,36.69,91.93,15.46l-0.41-44.32L1789.34,506.76z"/>
	<path class="st19" d="M1791.81,531.49l-1.37,40.95c0,0,10.44-0.55,8.79-15.66C1797.58,541.66,1791.81,531.49,1791.81,531.49z"/>
	<path class="st5" d="M1881.4,560.62c0,0-18.41,33.53-54.69,45.62c-3.69,1.23-37.93,0-37.93,0l23.36,2.75c0,0,20.89,7.15,21.71,7.15
		s12.92,0.27,12.92,0.27l36.28-48.64L1881.4,560.62"/>
</g>
<g id="KOPFPBEN_Kopie_3_Kopie_Kopie_Kopie_Kopie_Kopie_Kopie_2">
	<g id="Kopf_7_">
		<path id="Kopf_8_" class="st0" d="M1662.16,276.45c0,0,32.46,131.03,45.88,168.27c15.57,43.2,74.88,94.09,135.93,86.17
			c48.55-6.3,96.87-86.47,101.36-118.69c3.96-28.43-8.56-82.31-18.43-123.39c-6.27-26.12-44.49-55.14-79.12-79.65
			c-19.81-14.02-46.83-11.72-63.94,5.49L1662.16,276.45z"/>
		<path class="st23" d="M1813.09,211.57c0,0-63.43,108.69-112.68,127.73s-16.78,11.07-16.78,11.07l-4.27-44.77L1813.09,211.57z"/>
	</g>
	<g id="Augen_Kopie_3_Kopie_Kopie_Kopie_Kopie_Kopie_Kopie_2" class="st12">
		<g class="st15">
			<g>
				<path class="st24" d="M2716.47,780.82c0,0,15.27-30.47,34.36-29.5c19.09,0.97,26.9,11.29,35.3,28.69c0,0-7.46,16.31-28.56,17.03
					C2729.46,797.99,2716.47,780.82,2716.47,780.82z"/>
				
					<linearGradient id="SVGID_1_" gradientUnits="userSpaceOnUse" x1="2753.4434" y1="1120.0612" x2="2753.136" y2="1089.4626" gradientTransform="matrix(1 -1.998511e-03 1.998511e-03 1 8.7535 -316.6049)">
					<stop  offset="0" style="stop-color:#008CB2"/>
					<stop  offset="0.2227" style="stop-color:#0188AD"/>
					<stop  offset="0.5014" style="stop-color:#047B9D"/>
					<stop  offset="0.8087" style="stop-color:#086684"/>
					<stop  offset="1" style="stop-color:#0B5570"/>
				</linearGradient>
				<path class="st25" d="M2785.82,774.9c1.84,2.3,2.63-0.3,1.67,2.3c-3.31,9.04-13.64,18.59-23.66,18.61
					c-12.91,0.03-23.4-10.62-23.43-23.78c-0.01-5.43,1.63-9.77,4.47-12.99c4.04-4.59,6.48-6.91,14.06-6.93
					C2771.85,752.09,2778.02,765.18,2785.82,774.9z"/>
				
					<ellipse transform="matrix(1 -1.998511e-03 1.998511e-03 1 -1.5355 5.5241)" class="st26" cx="2763.34" cy="771.1" rx="9.55" ry="9.8"/>
				<g>
					<path d="M2714.6,778.2c3.3-6.99,7.6-13.44,12.71-19.05c5.95-6.54,13.44-12.12,21.95-12.93c7.11-0.68,14.19,2.07,20.28,6.04
						c6.09,3.98,16.14,18.12,18.59,18.98c0,0,4.94,0.29,6.95-1.44c-2.47,3.39-5.51,8.02-9.02,10.12
						c-5.35-7.16-4.54-7.68-12.68-15.97c-6-6.11-13.98-11.75-22.55-11.21c-9.3,0.58-17.38,7.13-23,15.06
						c-5.01,7.07-9.6,14.59-9.85,15.3"/>
				</g>
				<path class="st24" d="M2757.5,774.67l-15.58,9.04c-1.09,0.63-2.51,0.26-3.14-0.83l-0.72-1.24c-0.63-1.09-0.26-2.51,0.83-3.14
					l15.58-9.04c1.09-0.63,2.51-0.26,3.14,0.83l0.72,1.24C2758.97,772.62,2758.59,774.03,2757.5,774.67z"/>
			</g>
			<g>
				<path class="st24" d="M2623.58,779.84c0,0-16.76-30.08-35.85-29.04c-19.09,1.04-25.48,11.08-33.81,28.51
					c0,0,9.73,15.71,30.83,16.34C2612.87,796.48,2623.58,779.84,2623.58,779.84z"/>
				
					<linearGradient id="SVGID_00000028288601971780468590000015496409704733207971_" gradientUnits="userSpaceOnUse" x1="604.0917" y1="1118.0884" x2="603.7979" y2="1088.8588" gradientTransform="matrix(-1 1.998511e-03 1.998511e-03 1 3201.7942 -322.9863)">
					<stop  offset="0" style="stop-color:#008CB2"/>
					<stop  offset="0.2227" style="stop-color:#0188AD"/>
					<stop  offset="0.5014" style="stop-color:#047B9D"/>
					<stop  offset="0.8087" style="stop-color:#086684"/>
					<stop  offset="1" style="stop-color:#0B5570"/>
				</linearGradient>
				<path style="fill:url(#SVGID_00000028288601971780468590000015496409704733207971_);" d="M2577.45,771.35
					c0.03,13.16,8.89,22.92,21.8,22.89c8.37-0.02,18.24-6.48,22.38-11.71c2.66-3.37-0.03-3.82-1.41-8.24
					c-3.42-10.97-13.26-19.66-22.88-21.48c-7.05-1.34-9.61,0.72-14.1,4.83C2579.65,760.93,2577.44,765.51,2577.45,771.35z"/>
				
					<ellipse transform="matrix(1 -1.998511e-03 1.998511e-03 1 -1.5345 5.2002)" class="st26" cx="2601.27" cy="770.43" rx="9.55" ry="9.8"/>
				<g>
					<path d="M2625.45,777.32c-3.33-6.81-7.65-13.09-12.79-18.55c-5.98-6.36-13.49-11.78-22-12.54c-7.11-0.64-14.18,2.07-20.26,5.98
						s-16.07,17.75-18.52,18.61c0,0-4.94,0.3-6.95-1.38c2.48,3.3,5.54,7.81,9.06,9.84c5.32-7.02,4.51-7.51,12.61-15.65
						c5.97-5.99,13.93-11.53,22.5-11.04c9.3,0.53,17.4,6.89,23.06,14.61c4.48,6.13,8.64,12.6,9.67,14.44
						c0.13,0.23,0.21,0.38,0.24,0.46"/>
				</g>
				<path class="st24" d="M2596.1,775.75l-15.58,9.04c-1.09,0.63-2.51,0.26-3.14-0.83l-0.72-1.24c-0.63-1.09-0.26-2.51,0.83-3.14
					l15.58-9.04c1.09-0.63,2.51-0.26,3.14,0.83l0.72,1.24C2597.57,773.7,2597.19,775.11,2596.1,775.75z"/>
			</g>
		</g>
		<path class="st28" d="M2719.17,788.19c0.67,1.34,15.78,18.05,29.17,16.35c13.39-1.7,6.76,4.51-0.33,4.02
			C2724.56,806.93,2719.17,788.19,2719.17,788.19z"/>
		<path class="st28" d="M2627.59,787.53c-0.67,1.34-15.71,18.12-29.11,16.47c-13.4-1.65-6.74,4.54,0.34,4.02
			C2622.27,806.3,2627.59,787.53,2627.59,787.53z"/>
		
			<linearGradient id="SVGID_00000155857809857933452090000005957253069667504295_" gradientUnits="userSpaceOnUse" x1="1513.4441" y1="1062.7062" x2="1593.8188" y2="1062.7062" gradientTransform="matrix(-1 1.998511e-03 1.998511e-03 1 4123.9785 -324.8293)">
			<stop  offset="0" style="stop-color:#FFB699;stop-opacity:0"/>
			<stop  offset="0.0426" style="stop-color:#FDAF91;stop-opacity:0.0818"/>
			<stop  offset="0.1473" style="stop-color:#FBA383;stop-opacity:0.2831"/>
			<stop  offset="0.2788" style="stop-color:#F99C7B;stop-opacity:0.5359"/>
			<stop  offset="0.5203" style="stop-color:#F99A79"/>
			<stop  offset="0.7469" style="stop-color:#F99C7B;stop-opacity:0.5276"/>
			<stop  offset="0.866" style="stop-color:#FBA383;stop-opacity:0.2793"/>
			<stop  offset="0.9599" style="stop-color:#FDAF91;stop-opacity:0.0836"/>
			<stop  offset="1" style="stop-color:#FFB699;stop-opacity:0"/>
		</linearGradient>
		<path style="display:inline;fill:url(#SVGID_00000155857809857933452090000005957253069667504295_);" d="M2612.08,735.92
			c1.02,8.29,2.28,12.05-11.29,9.07c-13.57-2.99-20.86-6.74-29.39-1.45c-8.53,5.29-19.06,16.87-26.09,16.13
			c-7.03-0.74-17.6-8.76-10.83-14.8c6.77-6.04,20.29-18.66,35.88-21.42C2603.25,717.6,2612.08,735.92,2612.08,735.92z"/>
		
			<linearGradient id="SVGID_00000171680243612052829820000010214295622691940243_" gradientUnits="userSpaceOnUse" x1="2505.6631" y1="1058.8553" x2="2586.0378" y2="1058.8553" gradientTransform="matrix(1 -1.998511e-03 1.998511e-03 1 211.9867 -317.0111)">
			<stop  offset="0" style="stop-color:#FFB699;stop-opacity:0"/>
			<stop  offset="0.0426" style="stop-color:#FDAF91;stop-opacity:0.0818"/>
			<stop  offset="0.1473" style="stop-color:#FBA383;stop-opacity:0.2831"/>
			<stop  offset="0.2788" style="stop-color:#F99C7B;stop-opacity:0.5359"/>
			<stop  offset="0.5203" style="stop-color:#F99A79"/>
			<stop  offset="0.7469" style="stop-color:#F99C7B;stop-opacity:0.5276"/>
			<stop  offset="0.866" style="stop-color:#FBA383;stop-opacity:0.2793"/>
			<stop  offset="0.9599" style="stop-color:#FDAF91;stop-opacity:0.0836"/>
			<stop  offset="1" style="stop-color:#FFB699;stop-opacity:0"/>
		</linearGradient>
		<path style="display:inline;fill:url(#SVGID_00000171680243612052829820000010214295622691940243_);" d="M2720.33,731.85
			c-0.99,8.29-2.24,12.06,11.32,9.02c13.56-3.04,20.84-6.82,29.39-1.57c8.55,5.26,19.12,16.79,26.16,16.02s17.57-8.83,10.77-14.84
			c-6.79-6.02-20.37-18.57-35.96-21.28C2729.08,713.5,2720.33,731.85,2720.33,731.85z"/>
	</g>
	<g id="Mund_4_">
		<g>
			<path class="st31" d="M1797.03,448.38l-1.63,3.5c0,0,17.72,7.89,22.99,8.25c5.27,0.36,24.86,2.18,31.29-7.16
				s18.41-15.59,18.41-15.59s-28.08,3.16-28.87,3.47C1838.43,441.17,1797.03,448.38,1797.03,448.38z"/>
			<path class="st32" d="M1788.38,451.11c0,0,5.88-6.35,29.07-12.37c5.98-1.55,11.2,0.31,12.08-0.17c2.4-1.3,13.26-3.91,14.63-3.87
				c24.15,0.64,23.93,2.7,23.93,2.7s-22.81,9.92-37.2,11.96C1811.65,452.08,1788.38,451.11,1788.38,451.11z"/>
			<path class="st32" d="M1789.3,450.79c2.95-0.46,1.31-1.74,9.72-1.22c9.52,0.58,12.68,1.6,23.98,1.84
				c13.38,0.27,22.08-5.31,26.78-6.84c6.06-1.97,17.14-11.46,14.41-7.41c-0.95,1.42,6.74-2.38,2.63,2.31
				c-4.1,4.68-7.47,8.25-12.24,13.84c-4.57,5.36-12.09,11.31-28.42,12.11c-11.68,0.57-21.56-5.08-32.81-12.02
				C1787.47,449.76,1789.3,450.79,1789.3,450.79z"/>
		</g>
		<path class="st33" d="M1807.02,446.69c0,0,4.47-0.93,8.53-1.33c5.02-0.49,8.63,0.33,4.56,1.2
			C1816.04,447.42,1807.02,446.69,1807.02,446.69z"/>
		<path class="st33" d="M1813.55,454.51c0,0,2.07-0.44,4.83-0.82c4.86-0.67,5.04-0.45,4.95-0.35
			C1820.83,456.2,1813.5,454.54,1813.55,454.51z"/>
		<path class="st34" d="M1789.77,451.19c0,0,24.46-0.76,30.35-0.49c5.89,0.28,16.43-1.92,16.43-1.92l14.52-4.79l16.42-6.2"/>
	</g>
	<g id="Brauen_Kopie_3_Kopie_Kopie_Kopie_Kopie_Kopie_Kopie_2">
		<path class="st35" d="M1842.84,322.87c0.69-0.69,10.36-17.94,22.32-23.27c12.85-5.73,16.57-4.69,28.71-3.92
			c12.89,0.82,26.42,8.99,26.42,8.99s3.24,2.1-11.72-0.35c-6.32-1.04-30.59-3.27-44.15,5.81c-5.92,3.96-16.09,12.68-17.54,14.23
			C1844.6,326.8,1842.84,322.87,1842.84,322.87z"/>
		<path class="st35" d="M1784.3,332.05c-0.83-0.5-14.39-14.89-27.29-17.17c-13.85-2.45-17.21-0.53-28.81,3.16
			c-12.3,3.91-23.46,15.13-23.46,15.13s-2.63,2.83,11.29-3.18c5.88-2.54,28.89-10.58,44.24-5.06c6.7,2.41,18.68,8.41,20.46,9.56
			C1783.55,336.29,1784.3,332.05,1784.3,332.05z"/>
	</g>
	<g id="sprossen_8_">
		
			<ellipse transform="matrix(0.9905 -0.1375 0.1375 0.9905 -65.2891 255.6454)" class="st36" cx="1817.96" cy="600.45" rx="2.27" ry="1.86"/>
		
			<ellipse transform="matrix(0.9905 -0.1375 0.1375 0.9905 -66.0501 252.9413)" class="st36" cx="1798" cy="604.6" rx="2.27" ry="1.86"/>
		
			<ellipse transform="matrix(0.9905 -0.1375 0.1375 0.9905 -64.2673 252.9541)" class="st36" cx="1798.99" cy="591.7" rx="2.27" ry="1.86"/>
		
			<ellipse transform="matrix(0.9905 -0.1375 0.1375 0.9905 -65.2319 251.4925)" class="st36" cx="1787.92" cy="597.96" rx="2.27" ry="1.86"/>
		
			<ellipse transform="matrix(0.9905 -0.1375 0.1375 0.9905 -36.2674 248.8091)" class="st37" cx="1782.98" cy="386.94" rx="2.27" ry="1.75"/>
		
			<ellipse transform="matrix(0.9905 -0.1375 0.1375 0.9905 -38.4033 247.99)" class="st37" cx="1775.98" cy="401.99" rx="2.27" ry="1.75"/>
		
			<ellipse transform="matrix(0.9905 -0.1375 0.1375 0.9905 -37.2688 246.4119)" class="st37" cx="1765.13" cy="392.99" rx="2.58" ry="2.37"/>
	</g>
	<g id="sprossen_7_">
		
			<ellipse transform="matrix(0.9905 -0.1375 0.1375 0.9905 -63.7646 263.462)" class="st36" cx="1875.3" cy="593.32" rx="2.27" ry="1.86"/>
		
			<ellipse transform="matrix(0.9905 -0.1375 0.1375 0.9905 -63.3742 266.2438)" class="st36" cx="1895.64" cy="591.88" rx="2.27" ry="1.86"/>
		
			<ellipse transform="matrix(0.9905 -0.1375 0.1375 0.9905 -61.7469 265.5153)" class="st36" cx="1891.18" cy="579.74" rx="2.27" ry="1.86"/>
		
			<ellipse transform="matrix(0.9905 -0.1375 0.1375 0.9905 -34.4434 258.0528)" class="st37" cx="1850.81" cy="378.36" rx="2.27" ry="1.75"/>
		
			<ellipse transform="matrix(0.9905 -0.1375 0.1375 0.9905 -36.0697 259.6616)" class="st37" cx="1861.64" cy="390.94" rx="2.27" ry="1.75"/>
		
			<ellipse transform="matrix(0.9905 -0.1375 0.1375 0.9905 -34.3964 260.6503)" class="st37" cx="1869.63" cy="379.32" rx="2.58" ry="2.37"/>
	</g>
	<g id="Rouge_4_">
		<path class="st38" d="M1779.4,413.14c1.66,11.96-14.78,24.28-30.84,26.51c-16.06,2.23-34.24-16.11-35.9-28.06
			c-1.66-11.96,7.41-13.14,23.47-15.37C1752.2,393.99,1777.74,401.18,1779.4,413.14z"/>
		<path class="st38" d="M1872.78,401.56c1.66,11.96,20.83,19.34,36.89,17.11c16.06-2.23,28.56-24.82,26.9-36.78
			c-1.66-11.96-10.71-10.63-26.77-8.4C1893.75,375.73,1871.12,389.6,1872.78,401.56z"/>
	</g>
	<g id="Ohren_4_">
		<g>
			<g>
				<path class="st0" d="M1936.08,374.02c2.75,19.84-4.68,40.34,8.96,39.54c20.64-1.2,41.29-29.34,38.54-49.19
					c-2.75-19.84-13.51-28.78-27.04-26.91S1933.32,354.17,1936.08,374.02z"/>
			</g>
		</g>
		<g>
			<g>
				<path class="st0" d="M1706.47,400.89c2.75,19.84,14.23,42.14,0.7,44.02c-27.77,3.85-46.27-20.52-49.02-40.36
					c-2.75-19.84,5.28-28.48,18.82-30.36C1690.49,372.31,1703.71,381.05,1706.47,400.89z"/>
			</g>
			<path class="st23" d="M1697.35,391.15c0,0-14.3-19.1-25.39-7.02c-11.09,12.08-3.59,22.14-3.59,22.14s10.7-19.13,9.74-5.79
				c-1.23,17.1,22.3,30.75,22.3,30.75s-17.65-27.24-8.55-29.61C1700.97,399.25,1697.35,391.15,1697.35,391.15z"/>
			<path class="st23" d="M1942.48,362.54c0,0,8.56-22.28,22.52-13.67c13.96,8.61,9.48,20.33,9.48,20.33s-15.51-15.49-10.95-2.92
				c5.84,16.11-13.08,35.67-13.08,35.67s9.57-31.02,0.16-30.82C1941.2,371.32,1942.48,362.54,1942.48,362.54z"/>
		</g>
	</g>
	<path id="nase_4_" class="st23" d="M1802.66,410.13c-0.59-0.47-0.27-1.41,0.48-1.42c4.27-0.02,14.23-0.17,20.24-1.01
		c8.23-1.14,17.04-3.14,20.85-4.04c0.72-0.17,1.26,0.65,0.81,1.25c-2.2,2.92-7.95,8.7-19.81,10.5
		C1813.34,417.22,1805.74,412.59,1802.66,410.13z"/>
	<path class="st5" d="M1942.43,364.81c0,0-9.43,50.17-9.63,50.58c-4.15,8.89-43.82,107.14-83.43,114.03c0,0,36-2.99,71.17-61.49
		c16.84-28.02,24.55-53.97,24.55-53.97"/>
	<path class="st39" d="M1698.29,404.94c0,0,2.64,25.02,10.33,41.43c7.69,16.41,16.09,28.98,22.94,36.35s-11.49-13.8-16.72-33.47
		C1709.62,429.59,1698.29,404.94,1698.29,404.94z"/>
	<g id="Augen_Kopie_3_Kopie_Kopie_Kopie_2_Kopie_2">
		<g>
			<g>
				<path class="st24" d="M1855.74,350.13c0,0,10.04-17.56,25.65-19.05c15.61-1.49,22.58,3.48,30.69,8.99
					c0,0-5.23,14.17-22.31,17.02C1867,360.89,1855.74,350.13,1855.74,350.13z"/>
				
					<linearGradient id="SVGID_00000015347972833109804030000017336163561739936148_" gradientUnits="userSpaceOnUse" x1="1933.8267" y1="838.1803" x2="1933.6262" y2="818.2286" gradientTransform="matrix(0.9903 -0.1386 0.1386 0.9903 -140.8719 -203.3998)">
					<stop  offset="0" style="stop-color:#008CB2"/>
					<stop  offset="0.2227" style="stop-color:#0188AD"/>
					<stop  offset="0.5014" style="stop-color:#047B9D"/>
					<stop  offset="0.8087" style="stop-color:#086684"/>
					<stop  offset="1" style="stop-color:#0B5570"/>
				</linearGradient>
				<path style="fill:url(#SVGID_00000015347972833109804030000017336163561739936148_);" d="M1906.27,337.02
					c4.2,6.34-5.83,18.77-16.32,20.24c-10.49,1.47-20.21-5.8-21.71-16.5c-1-7.12,5.36-10,15.86-11.47
					C1894.59,327.83,1905,335.09,1906.27,337.02z"/>
				
					<ellipse transform="matrix(0.9903 -0.1386 0.1386 0.9903 -28.4765 265.3422)" class="st26" cx="1890.54" cy="337.09" rx="7.83" ry="8.04"/>
				<g>
					<path d="M1854.32,351c2.16-4.06,3.81-7.2,7.64-11.34c4.07-4.39,12.32-12.79,19.17-14.15c5.73-1.14,11.45-1.11,16.39,1.17
						c10.51,4.84,14.01,12.38,16.07,12.57c0,0,4.04-0.39,5.54-1.53c-1.75,2.07-3.88,4.85-6.58,6.35c-4.89-3.21-4.88-5.59-12.12-9.09
						c-5.34-2.58-11.78-5.66-18.71-4.44c-7.52,1.33-13.44,8.67-17.42,13.49c-3.54,4.29-6.71,8.78-6.86,9.19"/>
				</g>
				<path class="st24" d="M1884.6,342.06l-11.14,8.69c-0.96,0.75-2.36,0.58-3.1-0.38l-0.32-0.41c-0.75-0.96-0.58-2.36,0.38-3.1
					l11.14-8.69c0.96-0.75,2.36-0.58,3.1,0.38l0.32,0.41C1885.74,339.91,1885.56,341.31,1884.6,342.06z"/>
			</g>
			<g>
				<path class="st24" d="M1719.49,369.88c0,0,10.04-17.56,25.65-19.05c15.61-1.49,22.58,3.48,30.69,8.99
					c0,0-5.23,14.17-22.31,17.02C1730.74,380.64,1719.49,369.88,1719.49,369.88z"/>
				
					<linearGradient id="SVGID_00000132789455293849075020000008562872501590823100_" gradientUnits="userSpaceOnUse" x1="1796.1522" y1="838.9665" x2="1795.9344" y2="817.306" gradientTransform="matrix(0.9903 -0.1386 0.1386 0.9903 -140.8719 -203.3998)">
					<stop  offset="0" style="stop-color:#008CB2"/>
					<stop  offset="0.2227" style="stop-color:#0188AD"/>
					<stop  offset="0.5014" style="stop-color:#047B9D"/>
					<stop  offset="0.8087" style="stop-color:#086684"/>
					<stop  offset="1" style="stop-color:#0B5570"/>
				</linearGradient>
				<path style="fill:url(#SVGID_00000132789455293849075020000008562872501590823100_);" d="M1770.02,356.76
					c4.2,6.34-5.83,18.77-16.32,20.24s-20.21-5.8-21.71-16.5c-1-7.12,4.68-12.37,15.17-13.84
					C1757.65,345.2,1768.74,354.84,1770.02,356.76z"/>
				
					<ellipse transform="matrix(0.9903 -0.1386 0.1386 0.9903 -32.5295 246.6438)" class="st26" cx="1754.29" cy="356.84" rx="7.83" ry="8.04"/>
				<g>
					<path d="M1777.92,357.31c-3.53-2.95-7.3-5.35-11.68-7.98c-5.13-3.08-14.74-6.54-21.6-5.22c-5.74,1.11-10.28,3.96-14.45,7.47
						c-8.88,7.47-9.75,16.28-11.59,17.23c0,0-3.89,1.16-5.71,0.68c2.4,1.25,5.42,3.03,8.49,3.39c3.32-4.82,3.8-8.15,7.01-12.62
						c3.46-4.81,9.55-10.07,16.43-11.55c7.47-1.61,15.72,2.95,21.22,5.91c4.9,2.64,9.53,5.59,9.82,5.91"/>
				</g>
				<path class="st24" d="M1748.35,361.81l-11.14,8.69c-0.96,0.75-2.36,0.58-3.1-0.38l-0.32-0.41c-0.75-0.96-0.58-2.36,0.38-3.1
					l11.14-8.69c0.96-0.75,2.36-0.58,3.1,0.38l0.32,0.41C1749.48,359.66,1749.31,361.06,1748.35,361.81z"/>
			</g>
			<g class="st12">
				<path class="st42" d="M1779.9,357.94c0,0-14.73-14.03-30.15-11.18s-21.36,5.98-26.53,18.66c0,0,8.91,12.09,26.12,10.14
					C1772.27,372.96,1779.9,357.94,1779.9,357.94z"/>
				
					<linearGradient id="SVGID_00000176749585676796189160000017465668341577234820_" gradientUnits="userSpaceOnUse" x1="1399.1313" y1="844.0256" x2="1398.8792" y2="818.938" gradientTransform="matrix(-0.9903 0.1386 0.1386 0.9903 3021.3066 -646.0499)">
					<stop  offset="0" style="stop-color:#008CB2"/>
					<stop  offset="0.2227" style="stop-color:#0188AD"/>
					<stop  offset="0.5014" style="stop-color:#047B9D"/>
					<stop  offset="0.8087" style="stop-color:#086684"/>
					<stop  offset="1" style="stop-color:#0B5570"/>
				</linearGradient>
				<path style="display:inline;fill:url(#SVGID_00000176749585676796189160000017465668341577234820_);" d="M1730.94,365.31
					c1.5,10.69,11.22,18.17,21.71,16.7s17.79-11.33,16.29-22.02c-1.5-10.69-10.14-15.05-20.63-13.59S1729.45,354.62,1730.94,365.31z
					"/>
				
					<ellipse transform="matrix(0.9903 -0.1386 0.1386 0.9903 -33.2698 246.1264)" class="st44" cx="1750.2" cy="361.89" rx="7.83" ry="8.04"/>
				<g class="st15">
					<path d="M1781.74,360.12c-3.23-3.33-7.23-6.26-11.82-8.66c-5.35-2.79-11.88-4.91-18.85-4.39c-5.83,0.43-11.37,2.68-16.01,5.46
						c-4.64,2.79-11.7,11.39-13.62,12.12c0,0-3.99,0.7-5.76,0.01c2.27,1.52,5.11,3.63,8.13,4.35c3.79-4.39,3.09-4.57,9.05-9.87
						c4.4-3.91,10.44-7.78,17.45-8.46c7.61-0.73,14.68,1.83,19.87,5.4c4.63,3.18,8.95,6.65,9.2,7"/>
				</g>
				<path class="st42" d="M1746.34,367l-11.14,8.69c-0.96,0.75-2.36,0.58-3.1-0.38l-0.32-0.41c-0.75-0.96-0.58-2.36,0.38-3.1
					l11.14-8.69c0.96-0.75,2.36-0.58,3.1,0.38l0.32,0.41C1747.47,364.85,1747.3,366.25,1746.34,367z"/>
			</g>
		</g>
			<linearGradient id="SVGID_00000154420198738317753830000017172942083774301830_" gradientUnits="userSpaceOnUse" x1="2299.6155" y1="798.4591" x2="2365.5664" y2="798.4591" gradientTransform="matrix(-0.9903 0.1386 0.1386 0.9903 3934.5879 -773.8934)">
			<stop  offset="0" style="stop-color:#FFB699;stop-opacity:0"/>
			<stop  offset="0.0426" style="stop-color:#FDAF91;stop-opacity:0.0818"/>
			<stop  offset="0.1473" style="stop-color:#FBA383;stop-opacity:0.2831"/>
			<stop  offset="0.2788" style="stop-color:#F99C7B;stop-opacity:0.5359"/>
			<stop  offset="0.5203" style="stop-color:#F99A79"/>
			<stop  offset="0.7469" style="stop-color:#F99C7B;stop-opacity:0.5276"/>
			<stop  offset="0.866" style="stop-color:#FBA383;stop-opacity:0.2793"/>
			<stop  offset="0.9599" style="stop-color:#FDAF91;stop-opacity:0.0836"/>
			<stop  offset="1" style="stop-color:#FFB699;stop-opacity:0"/>
		</linearGradient>
		<path style="fill:url(#SVGID_00000154420198738317753830000017172942083774301830_);" d="M1766.83,331.68
			c1.76,6.62,3.21,9.54-8.16,8.63c-11.37-0.91-17.71-3.14-24.05,2.12c-6.34,5.26-13.6,15.85-19.4,16.04
			c-5.8,0.19-15.29-5.14-10.46-10.81c4.83-5.67,14.4-17.44,26.76-21.44C1757.6,317.78,1766.83,331.68,1766.83,331.68z"/>
		
			<linearGradient id="SVGID_00000134965199885255771710000003386209375843773106_" gradientUnits="userSpaceOnUse" x1="1703.5741" y1="797.3596" x2="1769.5251" y2="797.3596" gradientTransform="matrix(0.9903 -0.1386 0.1386 0.9903 60.3993 -231.5743)">
			<stop  offset="0" style="stop-color:#FFB699;stop-opacity:0"/>
			<stop  offset="0.0426" style="stop-color:#FDAF91;stop-opacity:0.0818"/>
			<stop  offset="0.1473" style="stop-color:#FBA383;stop-opacity:0.2831"/>
			<stop  offset="0.2788" style="stop-color:#F99C7B;stop-opacity:0.5359"/>
			<stop  offset="0.5203" style="stop-color:#F99A79"/>
			<stop  offset="0.7469" style="stop-color:#F99C7B;stop-opacity:0.5276"/>
			<stop  offset="0.866" style="stop-color:#FBA383;stop-opacity:0.2793"/>
			<stop  offset="0.9599" style="stop-color:#FDAF91;stop-opacity:0.0836"/>
			<stop  offset="1" style="stop-color:#FFB699;stop-opacity:0"/>
		</linearGradient>
		<path style="fill:url(#SVGID_00000134965199885255771710000003386209375843773106_);" d="M1857.97,317.81
			c0.13,6.85-0.47,10.06,10.21,6.06s16.17-7.88,23.71-4.57c7.54,3.32,17.43,11.5,23.06,10.09c5.63-1.41,13.29-9.14,7.09-13.27
			c-6.2-4.13-18.64-12.81-31.62-13.26C1863.03,301.91,1857.97,317.81,1857.97,317.81z"/>
	</g>
	<g class="st12">
		<g id="Haareoben_8_" class="st15">
			<g>
				<path class="st17" d="M1091.89,568.37c20.76,7.86,43.29,10.71,63.41,20.06c32.02,14.88,86.57,23.91,104.29,54.44
					c19.2,33.08,32.66,53.97,11.81,115.7c-4.97-20.79-18.95-31.98-36.34-44.41c-17.39-12.43-49.91-19.91-66.51-33.37
					c-16.65-13.5-39.27-36.8-48.37-56.18c-7.04-14.98-14.74-25.09-25.57-38.04c-21.85-26.14-74.03-0.25-101.5,4.67
					c-31.57,5.66-32.42-3.36-59.62,13.63c-27.2,17-57.3,104.17-55.49,136.19c0,0,0.07,1.17,0.16,3.2
					c0.61,13.75,15.59,61.56-13.37,101.42c-10.12,13.93,34.13-19.62,33.56-43.21"/>
			</g>
			<g>
				<path class="st17" d="M930.8,821.89c-0.58-26.5,6.29,14.75,24.98-4.04c24.15-24.27-17.15-70.9,11.37-89.83
					c43.85-29.11,151.58-111.99,151.97-164.62c-6.99,5.44-14.34,10.3-21.97,14.7c-26.49,15.29-56.25,25.1-85.38,35.04
					c-16.65,5.68-33.43,11.58-48.23,21.1c-24.34,15.66-51.17,26.4-57.63,54.61c-6.46,28.21,7.53,73.57,22.63,98.26
					c3.58-8.44,0.06,45.09,3.64,36.64"/>
			</g>
			<g>
				<g>
					<path class="st17" d="M901.28,862.33c-8.26-16.51-15.24-33.68-20.25-51.46c-4.28-15.17-7.12-30.76-8.06-46.51
						c-0.82-13.76-0.21-27.62,2.02-41.23c2.02-12.33,5.33-24.45,9.85-36.1c4.21-10.86,9.47-21.3,15.58-31.21
						c5.71-9.26,12.16-18.05,19.2-26.33c6.38-7.5,13.24-14.58,20.49-21.24c6.3-5.79,12.9-11.26,19.75-16.37
						c5.46-4.07,11.08-7.92,16.87-11.49c3.87-2.38,7.81-4.67,11.89-6.68c0.63-0.31,1.27-0.62,1.92-0.91c0.88-0.4,0.12-1.69-0.76-1.3
						c-3.61,1.63-7.09,3.59-10.5,5.6c-5.5,3.24-10.84,6.76-16.04,10.47c-6.75,4.82-13.26,9.97-19.51,15.43
						c-7.28,6.36-14.2,13.13-20.67,20.31c-7.18,7.95-13.82,16.4-19.78,25.31c-6.44,9.62-12.07,19.78-16.72,30.38
						c-4.96,11.3-8.8,23.09-11.38,35.16c-2.83,13.24-4.15,26.79-4.03,40.32c0.14,15.19,2.09,30.35,5.48,45.16
						c3.97,17.33,9.91,34.16,17.17,50.37c1.97,4.4,4.05,8.75,6.2,13.07C900.42,863.95,901.72,863.19,901.28,862.33L901.28,862.33z"
						/>
				</g>
			</g>
			<g>
				<path class="st16" d="M1135.63,584.94c8.26,23.51,33.08,45.35,53.57,59.52c26.28,18.16,43.02,16.38,48.91,16.2
					c-12.71-61.17-85.88-52.83-103.33-76.95"/>
			</g>
			<path class="st16" d="M882.72,770.17l6.63,47.77l62.82,199.23c0,0-50.04-0.73-50.18-2.44
				C898.46,972.29,882.72,770.17,882.72,770.17z"/>
			<path class="st35" d="M882.72,733.65c8.56,61.7,52.16,73.74,52.16,73.74l23.37,22.79c0,0,11.11-27.75,7.38-42.45
				s-8.5-24.69-9.16-36.77s6.97-20.41,6.97-20.41s-97.54,15.91-42.49-69.84S874.16,671.95,882.72,733.65z"/>
			<path class="st35" d="M1237.81,590.2c0,0-23.93,56.58,24.94,106.6c48.87,50.02,50.94,107.56,50.94,107.56
				s-13.02-113.16-43.91-177.51C1254.55,595.14,1237.81,590.2,1237.81,590.2z"/>
			<path class="st47" d="M962.92,591.15c0,0-32.78,15.53-43.5,38.98c-10.72,23.45-16.13,45.12-3.59,24.46
				c14.22-23.44,37.78-40.68,37.78-40.68s53.69-46.9,31.89-31.46C977.18,588.33,962.92,591.15,962.92,591.15z"/>
			<g>
				<g>
					<g>
						<path class="st17" d="M934.13,603.9c-3.01,1.64-5.44,4.45-7.62,7.02c-3.3,3.89-6.28,8.06-9.12,12.29
							c-6.11,9.08-11.73,18.58-16.53,28.41c-1.6,3.27-3.24,6.64-4.23,10.15c-2.38,8.37-4.04,17.01-5.46,25.58
							c-2.97,17.97-4.24,36.21-3.72,54.42c0.44,15.49,2.27,31.68,10.03,45.4c0.95,1.68,1.99,3.3,3.1,4.87
							c0.47,0.66,1.3,0.98,2.05,0.54c2.35-1.38,3.1-4.24,1.95-6.65c-0.83-1.74-3.42-0.22-2.59,1.51c0.45,0.94-0.02,2.04-0.87,2.55
							c0.68,0.18,1.37,0.36,2.05,0.54c-9.03-12.69-11.73-28.45-12.52-43.7c-0.91-17.49-0.01-35.15,2.46-52.49
							c1.26-8.83,2.93-17.6,5.02-26.27c1.03-4.27,2.19-8.22,4.02-12.21c4.35-9.46,9.65-18.53,15.28-27.27
							c2.82-4.38,5.76-8.71,8.97-12.82c2.33-2.97,4.8-6.07,7.82-8.38c-0.14,0.11,0.18-0.13,0.24-0.17c0.14-0.1,0.27-0.19,0.41-0.28
							c0.25-0.17,0.51-0.32,0.78-0.47C937.34,605.56,935.83,602.97,934.13,603.9L934.13,603.9z"/>
					</g>
				</g>
				<path class="st48" d="M1106.91,565.59c0,0,1.83,93.58,49.49,115.37s92.59,31.27,92.59,31.27l-119.44-122.4L1106.91,565.59z"/>
				<g>
					<g>
						<path class="st17" d="M936.69,605.13c23.53-16.88,49.63-30.59,77.86-37.58c20.49-5.07,41.94-6.48,62.84-3.23
							c14.64,2.27,29.07,6.72,42.19,13.65c4.45,2.35,8.51,5.35,12.97,7.65c5.94,3.05,12.28,5.35,18.57,7.54
							c17.75,6.17,35.88,11.21,53.84,16.69c18.39,5.61,36.94,11.3,54.53,19.15c6.63,2.96,13.27,6.23,19.12,10.57
							c2.17,1.61,4.24,3.41,5.95,5.51c2.77,3.42,4.38,7.85,6.22,11.8c6.28,13.52,11.68,27.48,15.91,41.78
							c4.13,13.97,7.23,28.39,7.91,42.97c0.74,15.81,0.23,31.71-0.27,47.52c-0.25,7.89-0.53,15.78-0.73,23.68
							c-0.2,7.9-0.59,15.88-0.18,23.78c1.44,28.13,14.02,55.36,29.58,78.39c3.68,5.45,7.63,10.73,11.8,15.82
							c0.61,0.75,1.67-0.32,1.06-1.06c-18.27-22.26-33.16-48.98-38.91-77.4c-3.08-15.2-2.13-30.72-1.67-46.12
							c0.47-15.77,1.12-31.53,1.11-47.31c-0.01-7.76,0-15.56-0.71-23.29c-0.65-7.02-1.8-13.98-3.3-20.87
							c-3.19-14.69-7.91-29.05-13.53-42.98c-2.63-6.53-5.47-12.99-8.52-19.34c-1.55-3.22-2.95-6.45-5.33-9.14
							c-4.11-4.65-9.69-8-15.1-10.9c-15.99-8.57-33.58-14.24-50.8-19.72c-18.85-6-37.9-11.34-56.74-17.36
							c-7.44-2.38-14.89-4.85-22.12-7.83c-5.02-2.07-9.49-4.66-14.09-7.49c-11.54-7.1-24.51-11.98-37.68-15.05
							c-18.94-4.41-38.65-4.93-57.87-2.09c-26.49,3.91-51.72,14.13-74.63,27.8c-6.87,4.1-13.55,8.53-20.05,13.19
							C935.15,604.4,935.9,605.7,936.69,605.13L936.69,605.13z"/>
					</g>
				</g>
			</g>
			<path class="st48" d="M887.59,807.71c0,0,20.02,139.99,20.6,167.9c0.36,17.2-15.54,36.65-15.54,36.65"/>
			<path class="st48" d="M897.33,1014.72"/>
			<line class="st48" x1="890.55" y1="814.4" x2="939.82" y2="1015.85"/>
			<g>
				<path class="st16" d="M926.31,704.47c-2.54-4.8-2.68-10.51-2.13-15.92c2.31-23.08,15.95-43.92,33.49-59.09
					c7.59-6.56,15.91-12.21,24.21-17.85c21.3-14.46,42.63-28.93,64.69-42.2c2.44-1.47,4.97-2.95,7.79-3.36
					c2.82-0.41,6.03,0.5,7.52,2.92c2.42,3.92-0.71,8.88-3.94,12.17c-8.97,9.14-19.77,16.22-30.37,23.4
					c-28.09,19.02-55.84,39.66-75.98,66.95c-4.96,6.72-9.45,13.84-15.17,19.94c-3.59,3.84-7.65,7.24-12.05,10.12"/>
			</g>
			<g>
				<g>
					<path class="st16" d="M951.19,804.15c-8.13-13.42-15.09-27.78-18.83-43.09c-2.66-10.88-3.58-22.28-1.64-33.36
						c1.53-8.7,4.82-17.01,9.62-24.43c4.1-6.34,9.22-11.96,14.9-16.91c4.47-3.89,9.3-7.34,14.27-10.56
						c11.68-7.57,23.96-14.03,36.16-20.72c7.34-4.03,14.82-8.09,21.67-12.93c2.91-2.06,5.44-4.65,7.83-7.28
						c7.04-7.75,13.09-16.42,18.85-25.13c6.61-10,12.79-20.29,18.55-30.79c4.58-8.36,9.07-16.88,12.56-25.76
						c0.57-1.45,1.1-2.92,1.56-4.41c0.14-0.46-0.58-0.66-0.72-0.2c-2.51,8.16-6.59,15.92-10.53,23.45
						c-5.49,10.49-11.46,20.74-17.79,30.74c-6.02,9.5-12.34,18.89-19.52,27.55c-2.64,3.19-5.41,6.33-8.53,9.08
						c-1.6,1.41-3.32,2.59-5.11,3.75c-3.71,2.41-7.5,4.69-11.33,6.89c-14.01,8.05-28.51,15.2-42.14,23.91
						c-4.66,2.99-9.25,6.09-13.55,9.58c-5.65,4.58-10.82,9.76-15.15,15.6c-5.08,6.85-8.91,14.6-11.09,22.86
						c-2.66,10.04-2.84,20.58-1.26,30.81c2.18,14.14,7.52,27.67,14.13,40.29c2.03,3.88,4.2,7.68,6.47,11.43
						C950.79,804.94,951.44,804.56,951.19,804.15L951.19,804.15z"/>
				</g>
			</g>
			<g>
				<g>
					<path class="st16" d="M1109.75,548.51c3.42,17.29,8.71,34.23,15.47,50.5c6.93,16.68,15.48,32.89,26.54,47.23
						c5.09,6.6,10.74,12.81,17.13,18.19c7.86,6.62,16.61,12.12,25.56,17.13c9.24,5.16,18.75,9.81,28.13,14.71
						c4.18,2.18,8.39,4.34,12.33,6.93c3.69,2.44,7.19,5.16,10.54,8.05c7.23,6.24,13.81,13.24,19.84,20.64
						c5.79,7.1,11.12,14.64,15.6,22.64c0.97,1.74,1.9,3.5,2.77,5.29c0.21,0.43,0.86,0.05,0.65-0.38
						c-3.81-7.8-8.59-15.12-13.79-22.07c-5.71-7.62-11.99-14.84-18.85-21.45c-6.18-5.95-12.88-11.55-20.35-15.81
						c-9.06-5.18-18.54-9.65-27.78-14.49c-9.39-4.93-18.67-10.15-27.27-16.38c-7.19-5.21-13.67-11.19-19.44-17.93
						c-11.77-13.74-20.81-29.74-28.17-46.2c-7.3-16.32-13.02-33.42-16.94-50.87c-0.44-1.97-0.86-3.94-1.25-5.92
						C1110.37,547.84,1109.65,548.04,1109.75,548.51L1109.75,548.51z"/>
				</g>
			</g>
			<g>
				<g>
					<path class="st16" d="M1243.18,675.57c5.65,16.51,16.12,30.7,26.99,44.14c11.29,13.95,23.64,27.47,32.3,43.29
						c4.78,8.73,7.72,18.23,10.12,27.84c2.52,10.11,4.24,20.41,5.24,30.79c1,10.39,1.06,20.79,1.38,31.21
						c0.32,10.1,0.91,20.2,2,30.26c2.14,19.89,6.21,39.7,13.86,58.24c0.88,2.14,1.82,4.27,2.79,6.37c0.2,0.44,0.85,0.06,0.65-0.38
						c-8.56-18.49-13.33-38.46-15.89-58.61c-1.27-10.03-2.02-20.12-2.45-30.22c-0.44-10.28-0.36-20.58-1.09-30.85
						c-0.72-10.11-2.07-20.19-4.18-30.11c-2.05-9.64-4.57-19.36-8.56-28.4c-7.19-16.3-19.32-30.12-30.54-43.74
						c-11.19-13.58-22.55-27.5-29.52-43.82c-0.87-2.04-1.66-4.12-2.38-6.22C1243.74,674.92,1243.02,675.12,1243.18,675.57
						L1243.18,675.57z"/>
				</g>
			</g>
			<g>
				<g>
					<path class="st16" d="M880.12,690.59c-1.23,6.37-2.12,12.81-2.98,19.23c-1.13,8.38-2.15,16.8-2.7,25.24
						c-0.21,3.29-0.39,6.61-0.23,9.91c0.18,3.87,1.3,7.65,2.04,11.43c2.43,12.36,4.36,24.8,6.25,37.25
						c3.8,25.02,7.35,50.2,14.13,74.63c6.62,23.83,17.65,45.92,27.64,68.45c9.97,22.45,18.81,45.84,19.97,70.64
						c0.15,3.11,0.17,6.22,0.09,9.32c-0.01,0.48,0.74,0.48,0.75,0c0.63-24.42-6.4-47.82-15.75-70.13
						c-9.56-22.81-21.33-44.8-28.96-68.39c-7.77-24-11.73-49.05-15.52-73.93c-1.89-12.39-3.7-24.78-5.86-37.12
						c-1.06-6.07-2.21-12.13-3.51-18.16c-0.59-2.72-0.62-5.47-0.56-8.24c0.18-8.09,1.11-16.17,2.09-24.2
						c0.92-7.54,1.97-15.07,3.25-22.55c0.18-1.06,0.37-2.13,0.57-3.18C880.93,690.31,880.21,690.11,880.12,690.59L880.12,690.59z"/>
				</g>
			</g>
		</g>
		<path class="st13" d="M1315.91,845.98c0,0-22.23,39.6,6.91,49.76c29.14,10.16,42.06,0.92,42.06,0.92s-34.35-8.76-40.64-24.79
			S1315.91,845.98,1315.91,845.98z"/>
		<path class="st13" d="M999.64,563.74c0,0,4.8-27.55,41.8-24.06c37,3.49,56.73,10.39,56.73,10.39s-35.43-6.75-56.05-1.86
			c-20.62,4.89-43,22.71-43,22.71L999.64,563.74z"/>
		<path class="st49" d="M1010.58,562.22c0,0-14.65,39.4-32.58,46.62c-17.93,7.22,42.21-12.62,43.22-29.67
			c1.02-17.05,1.31-19.79,1.31-19.79L1010.58,562.22"/>
	</g>
	<g>
		<g id="Haareoben_7_">
			<g>
				<path class="st17" d="M1805.5,180.05c16.93,6.71,35.38,9.32,51.78,17.24c26.08,12.6,70.73,20.69,84.89,45.96
					c15.34,27.37,26.13,44.69,8.26,95.08c-3.82-17.12-15.16-26.47-29.27-36.88c-14.11-10.42-40.7-16.95-54.16-28.2
					c-13.49-11.28-31.76-30.68-38.99-46.69c-5.59-12.38-11.79-20.77-20.51-31.53c-17.6-21.72-60.74-1.12-83.33,2.58
					c-25.97,4.26-26.55-3.16-49.08,10.45s-48.3,84.76-47.21,111.05c0,0,0.05,0.96,0.09,2.63c0.33,11.29,12.03,50.7-12.22,83.05
					c-8.48,11.31,28.25-15.67,28.07-35.03"/>
			</g>
			<g>
				<path class="st17" d="M1668.98,370.39c-0.15-21.75,8,17.38,23.57,2.2c20.11-19.61-15-47.92,8.64-63.1
					c36.34-23.34,125.75-90.01,126.72-133.19c-5.8,4.38-11.9,8.27-18.21,11.79c-21.92,12.22-46.46,19.9-70.48,27.7
					c-13.73,4.46-27.57,9.08-39.83,16.71c-20.16,12.55-42.31,21.02-47.96,44.09c-5.65,23.07,5.27,60.45,17.35,80.89
					c3.04-6.88-2.85,21.36,0.2,14.48"/>
			</g>
			<g>
				<g>
					<path class="st17" d="M1645.6,418.79c-6.58-13.67-12.1-27.87-15.99-42.54c-3.31-12.47-5.43-25.26-6-38.15
						c-0.5-11.27,0.17-22.6,2.16-33.7c1.81-10.12,4.68-20.03,8.54-29.56c3.59-8.86,8.05-17.37,13.2-25.43
						c4.77-7.47,10.13-14.55,15.97-21.21c5.34-6.09,11.06-11.83,17.11-17.21c5.22-4.65,10.68-9.05,16.36-13.14
						c4.54-3.28,9.21-6.38,14.02-9.24c3.21-1.91,6.47-3.74,9.85-5.34c0.52-0.25,1.04-0.48,1.56-0.71c0.88-0.38,0.12-1.68-0.76-1.3
						c-2.98,1.29-5.85,2.85-8.67,4.45c-4.57,2.6-9,5.43-13.32,8.41c-5.6,3.87-11,8.02-16.19,12.42
						c-6.07,5.14-11.84,10.62-17.25,16.45c-5.98,6.44-11.53,13.28-16.53,20.51c-5.39,7.8-10.13,16.05-14.07,24.67
						c-4.22,9.24-7.54,18.89-9.81,28.8c-2.48,10.81-3.74,21.91-3.81,33c-0.08,12.51,1.34,25.01,3.95,37.23
						c3.04,14.25,7.7,28.11,13.45,41.49c1.57,3.66,3.23,7.27,4.96,10.86C1644.72,420.42,1646.02,419.66,1645.6,418.79L1645.6,418.79
						z"/>
				</g>
			</g>
			<g>
				<path class="st16" d="M1841.19,194.18c6.49,19.39,26.58,37.61,43.22,49.49c21.33,15.23,35.09,13.97,39.93,13.9
					c-9.67-50.35-69.8-44.41-83.83-64.42"/>
			</g>
			<path class="st16" d="M1627.23,333.9c0,0,27.22,47.12,32.2,105.75s67.44,109.69,67.44,109.69s-29.79,5.19-53.95-26.85
				C1651.88,494.58,1627.23,333.9,1627.23,333.9z"/>
			<path class="st35" d="M1631.85,313.07c6.26,50.73,41.89,61.15,41.89,61.15l20.39,4.03c0,0,7.96-7.67,5.08-19.77
				c-2.88-12.11-6.67-20.36-7.06-30.28c-0.39-9.92,5.97-16.66,5.97-16.66s-80.23,11.84-34-57.83
				C1710.34,184.03,1625.59,262.34,1631.85,313.07z"/>
			<path class="st35" d="M1924.95,199.76c0,0-20.33,46.12,19.14,87.77c39.48,41.65,40.46,88.88,40.46,88.88s-9.28-93-33.83-146.18
				C1938.63,204.02,1924.95,199.76,1924.95,199.76z"/>
			<path class="st47" d="M1699.41,197.14c0,0-27.09,12.34-36.17,31.44s-13.79,36.82-3.25,20.02c11.95-19.05,31.5-32.91,31.5-32.91
				s44.63-37.81,26.55-25.42C1711.15,195.01,1699.41,197.14,1699.41,197.14z"/>
			<g>
				<g>
					<g>
						<path class="st17" d="M1675.48,207.02c-2.54,1.34-4.61,3.67-6.47,5.8c-2.74,3.15-5.22,6.52-7.6,9.94
							c-5.12,7.37-9.85,15.09-13.91,23.1c-1.35,2.67-2.73,5.41-3.61,8.28c-2.1,6.86-3.55,13.99-4.83,21.04
							c-2.65,14.68-3.92,29.62-3.72,44.53c0.19,14.34,1.87,29.51,10.2,41.63c0.46,0.67,1.31,0.97,2.05,0.54
							c2.09-1.22,2.7-3.66,1.75-5.81c-0.78-1.76-3.37-0.24-2.59,1.51c0.29,0.66-0.11,1.37-0.67,1.7c0.68,0.18,1.37,0.36,2.05,0.54
							c-7.3-10.62-9.27-23.66-9.7-36.28c-0.49-14.3,0.47-28.7,2.72-42.82c1.15-7.22,2.64-14.39,4.47-21.47
							c0.9-3.48,1.9-6.6,3.43-9.8c3.66-7.62,8.08-14.93,12.76-21.97c2.62-3.94,5.35-7.83,8.39-11.46c1.98-2.37,4.18-5.06,6.79-6.43
							C1678.7,208.71,1677.19,206.12,1675.48,207.02L1675.48,207.02z"/>
					</g>
				</g>
				<path class="st48" d="M1817.87,177.95c0,0,0.34,76.8,39.18,95.27c38.83,18.47,75.58,26.8,75.58,26.8l-96.49-101.9
					L1817.87,177.95z"/>
				<g>
					<g>
						<path class="st17" d="M1677.79,208.4c20.5-14.25,43.32-25.59,67.9-30.64c17.47-3.59,35.67-3.86,53.13-0.08
							c11.74,2.54,23.29,6.81,33.5,13.21c1.74,1.09,3.4,2.32,5.19,3.33c2.2,1.25,4.5,2.31,6.82,3.31c6.22,2.68,12.64,4.9,19.06,7.05
							c16.31,5.46,32.81,10.33,49.09,15.88c7.91,2.69,15.78,5.52,23.49,8.76c6.38,2.68,12.75,5.61,18.57,9.39
							c4.32,2.81,8,5.98,10.24,10.68c5.51,11.58,10.22,23.57,13.93,35.85c3.7,12.26,6.52,24.93,7.17,37.75
							c0.7,13.6-0.09,27.34-0.72,40.92c-0.32,6.79-0.66,13.59-0.93,20.39c-0.24,6.13-0.28,12.27-0.59,18.39
							c-0.49,9.58-1.68,19.12-2.62,28.66c-1.03,10.45-1.92,20.96-1.8,31.47c0.11,9.25,0.9,18.82,4.17,27.54
							c1.35,3.6,3.15,6.99,5.53,10.01c0.6,0.76,1.65-0.31,1.06-1.06c-5.54-7.02-7.67-16.2-8.62-24.91
							c-1.11-10.21-0.7-20.56,0.06-30.78c0.77-10.33,2.02-20.62,2.96-30.93c1.02-11.17,1.06-22.38,1.56-33.58
							c0.61-13.77,1.4-27.54,1.56-41.33c0.08-6.61,0.13-13.24-0.5-19.82c-0.6-6.27-1.66-12.49-3.03-18.63
							c-2.86-12.8-7.04-25.29-12.02-37.41c-2.09-5.08-4.15-10.35-6.81-15.17c-1.05-1.9-2.53-3.55-4.13-5.01
							c-4.4-4.01-9.76-6.94-15.06-9.55c-6.99-3.44-14.25-6.32-21.56-9.01c-16.49-6.08-33.34-11.14-50.08-16.51
							c-7.3-2.34-14.6-4.72-21.79-7.39c-5.17-1.92-10.44-3.93-15.17-6.8c-3.97-2.41-7.73-4.98-11.91-7.06
							c-5.54-2.76-11.34-5.01-17.27-6.8c-15.87-4.77-32.68-6.1-49.14-4.36c-22.78,2.4-44.6,10.51-64.42,21.8
							c-6.03,3.43-11.88,7.17-17.58,11.13C1676.25,207.65,1677,208.95,1677.79,208.4L1677.79,208.4z"/>
					</g>
				</g>
			</g>
			<path class="st48" d="M1628.45,327.26c0,0,37,154.27,37.13,177.18c0.08,14.11-8.98,31.8-8.98,31.8"/>
			<path class="st48" d="M1640.36,543.85"/>
			<path class="st48" d="M1637.27,379.41"/>
			<g>
				<path class="st16" d="M1667.97,289.66c-2.02-3.97-2.07-8.66-1.55-13.09c2.18-18.91,13.63-35.84,28.21-48.07
					c6.31-5.29,13.2-9.82,20.08-14.34c17.66-11.6,35.33-23.21,53.6-33.82c2.02-1.17,4.12-2.36,6.43-2.66
					c2.32-0.3,4.94,0.48,6.14,2.49c1.94,3.25-0.69,7.28-3.38,9.94c-7.47,7.39-16.42,13.06-25.2,18.82
					c-23.28,15.26-46.3,31.85-63.17,53.99c-4.15,5.45-7.93,11.24-12.69,16.17c-3,3.1-6.36,5.85-10.01,8.15"/>
			</g>
			<g>
				<g>
					<path class="st16" d="M1687.21,371.71c-10.88-18.61-20.03-40.94-15.84-62.9c2.54-13.33,10.19-24.75,20.44-33.46
						c3.72-3.16,7.72-5.94,11.85-8.53c9.55-6,19.58-11.11,29.55-16.37c6.2-3.27,12.47-6.59,18.29-10.5c2.46-1.65,4.6-3.77,6.62-5.92
						c5.83-6.21,10.87-13.2,15.68-20.22c5.59-8.17,10.83-16.59,15.72-25.19c3.89-6.84,7.7-13.82,10.69-21.12
						c0.48-1.18,0.94-2.37,1.33-3.59c0.15-0.46-0.57-0.66-0.72-0.2c-2.2,6.78-5.72,13.2-9.11,19.43
						c-4.66,8.56-9.71,16.93-15.07,25.08c-5.06,7.7-10.37,15.31-16.38,22.3c-2.21,2.57-4.53,5.09-7.14,7.27
						c-1.55,1.29-3.26,2.34-4.97,3.39c-3.15,1.94-6.36,3.78-9.6,5.55c-15.2,8.33-31.43,15.48-45.11,26.32
						c-10.17,8.06-18.31,18.64-21.79,31.28c-5.45,19.79,0.85,40.66,9.82,58.4c1.6,3.17,3.32,6.28,5.11,9.34
						C1686.8,372.51,1687.45,372.13,1687.21,371.71L1687.21,371.71z"/>
				</g>
			</g>
			<g>
				<g>
					<path class="st16" d="M1820.34,163.99c2.49,13.65,6.4,27.05,11.42,39.98c5.21,13.4,11.66,26.44,19.99,38.19
						c3.84,5.42,8.11,10.58,12.92,15.17c5.56,5.31,11.9,9.79,18.42,13.84c7.16,4.44,14.63,8.34,22.06,12.29
						c6.92,3.67,13.92,7.26,20.24,11.92c12.68,9.36,23.91,21.71,31.57,35.51c0.84,1.52,1.64,3.07,2.38,4.64
						c0.21,0.44,0.85,0.06,0.65-0.38c-6.5-13.8-16.9-26.02-28.46-35.85c-5.83-4.96-12.12-8.99-18.82-12.65
						c-7.34-4-14.79-7.78-22.06-11.9c-7.33-4.15-14.49-8.66-21-14.02c-5.11-4.21-9.65-9.05-13.74-14.25
						c-8.95-11.39-15.84-24.38-21.41-37.72c-5.43-13.01-9.68-26.56-12.54-40.37c-0.32-1.53-0.62-3.07-0.9-4.61
						C1820.97,163.32,1820.25,163.52,1820.34,163.99L1820.34,163.99z"/>
				</g>
			</g>
			<g>
				<g>
					<path class="st16" d="M1928.24,269.9c4.62,14.19,13.54,26.35,22.7,37.94c9.52,12.04,20.1,23.93,26.58,37.99
						c3.39,7.36,5.56,15.21,6.08,23.3c0.51,8.05-0.14,16.12-0.83,24.14c-0.68,7.95-1.27,15.84-1.33,23.82
						c-0.06,8.24-0.42,16.46-0.56,24.7c-0.26,15.75,0.76,31.48,6.34,46.37c0.7,1.87,1.46,3.71,2.27,5.53
						c0.2,0.44,0.84,0.06,0.65-0.38c-3.35-7.56-5.7-15.5-7.01-23.66c-1.24-7.71-1.56-15.52-1.54-23.31
						c0.02-8.17,0.39-16.33,0.54-24.5c0.07-4.05,0.01-8.11,0.17-12.17c0.16-3.91,0.48-7.82,0.82-11.72
						c0.69-8.07,1.51-16.16,1.4-24.28c-0.1-7.78-1.38-15.19-4.02-22.52c-5.17-14.34-15.12-26.41-24.53-38.18
						c-9.49-11.87-19.33-23.94-25.13-38.14c-0.69-1.68-1.31-3.39-1.87-5.12C1928.81,269.24,1928.09,269.43,1928.24,269.9
						L1928.24,269.9z"/>
				</g>
			</g>
			<g>
				<g>
					<path class="st16" d="M1630.18,277.69c-1.07,5.14-1.87,10.35-2.66,15.55c-1.04,6.91-1.99,13.85-2.55,20.81
						c-0.22,2.69-0.4,5.39-0.32,8.09c0.09,3.16,0.95,6.26,1.51,9.36c1.84,10.17,3.28,20.41,4.67,30.64
						c2.81,20.58,5.4,41.3,10.66,61.43c5.15,19.73,13.97,38.07,21.92,56.76c7.87,18.48,14.8,37.72,15.46,58
						c0.08,2.57,0.07,5.14-0.04,7.71c-0.02,0.48,0.73,0.48,0.75,0c0.82-20.05-4.67-39.35-12.07-57.79
						c-7.57-18.85-16.96-37.04-22.92-56.5c-6.07-19.8-9.01-40.41-11.81-60.87c-1.4-10.26-2.75-20.54-4.39-30.76
						c-0.79-4.96-1.67-9.9-2.65-14.83c-0.43-2.16-0.39-4.38-0.31-6.58c0.26-6.75,1.14-13.49,2.07-20.18
						c0.84-6.06,1.78-12.11,2.9-18.12c0.16-0.84,0.32-1.69,0.5-2.53C1631,277.41,1630.28,277.21,1630.18,277.69L1630.18,277.69z"/>
				</g>
			</g>
		</g>
		<path class="st17" d="M1972.59,417.05c0,0-18.73,32.22,5.05,40.91c23.78,8.69,34.49,1.28,34.49,1.28s-28.08-7.61-33.03-20.84
			S1972.59,417.05,1972.59,417.05z"/>
		<path class="st17" d="M1729.87,175.11c0,0,4.28-22.54,34.59-19.22c30.32,3.32,46.41,9.22,46.41,9.22s-28.98-5.97-45.96-2.22
			s-35.56,18.1-35.56,18.1L1729.87,175.11z"/>
		<path class="st35" d="M1738.87,174c0,0-12.51,32.14-27.31,37.85s34.78-9.83,35.83-23.81c1.04-13.97,1.32-16.22,1.32-16.22
			L1738.87,174"/>
	</g>
</g>
<g id="Hand_x5F_R_5_">
	<path class="st0" d="M1536.23,1084.16l-69.57,47.51c0,0,13.5,39.24,38.06,26.82c24.55-12.43,36.45-8.82,49.01-22.51
		s14.2-59.65,14.2-59.65L1536.23,1084.16z"/>
	<path class="st0" d="M1520.87,1139.85c0,0-12.19,12.89-22.48,27.08c-9.26,12.77-16.57,26.75-19.01,30.57
		c-4.5,7.04,2.91,11.48,16.5,2.67s31.71-33.3,32.58-34.17c0.87-0.87,20.67-18.75,25.43-28.2c4.64-9.2,6.68-20.57,6.68-20.57
		L1520.87,1139.85z"/>
	<path class="st0" d="M1484.09,1145.02l-29.4,31.96l-27.27,43.7c0,0-6.81,8.32,3.37,5.83s20.17-14.09,21.84-18.69
		c0.58-1.6,17.46-17.67,22.58-25.01c0.59-0.85,39.86-28.54,39.86-28.54L1484.09,1145.02z"/>
	<path class="st0" d="M1476.39,1134.83l-29.4,31.96l-27.27,43.7c0,0-6.81,8.32,3.37,5.83s30.52-27.7,32.18-32.3
		c1.67-4.6,47.86-41.81,47.86-41.81L1476.39,1134.83z"/>
	<path class="st0" d="M1466.66,1134.27l-27.84,29.97l-23.27,43.5c0,0-5.98,8.41,3.63,5.25c9.61-3.16,27.46-28.64,28.76-33.12
		c1.29-4.48,43.18-43.36,43.18-43.36L1466.66,1134.27z"/>
	<path class="st0" d="M1468.02,1131.37l-19.08,14.53l-32.58,44.11c0,0-7.25,7.35,2.74,5.76c9.99-1.59,31.69-23.88,33.68-28.09
		c1.99-4.22,49.56-35.9,49.56-35.9L1468.02,1131.37z"/>
	<g>
		<path class="st50" d="M1482.07,1152.06c0,0-10.05,8.59-19.92,18.14c-9.88,9.55-26.4,36.47-26.4,36.47"/>
		<path class="st50" d="M1471.09,1147.72c0,0-12.84,11.1-22.71,20.65s-26.4,36.47-26.4,36.47"/>
		<path class="st50" d="M1464.93,1143.52c0,0-6.73,5.47-16.61,15.02c-9.88,9.55-26.4,36.47-26.4,36.47"/>
	</g>
	<path class="st19" d="M1519.27,1102.04c0.59-1.23-64.18,37.49-60.14,37.89C1463.16,1140.34,1514.98,1110.98,1519.27,1102.04z"/>
</g>
<g id="Hand_x5F_L_5_" class="st12">
	<g class="st15">
		<path class="st0" d="M1393.27,1080.04l75.76-69c0,0-22.17-44.9-49.8-25.89c-27.63,19-42.58,16.58-55.53,35.16
			c-12.95,18.57,27.14,52.88,27.14,52.88L1393.27,1080.04z"/>
		<path class="st0" d="M1402.76,1010.27c0,0,12.62-17.55,22.74-36.36c9.1-16.93,15.66-35,17.99-40.01
			c4.29-9.24-5.39-13.39-20.37-0.53c-14.98,12.86-32.88,45.38-33.79,46.57s-24.75,36.06-28.97,48.24
			c-4.11,11.86-4.85,24.85-4.85,24.85L1402.76,1010.27z"/>
		<path class="st0" d="M1446.35,998.04l30.31-43.39l25.83-57.22c0,0,6.87-11.16-5.02-6.5c-11.89,4.66-22.07,20.3-23.33,26.13
			c-0.44,2.03-18.21,24.19-23.2,33.89c-0.57,1.12-43.5,40.95-43.5,40.95L1446.35,998.04z"/>
		<path class="st0" d="M1457.3,1009.1l30.31-43.39l25.83-57.22c0,0,6.87-11.16-5.02-6.5c-11.89,4.66-32.35,38.42-33.62,44.25
			c-1.27,5.83-51,58.28-51,58.28L1457.3,1009.1z"/>
		<path class="st0" d="M1469.15,1008.19l28.75-40.72l21.03-56.33c0,0,5.86-11.13-5.23-5.75s-28.51,39.05-29.34,44.68
			c-0.83,5.62-45.1,59.4-45.1,59.4L1469.15,1008.19z"/>
		<path class="st0" d="M1467.98,1011.92l20.69-20.66l32.17-58.58c0,0,7.56-10.05-4.25-6.51c-11.81,3.54-34.39,33.99-36.11,39.41
			c-1.72,5.42-54.02,51.42-54.02,51.42L1467.98,1011.92z"/>
		<g>
			<path class="st51" d="M1447.65,989.22c0,0,10.74-12.01,21.11-25.15c10.38-13.14,25.95-48.35,25.95-48.35"/>
			<path class="st51" d="M1461.61,992.68c0,0,13.7-15.5,24.07-28.63c10.38-13.14,25.95-48.35,25.95-48.35"/>
			<path class="st51" d="M1469.73,996.74c0,0,7.24-7.71,17.62-20.84c10.38-13.14,25.95-48.35,25.95-48.35"/>
		</g>
	</g>
	<g class="st15">
		<path class="st0" d="M1393.27,1080.04l75.76-69c0,0-22.17-44.9-49.8-25.89c-27.63,19-42.58,16.58-55.53,35.16
			c-12.95,18.57,27.14,52.88,27.14,52.88L1393.27,1080.04z"/>
		<path class="st0" d="M1402.76,1010.27c0,0,12.62-17.55,22.74-36.36c9.1-16.93,15.66-35,17.99-40.01
			c4.29-9.24-5.39-13.39-20.37-0.53c-14.98,12.86-32.88,45.38-33.79,46.57s-25.49,38.24-29.71,50.42
			c-4.11,11.86-1.14,13.71-1.14,13.71L1402.76,1010.27z"/>
		<path class="st0" d="M1446.35,998.04l30.31-43.39l25.83-57.22c0,0,6.87-11.16-5.02-6.5c-11.89,4.66-22.07,20.3-23.33,26.13
			c-0.44,2.03-18.21,24.19-23.2,33.89c-0.57,1.12-43.5,40.95-43.5,40.95L1446.35,998.04z"/>
		<path class="st0" d="M1457.3,1009.1l30.31-43.39l25.83-57.22c0,0,6.87-11.16-5.02-6.5c-11.89,4.66-32.35,38.42-33.62,44.25
			c-1.27,5.83-51,58.28-51,58.28L1457.3,1009.1z"/>
		<path class="st0" d="M1469.15,1008.19l28.75-40.72l21.03-56.33c0,0,5.86-11.13-5.23-5.75s-28.51,39.05-29.34,44.68
			c-0.83,5.62-45.1,59.4-45.1,59.4L1469.15,1008.19z"/>
		<path class="st0" d="M1467.98,1011.92l20.69-20.66l32.17-58.58c0,0,7.56-10.05-4.25-6.51c-11.81,3.54-34.39,33.99-36.11,39.41
			c-1.72,5.42-54.02,51.42-54.02,51.42L1467.98,1011.92z"/>
		<g>
			<path class="st51" d="M1447.65,989.22c0,0,10.74-12.01,21.11-25.15c10.38-13.14,25.95-48.35,25.95-48.35"/>
			<path class="st51" d="M1461.61,992.68c0,0,13.7-15.5,24.07-28.63c10.38-13.14,25.95-48.35,25.95-48.35"/>
			<path class="st51" d="M1469.73,996.74c0,0,7.24-7.71,17.62-20.84c10.38-13.14,25.95-48.35,25.95-48.35"/>
		</g>
	</g>
</g>
<g id="Hose_Kopie_Kopie_Kopie_Kopie_2">
	<g>
		<path class="st52" d="M1604.38,770.31c17.04-64.86,88.75-174.62,88.75-174.62l47.56-15.01c0,0-25.67,24.83-45.07,57.16
			c-12.37,20.61-49.74,106.91-67.06,147.31c-0.43,1.01-24.32-13.47-24.32-13.47"/>
		<path class="st53" d="M1667.59,1194.5c-2.87,2.15,18.47,163.89,36,333.77c9.35,90.55,22.75,183.55,25.97,258.88
			c0.02,0.38-10.85,2.34-10.72,3.16c5.01,30.08,17.11,68.57,19.89,75.89c0,0,28.68,28.22,95.95,2.99
			c0.24-0.09,3.71-30.23,11.13-76.68c0.24-1.48-9.79-0.26-9.76-1.79c1.44-66.52,4.12-167.86,6-264.11
			c3.03-155.42,5.82-305.05,5.82-305.05L1667.59,1194.5z"/>
		<path class="st54" d="M1729.57,1787.16c-0.38-0.08-10.85,2.34-10.72,3.16c5.01,30.08,17.11,68.57,19.89,75.89
			c0,0,28.68,28.22,95.95,2.99c0.24-0.09,3.71-30.23,11.13-76.68c0.24-1.48-8.28-2.17-9.76-1.79
			C1808.3,1797.88,1781.09,1798.7,1729.57,1787.16z"/>
		<path class="st53" d="M2031.46,1218c0.46-7.01,35.01,349.6,34.22,564.18c0,0.38,0,0.77,0,1.15c0,0.83,7.83,3,7.83,3.82
			c-0.17,30.49-6.02,70.41-7.61,78.08c0,0-23.84,32.4-94.26,18.16c-0.25-0.05-8.45-29.26-23.14-73.94
			c-0.47-1.42,8.45-4.54,8.18-6.04c-9.52-52.07-12.5-153.5-27.17-230.61c-33.53-176.34-82.17-343.53-82.17-343.53L2031.46,1218z"/>
		<g>
			<path class="st53" d="M1711.56,1016.54c-20.85,50.57-35.17,103.63-44.09,178.36c78.69,37.46,169.32,38.04,256.44,35.7
				c36.27-0.97,72.9-2.38,107.92-11.85c-11.2-62.75-50.33-216.16-52.03-217.04c-0.1-0.05-0.39,1.08-0.55,1.1
				c-3.85,0.55-9.11,2.84-9.34,2.2c-8.53,3.61-45.22,11.89-120.37,9.89c-39.14-1.04-86.71-1.51-134.53-6.18
				c-0.03,0-0.69,3.99-0.69,3.92"/>
		</g>
	</g>
	<path class="st55" d="M1736.57,1062.04c0,0,0.58,0.13,1.66,0.38c13.5,3.11,105.04,24.05,109.24,20.23
		c4.53-4.12,3.71-9.89,3.71-9.89l-114.09-23.88L1736.57,1062.04"/>
	<g>
		<path class="st56" d="M1736.57,1062.04c0,0,0.58,0.13,1.66,0.38c13.5,3.11,110.81,25.28,115.01,21.47
			c4.53-4.12,13.6-57.71,13.6-57.71l-129.75,22.71L1736.57,1062.04"/>
		<path class="st56" d="M1882.09,1074.82c0,0,0.57,3.87,1.65,4.12c13.49,3.11,108.34-7.31,112.54-11.13
			c4.53-4.12-11.13-52.35-11.13-52.35l-119.55,11.95l17.31,51.12"/>
	</g>
	<g>
		<path class="st56" d="M1896.79,1417.8c0,0,63.21,267.68,76.95,294.61c13.74,26.93,28.58,86.29,28.58,86.29l-46.45,5.5
			C1955.88,1804.2,1910.54,1448.03,1896.79,1417.8z"/>
		<g>
			<g>
				<path class="st57" d="M1856.71,1235.86c11.73,35.71,22.64,71.68,32.68,107.9c10.09,36.39,19.33,73.02,27.69,109.85
					c8.33,36.65,15.79,73.5,22.39,110.5c6.67,37.4,12.46,74.96,17.34,112.64c4.83,37.27,8.78,74.66,11.85,112.12
					c0.38,4.68,0.75,9.37,1.11,14.05c0.15,1.91,3.15,1.93,3,0c-2.87-37.66-6.62-75.24-11.26-112.72
					c-4.61-37.25-10.09-74.4-16.44-111.39c-6.42-37.4-13.72-74.65-21.9-111.7c-8.14-36.88-17.15-73.56-27.02-110.01
					s-20.6-72.67-32.19-108.61c-1.44-4.47-2.9-8.94-4.36-13.4C1859,1233.24,1856.1,1234.02,1856.71,1235.86L1856.71,1235.86z"/>
			</g>
		</g>
	</g>
	<path class="st58" d="M1968.37,1805.89l-10.29,5.18c0,0,18.41,62.66,23.09,74.75"/>
	<path class="st54" d="M2065.93,1784.89c0.36-0.13,11.06,1,11.02,1.82c-1.28,30.46-8.57,70.15-10.44,77.75
		c0,0-25.39,36.5-95.24,19.71c-0.24-0.06-10.03-29.84-23.09-75.03c-0.41-1.44,6.18-5.14,7.7-4.95
		C1984.31,1807.89,2016.2,1802.66,2065.93,1784.89z"/>
	<path class="st58" d="M1737.4,1790.18l-10.44,2.75c0,0,13.74,73.65,18.69,78.6"/>
	<g>
		<g class="st59">
			<path class="st55" d="M1846.78,1233.39c-3.85-1.24-42.6-3.3-50.29-2.2c-5.5,0.79,10.44,15.12,14.29,20.61
				c9.96,14.22,10.4,35.75,10.83,53.11c2.17,87.81-3.92,388.94-1.76,476.75c0.07,2.82,17.36,8.61,17.59-1.65
				c2.2-99.49,5.65-417.59,10.44-507.87c0.58-11,2.51-27.34-0.55-37.93"/>
		</g>
		<g class="st59">
			<path class="st55" d="M2035.13,1587.12c-3.71,2.01-4.97,7.45-8.35,11.65c-8.68,10.78-13.51,23.41-20.95,35.09
				c-2.78,4.37-5.07,11.04-0.78,13.93c2.56,1.72,6.02,0.81,8.83-0.45c21.76-9.74,31.96-63.46,21.29-60.3"/>
		</g>
		<g class="st59">
			<path class="st55" d="M2020.23,1655.6c-1.64,0.3-2.78,2.18-4.57,3.34c-4.58,2.98-7.95,7.12-12.18,10.58
				c-1.58,1.3-3.26,3.52-2.01,5.13c0.75,0.96,2.16,1.05,3.37,0.92c9.36-0.97,19.8-19.87,15.41-20"/>
		</g>
		<g class="st59">
			<path class="st55" d="M1800.98,1586.3c-3.71,2.01-4.97,7.45-8.35,11.65c-8.68,10.78-13.51,23.41-20.95,35.09
				c-2.78,4.37-5.07,11.04-0.78,13.93c2.56,1.72,6.02,0.81,8.83-0.45c21.76-9.74,31.96-63.46,21.29-60.3"/>
		</g>
		<g class="st59">
			<path class="st55" d="M1786.08,1654.78c-1.64,0.3-2.78,2.18-4.57,3.34c-4.58,2.98-7.95,7.12-12.18,10.58
				c-1.58,1.3-3.26,3.52-2.01,5.13c0.75,0.96,2.16,1.05,3.37,0.92c9.36-0.97,19.8-19.87,15.41-20"/>
		</g>
		<path class="st56" d="M1709.98,1044.05l-0.82,2.42l-28.65,91.83c0,0,36.28-17.31,46.99-41.22c7.98-17.81,9.58-48.2,9.58-48.2
			L1709.98,1044.05z"/>
		<path class="st56" d="M1987.93,1046.89l1.75,4.23l23.09,89.76c0,0-32.15-31.12-43.28-50.81c-9.61-16.99-14.12-35.35-14.12-35.35
			L1987.93,1046.89z"/>
		<path class="st56" d="M1770.67,1195.19c0,0,54.23,21.98,52.27,24.92c-1.95,2.93-43.97,0.98-50.32-1.95
			S1758.46,1198.12,1770.67,1195.19z"/>
		<path class="st56" d="M1867.11,1238.61c0,0,9.34,4.4,34.63-9.89s18.69,3.3,9.34,9.89
			C1901.74,1245.21,1867.11,1238.61,1867.11,1238.61z"/>
	</g>
	<g>
		<g class="st59">
			<path class="st55" d="M1956.22,1804.67c29.88,1.96,60.07-0.89,89.06-8.41c4.07-1.06,17.5-6.08,21.35-11.85
				c0.08-0.11-0.03-5-1.1-9.07c-33.96,11.43-73.47,23.87-109.16,27.13"/>
		</g>
		<g>
			<g>
				<path class="st57" d="M1952.51,1055.43c3.29,13.93,9.1,27.12,16.74,39.2c7.58,12,16.77,22.9,26.39,33.29
					c5.66,6.12,11.48,12.07,17.31,18.03c1.35,1.38,3.47-0.74,2.12-2.12c-10.05-10.27-20.13-20.56-29.28-31.65
					c-8.81-10.67-16.71-22.18-22.54-34.77c-3.38-7.31-5.99-14.95-7.84-22.79C1954.96,1052.75,1952.07,1053.55,1952.51,1055.43
					L1952.51,1055.43z"/>
			</g>
		</g>
	</g>
	<g>
		<path class="st60" d="M1701.95,1041.43c0,0,183.44,38.75,289.39,3.3l-9.89-43.01c-65.96,24.73-264.24,6.73-264.24,6.73
			L1701.95,1041.43z"/>
		<path class="st61" d="M1779.86,1191.07c0,0,62.25,28.44,67.19,41.22l4.12,0.82c11.13-6.6,15.66-174.38,15.66-174.38"/>
		<path class="st61" d="M1846.64,1231.88c0,0-39.99-3.71-50.29-1.65"/>
		<g>
			<g>
				<path class="st57" d="M1674.06,1190.24c4.81,37.94,9.31,75.91,13.59,113.91c4.42,39.29,8.62,78.61,12.67,117.94
					c4.1,39.8,8.05,79.61,11.93,119.43c3.84,39.46,7.6,78.93,11.35,118.4c3.64,38.28,7.26,76.56,10.94,114.84
					c0.45,4.68,0.9,9.36,1.35,14.04c0.18,1.9,3.19,1.92,3,0c-3.68-38.07-7.29-76.14-10.9-114.21
					c-3.74-39.37-7.48-78.73-11.29-118.09c-3.86-39.82-7.78-79.64-11.85-119.44c-4.03-39.44-8.19-78.86-12.57-118.26
					c-4.25-38.21-8.7-76.41-13.46-114.56c-0.58-4.67-1.17-9.33-1.76-14C1676.82,1188.35,1673.82,1188.33,1674.06,1190.24
					L1674.06,1190.24z"/>
			</g>
		</g>
		<g>
			<g>
				<path class="st57" d="M1737.36,1048.41c-1.72,10.46-3.09,21-5.57,31.31c-2.28,9.47-5.61,18.78-11.38,26.72
					c-2.94,4.05-6.54,7.68-10.55,10.67c-2.18,1.63-4.5,3.08-6.76,4.6c-6.16,4.13-12.35,8.27-18.24,12.77
					c-1.2,0.92-2.41,1.84-3.52,2.86c-0.32,0.3-0.64,0.6-0.92,0.94c-0.12,0.14-0.25,0.27-0.34,0.43c-0.09,0.16,0.03-0.21,0.02-0.03
					c-0.04,0.76,2.53,0,2.27,0.83c0.02-0.08-0.01-0.2,0-0.29c0.18-1.06,0.39-2.47,0.69-3.79c0.2-0.91,0.47-1.81,0.64-2.73
					c0.3-1.59-1.87-2.73-2.74-1.16c-0.39,0.71-0.5,1.63-0.69,2.39c-0.5,1.94-0.98,3.89-1.42,5.84c-0.89,3.91-1.66,7.85-2.31,11.8
					c-1.31,7.97-2.15,16.01-2.5,24.08c-0.2,4.57-0.23,9.14-0.12,13.71c0.05,1.93,3.05,1.93,3,0c-0.25-10.02,0.24-20.06,1.49-30.01
					c0.63-4.96,1.46-9.89,2.46-14.79c0.5-2.44,1.05-4.86,1.64-7.28c0.31-1.25,0.62-2.49,0.95-3.73c0.06-0.23,0.49-1.26,0.08-0.51
					c-0.91-0.39-1.83-0.77-2.74-1.16c-0.42,2.24-1.11,4.41-1.38,6.68c-0.14,1.16,0.03,2.75,1.6,2.74c0.81-0.01,1.19-0.54,1.64-1.1
					c-0.32,0.4,0.04-0.03,0.12-0.11c0.19-0.18,0.37-0.37,0.56-0.55c2.29-2.13,4.9-3.93,7.44-5.74c3.37-2.42,6.8-4.77,10.24-7.1
					c6.36-4.31,12.92-8.29,18.14-14.03c6.95-7.65,11.32-17.14,14.16-27c3.43-11.91,4.92-24.28,6.93-36.48
					C1740.56,1047.32,1737.67,1046.51,1737.36,1048.41L1737.36,1048.41z"/>
			</g>
		</g>
		<g>
			<g>
				<path class="st57" d="M1848.28,1236.34c15.58,2.15,31.61-2.6,43.43-12.99c1.45-1.28-0.68-3.39-2.12-2.12
					c-10.93,9.61-26.08,14.22-40.51,12.22c-0.81-0.11-1.6,0.2-1.85,1.05C1847.03,1235.2,1847.48,1236.23,1848.28,1236.34
					L1848.28,1236.34z"/>
			</g>
		</g>
		<g class="st62">
			<path class="st57" d="M1684.08,742.56c-6.6,17.59,9.34,56.34,21.44,85.74"/>
		</g>
		<g class="st59">
			<path class="st55" d="M1728.74,1788.64c29.28,6.26,59.14,10.01,88.91,6.76c4.18-0.46,14.66-2.61,18.83-4.12
				c1.51-0.55,1.7-8.46,1.24-12.64c-35.25,6.4-72.72,9.78-108.5,7.85"/>
		</g>
	</g>
</g>
<g id="Shirt_5_">
	<g id="Kleidung_6_">
		<path class="st10" d="M1747.57,578.21c0,0,14.84,46.67,90.69,46.67c83.6,0,87.39-42.58,87.39-42.58l63.48,14.88
			c0,0,9.76,176.3-18.14,251.46c-14.02,55.24-5.51,78.58-5.43,79.22c1.65,12.57,6.78,22.86,14.91,74c0,0-43.15,18-136.04,14.15
			c-82.38-3.41-128.27-6.91-127.79-7.56c3.37-4.6,10.31-43.56,16.08-81.48c1.99-13.05-17.22-73.61-19.79-79.97
			c-39.57-98.11-19.58-251.26-19.58-251.26L1747.57,578.21z"/>
		<path class="st10" d="M1693.13,595.7c0,0-61.84,89.04-89.04,176.44c23.91,42.05,93.16,51.12,93.16,51.12l39.57-85.74
			L1693.13,595.7z"/>
		<path class="st10" d="M1988.31,597.45c0,0,73.1,80.39,100.31,167.78c-23.91,42.05-89.56,53.74-89.56,53.74l-54.45-79.71
			L1988.31,597.45z"/>
	</g>
	<g>
		<path class="st2" d="M1997.11,1056.68c0,0-108.01,22.67-112.95,15.66s-18.14-58.95-18.14-58.95l115.43-12.78L1997.11,1056.68z"/>
		<path class="st2" d="M1692.05,1046.37c0,0,154.18,33.39,159.12,26.38s15.94-59.5,15.94-59.5l-150.33-7.28L1692.05,1046.37z"/>
	</g>
	<path class="st2" d="M1606.1,787.59l-3.71,15.1l87.19,45.96c0,0,5.04-17.57,4.96-17.89C1694.17,829.18,1606.1,787.59,1606.1,787.59
		z"/>
	<path class="st2" d="M2089.45,766.87l14.87,17.39l-83.27,52.2c0,0-10-14.87-10.06-14.87
		C2009.37,821.59,2089.45,766.87,2089.45,766.87z"/>
	<g>
		<path class="st63" d="M1741.79,586.18c0,0-50.57,68.57-58.4,91.24c-2.94,8.52-45.5,113.73-45.5,113.73"/>
		<path class="st63" d="M1750.59,601.57c0,0-58.61,92.75-62.25,101c-12.37,28.03-33.13,97.96-33.13,97.96"/>
		<path class="st63" d="M1756.64,607.62c0,0-60.87,91.24-51.8,136.59c3.67,18.33,33.12,133.29,33.12,146.48
			c0,13.19-4.88,116.52-4.88,116.52"/>
		<path class="st63" d="M1752.24,1006.8c0,0,2.2-111.17,0.55-130.95c-1.65-19.79-26.09-118.92-25.7-134.11
			c0.82-31.74,43.83-123.67,43.83-123.67"/>
		<path class="st63" d="M1790.71,625.76c0,0-33.67,103.2-33.12,131.23c0.55,28.03,18.83,249.13,18.83,249.13"/>
		<path class="st63" d="M1813.8,631.25c0,0-20.75,92.75-21.99,131.5c-1.11,34.82,11.54,242.81,11.54,242.81"/>
		<path class="st63" d="M1828.91,632.9c0,0-1.79,94.54,0.41,126.97c2.2,32.43,0,251.88,0,251.88"/>
		<polyline class="st63" points="1850.62,632.9 1853.92,737.33 1861.48,1009.68 		"/>
		<polyline class="st63" points="1896.11,1007.21 1883.6,740.63 1871.51,630.15 		"/>
		<path class="st63" d="M1898.44,621.91c0,0,29.13,87.39,29.13,109.38s6.05,275.51,6.05,275.51"/>
		<path class="st63" d="M1958.77,1002.68c0,0-5.91-158.16-4.26-173c1.65-14.84,20.89-78.05,12.64-103.88
			c-8.24-25.83-52.77-115.43-52.77-115.43"/>
		<path class="st63" d="M1927.03,594.43c0,0,20.89,12.64,36.28,39.57c15.39,26.93,66.97,171.66,66.97,171.66"/>
		<path class="st63" d="M2055.42,788.91c0,0-51.44-156.55-62.43-167.55s-64.31-33.8-64.31-33.8"/>
	</g>
	<path class="st64" d="M1713.21,1012.43c148.95,24.18,272.35,1.37,272.35,1.37l-4.12-13.19c0,0-208.87,11.54-265.48,4.95"/>
	<path class="st65" d="M1716.51,1007.21c219.17,18.55,264.93-6.6,264.93-6.6l-4.53-13.19c-0.08-0.65-40.83,19.14-259.71,18.76"/>
	<path class="st66" d="M1988.65,597.86l-56-13.4l-1.16,2l-1.18-0.56c0,0-26.8,43.7-72.55,44.93c-45.76,1.24-94.4-19.38-94.4-19.38
		s63.48,63.07,123.26,40.4c45.76-17.36,69.25-38.8,79.01-46.1c6.15,4.88,14.67,14.34,19.1,20.54
		c16.49,23.09,83.48,117.59,61.11,70.13S1988.65,597.86,1988.65,597.86z"/>
	<path class="st67" d="M1837.16,616.14c0,0-10,13.16-9.48,13.16c0.52,0,20.61-0.21,20.61-0.21L1837.16,616.14z"/>
	<path class="st66" d="M1731.83,926.21c0,0,42.8,45.28,42.8,63.42c0,18.14,1.51,16.35,1.51,16.35l-58.33,0.41L1731.83,926.21z"/>
	<polygon class="st68" points="1826.44,612.91 1820.67,633.31 1854.88,633.11 1850.56,619.92 	"/>
	<g>
		<path class="st68" d="M1740.7,580.68c0,0,49.74,88.49,59.64,87.39c9.89-1.1,37.65-51.25,37.65-51.25l-89.87-38.89L1740.7,580.68"
			/>
		<path class="st68" d="M1932.18,583.43c0,0-41.7,88.22-51.6,87.12c-9.89-1.1-44.86-53.73-44.86-53.73l92.68-33.67"/>
	</g>
	<g class="st69">
		<path class="st70" d="M1994.66,708.46c-3.98,9.64-8.59,68.93-12.78,86.31c-0.04,0.18,16.24,23.57,16.24,23.57
			s45.86-24.69,44.41-21.79c-0.82,1.65-23.15-49.13-37.81-73.43c-1.5-2.48-7.52-14.53-10.06-15.92"/>
	</g>
	<g class="st71">
		<path class="st52" d="M1691.51,715.76c-0.65,12.5,4.92,60.33,8.28,71.97c3.88,13.45,12.34,38.73,19.62,49.18
			s18.38,13.25,28.88,14.17c1.21,0.11,2.61,0.02,3.39-1.26c0.72-1.18,0.64-2.92,0.4-4.43c-1.64-10.44-8.16-17.81-14.02-24.82
			c-15.16-18.13-31.46-62.85-42.19-86.22"/>
	</g>
	<g class="st72">
		<path class="st73" d="M1692.98,595.33c-0.65,12.5-2.84,63.86,0.52,75.5c3.88,13.45,12.34,38.73,19.62,49.18
			s18.38,13.25,28.88,14.17c1.21,0.11,2.61,0.02,3.39-1.26c0.72-1.18,0.64-2.92,0.4-4.43c-1.64-10.44-8.16-17.81-14.02-24.82
			c-15.16-18.13-31.46-62.85-42.19-86.22"/>
	</g>
	<path class="st74" d="M1924.55,582.57c0,0-6.66,45.04-89.66,42.29c-75.6-2.5-88.42-46.38-88.42-46.38"/>
	<g>
		<path class="st75" d="M1592.5,772.03c0,0,61.7,38.48,110.07,58.54"/>
		<path class="st75" d="M2094.17,762.72c0,0-46.09,39.6-97.63,60.55"/>
	</g>
	<g class="st69">
		<path class="st70" d="M1981.85,794.5c-10.16,30.84-23.29,85.33-46.38,130.88c-2.68,5.28-17.25,55.3-17.25,81.28
			c0,3.3,46.31-1.1,62.8-6.87c-9.26-34.78-19.08-66.83-19.17-89.25c-0.15-40.55,6.06-51.41,12.37-75.34
			c2.35-8.9,4.38-17.47,4.86-21.25"/>
	</g>
	<path class="st68" d="M1991.33,728.95l-8.62,67.7c0,0,9.85,7.32,11.91-11.64C1996.69,766.05,1991.33,728.95,1991.33,728.95z"/>
	<path class="st68" d="M1676.94,769.76l24.18,44.25C1701.12,814.01,1678.86,787.35,1676.94,769.76z"/>
	<polygon class="st76" points="1595.73,766.6 1628.43,785.7 1623.62,797.79 1588.86,777.6 	"/>
	<g>
		<path class="st2" d="M1740.15,576.36l48.37-15.39l48.65,55.24c0,0-34.22,47.2-34.35,46.99
			C1802.11,662.15,1740.15,576.36,1740.15,576.36z"/>
		<path class="st2" d="M1929.77,581.78l-46.99-18.72l-45.63,53.07c0,0,39.63,47.21,39.85,46.99
			C1877.97,662.17,1929.77,581.78,1929.77,581.78z"/>
	</g>
	<path class="st52" d="M1604.38,770.31c17.04-64.86,88.75-174.62,88.75-174.62l47.56-15.01c0,0-25.67,24.83-45.07,57.16
		c-12.37,20.61-49.74,106.91-67.06,147.31c-0.43,1.01-24.32-13.47-24.32-13.47"/>
</g>
<g id="Ebene_29_Kopie_2">
	<g>
		<g>
			<path class="st23" d="M1877.44,553.28L1877.44,553.28c6.74-2.99-13.19-37.53-16.18-44.27l-13.85-52.36
				c-2.99-6.74-12.12-16.68-18.86-13.69v0c-6.74,2.99-4.96,9.92-1.81,25.37l11.31,42.74l2.2,44.73
				C1843.24,562.54,1870.7,556.27,1877.44,553.28z"/>
			<path class="st23" d="M1857.38,533.28c0.77-1.13,25.55-23.21,26.71-23.95c0.58-0.37,1.41,1.18,1.49,1.49
				c0.98,3.93-7.43,26.75-8.55,29.15c-0.02,0.05-9.07,23.9-10.66,28.08c-0.16,0.42-0.28,0.85-0.36,1.29l-5.13,28.15
				c-1.11,6.09-8.96,8.23-12.79,3.37c-0.22-0.28-0.39-0.54-0.47-0.77l-11.65-29.84c-1.65-4.23-0.34-9.04,3.22-11.85l8.37-10.94
				c0.82-0.65,8.21-7.77,8.8-8.64L1857.38,533.28z"/>
		</g>
		<ellipse class="st5" cx="1835.43" cy="543.75" rx="9.74" ry="17.81"/>
		<ellipse class="st5" cx="1824.33" cy="555.27" rx="9.74" ry="17.81"/>
		<ellipse class="st5" cx="1815.32" cy="565.75" rx="9.74" ry="17.81"/>
		<ellipse class="st5" cx="1808.83" cy="568.68" rx="9.74" ry="17.81"/>
	</g>
	<g>
		<g>
			<path class="st0" d="M1876.19,553.28l-6.08,1.57c6.74-2.99-0.99-46.89-3.98-53.63l-19.97-44.57
				c-2.99-6.74-12.12-16.68-18.86-13.69v0c-6.74,2.99-0.56,17.2,1.54,24.96l11.73,41.27l1.26,46.61
				C1844.81,562.54,1869.44,556.27,1876.19,553.28z"/>
			<path class="st0" d="M1840.27,522.82l-48.1,52.36c-1.74,1.2,6.29,33.94,15.5,48.6c10.42,16.58,28.49,24.72,28.49,24.72
				s33.87-14.04,48.25-32.31c14.37-18.27-8.27-69.54-8.27-69.54L1840.27,522.82z"/>
			<path class="st0" d="M1885.46,510.86c0.77-1.13,3.26,35.75,3.81,38.34c0.94,4.4-0.08,48.58-0.16,49.02l-11.08-13.25
				c-1.11,6.09-8.96,8.23-12.79,3.37c-0.22-0.28-0.39-0.54-0.47-0.77l-11.65-29.84c-1.65-4.23-0.34-9.04,3.22-11.85l8.37-10.94
				c0.82-0.65,4.54-10.6,5.13-11.47L1885.46,510.86z"/>
		</g>
		<ellipse class="st0" cx="1833.34" cy="534.74" rx="9.74" ry="17.81"/>
		<path class="st0" d="M1832.13,544.64c0,9.83-5.78,24.67-11.16,24.67s-9.74-7.97-9.74-17.81s1.64-19.17,7.02-19.17
			S1832.13,534.81,1832.13,544.64z"/>
		<ellipse class="st0" cx="1808.51" cy="563.02" rx="9.74" ry="17.81"/>
		<ellipse class="st0" cx="1801.49" cy="570.57" rx="9.74" ry="17.81"/>
	</g>
	<path class="st0" d="M1830.51,640.96c0,0,117.74,253.71,139.74,275.7s40.64-29.12,56.98-44.83s-139.95-277.38-139.95-277.38
		L1830.51,640.96z"/>
	<path class="st0" d="M1958.52,842.5l61.59-6.29l70.6-44.1c0,0,1.68,133.98-50.28,143.61c-51.96,9.64-63.9-14.46-63.9-14.46
		l-4.19-124.86l50.28,41.48"/>
	<path class="st5" d="M1833.34,646.93c0,0,94.65,198.69,109.25,226.16c31.43,59.08,51.64,62.33,56.67,62.96
		c7.78,0.97-29.03-46.52-45.78-87.68c-31.7-77.9-119.52-205.83-119.52-205.83L1833.34,646.93z"/>
	<path class="st5" d="M1792.33,563.97c0,0,4.03,32.16,21.21,45.57c17.18,13.41,26.08,43.05,26.08,43.05s-11-4.5-24.41-18.33
		c-13.41-13.83-23.05-46.51-23.46-55.31C1791.33,570.15,1792.33,563.97,1792.33,563.97z"/>
	<path class="st5" d="M2016.23,832.97c0,0,18.23,43.05,12.26,49.65c-5.97,6.6,3.77,4.09,5.66-2.2S2029.12,836.42,2016.23,832.97z"/>
	<polygon class="st5" points="2091.34,792.74 2088.82,831.39 2022.62,837.89 2020,834.54 	"/>
	<g>
		<path class="st23" d="M1839.94,507.87c-1.15-3.01-2.89,4.71-3.76,9.18c-0.79-0.4-1.63-0.65-2.52-0.7
			c-6.13-0.31-9.11,4.4-9.58,7.38c-0.47,2.99-0.42,8.22-0.42,8.22s2.69-11.96,10-12.15c5.92-0.16,11.85,9.02,12.41,9.57
			C1845.95,528.97,1841.51,511.97,1839.94,507.87z"/>
		<path class="st23" d="M1846.06,529.38c0,0,0.01,0.02,0.01,0.02C1846.12,529.44,1846.11,529.43,1846.06,529.38z"/>
	</g>
	<path class="st23" d="M1792.17,563.97c0,0,2.36-12.41,12.18-12.88c0,0,0.55-7.7,7.78-9.43c0,0,5.97,0.94,9.11,4.09
		c0,0-2.09-5.79-7.86-6.6c-11.16-1.57-10.53,10.45-10.53,10.45S1792.64,552.34,1792.17,563.97z"/>
	<path class="st23" d="M1823.23,533.12c0,0,5.08,2.25,7.59,4.29c0,0-2.12-4.71-5.58-5.19s-3.54,0.31-3.54,0.31L1823.23,533.12z"/>
	<path class="st39" d="M1844.42,466.34c0,0,18.44,27.1,19.35,44.83c0.9,17.73-7.07-11.49-7.07-11.49L1844.42,466.34z"/>
	<polygon class="st23" points="1871.15,522.59 1877.02,554.02 1875.13,518.19 	"/>
</g>
<g transform="translate(-21 5) rotate(-10 1838.5 377.895)">
<path fill-rule="evenodd" clip-rule="evenodd" d="M1842.89 384.387L1846.38 395.508L1847.18 396.552L1847.18 396.552L1847.18 396.555L1847.19 396.563L1847.23 396.623C1847.27 396.68 1847.34 396.768 1847.43 396.884C1847.6 397.112 1847.85 397.447 1848.14 397.863C1843.89 398.309 1839.08 399.985 1834.56 404.367C1831.6 407.23 1831.53 411.947 1834.39 414.903C1837.26 417.859 1841.97 417.933 1844.93 415.07C1847.58 412.505 1850.1 412.386 1852.84 412.812C1853.59 412.928 1854.31 413.082 1855.11 413.259C1855.18 413.273 1855.24 413.288 1855.31 413.304C1855.98 413.453 1856.96 413.668 1857.83 413.785C1857.85 413.788 1857.87 413.79 1857.89 413.793C1858.55 413.884 1861.05 414.225 1863.53 412.962C1865.15 412.137 1866.52 410.758 1867.31 408.933C1868.02 407.294 1868.05 405.774 1867.97 404.802C1867.78 402.267 1866.7 399.833 1865.93 398.279C1865.04 396.488 1863.96 394.685 1862.97 393.15C1861.97 391.593 1860.99 390.192 1860.26 389.186C1860.14 389.018 1860.03 388.861 1859.92 388.715C1859.01 385.408 1858.03 382.41 1857.03 379.665L1845.61 343.223L1831.05 345.451C1831.05 355.659 1833.7 362.9 1836.79 369.995C1837.3 371.159 1837.82 372.312 1838.34 373.473C1839.86 376.882 1841.41 380.363 1842.89 384.387ZM1859.81 399.015C1860.01 399.041 1859.95 399.013 1859.72 399.001C1859.75 399.007 1859.78 399.011 1859.81 399.015Z" fill="#FFAD8E"/>
<path fill-rule="evenodd" clip-rule="evenodd" d="M1834.11 384.387L1830.62 395.508L1829.82 396.552L1829.82 396.552L1829.82 396.555L1829.81 396.563L1829.77 396.623C1829.73 396.68 1829.66 396.768 1829.57 396.884C1829.4 397.112 1829.15 397.447 1828.86 397.863C1833.11 398.309 1837.92 399.985 1842.44 404.367C1845.4 407.23 1845.47 411.947 1842.61 414.903C1839.74 417.859 1835.03 417.933 1832.07 415.07C1829.42 412.505 1826.9 412.386 1824.16 412.812C1823.41 412.928 1822.69 413.082 1821.89 413.259C1821.82 413.273 1821.76 413.288 1821.69 413.304C1821.02 413.453 1820.04 413.668 1819.17 413.785C1819.15 413.788 1819.13 413.79 1819.11 413.793C1818.45 413.884 1815.95 414.225 1813.47 412.962C1811.85 412.137 1810.48 410.758 1809.69 408.933C1808.98 407.294 1808.95 405.774 1809.03 404.802C1809.22 402.267 1810.3 399.833 1811.07 398.279C1811.96 396.488 1813.04 394.685 1814.03 393.15C1815.03 391.593 1816.01 390.192 1816.74 389.186C1816.86 389.018 1816.97 388.861 1817.08 388.715C1817.99 385.408 1818.97 382.41 1819.97 379.665L1831.39 343.223L1845.95 345.451C1845.95 355.659 1843.3 362.9 1840.21 369.995C1839.7 371.159 1839.18 372.312 1838.66 373.473C1837.14 376.882 1835.59 380.363 1834.11 384.387ZM1817.19 399.015C1816.99 399.041 1817.05 399.013 1817.28 399.001C1817.25 399.007 1817.22 399.011 1817.19 399.015Z" fill="#FFBEA6"/>
<path fill-rule="evenodd" clip-rule="evenodd" d="M1838.5 338C1842.61 338 1845.95 341.336 1845.95 345.451V410.339C1845.95 414.454 1842.61 417.79 1838.5 417.79C1834.38 417.79 1831.05 414.454 1831.05 410.339V345.451C1831.05 341.336 1834.38 338 1838.5 338Z" fill="#FFB195"/>
<path d="M1835.55 410.693C1831.82 400.758 1827.17 401.068 1824.06 404.173C1822.24 405.994 1822.7 407.261 1825.92 408.209C1828.2 408.878 1832.47 409.024 1835.55 410.693Z" fill="#DE7454"/>
<path d="M1844.55 410.441C1848.28 400.506 1852.94 400.817 1856.04 403.921C1857.87 405.742 1857.4 407.009 1854.18 407.957C1851.91 408.626 1847.64 408.772 1844.55 410.441Z" fill="#DE7454"/>
<ellipse cx="1839.12" cy="398.541" rx="4.65703" ry="11.7978" transform="rotate(90 1839.12 398.541)" fill="#FEC5BA"/>
</g>
</svg>
