<?xml version="1.0" encoding="utf-8"?>
<!-- Generator: Adobe Illustrator 25.4.0, SVG Export Plug-In . SVG Version: 6.00 Build 0)  -->
<svg version="1.1" id="MachtSport" xmlns="http://www.w3.org/2000/svg" xmlns:xlink="http://www.w3.org/1999/xlink" x="0px" y="0px"
	 viewBox="0 0 3840 2160" style="enable-background:new 0 0 3840 2160;" xml:space="preserve">
<style type="text/css">
	.st0{fill:#FFB699;}
	.st1{fill:#54A465;}
	.st2{fill:#FFF8C5;}
	.st3{fill:none;stroke:#2E753B;stroke-miterlimit:10;}
	.st4{fill:#76C484;}
	.st5{fill:#F99A79;}
	.st6{fill:#449353;}
	.st7{fill:none;stroke:#FFF8C5;stroke-width:2;stroke-miterlimit:10;}
	.st8{fill:#FFF8C5;stroke:#002A2B;stroke-miterlimit:10;}
	.st9{fill:none;stroke:#22722F;stroke-miterlimit:10;}
	.st10{fill:#CCF6E6;}
	.st11{fill:none;stroke:#002A2B;stroke-width:4;stroke-miterlimit:10;}
	.st12{fill:#995B34;}
	.st13{fill:#633318;}
	.st14{fill:#AA6944;}
	.st15{fill:#FCA181;}
	.st16{fill:#D86C45;}
	.st17{fill:#FFCAB8;}
	.st18{fill:#FFFFFF;}
	.st19{display:none;fill:url(#SVGID_1_);}
	.st20{display:none;fill:#16100B;}
	.st21{display:none;fill:#FFFFFF;}
	.st22{fill:url(#SVGID_00000173120571910101037290000000827659548565815695_);}
	.st23{fill:#16100B;}
	.st24{fill:url(#SVGID_00000090292787713247985680000015274532069654963119_);}
	.st25{fill:#FCD2CA;}
	.st26{fill:url(#SVGID_00000023964268006463877460000011925574360008891319_);}
	.st27{fill:url(#SVGID_00000067198701528832190470000004909062253913432724_);}
	.st28{fill:#841A06;}
	.st29{fill:#D64B2B;}
	.st30{fill:#FFAF9C;}
	.st31{fill:#894A27;}
	.st32{opacity:0.72;fill:#F99A79;}
	.st33{opacity:0.72;fill:#E27F64;}
	.st34{opacity:0.33;fill:#F98869;}
	.st35{fill:#D88C66;}
	.st36{fill:none;stroke:#995B34;stroke-miterlimit:10;}
	.st37{fill:#F0FFF9;}
	.st38{fill:#545454;}
	.st39{fill:#3F3F3F;}
	.st40{fill:#28564D;}
	.st41{opacity:0.41;fill:#28564D;}
	.st42{fill:#002A2B;}
	.st43{fill:none;stroke:#CCF6E6;stroke-miterlimit:10;}
	.st44{opacity:0.41;}
	.st45{fill:#336B61;stroke:#002A2B;stroke-miterlimit:10;}
	.st46{fill:none;stroke:#002A2B;stroke-width:2;stroke-miterlimit:10;}
	.st47{opacity:0.31;}
	.st48{fill:none;stroke:#006A58;stroke-width:0.25;stroke-miterlimit:10;}
	.st49{fill:#EAE0A4;}
	.st50{fill:#97D1B8;}
	.st51{opacity:0.44;fill:#C3EDDC;}
	.st52{fill:#EAE1AC;}
	.st53{opacity:0.31;fill:#002A2B;}
	.st54{opacity:0.44;}
	.st55{fill:#C3EDDC;}
	.st56{opacity:0.45;}
	.st57{display:none;opacity:0.45;}
	.st58{display:inline;fill:#F0FFF9;}
	.st59{fill:none;stroke:#64D250;stroke-width:16;stroke-miterlimit:10;}
	.st60{fill:none;stroke:#64D250;stroke-width:12;stroke-miterlimit:10;}
	.st61{fill:#A5EA96;}
	.st62{display:none;}
	.st63{display:inline;fill:#FFB699;}
	.st64{display:inline;fill:#F99A79;}
	.st65{display:inline;}
	.st66{fill:#9DE88E;}
	.st67{fill:#64D250;}
	.st68{fill:none;stroke:#FFFFFF;stroke-miterlimit:10;}
</style>
<g id="Füsse_Kopie_Kopie_2_Kopie_Kopie_2">
	<g>
		<g>
			<polygon class="st0" points="1753.42,1858.83 1762.7,1952.71 1820.55,1958.71 1826.56,1835.36 			"/>
			<path class="st1" d="M1751.92,1907.41c0,0,0.61,32.75-11.89,51.56c-4.82,7.25-12.94,13.61-20.43,18.47
				c-1.45,0.94-2.92,1.8-4.39,2.56c-19.1,9.82-66.04,35.48-78.05,49.67c-12.01,14.19-13.1,26.2-13.1,26.2l-6.55,2.18l9.96,9.01
				c0,0,10.64,13.24,49.94,2.87c39.3-10.37,150.23-73.82,150.23-73.82l0.2-92.38l-4.91-0.2c0,0-9.48,8.26-34.59,7.16
				c-25.11-1.09-31.31-8.39-31.31-8.39L1751.92,1907.41z"/>
			<path class="st2" d="M1624.07,2055.86l-6.55,2.18l7.1,11.46c0,0,15.96,11.19,55.26,0.82c39.3-10.37,146.96-62.22,146.96-62.22
				l1.64-13.1l-25.38,13.92c0,0-45.03,19.65-70.82,29.06C1646.63,2069.25,1624.07,2055.86,1624.07,2055.86z"/>
			<path class="st3" d="M1827.92,1980.54"/>
			<g>
				<path class="st4" d="M1630.17,2050.91c1.06-11.13,8.08-21.51,18.02-26.62c1.13-0.58,2.88-0.89,3.35,0.29
					c0.3,0.77-0.24,1.58-0.76,2.23c-6.07,7.61-12.14,15.22-18.21,22.83c-0.49,0.62-1.31,1.3-1.96,0.86"/>
			</g>
			<path class="st5" d="M1753.97,1867.56l0.82,10.37c0,0,29.06,9.96,48.71,7.78c14.27-1.59,20.47-6.96,20.47-6.96l2.05-22.65
				l-72.04,6.55V1867.56"/>
		</g>
		<path class="st6" d="M1826.42,1919.28c0,0-1.64,53.21-17.19,63.86c-15.56,10.64-128.53,70-128.53,70s65.9-15.56,102.75-35.2
			c31.46-16.78,44.21-21.83,44.21-21.83L1826.42,1919.28z"/>
		<path class="st7" d="M1714.67,1977.81c28.24-11.87,46.05,16.17,46.05,16.17"/>
		<path class="st7" d="M1691.74,1990.5c28.24-11.87,46.05,16.17,46.05,16.17"/>
		<path class="st7" d="M1665.55,2006.06c28.24-11.87,46.05,16.17,46.05,16.17"/>
		<ellipse class="st8" cx="1807.88" cy="1941.41" rx="12.09" ry="17.35"/>
		<path class="st9" d="M1758.06,1905.22c0,0-0.27-1.09-3,8.19c-2.73,9.28-2.23,31.87,2.73,39.02c4.91,7.1,13.78,4.91,13.78,4.91"/>
		<path class="st10" d="M1757.34,1902.7c0,0,14.74,13.61,41.45,9.93c13.97-1.93,24.15-9.11,24.15-9.11l1.23-20.47
			c0,0-8.54,6.72-32.54,6.62c-23.74-0.1-35.82-5.59-35.82-5.59L1757.34,1902.7z"/>
		<ellipse class="st1" cx="1777.09" cy="1919.69" rx="21.49" ry="28.65"/>
		<path class="st6" d="M1796.13,1909.04c0,0-17.6,11.87-19.24,28.65c-1.64,16.78-5.32,19.65-5.32,19.65s9.01,1.64,18.42-19.65
			C1799.4,1916.41,1796.13,1909.04,1796.13,1909.04z"/>
		<path class="st11" d="M1752.6,1883.12c0,0,11.19,4.64,32.75,5.46c21.56,0.82,33.29-4.09,41.21-8.73"/>
	</g>
	<g>
		<g>
			<polygon class="st0" points="2055.41,1859.45 2058.27,1953.74 2001.67,1967.13 1979.86,1845.57 			"/>
			<path class="st1" d="M2063.14,1907.43c0,0,3.6,32.55,18.42,49.6c5.71,6.57,14.59,11.83,22.63,15.69
				c1.56,0.75,3.13,1.41,4.68,1.97c20.21,7.29,70.05,26.69,83.79,39.22c13.73,12.53,16.36,24.3,16.36,24.3l6.78,1.32l-8.72,10.21
				c0,0-8.85,14.49-49.16,9.26c-40.3-5.23-158.47-53.9-158.47-53.9l-12.08-91.58l4.85-0.83c0,0,10.47,6.97,35.22,2.66
				c24.76-4.31,29.98-12.35,29.98-12.35L2063.14,1907.43z"/>
			<path class="st2" d="M2209.02,2038.22l6.78,1.32l-5.56,12.28c0,0-14.39,13.15-54.7,7.92c-40.3-5.23-153.73-42.81-153.73-42.81
				l-3.31-12.78l26.96,10.54c0,0,47.18,13.7,73.97,19.72C2188.36,2054.4,2209.02,2038.22,2209.02,2038.22z"/>
			<path class="st3" d="M1997.17,1989.73"/>
			<g>
				<path class="st4" d="M2202.33,2034.09c-2.48-10.9-10.78-20.29-21.29-24.09c-1.19-0.43-2.97-0.51-3.28,0.72
					c-0.2,0.8,0.44,1.54,1.04,2.11c7,6.77,14,13.53,21,20.3c0.57,0.55,1.46,1.12,2.06,0.6"/>
			</g>
			<path class="st5" d="M2055.99,1868.18l0.52,10.39c0,0-27.54,13.61-47.31,13.97c-14.36,0.26-21.19-4.27-21.19-4.27l-4.94-22.2
				l72.29-2.77L2055.99,1868.18"/>
		</g>
		<path class="st6" d="M1990.78,1928.78c0,0,8.46,52.56,25.26,61.12c16.79,8.56,136.47,52.9,136.47,52.9s-67.36-6.95-106.42-21.7
			c-33.35-12.59-46.65-15.97-46.65-15.97L1990.78,1928.78z"/>
		<path class="st7" d="M2109.13,1972.46c-29.54-8.14-43.59,21.95-43.59,21.95"/>
		<path class="st7" d="M2133.5,1982.1c-29.54-8.14-43.59,21.95-43.59,21.95"/>
		<path class="st7" d="M2161.48,1994.16c-29.54-8.14-43.59,21.95-43.59,21.95"/>
		
			<ellipse transform="matrix(0.9917 -0.1285 0.1285 0.9917 -233.7508 274.7896)" class="st8" cx="2012.01" cy="1948.34" rx="12.09" ry="17.35"/>
		<path class="st9" d="M2056.77,1906.05c0,0,0.13-1.12,4.03,7.73c3.9,8.85,6.3,31.31,2.31,39.05c-3.96,7.67-13.04,6.64-13.04,6.64"
			/>
		<path class="st10" d="M2057.16,1903.46c0,0-12.86,15.39-39.83,15.17c-14.1-0.12-25.12-5.93-25.12-5.93l-3.85-20.14
			c0,0,9.33,5.57,33.12,2.38c23.53-3.15,34.8-10.15,34.8-10.15L2057.16,1903.46z"/>
		
			<ellipse transform="matrix(0.9917 -0.1285 0.1285 0.9917 -230.243 278.1443)" class="st1" cx="2039.75" cy="1922.84" rx="21.49" ry="28.65"/>
		<path class="st6" d="M2019.51,1914.73c0,0,18.98,9.51,22.76,25.94s7.8,18.8,7.8,18.8s-8.72,2.78-20.79-17.12
			S2019.51,1914.73,2019.51,1914.73z"/>
		<path class="st11" d="M2059.34,1883.43c0,0-10.5,6.04-31.77,9.62c-21.27,3.58-33.54,0.22-41.99-3.36"/>
	</g>
</g>
<g id="Haarehinten_2_">
	<path class="st12" d="M1972.25,494.48l3.78,23.77c9.92-1.66,25.98-59.01,24.44-84.8c-7.03-117.71-8.79-137.93-20.5-176.78
		c-12.91-42.82-29.09-63.68-62.95-77.98c-45.91-19.39-70.7-18.1-159.33-0.64c-76.36,15.04-98.8,98.81-108.77,137.71
		c-4.98,19.44-3.82,32.12,8.01,106.62c11.83,74.5,23.24,87.44,23.24,87.44s23.2,42.67,50.86,38.18l3.38-0.57l7.34-3.18
		c7.5,0.46-11.74-19.74-2.81-18.7c98.53,11.43,128.22-49.63,177.38-67.49l26.01-0.5l23.33,63.7c6.35-2.55-0.27,0.24,4.96-2.18
		L1972.25,494.48z"/>
	<path class="st13" d="M1950.93,410.58c0,0,2.62-14.54,10,4.14c10.41,26.36,0.09,107.36,0.09,107.36s-8.12,2.38-9.84,1.74
		c-1.71-0.65,3.56-34.08,3.56-34.08l-18-51.91L1950.93,410.58z"/>
	<path class="st13" d="M1889.83,424.59c-48.03-90.54,3.58-30.86-66.44-21.65c-86.02,11.32-97.43-68.38-124.32-25.82
		s33.52,172.56,33.52,172.56c20.53-0.89,49.09,2.79,58.06,2.02c89.87-7.8,61.47-4.66,111.74-12.06
		C1902.68,539.59,1903.05,449.51,1889.83,424.59z"/>
	<polygon class="st13" points="1903.95,494.74 1905.45,537.79 1961.35,521.71 1943.19,402.05 	"/>
	<g>
		<g>
			<g>
				<path class="st14" d="M1720.81,458.14c1.74,22.6,3.91,45.17,6.2,67.73c0.7,6.92,1.42,13.84,2.13,20.75
					c0.05,0.48,0.8,0.48,0.75,0c-2.4-23.16-4.77-46.33-6.78-69.53c-0.55-6.31-1.07-12.63-1.55-18.95
					C1721.53,457.66,1720.78,457.66,1720.81,458.14L1720.81,458.14z"/>
			</g>
		</g>
		<g>
			<g>
				<path class="st14" d="M1738.43,482.9c0.62,15.79,3.01,31.44,5.02,47.1c0.66,5.15,1.28,10.3,1.84,15.47
					c0.05,0.47,0.8,0.48,0.75,0c-1.79-16.5-4.47-32.9-5.99-49.43c-0.4-4.37-0.7-8.75-0.87-13.14
					C1739.16,482.42,1738.41,482.42,1738.43,482.9L1738.43,482.9z"/>
			</g>
		</g>
		<g>
			<g>
				<path class="st14" d="M1930.09,459.03c-0.26,0.03-0.08-0.09-0.03,0.25c0.03,0.19,0.12,0.39,0.17,0.58
					c0.18,0.68,0.31,1.38,0.44,2.07c0.28,1.52,0.51,3.05,0.73,4.58c0.56,3.84,1.06,7.68,1.34,11.56
					c0.78,10.99,0.47,22.03,0.83,33.04c0.19,5.83,0.56,11.65,1.46,17.42c0.07,0.48,0.8,0.27,0.72-0.2
					c-1.77-11.33-1.56-22.88-1.71-34.32c-0.12-9.45-0.6-18.78-1.98-28.13c-0.26-1.76-0.52-3.53-0.89-5.27
					c-0.09-0.44-0.3-2.43-1.08-2.33C1929.62,458.34,1929.61,459.09,1930.09,459.03L1930.09,459.03z"/>
			</g>
		</g>
		<g>
			<g>
				<path class="st14" d="M1934.13,458.17c3.1,18.19,2.2,36.78,4.31,55.07c0.56,4.88,1.34,9.73,2.49,14.5
					c0.11,0.47,0.84,0.27,0.72-0.2c-4.32-17.95-3.62-36.63-5.06-54.92c-0.38-4.91-0.92-9.8-1.75-14.66
					C1934.77,457.5,1934.05,457.7,1934.13,458.17L1934.13,458.17z"/>
			</g>
		</g>
	</g>
</g>
<polygon class="st15" points="1610.15,805.99 1681.43,869.26 1689.97,847.75 "/>
<g id="Hals_15_">
	<path id="Hals_16_" class="st0" d="M1791.22,505.6l-1.23,66.11c0,0-44.76,9.96-61.67,18.69c-27.5,14.19,185.3,111.07,227.05,62.77
		c25-28.92,2.83-53.93-26.61-65.5c-11.46-4.5-45.64-13.71-45.64-13.71l-3.27-89.03L1791.22,505.6z"/>
	<path class="st16" d="M1790.81,509.9v19.65c0,0,43.19,36.43,91.28,15.35l-0.41-44L1790.81,509.9z"/>
	<path class="st17" d="M1793.26,534.46l-1.36,40.66c0,0,10.37-0.55,8.73-15.56C1798.99,544.56,1793.26,534.46,1793.26,534.46z"/>
	<path class="st5" d="M1882.23,563.39c0,0-18.28,33.29-54.31,45.3c-3.66,1.22-37.66,0-37.66,0l23.2,2.73c0,0,20.74,7.1,21.56,7.1
		s12.83,0.27,12.83,0.27l36.02-48.3L1882.23,563.39"/>
</g>
<g id="KOPFPBEN_Kopie_3_Kopie_Kopie_Kopie_Kopie_2_Kopie_Kopie_2">
	<g id="Kopf_15_">
		<path id="Kopf_16_" class="st0" d="M1674.78,275.21c0,0,27.7,131.15,39.74,168.57c13.96,43.41,71.07,95.95,131.93,90.19
			c48.4-4.58,99.11-82.47,104.68-114.29c4.91-28.08-5.66-81.98-14.04-123.09c-5.32-26.13-42.25-56.25-75.78-81.77
			c-19.17-14.59-46.07-13.24-63.65,3.24L1674.78,275.21z"/>
		<path class="st16" d="M1826.8,216.02c0,0-66.7,105.68-116.22,122.88c-49.52,17.2-17.03,10.41-17.03,10.41l-2.7-44.58
			L1826.8,216.02z"/>
		<path class="st5" d="M1949.87,372.55c0,0-11.09,49.47-11.3,49.87c-4.43,8.67-47.18,104.82-86.73,110.29
			c0,0,35.83-1.72,72.74-58.57c17.68-27.23,26.23-52.72,26.23-52.72"/>
	</g>
	<g id="Augen_Kopie_3_Kopie_Kopie_Kopie_Kopie_2_Kopie_Kopie_2">
		<g>
			<g>
				<path class="st18" d="M1864.6,355.87c0,0,9.87-25.96,25.42-26.74c15.56-0.79,22.73,6.94,30.98,20.35c0,0-4.7,13.84-21.75,16.15
					C1876.54,368.72,1864.6,355.87,1864.6,355.87z"/>
				
					<linearGradient id="SVGID_1_" gradientUnits="userSpaceOnUse" x1="1875.176" y1="630.4511" x2="1874.9255" y2="605.5195" gradientTransform="matrix(0.9947 -0.103 0.103 0.9947 -25.2647 -68.0649)">
					<stop  offset="0" style="stop-color:#008CB2"/>
					<stop  offset="0.2227" style="stop-color:#0188AD"/>
					<stop  offset="0.5014" style="stop-color:#047B9D"/>
					<stop  offset="0.8087" style="stop-color:#086684"/>
					<stop  offset="1" style="stop-color:#0B5570"/>
				</linearGradient>
				<path class="st19" d="M1920.33,345.36c1.68,1.71,2.1-0.46,1.55,1.73c-1.94,7.6-9.52,16.19-17.65,17.03
					c-10.47,1.08-19.84-6.68-20.95-17.35c-0.46-4.4,0.52-8.05,2.55-10.9c2.9-4.05,4.68-6.13,10.83-6.77
					C1907.12,328.02,1913.2,338.13,1920.33,345.36z"/>
				
					<ellipse transform="matrix(0.9947 -0.103 0.103 0.9947 -25.3371 197.796)" class="st20" cx="1901.79" cy="344.13" rx="7.78" ry="7.98"/>
				<g>
					<path class="st21" d="M1923.52,349.86c0,0-16.07-23.01-31.45-20.59c-15.39,2.42-19.74,11.08-25.06,25.9
						c0,0,9.18,11.93,26.34,10.7C1916.2,364.23,1923.52,349.86,1923.52,349.86z"/>
					
						<linearGradient id="SVGID_00000049907303510561359910000014140871355707447480_" gradientUnits="userSpaceOnUse" x1="1326.8481" y1="631.4562" x2="1326.5889" y2="605.6552" gradientTransform="matrix(-0.9947 0.103 0.103 0.9947 3150.8108 -397.0848)">
						<stop  offset="0" style="stop-color:#008CB2"/>
						<stop  offset="0.2227" style="stop-color:#0188AD"/>
						<stop  offset="0.5014" style="stop-color:#047B9D"/>
						<stop  offset="0.8087" style="stop-color:#086684"/>
						<stop  offset="1" style="stop-color:#0B5570"/>
					</linearGradient>
					<path style="fill:url(#SVGID_00000049907303510561359910000014140871355707447480_);" d="M1874.39,349.34
						c1.1,10.66,9.09,17.85,19.56,16.76c6.78-0.7,13.36-2.1,16.71-6.38c5.01-6.41,3.57-16.22,2.09-19.7
						c-3.68-8.61-14.13-9.83-22.08-10.52c-5.83-0.5-9.41,4.54-12.71,8.24C1875.31,340.72,1873.9,344.61,1874.39,349.34z"/>
					
						<ellipse transform="matrix(0.9947 -0.103 0.103 0.9947 -25.638 196.9671)" class="st23" cx="1893.62" cy="346.63" rx="7.78" ry="7.98"/>
					<path class="st18" d="M1889.58,351.58l-11.31,8.19c-0.99,0.72-2.39,0.49-3.11-0.5l-0.27-0.37c-0.72-0.99-0.49-2.39,0.5-3.11
						l11.31-8.19c0.99-0.72,2.39-0.49,3.11,0.5l0.27,0.37C1890.8,349.46,1890.57,350.86,1889.58,351.58z"/>
				</g>
				<g>
					<path d="M1862.86,353.9c2.1-5.94,5.05-11.52,8.74-16.49c4.29-5.79,9.9-10.93,16.73-12.29c5.71-1.14,11.67,0.51,16.94,3.23
						c5.27,2.72,14.57,13.36,16.63,13.85c0,0,4.03-0.17,5.51-1.74c-1.72,2.95-3.81,6.95-6.48,8.94c-4.93-5.37-4.31-5.85-11.59-11.9
						c-5.36-4.46-12.3-8.37-19.2-7.23c-7.49,1.24-13.5,7.21-17.4,14.1c-3.48,6.14-6.58,12.61-6.72,13.21"/>
				</g>
				<path class="st21" d="M1897.06,347.71l-11.31,8.19c-0.99,0.72-2.39,0.49-3.11-0.5l-0.27-0.37c-0.72-0.99-0.49-2.39,0.5-3.11
					l11.31-8.19c0.99-0.72,2.39-0.49,3.11,0.5l0.27,0.37C1898.28,345.59,1898.06,346.99,1897.06,347.71z"/>
			</g>
			<g>
				<g>
					<path class="st18" d="M1789.22,362.72c0,0-16.07-23.01-31.45-20.59c-15.39,2.42-19.74,11.08-25.06,25.9
						c0,0,9.18,11.93,26.34,10.7C1781.91,377.09,1789.22,362.72,1789.22,362.72z"/>
					
						<linearGradient id="SVGID_00000026161323260830426950000007446528467206856101_" gradientUnits="userSpaceOnUse" x1="1461.7537" y1="630.4136" x2="1461.4943" y2="604.6126" gradientTransform="matrix(-0.9947 0.103 0.103 0.9947 3150.8108 -397.0848)">
						<stop  offset="0" style="stop-color:#008CB2"/>
						<stop  offset="0.2227" style="stop-color:#0188AD"/>
						<stop  offset="0.5014" style="stop-color:#047B9D"/>
						<stop  offset="0.8087" style="stop-color:#086684"/>
						<stop  offset="1" style="stop-color:#0B5570"/>
					</linearGradient>
					<path style="fill:url(#SVGID_00000026161323260830426950000007446528467206856101_);" d="M1740.09,362.21
						c1.1,10.66,9.09,17.85,19.56,16.76c6.78-0.7,13.36-2.1,16.71-6.38c5.01-6.41,3.57-16.22,2.09-19.7
						c-3.68-8.61-14.13-9.83-22.08-10.52c-5.83-0.5-9.41,4.54-12.71,8.24C1741.02,353.58,1739.6,357.47,1740.09,362.21z"/>
					
						<ellipse transform="matrix(0.9947 -0.103 0.103 0.9947 -27.6783 183.1976)" class="st23" cx="1759.33" cy="359.5" rx="7.78" ry="7.98"/>
				</g>
				<g>
					<path d="M1790.53,360.52c-3.26-5.25-7.28-9.98-11.89-13.99c-5.37-4.66-11.91-8.44-18.87-8.35c-5.82,0.07-11.32,2.85-15.93,6.52
						c-4.6,3.67-11.56,15.71-13.48,16.61c0,0-3.98,0.65-5.75-0.55c2.29,2.47,5.14,5.87,8.16,7.23c3.74-6.13,3.03-6.46,8.94-13.72
						c4.35-5.35,10.34-10.49,17.33-10.8c7.59-0.34,14.68,4.15,19.89,9.95c4.14,4.6,8.04,9.5,9.03,10.91
						c0.12,0.17,0.2,0.29,0.23,0.35"/>
				</g>
				<path class="st18" d="M1755.29,364.44l-11.31,8.19c-0.99,0.72-2.39,0.49-3.11-0.5l-0.27-0.37c-0.72-0.99-0.49-2.39,0.5-3.11
					l11.31-8.19c0.99-0.72,2.39-0.49,3.11,0.5l0.27,0.37C1756.5,362.32,1756.28,363.72,1755.29,364.44z"/>
			</g>
		</g>
		<path class="st25" d="M1867.39,361.62c0.66,1.03,14.28,13.34,24.99,10.85c10.72-2.48,5.85,3.1,0.07,3.29
			C1873.31,376.37,1867.39,361.62,1867.39,361.62z"/>
		<path class="st25" d="M1793.1,368.63c-0.43,1.14-11.24,15.98-22.24,15.75c-11-0.23-5.09,4.23,0.61,3.23
			C1790.33,384.28,1793.1,368.63,1793.1,368.63z"/>
		
			<linearGradient id="SVGID_00000121985719501237495450000010544847048550817199_" gradientUnits="userSpaceOnUse" x1="2363.6565" y1="583.7183" x2="2429.1458" y2="583.7183" gradientTransform="matrix(-0.9947 0.103 0.103 0.9947 4068.0881 -492.1085)">
			<stop  offset="0" style="stop-color:#FFB699;stop-opacity:0"/>
			<stop  offset="0.0426" style="stop-color:#FDAF91;stop-opacity:0.0818"/>
			<stop  offset="0.1473" style="stop-color:#FBA383;stop-opacity:0.2831"/>
			<stop  offset="0.2788" style="stop-color:#F99C7B;stop-opacity:0.5359"/>
			<stop  offset="0.5203" style="stop-color:#F99A79"/>
			<stop  offset="0.7469" style="stop-color:#F99C7B;stop-opacity:0.5276"/>
			<stop  offset="0.866" style="stop-color:#FBA383;stop-opacity:0.2793"/>
			<stop  offset="0.9599" style="stop-color:#FDAF91;stop-opacity:0.0836"/>
			<stop  offset="1" style="stop-color:#FFB699;stop-opacity:0"/>
		</linearGradient>
		<path style="fill:url(#SVGID_00000121985719501237495450000010544847048550817199_);" d="M1776.28,328.07
			c1.51,6.63,2.84,9.58-8.4,8.28c-11.25-1.3-17.47-3.75-23.95,1.25c-6.48,4.99-14.06,15.24-19.82,15.22
			c-5.76-0.02-14.99-5.65-10-11.1c4.99-5.46,14.92-16.79,27.32-20.32C1767.61,313.95,1776.28,328.07,1776.28,328.07z"/>
		
			<linearGradient id="SVGID_00000006667094559604909610000002354421452916298664_" gradientUnits="userSpaceOnUse" x1="1635.6455" y1="580.5806" x2="1701.1348" y2="580.5806" gradientTransform="matrix(0.9947 -0.103 0.103 0.9947 176.8871 -89.0065)">
			<stop  offset="0" style="stop-color:#FFB699;stop-opacity:0"/>
			<stop  offset="0.0426" style="stop-color:#FDAF91;stop-opacity:0.0818"/>
			<stop  offset="0.1473" style="stop-color:#FBA383;stop-opacity:0.2831"/>
			<stop  offset="0.2788" style="stop-color:#F99C7B;stop-opacity:0.5359"/>
			<stop  offset="0.5203" style="stop-color:#F99A79"/>
			<stop  offset="0.7469" style="stop-color:#F99C7B;stop-opacity:0.5276"/>
			<stop  offset="0.866" style="stop-color:#FBA383;stop-opacity:0.2793"/>
			<stop  offset="0.9599" style="stop-color:#FDAF91;stop-opacity:0.0836"/>
			<stop  offset="1" style="stop-color:#FFB699;stop-opacity:0"/>
		</linearGradient>
		<path style="fill:url(#SVGID_00000006667094559604909610000002354421452916298664_);" d="M1863.7,315.86
			c-0.12,6.8-0.82,9.96,9.92,6.38c10.74-3.58,16.33-7.25,23.69-3.69s16.89,12.04,22.52,10.84s13.51-8.6,7.51-12.92
			c-6-4.32-18.04-13.38-30.91-14.29C1869.28,300.26,1863.7,315.86,1863.7,315.86z"/>
	</g>
	<g id="Mund_8_">
		<g>
			<path class="st28" d="M1793.58,450.89l-2.27,3.94c0,0,19.33,20.64,25.79,21.41s36.08,3.69,44.68-6.67
				c8.6-10.36,20.08-26.59,20.08-26.59s-34.8,1.75-35.8,2.06S1793.58,450.89,1793.58,450.89z"/>
			<path class="st18" d="M1792.28,452.26c0,0,4.33,7.99,13.26,10.77c8.93,2.78,34.76-0.1,41.24-1.19
				c6.47-1.08,25.24-7.26,30.87-16.49S1792.28,452.26,1792.28,452.26z"/>
			<path class="st29" d="M1782.73,453.45c0,0,7.7-6.94,36.69-12.34c7.47-1.39,13.77,1.11,14.88,0.62c3.05-1.34,11.37-3.71,13.06-3.8
				c32.66-1.71,34.5,5.04,34.5,5.04s-28.8,9.93-46.67,11.32C1811.31,456.15,1782.73,453.45,1782.73,453.45z"/>
			<path class="st29" d="M1782.35,453.7c3.67-0.33,1.37-4.85,14.16,2.09c12.62,6.85,15.69,7.47,29.58,8.5
				c16.46,1.22,28.69-3.13,33.44-6.91c4.75-3.78,21.19-19.43,17.54-14.93c-1.28,1.57,7.41-2,3.54,4.37
				c-3.87,6.37-9.48,14.76-15.23,20.91c-5.74,6.15-12.86,12.58-35.98,11.89s-30.86-14.63-37.26-20.75
				C1786.11,453.08,1782.35,453.7,1782.35,453.7z"/>
		</g>
		<path class="st30" d="M1806,449.6c0,0,5.57-0.77,10.6-0.96c6.22-0.23,10.59,0.96,5.53,1.69S1806,449.6,1806,449.6z"/>
		<path class="st30" d="M1821.94,476.12c0,0,2.59-0.37,6.01-0.62c6.03-0.44,6.24-0.18,6.11-0.07
			C1830.79,478.56,1821.88,476.15,1821.94,476.12z"/>
		<g>
			<path class="st29" d="M1882.86,446.34c-1.68-1.5-2.88-3.53-3.39-5.72c-0.2-0.87-0.3-1.81,0.04-2.64
				c0.11-0.27,0.37-0.56,0.64-0.44c0.16,0.07,0.22,0.25,0.27,0.41c0.91,2.91,1.33,6.11,3.28,8.44
				C1883.63,446.54,1882.93,446.43,1882.86,446.34"/>
		</g>
		<g>
			<path class="st29" d="M1781.43,458.08c1.33-1.81,2.09-4.04,2.15-6.29c0.02-0.89-0.08-1.83-0.58-2.58
				c-0.16-0.24-0.48-0.47-0.72-0.3c-0.14,0.1-0.17,0.29-0.18,0.46c-0.29,3.03-0.05,6.25-1.48,8.94
				C1780.71,458.43,1781.37,458.18,1781.43,458.08"/>
		</g>
	</g>
	<g id="Brauen_Kopie_3_Kopie_Kopie_Kopie_Kopie_2_Kopie_Kopie_2">
		<path class="st31" d="M1847.35,308.45c0.76-0.59,12.42-16.39,24.87-20.17c13.37-4.06,16.9-2.57,28.78-0.31
			c12.59,2.4,24.92,12.13,24.92,12.13s2.93,2.47-11.5-1.79c-6.1-1.8-29.74-7-44.21,0.26c-6.32,3.17-17.42,10.51-19.04,11.85
			C1848.59,312.54,1847.35,308.45,1847.35,308.45z"/>
		<path class="st31" d="M1788.45,324.28c-0.85-0.46-14.91-14.16-27.8-15.88c-13.85-1.84-17.1,0.2-28.45,4.35
			c-12.04,4.4-22.63,16-22.63,16s-2.49,2.92,11.06-3.63c5.73-2.77,28.21-11.72,43.67-6.9c6.75,2.11,18.89,7.55,20.71,8.61
			C1787.88,328.52,1788.45,324.28,1788.45,324.28z"/>
	</g>
	<g id="sprossen_16_">
		
			<ellipse transform="matrix(0.9947 -0.103 0.103 0.9947 -52.3641 190.5587)" class="st32" cx="1818.23" cy="602.11" rx="2.25" ry="1.84"/>
		
			<ellipse transform="matrix(0.9947 -0.103 0.103 0.9947 -52.8246 188.5217)" class="st32" cx="1798.28" cy="605.55" rx="2.25" ry="1.84"/>
		
			<ellipse transform="matrix(0.9947 -0.103 0.103 0.9947 -51.5014 188.6001)" class="st32" cx="1799.7" cy="592.78" rx="2.25" ry="1.84"/>
		
			<ellipse transform="matrix(0.9947 -0.103 0.103 0.9947 -52.1611 187.4777)" class="st32" cx="1788.51" cy="598.6" rx="2.25" ry="1.84"/>
		
			<ellipse transform="matrix(0.9947 -0.103 0.103 0.9947 -30.553 186.6057)" class="st33" cx="1790.87" cy="389.02" rx="2.25" ry="1.74"/>
		
			<ellipse transform="matrix(0.9947 -0.103 0.103 0.9947 -32.1071 185.9149)" class="st33" cx="1783.41" cy="403.72" rx="2.25" ry="1.74"/>
		
			<ellipse transform="matrix(0.9947 -0.103 0.103 0.9947 -31.2038 184.7872)" class="st33" cx="1772.95" cy="394.41" rx="2.56" ry="2.35"/>
	</g>
	<g id="sprossen_15_">
		
			<ellipse transform="matrix(0.9947 -0.103 0.103 0.9947 -51.5346 196.4209)" class="st32" cx="1875.39" cy="597.01" rx="2.25" ry="1.84"/>
		
			<ellipse transform="matrix(0.9947 -0.103 0.103 0.9947 -51.3523 198.5014)" class="st32" cx="1895.61" cy="596.29" rx="2.25" ry="1.84"/>
		
			<ellipse transform="matrix(0.9947 -0.103 0.103 0.9947 -50.116 198.0234)" class="st32" cx="1891.61" cy="584.08" rx="2.25" ry="1.84"/>
		
			<ellipse transform="matrix(0.9947 -0.103 0.103 0.9947 -29.5563 193.539)" class="st33" cx="1858.48" cy="382.84" rx="2.25" ry="1.74"/>
		
			<ellipse transform="matrix(0.9947 -0.103 0.103 0.9947 -30.826 194.6705)" class="st33" cx="1868.8" cy="395.7" rx="2.25" ry="1.74"/>
		
			<ellipse transform="matrix(0.9947 -0.103 0.103 0.9947 -29.6219 195.4693)" class="st33" cx="1877.13" cy="384.44" rx="2.56" ry="2.35"/>
	</g>
	<g id="Rouge_8_">
		<path class="st34" d="M1786.42,414.9c1.24,11.92-15.5,23.59-31.52,25.25c-16.02,1.66-33.43-17.16-34.67-29.09
			c-1.24-11.92,7.81-12.79,23.83-14.44C1760.08,394.96,1785.18,402.97,1786.42,414.9z"/>
		<path class="st34" d="M1879.49,406.63c1.24,11.92,20.01,19.91,36.02,18.25c16.02-1.66,29.2-23.65,27.97-35.58
			c-1.24-11.92-10.26-10.91-26.28-9.25S1878.26,394.7,1879.49,406.63z"/>
	</g>
	<g id="Ohren_8_">
		<g>
			<g>
				<path class="st0" d="M1947.49,377.3c2.05,19.79,2.61,43.09,3.29,43.72c15.01,14.01,41.99-27.7,39.94-47.49
					c-2.05-19.79-12.42-29.03-25.91-27.63C1951.32,347.3,1945.44,357.51,1947.49,377.3z"/>
			</g>
		</g>
		<g>
			<g>
				<path class="st0" d="M1714.46,400.23c2.05,19.79,12.67,42.31-0.82,43.71c-27.69,2.87-45.21-21.96-47.26-41.74
					c-2.05-19.79,6.23-28.08,19.72-29.48C1699.59,371.32,1712.41,380.44,1714.46,400.23z"/>
			</g>
			<path class="st16" d="M1705.75,390.25c0,0-13.54-19.45-24.96-7.84c-11.42,11.61-4.32,21.85-4.32,21.85s11.28-18.62,9.86-5.41
				c-1.81,16.92,21.07,31.29,21.07,31.29s-16.58-27.64-7.46-29.68C1709.06,398.41,1705.75,390.25,1705.75,390.25z"/>
			<path class="st16" d="M1950,370.3c0,0,9.26-21.81,22.82-12.79c13.56,9.02,8.71,20.5,8.71,20.5s-14.86-15.91-10.76-3.27
				c5.24,16.19-14.21,34.94-14.21,34.94s10.56-30.45,1.22-30.58C1948.43,378.97,1950,370.3,1950,370.3z"/>
		</g>
	</g>
	<path id="nase_8_" class="st16" d="M1809.6,412.72c-0.57-0.48-0.22-1.41,0.52-1.39c4.24,0.12,14.13,0.32,20.12-0.3
		c8.21-0.85,17.02-2.53,20.83-3.3c0.72-0.15,1.23,0.69,0.77,1.26c-2.29,2.82-8.19,8.36-20.03,9.74
		C1819.96,420.12,1812.58,415.26,1809.6,412.72z"/>
	<g>
		<g id="Haareoben_10_">
			<g>
				<path class="st12" d="M1823.73,185.35c16.68,6.99,34.95,9.94,51.07,18.13c25.65,13.02,69.82,21.91,83.39,47.28
					c14.7,27.48,25.07,44.87,6.35,94.55c-3.46-17.07-14.53-26.57-28.34-37.19c-13.81-10.62-40.08-17.62-53.22-29.06
					c-13.18-11.47-30.94-31.08-37.8-47.11c-5.31-12.4-11.3-20.85-19.75-31.7c-17.05-21.9-60.28-2.3-82.78,0.94
					c-25.87,3.72-26.3-3.66-48.93,9.42c-22.63,13.07-46.44,81.05-45.86,107.18c0,0-0.02,5.31,0,6.97
					c0.1,11.21,7.83,48.37-16.88,80.01c-8.64,11.06,28.35-15.01,28.55-34.23"/>
			</g>
			<g>
				<path class="st12" d="M1685.39,387.24c0.28-21.59,4.71,12.19,20.46-2.58c20.35-19.08-11.96-58.22,11.8-72.83
					c36.53-22.46,126.6-86.91,128.41-129.76c-5.85,4.23-11.97,7.98-18.31,11.35c-22,11.7-46.52,18.85-70.52,26.12
					c-13.72,4.16-27.55,8.48-39.87,15.82c-20.26,12.06-42.41,20.05-48.47,42.84c-6.06,22.79,4.05,60.12,15.65,80.65
					c3.15-6.78-1.23,36.72,1.93,29.94"/>
			</g>
			<g>
				<g>
					<path class="st12" d="M1660.4,419.43c-4.76-13.39-8.51-27.14-10.89-41.15c-2.1-12.36-3.11-24.92-2.85-37.46
						c0.23-11.17,1.47-22.31,3.79-33.24c2.11-9.95,5.1-19.72,8.91-29.15c3.53-8.72,7.78-17.16,12.63-25.22
						c4.48-7.43,9.47-14.55,14.92-21.3c4.86-6.02,10.08-11.76,15.61-17.18c4.75-4.66,9.74-9.09,14.94-13.23
						c4.11-3.28,8.37-6.38,12.79-9.24c3-1.93,6.07-3.79,9.3-5.33c0.47-0.22,1.16-0.53,1.42-0.64c0.88-0.36,0.49-1.81-0.4-1.45
						c-2.91,1.2-5.66,2.77-8.35,4.41c-4.21,2.56-8.25,5.38-12.18,8.35c-5.13,3.89-10.06,8.04-14.77,12.42
						c-5.54,5.15-10.8,10.62-15.72,16.37c-5.55,6.47-10.69,13.3-15.34,20.45c-5.1,7.82-9.61,16.02-13.45,24.53
						c-4.13,9.15-7.5,18.64-10.01,28.36c-2.75,10.64-4.48,21.54-5.22,32.51c-0.82,12.22-0.4,24.51,1.1,36.66
						c1.69,13.69,4.72,27.19,8.8,40.37c1.1,3.55,2.28,7.07,3.52,10.56C1659.28,420.73,1660.73,420.34,1660.4,419.43L1660.4,419.43z"
						/>
				</g>
			</g>
			<g>
				<path class="st14" d="M1858.89,200.08c6.07,19.37,25.65,37.86,41.94,49.98c20.88,15.53,34.57,14.55,39.37,14.58
					c-8.62-50.17-68.44-45.45-81.97-65.59"/>
			</g>
			<path class="st14" d="M1647.63,334.63c0,0,22.21,47.31,26.02,105.62c3.81,58.3,64.82,110.21,64.82,110.21
				s-29.67,4.58-53.03-27.71C1665.09,494.63,1647.63,334.63,1647.63,334.63z"/>
			<path class="st31" d="M1648.74,314.03c5.23,50.49,40.39,61.52,40.39,61.52l18.38,19.22c0,0,9.83-22.28,7.21-34.36
				c-2.62-12.07-6.22-20.34-6.42-30.2c-0.2-9.86,6.26-16.42,6.26-16.42s-79.88,10.2-32.63-58.08S1643.51,263.55,1648.74,314.03z"/>
			<path class="st31" d="M1941.94,207.25c0,0-21.09,45.4,17.3,87.51c38.38,42.12,38.44,89.02,38.44,89.02s-7.4-92.52-30.74-145.79
				C1955.44,211.75,1941.94,207.25,1941.94,207.25z"/>
			<path class="st35" d="M1718.07,200.25c0,0-27.13,11.72-36.53,30.51c-9.39,18.79-14.41,36.28-3.62,19.81
				c12.24-18.68,31.91-32.06,31.91-32.06s45.05-36.67,26.86-24.71C1729.76,198.37,1718.07,200.25,1718.07,200.25z"/>
			<g>
				<g>
					<g>
						<path class="st12" d="M1694.09,209.61c-2.56,1.29-4.67,3.58-6.56,5.68c-2.79,3.09-5.33,6.42-7.77,9.79
							c-5.19,7.18-10,14.7-14.17,22.52c-1.41,2.64-2.82,5.35-3.76,8.2c-2.22,6.76-3.8,13.82-5.2,20.8
							c-2.88,14.37-4.42,29.01-4.55,43.67c-0.13,14.4,1.2,29.67,9.33,42.01c0.45,0.69,1.31,0.95,2.05,0.54
							c1.86-1.04,2.81-3.39,1.97-5.4c-0.32-0.75-0.99-1.27-1.85-1.05c-0.71,0.19-1.36,1.1-1.05,1.85c0.34,0.8,0.21,1.57-0.59,2.01
							c0.68,0.18,1.37,0.36,2.05,0.54c-7.07-10.73-8.74-23.8-8.91-36.38c-0.19-14.23,1.06-28.51,3.59-42.51
							c1.27-7.07,2.88-14.07,4.81-20.99c0.99-3.54,2-6.47,3.62-9.68c3.81-7.54,8.36-14.74,13.17-21.67
							c2.64-3.8,5.39-7.54,8.42-11.03c2.02-2.33,4.23-4.94,6.91-6.29C1697.33,211.33,1695.81,208.74,1694.09,209.61L1694.09,209.61z
							"/>
					</g>
				</g>
				<path class="st36" d="M1836.05,183.52c0,0-1.15,76.25,37.04,95.34c38.19,19.09,74.52,28.08,74.52,28.08l-93.8-103.04
					L1836.05,183.52z"/>
				<g>
					<g>
						<path class="st12" d="M1696.41,211.01c21.84-14.55,46.23-25.81,72.31-29.82c17.97-2.76,36.52-1.91,54.01,3.15
							c6.5,1.88,12.84,4.33,18.88,7.39c4.41,2.24,8.36,5.01,12.52,7.63c4.44,2.81,9.52,4.68,14.43,6.48
							c7.02,2.57,14.16,4.81,21.3,7.02c16.69,5.16,33.51,9.97,49.96,15.88c7.29,2.62,14.55,5.43,21.5,8.88
							c5.13,2.54,10.41,5.43,14.47,9.54c1.43,1.45,2.75,3.11,3.46,5.04c0.3,0.8,0.49,1.64,0.54,2.5c0.13,2.62-0.14,5.28-0.04,7.91
							c0.42,11.11,3.39,21.76,7.62,31.98c3.63,8.78,8.13,17.29,10.72,26.46c1.31,4.64,2,9.36,1.96,14.18
							c-0.06,7.43-0.33,14.86-0.72,22.28c-0.76,14.49-1.98,28.96-2.67,43.46c-0.49,10.39-1.57,20.65-2.84,30.97
							c-1.37,11.11-2.72,22.25-3.08,33.44c-0.32,10.08,0,20.56,3.12,30.24c1.28,3.97,3.07,7.77,5.6,11.1
							c0.58,0.76,1.88,0.01,1.3-0.76c-5.77-7.61-7.65-17.45-8.31-26.77c-0.79-11.15,0.09-22.38,1.26-33.47
							c1.13-10.68,2.71-21.31,3.69-32c0.53-5.81,0.69-11.64,1-17.46c0.4-7.31,0.9-14.62,1.39-21.93c0.48-7.1,0.94-14.2,1.26-21.31
							c0.32-7,0.83-14.14,0.44-21.15c-0.52-9.26-3.99-17.91-7.69-26.29c-4.24-9.6-8.6-19.15-10.84-29.46
							c-1.32-6.09-1.9-12.31-1.75-18.54c0.06-2.5,0.11-4.61-0.99-6.9c-2.08-4.34-6.36-7.48-10.31-10
							c-5.88-3.75-12.32-6.61-18.76-9.23c-16.08-6.54-32.78-11.48-49.37-16.52c-7.86-2.39-15.72-4.76-23.52-7.33
							c-6.15-2.02-12.34-4.11-18.23-6.82c-4.16-1.92-7.7-4.64-11.61-7c-5.17-3.13-10.66-5.72-16.3-7.88
							c-15.7-6.01-32.7-8.44-49.47-7.63c-23.86,1.15-46.97,8.78-67.94,19.97c-6.55,3.49-12.9,7.35-19.07,11.46
							C1694.85,210.25,1695.6,211.55,1696.41,211.01L1696.41,211.01z"/>
					</g>
				</g>
			</g>
			<path class="st36" d="M1653.74,329.5c0,0,25.07,152.44,24.75,175.18c-0.19,14.01-9.54,31.39-9.54,31.39"/>
			<path class="st36" d="M1652.69,543.32"/>
			<path class="st36" d="M1652.83,380"/>
			<g>
				<path class="st14" d="M1685.06,291.5c-1.93-3.98-1.88-8.64-1.29-13.02c2.54-18.73,14.23-35.31,28.94-47.17
					c6.36-5.13,13.3-9.5,20.22-13.85c17.76-11.17,35.53-22.35,53.87-32.53c2.03-1.13,4.13-2.26,6.44-2.52
					c2.31-0.26,4.89,0.58,6.04,2.59c1.86,3.26-0.83,7.21-3.55,9.8c-7.56,7.19-16.56,12.65-25.39,18.2
					c-23.41,14.7-46.59,30.71-63.77,52.37c-4.23,5.33-8.09,11-12.91,15.81c-3.03,3.02-6.43,5.68-10.1,7.9"/>
			</g>
			<g>
				<g>
					<path class="st14" d="M1702.55,373.33c-10.39-18.6-19-40.82-14.56-62.45c2.71-13.22,10.47-24.46,20.8-32.95
						c3.72-3.05,7.72-5.74,11.83-8.22c9.37-5.66,19.19-10.46,28.97-15.36c6.48-3.25,12.98-6.55,19.11-10.42
						c2.41-1.52,4.53-3.48,6.53-5.49c6.03-6.09,11.24-13.02,16.22-19.98c5.71-7.98,11.07-16.22,16.09-24.65
						c4.06-6.81,8.06-13.76,11.2-21.06c0.49-1.15,0.96-2.31,1.37-3.49c0.16-0.46-0.57-0.65-0.72-0.2
						c-2.34,6.76-6.01,13.13-9.54,19.32c-4.85,8.49-10.08,16.77-15.62,24.82c-5.2,7.56-10.64,15.03-16.81,21.84
						c-2.2,2.43-4.5,4.81-7.08,6.83c-1.74,1.36-3.67,2.45-5.58,3.55c-3.2,1.87-6.46,3.63-9.75,5.33
						c-15.11,7.84-31.19,14.6-44.76,25.07c-10.12,7.81-18.26,18.12-21.89,30.52c-5.71,19.51,0.15,40.28,8.69,58.02
						c1.52,3.16,3.16,6.27,4.87,9.34C1702.14,374.13,1702.79,373.75,1702.55,373.33L1702.55,373.33z"/>
				</g>
			</g>
			<g>
				<g>
					<path class="st14" d="M1838.77,169.71c2.3,14.13,6.11,28.04,11.13,41.45c5.18,13.81,11.69,27.29,20.31,39.31
						c3.92,5.47,8.3,10.64,13.28,15.17c6.18,5.62,13.14,10.35,20.26,14.68c7.4,4.49,15.04,8.56,22.57,12.83
						c3.37,1.91,6.78,3.8,9.95,6.04c2.91,2.06,5.66,4.36,8.28,6.78c11.17,10.3,20.84,22.89,27.79,36.42
						c0.73,1.42,1.42,2.87,2.08,4.33c0.2,0.44,0.84,0.06,0.65-0.38c-6-13.43-15.12-25.79-25.31-36.32
						c-4.83-4.99-10.09-9.71-16.01-13.4c-7.22-4.5-14.83-8.4-22.22-12.6c-7.52-4.28-14.95-8.79-21.79-14.11
						c-5.68-4.42-10.77-9.43-15.28-15.04c-9.32-11.63-16.32-25.09-21.88-38.86c-5.43-13.44-9.57-27.44-12.25-41.68
						c-0.3-1.59-0.58-3.19-0.84-4.79C1839.42,169.04,1838.7,169.24,1838.77,169.71L1838.77,169.71z"/>
				</g>
			</g>
			<g>
				<g>
					<path class="st14" d="M1943.84,276.96c4.35,14.28,13.06,26.61,22,38.37c9.15,12.04,19.34,23.99,25.45,37.97
						c3.17,7.27,5.18,15,5.56,22.93c0.39,7.98-0.4,15.97-1.24,23.9c-0.83,7.86-1.61,15.67-1.81,23.57
						c-0.21,8.2-0.73,16.39-1.04,24.59c-0.58,15.58,0.06,31.17,5.21,46.03c0.69,2,1.46,3.97,2.28,5.92c0.18,0.44,0.91,0.25,0.72-0.2
						c-3.17-7.55-5.37-15.45-6.52-23.56c-1.09-7.69-1.27-15.47-1.1-23.22c0.18-8.05,0.7-16.08,1.01-24.13
						c0.16-4.07,0.17-8.15,0.41-12.21c0.23-3.91,0.63-7.81,1.04-11.7c0.84-7.99,1.81-15.99,1.87-24.04
						c0.06-7.7-1.03-15.06-3.49-22.36c-4.87-14.49-14.61-26.78-23.81-38.75c-9.13-11.9-18.61-24.01-24.06-38.14
						c-0.66-1.7-1.25-3.42-1.78-5.16C1944.42,276.3,1943.69,276.49,1943.84,276.96L1943.84,276.96z"/>
				</g>
			</g>
			<g>
				<g>
					<path class="st14" d="M1653.21,276.76c-1.36,5.93-2.54,11.91-3.58,17.9c-1.14,6.56-2.36,13.29-2.36,19.97
						c0,3.19,0.79,6.32,1.24,9.47c0.65,4.58,1.14,9.18,1.53,13.79c0.81,9.57,1.23,19.16,1.63,28.75
						c0.82,19.19,1.41,38.57,5.05,57.49c3.73,19.43,12.36,37.42,19.73,55.66c7.59,18.77,14.3,38.25,14.59,58.71
						c0.04,2.6-0.03,5.19-0.19,7.79c-0.03,0.48,0.72,0.48,0.75,0c1.23-20.23-4.06-39.8-11.22-58.54
						c-3.65-9.56-7.72-18.96-11.57-28.45c-3.68-9.08-7.36-18.24-9.72-27.77c-4.61-18.61-5.5-37.98-6.34-57.05
						c-0.82-18.61-1.14-37.42-4.36-55.81c-1.05-6.01,0.15-12.42,1.07-18.38c1.04-6.76,2.33-13.49,3.78-20.17
						c0.23-1.05,0.46-2.09,0.7-3.14C1654.04,276.49,1653.31,276.29,1653.21,276.76L1653.21,276.76z"/>
				</g>
			</g>
		</g>
		<path class="st12" d="M1985,423.91c0,0-19.22,31.62,4.22,40.72c23.44,9.09,34.22,1.94,34.22,1.94s-27.73-8.1-32.39-21.34
			C1986.39,431.99,1985,423.91,1985,423.91z"/>
		<path class="st12" d="M1748.74,178.98c0,0,4.69-22.3,34.72-18.41c30.03,3.88,45.9,10.06,45.9,10.06s-28.66-6.5-45.59-3.1
			c-16.93,3.4-35.66,17.27-35.66,17.27L1748.74,178.98z"/>
		<path class="st31" d="M1757.7,178.05c0,0-13.04,31.67-27.85,37.04c-14.81,5.37,34.73-9.08,36.03-22.94s1.63-16.08,1.63-16.08
			L1757.7,178.05"/>
		<path class="st25" d="M1706.21,403.97c0,0,1.76,24.92,8.82,41.47c7.06,16.55,14.97,29.31,21.52,36.87
			c6.54,7.55-10.93-14.1-15.44-33.79C1716.6,428.82,1706.21,403.97,1706.21,403.97z"/>
	</g>
</g>
<g id="Hose_Kopie_Kopie_2_Kopie_Kopie_2">
	<g>
		<path class="st37" d="M1607.15,771.61c16.92-64.4,88.13-173.39,88.13-173.39l47.23-14.91c0,0-25.49,24.66-44.76,56.76
			c-12.28,20.47-49.39,106.16-66.59,146.27c-0.43,1-24.15-13.37-24.15-13.37"/>
		<path class="st38" d="M1669.91,1192.83c-2.85,2.14,18.34,162.74,35.75,331.43c9.28,89.91,22.59,182.27,25.79,257.07
			c0.02,0.38-10.78,2.33-10.64,3.14c4.97,29.87,16.99,68.09,19.75,75.35c0,0,28.48,28.02,95.28,2.97
			c0.23-0.09,3.68-30.02,11.05-76.14c0.23-1.47-9.72-0.26-9.69-1.77c1.43-66.05,4.09-166.69,5.95-262.26
			c3-154.33,5.78-302.91,5.78-302.91L1669.91,1192.83z"/>
		<path class="st39" d="M1731.45,1781.33c-0.37-0.08-10.78,2.33-10.64,3.14c4.97,29.87,16.99,68.09,19.75,75.35
			c0,0,28.48,28.02,95.28,2.97c0.23-0.09,3.68-30.02,11.05-76.14c0.23-1.47-8.22-2.15-9.69-1.77
			C1809.64,1791.97,1782.62,1792.79,1731.45,1781.33z"/>
		<path class="st38" d="M2031.23,1216.16c0.46-6.96,34.77,347.15,33.98,560.22c0,0.38,0,0.76,0,1.14c0,0.83,7.78,2.98,7.77,3.8
			c-0.17,30.28-5.98,69.92-7.56,77.53c0,0-23.68,32.18-93.6,18.03c-0.25-0.05-8.4-29.06-22.98-73.42c-0.46-1.41,8.4-4.51,8.12-6
			c-9.45-51.7-12.42-152.42-26.98-228.99c-33.29-175.11-81.6-341.12-81.6-341.12L2031.23,1216.16z"/>
		<g>
			<path class="st38" d="M1713.57,1016.11c-20.71,50.22-34.92,102.9-43.78,177.11c78.13,37.2,168.13,37.77,254.64,35.45
				c36.01-0.97,72.39-2.36,107.16-11.77c-11.13-62.31-49.98-214.64-51.67-215.51c-0.1-0.05-0.39,1.07-0.55,1.09
				c-3.82,0.55-9.05,2.82-9.28,2.18c-8.47,3.59-44.9,11.81-119.53,9.82c-38.86-1.03-86.1-1.5-133.58-6.14
				c-0.03,0-0.68,3.97-0.68,3.89"/>
		</g>
	</g>
	<path class="st40" d="M1738.41,1061.29c0,0,0.58,0.13,1.64,0.38c13.4,3.09,104.3,23.88,108.47,20.09c4.5-4.09,3.68-9.82,3.68-9.82
		l-113.29-23.71L1738.41,1061.29"/>
	<g>
		<path class="st41" d="M1738.41,1061.29c0,0,0.58,0.13,1.64,0.38c13.4,3.09,110.03,25.11,114.2,21.32
			c4.5-4.09,13.51-57.31,13.51-57.31l-128.84,22.55L1738.41,1061.29"/>
		<path class="st41" d="M1882.91,1073.98c0,0,0.57,3.85,1.64,4.09c13.4,3.09,107.58-7.26,111.75-11.05
			c4.5-4.09-11.05-51.99-11.05-51.99l-118.71,11.87l17.19,50.76"/>
	</g>
	<g>
		<path class="st41" d="M1897.51,1414.55c0,0,62.77,265.8,76.41,292.55c13.64,26.74,28.38,85.69,28.38,85.69l-46.12,5.46
			C1956.18,1798.25,1911.15,1444.57,1897.51,1414.55z"/>
		<g>
			<g>
				<path class="st42" d="M1857.69,1233.9c11.65,35.46,22.48,71.18,32.46,107.14c10.02,36.14,19.19,72.51,27.5,109.08
					c8.27,36.39,15.68,72.98,22.23,109.72c6.62,37.14,12.37,74.43,17.22,111.85c4.79,37.01,8.72,74.13,11.77,111.33
					c0.38,4.65,0.75,9.3,1.1,13.95c0.15,1.91,3.15,1.93,3,0c-2.85-37.39-6.57-74.72-11.18-111.93
					c-4.58-36.99-10.02-73.88-16.32-110.62c-6.37-37.14-13.62-74.12-21.75-110.92c-8.08-36.62-17.03-73.05-26.83-109.24
					s-20.46-72.16-31.96-107.85c-1.43-4.44-2.88-8.88-4.33-13.31C1859.98,1231.27,1857.09,1232.06,1857.69,1233.9L1857.69,1233.9z"
					/>
			</g>
		</g>
	</g>
	<path class="st43" d="M1968.58,1799.93l-10.22,5.15c0,0,18.28,62.22,22.92,74.23"/>
	<path class="st39" d="M2065.46,1779.07c0.36-0.13,10.98,0.99,10.95,1.81c-1.27,30.25-8.51,69.66-10.37,77.21
		c0,0-25.21,36.24-94.58,19.57c-0.24-0.06-9.96-29.63-22.92-74.5c-0.41-1.43,6.14-5.11,7.64-4.91
		C1984.41,1801.91,2016.08,1796.72,2065.46,1779.07z"/>
	<path class="st43" d="M1739.23,1784.33l-10.37,2.73c0,0,13.64,73.14,18.56,78.05"/>
	<g>
		<g class="st44">
			<path class="st40" d="M1847.84,1231.44c-3.82-1.23-42.3-3.27-49.94-2.18c-5.46,0.78,10.37,15.01,14.19,20.47
				c9.89,14.12,10.33,35.5,10.75,52.74c2.15,87.2-3.9,386.21-1.75,473.41c0.07,2.8,17.24,8.55,17.47-1.64
				c2.18-98.79,5.61-414.66,10.37-504.31c0.58-10.92,2.49-27.15-0.55-37.66"/>
		</g>
		<g class="st44">
			<path class="st40" d="M2034.88,1582.69c-3.68,2-4.93,7.4-8.29,11.56c-8.62,10.71-13.41,23.25-20.8,34.85
				c-2.76,4.34-5.04,10.96-0.77,13.83c2.54,1.71,5.97,0.81,8.77-0.44c21.61-9.67,31.74-63.02,21.14-59.87"/>
		</g>
		<g class="st44">
			<path class="st40" d="M2020.08,1650.7c-1.63,0.29-2.76,2.17-4.53,3.32c-4.55,2.96-7.9,7.07-12.09,10.51
				c-1.57,1.29-3.24,3.49-1.99,5.09c0.74,0.95,2.14,1.04,3.34,0.91c9.3-0.97,19.66-19.73,15.3-19.86"/>
		</g>
		<g class="st44">
			<path class="st40" d="M1802.37,1581.87c-3.68,2-4.93,7.4-8.29,11.56c-8.62,10.71-13.41,23.25-20.8,34.85
				c-2.76,4.34-5.04,10.96-0.77,13.83c2.54,1.71,5.97,0.81,8.77-0.44c21.61-9.67,31.74-63.02,21.14-59.87"/>
		</g>
		<g class="st44">
			<path class="st40" d="M1787.57,1649.88c-1.63,0.29-2.76,2.17-4.53,3.32c-4.55,2.96-7.9,7.07-12.09,10.51
				c-1.57,1.29-3.24,3.49-1.99,5.09c0.74,0.95,2.14,1.04,3.34,0.91c9.3-0.97,19.66-19.73,15.3-19.86"/>
		</g>
		<path class="st41" d="M1712.01,1043.43l-0.82,2.4l-28.45,91.18c0,0,36.02-17.19,46.67-40.93c7.93-17.69,9.52-47.86,9.52-47.86
			L1712.01,1043.43z"/>
		<path class="st41" d="M1988.01,1046.25l1.74,4.2l22.92,89.14c0,0-31.93-30.91-42.98-50.45c-9.54-16.87-14.02-35.1-14.02-35.1
			L1988.01,1046.25z"/>
		<path class="st41" d="M1772.27,1193.51c0,0,53.85,21.83,51.91,24.74s-43.66,0.97-49.97-1.94
			C1767.9,1213.4,1760.14,1196.42,1772.27,1193.51z"/>
		<path class="st41" d="M1868.04,1236.63c0,0,9.28,4.37,34.39-9.82c25.11-14.19,18.56,3.27,9.28,9.82
			C1902.42,1243.17,1868.04,1236.63,1868.04,1236.63z"/>
	</g>
	<g>
		<g class="st44">
			<path class="st40" d="M1956.52,1798.72c29.67,1.95,59.65-0.88,88.44-8.35c4.05-1.05,17.38-6.04,21.2-11.77
				c0.08-0.11-0.03-4.96-1.09-9.01c-33.72,11.35-72.96,23.7-108.39,26.94"/>
		</g>
		<g>
			<g>
				<path class="st42" d="M1952.83,1054.73c3.26,13.81,9.01,26.88,16.57,38.86c7.54,11.95,16.69,22.8,26.27,33.15
					c5.61,6.07,11.39,11.98,17.17,17.89c1.35,1.38,3.47-0.74,2.12-2.12c-9.96-10.18-19.94-20.38-29.02-31.36
					c-8.78-10.62-16.64-22.07-22.44-34.61c-3.35-7.25-5.94-14.83-7.78-22.6C1955.27,1052.05,1952.38,1052.85,1952.83,1054.73
					L1952.83,1054.73z"/>
			</g>
		</g>
	</g>
	<g>
		<path class="st45" d="M1704.03,1040.82c0,0,182.16,38.48,287.36,3.27l-9.82-42.71c-65.5,24.56-262.39,6.69-262.39,6.69
			L1704.03,1040.82z"/>
		<path class="st46" d="M1781.39,1189.41c0,0,61.81,28.24,66.72,40.93l4.09,0.82c11.05-6.55,15.56-173.15,15.56-173.15"/>
		<path class="st46" d="M1847.71,1229.94c0,0-39.71-3.68-49.94-1.64"/>
		<g>
			<g>
				<path class="st42" d="M1676.33,1188.6c4.78,37.67,9.24,75.38,13.49,113.12c4.39,39.01,8.56,78.05,12.58,117.11
					c4.07,39.52,8,79.05,11.84,118.59c3.81,39.18,7.55,78.38,11.27,117.57c3.61,38.01,7.21,76.03,10.87,114.04
					c0.45,4.65,0.9,9.3,1.34,13.95c0.18,1.9,3.19,1.92,3,0c-3.65-37.8-7.24-75.61-10.83-113.41c-3.71-39.09-7.43-78.18-11.21-117.26
					c-3.83-39.54-7.73-79.08-11.76-118.6c-4-39.16-8.13-78.31-12.48-117.43c-4.22-37.95-8.64-75.87-13.37-113.76
					c-0.58-4.63-1.16-9.27-1.75-13.9C1679.09,1186.71,1676.08,1186.68,1676.33,1188.6L1676.33,1188.6z"/>
			</g>
		</g>
		<g>
			<g>
				<path class="st42" d="M1739.18,1047.76c-1.7,10.36-3.06,20.8-5.51,31.01c-2.27,9.43-5.58,18.71-11.32,26.62
					c-2.84,3.91-6.3,7.42-10.14,10.34c-2.23,1.69-4.61,3.18-6.93,4.74c-6.12,4.1-12.27,8.21-18.13,12.69
					c-1.2,0.91-2.4,1.83-3.51,2.85c-0.35,0.31-0.69,0.64-0.99,0.99c-0.11,0.13-0.23,0.26-0.31,0.4c-0.14,0.24,0.01-0.19-0.01,0
					c0.75,0.21,1.5,0.42,2.25,0.62c0-0.02-0.01-0.04-0.01-0.06c0.03-0.02-0.03,0.43,0.04-0.04c0.14-0.93,0.39-2.43,0.66-3.66
					c0.21-0.93,0.47-1.85,0.66-2.79c0.27-1.37-1.43-2.65-2.51-1.46c-0.51,0.56-0.62,1.54-0.81,2.23c-0.51,1.94-0.99,3.89-1.44,5.85
					c-0.9,3.91-1.68,7.85-2.34,11.82c-1.32,7.98-2.18,16.03-2.53,24.11c-0.2,4.57-0.23,9.15-0.12,13.73c0.05,1.93,3.05,1.93,3,0
					c-0.25-9.96,0.24-19.93,1.48-29.81c0.63-4.97,1.46-9.91,2.47-14.81c0.49-2.36,1.02-4.71,1.59-7.05
					c0.31-1.25,0.62-2.49,0.96-3.73c-0.01,0.05,0.21-0.61,0.19-0.73c-0.04-0.24,0.95-0.91-0.35,0.52c-0.84-0.49-1.67-0.97-2.51-1.46
					c-0.43,2.2-1.09,4.35-1.36,6.59c-0.15,1.22,0.08,2.98,1.79,2.74c0.72-0.1,1.02-0.56,1.44-1.07c-0.32,0.39,0.04-0.03,0.13-0.12
					c0.19-0.19,0.38-0.38,0.57-0.56c2.28-2.12,4.89-3.92,7.42-5.73c3.36-2.41,6.76-4.75,10.18-7.06
					c6.32-4.28,12.84-8.24,18.01-13.97c6.87-7.6,11.18-16.99,13.99-26.77c3.4-11.82,4.88-24.09,6.87-36.19
					C1742.38,1046.67,1739.49,1045.85,1739.18,1047.76L1739.18,1047.76z"/>
			</g>
		</g>
		<g>
			<g>
				<path class="st42" d="M1849.33,1234.39c15.47,2.14,31.39-2.59,43.14-12.9c1.45-1.28-0.68-3.39-2.12-2.12
					c-10.85,9.54-25.89,14.11-40.22,12.13c-0.81-0.11-1.6,0.2-1.85,1.05C1848.09,1233.24,1848.53,1234.27,1849.33,1234.39
					L1849.33,1234.39z"/>
			</g>
		</g>
		<g class="st47">
			<path class="st42" d="M1686.29,744.05c-6.55,17.47,9.28,55.94,21.29,85.14"/>
		</g>
		<g class="st44">
			<path class="st40" d="M1730.63,1782.8c29.08,6.22,58.73,9.94,88.29,6.71c4.15-0.45,14.56-2.59,18.69-4.09
				c1.5-0.55,1.69-8.4,1.23-12.55c-35.01,6.36-72.21,9.71-107.74,7.79"/>
		</g>
	</g>
</g>
<g id="Shirt_8_">
	<g id="Kleidung_8_">
		<path class="st10" d="M1749.33,580.85c0,0,14.74,46.34,90.06,46.34c83.02,0,86.78-42.28,86.78-42.28l63.04,14.77
			c0,0,9.69,175.06-18.01,249.7c-13.92,54.85-5.47,78.02-5.39,78.66c1.64,12.49,6.74,22.7,14.8,73.48c0,0-42.84,17.87-135.08,14.05
			c-81.81-3.39-127.37-6.86-126.9-7.5c3.34-4.57,10.23-43.25,15.96-80.91c1.97-12.96-17.1-73.09-19.65-79.41
			c-39.3-97.42-19.44-249.5-19.44-249.5L1749.33,580.85z"/>
		<path class="st10" d="M1695.28,598.22c0,0-61.4,88.42-88.42,175.2c23.74,41.75,92.51,50.76,92.51,50.76l39.3-85.14L1695.28,598.22
			z"/>
		<path class="st10" d="M1988.38,599.96c0,0,72.59,79.83,99.61,166.61c-23.74,41.75-88.93,53.36-88.93,53.36l-54.06-79.15
			L1988.38,599.96z"/>
	</g>
	<g>
		<path class="st2" d="M1997.12,1055.97c0,0-107.25,22.51-112.16,15.56c-4.91-6.96-18.01-58.54-18.01-58.54l114.62-12.69
			L1997.12,1055.97z"/>
		<path class="st2" d="M1694.2,1045.73c0,0,153.1,33.16,158.01,26.2s15.83-59.08,15.83-59.08l-149.27-7.23L1694.2,1045.73z"/>
	</g>
	<path class="st2" d="M1608.7,788.87l-3.68,14.99l86.58,45.64c0,0,5.17-14.33,5.22-14.33
		C1698.43,835.18,1608.7,788.87,1608.7,788.87z"/>
	<path class="st2" d="M2088.1,775.09l8.54,12.96l-75.74,49.25c0,0-9.93-14.77-9.99-14.77C2009.3,822.52,2088.1,775.09,2088.1,775.09
		z"/>
	<g>
		<path class="st48" d="M1743.6,588.77c0,0-50.21,68.09-57.99,90.6c-2.92,8.46-45.18,112.93-45.18,112.93"/>
		<path class="st48" d="M1752.33,604.05c0,0-58.2,92.1-61.81,100.29c-12.28,27.84-32.9,97.27-32.9,97.27"/>
		<path class="st48" d="M1758.33,610.05c0,0-60.45,90.6-51.44,135.63c3.64,18.2,32.88,132.36,32.88,145.45s-4.84,115.71-4.84,115.71
			"/>
		<path class="st48" d="M1753.97,1006.44c0,0,2.18-110.39,0.55-130.04c-1.64-19.65-25.91-118.08-25.52-133.17
			c0.82-31.52,43.53-122.8,43.53-122.8"/>
		<path class="st48" d="M1792.17,628.06c0,0-33.43,102.47-32.88,130.31c0.55,27.84,18.69,247.38,18.69,247.38"/>
		<path class="st48" d="M1815.09,633.52c0,0-20.6,92.1-21.83,130.58c-1.1,34.58,11.46,241.1,11.46,241.1"/>
		<path class="st48" d="M1830.1,635.16c0,0-1.77,93.88,0.41,126.08s0,250.11,0,250.11"/>
		<polyline class="st48" points="1851.66,635.16 1854.94,738.86 1862.44,1009.3 		"/>
		<polyline class="st48" points="1896.83,1006.85 1884.41,742.14 1872.4,632.43 		"/>
		<path class="st48" d="M1899.15,624.24c0,0,28.93,86.78,28.93,108.61c0,21.83,6,273.58,6,273.58"/>
		<path class="st48" d="M1959.05,1002.34c0,0-5.87-157.05-4.23-171.79c1.64-14.74,20.74-77.5,12.55-103.16s-52.4-114.62-52.4-114.62
			"/>
		<path class="st48" d="M1927.53,596.95c0,0,20.74,12.55,36.02,39.3s66.5,170.46,66.5,170.46"/>
		<path class="st48" d="M2055.02,790.07c0,0-51.08-155.46-61.99-166.37c-10.92-10.92-63.86-33.57-63.86-33.57"/>
	</g>
	<path class="st49" d="M1715.21,1012.03c147.91,24.01,270.44,1.36,270.44,1.36l-4.09-13.1c0,0-207.4,11.46-263.62,4.91"/>
	<path class="st50" d="M1718.49,1006.85c217.64,18.42,263.07-6.55,263.07-6.55l-4.5-13.1c-0.08-0.65-40.55,19.01-257.89,18.63"/>
	<path class="st51" d="M1988.72,600.37l-55.6-13.3l-1.15,1.99l-1.17-0.56c0,0-26.61,43.39-72.04,44.62
		c-45.44,1.23-93.74-19.24-93.74-19.24s63.04,62.63,122.39,40.12c45.44-17.24,68.76-38.53,78.46-45.78
		c6.11,4.85,14.57,14.24,18.97,20.4c16.37,22.92,82.89,116.77,60.69,69.64C2023.31,651.12,1988.72,600.37,1988.72,600.37z"/>
	<path class="st52" d="M1838.29,618.51c0,0-9.93,13.06-9.41,13.06c0.51,0,20.47-0.2,20.47-0.2L1838.29,618.51z"/>
	<path class="st51" d="M1733.7,926.41c0,0,42.5,44.96,42.5,62.97c0,18.01,1.5,16.24,1.5,16.24l-57.92,0.41L1733.7,926.41z"/>
	<polygon class="st53" points="1827.65,615.31 1821.92,635.57 1855.89,635.36 1851.59,622.27 	"/>
	<g>
		<path class="st53" d="M1742.5,583.31c0,0,49.39,87.87,59.22,86.78c9.82-1.09,37.39-50.9,37.39-50.9l-89.24-38.61L1742.5,583.31"/>
		<path class="st53" d="M1932.64,586.04c0,0-41.41,87.6-51.24,86.51c-9.82-1.09-44.55-53.35-44.55-53.35l92.03-33.43"/>
	</g>
	<g class="st54">
		<path class="st55" d="M1994.69,710.19c-3.95,9.57-8.53,68.44-12.69,85.71c-0.04,0.18,16.12,23.4,16.12,23.4
			s45.54-24.51,44.1-21.64c-0.82,1.64-22.99-48.78-37.55-72.92c-1.48-2.46-7.47-14.43-9.99-15.81"/>
	</g>
	<g class="st56">
		<path class="st37" d="M1693.66,717.44c-0.65,12.41,4.88,59.9,8.22,71.47c3.86,13.35,12.26,38.46,19.48,48.83
			c7.22,10.38,18.25,13.15,28.67,14.07c1.21,0.11,2.59,0.02,3.37-1.25c0.72-1.17,0.63-2.9,0.4-4.4
			c-1.63-10.36-8.11-17.69-13.92-24.64c-15.05-18-31.24-62.41-41.89-85.62"/>
	</g>
	<g class="st57">
		<path class="st58" d="M1695.12,597.85c-0.65,12.41-2.82,63.41,0.52,74.97c3.86,13.35,12.26,38.46,19.48,48.83
			c7.22,10.38,18.25,13.15,28.67,14.07c1.21,0.11,2.59,0.02,3.37-1.25c0.72-1.17,0.63-2.9,0.4-4.4
			c-1.63-10.36-8.11-17.69-13.92-24.64c-15.05-18-31.24-62.41-41.89-85.62"/>
	</g>
	<path class="st59" d="M1925.07,585.19c0,0-6.62,44.72-89.03,41.99c-75.07-2.49-87.8-46.05-87.8-46.05"/>
	<g>
		<path class="st60" d="M1595.34,773.31c0,0,61.27,38.21,109.3,58.13"/>
		<path class="st60" d="M2093.5,764.07c0,0-45.77,39.32-96.94,60.12"/>
	</g>
	<g class="st54">
		<path class="st55" d="M1981.97,795.62c-10.09,30.62-23.13,84.73-46.05,129.97c-2.66,5.24-17.12,54.91-17.12,80.71
			c0,3.27,45.98-1.09,62.36-6.82c-9.2-34.53-18.95-66.36-19.03-88.62c-0.15-40.27,6.01-51.05,12.28-74.81
			c2.33-8.84,4.35-17.35,4.83-21.1"/>
	</g>
	<path class="st53" d="M1991.39,730.54l-8.56,67.23c0,0,9.78,7.27,11.83-11.56S1991.39,730.54,1991.39,730.54z"/>
	<path class="st53" d="M1679.19,771.06l24.01,43.94C1703.21,815,1681.1,788.53,1679.19,771.06z"/>
	<polygon class="st61" points="1598.55,767.92 1631.03,786.89 1626.25,798.9 1591.73,778.84 	"/>
	<g>
		<path class="st2" d="M1741.96,579.01l48.03-15.28l48.31,54.85c0,0-33.98,46.87-34.11,46.67
			C1803.48,664.21,1741.96,579.01,1741.96,579.01z"/>
		<path class="st2" d="M1930.26,584.4l-46.66-18.59l-45.31,52.7c0,0,39.35,46.88,39.57,46.67
			C1878.82,664.22,1930.26,584.4,1930.26,584.4z"/>
	</g>
</g>
<g>
	<path class="st0" d="M2025.07,833.49l50.06,79.11c0,0,21.34,44.46,49.77,39.36c56.75-10.19-30.72-162.17-30.72-162.17
		L2025.07,833.49z"/>
	<path class="st0" d="M2008.22,987.18c5.92-3.63,95.9-103.07,122.93-115.06c0,0,13.5,46.32,6.52,71.16
		c-6.98,24.84-79.66,82.22-99.23,79.79C2018.87,1020.64,2008.22,987.18,2008.22,987.18z"/>
</g>
<g>
	<path class="st0" d="M1567.03,683.7l49.02,242.71c0,0-13.61,98.26-42.04,93.16c-56.75-10.19-56-312.12-56-312.12L1567.03,683.7z"/>
	<path class="st0" d="M1614.84,808.45c-2.11,6.62-44.94,98.28-50.1,127.4c-9.67,54.63-0.64,94.27,21.8,81.52
		s99.3-144.04,94.89-148.11C1666.7,855.68,1614.84,808.45,1614.84,808.45z"/>
</g>
<g id="Arm_x5F_L_x5F_oben_12_" class="st62">
	<path class="st63" d="M2029.57,828.87c-8.27-13.77-20.23-250.83-18.68-253.75c9.96-18.75,42.11-30.93,53.72-4.56
		c5.08,11.54,111.75,278.12-20.24,279.91c-37.05,0.5-23.53-18.3-23.53-18.3"/>
	<path class="st64" d="M2111.3,756.91l-7.4-52.17l3.12,67.6c-1.14,5.35-11.23,58.83-38.63,58.56c-17.22-0.17-39.17-4.9-39.17-4.9
		l-10.82,5.85l-3.33,1.2c4.66,24.43,26.21,23.39,29.21,23.46C2115.09,858.11,2111.3,756.91,2111.3,756.91z"/>
	<g class="st65">
		
			<ellipse transform="matrix(0.9685 -0.2491 0.2491 0.9685 -84.8009 532.9394)" class="st5" cx="2063.5" cy="601.56" rx="3.31" ry="3.02"/>
		<ellipse class="st5" cx="2068.83" cy="612.43" rx="2.05" ry="1.69"/>
		
			<ellipse transform="matrix(0.8059 -0.5921 0.5921 0.8059 33.2731 1344.2836)" class="st5" cx="2066.69" cy="621.4" rx="2.11" ry="1.97"/>
		<ellipse class="st5" cx="2072.51" cy="606.65" rx="1.84" ry="1.52"/>
	</g>
</g>
<path class="st37" d="M1607.15,771.61c16.92-64.4,88.13-173.39,88.13-173.39l47.23-14.91c0,0-25.49,24.66-44.76,56.76
	c-12.28,20.47-49.39,106.16-66.59,146.27c-0.43,1-24.15-13.37-24.15-13.37"/>
<g id="Ebene_69">
</g>
<g>
	<polygon class="st66" points="1525.66,686.59 1459.28,708.07 1397.33,655.9 1415.11,577.6 1493.66,553.2 1499.57,553.49 	"/>
	<polygon class="st67" points="1536.46,685.22 1470.94,704.3 1408.68,651.6 1425.1,577.07 1499.57,553.49 1555.95,608.51 	"/>
</g>
<g id="Ebene_53_Kopie_2">
	<g>
		<path class="st0" d="M1464.25,643.18l39.36-43.77c3.07-5.39-6.58-14.13-13.33-17.73l0,0c-6.74-3.61-30.85-2.38-47.56,54.83
			l1.04,9.52c5.25,0.19-1.83,2.71,4.91,6.32l-1.88,0.04C1453.55,655.99,1461.18,648.57,1464.25,643.18z"/>
		<path class="st0" d="M1478.63,648.15l39.36-43.77c3.07-5.39-6.58-14.13-13.33-17.73l0,0c-6.74-3.61-29.52-9.94-46.23,47.27
			l-8.32,19.12c-3.07,5.39,4.33,0.71,11.08,4.31l0,0C1467.93,660.96,1475.56,653.54,1478.63,648.15z"/>
		<path class="st0" d="M1496.59,661.05l39.36-43.77c3.07-5.39-6.58-14.13-13.33-17.73l0,0c-6.74-3.61-29.52-9.94-46.23,47.27
			l-8.32,19.12c-3.07,5.39,4.33,0.71,11.08,4.31l0,0C1485.89,673.86,1493.52,666.44,1496.59,661.05z"/>
		<path class="st0" d="M1513.79,675.57l38.75-36.42c3.07-5.39-5.97-21.47-12.72-25.08l0,0c-6.74-3.61-29.52-9.94-46.23,47.27
			l-8.32,19.12c-3.07,5.39,4.33,0.71,11.08,4.31l0,0C1503.09,688.38,1510.72,680.96,1513.79,675.57z"/>
		<path class="st0" d="M1450.36,621.62c0,0-13.21,19.58-7.42,25.54c2.47,2.54,5.81,19.33,21.11,30.54
			c11.02,8.07,29.09,9.33,38.26,15.59c7.96,5.43,24.02,28.04,21.43,17.9c-1.49-5.85,41.9-8.18,43.16-19.4s7.97-50.64-24.37-62.54
			C1510.19,617.36,1450.36,621.62,1450.36,621.62z"/>
	</g>
	<path class="st5" d="M1493.76,584.54c0,0-30.31,18.51-32.12,39.37c-1.81,20.85-2.11,23.25-2.11,23.25s3.11-25.97,8.85-33.68
		C1474.12,605.78,1493.76,584.54,1493.76,584.54z"/>
	<path class="st5" d="M1516.84,597.5c0,0-24.03,17.86-30.13,30.7c-4.1,8.63-2.03,19.01-2.03,19.01s1.04-13.05,6.78-20.76
		S1516.84,597.5,1516.84,597.5z"/>
	<path class="st5" d="M1536.04,612.56c0,0-26.32,19.39-30.12,29.75c-2.18,5.94-0.87,18.14-0.87,18.14s-0.14-12.9,5.6-20.6
		S1536.04,612.56,1536.04,612.56z"/>
	<polygon class="st5" points="1553.09,635.16 1539.47,658.06 1541.82,659.16 	"/>
</g>
<g>
	<polygon class="st66" points="1616.05,698.35 1549.66,719.82 1487.72,667.65 1505.49,589.35 1584.04,564.95 1589.95,565.24 	"/>
	<polygon class="st67" points="1626.84,696.98 1561.32,716.05 1499.06,663.36 1515.49,588.83 1589.95,565.24 1646.34,620.26 	"/>
</g>
<g class="st62">
	<path class="st63" d="M2115.68,503.96c-3.04,12.5-30.97,34.63-53.96,37.53c-9.65,1.22-13.7-10.18-22.28-12.26
		c-29.03-7.05-33.99-35.48-29.68-53.23s34.95-25.87,63.98-18.83C2102.76,464.22,2119.99,486.21,2115.68,503.96z"/>
	<g class="st65">
		<path class="st0" d="M2012.7,479.14c3.21-6.41-3.72,2.91-2.53-4.17c3.59-21.3,22.57-43.55,30.26-63.74c0.76-2,1.91-4.08,3.9-4.87
			c3.55-1.42,8.48,1.35,9.26,5.09c5.09,24.41-6.98,31.31-10.16,51.96c-1.49,9.68-6.47,12.06-15.79,15.07
			c-4.18,1.35-10-0.11-10.67-4.45"/>
	</g>
	<path class="st63" d="M2044.32,461.49c0,0,17.39-20.47,29.69-41.17c11.59-19.51,16.46-42.32,21.15-44.44
		c21.24-9.58,16.06,23.72,1.81,52.15c-10.6,21.13-21.13,39.4-21.13,39.4L2044.32,461.49z"/>
	<path class="st63" d="M2060.41,467.53c0,0,15.07-19.75,27.37-40.45c11.59-19.51,20.79-47.84,25.48-49.96
		c21.24-9.58,14.05,28.52-0.21,56.95c-10.6,21.13-21.12,39.4-21.12,39.4L2060.41,467.53z"/>
	<path class="st63" d="M2076.13,478.63c0,0,15.08-19.75,27.37-40.45c11.59-19.51,21.3-53.63,25.99-55.75
		c21.24-9.58,13.54,34.31-0.72,62.74c-10.6,21.13-21.13,39.4-21.13,39.4L2076.13,478.63z"/>
	<path class="st63" d="M2083.64,500.58c0,0,15.07-19.75,27.37-40.45c11.59-19.51,26.58-54.67,31.27-56.79
		c21.24-9.58,8.26,35.35-5.99,63.78c-10.6,21.13-21.12,39.4-21.12,39.4L2083.64,500.58z"/>
	<path class="st64" d="M2107.44,385.66l-39.07,73.75c0,0,13.06-14.46,22.42-30.9C2095.22,420.75,2107.44,385.66,2107.44,385.66z"/>
	<path class="st64" d="M2126.17,390.65l-39.07,73.75c0,0,13.06-14.46,22.42-30.9C2113.95,425.74,2126.17,390.65,2126.17,390.65z"/>
	<path class="st64" d="M2142.81,402.71l-39.07,73.75c0,0,13.06-14.46,22.42-30.9C2130.59,437.8,2142.81,402.71,2142.81,402.71z"/>
	<path class="st64" d="M2029.82,480.67c0,0,24.67-7.28,49.51,1.53c24.83,8.81,18.26,6.79,18.26,6.79s-10.09-14.87-31.2-17.85
		C2045.28,468.16,2029.82,480.67,2029.82,480.67z"/>
</g>
<g id="Ebene_44_Kopie">
	<g>
		<path class="st0" d="M1956.24,1002.97c0,0,12.96,1.5,22.55,13.14c9.31,11.3,28.51,14.04,38.36,14.05
			c10.34,0,25.71-6.59,29.19-8.24c7.83-3.71,5.85-10.58,5.85-10.58s-43.48-45.63-49.72-45.63
			C1962.76,965.72,1956.24,1002.97,1956.24,1002.97z"/>
	</g>
	<polygon class="st0" points="2015.41,983.81 2036.3,975.38 2034,1017.45 	"/>
	<path class="st0" d="M2004.77,966.86c0,0-34.86-17.39-45.28-20c-10.12-2.54-28.69-7.85-40.37-9.77
		c-1.72-0.28-16.86-5.36-13.44,3.45c2.46,6.33,23.99,13.91,29.94,13.6c5.96-0.31,27.18,13.72,27.18,13.72s16.42,9.44,18.22,9.28
		C1982.82,976.98,2004.77,966.86,2004.77,966.86z"/>
	<path class="st0" d="M1992.89,973.28c0,0-33.15-17.25-44.31-17.79s-30.44,15.08-30.44,15.08s-11.65,5.93-7.28,12.37
		c4.37,6.44,41.81-10.47,41.81-10.47l23.37,10.34L1992.89,973.28z"/>
	<path class="st0" d="M1987.78,987.62l-31.76-20.03c0,0-38.02,12.56-41.46,16.69c-6.43,7.72,1.44,16.4,7.63,13.41
		c6.19-2.98,23.73-10.07,23.73-10.07l24.17,5.46L1987.78,987.62z"/>
	<path class="st0" d="M1975.68,989.14c0,0-32.49-3.57-42.99-1.9c-14.43,2.3-20.1,13.46-8.19,15.06c11.91,1.6,31.73,0.67,31.73,0.67
		l20.77,9.57L1975.68,989.14z"/>
	<path class="st15" d="M1915.54,983.91c0,0,18.39-18.34,31.41-16.33c13.02,2.01,14.92,3.21,14.92,3.21s-15.11-2.46-20.76-0.73
		C1935.46,971.78,1915.54,983.91,1915.54,983.91z"/>
	<path class="st15" d="M1918.06,996.81c0,0,18.39-18.34,31.41-16.33c13.02,2.01,14.92,3.21,14.92,3.21s-15.11-2.46-20.76-0.73
		C1937.97,984.68,1918.06,996.81,1918.06,996.81z"/>
	<path class="st15" d="M2076.25,918.38c0,0,42.26-14.03,40.73-14.41c-1.53-0.38-21.11-4.5-28.99,3.07S2076.25,918.38,2076.25,918.38
		z"/>
	<path class="st15" d="M1599.74,849.5c0,0,12.1,67.86,2.14,88.16c-9.96,20.3,23.71-6.51,22.01-30.26S1599.74,849.5,1599.74,849.5z"
		/>
</g>
<polygon class="st15" points="1523.3,697.62 1546.86,724.47 1574.03,718.25 1572.95,712.67 1549.66,719.82 "/>
<polygon class="st15" points="2025.07,833.49 2038.86,855.29 2099.35,799.15 2094.17,789.79 "/>
<g id="Ebene_70">
	<path class="st67" d="M1657.07,263.33c-14.72,19.67-12.06,54.44-9.22,54.46c168.92,0.78,339.7-31.58,339.7-31.58
		s-1.47-51.11-12.91-54.36C1963.19,228.59,1657.07,263.33,1657.07,263.33z"/>
	<path class="st68" d="M1650.89,274.72c0.28-0.72,266.76-21.28,330.63-32.92"/>
	<path class="st68" d="M1648.75,281.1c0.77,0,268.9-21.28,332.76-32.92"/>
</g>
</svg>
