<?xml version="1.0" encoding="utf-8"?>
<!-- Generator: Adobe Illustrator 25.4.0, SVG Export Plug-In . SVG Version: 6.00 Build 0)  -->
<svg version="1.1" id="Sprechend" xmlns="http://www.w3.org/2000/svg" xmlns:xlink="http://www.w3.org/1999/xlink" x="0px" y="0px"
	 viewBox="0 0 3840 2160" style="enable-background:new 0 0 3840 2160;" xml:space="preserve">
<style type="text/css">
	.st0{fill:#FFB699;}
	.st1{fill:#54A465;}
	.st2{fill:#FFF8C5;}
	.st3{fill:none;stroke:#2E753B;stroke-miterlimit:10;}
	.st4{fill:#76C484;}
	.st5{fill:#F99A79;}
	.st6{fill:#449353;}
	.st7{fill:none;stroke:#FFF8C5;stroke-width:2;stroke-miterlimit:10;}
	.st8{fill:#FFF8C5;stroke:#002A2B;stroke-miterlimit:10;}
	.st9{fill:none;stroke:#22722F;stroke-miterlimit:10;}
	.st10{fill:#CCF6E6;}
	.st11{fill:none;stroke:#002A2B;stroke-width:4;stroke-miterlimit:10;}
	.st12{fill:#995B34;}
	.st13{fill:#633318;}
	.st14{fill:#AA6944;}
	.st15{fill:#D86C45;}
	.st16{fill:#FFCAB8;}
	.st17{display:none;}
	.st18{display:inline;}
	.st19{fill:#FFFFFF;}
	.st20{fill:url(#SVGID_1_);}
	.st21{fill:#16100B;}
	.st22{fill:url(#SVGID_00000129908995564166123810000016188019530307311784_);}
	.st23{display:inline;fill:#FCD2CA;}
	.st24{display:inline;fill:url(#SVGID_00000051347440006697109160000004047937832310449302_);}
	.st25{display:inline;fill:url(#SVGID_00000044879038704693298740000011624237822536500611_);}
	.st26{fill:url(#SVGID_00000023273448529775805400000016219002820248322983_);}
	.st27{fill:url(#SVGID_00000163767978022462106840000011380526843279892398_);}
	.st28{fill:#FCD2CA;}
	.st29{fill:url(#SVGID_00000163767171627885060720000010645231306195733927_);}
	.st30{fill:url(#SVGID_00000107555565049536774800000013802639517308633487_);}
	.st31{fill:#841A06;}
	.st32{fill:#D64B2B;}
	.st33{fill:#FFAF9C;}
	.st34{fill:#894A27;}
	.st35{opacity:0.72;fill:#F99A79;}
	.st36{opacity:0.72;fill:#E27F64;}
	.st37{opacity:0.33;fill:#F98869;}
	.st38{fill:#D88C66;}
	.st39{fill:none;stroke:#995B34;stroke-miterlimit:10;}
	.st40{fill:none;stroke:#C9563F;stroke-width:0.5;stroke-miterlimit:10;}
	.st41{fill:#F0FFF9;}
	.st42{fill:#545454;}
	.st43{fill:#3F3F3F;}
	.st44{fill:#28564D;}
	.st45{opacity:0.41;fill:#28564D;}
	.st46{fill:#002A2B;}
	.st47{fill:none;stroke:#CCF6E6;stroke-miterlimit:10;}
	.st48{opacity:0.41;}
	.st49{fill:#336B61;stroke:#002A2B;stroke-miterlimit:10;}
	.st50{fill:none;stroke:#002A2B;stroke-width:2;stroke-miterlimit:10;}
	.st51{opacity:0.31;}
	.st52{fill:none;stroke:#006A58;stroke-width:0.25;stroke-miterlimit:10;}
	.st53{fill:#EAE0A4;}
	.st54{fill:#97D1B8;}
	.st55{opacity:0.44;fill:#C3EDDC;}
	.st56{fill:#EAE1AC;}
	.st57{opacity:0.31;fill:#002A2B;}
	.st58{opacity:0.44;}
	.st59{fill:#C3EDDC;}
	.st60{opacity:0.45;}
	.st61{display:none;opacity:0.45;}
	.st62{display:inline;fill:#F0FFF9;}
	.st63{fill:none;stroke:#64D250;stroke-width:16;stroke-miterlimit:10;}
	.st64{fill:none;stroke:#64D250;stroke-width:12;stroke-miterlimit:10;}
	.st65{fill:#A5EA96;}
</style>
<g id="Füsse_Kopie_Kopie_3">
	<g>
		<g>
			<polygon class="st0" points="1753.42,1858.83 1762.7,1952.71 1820.55,1958.71 1826.56,1835.36 			"/>
			<path class="st1" d="M1751.92,1907.41c0,0,0.61,32.75-11.89,51.56c-4.82,7.25-12.94,13.61-20.43,18.47
				c-1.45,0.94-2.92,1.8-4.39,2.56c-19.1,9.82-66.04,35.48-78.05,49.67c-12.01,14.19-13.1,26.2-13.1,26.2l-6.55,2.18l9.96,9.01
				c0,0,10.64,13.24,49.94,2.87c39.3-10.37,150.23-73.82,150.23-73.82l0.2-92.38l-4.91-0.2c0,0-9.48,8.26-34.59,7.16
				c-25.11-1.09-31.31-8.39-31.31-8.39L1751.92,1907.41z"/>
			<path class="st2" d="M1624.07,2055.86l-6.55,2.18l7.1,11.46c0,0,15.96,11.19,55.26,0.82c39.3-10.37,146.96-62.22,146.96-62.22
				l1.64-13.1l-25.38,13.92c0,0-45.03,19.65-70.82,29.06C1646.63,2069.25,1624.07,2055.86,1624.07,2055.86z"/>
			<path class="st3" d="M1827.92,1980.54"/>
			<g>
				<path class="st4" d="M1630.17,2050.91c1.06-11.13,8.08-21.51,18.02-26.62c1.13-0.58,2.88-0.89,3.35,0.29
					c0.3,0.77-0.24,1.58-0.76,2.23c-6.07,7.61-12.14,15.22-18.21,22.83c-0.49,0.62-1.31,1.3-1.96,0.86"/>
			</g>
			<path class="st5" d="M1753.97,1867.56l0.82,10.37c0,0,29.06,9.96,48.71,7.78c14.27-1.59,20.47-6.96,20.47-6.96l2.05-22.65
				l-72.04,6.55V1867.56"/>
		</g>
		<path class="st6" d="M1826.42,1919.28c0,0-1.64,53.21-17.19,63.86c-15.56,10.64-128.53,70-128.53,70s65.9-15.56,102.75-35.2
			c31.46-16.78,44.21-21.83,44.21-21.83L1826.42,1919.28z"/>
		<path class="st7" d="M1714.67,1977.81c28.24-11.87,46.05,16.17,46.05,16.17"/>
		<path class="st7" d="M1691.74,1990.5c28.24-11.87,46.05,16.17,46.05,16.17"/>
		<path class="st7" d="M1665.55,2006.06c28.24-11.87,46.05,16.17,46.05,16.17"/>
		<ellipse class="st8" cx="1807.88" cy="1941.41" rx="12.09" ry="17.35"/>
		<path class="st9" d="M1758.06,1905.22c0,0-0.27-1.09-3,8.19c-2.73,9.28-2.23,31.87,2.73,39.02c4.91,7.1,13.78,4.91,13.78,4.91"/>
		<path class="st10" d="M1757.34,1902.7c0,0,14.74,13.61,41.45,9.93c13.97-1.93,24.15-9.11,24.15-9.11l1.23-20.47
			c0,0-8.54,6.72-32.54,6.62c-23.74-0.1-35.82-5.59-35.82-5.59L1757.34,1902.7z"/>
		<ellipse class="st1" cx="1777.09" cy="1919.69" rx="21.49" ry="28.65"/>
		<path class="st6" d="M1796.13,1909.04c0,0-17.6,11.87-19.24,28.65c-1.64,16.78-5.32,19.65-5.32,19.65s9.01,1.64,18.42-19.65
			C1799.4,1916.41,1796.13,1909.04,1796.13,1909.04z"/>
		<path class="st11" d="M1752.6,1883.12c0,0,11.19,4.64,32.75,5.46c21.56,0.82,33.29-4.09,41.21-8.73"/>
	</g>
	<g>
		<g>
			<polygon class="st0" points="2055.41,1859.45 2058.27,1953.74 2001.67,1967.13 1979.86,1845.57 			"/>
			<path class="st1" d="M2063.14,1907.43c0,0,3.6,32.55,18.42,49.6c5.71,6.57,14.59,11.83,22.63,15.69
				c1.56,0.75,3.13,1.41,4.68,1.97c20.21,7.29,70.05,26.69,83.79,39.22c13.73,12.53,16.36,24.3,16.36,24.3l6.78,1.32l-8.72,10.21
				c0,0-8.85,14.49-49.16,9.26c-40.3-5.23-158.47-53.9-158.47-53.9l-12.08-91.58l4.85-0.83c0,0,10.47,6.97,35.22,2.66
				c24.76-4.31,29.98-12.35,29.98-12.35L2063.14,1907.43z"/>
			<path class="st2" d="M2209.02,2038.22l6.78,1.32l-5.56,12.28c0,0-14.39,13.15-54.7,7.92c-40.3-5.23-153.73-42.81-153.73-42.81
				l-3.31-12.78l26.96,10.54c0,0,47.18,13.7,73.97,19.72C2188.36,2054.4,2209.02,2038.22,2209.02,2038.22z"/>
			<path class="st3" d="M1997.17,1989.73"/>
			<g>
				<path class="st4" d="M2202.33,2034.09c-2.48-10.9-10.78-20.29-21.29-24.09c-1.19-0.43-2.97-0.51-3.28,0.72
					c-0.2,0.8,0.44,1.54,1.04,2.11c7,6.77,14,13.53,21,20.3c0.57,0.55,1.46,1.12,2.06,0.6"/>
			</g>
			<path class="st5" d="M2055.99,1868.18l0.52,10.39c0,0-27.54,13.61-47.31,13.97c-14.36,0.26-21.19-4.27-21.19-4.27l-4.94-22.2
				l72.29-2.77L2055.99,1868.18"/>
		</g>
		<path class="st6" d="M1990.78,1928.78c0,0,8.46,52.56,25.26,61.12c16.79,8.56,136.47,52.9,136.47,52.9s-67.36-6.95-106.42-21.7
			c-33.35-12.59-46.65-15.97-46.65-15.97L1990.78,1928.78z"/>
		<path class="st7" d="M2109.13,1972.46c-29.54-8.14-43.59,21.95-43.59,21.95"/>
		<path class="st7" d="M2133.5,1982.1c-29.54-8.14-43.59,21.95-43.59,21.95"/>
		<path class="st7" d="M2161.48,1994.16c-29.54-8.14-43.59,21.95-43.59,21.95"/>
		
			<ellipse transform="matrix(0.9917 -0.1285 0.1285 0.9917 -233.7508 274.7896)" class="st8" cx="2012.01" cy="1948.34" rx="12.09" ry="17.35"/>
		<path class="st9" d="M2056.77,1906.05c0,0,0.13-1.12,4.03,7.73c3.9,8.85,6.3,31.31,2.31,39.05c-3.96,7.67-13.04,6.64-13.04,6.64"
			/>
		<path class="st10" d="M2057.16,1903.46c0,0-12.86,15.39-39.83,15.17c-14.1-0.12-25.12-5.93-25.12-5.93l-3.85-20.14
			c0,0,9.33,5.57,33.12,2.38c23.53-3.15,34.8-10.15,34.8-10.15L2057.16,1903.46z"/>
		
			<ellipse transform="matrix(0.9917 -0.1285 0.1285 0.9917 -230.243 278.1443)" class="st1" cx="2039.75" cy="1922.84" rx="21.49" ry="28.65"/>
		<path class="st6" d="M2019.51,1914.73c0,0,18.98,9.51,22.76,25.94s7.8,18.8,7.8,18.8s-8.72,2.78-20.79-17.12
			S2019.51,1914.73,2019.51,1914.73z"/>
		<path class="st11" d="M2059.34,1883.43c0,0-10.5,6.04-31.77,9.62c-21.27,3.58-33.54,0.22-41.99-3.36"/>
	</g>
</g>
<g id="Haarehinten_1_">
	<path class="st12" d="M1965.68,479.5l6.33,23.22c9.68-2.72,19.45-61.47,15.13-86.94c-19.71-116.26-23.65-136.18-39.49-173.53
		c-17.46-41.18-35.8-60.16-71.01-70.72c-47.73-14.31-72.25-10.35-158.47,16.59c-74.29,23.21-95.25,88.7-100.95,128.44
		c-2.85,19.87,7.38,52.56,27.2,125.35c19.82,72.78,32.55,84.42,32.55,84.42s27.67,39.91,54.69,32.46l3.3-0.93l6.96-3.96
		c7.51-0.36-13.81-18.35-4.81-18.29c99.19,0.71,122.1-63.2,169.04-86.26l25.81-3.31l30.08,60.81c6.04-3.22-0.24,0.27,4.7-2.71
		L1965.68,479.5z"/>
	<path class="st13" d="M1935.41,398.4c0,0,1.04-14.73,10.39,3.04c13.2,25.08,11.7,106.72,11.7,106.72s-7.82,3.25-9.59,2.79
		c-1.77-0.46-0.15-34.26-0.15-34.26l-23.5-49.66L1935.41,398.4z"/>
	<path class="st13" d="M1876.18,418.93c-57.53-84.82,0.22-31.07-68.39-14.34c-84.29,20.55-104.25-57.45-126.38-12.23
		s51.97,167.93,51.97,167.93c20.31-3.11,49.11-2.53,57.94-4.27c88.5-17.47,60.61-11.28,109.78-24.07
		C1901.39,531.87,1892.02,442.28,1876.18,418.93z"/>
	<polygon class="st13" points="1897.81,487.14 1903.95,529.78 1957.78,507.76 1926.79,390.76 	"/>
	<g>
		<g>
			<g>
				<path class="st14" d="M1711.8,470.62c4.18,22.28,8.77,44.49,13.49,66.66c1.45,6.8,2.9,13.6,4.36,20.4
					c0.1,0.47,0.82,0.27,0.72-0.2c-4.89-22.77-9.75-45.54-14.26-68.39c-1.23-6.22-2.42-12.44-3.59-18.67
					C1712.43,469.94,1711.71,470.14,1711.8,470.62L1711.8,470.62z"/>
			</g>
		</g>
		<g>
			<g>
				<path class="st14" d="M1731.98,493.33c2.32,15.64,6.39,30.93,10.08,46.28c1.21,5.05,2.39,10.11,3.5,15.18
					c0.1,0.47,0.83,0.27,0.72-0.2c-3.56-16.21-8-32.22-11.29-48.49c-0.87-4.3-1.64-8.62-2.29-12.97
					C1732.63,492.65,1731.91,492.85,1731.98,493.33L1731.98,493.33z"/>
			</g>
		</g>
		<g>
			<g>
				<path class="st14" d="M1919.99,448.81c-0.34,0.08-0.12-0.02-0.03,0.32c0.06,0.24,0.2,0.49,0.28,0.72
					c0.25,0.69,0.46,1.4,0.67,2.11c0.43,1.46,0.82,2.94,1.2,4.41c0.97,3.76,1.88,7.52,2.56,11.35c1.92,10.7,2.81,21.54,4.32,32.3
					c0.82,5.82,1.81,11.63,3.35,17.32c0.13,0.47,0.85,0.27,0.72-0.2c-2.96-10.97-4.01-22.37-5.38-33.63
					c-1.15-9.48-2.63-18.81-5.04-28.06c-0.47-1.79-0.93-3.59-1.52-5.34c-0.16-0.49-0.53-2.22-1.33-2.03
					C1919.32,448.2,1919.52,448.92,1919.99,448.81L1919.99,448.81z"/>
			</g>
		</g>
		<g>
			<g>
				<path class="st14" d="M1923.84,447.49c5.02,17.63,6.15,36.06,10.15,53.91c1.1,4.92,2.43,9.78,4.13,14.53
					c0.16,0.45,0.89,0.26,0.72-0.2c-6.19-17.25-7.55-35.76-10.9-53.66c-0.93-4.97-2-9.91-3.39-14.77
					C1924.43,446.83,1923.71,447.02,1923.84,447.49L1923.84,447.49z"/>
			</g>
		</g>
	</g>
</g>
<polygon class="st15" points="1610.15,805.99 1686.7,854.71 1689.97,847.75 "/>
<g id="Arm_x5F_R_2_">
	<path class="st0" d="M1619.56,767.24c0,0-27.29,113.39-36.57,148.87c-4.7,17.98-59.49,184.75-62.22,187.48
		c-2.73,2.73,34.39,10.23,46.39,1.5c12.01-8.73,64.64-128.52,82.96-160.46c21.29-37.11,56.9-155.01,56.9-155.01"/>
	<path class="st5" d="M1610.9,812.92c0,0,28.72,47.11,68.29,55.02l2.46,0.82l7.1-21.01l-70.13-43.39L1610.9,812.92z"/>
	<polygon class="st16" points="1615.33,792.89 1628.43,800.26 1544.11,1047.51 	"/>
	<path class="st5" d="M1662.68,830.83c0,0-106.29,298.28-104.11,296.64c1.34-1.01,56.13-105.39,94.29-188.16
		c23.89-51.83,39.49-96.56,36.84-97.83C1680.28,836.97,1662.68,830.83,1662.68,830.83z"/>
</g>
<g id="Hals_3_">
	<path id="Hals_4_" class="st0" d="M1791.22,505.6l-1.23,66.11c0,0-44.76,9.96-61.67,18.69c-27.5,14.19,185.3,111.07,227.05,62.77
		c25-28.92,2.83-53.93-26.61-65.5c-11.46-4.5-45.64-13.71-45.64-13.71l-3.27-89.03L1791.22,505.6z"/>
	<path class="st15" d="M1790.81,509.9v19.65c0,0,43.19,36.43,91.28,15.35l-0.41-44L1790.81,509.9z"/>
	<path class="st16" d="M1793.26,534.46l-1.36,40.66c0,0,10.37-0.55,8.73-15.56C1798.99,544.56,1793.26,534.46,1793.26,534.46z"/>
	<path class="st5" d="M1882.23,563.39c0,0-18.28,33.29-54.31,45.3c-3.66,1.22-37.66,0-37.66,0l23.2,2.73c0,0,20.74,7.1,21.56,7.1
		s12.83,0.27,12.83,0.27l36.02-48.3L1882.23,563.39"/>
</g>
<g id="KOPFPBEN_Kopie_3_Kopie_Kopie_Kopie_Kopie_3">
	<g id="Kopf_3_">
		<path id="Kopf_4_" class="st0" d="M1646.24,293.67c0,0,41.72,127.39,57.73,163.29c18.57,41.65,81.03,87.71,140.91,75.4
			c47.62-9.78,89.62-92.7,91.71-124.94c1.85-28.45-14.49-80.89-27.26-120.85c-8.12-25.4-48.09-51.36-84.17-73.1
			c-20.64-12.43-47.23-8.18-62.92,10.1L1646.24,293.67z"/>
		<path class="st15" d="M1790.97,218.4c0,0-54.88,112.27-102.25,134.72c-47.37,22.45-15.8,12.19-15.8,12.19l-7.5-44.03
			L1790.97,218.4z"/>
		<path class="st5" d="M1930.25,360.71c0,0-5.68,50.38-5.84,50.8c-3.46,9.1-35.57,109.3-74.29,119.02c0,0,35.43-5.59,65.98-66.09
			c14.63-28.98,20.37-55.24,20.37-55.24"/>
	</g>
	<g id="Augen_Kopie_3_Kopie_Kopie_Kopie_Kopie_3" class="st17">
		<g class="st18">
			<g>
				<path class="st19" d="M1885.85,359.33c0,0,13.97-24,29.45-22.23c15.48,1.76,21.29,10.56,27.24,25.14c0,0-6.9,12.88-24.1,12.38
					C1895.53,373.95,1885.85,359.33,1885.85,359.33z"/>
				
					<linearGradient id="SVGID_1_" gradientUnits="userSpaceOnUse" x1="1898.6543" y1="621.9857" x2="1898.4037" y2="597.054" gradientTransform="matrix(0.9981 0.0608 -0.0608 0.9981 66.6719 -360.6064)">
					<stop  offset="0" style="stop-color:#008CB2"/>
					<stop  offset="0.2227" style="stop-color:#0188AD"/>
					<stop  offset="0.5014" style="stop-color:#047B9D"/>
					<stop  offset="0.8087" style="stop-color:#086684"/>
					<stop  offset="1" style="stop-color:#0B5570"/>
				</linearGradient>
				<path class="st20" d="M1942.54,358.06c1.38,1.96,2.15-0.11,1.24,1.96c-3.15,7.18-12.04,14.42-20.19,13.92
					c-10.5-0.64-18.49-9.83-17.83-20.54c0.27-4.42,1.83-7.86,4.3-10.33c3.52-3.53,5.62-5.29,11.79-4.91
					C1932.35,338.79,1936.7,349.76,1942.54,358.06z"/>
				
					<ellipse transform="matrix(0.0608 -0.9981 0.9981 0.0608 1454.2349 2253.2012)" class="st21" cx="1924.46" cy="353.83" rx="7.98" ry="7.78"/>
				<g>
					<path d="M1884.46,357.1c3.04-5.52,6.87-10.54,11.31-14.84c5.17-5.01,11.55-9.17,18.51-9.39c5.82-0.19,11.43,2.41,16.18,5.95
						c4.75,3.54,12.2,15.56,14.15,16.39c0,0,4,0.49,5.72-0.82c-2.18,2.63-4.89,6.24-7.86,7.76c-3.99-6.1-3.3-6.47-9.49-13.64
						c-4.56-5.28-10.77-10.27-17.76-10.27c-7.59,0-14.49,4.91-19.47,11.07c-4.44,5.49-8.55,11.37-8.79,11.94"/>
				</g>
				<path class="st19" d="M1919.21,356.58l-12.5,6.23c-1.1,0.55-2.44,0.1-2.99-1l-0.2-0.41c-0.55-1.1-0.1-2.44,1-2.99l12.5-6.23
					c1.1-0.55,2.44-0.1,2.99,1l0.2,0.41C1920.76,354.69,1920.31,356.03,1919.21,356.58z"/>
			</g>
			<g>
				<path class="st19" d="M1810.37,353.77c0,0-12.09-25.32-27.67-25.45s-21.28,7.7-28.96,21.45c0,0,7.11,13.27,24.23,14.86
					C1800.8,366.76,1810.37,353.77,1810.37,353.77z"/>
				
					<linearGradient id="SVGID_00000018926499874077011190000014552743485380294067_" gradientUnits="userSpaceOnUse" x1="1428.4476" y1="620.3782" x2="1428.2083" y2="596.5619" gradientTransform="matrix(-0.9981 -0.0608 -0.0608 0.9981 3253.8318 -166.3862)">
					<stop  offset="0" style="stop-color:#008CB2"/>
					<stop  offset="0.2227" style="stop-color:#0188AD"/>
					<stop  offset="0.5014" style="stop-color:#047B9D"/>
					<stop  offset="0.8087" style="stop-color:#086684"/>
					<stop  offset="1" style="stop-color:#0B5570"/>
				</linearGradient>
				<path style="fill:url(#SVGID_00000018926499874077011190000014552743485380294067_);" d="M1773.29,344.51
					c-0.65,10.7,6.05,19.09,16.55,19.73c6.8,0.41,15.16-4.33,18.79-8.38c2.34-2.6,0.17-3.11-0.72-6.78
					c-2.22-9.1-9.78-16.66-17.51-18.64c-5.67-1.45-7.85,0.09-11.71,3.21C1775.6,336.15,1773.58,339.76,1773.29,344.51z"/>
				
					<ellipse transform="matrix(0.0608 -0.9981 0.9981 0.0608 1339.3203 2113.3774)" class="st21" cx="1792.7" cy="344.98" rx="7.98" ry="7.78"/>
				<g>
					<path d="M1812.01,351.82c-2.36-5.71-5.55-11.04-9.45-15.74c-4.53-5.48-10.37-10.27-17.25-11.32
						c-5.75-0.88-11.64,0.96-16.78,3.83c-5.14,2.87-13.97,13.61-16.01,14.18c0,0-4.03-0.01-5.58-1.48c1.85,2.81,4.11,6.63,6.87,8.47
						c4.69-5.43,4.05-5.88,11.06-12.08c5.16-4.57,11.92-8.66,18.86-7.83c7.54,0.91,13.8,6.49,18,13.06
						c3.33,5.21,6.38,10.69,7.13,12.24c0.09,0.19,0.15,0.32,0.17,0.39"/>
				</g>
				<path class="st19" d="M1787.91,349.2l-12.5,6.23c-1.1,0.55-2.44,0.1-2.99-1l-0.2-0.41c-0.55-1.1-0.1-2.44,1-2.99l12.5-6.23
					c1.1-0.55,2.44-0.1,2.99,1l0.2,0.41C1789.45,347.31,1789,348.65,1787.91,349.2z"/>
			</g>
		</g>
		<path class="st23" d="M1887.67,365.45c0.48,1.12,11.91,15.49,22.88,14.79s5.27,4.02-0.47,3.25
			C1891.1,380.97,1887.67,365.45,1887.67,365.45z"/>
		<path class="st23" d="M1813.23,360.23c-0.61,1.06-13.7,13.93-24.51,11.9c-10.81-2.03-5.72,3.35,0.07,3.29
			C1807.94,375.22,1813.23,360.23,1813.23,360.23z"/>
		
			<linearGradient id="SVGID_00000050658164279360464070000010571919176826261895_" gradientUnits="userSpaceOnUse" x1="2340.1785" y1="575.2528" x2="2405.6677" y2="575.2528" gradientTransform="matrix(-0.9981 -0.0608 -0.0608 0.9981 4174.3101 -110.2938)">
			<stop  offset="0" style="stop-color:#FFB699;stop-opacity:0"/>
			<stop  offset="0.0426" style="stop-color:#FDAF91;stop-opacity:0.0818"/>
			<stop  offset="0.1473" style="stop-color:#FBA383;stop-opacity:0.2831"/>
			<stop  offset="0.2788" style="stop-color:#F99C7B;stop-opacity:0.5359"/>
			<stop  offset="0.5203" style="stop-color:#F99A79"/>
			<stop  offset="0.7469" style="stop-color:#F99C7B;stop-opacity:0.5276"/>
			<stop  offset="0.866" style="stop-color:#FBA383;stop-opacity:0.2793"/>
			<stop  offset="0.9599" style="stop-color:#FDAF91;stop-opacity:0.0836"/>
			<stop  offset="1" style="stop-color:#FFB699;stop-opacity:0"/>
		</linearGradient>
		<path style="display:inline;fill:url(#SVGID_00000050658164279360464070000010571919176826261895_);" d="M1803.26,317.47
			c0.41,6.79,1.24,9.92-9.64,6.79c-10.88-3.12-16.62-6.55-23.83-2.68c-7.21,3.87-16.36,12.74-22.04,11.78s-13.86-8.02-8.05-12.59
			s17.46-14.13,30.27-15.58C1797.01,302.12,1803.26,317.47,1803.26,317.47z"/>
		
			<linearGradient id="SVGID_00000164473343060622551700000016739312402106850182_" gradientUnits="userSpaceOnUse" x1="1659.1238" y1="572.1152" x2="1724.613" y2="572.1152" gradientTransform="matrix(0.9981 0.0608 -0.0608 0.9981 269.5292 -348.2447)">
			<stop  offset="0" style="stop-color:#FFB699;stop-opacity:0"/>
			<stop  offset="0.0426" style="stop-color:#FDAF91;stop-opacity:0.0818"/>
			<stop  offset="0.1473" style="stop-color:#FBA383;stop-opacity:0.2831"/>
			<stop  offset="0.2788" style="stop-color:#F99C7B;stop-opacity:0.5359"/>
			<stop  offset="0.5203" style="stop-color:#F99A79"/>
			<stop  offset="0.7469" style="stop-color:#F99C7B;stop-opacity:0.5276"/>
			<stop  offset="0.866" style="stop-color:#FBA383;stop-opacity:0.2793"/>
			<stop  offset="0.9599" style="stop-color:#FDAF91;stop-opacity:0.0836"/>
			<stop  offset="1" style="stop-color:#FFB699;stop-opacity:0"/>
		</linearGradient>
		<path style="display:inline;fill:url(#SVGID_00000164473343060622551700000016739312402106850182_);" d="M1891.49,319.71
			c-1.23,6.69-2.44,9.69,8.74,7.91s17.29-4.48,23.98,0.23c6.68,4.71,14.69,14.63,20.45,14.37c5.76-0.26,14.74-6.28,9.52-11.52
			s-15.61-16.15-28.16-19.15C1899.55,305.23,1891.49,319.71,1891.49,319.71z"/>
	</g>
	<g id="Augen_Kopie_3_Kopie_Kopie_2_Kopie">
		<g>
			<g>
				<path class="st19" d="M1841.51,352.31c0,0,8.79-22.65,25.14-25.26c16.35-2.61,23.48-1.18,33.73,12.05
					c0,0-3.85,18.03-21.59,22.42C1855.14,367.38,1841.51,352.31,1841.51,352.31z"/>
				
					<linearGradient id="SVGID_00000182498994798201570610000008755906544287141784_" gradientUnits="userSpaceOnUse" x1="1964.9143" y1="554.5433" x2="1964.6482" y2="528.0685" gradientTransform="matrix(0.9778 -0.2095 0.2095 0.9778 -160.3482 234.3241)">
					<stop  offset="0" style="stop-color:#008CB2"/>
					<stop  offset="0.2227" style="stop-color:#0188AD"/>
					<stop  offset="0.5014" style="stop-color:#047B9D"/>
					<stop  offset="0.8087" style="stop-color:#086684"/>
					<stop  offset="1" style="stop-color:#0B5570"/>
				</linearGradient>
				<path style="fill:url(#SVGID_00000182498994798201570610000008755906544287141784_);" d="M1892.01,338.63
					c2.39,11.14-4.54,22.07-15.47,24.41c-10.93,2.34-21.73-4.79-24.12-15.93s4.6-18.59,15.53-20.94
					C1878.88,323.83,1889.62,327.49,1892.01,338.63z"/>
				
					<ellipse transform="matrix(0.9778 -0.2095 0.2095 0.9778 -30.1547 399.7994)" class="st21" cx="1871.68" cy="342.21" rx="8.27" ry="8.48"/>
				<g>
					<path d="M1839.61,351.15c1.76-5.47,4.45-10.75,7.95-15.58c4.07-5.63,9.6-10.87,16.68-12.97c5.92-1.76,12.32-1.11,18.07,0.56
						c5.75,1.68,16.35,9.73,18.55,9.89c0,0,4.23-0.69,5.67-2.26c-1.59,2.81-3.48,6.59-6.15,8.68c-5.59-4.03-4.98-4.54-13.1-8.86
						c-5.98-3.18-13.57-5.68-20.75-3.76c-7.79,2.08-13.66,8.1-17.25,14.65c-3.2,5.83-5.98,11.9-6.08,12.45"/>
				</g>
				<path class="st19" d="M1867.24,346.39l-11.31,10.22c-0.88,0.8-2.26,0.73-3.06-0.16l-0.59-0.66c-0.8-0.88-0.73-2.26,0.16-3.06
					l11.31-10.22c0.88-0.8,2.26-0.73,3.06,0.16l0.59,0.66C1868.19,344.22,1868.12,345.59,1867.24,346.39z"/>
			</g>
			<g>
				<path class="st19" d="M1769.92,366.67c0,0-17.3-17.06-33.28-12.74c-15.98,4.31-21.9,8.55-25.83,24.81
					c0,0,10.9,14.87,28.88,11.61C1763.67,386,1769.92,366.67,1769.92,366.67z"/>
				
					<linearGradient id="SVGID_00000065054241267544213500000013398618122280269441_" gradientUnits="userSpaceOnUse" x1="1365.6067" y1="553.5844" x2="1365.3406" y2="527.1095" gradientTransform="matrix(-0.9778 0.2095 0.2095 0.9778 2961.8345 -434.7697)">
					<stop  offset="0" style="stop-color:#008CB2"/>
					<stop  offset="0.2227" style="stop-color:#0188AD"/>
					<stop  offset="0.5014" style="stop-color:#047B9D"/>
					<stop  offset="0.8087" style="stop-color:#086684"/>
					<stop  offset="1" style="stop-color:#0B5570"/>
				</linearGradient>
				<path style="fill:url(#SVGID_00000065054241267544213500000013398618122280269441_);" d="M1718.26,374.88
					c2.39,11.14,13.19,18.27,24.12,15.93c10.93-2.34,17.86-13.27,15.47-24.41c-2.39-11.14-11.82-15.08-22.75-12.73
					S1715.87,363.74,1718.26,374.88z"/>
				
					<ellipse transform="matrix(0.9778 -0.2095 0.2095 0.9778 -38.9023 372.4562)" class="st21" cx="1738.27" cy="369.82" rx="8.27" ry="8.48"/>
				<g>
					<path d="M1771.19,364.83c-3.85-4.27-8.46-7.98-13.64-10.96c-6.02-3.47-13.21-5.99-20.53-5c-6.12,0.83-11.7,4.03-16.25,7.92
						c-4.56,3.88-10.92,15.58-12.87,16.63c0,0-4.14,1.1-6.1,0.26c2.6,1.91,5.88,4.58,9.17,5.4c3.45-5.97,2.68-6.18,8.31-13.45
						c4.15-5.36,10.05-10.74,17.39-11.94c7.96-1.3,15.78,1.79,21.74,6.29c5.31,4.01,10.33,8.41,10.65,8.86"/>
				</g>
				<path class="st19" d="M1734.71,375.37l-11.31,10.22c-0.88,0.8-2.26,0.73-3.06-0.16l-0.59-0.66c-0.8-0.88-0.73-2.26,0.16-3.06
					l11.31-10.22c0.88-0.8,2.26-0.73,3.06,0.16l0.59,0.66C1735.67,373.19,1735.6,374.57,1734.71,375.37z"/>
			</g>
		</g>
		<path class="st28" d="M1845.12,358.06c0.81,1.01,16.61,12.46,27.65,8.61s6.54,2.61,0.45,3.46
			C1853.06,372.97,1845.12,358.06,1845.12,358.06z"/>
		<path class="st28" d="M1774.7,372.47c-0.32,1.26-10.05,18.17-21.69,19.18c-11.65,1.01-4.9,5.06,1.01,3.34
			C1773.56,389.32,1774.7,372.47,1774.7,372.47z"/>
		
			<linearGradient id="SVGID_00000075853789325079058020000009823807016343613060_" gradientUnits="userSpaceOnUse" x1="2264.8955" y1="505.4981" x2="2334.4937" y2="505.4981" gradientTransform="matrix(-0.9778 0.2095 0.2095 0.9778 3863.5469 -628.0095)">
			<stop  offset="0" style="stop-color:#FFB699;stop-opacity:0"/>
			<stop  offset="0.0426" style="stop-color:#FDAF91;stop-opacity:0.0818"/>
			<stop  offset="0.1473" style="stop-color:#FBA383;stop-opacity:0.2831"/>
			<stop  offset="0.2788" style="stop-color:#F99C7B;stop-opacity:0.5359"/>
			<stop  offset="0.5203" style="stop-color:#F99A79"/>
			<stop  offset="0.7469" style="stop-color:#F99C7B;stop-opacity:0.5276"/>
			<stop  offset="0.866" style="stop-color:#FBA383;stop-opacity:0.2793"/>
			<stop  offset="0.9599" style="stop-color:#FDAF91;stop-opacity:0.0836"/>
			<stop  offset="1" style="stop-color:#FFB699;stop-opacity:0"/>
		</linearGradient>
		<path style="fill:url(#SVGID_00000075853789325079058020000009823807016343613060_);" d="M1753.47,336.75
			c2.35,6.84,4.1,9.8-7.93,9.71c-12.03-0.09-18.88-1.96-25.16,4.06c-6.27,6.02-13.11,17.71-19.2,18.35
			c-6.09,0.64-16.48-4.25-11.83-10.59c4.65-6.34,13.84-19.45,26.54-24.6C1742.7,322.82,1753.47,336.75,1753.47,336.75z"/>
		
			<linearGradient id="SVGID_00000052067797575925332740000007505358618913702818_" gradientUnits="userSpaceOnUse" x1="1736" y1="504.2819" x2="1805.5981" y2="504.2819" gradientTransform="matrix(0.9778 -0.2095 0.2095 0.9778 38.3735 191.7374)">
			<stop  offset="0" style="stop-color:#FFB699;stop-opacity:0"/>
			<stop  offset="0.0426" style="stop-color:#FDAF91;stop-opacity:0.0818"/>
			<stop  offset="0.1473" style="stop-color:#FBA383;stop-opacity:0.2831"/>
			<stop  offset="0.2788" style="stop-color:#F99C7B;stop-opacity:0.5359"/>
			<stop  offset="0.5203" style="stop-color:#F99A79"/>
			<stop  offset="0.7469" style="stop-color:#F99C7B;stop-opacity:0.5276"/>
			<stop  offset="0.866" style="stop-color:#FBA383;stop-opacity:0.2793"/>
			<stop  offset="0.9599" style="stop-color:#FDAF91;stop-opacity:0.0836"/>
			<stop  offset="1" style="stop-color:#FFB699;stop-opacity:0"/>
		</linearGradient>
		<path style="fill:url(#SVGID_00000052067797575925332740000007505358618913702818_);" d="M1841.08,316.73
			c0.65,7.2,0.27,10.62,11.21,5.61c10.94-5.01,16.42-9.53,24.61-6.61s19.22,10.79,25.04,8.87c5.82-1.91,13.29-10.63,6.46-14.51
			c-6.84-3.87-20.59-12.07-34.29-11.56C1845.2,299.61,1841.08,316.73,1841.08,316.73z"/>
	</g>
	<g id="Mund_2_">
		<g>
			<path class="st31" d="M1783.34,455.48l-1.83,4.16c0,0,21.44,18.43,27.95,18.5c6.5,0.07,36.27-0.24,43.69-11.46
				c7.43-11.22,12.98-27.46,12.98-27.46s-30.29,4.36-31.25,4.77C1833.92,444.41,1783.34,455.48,1783.34,455.48z"/>
			<path class="st19" d="M1782.29,458.74c0,0,0.94,3,10.12,4.79c9.18,1.8,31.67,2.59,42.89-1.34c6.19-2.17,24.51-12.05,29.11-21.83
				C1869.01,430.59,1782.29,458.74,1782.29,458.74z"/>
			<path class="st32" d="M1778.24,457.22c0,0,6.51-8.81,26.81-13.6c7.57-1.78,16.73-1.04,17.78-1.65
				c2.89-1.67,16.16-5.61,17.84-5.82c26.81-3.45,25.28,2.87,25.28,2.87s-23.25,12.03-40.87,15.34
				C1801.53,458.8,1778.24,457.22,1778.24,457.22z"/>
			<path class="st32" d="M1778.43,456.45c3.61-0.73,0.71-6.41,10.32,4.53c3.79,4.31,20.34,13.25,24.31,14.55
				c12.69,4.14,25.71-3.69,30.67-7.2c4.6-3.26,20.38-35.12,17.23-30.26c-1.1,1.7,3.26-5.74,5.36,1.72
				c2.02,7.17-9.29,29.79-14.34,36.53c-5.04,6.74-18.23,13.97-30.66,13.6c-23.12-0.69-32.42-16.56-37.91-23.51
				C1777.66,459.13,1778.43,456.45,1778.43,456.45z"/>
		</g>
		<path class="st33" d="M1795.55,452.86c0,0,5.45-1.37,10.43-2.1c6.16-0.9,10.64-0.19,5.68,1.08
			C1806.7,453.12,1795.55,452.86,1795.55,452.86z"/>
		<path class="st33" d="M1815.31,480.78c0,0,2.53-0.65,5.9-1.27c5.94-1.09,6.18-0.86,6.07-0.73
			C1824.37,482.26,1815.26,480.82,1815.31,480.78z"/>
	</g>
	<g id="Brauen_Kopie_3_Kopie_Kopie_Kopie_Kopie_3">
		<path class="st34" d="M1821.39,308.07c0.69-0.67,10.58-17.64,22.54-22.74c12.85-5.48,16.53-4.38,28.57-3.42
			c12.78,1.02,26.09,9.37,26.09,9.37s3.18,2.14-11.63-0.54c-6.26-1.13-30.32-3.75-43.93,5.04c-5.94,3.84-16.18,12.33-17.65,13.84
			C1823.07,312,1821.39,308.07,1821.39,308.07z"/>
		<path class="st34" d="M1764.55,330.17c-0.89-0.37-16.36-12.47-29.35-12.78c-13.96-0.34-16.98,2.05-27.81,7.4
			c-11.49,5.68-20.77,18.35-20.77,18.35s-2.16,3.17,10.6-4.8c5.4-3.37,26.78-14.7,42.67-11.58c6.94,1.36,19.59,5.46,21.52,6.32
			C1764.44,334.45,1764.55,330.17,1764.55,330.17z"/>
	</g>
	<g id="sprossen_4_">
		
			<ellipse transform="matrix(0.9777 -0.21 0.21 0.9777 -85.978 396.4641)" class="st35" cx="1824.19" cy="603.15" rx="2.25" ry="1.84"/>
		
			<ellipse transform="matrix(0.9777 -0.21 0.21 0.9777 -87.5822 392.5028)" class="st35" cx="1804.73" cy="608.73" rx="2.25" ry="1.84"/>
		
			<ellipse transform="matrix(0.9777 -0.21 0.21 0.9777 -84.8841 392.2233)" class="st35" cx="1804.77" cy="595.88" rx="2.25" ry="1.84"/>
		
			<ellipse transform="matrix(0.9777 -0.21 0.21 0.9777 -86.5879 390.1749)" class="st35" cx="1794.27" cy="602.88" rx="2.25" ry="1.84"/>
		
			<ellipse transform="matrix(0.9777 -0.21 0.21 0.9777 -43.2401 381.2611)" class="st36" cx="1773.96" cy="394.27" rx="2.25" ry="1.74"/>
		
			<ellipse transform="matrix(0.9777 -0.21 0.21 0.9777 -46.6072 380.3806)" class="st36" cx="1768.13" cy="409.69" rx="2.25" ry="1.74"/>
		
			<ellipse transform="matrix(0.9777 -0.21 0.21 0.9777 -45.1562 377.8041)" class="st36" cx="1756.72" cy="401.57" rx="2.56" ry="2.35"/>
	</g>
	<g id="sprossen_3_">
		
			<ellipse transform="matrix(0.9777 -0.21 0.21 0.9777 -82.3623 408.028)" class="st35" cx="1880.46" cy="591.91" rx="2.25" ry="1.84"/>
		
			<ellipse transform="matrix(0.9777 -0.21 0.21 0.9777 -81.3056 412.169)" class="st35" cx="1900.49" cy="589" rx="2.25" ry="1.84"/>
		
			<ellipse transform="matrix(0.9777 -0.21 0.21 0.9777 -78.9671 410.7946)" class="st35" cx="1895.19" cy="577.3" rx="2.25" ry="1.84"/>
		
			<ellipse transform="matrix(0.9777 -0.21 0.21 0.9777 -38.9322 394.9327)" class="st36" cx="1840.5" cy="380.82" rx="2.25" ry="1.74"/>
		
			<ellipse transform="matrix(0.9777 -0.21 0.21 0.9777 -41.1217 397.6381)" class="st36" cx="1852.15" cy="392.49" rx="2.25" ry="1.74"/>
		
			<ellipse transform="matrix(0.9777 -0.21 0.21 0.9777 -38.4257 398.8527)" class="st36" cx="1859.22" cy="380.4" rx="2.56" ry="2.35"/>
	</g>
	<g id="Rouge_2_">
		<path class="st37" d="M1772.33,420.48c2.52,11.72-12.86,25.13-28.6,28.51c-15.74,3.38-35.09-13.45-37.61-25.17
			c-2.52-11.72,6.38-13.55,22.12-16.94C1743.99,403.5,1769.81,408.76,1772.33,420.48z"/>
		<path class="st37" d="M1863.96,402.19c2.52,11.72,22.04,17.63,37.79,14.25c15.74-3.38,26.47-26.67,23.96-38.39
			c-2.52-11.72-11.38-9.74-27.13-6.36S1861.44,390.47,1863.96,402.19z"/>
	</g>
	<g id="Ohren_2_">
		<g>
			<g>
				<path class="st0" d="M1928.39,365.69c4.18,19.45,7.26,42.55,8,43.11c16.43,12.31,38.75-32.07,34.57-51.53
					c-4.18-19.45-15.48-27.52-28.74-24.67C1928.95,335.45,1924.21,346.24,1928.39,365.69z"/>
			</g>
		</g>
		<g>
			<g>
				<path class="st0" d="M1699.21,413.68c4.18,19.45,17.17,40.69,3.91,43.54c-27.21,5.84-47.32-16.94-51.5-36.39
					c-4.18-19.45,3.15-28.59,16.42-31.44C1681.3,386.54,1695.03,394.23,1699.21,413.68z"/>
			</g>
			<path class="st15" d="M1689.46,404.7c0,0-15.56-17.87-25.66-5.1s-1.93,22.19-1.93,22.19s9.2-19.73,9.22-6.45
				c0.03,17.02,24.33,28.83,24.33,28.83s-19.47-25.68-10.63-28.7C1693.64,412.45,1689.46,404.7,1689.46,404.7z"/>
			<path class="st15" d="M1930.13,358.46c0,0,6.85-22.68,21.3-15.18s10.87,19.44,10.87,19.44s-16.49-14.21-11.06-2.09
				c6.96,15.53-10.35,36.28-10.35,36.28s7.21-31.41-2.09-30.53C1929.51,367.24,1930.13,358.46,1930.13,358.46z"/>
		</g>
	</g>
	<path id="nase_2_" class="st15" d="M1795.14,415.8c-0.62-0.42-0.38-1.38,0.37-1.44c4.23-0.34,14.08-1.21,19.97-2.48
		c8.07-1.73,16.65-4.35,20.35-5.53c0.7-0.22,1.3,0.55,0.9,1.17c-1.97,3.05-7.24,9.2-18.86,11.85
		C1806.24,422.04,1798.38,418.01,1795.14,415.8z"/>
	<g>
		<g id="Haareoben_2_">
			<g>
				<path class="st12" d="M1784.61,188.24c17.34,5.14,35.82,6.11,52.73,12.5c26.91,10.17,71.78,14.24,88.01,37.99
					c17.58,25.73,29.78,41.9,16.53,93.31c-5.28-16.6-17.32-24.85-32.19-33.91c-14.88-9.06-41.75-13.19-56.05-23.13
					c-14.34-9.97-34.11-27.55-42.68-42.75c-6.62-11.75-13.48-19.5-23.06-29.38c-19.32-19.93-60.17,4.23-82.2,9.88
					c-25.31,6.49-26.54-0.79-47.63,14.65c-21.08,15.44-40.32,88.08-36.93,114c0,0,0.13,0.95,0.32,2.59
					c1.32,11.14,16.36,49.09-4.78,83.22c-7.39,11.93,26.56-17.99,24.69-37.12"/>
			</g>
			<g>
				<path class="st12" d="M1668.91,403.91c-2.06-21.5,6,11.61,20.06-4.78c18.17-21.17-18.19-56.58,3.86-73.68
					c33.89-26.28,116.46-100.09,113.63-142.88c-5.35,4.84-11.04,9.23-16.97,13.26c-20.61,14.01-44.21,23.77-67.28,33.59
					c-13.19,5.61-26.47,11.41-37.92,20.03c-18.84,14.18-40,24.52-43.56,47.83s10.53,59.33,24.28,78.49
					c2.4-7.08,2.75,36.63,5.15,29.56"/>
			</g>
			<g>
				<g>
					<path class="st12" d="M1647.49,438.5c-7.7-12.91-14.41-26.44-19.54-40.58c-4.35-11.98-7.58-24.38-9.3-37.02
						c-1.53-11.18-1.85-22.54-0.87-33.79c0.89-10.17,2.86-20.23,5.84-29.99c2.77-9.07,6.4-17.86,10.77-26.27
						c4.06-7.81,8.74-15.3,13.92-22.41c4.73-6.49,9.89-12.67,15.38-18.52c4.79-5.1,9.84-9.96,15.13-14.55
						c4.18-3.63,8.5-7.09,12.99-10.33c3-2.17,6.06-4.26,9.25-6.13c0.49-0.29,0.99-0.57,1.49-0.85c0.85-0.46,0.09-1.76-0.76-1.3
						c-2.84,1.55-5.55,3.34-8.21,5.18c-4.29,2.97-8.43,6.16-12.44,9.49c-5.2,4.32-10.19,8.9-14.94,13.71
						c-5.54,5.61-10.75,11.53-15.59,17.75c-5.37,6.91-10.27,14.17-14.59,21.78c-4.62,8.15-8.57,16.69-11.71,25.53
						c-3.39,9.55-5.83,19.43-7.21,29.47c-1.5,10.89-1.78,21.93-0.87,32.89c1.02,12.4,3.51,24.66,7.18,36.55
						c4.25,13.78,10.05,27.07,16.89,39.76c1.89,3.5,3.85,6.95,5.89,10.36C1646.69,440.09,1647.99,439.33,1647.49,438.5
						L1647.49,438.5z"/>
				</g>
			</g>
			<g>
				<path class="st14" d="M1821.15,199.08c8.12,18.61,29.59,34.87,47.1,45.15c22.44,13.18,35.94,10.73,40.72,10.24
					c-14-48.95-72.95-37.79-88.58-56.34"/>
			</g>
			<path class="st14" d="M1621.81,356.1c0,0,31.07,44.21,41.15,101.76s76.35,102.56,76.35,102.56s-29,7.76-55.72-21.81
				C1660.33,512.86,1621.81,356.1,1621.81,356.1z"/>
			<path class="st34" d="M1624.55,335.09c10.66,49.63,46.81,56.8,46.81,56.8l20.35,17.12c0,0,7.37-23.21,3.45-34.93
				c-3.91-11.72-8.39-19.55-9.65-29.33s4.44-17,4.44-17s-78.31,18.77-38.72-54.21S1613.9,285.46,1624.55,335.09z"/>
			<path class="st34" d="M1904.49,197.24c0,0-16.06,47.41,26.66,85.13s47.84,84.35,47.84,84.35s-17.36-91.17-46.32-141.61
				C1918.4,200.25,1904.49,197.24,1904.49,197.24z"/>
			<path class="st38" d="M1681.18,214.48c0,0-25.71,14.59-33.01,34.28s-10.4,37.63-1.45,20.09c10.15-19.9,28.26-35.32,28.26-35.32
				s40.82-41.33,24.03-27.47C1692.6,211.34,1681.18,214.48,1681.18,214.48z"/>
			<g>
				<g>
					<g>
						<path class="st12" d="M1658.48,226.28c-2.47,1.6-4.33,4.1-6.03,6.44c-2.42,3.33-4.57,6.86-6.6,10.43
							c-4.45,7.81-8.46,15.93-11.8,24.28c-1.08,2.69-2.18,5.46-2.77,8.31c-1.44,7.01-2.29,14.21-2.93,21.34
							c-1.36,14.97-1.26,30.08,0.33,45.04c1.5,14.07,4.59,28.56,13.83,39.72c0.39,0.47,1.32,0.59,1.82,0.23
							c1.92-1.36,2.57-3.78,1.41-5.87c-0.94-1.69-3.53-0.18-2.59,1.51c0.32,0.58,0.24,1.36-0.33,1.77c0.61,0.08,1.21,0.16,1.82,0.23
							c-7.95-9.61-11.04-22.2-12.57-34.32c-1.79-14.23-2.1-28.69-1.13-42.99c0.49-7.3,1.33-14.57,2.53-21.79
							c0.58-3.48,1.33-6.7,2.56-10c2.93-7.86,6.67-15.46,10.68-22.81c2.23-4.1,4.59-8.15,7.24-12c1.01-1.47,2.07-2.92,3.25-4.27
							c0.89-1.02,1.93-2.08,2.82-2.66C1661.61,227.82,1660.11,225.23,1658.48,226.28L1658.48,226.28z"/>
					</g>
				</g>
				<path class="st39" d="M1796.65,185.09c0,0,7.1,75.93,47.13,90.78c40.03,14.85,77.12,19.86,77.12,19.86l-104.39-92.3
					L1796.65,185.09z"/>
				<g>
					<g>
						<path class="st12" d="M1660.89,227.45c19.2-16.04,41.05-29.36,65.18-36.44c16.95-4.97,34.84-6.72,52.39-4.44
							c11.8,1.53,23.61,4.82,34.2,10.33c4.12,2.15,8.15,4.02,12.59,5.46c6.52,2.11,13.19,3.75,19.85,5.33
							c16.57,3.93,33.27,7.29,49.8,11.36c8.03,1.98,16.03,4.1,23.9,6.64c6.4,2.07,12.81,4.38,18.74,7.59
							c2.25,1.22,4.46,2.57,6.41,4.23c2.11,1.79,3.44,3.82,4.83,6.2c6.5,11.13,12.24,22.74,16.96,34.74
							c4.67,11.87,8.5,24.26,10.06,36.95c1.68,13.66,2.19,27.49,2.75,41.23c0.28,6.81,0.55,13.62,0.9,20.42
							c0.3,5.7,0.78,11.39,0.95,17.1c0.27,9.51-0.06,19.02-0.14,28.53c-0.08,10.21,0.01,20.46,1.09,30.63
							c0.94,8.88,2.57,17.92,6.42,26.05c1.64,3.45,3.73,6.68,6.35,9.47c0.66,0.7,1.72-0.36,1.06-1.06
							c-5.95-6.3-8.85-14.83-10.6-23.16c-2.09-9.98-2.62-20.24-2.79-30.41c-0.17-10.06,0.13-20.11,0.19-30.17
							c0.06-10.88-0.8-21.69-1.31-32.56c-0.63-13.72-1.03-27.46-2.03-41.16c-0.49-6.64-0.97-13.31-2.08-19.88
							c-1.06-6.29-2.63-12.49-4.52-18.58c-3.88-12.51-9.08-24.61-15.06-36.26c-2.64-5.15-5.32-10.41-8.48-15.26
							c-1.17-1.79-2.71-3.28-4.38-4.59c-4.56-3.56-9.98-5.97-15.33-8.08c-7.2-2.84-14.64-5.07-22.11-7.1
							c-16.82-4.59-33.9-8.12-50.9-11.94c-7.49-1.68-14.98-3.4-22.39-5.41c-5.33-1.45-10.78-2.96-15.79-5.35
							c-4.15-1.98-8.08-4.25-12.37-5.96c-5.76-2.29-11.73-4.05-17.8-5.31c-16.08-3.35-32.75-3.24-48.86-0.15
							c-22.55,4.32-43.66,14.39-62.43,27.44c-5.63,3.92-11.07,8.11-16.33,12.51C1659.08,227.01,1660.15,228.06,1660.89,227.45
							L1660.89,227.45z"/>
					</g>
				</g>
			</g>
			<path class="st39" d="M1622.44,349.42c0,0,50.16,149.33,52.31,171.98c1.32,13.95-6.09,32.24-6.09,32.24"/>
			<path class="st39" d="M1653.26,562.61"/>
			<path class="st39" d="M1635.75,400.23"/>
			<g>
				<path class="st14" d="M1658.22,308.76c-2.35-3.75-2.8-8.38-2.69-12.81c0.5-18.89,10.33-36.64,23.67-50.03
					c5.77-5.79,12.19-10.88,18.6-15.95c16.44-13.03,32.9-26.06,50.04-38.17c1.9-1.34,3.86-2.7,6.13-3.2
					c2.27-0.5,4.93,0.04,6.29,1.92c2.21,3.04-0.04,7.26-2.47,10.13c-6.74,7.96-15.09,14.37-23.27,20.83
					c-21.69,17.14-42.99,35.57-57.73,58.96c-3.63,5.76-6.85,11.81-11.13,17.11c-2.69,3.33-5.78,6.34-9.18,8.95"/>
			</g>
			<g>
				<g>
					<path class="st14" d="M1684.48,388.25c-12.53-17.63-23.62-39.16-21.16-61.47c1.5-13.56,8.39-25.58,18-35.05
						c3.38-3.33,7.05-6.34,10.84-9.19c9.45-7.12,19.52-13.3,29.41-19.78c5.23-3.43,10.65-6.87,15.4-10.95
						c2.24-1.92,4.15-4.24,5.95-6.57c5.22-6.77,9.61-14.19,13.76-21.65c4.72-8.47,9.08-17.15,13.1-25.98
						c3.15-6.92,6.21-13.97,8.46-21.24c0.38-1.22,0.73-2.45,1.01-3.7c0.11-0.47-0.62-0.67-0.72-0.2c-1.56,6.79-4.4,13.35-7.16,19.72
						c-3.79,8.76-7.98,17.35-12.48,25.77c-4.26,7.99-8.78,15.9-13.99,23.31c-1.98,2.81-4.06,5.58-6.44,8.07
						c-3.46,3.61-7.82,6.39-11.93,9.19c-14.7,10.05-30.69,18.66-43.83,30.83c-9.53,8.82-16.92,19.98-19.44,32.87
						c-3.94,20.13,4.04,40.39,14.49,57.27c1.92,3.11,3.96,6.14,6.08,9.12C1684.11,389.02,1684.76,388.64,1684.48,388.25
						L1684.48,388.25z"/>
				</g>
			</g>
			<g>
				<g>
					<path class="st14" d="M1797.86,171.03c3.81,13.79,9.1,27.21,15.53,39.98c6.64,13.19,14.6,25.91,24.47,36.94
						c4.5,5.02,9.42,9.69,14.88,13.67c6.9,5.03,14.5,9.04,22.23,12.63c7.85,3.64,15.88,6.85,23.82,10.29
						c3.48,1.51,6.97,2.99,10.28,4.86c3.04,1.71,5.94,3.65,8.75,5.72c12.19,9.01,23.15,20.48,31.5,33.13
						c0.88,1.34,1.73,2.69,2.53,4.08c0.24,0.42,0.89,0.04,0.65-0.38c-7.35-12.59-17.63-23.8-28.78-33.13
						c-5.35-4.48-11.09-8.63-17.36-11.71c-7.59-3.72-15.55-6.73-23.31-10.08c-7.84-3.39-15.6-6.99-22.91-11.42
						c-6.34-3.84-12.15-8.35-17.39-13.59c-10.45-10.44-18.81-22.9-25.81-35.86c-6.98-12.91-12.71-26.56-16.97-40.6
						c-0.48-1.57-0.93-3.14-1.37-4.72C1798.45,170.37,1797.73,170.57,1797.86,171.03L1797.86,171.03z"/>
				</g>
			</g>
			<g>
				<g>
					<path class="st14" d="M1913.94,266.38c5.88,13.77,15.94,25.11,26.12,35.86c10.53,11.12,22.14,22.04,29.66,35.54
						c3.87,6.96,6.58,14.42,7.75,22.3c1.19,8.05,1.22,16.24,1.23,24.37c0.02,7.89,0.22,15.7,0.84,23.57
						c0.64,8.03,1,16.09,1.59,24.12c1.12,15.3,3.5,30.46,10.12,44.45c0.91,1.92,1.88,3.8,2.91,5.66c0.23,0.42,0.88,0.04,0.65-0.38
						c-3.97-7.16-6.99-14.77-9-22.7c-1.9-7.48-2.92-15.15-3.59-22.83c-0.69-7.97-1.04-15.97-1.6-23.96
						c-0.28-4.03-0.71-8.06-0.91-12.09c-0.2-3.89-0.23-7.78-0.25-11.67c-0.03-8.07,0.08-16.17-0.71-24.22
						c-0.75-7.64-2.58-14.82-5.76-21.81c-6.36-13.98-17.42-25.21-27.89-36.17c-10.4-10.88-21.15-21.91-28.14-35.4
						c-0.85-1.64-1.64-3.32-2.36-5.02C1914.4,265.56,1913.75,265.94,1913.94,266.38L1913.94,266.38z"/>
				</g>
			</g>
			<g>
				<g>
					<path class="st14" d="M1619.78,300.31c-0.63,5.34-0.97,10.72-1.29,16.09c-0.42,7.02-0.75,14.06-0.65,21.1
						c0.04,2.58,0.11,5.19,0.46,7.75c0.47,3.48,1.78,6.86,2.69,10.23c2.67,9.88,4.95,19.85,7.23,29.82
						c4.61,20.21,9.07,40.57,16.25,60.07c6.89,18.72,17.19,35.82,26.53,53.37c9.22,17.32,17.53,35.49,19.89,55.18
						c0.3,2.48,0.5,4.97,0.62,7.46c0.02,0.48,0.77,0.48,0.75,0c-0.93-19.56-7.82-37.89-16.56-55.21
						c-9.02-17.88-19.86-34.91-27.55-53.44c-7.93-19.09-12.73-39.31-17.33-59.4c-2.29-9.99-4.51-19.99-7-29.93
						c-1.23-4.89-2.52-9.77-3.93-14.62c-0.69-2.36-1.03-4.64-1.17-7.1c-0.37-6.69-0.09-13.43,0.23-20.11
						c0.3-6.21,0.7-12.41,1.29-18.6c0.08-0.89,0.17-1.78,0.28-2.67C1620.59,299.83,1619.83,299.83,1619.78,300.31L1619.78,300.31z"
						/>
				</g>
			</g>
		</g>
		<path class="st12" d="M1970.72,407.96c0,0-15.69,33.51,8.59,40.02c24.29,6.51,34.23-1.77,34.23-1.77s-28.44-5.06-34.51-17.71
			C1972.98,415.85,1970.72,407.96,1970.72,407.96z"/>
		<path class="st12" d="M1709.37,190.01c0,0,2.25-22.67,32.53-22.06c30.28,0.62,46.72,5.04,46.72,5.04s-29.19-3.36-45.66,1.85
			c-16.47,5.21-33.58,21.03-33.58,21.03L1709.37,190.01z"/>
		<path class="st34" d="M1718.18,188.12c0,0-9.54,32.89-23.68,39.84c-14.14,6.94,33.54-12.79,33.34-26.7
			c-0.2-13.91-0.12-16.16-0.12-16.16L1718.18,188.12"/>
		<path class="st28" d="M1691.41,418.28c0,0,4.44,24.59,13.26,40.28c8.81,15.69,18.05,27.52,25.37,34.33
			c7.32,6.8-12.39-12.83-19-31.93S1691.41,418.28,1691.41,418.28z"/>
	</g>
</g>
<g id="Hand_x5F_R_9_">
	<path class="st0" d="M1542.33,1091.99l-80.37,23.2c0,0,0.55,41.21,27.56,37.11c27.02-4.09,37.11,3,53.21-6
		c16.1-9.01,31.93-51.85,31.93-51.85L1542.33,1091.99z"/>
	<path class="st0" d="M1510.54,1139.75c0,0-15.5,8.37-29.61,18.56c-12.7,9.17-23.94,20.08-27.43,22.92
		c-6.43,5.24-0.82,11.73,14.74,7.64c15.56-4.09,40.25-21.56,41.34-22.1c1.09-0.55,25.32-11.27,32.75-18.69
		c7.23-7.23,12.69-17.33,12.69-17.33L1510.54,1139.75z"/>
	<path class="st0" d="M1474.25,1133.2l-37.66,21.01l-39.3,32.75c0,0-9.01,5.73,1.36,6.55s23.4-7.03,26.4-10.85
		c1.04-1.33,21.95-11.25,29.06-16.58c0.82-0.61,46.46-14.53,46.46-14.53L1474.25,1133.2z"/>
	<path class="st0" d="M1470.15,1121.19l-37.66,21.01l-39.3,32.75c0,0-9.01,5.73,1.36,6.55c10.37,0.82,37.39-16.65,40.39-20.47
		s58.13-24.56,58.13-24.56L1470.15,1121.19z"/>
	<path class="st0" d="M1461.15,1117.64l-35.56,19.61l-35.46,33.8c0,0-8.26,6.07,1.79,6.07c10.05,0,34.8-18.48,37.41-22.3
		s54.2-27.48,54.2-27.48L1461.15,1117.64z"/>
	<path class="st0" d="M1463.33,1115.32l-22.51,7.78l-44.43,31.48c0,0-9.12,4.67,0.8,6.28s37.3-12.67,40.49-16.03
		c3.19-3.36,57.89-18.46,57.89-18.46L1463.33,1115.32z"/>
	<g>
		<path class="st40" d="M1470.15,1139.2c0,0-12.14,4.98-24.42,10.92s-36.23,26.2-36.23,26.2"/>
		<path class="st40" d="M1461.15,1131.7c0,0-15.56,6.48-27.84,12.42c-12.28,5.94-36.23,26.2-36.23,26.2"/>
		<path class="st40" d="M1456.64,1125.83c0,0-8.05,3.07-20.33,9.01c-12.28,5.94-36.23,26.2-36.23,26.2"/>
	</g>
	<path class="st16" d="M1520.77,1103.59c0.94-0.97-72.18,15.42-68.5,17.06S1513.95,1110.68,1520.77,1103.59z"/>
</g>
<g id="Hand_x5F_R_4_">
	<path class="st0" d="M1542.33,1091.99l-80.37,23.2c0,0,0.55,41.21,27.56,37.11c27.02-4.09,37.11,3,53.21-6
		c16.1-9.01,31.93-51.85,31.93-51.85L1542.33,1091.99z"/>
	<path class="st0" d="M1510.54,1139.75c0,0-15.5,8.37-29.61,18.56c-12.7,9.17-23.94,20.08-27.43,22.92
		c-6.43,5.24-0.82,11.73,14.74,7.64c15.56-4.09,40.25-21.56,41.34-22.1c1.09-0.55,25.32-11.27,32.75-18.69
		c7.23-7.23,12.69-17.33,12.69-17.33L1510.54,1139.75z"/>
	<path class="st0" d="M1474.25,1133.2l-37.66,21.01l-39.3,32.75c0,0-9.01,5.73,1.36,6.55s23.4-7.03,26.4-10.85
		c1.04-1.33,21.95-11.25,29.06-16.58c0.82-0.61,46.46-14.53,46.46-14.53L1474.25,1133.2z"/>
	<path class="st0" d="M1470.15,1121.19l-37.66,21.01l-39.3,32.75c0,0-9.01,5.73,1.36,6.55c10.37,0.82,37.39-16.65,40.39-20.47
		s58.13-24.56,58.13-24.56L1470.15,1121.19z"/>
	<path class="st0" d="M1461.15,1117.64l-35.56,19.61l-35.46,33.8c0,0-8.26,6.07,1.79,6.07c10.05,0,34.8-18.48,37.41-22.3
		s54.2-27.48,54.2-27.48L1461.15,1117.64z"/>
	<path class="st0" d="M1463.33,1115.32l-22.51,7.78l-44.43,31.48c0,0-9.12,4.67,0.8,6.28s37.3-12.67,40.49-16.03
		c3.19-3.36,57.89-18.46,57.89-18.46L1463.33,1115.32z"/>
	<g>
		<path class="st40" d="M1470.15,1139.2c0,0-12.14,4.98-24.42,10.92s-36.23,26.2-36.23,26.2"/>
		<path class="st40" d="M1461.15,1131.7c0,0-15.56,6.48-27.84,12.42c-12.28,5.94-36.23,26.2-36.23,26.2"/>
		<path class="st40" d="M1456.64,1125.83c0,0-8.05,3.07-20.33,9.01c-12.28,5.94-36.23,26.2-36.23,26.2"/>
	</g>
	<path class="st16" d="M1520.77,1103.59c0.94-0.97-72.18,15.42-68.5,17.06S1513.95,1110.68,1520.77,1103.59z"/>
</g>
<g id="Hand_x5F_R_2_">
	<path class="st0" d="M2205.53,608.38l74.19-38.64c0,0-8.69-40.28-34.36-30.93c-25.67,9.36-36.97,4.4-50.97,16.42
		s-21.04,57.14-21.04,57.14L2205.53,608.38z"/>
	<path class="st0" d="M2227.24,555.27c0,0,13.54-11.27,25.35-24.05c10.63-11.5,19.49-24.42,22.35-27.9
		c5.27-6.41-1.52-11.66-15.96-4.57c-14.44,7.09-35.19,29.1-36.15,29.85c-0.96,0.75-22.59,16.06-28.4,24.8
		c-5.66,8.52-9.01,19.5-9.01,19.5L2227.24,555.27z"/>
	<path class="st0" d="M2264.12,554.51l32.76-28.05l32.04-39.88c0,0,7.69-7.4-2.63-6.15c-10.33,1.25-21.55,11.52-23.73,15.86
		c-0.76,1.51-19.29,15.37-25.21,22c-0.68,0.76-42.67,23.44-42.67,23.44L2264.12,554.51z"/>
	<path class="st0" d="M2270.51,565.47l32.76-28.05l32.04-39.88c0,0,7.69-7.4-2.63-6.15c-10.33,1.25-33.35,23.72-35.54,28.06
		c-2.19,4.34-52.12,35.58-52.12,35.58L2270.51,565.47z"/>
	<path class="st0" d="M2280.04,567.17l30.98-26.26l28.07-40.15c0,0,6.89-7.59-2.96-5.6c-9.85,1.99-30.45,25-32.26,29.26
		c-1.8,4.27-47.69,37.66-47.69,37.66L2280.04,567.17z"/>
	<path class="st0" d="M2278.35,569.87l20.53-12.08l37.32-39.65c0,0,8.02-6.39-2.02-6s-34.06,19.81-36.52,23.73
		c-2.46,3.92-53.09,29.55-53.09,29.55L2278.35,569.87z"/>
	<g>
		<path class="st40" d="M2266.94,547.82c0,0,10.92-7.29,21.78-15.53c10.86-8.25,30.33-32.85,30.33-32.85"/>
		<path class="st40" d="M2277.25,553.39c0,0,13.96-9.43,24.83-17.68c10.86-8.25,30.33-32.85,30.33-32.85"/>
		<path class="st40" d="M2282.83,558.25c0,0,7.28-4.6,18.15-12.85s30.33-32.85,30.33-32.85"/>
	</g>
	<path class="st16" d="M2224.37,592.74c-0.73,1.14,67.7-29.4,63.77-30.27C2284.2,561.59,2229.65,584.44,2224.37,592.74z"/>
</g>
<g id="Hose_Kopie_Kopie_3">
	<g>
		<path class="st41" d="M1607.15,771.61c16.92-64.4,88.13-173.39,88.13-173.39l47.23-14.91c0,0-25.49,24.66-44.76,56.76
			c-12.28,20.47-49.39,106.16-66.59,146.27c-0.43,1-24.15-13.37-24.15-13.37"/>
		<path class="st42" d="M1669.91,1192.83c-2.85,2.14,18.34,162.74,35.75,331.43c9.28,89.91,22.59,182.27,25.79,257.07
			c0.02,0.38-10.78,2.33-10.64,3.14c4.97,29.87,16.99,68.09,19.75,75.35c0,0,28.48,28.02,95.28,2.97
			c0.23-0.09,3.68-30.02,11.05-76.14c0.23-1.47-9.72-0.26-9.69-1.77c1.43-66.05,4.09-166.69,5.95-262.26
			c3-154.33,5.78-302.91,5.78-302.91L1669.91,1192.83z"/>
		<path class="st43" d="M1731.45,1781.33c-0.37-0.08-10.78,2.33-10.64,3.14c4.97,29.87,16.99,68.09,19.75,75.35
			c0,0,28.48,28.02,95.28,2.97c0.23-0.09,3.68-30.02,11.05-76.14c0.23-1.47-8.22-2.15-9.69-1.77
			C1809.64,1791.97,1782.62,1792.79,1731.45,1781.33z"/>
		<path class="st42" d="M2031.23,1216.16c0.46-6.96,34.77,347.15,33.98,560.22c0,0.38,0,0.76,0,1.14c0,0.83,7.78,2.98,7.77,3.8
			c-0.17,30.28-5.98,69.92-7.56,77.53c0,0-23.68,32.18-93.6,18.03c-0.25-0.05-8.4-29.06-22.98-73.42c-0.46-1.41,8.4-4.51,8.12-6
			c-9.45-51.7-12.42-152.42-26.98-228.99c-33.29-175.11-81.6-341.12-81.6-341.12L2031.23,1216.16z"/>
		<g>
			<path class="st42" d="M1713.57,1016.11c-20.71,50.22-34.92,102.9-43.78,177.11c78.13,37.2,168.13,37.77,254.64,35.45
				c36.01-0.97,72.39-2.36,107.16-11.77c-11.13-62.31-49.98-214.64-51.67-215.51c-0.1-0.05-0.39,1.07-0.55,1.09
				c-3.82,0.55-9.05,2.82-9.28,2.18c-8.47,3.59-44.9,11.81-119.53,9.82c-38.86-1.03-86.1-1.5-133.58-6.14
				c-0.03,0-0.68,3.97-0.68,3.89"/>
		</g>
	</g>
	<path class="st44" d="M1738.41,1061.29c0,0,0.58,0.13,1.64,0.38c13.4,3.09,104.3,23.88,108.47,20.09c4.5-4.09,3.68-9.82,3.68-9.82
		l-113.29-23.71L1738.41,1061.29"/>
	<g>
		<path class="st45" d="M1738.41,1061.29c0,0,0.58,0.13,1.64,0.38c13.4,3.09,110.03,25.11,114.2,21.32
			c4.5-4.09,13.51-57.31,13.51-57.31l-128.84,22.55L1738.41,1061.29"/>
		<path class="st45" d="M1882.91,1073.98c0,0,0.57,3.85,1.64,4.09c13.4,3.09,107.58-7.26,111.75-11.05
			c4.5-4.09-11.05-51.99-11.05-51.99l-118.71,11.87l17.19,50.76"/>
	</g>
	<g>
		<path class="st45" d="M1897.51,1414.55c0,0,62.77,265.8,76.41,292.55c13.64,26.74,28.38,85.69,28.38,85.69l-46.12,5.46
			C1956.18,1798.25,1911.15,1444.57,1897.51,1414.55z"/>
		<g>
			<g>
				<path class="st46" d="M1857.69,1233.9c11.65,35.46,22.48,71.18,32.46,107.14c10.02,36.14,19.19,72.51,27.5,109.08
					c8.27,36.39,15.68,72.98,22.23,109.72c6.62,37.14,12.37,74.43,17.22,111.85c4.79,37.01,8.72,74.13,11.77,111.33
					c0.38,4.65,0.75,9.3,1.1,13.95c0.15,1.91,3.15,1.93,3,0c-2.85-37.39-6.57-74.72-11.18-111.93
					c-4.58-36.99-10.02-73.88-16.32-110.62c-6.37-37.14-13.62-74.12-21.75-110.92c-8.08-36.62-17.03-73.05-26.83-109.24
					s-20.46-72.16-31.96-107.85c-1.43-4.44-2.88-8.88-4.33-13.31C1859.98,1231.27,1857.09,1232.06,1857.69,1233.9L1857.69,1233.9z"
					/>
			</g>
		</g>
	</g>
	<path class="st47" d="M1968.58,1799.93l-10.22,5.15c0,0,18.28,62.22,22.92,74.23"/>
	<path class="st43" d="M2065.46,1779.07c0.36-0.13,10.98,0.99,10.95,1.81c-1.27,30.25-8.51,69.66-10.37,77.21
		c0,0-25.21,36.24-94.58,19.57c-0.24-0.06-9.96-29.63-22.92-74.5c-0.41-1.43,6.14-5.11,7.64-4.91
		C1984.41,1801.91,2016.08,1796.72,2065.46,1779.07z"/>
	<path class="st47" d="M1739.23,1784.33l-10.37,2.73c0,0,13.64,73.14,18.56,78.05"/>
	<g>
		<g class="st48">
			<path class="st44" d="M1847.84,1231.44c-3.82-1.23-42.3-3.27-49.94-2.18c-5.46,0.78,10.37,15.01,14.19,20.47
				c9.89,14.12,10.33,35.5,10.75,52.74c2.15,87.2-3.9,386.21-1.75,473.41c0.07,2.8,17.24,8.55,17.47-1.64
				c2.18-98.79,5.61-414.66,10.37-504.31c0.58-10.92,2.49-27.15-0.55-37.66"/>
		</g>
		<g class="st48">
			<path class="st44" d="M2034.88,1582.69c-3.68,2-4.93,7.4-8.29,11.56c-8.62,10.71-13.41,23.25-20.8,34.85
				c-2.76,4.34-5.04,10.96-0.77,13.83c2.54,1.71,5.97,0.81,8.77-0.44c21.61-9.67,31.74-63.02,21.14-59.87"/>
		</g>
		<g class="st48">
			<path class="st44" d="M2020.08,1650.7c-1.63,0.29-2.76,2.17-4.53,3.32c-4.55,2.96-7.9,7.07-12.09,10.51
				c-1.57,1.29-3.24,3.49-1.99,5.09c0.74,0.95,2.14,1.04,3.34,0.91c9.3-0.97,19.66-19.73,15.3-19.86"/>
		</g>
		<g class="st48">
			<path class="st44" d="M1802.37,1581.87c-3.68,2-4.93,7.4-8.29,11.56c-8.62,10.71-13.41,23.25-20.8,34.85
				c-2.76,4.34-5.04,10.96-0.77,13.83c2.54,1.71,5.97,0.81,8.77-0.44c21.61-9.67,31.74-63.02,21.14-59.87"/>
		</g>
		<g class="st48">
			<path class="st44" d="M1787.57,1649.88c-1.63,0.29-2.76,2.17-4.53,3.32c-4.55,2.96-7.9,7.07-12.09,10.51
				c-1.57,1.29-3.24,3.49-1.99,5.09c0.74,0.95,2.14,1.04,3.34,0.91c9.3-0.97,19.66-19.73,15.3-19.86"/>
		</g>
		<path class="st45" d="M1712.01,1043.43l-0.82,2.4l-28.45,91.18c0,0,36.02-17.19,46.67-40.93c7.93-17.69,9.52-47.86,9.52-47.86
			L1712.01,1043.43z"/>
		<path class="st45" d="M1988.01,1046.25l1.74,4.2l22.92,89.14c0,0-31.93-30.91-42.98-50.45c-9.54-16.87-14.02-35.1-14.02-35.1
			L1988.01,1046.25z"/>
		<path class="st45" d="M1772.27,1193.51c0,0,53.85,21.83,51.91,24.74s-43.66,0.97-49.97-1.94
			C1767.9,1213.4,1760.14,1196.42,1772.27,1193.51z"/>
		<path class="st45" d="M1868.04,1236.63c0,0,9.28,4.37,34.39-9.82c25.11-14.19,18.56,3.27,9.28,9.82
			C1902.42,1243.17,1868.04,1236.63,1868.04,1236.63z"/>
	</g>
	<g>
		<g class="st48">
			<path class="st44" d="M1956.52,1798.72c29.67,1.95,59.65-0.88,88.44-8.35c4.05-1.05,17.38-6.04,21.2-11.77
				c0.08-0.11-0.03-4.96-1.09-9.01c-33.72,11.35-72.96,23.7-108.39,26.94"/>
		</g>
		<g>
			<g>
				<path class="st46" d="M1952.83,1054.73c3.26,13.81,9.01,26.88,16.57,38.86c7.54,11.95,16.69,22.8,26.27,33.15
					c5.61,6.07,11.39,11.98,17.17,17.89c1.35,1.38,3.47-0.74,2.12-2.12c-9.96-10.18-19.94-20.38-29.02-31.36
					c-8.78-10.62-16.64-22.07-22.44-34.61c-3.35-7.25-5.94-14.83-7.78-22.6C1955.27,1052.05,1952.38,1052.85,1952.83,1054.73
					L1952.83,1054.73z"/>
			</g>
		</g>
	</g>
	<g>
		<path class="st49" d="M1704.03,1040.82c0,0,182.16,38.48,287.36,3.27l-9.82-42.71c-65.5,24.56-262.39,6.69-262.39,6.69
			L1704.03,1040.82z"/>
		<path class="st50" d="M1781.39,1189.41c0,0,61.81,28.24,66.72,40.93l4.09,0.82c11.05-6.55,15.56-173.15,15.56-173.15"/>
		<path class="st50" d="M1847.71,1229.94c0,0-39.71-3.68-49.94-1.64"/>
		<g>
			<g>
				<path class="st46" d="M1676.33,1188.6c4.78,37.67,9.24,75.38,13.49,113.12c4.39,39.01,8.56,78.05,12.58,117.11
					c4.07,39.52,8,79.05,11.84,118.59c3.81,39.18,7.55,78.38,11.27,117.57c3.61,38.01,7.21,76.03,10.87,114.04
					c0.45,4.65,0.9,9.3,1.34,13.95c0.18,1.9,3.19,1.92,3,0c-3.65-37.8-7.24-75.61-10.83-113.41c-3.71-39.09-7.43-78.18-11.21-117.26
					c-3.83-39.54-7.73-79.08-11.76-118.6c-4-39.16-8.13-78.31-12.48-117.43c-4.22-37.95-8.64-75.87-13.37-113.76
					c-0.58-4.63-1.16-9.27-1.75-13.9C1679.09,1186.71,1676.08,1186.68,1676.33,1188.6L1676.33,1188.6z"/>
			</g>
		</g>
		<g>
			<g>
				<path class="st46" d="M1739.18,1047.76c-1.7,10.36-3.06,20.8-5.51,31.01c-2.27,9.43-5.58,18.71-11.32,26.62
					c-2.84,3.91-6.3,7.42-10.14,10.34c-2.23,1.69-4.61,3.18-6.93,4.74c-6.12,4.1-12.27,8.21-18.13,12.69
					c-1.2,0.91-2.4,1.83-3.51,2.85c-0.35,0.31-0.69,0.64-0.99,0.99c-0.11,0.13-0.23,0.26-0.31,0.4c-0.14,0.24,0.01-0.19-0.01,0
					c0.75,0.21,1.5,0.42,2.25,0.62c0-0.02-0.01-0.04-0.01-0.06c0.03-0.02-0.03,0.43,0.04-0.04c0.14-0.93,0.39-2.43,0.66-3.66
					c0.21-0.93,0.47-1.85,0.66-2.79c0.27-1.37-1.43-2.65-2.51-1.46c-0.51,0.56-0.62,1.54-0.81,2.23c-0.51,1.94-0.99,3.89-1.44,5.85
					c-0.9,3.91-1.68,7.85-2.34,11.82c-1.32,7.98-2.18,16.03-2.53,24.11c-0.2,4.57-0.23,9.15-0.12,13.73c0.05,1.93,3.05,1.93,3,0
					c-0.25-9.96,0.24-19.93,1.48-29.81c0.63-4.97,1.46-9.91,2.47-14.81c0.49-2.36,1.02-4.71,1.59-7.05
					c0.31-1.25,0.62-2.49,0.96-3.73c-0.01,0.05,0.21-0.61,0.19-0.73c-0.04-0.24,0.95-0.91-0.35,0.52c-0.84-0.49-1.67-0.97-2.51-1.46
					c-0.43,2.2-1.09,4.35-1.36,6.59c-0.15,1.22,0.08,2.98,1.79,2.74c0.72-0.1,1.02-0.56,1.44-1.07c-0.32,0.39,0.04-0.03,0.13-0.12
					c0.19-0.19,0.38-0.38,0.57-0.56c2.28-2.12,4.89-3.92,7.42-5.73c3.36-2.41,6.76-4.75,10.18-7.06
					c6.32-4.28,12.84-8.24,18.01-13.97c6.87-7.6,11.18-16.99,13.99-26.77c3.4-11.82,4.88-24.09,6.87-36.19
					C1742.38,1046.67,1739.49,1045.85,1739.18,1047.76L1739.18,1047.76z"/>
			</g>
		</g>
		<g>
			<g>
				<path class="st46" d="M1849.33,1234.39c15.47,2.14,31.39-2.59,43.14-12.9c1.45-1.28-0.68-3.39-2.12-2.12
					c-10.85,9.54-25.89,14.11-40.22,12.13c-0.81-0.11-1.6,0.2-1.85,1.05C1848.09,1233.24,1848.53,1234.27,1849.33,1234.39
					L1849.33,1234.39z"/>
			</g>
		</g>
		<g class="st51">
			<path class="st46" d="M1686.29,744.05c-6.55,17.47,9.28,55.94,21.29,85.14"/>
		</g>
		<g class="st48">
			<path class="st44" d="M1730.63,1782.8c29.08,6.22,58.73,9.94,88.29,6.71c4.15-0.45,14.56-2.59,18.69-4.09
				c1.5-0.55,1.69-8.4,1.23-12.55c-35.01,6.36-72.21,9.71-107.74,7.79"/>
		</g>
	</g>
</g>
<g id="Shirt_1_">
	<g id="Kleidung_2_">
		<path class="st10" d="M1749.33,580.85c0,0,14.74,46.34,90.06,46.34c83.02,0,86.78-42.28,86.78-42.28l63.04,14.77
			c0,0,9.69,175.06-18.01,249.7c-13.92,54.85-5.47,78.02-5.39,78.66c1.64,12.49,6.74,22.7,14.8,73.48c0,0-42.84,17.87-135.08,14.05
			c-81.81-3.39-127.37-6.86-126.9-7.5c3.34-4.57,10.23-43.25,15.96-80.91c1.97-12.96-17.1-73.09-19.65-79.41
			c-39.3-97.42-19.44-249.5-19.44-249.5L1749.33,580.85z"/>
		<path class="st10" d="M1695.28,598.22c0,0-61.4,88.42-88.42,175.2c23.74,41.75,92.51,50.76,92.51,50.76l39.3-85.14L1695.28,598.22
			z"/>
		<path class="st10" d="M1988.38,599.96c0,0,72.59,79.83,99.61,166.61c-23.74,41.75-88.93,53.36-88.93,53.36l-54.06-79.15
			L1988.38,599.96z"/>
	</g>
	<g>
		<path class="st2" d="M1997.12,1055.97c0,0-107.25,22.51-112.16,15.56c-4.91-6.96-18.01-58.54-18.01-58.54l114.62-12.69
			L1997.12,1055.97z"/>
		<path class="st2" d="M1694.2,1045.73c0,0,153.1,33.16,158.01,26.2s15.83-59.08,15.83-59.08l-149.27-7.23L1694.2,1045.73z"/>
	</g>
	<path class="st2" d="M1608.7,788.87l-3.68,14.99l86.58,45.64c0,0,5.17-14.33,5.22-14.33
		C1698.43,835.18,1608.7,788.87,1608.7,788.87z"/>
	<path class="st2" d="M2088.1,775.09l9.23,9.13l-79.4,50.81c0,0-6.95-12.5-7-12.5C2009.3,822.52,2088.1,775.09,2088.1,775.09z"/>
	<g>
		<path class="st52" d="M1743.6,588.77c0,0-50.21,68.09-57.99,90.6c-2.92,8.46-45.18,112.93-45.18,112.93"/>
		<path class="st52" d="M1752.33,604.05c0,0-58.2,92.1-61.81,100.29c-12.28,27.84-32.9,97.27-32.9,97.27"/>
		<path class="st52" d="M1758.33,610.05c0,0-60.45,90.6-51.44,135.63c3.64,18.2,32.88,132.36,32.88,145.45s-4.84,115.71-4.84,115.71
			"/>
		<path class="st52" d="M1753.97,1006.44c0,0,2.18-110.39,0.55-130.04c-1.64-19.65-25.91-118.08-25.52-133.17
			c0.82-31.52,43.53-122.8,43.53-122.8"/>
		<path class="st52" d="M1792.17,628.06c0,0-33.43,102.47-32.88,130.31c0.55,27.84,18.69,247.38,18.69,247.38"/>
		<path class="st52" d="M1815.09,633.52c0,0-20.6,92.1-21.83,130.58c-1.1,34.58,11.46,241.1,11.46,241.1"/>
		<path class="st52" d="M1830.1,635.16c0,0-1.77,93.88,0.41,126.08s0,250.11,0,250.11"/>
		<polyline class="st52" points="1851.66,635.16 1854.94,738.86 1862.44,1009.3 		"/>
		<polyline class="st52" points="1896.83,1006.85 1884.41,742.14 1872.4,632.43 		"/>
		<path class="st52" d="M1899.15,624.24c0,0,28.93,86.78,28.93,108.61c0,21.83,6,273.58,6,273.58"/>
		<path class="st52" d="M1959.05,1002.34c0,0-5.87-157.05-4.23-171.79c1.64-14.74,20.74-77.5,12.55-103.16s-52.4-114.62-52.4-114.62
			"/>
		<path class="st52" d="M1927.53,596.95c0,0,20.74,12.55,36.02,39.3s66.5,170.46,66.5,170.46"/>
		<path class="st52" d="M2055.02,790.07c0,0-51.08-155.46-61.99-166.37c-10.92-10.92-63.86-33.57-63.86-33.57"/>
	</g>
	<path class="st53" d="M1715.21,1012.03c147.91,24.01,270.44,1.36,270.44,1.36l-4.09-13.1c0,0-207.4,11.46-263.62,4.91"/>
	<path class="st54" d="M1718.49,1006.85c217.64,18.42,263.07-6.55,263.07-6.55l-4.5-13.1c-0.08-0.65-40.55,19.01-257.89,18.63"/>
	<path class="st55" d="M1988.72,600.37l-55.6-13.3l-1.15,1.99l-1.17-0.56c0,0-26.61,43.39-72.04,44.62
		c-45.44,1.23-93.74-19.24-93.74-19.24s63.04,62.63,122.39,40.12c45.44-17.24,68.76-38.53,78.46-45.78
		c6.11,4.85,14.57,14.24,18.97,20.4c16.37,22.92,82.89,116.77,60.69,69.64C2023.31,651.12,1988.72,600.37,1988.72,600.37z"/>
	<path class="st56" d="M1838.29,618.51c0,0-9.93,13.06-9.41,13.06c0.51,0,20.47-0.2,20.47-0.2L1838.29,618.51z"/>
	<path class="st55" d="M1733.7,926.41c0,0,42.5,44.96,42.5,62.97c0,18.01,1.5,16.24,1.5,16.24l-57.92,0.41L1733.7,926.41z"/>
	<polygon class="st57" points="1827.65,615.31 1821.92,635.57 1855.89,635.36 1851.59,622.27 	"/>
	<g>
		<path class="st57" d="M1742.5,583.31c0,0,49.39,87.87,59.22,86.78c9.82-1.09,37.39-50.9,37.39-50.9l-89.24-38.61L1742.5,583.31"/>
		<path class="st57" d="M1932.64,586.04c0,0-41.41,87.6-51.24,86.51c-9.82-1.09-44.55-53.35-44.55-53.35l92.03-33.43"/>
	</g>
	<g class="st58">
		<path class="st59" d="M1994.69,710.19c-3.95,9.57-8.53,68.44-12.69,85.71c-0.04,0.18,16.12,23.4,16.12,23.4
			s45.54-24.51,44.1-21.64c-0.82,1.64-22.99-48.78-37.55-72.92c-1.48-2.46-7.47-14.43-9.99-15.81"/>
	</g>
	<g class="st60">
		<path class="st41" d="M1693.66,717.44c-0.65,12.41,4.88,59.9,8.22,71.47c3.86,13.35,12.26,38.46,19.48,48.83
			c7.22,10.38,18.25,13.15,28.67,14.07c1.21,0.11,2.59,0.02,3.37-1.25c0.72-1.17,0.63-2.9,0.4-4.4
			c-1.63-10.36-8.11-17.69-13.92-24.64c-15.05-18-31.24-62.41-41.89-85.62"/>
	</g>
	<g class="st61">
		<path class="st62" d="M1695.12,597.85c-0.65,12.41-2.82,63.41,0.52,74.97c3.86,13.35,12.26,38.46,19.48,48.83
			c7.22,10.38,18.25,13.15,28.67,14.07c1.21,0.11,2.59,0.02,3.37-1.25c0.72-1.17,0.63-2.9,0.4-4.4
			c-1.63-10.36-8.11-17.69-13.92-24.64c-15.05-18-31.24-62.41-41.89-85.62"/>
	</g>
	<path class="st63" d="M1925.07,585.19c0,0-6.62,44.72-89.03,41.99c-75.07-2.49-87.8-46.05-87.8-46.05"/>
	<g>
		<path class="st64" d="M1595.34,773.31c0,0,61.27,38.21,109.3,58.13"/>
		<path class="st64" d="M2093.5,764.07c0,0-45.77,39.32-96.94,60.12"/>
	</g>
	<g class="st58">
		<path class="st59" d="M1981.97,795.62c-10.09,30.62-23.13,84.73-46.05,129.97c-2.66,5.24-17.12,54.91-17.12,80.71
			c0,3.27,45.98-1.09,62.36-6.82c-9.2-34.53-18.95-66.36-19.03-88.62c-0.15-40.27,6.01-51.05,12.28-74.81
			c2.33-8.84,4.35-17.35,4.83-21.1"/>
	</g>
	<path class="st57" d="M1991.39,730.54l-8.56,67.23c0,0,9.78,7.27,11.83-11.56S1991.39,730.54,1991.39,730.54z"/>
	<path class="st57" d="M1679.19,771.06l24.01,43.94C1703.21,815,1681.1,788.53,1679.19,771.06z"/>
	<polygon class="st65" points="1598.55,767.92 1631.03,786.89 1626.25,798.9 1591.73,778.84 	"/>
	<g>
		<path class="st2" d="M1741.96,579.01l48.03-15.28l48.31,54.85c0,0-33.98,46.87-34.11,46.67
			C1803.48,664.21,1741.96,579.01,1741.96,579.01z"/>
		<path class="st2" d="M1930.26,584.4l-46.66-18.59l-45.31,52.7c0,0,39.35,46.88,39.57,46.67
			C1878.82,664.22,1930.26,584.4,1930.26,584.4z"/>
	</g>
</g>
<path class="st41" d="M1607.15,771.61c16.92-64.4,88.13-173.39,88.13-173.39l47.23-14.91c0,0-25.49,24.66-44.76,56.76
	c-12.28,20.47-49.39,106.16-66.59,146.27c-0.43,1-24.15-13.37-24.15-13.37"/>
<g id="Arm_x5F_L_x5F_oben_4_">
	<path class="st0" d="M2024.11,831.26c18.13-11.74,66.57-44.49,69.64-45c0.76-0.13,16.09,0.51,19.92-6.89
		c41.85-80.9,68.13-201.59,69.19-204c9.96-22.67,21.33-13.51,32.94,18.38c5.08,13.95-36.26,272.42-86.81,285.7
		c-35.84,9.41-104.43-47.49-104.43-47.49"/>
	<path class="st5" d="M2194.34,734.94l6.64-32.17l-20.94,41.87c-1.14,6.47-33.36,111.13-60.77,110.81
		c-17.22-0.2-78.26-35.23-78.26-35.23l-11.11,7.21l-6.38,4.02c67.98,54.7,96.32,50.98,99.32,51.06
		C2160.13,883.54,2194.34,734.94,2194.34,734.94z"/>
	<g>
		
			<ellipse transform="matrix(0.1936 -0.9811 0.9811 0.1936 1145.9817 2664.2129)" class="st5" cx="2193.71" cy="634.97" rx="3.68" ry="3.27"/>
		<circle class="st5" cx="2199.05" cy="648.12" r="2.05"/>
		
			<ellipse transform="matrix(0.1936 -0.9811 0.9811 0.1936 1125.0139 2686.6931)" class="st5" cx="2196.91" cy="658.97" rx="2.46" ry="2.05"/>
		<circle class="st5" cx="2202.72" cy="641.13" r="1.84"/>
	</g>
</g>
</svg>
