<?xml version="1.0" encoding="utf-8"?>
<!-- Generator: Adobe Illustrator 25.4.0, SVG Export Plug-In . SVG Version: 6.00 Build 0)  -->
<svg version="1.1" id="Video" xmlns="http://www.w3.org/2000/svg" xmlns:xlink="http://www.w3.org/1999/xlink" x="0px" y="0px"
	 viewBox="0 0 3840 2160" style="enable-background:new 0 0 3840 2160;" xml:space="preserve">
<style type="text/css">
	.st0{fill:#FFB699;}
	.st1{fill:#54A465;}
	.st2{fill:#FFF8C5;}
	.st3{fill:none;stroke:#2E753B;stroke-miterlimit:10;}
	.st4{fill:#76C484;}
	.st5{fill:#F99A79;}
	.st6{fill:#449353;}
	.st7{fill:none;stroke:#FFF8C5;stroke-width:2;stroke-miterlimit:10;}
	.st8{fill:#FFF8C5;stroke:#002A2B;stroke-miterlimit:10;}
	.st9{fill:none;stroke:#22722F;stroke-miterlimit:10;}
	.st10{fill:#CCF6E6;}
	.st11{fill:none;stroke:#002A2B;stroke-width:4;stroke-miterlimit:10;}
	.st12{fill:#995B34;}
	.st13{fill:#633318;}
	.st14{fill:#AA6944;}
	.st15{fill:#D86C45;}
	.st16{fill:#FFCAB8;}
	.st17{fill:#FFFFFF;}
	.st18{display:none;fill:url(#SVGID_1_);}
	.st19{display:none;fill:#16100B;}
	.st20{display:none;fill:#FFFFFF;}
	.st21{fill:url(#SVGID_00000177459907016821188000000005329684349817022893_);}
	.st22{fill:#16100B;}
	.st23{fill:url(#SVGID_00000022523684571221199110000002327504955614763675_);}
	.st24{fill:#FCD2CA;}
	.st25{fill:url(#SVGID_00000081620274977563181590000014375983268088581275_);}
	.st26{fill:url(#SVGID_00000004536972993674672270000007985374554002406038_);}
	.st27{fill:#841A06;}
	.st28{fill:#D64B2B;}
	.st29{fill:#FFAF9C;}
	.st30{fill:#894A27;}
	.st31{opacity:0.72;fill:#F99A79;}
	.st32{opacity:0.72;fill:#E27F64;}
	.st33{opacity:0.33;fill:#F98869;}
	.st34{fill:#D88C66;}
	.st35{fill:none;stroke:#995B34;stroke-miterlimit:10;}
	.st36{fill:#F0FFF9;}
	.st37{fill:#545454;}
	.st38{fill:#3F3F3F;}
	.st39{fill:#28564D;}
	.st40{opacity:0.41;fill:#28564D;}
	.st41{fill:#002A2B;}
	.st42{fill:none;stroke:#CCF6E6;stroke-miterlimit:10;}
	.st43{opacity:0.41;}
	.st44{fill:#336B61;stroke:#002A2B;stroke-miterlimit:10;}
	.st45{fill:none;stroke:#002A2B;stroke-width:2;stroke-miterlimit:10;}
	.st46{opacity:0.31;}
	.st47{fill:none;stroke:#006A58;stroke-width:0.25;stroke-miterlimit:10;}
	.st48{fill:#EAE0A4;}
	.st49{fill:#97D1B8;}
	.st50{opacity:0.44;fill:#C3EDDC;}
	.st51{fill:#EAE1AC;}
	.st52{opacity:0.31;fill:#002A2B;}
	.st53{opacity:0.44;}
	.st54{fill:#C3EDDC;}
	.st55{opacity:0.45;}
	.st56{display:none;opacity:0.45;}
	.st57{display:inline;fill:#F0FFF9;}
	.st58{fill:none;stroke:#64D250;stroke-width:16;stroke-miterlimit:10;}
	.st59{fill:none;stroke:#64D250;stroke-width:12;stroke-miterlimit:10;}
	.st60{fill:#A5EA96;}
	.st61{fill:#FCA181;}
	.st62{display:none;}
	.st63{display:inline;fill:#FFB699;}
	.st64{display:inline;fill:#F99A79;}
	.st65{display:inline;}
	.st66{display:inline;fill:#64D250;}
	.st67{display:inline;fill:none;stroke:#FFFFFF;stroke-miterlimit:10;}
	.st68{fill:#1C1C1C;}
	.st69{fill:#64D250;}
	.st70{opacity:0.25;fill:#FFFFFF;}
	.st71{opacity:0.25;fill:#8C8C8C;}
</style>
<g id="Füsse_Kopie_Kopie_2_Kopie_Kopie_2_Kopie_2">
	<g>
		<g>
			<polygon class="st0" points="1753.42,1858.83 1762.7,1952.71 1820.55,1958.71 1826.56,1835.36 			"/>
			<path class="st1" d="M1751.92,1907.41c0,0,0.61,32.75-11.89,51.56c-4.82,7.25-12.94,13.61-20.43,18.47
				c-1.45,0.94-2.92,1.8-4.39,2.56c-19.1,9.82-66.04,35.48-78.05,49.67c-12.01,14.19-13.1,26.2-13.1,26.2l-6.55,2.18l9.96,9.01
				c0,0,10.64,13.24,49.94,2.87c39.3-10.37,150.23-73.82,150.23-73.82l0.2-92.38l-4.91-0.2c0,0-9.48,8.26-34.59,7.16
				c-25.11-1.09-31.31-8.39-31.31-8.39L1751.92,1907.41z"/>
			<path class="st2" d="M1624.07,2055.86l-6.55,2.18l7.1,11.46c0,0,15.96,11.19,55.26,0.82c39.3-10.37,146.96-62.22,146.96-62.22
				l1.64-13.1l-25.38,13.92c0,0-45.03,19.65-70.82,29.06C1646.63,2069.25,1624.07,2055.86,1624.07,2055.86z"/>
			<path class="st3" d="M1827.92,1980.54"/>
			<g>
				<path class="st4" d="M1630.17,2050.91c1.06-11.13,8.08-21.51,18.02-26.62c1.13-0.58,2.88-0.89,3.35,0.29
					c0.3,0.77-0.24,1.58-0.76,2.23c-6.07,7.61-12.14,15.22-18.21,22.83c-0.49,0.62-1.31,1.3-1.96,0.86"/>
			</g>
			<path class="st5" d="M1753.97,1867.56l0.82,10.37c0,0,29.06,9.96,48.71,7.78c14.27-1.59,20.47-6.96,20.47-6.96l2.05-22.65
				l-72.04,6.55V1867.56"/>
		</g>
		<path class="st6" d="M1826.42,1919.28c0,0-1.64,53.21-17.19,63.86c-15.56,10.64-128.53,70-128.53,70s65.9-15.56,102.75-35.2
			c31.46-16.78,44.21-21.83,44.21-21.83L1826.42,1919.28z"/>
		<path class="st7" d="M1714.67,1977.81c28.24-11.87,46.05,16.17,46.05,16.17"/>
		<path class="st7" d="M1691.74,1990.5c28.24-11.87,46.05,16.17,46.05,16.17"/>
		<path class="st7" d="M1665.55,2006.06c28.24-11.87,46.05,16.17,46.05,16.17"/>
		<ellipse class="st8" cx="1807.88" cy="1941.41" rx="12.09" ry="17.35"/>
		<path class="st9" d="M1758.06,1905.22c0,0-0.27-1.09-3,8.19c-2.73,9.28-2.23,31.87,2.73,39.02c4.91,7.1,13.78,4.91,13.78,4.91"/>
		<path class="st10" d="M1757.34,1902.7c0,0,14.74,13.61,41.45,9.93c13.97-1.93,24.15-9.11,24.15-9.11l1.23-20.47
			c0,0-8.54,6.72-32.54,6.62c-23.74-0.1-35.82-5.59-35.82-5.59L1757.34,1902.7z"/>
		<ellipse class="st1" cx="1777.09" cy="1919.69" rx="21.49" ry="28.65"/>
		<path class="st6" d="M1796.13,1909.04c0,0-17.6,11.87-19.24,28.65c-1.64,16.78-5.32,19.65-5.32,19.65s9.01,1.64,18.42-19.65
			C1799.4,1916.41,1796.13,1909.04,1796.13,1909.04z"/>
		<path class="st11" d="M1752.6,1883.12c0,0,11.19,4.64,32.75,5.46c21.56,0.82,33.29-4.09,41.21-8.73"/>
	</g>
	<g>
		<g>
			<polygon class="st0" points="2055.41,1859.45 2058.27,1953.74 2001.67,1967.13 1979.86,1845.57 			"/>
			<path class="st1" d="M2063.14,1907.43c0,0,3.6,32.55,18.42,49.6c5.71,6.57,14.59,11.83,22.63,15.69
				c1.56,0.75,3.13,1.41,4.68,1.97c20.21,7.29,70.05,26.69,83.79,39.22c13.73,12.53,16.36,24.3,16.36,24.3l6.78,1.32l-8.72,10.21
				c0,0-8.85,14.49-49.16,9.26c-40.3-5.23-158.47-53.9-158.47-53.9l-12.08-91.58l4.85-0.83c0,0,10.47,6.97,35.22,2.66
				c24.76-4.31,29.98-12.35,29.98-12.35L2063.14,1907.43z"/>
			<path class="st2" d="M2209.02,2038.22l6.78,1.32l-5.56,12.28c0,0-14.39,13.15-54.7,7.92c-40.3-5.23-153.73-42.81-153.73-42.81
				l-3.31-12.78l26.96,10.54c0,0,47.18,13.7,73.97,19.72C2188.36,2054.4,2209.02,2038.22,2209.02,2038.22z"/>
			<path class="st3" d="M1997.17,1989.73"/>
			<g>
				<path class="st4" d="M2202.33,2034.09c-2.48-10.9-10.78-20.29-21.29-24.09c-1.19-0.43-2.97-0.51-3.28,0.72
					c-0.2,0.8,0.44,1.54,1.04,2.11c7,6.77,14,13.53,21,20.3c0.57,0.55,1.46,1.12,2.06,0.6"/>
			</g>
			<path class="st5" d="M2055.99,1868.18l0.52,10.39c0,0-27.54,13.61-47.31,13.97c-14.36,0.26-21.19-4.27-21.19-4.27l-4.94-22.2
				l72.29-2.77L2055.99,1868.18"/>
		</g>
		<path class="st6" d="M1990.78,1928.78c0,0,8.46,52.56,25.26,61.12c16.79,8.56,136.47,52.9,136.47,52.9s-67.36-6.95-106.42-21.7
			c-33.35-12.59-46.65-15.97-46.65-15.97L1990.78,1928.78z"/>
		<path class="st7" d="M2109.13,1972.46c-29.54-8.14-43.59,21.95-43.59,21.95"/>
		<path class="st7" d="M2133.5,1982.1c-29.54-8.14-43.59,21.95-43.59,21.95"/>
		<path class="st7" d="M2161.48,1994.16c-29.54-8.14-43.59,21.95-43.59,21.95"/>
		
			<ellipse transform="matrix(0.9917 -0.1285 0.1285 0.9917 -233.7508 274.7896)" class="st8" cx="2012.01" cy="1948.34" rx="12.09" ry="17.35"/>
		<path class="st9" d="M2056.77,1906.05c0,0,0.13-1.12,4.03,7.73c3.9,8.85,6.3,31.31,2.31,39.05c-3.96,7.67-13.04,6.64-13.04,6.64"
			/>
		<path class="st10" d="M2057.16,1903.46c0,0-12.86,15.39-39.83,15.17c-14.1-0.12-25.12-5.93-25.12-5.93l-3.85-20.14
			c0,0,9.33,5.57,33.12,2.38c23.53-3.15,34.8-10.15,34.8-10.15L2057.16,1903.46z"/>
		
			<ellipse transform="matrix(0.9917 -0.1285 0.1285 0.9917 -230.243 278.1443)" class="st1" cx="2039.75" cy="1922.84" rx="21.49" ry="28.65"/>
		<path class="st6" d="M2019.51,1914.73c0,0,18.98,9.51,22.76,25.94s7.8,18.8,7.8,18.8s-8.72,2.78-20.79-17.12
			S2019.51,1914.73,2019.51,1914.73z"/>
		<path class="st11" d="M2059.34,1883.43c0,0-10.5,6.04-31.77,9.62c-21.27,3.58-33.54,0.22-41.99-3.36"/>
	</g>
</g>
<g id="Haarehinten_14_">
	<path class="st12" d="M1966.08,534.34l-2.87,23.9c9.99,1.12,41.15-49.64,46.73-74.86c25.47-115.13,29.32-135.07,28.7-175.63
		c-0.68-44.72-10.54-69.21-39.19-92.24c-38.84-31.22-63.04-36.77-153.06-44.25c-77.56-6.44-122.09,67.98-142.32,102.66
		c-10.11,17.34-12.47,29.85-21.49,104.74c-9.02,74.89-1.6,90.46-1.6,90.46s10.62,47.39,38.46,50.65l3.41,0.38l7.93-1.05
		c7.09,2.49-5.89-22.2,2.42-18.75c91.64,37.97,136.9-12.62,189.08-16.33l25.15,6.64l5,67.66c6.81-0.71-0.33,0.15,5.37-0.74
		L1966.08,534.34z"/>
	<path class="st13" d="M1968.55,447.81c0,0,6.5-13.26,8.48,6.72c2.8,28.2-29.31,103.29-29.31,103.29s-8.47,0.07-9.94-1.02
		c-1.47-1.09,12.75-31.8,12.75-31.8l-3.09-54.85L1968.55,447.81z"/>
	<path class="st13" d="M1905.94,444.55c-21.4-100.23,11.89-28.7-57.97-39.02c-85.83-12.67-74.98-92.45-112.5-58.88
		c-37.52,33.57-15.02,175.15-15.02,175.15c19.99,4.76,46.45,16.13,55.29,17.84c88.57,17.11,60.4,12.35,110.77,19
		C1886.81,558.68,1911.83,472.14,1905.94,444.55z"/>
	<polygon class="st13" points="1900.32,515.88 1889.96,557.7 1948.13,557.55 1963.43,437.49 	"/>
	<g>
		<g>
			<g>
				<path class="st14" d="M1734.2,430.54c-4.51,22.22-8.61,44.52-12.58,66.84c-1.22,6.85-2.43,13.69-3.63,20.54
					c-0.08,0.47,0.64,0.67,0.72,0.2c4.04-22.93,8.1-45.87,12.52-68.73c1.2-6.22,2.43-12.44,3.7-18.65
					C1735.02,430.26,1734.3,430.06,1734.2,430.54L1734.2,430.54z"/>
			</g>
		</g>
		<g>
			<g>
				<path class="st14" d="M1744.36,459.17c-3.73,15.36-5.72,31.06-8.07,46.67c-0.78,5.13-1.59,10.26-2.46,15.38
					c-0.08,0.47,0.64,0.67,0.72,0.2c2.8-16.36,4.71-32.87,7.78-49.18c0.81-4.31,1.72-8.61,2.76-12.87
					C1745.19,458.9,1744.47,458.7,1744.36,459.17L1744.36,459.17z"/>
			</g>
		</g>
		<g>
			<g>
				<path class="st14" d="M1935.23,488.7c-0.26-0.04-0.05-0.1-0.1,0.24c-0.02,0.19,0.01,0.41,0,0.61c-0.02,0.71-0.08,1.41-0.15,2.11
					c-0.15,1.54-0.34,3.07-0.55,4.6c-0.52,3.85-1.08,7.68-1.88,11.49c-2.26,10.79-5.58,21.32-8.25,32
					c-1.41,5.66-2.65,11.36-3.37,17.15c-0.06,0.48,0.69,0.47,0.75,0c1.4-11.38,4.77-22.44,7.76-33.47c2.47-9.12,4.56-18.23,5.8-27.6
					c0.23-1.76,0.46-3.54,0.59-5.31c0.03-0.45,0.38-2.42-0.4-2.54C1934.96,487.91,1934.76,488.63,1935.23,488.7L1935.23,488.7z"/>
			</g>
		</g>
		<g>
			<g>
				<path class="st14" d="M1939.35,488.98c-1.99,18.28-7.92,35.85-10.91,53.96c-0.81,4.91-1.4,9.85-1.6,14.82
					c-0.02,0.48,0.73,0.48,0.75,0c0.76-18.38,6.51-36.1,10.14-54.02c0.99-4.89,1.83-9.8,2.37-14.76
					C1940.15,488.5,1939.4,488.51,1939.35,488.98L1939.35,488.98z"/>
			</g>
		</g>
	</g>
</g>
<g id="Hals_21_">
	<path id="Hals_22_" class="st0" d="M1791.22,505.6l-1.23,66.11c0,0-44.76,9.96-61.67,18.69c-27.5,14.19,185.3,111.07,227.05,62.77
		c25-28.92,2.83-53.93-26.61-65.5c-11.46-4.5-45.64-13.71-45.64-13.71l-3.27-89.03L1791.22,505.6z"/>
	<path class="st15" d="M1790.81,509.9v19.65c0,0,43.19,36.43,91.28,15.35l-0.41-44L1790.81,509.9z"/>
	<path class="st16" d="M1793.26,534.46l-1.36,40.66c0,0,10.37-0.55,8.73-15.56C1798.99,544.56,1793.26,534.46,1793.26,534.46z"/>
	<path class="st5" d="M1882.23,563.39c0,0-18.28,33.29-54.31,45.3c-3.66,1.22-37.66,0-37.66,0l23.2,2.73c0,0,20.74,7.1,21.56,7.1
		s12.83,0.27,12.83,0.27l36.02-48.3L1882.23,563.39"/>
</g>
<g id="KOPFPBEN_Kopie_3_Kopie_Kopie_Kopie_Kopie_2_Kopie_Kopie_2_Kopie_2">
	<g id="Kopf_21_">
		<path id="Kopf_22_" class="st0" d="M1740.02,241.99c0,0-9.27,133.72-7.95,173.01c1.54,45.58,42.08,111.74,102.19,122.88
			c47.8,8.85,117.91-52.18,131.97-81.26c12.41-25.66,17-80.39,20.21-122.23c2.04-26.59-25.23-65.67-50.49-99.39
			c-14.45-19.29-40.68-25.35-62.1-14.31L1740.02,241.99z"/>
		<path class="st15" d="M1902.43,226.7c0,0-93.09,83.37-145.43,86.36s-19.23,5.35-19.23,5.35l9.61-43.61L1902.43,226.7z"/>
		<path class="st5" d="M1977.94,410.95c0,0-24.21,44.54-24.52,44.87c-6.63,7.13-74.08,87.89-113.61,82.32c0,0,34.93,8.16,86-36.41
			c24.46-21.35,39.66-43.52,39.66-43.52"/>
	</g>
	<g id="Augen_Kopie_3_Kopie_Kopie_Kopie_Kopie_2_Kopie_Kopie_2_Kopie_2">
		<g>
			<g>
				<path class="st17" d="M1900.5,371.55c0,0,16.6-22.26,31.78-18.76c15.18,3.5,19.96,12.9,24.22,28.06c0,0-8.31,12.02-25.34,9.58
					C1908.47,387.18,1900.5,371.55,1900.5,371.55z"/>
				
					<linearGradient id="SVGID_1_" gradientUnits="userSpaceOnUse" x1="1905.0704" y1="630.3146" x2="1904.8198" y2="605.3829" gradientTransform="matrix(0.9849 0.1733 -0.1733 0.9849 169.5052 -558.7642)">
					<stop  offset="0" style="stop-color:#008CB2"/>
					<stop  offset="0.2227" style="stop-color:#0188AD"/>
					<stop  offset="0.5014" style="stop-color:#047B9D"/>
					<stop  offset="0.8087" style="stop-color:#086684"/>
					<stop  offset="1" style="stop-color:#0B5570"/>
				</linearGradient>
				<path class="st18" d="M1956.97,376.7c1.15,2.1,2.15,0.13,1.01,2.09c-3.94,6.78-13.59,12.96-21.64,11.55
					c-10.36-1.82-17.26-11.86-15.4-22.42c0.77-4.36,2.7-7.6,5.44-9.78c3.9-3.1,6.18-4.62,12.27-3.55
					C1949.02,356.41,1952.1,367.79,1956.97,376.7z"/>
				
					<ellipse transform="matrix(0.1733 -0.9849 0.9849 0.1733 1238.548 2216.3931)" class="st19" cx="1939.48" cy="370.45" rx="7.98" ry="7.78"/>
				<g>
					<path class="st20" d="M1958.81,381.9c0,0-9.15-26.53-24.61-28.42c-15.46-1.89-22.02,5.25-31.2,18.04c0,0,5.56,13.99,22.4,17.51
						C1947.84,393.72,1958.81,381.9,1958.81,381.9z"/>
					
						<linearGradient id="SVGID_00000072959269152319163020000009968548096794472074_" gradientUnits="userSpaceOnUse" x1="1296.9539" y1="631.3196" x2="1296.6946" y2="605.5187" gradientTransform="matrix(-0.9849 -0.1733 -0.1733 0.9849 3314.2695 -5.4401)">
						<stop  offset="0" style="stop-color:#008CB2"/>
						<stop  offset="0.2227" style="stop-color:#0188AD"/>
						<stop  offset="0.5014" style="stop-color:#047B9D"/>
						<stop  offset="0.8087" style="stop-color:#086684"/>
						<stop  offset="1" style="stop-color:#0B5570"/>
					</linearGradient>
					<path style="fill:url(#SVGID_00000072959269152319163020000009968548096794472074_);" d="M1911.7,367.95
						c-1.86,10.56,3.85,19.65,14.22,21.48c6.71,1.18,13.42,1.64,17.82-1.56c6.58-4.79,7.88-14.63,7.4-18.37
						c-1.18-9.29-10.89-13.32-18.36-16.16c-5.47-2.08-10.29,1.79-14.49,4.45C1914.95,359.91,1912.52,363.26,1911.7,367.95z"/>
					
						<ellipse transform="matrix(0.1733 -0.9849 0.9849 0.1733 1231.3219 2208.113)" class="st22" cx="1930.94" cy="370.61" rx="7.98" ry="7.78"/>
					<path class="st17" d="M1925.7,374.26l-13.12,4.78c-1.15,0.42-2.44-0.18-2.86-1.33l-0.16-0.43c-0.42-1.15,0.18-2.44,1.33-2.86
						l13.12-4.78c1.15-0.42,2.44,0.18,2.86,1.33l0.16,0.43C1927.45,372.56,1926.85,373.84,1925.7,374.26z"/>
				</g>
				<g>
					<path d="M1899.37,369.18c3.64-5.14,8.02-9.7,12.92-13.47c5.71-4.39,12.52-7.8,19.45-7.24c5.8,0.47,11.09,3.68,15.41,7.74
						c4.32,4.06,10.36,16.84,12.2,17.88c0,0,3.92,0.94,5.78-0.17c-2.47,2.37-5.57,5.65-8.68,6.83c-3.27-6.51-2.54-6.81-7.89-14.62
						c-3.94-5.76-9.53-11.42-16.48-12.22c-7.55-0.86-14.96,3.24-20.6,8.8c-5.03,4.96-9.78,10.33-10.09,10.87"/>
				</g>
				<path class="st20" d="M1933.95,372.59l-13.12,4.78c-1.15,0.42-2.44-0.18-2.86-1.33l-0.16-0.43c-0.42-1.15,0.18-2.44,1.33-2.86
					l13.12-4.78c1.15-0.42,2.44,0.18,2.86,1.33l0.16,0.43C1935.7,370.89,1935.1,372.17,1933.95,372.59z"/>
			</g>
			<g>
				<g>
					<path class="st17" d="M1826.12,357.5c0,0-9.15-26.53-24.61-28.42c-15.46-1.89-22.02,5.25-31.2,18.04c0,0,5.56,13.99,22.4,17.51
						C1815.15,369.31,1826.12,357.5,1826.12,357.5z"/>
					
						<linearGradient id="SVGID_00000105405647183166691850000014269514191022087812_" gradientUnits="userSpaceOnUse" x1="1431.8593" y1="630.2771" x2="1431.6" y2="604.4761" gradientTransform="matrix(-0.9849 -0.1733 -0.1733 0.9849 3314.2695 -5.4401)">
						<stop  offset="0" style="stop-color:#008CB2"/>
						<stop  offset="0.2227" style="stop-color:#0188AD"/>
						<stop  offset="0.5014" style="stop-color:#047B9D"/>
						<stop  offset="0.8087" style="stop-color:#086684"/>
						<stop  offset="1" style="stop-color:#0B5570"/>
					</linearGradient>
					<path style="fill:url(#SVGID_00000105405647183166691850000014269514191022087812_);" d="M1779.02,343.55
						c-1.86,10.56,3.85,19.65,14.22,21.48c6.71,1.18,13.43,1.64,17.82-1.56c6.58-4.79,7.88-14.63,7.4-18.37
						c-1.18-9.29-10.9-13.32-18.36-16.16c-5.47-2.08-10.29,1.79-14.49,4.45C1782.26,335.5,1779.84,338.86,1779.02,343.55z"/>
					
						<ellipse transform="matrix(0.1733 -0.9849 0.9849 0.1733 1145.6659 2057.2612)" class="st22" cx="1798.25" cy="346.21" rx="7.98" ry="7.78"/>
				</g>
				<g>
					<path d="M1827.98,355.74c-1.69-5.94-4.27-11.6-7.61-16.71c-3.89-5.95-9.14-11.38-15.86-13.2c-5.62-1.53-11.67-0.36-17.1,1.9
						s-15.42,11.95-17.51,12.28c0,0-4-0.46-5.38-2.1c1.52,3,3.33,7.06,5.86,9.19c5.27-4.87,4.69-5.38,12.35-10.75
						c5.65-3.95,12.82-7.26,19.63-5.64c7.39,1.75,12.98,8.01,16.41,15.02c2.72,5.56,5.13,11.34,5.7,12.97
						c0.07,0.2,0.11,0.34,0.12,0.4"/>
				</g>
				<path class="st17" d="M1793.01,349.86l-13.12,4.78c-1.15,0.42-2.44-0.18-2.86-1.33l-0.16-0.43c-0.42-1.15,0.18-2.44,1.33-2.86
					l13.12-4.78c1.15-0.42,2.44,0.18,2.86,1.33l0.16,0.43C1794.76,348.15,1794.16,349.44,1793.01,349.86z"/>
			</g>
		</g>
		<path class="st24" d="M1901.61,377.84c0.35,1.17,10.08,16.74,21.07,17.28s4.78,4.58-0.84,3.18
			C1903.26,393.65,1901.61,377.84,1901.61,377.84z"/>
		<path class="st24" d="M1828.24,364.24c-0.73,0.98-15.19,12.29-25.7,9.06s-6.06,2.68-0.3,3.27
			C1821.29,378.53,1828.24,364.24,1828.24,364.24z"/>
		
			<linearGradient id="SVGID_00000067208670374550746750000001618478135743985792_" gradientUnits="userSpaceOnUse" x1="2333.7622" y1="583.5818" x2="2399.2515" y2="583.5818" gradientTransform="matrix(-0.9849 -0.1733 -0.1733 0.9849 4222.5039 154.3645)">
			<stop  offset="0" style="stop-color:#FFB699;stop-opacity:0"/>
			<stop  offset="0.0426" style="stop-color:#FDAF91;stop-opacity:0.0818"/>
			<stop  offset="0.1473" style="stop-color:#FBA383;stop-opacity:0.2831"/>
			<stop  offset="0.2788" style="stop-color:#F99C7B;stop-opacity:0.5359"/>
			<stop  offset="0.5203" style="stop-color:#F99A79"/>
			<stop  offset="0.7469" style="stop-color:#F99C7B;stop-opacity:0.5276"/>
			<stop  offset="0.866" style="stop-color:#FBA383;stop-opacity:0.2793"/>
			<stop  offset="0.9599" style="stop-color:#FDAF91;stop-opacity:0.0836"/>
			<stop  offset="1" style="stop-color:#FFB699;stop-opacity:0"/>
		</linearGradient>
		<path style="fill:url(#SVGID_00000067208670374550746750000001618478135743985792_);" d="M1823.16,320.62
			c-0.36,6.79,0.11,9.99-10.35,5.66s-15.77-8.39-23.37-5.36c-7.6,3.03-17.7,10.81-23.23,9.21s-12.87-9.54-6.58-13.42
			c6.29-3.88,18.94-12.07,31.84-12.06C1818.7,304.67,1823.16,320.62,1823.16,320.62z"/>
		
			<linearGradient id="SVGID_00000167365216113870459070000001041606805874654350_" gradientUnits="userSpaceOnUse" x1="1665.5399" y1="580.4442" x2="1731.0292" y2="580.4442" gradientTransform="matrix(0.9849 0.1733 -0.1733 0.9849 369.6641 -523.546)">
			<stop  offset="0" style="stop-color:#FFB699;stop-opacity:0"/>
			<stop  offset="0.0426" style="stop-color:#FDAF91;stop-opacity:0.0818"/>
			<stop  offset="0.1473" style="stop-color:#FBA383;stop-opacity:0.2831"/>
			<stop  offset="0.2788" style="stop-color:#F99C7B;stop-opacity:0.5359"/>
			<stop  offset="0.5203" style="stop-color:#F99A79"/>
			<stop  offset="0.7469" style="stop-color:#F99C7B;stop-opacity:0.5276"/>
			<stop  offset="0.866" style="stop-color:#FBA383;stop-opacity:0.2793"/>
			<stop  offset="0.9599" style="stop-color:#FDAF91;stop-opacity:0.0836"/>
			<stop  offset="1" style="stop-color:#FFB699;stop-opacity:0"/>
		</linearGradient>
		<path style="fill:url(#SVGID_00000167365216113870459070000001041606805874654350_);" d="M1910.58,332.82
			c-1.98,6.51-3.52,9.36,7.79,8.85c11.31-0.5,17.69-2.5,23.8,2.94c6.11,5.44,12.94,16.2,18.69,16.59s15.35-4.57,10.76-10.37
			c-4.59-5.8-13.69-17.81-25.81-22.21C1920.23,319.35,1910.58,332.82,1910.58,332.82z"/>
	</g>
	<g id="Mund_12_">
		<g>
			<path class="st27" d="M1806.17,443.48l-3.26,3.17c0,0,12.94,25.14,18.94,27.65s33.69,13.42,44.8,5.82
				c11.11-7.61,26.6-20.07,26.6-20.07s-33.95-7.84-34.99-7.82C1857.2,452.26,1806.17,443.48,1806.17,443.48z"/>
			<path class="st17" d="M1804.55,444.45c0,0,1.97,8.87,9.8,13.99s33.46,9.42,39.98,10.15s26.26-0.07,34.2-7.4
				C1896.47,453.85,1804.55,444.45,1804.55,444.45z"/>
			<path class="st28" d="M1795.04,442.98c0,0,9.31-4.57,38.66-1.82c7.56,0.71,12.94,4.84,14.14,4.67c3.3-0.46,11.95-0.45,13.6-0.07
				c31.88,7.3,31.8,14.3,31.8,14.3s-30.42,1.66-47.98-1.9C1821.78,453.4,1795.04,442.98,1795.04,442.98z"/>
			<path class="st28" d="M1794.6,443.11c3.62,0.68,2.64-4.3,13.04,5.89c10.26,10.05,13.04,11.48,26.12,16.28
				c15.49,5.68,28.45,4.85,34.06,2.51c5.61-2.34,25.7-12.88,20.96-9.56c-1.66,1.16,7.67,0.1,2.21,5.17
				c-5.46,5.07-13.16,11.6-20.38,15.94c-7.21,4.34-15.82,8.58-37.86,1.58s-25.67-22.52-30.15-30.16
				C1798.39,443.55,1794.6,443.11,1794.6,443.11z"/>
		</g>
		<path class="st29" d="M1818.47,445.65c0,0,5.57,0.78,10.46,1.98c6.04,1.48,9.93,3.82,4.85,3.14
			C1828.7,450.08,1818.47,445.65,1818.47,445.65z"/>
		<path class="st29" d="M1826.54,475.52c0,0,2.59,0.35,5.95,1.05c5.92,1.22,6.05,1.53,5.9,1.61
			C1834.38,480.29,1826.47,475.53,1826.54,475.52z"/>
		<g>
			<path class="st28" d="M1893.28,463.56c-1.2-1.9-1.8-4.18-1.7-6.43c0.04-0.89,0.21-1.82,0.76-2.53c0.18-0.23,0.51-0.44,0.73-0.25
				c0.13,0.11,0.15,0.3,0.15,0.47c0.08,3.04-0.39,6.24,0.84,9.02C1893.97,463.96,1893.33,463.66,1893.28,463.56"/>
		</g>
		<g>
			<path class="st28" d="M1792.51,447.08c1.78-1.38,3.12-3.32,3.79-5.47c0.27-0.85,0.43-1.79,0.15-2.64
				c-0.09-0.28-0.33-0.59-0.6-0.49c-0.16,0.06-0.24,0.23-0.3,0.39c-1.11,2.83-1.76,6-3.87,8.19
				C1791.73,447.22,1792.43,447.16,1792.51,447.08"/>
		</g>
	</g>
	<g id="Brauen_Kopie_3_Kopie_Kopie_Kopie_Kopie_2_Kopie_Kopie_2_Kopie_2">
		<path class="st30" d="M1896.89,321.22c0.9-0.36,16.44-12.36,29.44-12.59c13.97-0.24,16.96,2.16,27.76,7.59
			c11.46,5.76,20.65,18.49,20.65,18.49s2.14,3.18-10.57-4.87c-5.37-3.41-26.68-14.88-42.59-11.86c-6.95,1.32-19.63,5.33-21.56,6.18
			C1896.97,325.49,1896.89,321.22,1896.89,321.22z"/>
		<path class="st30" d="M1835.9,320.32c-0.69-0.68-10.46-17.71-22.39-22.89c-12.81-5.57-16.5-4.49-28.55-3.6
			c-12.79,0.94-26.15,9.19-26.15,9.19s-3.2,2.12,11.63-0.46c6.27-1.09,30.35-3.55,43.89,5.33c5.92,3.88,16.1,12.43,17.56,13.95
			C1834.2,324.23,1835.9,320.32,1835.9,320.32z"/>
	</g>
	<g id="sprossen_22_">
		
			<ellipse transform="matrix(0.1733 -0.9849 0.9849 0.1733 891.8795 2253.8623)" class="st31" cx="1788.47" cy="595.68" rx="1.84" ry="2.25"/>
		
			<ellipse transform="matrix(0.1733 -0.9849 0.9849 0.1733 877.3647 2232.2595)" class="st31" cx="1768.34" cy="593.52" rx="1.84" ry="2.25"/>
		
			<ellipse transform="matrix(0.1733 -0.9849 0.9849 0.1733 893.0956 2227.219)" class="st31" cx="1773.2" cy="581.63" rx="1.84" ry="2.25"/>
		
			<ellipse transform="matrix(0.1733 -0.9849 0.9849 0.1733 880.3794 2217.1411)" class="st31" cx="1760.84" cy="584.17" rx="1.84" ry="2.25"/>
		
			<ellipse transform="matrix(0.1733 -0.9849 0.9849 0.1733 1127.5874 2109.802)" class="st32" cx="1820.51" cy="383.25" rx="1.74" ry="2.25"/>
		
			<ellipse transform="matrix(0.1733 -0.9849 0.9849 0.1733 1106.4182 2108.7651)" class="st32" cx="1809.31" cy="395.34" rx="1.74" ry="2.25"/>
		
			<ellipse transform="matrix(0.1733 -0.9849 0.9849 0.1733 1111.8436 2091.5947)" class="st32" cx="1801.79" cy="383.52" rx="2.35" ry="2.56"/>
	</g>
	<g id="sprossen_21_">
		
			<ellipse transform="matrix(0.1733 -0.9849 0.9849 0.1733 927.892 2318.2627)" class="st31" cx="1844.83" cy="606.43" rx="1.84" ry="2.25"/>
		
			<ellipse transform="matrix(0.1733 -0.9849 0.9849 0.1733 939.3689 2341.6218)" class="st31" cx="1864.49" cy="611.27" rx="1.84" ry="2.25"/>
		
			<ellipse transform="matrix(0.1733 -0.9849 0.9849 0.1733 951.5874 2330.5054)" class="st31" cx="1863.97" cy="598.43" rx="1.84" ry="2.25"/>
		
			<ellipse transform="matrix(0.1733 -0.9849 0.9849 0.1733 1170.3613 2185.8984)" class="st32" cx="1887.22" cy="395.82" rx="1.74" ry="2.25"/>
		
			<ellipse transform="matrix(0.1733 -0.9849 0.9849 0.1733 1160.6951 2204.7605)" class="st32" cx="1893.63" cy="411.01" rx="1.74" ry="2.25"/>
		
			<ellipse transform="matrix(0.1733 -0.9849 0.9849 0.1733 1178.2822 2208.6279)" class="st32" cx="1904.72" cy="402.46" rx="2.35" ry="2.56"/>
	</g>
	<g id="Rouge_11_">
		<path class="st33" d="M1809.14,406.91c-2.08,11.81-21.37,18.44-37.23,15.65c-15.86-2.79-27.45-25.66-25.37-37.47
			c2.08-11.81,11.01-10.16,26.87-7.37C1789.27,380.52,1811.22,395.11,1809.14,406.91z"/>
		<path class="st33" d="M1900.92,424.44c-2.08,11.81,13.79,24.63,29.65,27.42c15.86,2.79,34.56-14.75,36.64-26.56
			c2.08-11.81-6.88-13.31-22.74-16.1S1903,412.64,1900.92,424.44z"/>
	</g>
	<g id="Ohren_11_">
		<g>
			<g>
				<path class="st0" d="M1974.35,414.86c-3.45,19.59-9.29,42.16-8.81,42.95c10.6,17.59,47.97-15.14,51.42-34.73
					c3.45-19.59-3.99-31.32-17.35-33.67C1986.24,387.05,1977.8,395.27,1974.35,414.86z"/>
			</g>
		</g>
		<g>
			<g>
				<path class="st0" d="M1743.95,373.1c-3.45,19.59,0.6,44.16-12.76,41.81c-27.41-4.82-37.47-33.5-34.02-53.09
					c3.45-19.59,13.68-25.3,27.04-22.95S1747.4,353.51,1743.95,373.1z"/>
			</g>
			<path class="st15" d="M1738.3,361.12c0,0-7.69-22.41-21.85-14.37c-14.16,8.04-10.14,19.83-10.14,19.83s15.95-14.82,10.97-2.5
				c-6.38,15.78,11.7,35.86,11.7,35.86s-8.38-31.12,0.95-30.59C1739.25,369.87,1738.3,361.12,1738.3,361.12z"/>
			<path class="st15" d="M1978.68,408.81c0,0,14.88-18.44,25.45-6.05c10.57,12.39,2.76,22.1,2.76,22.1s-9.93-19.37-9.46-6.1
				c0.61,17.01-23.24,29.72-23.24,29.72s18.5-26.39,9.55-29.08C1974.8,416.72,1978.68,408.81,1978.68,408.81z"/>
		</g>
	</g>
	<path id="nase_11_" class="st15" d="M1832.04,411.16c-0.41-0.62,0.17-1.42,0.88-1.19c4.04,1.28,13.5,4.17,19.43,5.22
		c8.13,1.43,17.06,2.23,20.94,2.53c0.74,0.06,0.99,1,0.39,1.43c-2.97,2.08-10.16,5.8-21.93,3.88
		C1839.97,421.12,1834.2,414.42,1832.04,411.16z"/>
	<g>
		<g id="Haareoben_14_">
			<g>
				<path class="st12" d="M1907.89,196.36c14.13,11.29,30.89,19.13,44.16,31.42c21.1,19.55,61.15,40.2,67.25,68.31
					c6.61,30.45,11.82,50.02-19.79,92.68c1.35-17.37-6.7-29.54-17.07-43.53s-33.72-27.92-43.23-42.52
					c-9.53-14.64-21.24-38.36-23.46-55.67c-1.71-13.37-5.16-23.14-10.31-35.9c-10.4-25.74-57.34-18.72-79.88-21.77
					c-25.9-3.51-24.3-10.72-49.64-4.34c-25.35,6.38-66.86,65.24-73.46,90.52c0,0-1.47,5.1-1.91,6.7
					c-2.97,10.81-5.72,48.67-38.14,72.33c-11.33,8.27,31.38-6.67,36.84-25.11"/>
			</g>
			<g>
				<path class="st12" d="M1719.55,352.65c6.18-20.69,1.19,13.01,20.38,3.12c24.8-12.78,4.44-59.27,31.29-66.81
					c41.28-11.6,145.56-48.92,159.03-89.63c-6.78,2.47-13.7,4.4-20.71,5.9c-24.37,5.23-49.9,5.39-74.97,5.81
					c-14.33,0.24-28.82,0.61-42.67,4.29c-22.79,6.05-46.28,7.67-58.35,27.93s-12.57,58.93-7.03,81.85
					c4.89-5.65-11.23,34.98-6.35,29.32"/>
			</g>
			<g>
				<g>
					<path class="st12" d="M1686.7,376.75c-0.91-14.21-0.75-28.5,0.81-42.67c1.37-12.43,3.83-24.75,7.51-36.7
						c3.27-10.66,7.51-21.01,12.72-30.87c4.77-9.03,10.34-17.66,16.63-25.71c5.79-7.42,12.18-14.36,19.06-20.79
						c6.33-5.9,13.06-11.36,20.13-16.35c6.34-4.47,12.95-8.57,19.77-12.28c5.82-3.16,11.81-6.05,17.93-8.6
						c4.88-2.03,9.84-3.86,14.89-5.4c3.4-1.04,6.86-1.98,10.37-2.57c0.68-0.12,0.97-0.16,1.53-0.22c0.95-0.11,0.96-1.61,0-1.5
						c-3.12,0.35-6.2,1.12-9.22,1.95c-4.75,1.31-9.43,2.92-14.02,4.7c-6.01,2.34-11.9,4.99-17.65,7.93
						c-6.73,3.43-13.26,7.25-19.56,11.42c-7.13,4.72-13.95,9.9-20.4,15.51c-7.02,6.11-13.59,12.75-19.6,19.86
						c-6.5,7.69-12.35,15.92-17.43,24.61c-5.55,9.46-10.18,19.45-13.89,29.78c-4.13,11.49-7.08,23.4-8.97,35.46
						c-2.14,13.66-2.93,27.52-2.6,41.34c0.09,3.71,0.26,7.41,0.49,11.12C1685.26,377.71,1686.76,377.72,1686.7,376.75L1686.7,376.75
						z"/>
				</g>
			</g>
			<g>
				<path class="st14" d="M1937.67,220.15c0.53,20.3,14.3,43.44,26.65,59.55c15.83,20.66,29.26,23.46,33.87,24.8
					c5.45-50.62-53.37-62.45-60.87-85.52"/>
			</g>
			<path class="st14" d="M1697.64,291.71c0,0,8.41,51.59-3.9,108.7s32.16,123.75,32.16,123.75s-29.79-3.73-43.42-41.17
				C1670.61,450.37,1697.64,291.71,1697.64,291.71z"/>
			<path class="st30" d="M1704.34,272.2c-8.8,49.99,22,70.23,22,70.23l12.42,23.52c0,0,15.56-18.74,16.34-31.07
				c0.78-12.33-0.41-21.27,2.09-30.8c2.51-9.53,10.51-14.08,10.51-14.08s-79.62-12.07-15.48-64.79S1713.14,222.21,1704.34,272.2z"/>
			<path class="st30" d="M2015.58,249.79c0,0-32.71,37.89-7.33,88.9s12.59,96.15,12.59,96.15s18.22-91.01,10.36-148.64
				C2027.33,257.82,2015.58,249.79,2015.58,249.79z"/>
			<path class="st34" d="M1802.19,181.76c0,0-29.31,3.84-43.49,19.34s-23.79,30.95-8.9,18.07c16.89-14.62,39.47-22.09,39.47-22.09
				s53.37-22.93,32.6-16.41C1813.95,183.14,1802.19,181.76,1802.19,181.76z"/>
			<g>
				<g>
					<g>
						<path class="st12" d="M1776.53,184.19c-2.77,0.53-5.41,2.14-7.77,3.61c-3.57,2.22-6.95,4.75-10.25,7.36
							c-6.96,5.48-13.65,11.4-19.8,17.78c-2.07,2.15-4.17,4.37-5.85,6.86c-3.69,5.46-6.9,11.32-9.95,17.15
							c-6.43,12.27-11.76,25.12-15.9,38.33c-4.69,14.95-8.54,31.4-3.69,46.81c0.25,0.79,1.03,1.24,1.85,1.05
							c2.08-0.5,3.6-2.51,3.34-4.66c-0.22-1.89-3.22-1.92-3,0c0.1,0.89-0.24,1.55-1.14,1.77c0.62,0.35,1.23,0.7,1.85,1.05
							c-4.23-13.44-1.46-27.71,2.38-40.89c3.81-13.05,8.78-25.75,14.85-37.91c3.03-6.07,6.33-12.01,9.88-17.79
							c1.86-3.02,3.53-5.36,5.91-7.94c5.72-6.21,12.08-11.89,18.6-17.23c3.58-2.93,7.25-5.76,11.13-8.3
							c2.59-1.7,5.39-3.58,8.36-4.15C1779.23,186.72,1778.42,183.83,1776.53,184.19L1776.53,184.19z"/>
					</g>
				</g>
				<path class="st35" d="M1920.24,197.96c0,0-21.99,73.02,9.51,101.84c31.51,28.82,63.98,47.42,63.98,47.42l-62-124.79
					L1920.24,197.96z"/>
				<g>
					<g>
						<path class="st12" d="M1778.41,186.17c23.99-7.69,49.38-11.83,74.57-9.24c17.65,1.82,34.97,7.04,50.38,15.88
							c10.34,5.93,19.99,13.45,27.67,22.61c7.46,8.91,17.38,15.25,27,21.62c14.44,9.56,29.19,18.65,43.44,28.49
							c6.74,4.65,13.4,9.45,19.71,14.68c4.97,4.12,9.93,8.53,13.78,13.75c2.38,3.23,4.95,7.47,4.07,11.66
							c-0.52,2.5-1.54,4.93-2.16,7.42c-0.77,3.11-1.35,6.26-1.74,9.43c-0.75,6-0.77,12.07-0.31,18.09
							c0.8,10.65,3.25,21.16,3.58,31.85c0.39,12.7-4.36,24.69-8.4,36.54c-4.63,13.58-9.7,27.01-14.31,40.6
							c-3.46,10.18-7.32,20.1-11.5,30c-4.39,10.4-8.79,20.82-12.25,31.57c-3.1,9.63-5.69,19.82-5.38,30.01
							c0.13,4.24,0.82,8.46,2.35,12.43c0.35,0.89,1.8,0.5,1.45-0.4c-3.52-9.09-2.54-19.28-0.53-28.6
							c2.39-11.09,6.41-21.79,10.67-32.29c4.06-10.01,8.53-19.85,12.36-29.95c2.13-5.6,3.9-11.33,5.86-16.99
							c2.37-6.84,4.83-13.65,7.27-20.46c2.42-6.74,4.81-13.5,7.06-20.3c2.17-6.54,4.66-13.21,5.97-19.99
							c1.94-10.06,0.35-20.27-1.08-30.29c-1.73-12.15-2.87-24.34-0.57-36.5c0.68-3.57,1.63-7.06,2.74-10.52
							c0.3-0.94,0.53-1.88,0.57-2.87c0.1-1.98-0.43-3.94-1.2-5.74c-2.13-5.01-6.05-9.24-9.91-12.99
							c-5.38-5.24-11.32-9.89-17.35-14.35c-14.14-10.45-29.07-19.79-43.82-29.33c-6.61-4.28-13.22-8.57-19.65-13.11
							c-4.65-3.28-9.37-6.66-13.38-10.73c-3.18-3.23-5.84-6.9-9.1-10.07c-4.39-4.29-9.19-8.16-14.26-11.64
							c-13.58-9.32-29.13-15.65-45.25-18.95c-22.57-4.62-45.98-3.34-68.38,1.63c-6.88,1.53-13.67,3.41-20.38,5.56
							C1777.1,185.01,1777.49,186.46,1778.41,186.17L1778.41,186.17z"/>
					</g>
				</g>
			</g>
			<path class="st35" d="M1704.92,288.45c0,0-17.64,153.47-24.17,175.26c-4.02,13.42-17.77,27.58-17.77,27.58"/>
			<path class="st35" d="M1645.35,493.8"/>
			<path class="st35" d="M1690.21,336.77"/>
			<g>
				<path class="st14" d="M1745.45,260.47c-0.77-4.36,0.56-8.82,2.33-12.88c7.57-17.32,23.35-30.07,40.75-37.44
					c7.53-3.19,15.39-5.49,23.24-7.78c20.14-5.88,40.29-11.77,60.72-16.54c2.26-0.53,4.6-1.04,6.88-0.66
					c2.29,0.38,4.55,1.89,5.1,4.15c0.9,3.65-2.77,6.71-6.1,8.45c-9.24,4.84-19.39,7.63-29.4,10.55
					c-26.54,7.72-53.22,16.78-75.67,32.91c-5.53,3.97-10.79,8.37-16.75,11.67c-3.75,2.08-7.74,3.7-11.87,4.83"/>
			</g>
			<g>
				<g>
					<path class="st14" d="M1739.86,343.95c-2.79-11.8-4.55-23.97-3.94-36.11c0.44-8.78,2.18-17.57,5.88-25.58
						c2.91-6.29,7-11.99,12.07-16.72c4.36-4.07,9.37-7.39,14.71-10.04c4.43-2.2,9.07-3.92,13.8-5.33c7.78-2.32,15.73-4.06,23.7-5.59
						c7.8-1.49,15.63-2.83,23.38-4.58c4.76-1.07,9.62-2.07,14.04-4.2c7.64-3.68,14.58-8.92,21.26-14.09
						c8.25-6.39,16.18-13.22,23.81-20.33c6.21-5.79,12.4-11.74,17.79-18.31c0.85-1.04,1.68-2.1,2.45-3.2
						c0.28-0.4-0.37-0.77-0.65-0.38c-4.34,6.2-9.98,11.62-15.39,16.87c-7.5,7.27-15.34,14.21-23.46,20.79
						c-7.22,5.85-14.69,11.62-22.79,16.21c-3.09,1.75-6.2,3.11-9.63,4.04c-7.74,2.09-15.63,3.58-23.51,5.05
						c-9.85,1.83-19.67,3.73-29.32,6.45c-4.56,1.29-9.05,2.82-13.37,4.77c-5.27,2.38-10.27,5.36-14.74,9.04
						c-5.15,4.24-9.5,9.4-12.78,15.21c-4,7.1-6.33,15.02-7.39,23.08c-1.46,11.06-0.63,22.32,1.3,33.27c0.58,3.31,1.28,6.6,2.05,9.87
						C1739.25,344.62,1739.97,344.43,1739.86,343.95L1739.86,343.95z"/>
				</g>
			</g>
			<g>
				<g>
					<path class="st14" d="M1926.64,185.44c-1.69,14.44-1.82,29.09-0.59,43.57c1.26,14.88,3.93,29.83,9.13,43.86
						c2.35,6.34,5.24,12.51,8.91,18.2c4.62,7.15,10.15,13.66,15.98,19.85c5.89,6.25,12.09,12.21,18.09,18.35
						c2.56,2.61,5.11,5.23,7.36,8.11c2.24,2.87,4.26,5.91,6.12,9.04c7.59,12.73,13.25,27.08,16.17,41.62
						c0.32,1.59,0.59,3.18,0.82,4.79c0.07,0.48,0.79,0.27,0.72-0.2c-2.04-14.24-7.26-28.28-13.93-40.98
						c-3.22-6.13-6.92-12.11-11.47-17.34c-5.44-6.25-11.62-11.91-17.44-17.8c-11.26-11.39-21.92-23.43-28.37-38.26
						c-5.99-13.77-9.14-28.75-10.8-43.62c-1.63-14.68-1.81-29.58-0.47-44.3c0.15-1.63,0.32-3.26,0.51-4.89
						C1927.44,184.96,1926.69,184.97,1926.64,185.44L1926.64,185.44z"/>
				</g>
			</g>
			<g>
				<g>
					<path class="st14" d="M1998.31,317.35c0.28,15.62,5.74,30.46,11.39,44.83c5.81,14.75,12.65,29.93,13.78,45.94
						c0.54,7.71-0.18,15.16-2.24,22.61c-2.07,7.47-5.01,14.66-7.91,21.84c-2.85,7.06-5.42,14.14-7.73,21.4
						c-2.42,7.62-5.1,15.15-7.55,22.76c-4.66,14.48-8.08,29.31-7.2,44.62c0.12,2.07,0.31,4.13,0.56,6.19c0.06,0.47,0.81,0.48,0.75,0
						c-0.97-7.96-0.94-16,0.12-23.95c0.99-7.49,2.85-14.84,5.04-22.06c2.28-7.51,4.91-14.92,7.37-22.37
						c2.43-7.34,4.67-14.68,7.53-21.87c5.49-13.8,12.12-27.88,12.18-43.02c0.03-8.09-1.29-15.92-3.54-23.68
						c-2.2-7.58-5.05-14.96-7.95-22.29c-5.77-14.6-12.05-29.43-13.55-45.22c-0.18-1.9-0.28-3.81-0.32-5.72
						C1999.06,316.87,1998.31,316.87,1998.31,317.35L1998.31,317.35z"/>
				</g>
			</g>
			<g>
				<g>
					<path class="st14" d="M1718.85,237.58c-2.8,5.08-5.44,10.25-7.98,15.47c-2.91,5.97-5.86,12.07-7.84,18.43
						c-0.85,2.73-1.05,5.45-1.4,8.28c-0.56,4.52-1.3,9.02-2.14,13.5c-1.75,9.33-3.92,18.57-6.12,27.8
						c-4.45,18.63-9.24,37.33-11.23,56.42c-0.96,9.23-0.94,18.36-0.19,27.61c0.86,10.66,2.24,21.28,3.42,31.91
						c2.3,20.75,3.71,42-1.73,62.41c-0.69,2.6-1.49,5.16-2.38,7.7c-0.16,0.46,0.56,0.65,0.72,0.2c6.96-19.82,6.98-40.8,5.05-61.47
						c-0.99-10.57-2.4-21.1-3.49-31.67c-1-9.68-1.81-19.36-1.27-29.09c1.07-19.04,5.59-37.76,10.01-56.24
						c2.24-9.36,4.52-18.71,6.49-28.13c0.94-4.48,1.8-8.98,2.54-13.5c0.65-4.02,1-8.07,1.6-12.09c0.36-2.42,1.25-4.79,2.12-7.07
						c1.25-3.27,2.67-6.48,4.14-9.65c2.77-5.98,5.75-11.88,8.86-17.7c0.49-0.91,0.98-1.82,1.48-2.72
						C1719.73,237.53,1719.08,237.15,1718.85,237.58L1718.85,237.58z"/>
				</g>
			</g>
		</g>
		<path class="st12" d="M1997.66,469.96c0,0-27.15,25.15-7.09,40.32c20.05,15.17,32.38,11.24,32.38,11.24s-24.45-15.39-25.31-29.39
			S1997.66,469.96,1997.66,469.96z"/>
		<path class="st12" d="M1837.51,169.69c0,0,10.61-20.16,38.43-8.2c27.82,11.96,41.39,22.25,41.39,22.25s-25.78-14.1-43-15.46
			c-17.22-1.37-39.03,6.85-39.03,6.85L1837.51,169.69z"/>
		<path class="st30" d="M1846.38,171.25c0,0-21.22,26.89-36.93,28c-15.71,1.11,35.89,0.77,40.94-12.19
			c5.05-12.97,5.97-15.02,5.97-15.02L1846.38,171.25"/>
		<path class="st24" d="M1734.99,374.43c0,0-5.13,24.45-2.87,42.31s6.37,32.29,10.6,41.35c4.23,9.06-6.65-16.55-5.59-36.73
			S1734.99,374.43,1734.99,374.43z"/>
	</g>
</g>
<g id="Hose_Kopie_Kopie_2_Kopie_Kopie_2_Kopie_2">
	<g>
		<path class="st36" d="M1607.15,771.61c16.92-64.4,88.13-173.39,88.13-173.39l47.23-14.91c0,0-25.49,24.66-44.76,56.76
			c-12.28,20.47-49.39,106.16-66.59,146.27c-0.43,1-24.15-13.37-24.15-13.37"/>
		<path class="st37" d="M1669.91,1192.83c-2.85,2.14,18.34,162.74,35.75,331.43c9.28,89.91,22.59,182.27,25.79,257.07
			c0.02,0.38-10.78,2.33-10.64,3.14c4.97,29.87,16.99,68.09,19.75,75.35c0,0,28.48,28.02,95.28,2.97
			c0.23-0.09,3.68-30.02,11.05-76.14c0.23-1.47-9.72-0.26-9.69-1.77c1.43-66.05,4.09-166.69,5.95-262.26
			c3-154.33,5.78-302.91,5.78-302.91L1669.91,1192.83z"/>
		<path class="st38" d="M1731.45,1781.33c-0.37-0.08-10.78,2.33-10.64,3.14c4.97,29.87,16.99,68.09,19.75,75.35
			c0,0,28.48,28.02,95.28,2.97c0.23-0.09,3.68-30.02,11.05-76.14c0.23-1.47-8.22-2.15-9.69-1.77
			C1809.64,1791.97,1782.62,1792.79,1731.45,1781.33z"/>
		<path class="st37" d="M2031.23,1216.16c0.46-6.96,34.77,347.15,33.98,560.22c0,0.38,0,0.76,0,1.14c0,0.83,7.78,2.98,7.77,3.8
			c-0.17,30.28-5.98,69.92-7.56,77.53c0,0-23.68,32.18-93.6,18.03c-0.25-0.05-8.4-29.06-22.98-73.42c-0.46-1.41,8.4-4.51,8.12-6
			c-9.45-51.7-12.42-152.42-26.98-228.99c-33.29-175.11-81.6-341.12-81.6-341.12L2031.23,1216.16z"/>
		<g>
			<path class="st37" d="M1713.57,1016.11c-20.71,50.22-34.92,102.9-43.78,177.11c78.13,37.2,168.13,37.77,254.64,35.45
				c36.01-0.97,72.39-2.36,107.16-11.77c-11.13-62.31-49.98-214.64-51.67-215.51c-0.1-0.05-0.39,1.07-0.55,1.09
				c-3.82,0.55-9.05,2.82-9.28,2.18c-8.47,3.59-44.9,11.81-119.53,9.82c-38.86-1.03-86.1-1.5-133.58-6.14
				c-0.03,0-0.68,3.97-0.68,3.89"/>
		</g>
	</g>
	<path class="st39" d="M1738.41,1061.29c0,0,0.58,0.13,1.64,0.38c13.4,3.09,104.3,23.88,108.47,20.09c4.5-4.09,3.68-9.82,3.68-9.82
		l-113.29-23.71L1738.41,1061.29"/>
	<g>
		<path class="st40" d="M1738.41,1061.29c0,0,0.58,0.13,1.64,0.38c13.4,3.09,110.03,25.11,114.2,21.32
			c4.5-4.09,13.51-57.31,13.51-57.31l-128.84,22.55L1738.41,1061.29"/>
		<path class="st40" d="M1882.91,1073.98c0,0,0.57,3.85,1.64,4.09c13.4,3.09,107.58-7.26,111.75-11.05
			c4.5-4.09-11.05-51.99-11.05-51.99l-118.71,11.87l17.19,50.76"/>
	</g>
	<g>
		<path class="st40" d="M1897.51,1414.55c0,0,62.77,265.8,76.41,292.55c13.64,26.74,28.38,85.69,28.38,85.69l-46.12,5.46
			C1956.18,1798.25,1911.15,1444.57,1897.51,1414.55z"/>
		<g>
			<g>
				<path class="st41" d="M1857.69,1233.9c11.65,35.46,22.48,71.18,32.46,107.14c10.02,36.14,19.19,72.51,27.5,109.08
					c8.27,36.39,15.68,72.98,22.23,109.72c6.62,37.14,12.37,74.43,17.22,111.85c4.79,37.01,8.72,74.13,11.77,111.33
					c0.38,4.65,0.75,9.3,1.1,13.95c0.15,1.91,3.15,1.93,3,0c-2.85-37.39-6.57-74.72-11.18-111.93
					c-4.58-36.99-10.02-73.88-16.32-110.62c-6.37-37.14-13.62-74.12-21.75-110.92c-8.08-36.62-17.03-73.05-26.83-109.24
					s-20.46-72.16-31.96-107.85c-1.43-4.44-2.88-8.88-4.33-13.31C1859.98,1231.27,1857.09,1232.06,1857.69,1233.9L1857.69,1233.9z"
					/>
			</g>
		</g>
	</g>
	<path class="st42" d="M1968.58,1799.93l-10.22,5.15c0,0,18.28,62.22,22.92,74.23"/>
	<path class="st38" d="M2065.46,1779.07c0.36-0.13,10.98,0.99,10.95,1.81c-1.27,30.25-8.51,69.66-10.37,77.21
		c0,0-25.21,36.24-94.58,19.57c-0.24-0.06-9.96-29.63-22.92-74.5c-0.41-1.43,6.14-5.11,7.64-4.91
		C1984.41,1801.91,2016.08,1796.72,2065.46,1779.07z"/>
	<path class="st42" d="M1739.23,1784.33l-10.37,2.73c0,0,13.64,73.14,18.56,78.05"/>
	<g>
		<g class="st43">
			<path class="st39" d="M1847.84,1231.44c-3.82-1.23-42.3-3.27-49.94-2.18c-5.46,0.78,10.37,15.01,14.19,20.47
				c9.89,14.12,10.33,35.5,10.75,52.74c2.15,87.2-3.9,386.21-1.75,473.41c0.07,2.8,17.24,8.55,17.47-1.64
				c2.18-98.79,5.61-414.66,10.37-504.31c0.58-10.92,2.49-27.15-0.55-37.66"/>
		</g>
		<g class="st43">
			<path class="st39" d="M2034.88,1582.69c-3.68,2-4.93,7.4-8.29,11.56c-8.62,10.71-13.41,23.25-20.8,34.85
				c-2.76,4.34-5.04,10.96-0.77,13.83c2.54,1.71,5.97,0.81,8.77-0.44c21.61-9.67,31.74-63.02,21.14-59.87"/>
		</g>
		<g class="st43">
			<path class="st39" d="M2020.08,1650.7c-1.63,0.29-2.76,2.17-4.53,3.32c-4.55,2.96-7.9,7.07-12.09,10.51
				c-1.57,1.29-3.24,3.49-1.99,5.09c0.74,0.95,2.14,1.04,3.34,0.91c9.3-0.97,19.66-19.73,15.3-19.86"/>
		</g>
		<g class="st43">
			<path class="st39" d="M1802.37,1581.87c-3.68,2-4.93,7.4-8.29,11.56c-8.62,10.71-13.41,23.25-20.8,34.85
				c-2.76,4.34-5.04,10.96-0.77,13.83c2.54,1.71,5.97,0.81,8.77-0.44c21.61-9.67,31.74-63.02,21.14-59.87"/>
		</g>
		<g class="st43">
			<path class="st39" d="M1787.57,1649.88c-1.63,0.29-2.76,2.17-4.53,3.32c-4.55,2.96-7.9,7.07-12.09,10.51
				c-1.57,1.29-3.24,3.49-1.99,5.09c0.74,0.95,2.14,1.04,3.34,0.91c9.3-0.97,19.66-19.73,15.3-19.86"/>
		</g>
		<path class="st40" d="M1712.01,1043.43l-0.82,2.4l-28.45,91.18c0,0,36.02-17.19,46.67-40.93c7.93-17.69,9.52-47.86,9.52-47.86
			L1712.01,1043.43z"/>
		<path class="st40" d="M1988.01,1046.25l1.74,4.2l22.92,89.14c0,0-31.93-30.91-42.98-50.45c-9.54-16.87-14.02-35.1-14.02-35.1
			L1988.01,1046.25z"/>
		<path class="st40" d="M1772.27,1193.51c0,0,53.85,21.83,51.91,24.74s-43.66,0.97-49.97-1.94
			C1767.9,1213.4,1760.14,1196.42,1772.27,1193.51z"/>
		<path class="st40" d="M1868.04,1236.63c0,0,9.28,4.37,34.39-9.82c25.11-14.19,18.56,3.27,9.28,9.82
			C1902.42,1243.17,1868.04,1236.63,1868.04,1236.63z"/>
	</g>
	<g>
		<g class="st43">
			<path class="st39" d="M1956.52,1798.72c29.67,1.95,59.65-0.88,88.44-8.35c4.05-1.05,17.38-6.04,21.2-11.77
				c0.08-0.11-0.03-4.96-1.09-9.01c-33.72,11.35-72.96,23.7-108.39,26.94"/>
		</g>
		<g>
			<g>
				<path class="st41" d="M1952.83,1054.73c3.26,13.81,9.01,26.88,16.57,38.86c7.54,11.95,16.69,22.8,26.27,33.15
					c5.61,6.07,11.39,11.98,17.17,17.89c1.35,1.38,3.47-0.74,2.12-2.12c-9.96-10.18-19.94-20.38-29.02-31.36
					c-8.78-10.62-16.64-22.07-22.44-34.61c-3.35-7.25-5.94-14.83-7.78-22.6C1955.27,1052.05,1952.38,1052.85,1952.83,1054.73
					L1952.83,1054.73z"/>
			</g>
		</g>
	</g>
	<g>
		<path class="st44" d="M1704.03,1040.82c0,0,182.16,38.48,287.36,3.27l-9.82-42.71c-65.5,24.56-262.39,6.69-262.39,6.69
			L1704.03,1040.82z"/>
		<path class="st45" d="M1781.39,1189.41c0,0,61.81,28.24,66.72,40.93l4.09,0.82c11.05-6.55,15.56-173.15,15.56-173.15"/>
		<path class="st45" d="M1847.71,1229.94c0,0-39.71-3.68-49.94-1.64"/>
		<g>
			<g>
				<path class="st41" d="M1676.33,1188.6c4.78,37.67,9.24,75.38,13.49,113.12c4.39,39.01,8.56,78.05,12.58,117.11
					c4.07,39.52,8,79.05,11.84,118.59c3.81,39.18,7.55,78.38,11.27,117.57c3.61,38.01,7.21,76.03,10.87,114.04
					c0.45,4.65,0.9,9.3,1.34,13.95c0.18,1.9,3.19,1.92,3,0c-3.65-37.8-7.24-75.61-10.83-113.41c-3.71-39.09-7.43-78.18-11.21-117.26
					c-3.83-39.54-7.73-79.08-11.76-118.6c-4-39.16-8.13-78.31-12.48-117.43c-4.22-37.95-8.64-75.87-13.37-113.76
					c-0.58-4.63-1.16-9.27-1.75-13.9C1679.09,1186.71,1676.08,1186.68,1676.33,1188.6L1676.33,1188.6z"/>
			</g>
		</g>
		<g>
			<g>
				<path class="st41" d="M1739.18,1047.76c-1.7,10.36-3.06,20.8-5.51,31.01c-2.27,9.43-5.58,18.71-11.32,26.62
					c-2.84,3.91-6.3,7.42-10.14,10.34c-2.23,1.69-4.61,3.18-6.93,4.74c-6.12,4.1-12.27,8.21-18.13,12.69
					c-1.2,0.91-2.4,1.83-3.51,2.85c-0.35,0.31-0.69,0.64-0.99,0.99c-0.11,0.13-0.23,0.26-0.31,0.4c-0.14,0.24,0.01-0.19-0.01,0
					c0.75,0.21,1.5,0.42,2.25,0.62c0-0.02-0.01-0.04-0.01-0.06c0.03-0.02-0.03,0.43,0.04-0.04c0.14-0.93,0.39-2.43,0.66-3.66
					c0.21-0.93,0.47-1.85,0.66-2.79c0.27-1.37-1.43-2.65-2.51-1.46c-0.51,0.56-0.62,1.54-0.81,2.23c-0.51,1.94-0.99,3.89-1.44,5.85
					c-0.9,3.91-1.68,7.85-2.34,11.82c-1.32,7.98-2.18,16.03-2.53,24.11c-0.2,4.57-0.23,9.15-0.12,13.73c0.05,1.93,3.05,1.93,3,0
					c-0.25-9.96,0.24-19.93,1.48-29.81c0.63-4.97,1.46-9.91,2.47-14.81c0.49-2.36,1.02-4.71,1.59-7.05
					c0.31-1.25,0.62-2.49,0.96-3.73c-0.01,0.05,0.21-0.61,0.19-0.73c-0.04-0.24,0.95-0.91-0.35,0.52c-0.84-0.49-1.67-0.97-2.51-1.46
					c-0.43,2.2-1.09,4.35-1.36,6.59c-0.15,1.22,0.08,2.98,1.79,2.74c0.72-0.1,1.02-0.56,1.44-1.07c-0.32,0.39,0.04-0.03,0.13-0.12
					c0.19-0.19,0.38-0.38,0.57-0.56c2.28-2.12,4.89-3.92,7.42-5.73c3.36-2.41,6.76-4.75,10.18-7.06
					c6.32-4.28,12.84-8.24,18.01-13.97c6.87-7.6,11.18-16.99,13.99-26.77c3.4-11.82,4.88-24.09,6.87-36.19
					C1742.38,1046.67,1739.49,1045.85,1739.18,1047.76L1739.18,1047.76z"/>
			</g>
		</g>
		<g>
			<g>
				<path class="st41" d="M1849.33,1234.39c15.47,2.14,31.39-2.59,43.14-12.9c1.45-1.28-0.68-3.39-2.12-2.12
					c-10.85,9.54-25.89,14.11-40.22,12.13c-0.81-0.11-1.6,0.2-1.85,1.05C1848.09,1233.24,1848.53,1234.27,1849.33,1234.39
					L1849.33,1234.39z"/>
			</g>
		</g>
		<g class="st46">
			<path class="st41" d="M1686.29,744.05c-6.55,17.47,9.28,55.94,21.29,85.14"/>
		</g>
		<g class="st43">
			<path class="st39" d="M1730.63,1782.8c29.08,6.22,58.73,9.94,88.29,6.71c4.15-0.45,14.56-2.59,18.69-4.09
				c1.5-0.55,1.69-8.4,1.23-12.55c-35.01,6.36-72.21,9.71-107.74,7.79"/>
		</g>
	</g>
</g>
<g id="Shirt_10_">
	<g id="Kleidung_11_">
		<path class="st10" d="M1749.33,580.85c0,0,14.74,46.34,90.06,46.34c83.02,0,86.78-42.28,86.78-42.28l63.04,14.77
			c0,0,9.69,175.06-18.01,249.7c-13.92,54.85-5.47,78.02-5.39,78.66c1.64,12.49,6.74,22.7,14.8,73.48c0,0-42.84,17.87-135.08,14.05
			c-81.81-3.39-127.37-6.86-126.9-7.5c3.34-4.57,10.23-43.25,15.96-80.91c1.97-12.96-17.1-73.09-19.65-79.41
			c-39.3-97.42-19.44-249.5-19.44-249.5L1749.33,580.85z"/>
		<path class="st10" d="M1695.28,598.22c0,0-66.38,113.9-93.4,200.68c23.74,41.75,104.15,50.61,104.15,50.61l32.64-110.47
			L1695.28,598.22z"/>
		<path class="st10" d="M1988.38,599.96c0,0,72.59,79.83,99.61,166.61c-23.74,41.75-88.93,53.36-88.93,53.36l-54.06-79.15
			L1988.38,599.96z"/>
	</g>
	<g>
		<path class="st2" d="M1997.12,1055.97c0,0-107.25,22.51-112.16,15.56c-4.91-6.96-18.01-58.54-18.01-58.54l114.62-12.69
			L1997.12,1055.97z"/>
		<path class="st2" d="M1694.2,1045.73c0,0,153.1,33.16,158.01,26.2s15.83-59.08,15.83-59.08l-149.27-7.23L1694.2,1045.73z"/>
	</g>
	<path class="st2" d="M1608.03,805.99l-3.68,14.99l96.01,47.73c0,0,1.43-16.87,1.48-16.87
		C1703.45,851.84,1608.03,805.99,1608.03,805.99z"/>
	<path class="st2" d="M2088.1,775.09l8.54,12.96l-75.74,49.25c0,0-9.93-14.77-9.99-14.77C2009.3,822.52,2088.1,775.09,2088.1,775.09
		z"/>
	<g>
		<path class="st47" d="M1743.6,588.77c0,0-50.21,68.09-57.99,90.6c-2.92,8.46-45.18,112.93-45.18,112.93"/>
		<path class="st47" d="M1752.33,604.05c0,0-58.2,92.1-61.81,100.29c-12.28,27.84-32.9,97.27-32.9,97.27"/>
		<path class="st47" d="M1758.33,610.05c0,0-60.45,90.6-51.44,135.63c3.64,18.2,32.88,132.36,32.88,145.45s-4.84,115.71-4.84,115.71
			"/>
		<path class="st47" d="M1753.97,1006.44c0,0,2.18-110.39,0.55-130.04c-1.64-19.65-25.91-118.08-25.52-133.17
			c0.82-31.52,43.53-122.8,43.53-122.8"/>
		<path class="st47" d="M1792.17,628.06c0,0-33.43,102.47-32.88,130.31c0.55,27.84,18.69,247.38,18.69,247.38"/>
		<path class="st47" d="M1815.09,633.52c0,0-20.6,92.1-21.83,130.58c-1.1,34.58,11.46,241.1,11.46,241.1"/>
		<path class="st47" d="M1830.1,635.16c0,0-1.77,93.88,0.41,126.08s0,250.11,0,250.11"/>
		<polyline class="st47" points="1851.66,635.16 1854.94,738.86 1862.44,1009.3 		"/>
		<polyline class="st47" points="1896.83,1006.85 1884.41,742.14 1872.4,632.43 		"/>
		<path class="st47" d="M1899.15,624.24c0,0,28.93,86.78,28.93,108.61c0,21.83,6,273.58,6,273.58"/>
		<path class="st47" d="M1959.05,1002.34c0,0-5.87-157.05-4.23-171.79c1.64-14.74,20.74-77.5,12.55-103.16s-52.4-114.62-52.4-114.62
			"/>
		<path class="st47" d="M1927.53,596.95c0,0,20.74,12.55,36.02,39.3s66.5,170.46,66.5,170.46"/>
		<path class="st47" d="M2055.02,790.07c0,0-51.08-155.46-61.99-166.37c-10.92-10.92-63.86-33.57-63.86-33.57"/>
	</g>
	<path class="st48" d="M1715.21,1012.03c147.91,24.01,270.44,1.36,270.44,1.36l-4.09-13.1c0,0-207.4,11.46-263.62,4.91"/>
	<path class="st49" d="M1718.49,1006.85c217.64,18.42,263.07-6.55,263.07-6.55l-4.5-13.1c-0.08-0.65-40.55,19.01-257.89,18.63"/>
	<path class="st50" d="M1988.72,600.37l-55.6-13.3l-1.15,1.99l-1.17-0.56c0,0-26.61,43.39-72.04,44.62
		c-45.44,1.23-93.74-19.24-93.74-19.24s63.04,62.63,122.39,40.12c45.44-17.24,68.76-38.53,78.46-45.78
		c6.11,4.85,14.57,14.24,18.97,20.4c16.37,22.92,82.89,116.77,60.69,69.64C2023.31,651.12,1988.72,600.37,1988.72,600.37z"/>
	<path class="st51" d="M1838.29,618.51c0,0-9.93,13.06-9.41,13.06c0.51,0,20.47-0.2,20.47-0.2L1838.29,618.51z"/>
	<path class="st50" d="M1733.7,926.41c0,0,42.5,44.96,42.5,62.97c0,18.01,1.5,16.24,1.5,16.24l-57.92,0.41L1733.7,926.41z"/>
	<polygon class="st52" points="1827.65,615.31 1821.92,635.57 1855.89,635.36 1851.59,622.27 	"/>
	<g>
		<path class="st52" d="M1742.5,583.31c0,0,49.39,87.87,59.22,86.78c9.82-1.09,37.39-50.9,37.39-50.9l-89.24-38.61L1742.5,583.31"/>
		<path class="st52" d="M1932.64,586.04c0,0-41.41,87.6-51.24,86.51c-9.82-1.09-44.55-53.35-44.55-53.35l92.03-33.43"/>
	</g>
	<g class="st53">
		<path class="st54" d="M1994.69,710.19c-3.95,9.57-8.53,68.44-12.69,85.71c-0.04,0.18,16.12,23.4,16.12,23.4
			s45.54-24.51,44.1-21.64c-0.82,1.64-22.99-48.78-37.55-72.92c-1.48-2.46-7.47-14.43-9.99-15.81"/>
	</g>
	<g class="st55">
		<path class="st36" d="M1693.66,717.44c-0.65,12.41,4.88,59.9,8.22,71.47c3.86,13.35,12.26,38.46,19.48,48.83
			c7.22,10.38,18.25,13.15,28.67,14.07c1.21,0.11,2.59,0.02,3.37-1.25c0.72-1.17,0.63-2.9,0.4-4.4
			c-1.63-10.36-8.11-17.69-13.92-24.64c-15.05-18-31.24-62.41-41.89-85.62"/>
	</g>
	<g class="st56">
		<path class="st57" d="M1695.12,597.85c-0.65,12.41-2.82,63.41,0.52,74.97c3.86,13.35,12.26,38.46,19.48,48.83
			c7.22,10.38,18.25,13.15,28.67,14.07c1.21,0.11,2.59,0.02,3.37-1.25c0.72-1.17,0.63-2.9,0.4-4.4
			c-1.63-10.36-8.11-17.69-13.92-24.64c-15.05-18-31.24-62.41-41.89-85.62"/>
	</g>
	<path class="st58" d="M1925.07,585.19c0,0-6.62,44.72-89.03,41.99c-75.07-2.49-87.8-46.05-87.8-46.05"/>
	<g>
		<path class="st59" d="M1598.43,798.48c0,0,59.57,31.1,107.6,51.02"/>
		<path class="st59" d="M2093.5,764.07c0,0-45.77,39.32-96.94,60.12"/>
	</g>
	<g class="st53">
		<path class="st54" d="M1981.97,795.62c-10.09,30.62-23.13,84.73-46.05,129.97c-2.66,5.24-17.12,54.91-17.12,80.71
			c0,3.27,45.98-1.09,62.36-6.82c-9.2-34.53-18.95-66.36-19.03-88.62c-0.15-40.27,6.01-51.05,12.28-74.81
			c2.33-8.84,4.35-17.35,4.83-21.1"/>
	</g>
	<path class="st52" d="M1991.39,730.54l-8.56,67.23c0,0,9.78,7.27,11.83-11.56S1991.39,730.54,1991.39,730.54z"/>
	<path class="st52" d="M1679.19,771.06l24.01,43.94C1703.21,815,1681.1,788.53,1679.19,771.06z"/>
	<polygon class="st60" points="1595.86,788.87 1629.07,805.99 1624.34,817.88 1589.04,799.79 	"/>
	<g>
		<path class="st2" d="M1741.96,579.01l48.03-15.28l48.31,54.85c0,0-33.98,46.87-34.11,46.67
			C1803.48,664.21,1741.96,579.01,1741.96,579.01z"/>
		<path class="st2" d="M1930.26,584.4l-46.66-18.59l-45.31,52.7c0,0,39.35,46.88,39.57,46.67
			C1878.82,664.22,1930.26,584.4,1930.26,584.4z"/>
	</g>
</g>
<g>
	<path class="st0" d="M2021.49,834.01l12.51,39.78c0,0-22.15,65.79,6.64,68.13c139.4,11.32,53.53-152.13,53.53-152.13
		L2021.49,834.01z"/>
	<path class="st0" d="M1893.07,855.29c6.44,2.61,164.48,13.16,190.17,27.8c0,0-14.07,48.52-38.21,57.64
		c-24.14,9.12-160.18-36.73-169.84-53.92C1865.54,869.62,1893.07,855.29,1893.07,855.29z"/>
	<path class="st61" d="M2033.55,871.9c0,0,55.23-11.37,53.7-11.75c-1.53-0.38-21.59-1.14-32,2.43
		C2044.92,866.13,2033.55,871.9,2033.55,871.9z"/>
</g>
<g>
	<path class="st0" d="M1556.3,847.66l83.4,99.82c0,0-7.15,69.06-35.92,66.5c-57.43-5.12-89.21-167.3-89.21-167.3L1556.3,847.66z"/>
	<path class="st0" d="M1617.3,1011.19c-16.33,11.61-29.7-44.5-29.61-93.45c0.04-26.09,18.04-90.71,18.81-96.65
		c0,0,61.07,44.75,74.91,56.75C1681.41,877.84,1633.62,999.57,1617.3,1011.19z"/>
	<path class="st61" d="M1636.22,929.24c-0.86,2.07-7.15-8.94-27.16-24.51c-16.91-13.15-17.29-14.62-17.29-14.62
		C1593.84,887.68,1642.6,913.92,1636.22,929.24z"/>
</g>
<polygon class="st61" points="1606.5,821.09 1681.41,877.84 1686.67,861.81 "/>
<g id="Arm_x5F_L_x5F_oben_14_" class="st62">
	<path class="st63" d="M2029.57,828.87c-8.27-13.77-20.23-250.83-18.68-253.75c9.96-18.75,42.11-30.93,53.72-4.56
		c5.08,11.54,111.75,278.12-20.24,279.91c-37.05,0.5-23.53-18.3-23.53-18.3"/>
	<path class="st64" d="M2111.3,756.91l-7.4-52.17l3.12,67.6c-1.14,5.35-11.23,58.83-38.63,58.56c-17.22-0.17-39.17-4.9-39.17-4.9
		l-10.82,5.85l-3.33,1.2c4.66,24.43,26.21,23.39,29.21,23.46C2115.09,858.11,2111.3,756.91,2111.3,756.91z"/>
	<g class="st65">
		
			<ellipse transform="matrix(0.9685 -0.2491 0.2491 0.9685 -84.8009 532.9394)" class="st5" cx="2063.5" cy="601.56" rx="3.31" ry="3.02"/>
		<ellipse class="st5" cx="2068.83" cy="612.43" rx="2.05" ry="1.69"/>
		
			<ellipse transform="matrix(0.8059 -0.5921 0.5921 0.8059 33.2731 1344.2836)" class="st5" cx="2066.69" cy="621.4" rx="2.11" ry="1.97"/>
		<ellipse class="st5" cx="2072.51" cy="606.65" rx="1.84" ry="1.52"/>
	</g>
</g>
<path class="st36" d="M1607.15,771.61c16.92-64.4,88.13-173.39,88.13-173.39l47.23-14.91c0,0-25.49,24.66-44.76,56.76
	c-12.28,20.47-49.39,106.16-66.59,146.27c-0.43,1-24.15-13.37-24.15-13.37"/>
<g id="Ebene_69_Kopie_2">
</g>
<g id="Ebene_53_Kopie_2_Kopie_2" class="st62">
	<g class="st65">
		<path class="st0" d="M1464.25,643.18l39.36-43.77c3.07-5.39-6.58-14.13-13.33-17.73l0,0c-6.74-3.61-30.85-2.38-47.56,54.83
			l1.04,9.52c5.25,0.19-1.83,2.71,4.91,6.32l-1.88,0.04C1453.55,655.99,1461.18,648.57,1464.25,643.18z"/>
		<path class="st0" d="M1478.63,648.15l39.36-43.77c3.07-5.39-6.58-14.13-13.33-17.73l0,0c-6.74-3.61-29.52-9.94-46.23,47.27
			l-8.32,19.12c-3.07,5.39,4.33,0.71,11.08,4.31l0,0C1467.93,660.96,1475.56,653.54,1478.63,648.15z"/>
		<path class="st0" d="M1496.59,661.05l39.36-43.77c3.07-5.39-6.58-14.13-13.33-17.73l0,0c-6.74-3.61-29.52-9.94-46.23,47.27
			l-8.32,19.12c-3.07,5.39,4.33,0.71,11.08,4.31l0,0C1485.89,673.86,1493.52,666.44,1496.59,661.05z"/>
		<path class="st0" d="M1513.79,675.57l38.75-36.42c3.07-5.39-5.97-21.47-12.72-25.08l0,0c-6.74-3.61-29.52-9.94-46.23,47.27
			l-8.32,19.12c-3.07,5.39,4.33,0.71,11.08,4.31l0,0C1503.09,688.38,1510.72,680.96,1513.79,675.57z"/>
		<path class="st0" d="M1450.36,621.62c0,0-13.21,19.58-7.42,25.54c2.47,2.54,5.81,19.33,21.11,30.54
			c11.02,8.07,29.09,9.33,38.26,15.59c7.96,5.43,24.02,28.04,21.43,17.9c-1.49-5.85,41.9-8.18,43.16-19.4s7.97-50.64-24.37-62.54
			C1510.19,617.36,1450.36,621.62,1450.36,621.62z"/>
	</g>
	<path class="st64" d="M1493.76,584.54c0,0-30.31,18.51-32.12,39.37c-1.81,20.85-2.11,23.25-2.11,23.25s3.11-25.97,8.85-33.68
		C1474.12,605.78,1493.76,584.54,1493.76,584.54z"/>
	<path class="st64" d="M1516.84,597.5c0,0-24.03,17.86-30.13,30.7c-4.1,8.63-2.03,19.01-2.03,19.01s1.04-13.05,6.78-20.76
		S1516.84,597.5,1516.84,597.5z"/>
	<path class="st64" d="M1536.04,612.56c0,0-26.32,19.39-30.12,29.75c-2.18,5.94-0.87,18.14-0.87,18.14s-0.14-12.9,5.6-20.6
		S1536.04,612.56,1536.04,612.56z"/>
	<polygon class="st64" points="1553.09,635.16 1539.47,658.06 1541.82,659.16 	"/>
</g>
<g class="st62">
	<path class="st63" d="M2115.68,503.96c-3.04,12.5-30.97,34.63-53.96,37.53c-9.65,1.22-13.7-10.18-22.28-12.26
		c-29.03-7.05-33.99-35.48-29.68-53.23s34.95-25.87,63.98-18.83C2102.76,464.22,2119.99,486.21,2115.68,503.96z"/>
	<g class="st65">
		<path class="st0" d="M2012.7,479.14c3.21-6.41-3.72,2.91-2.53-4.17c3.59-21.3,22.57-43.55,30.26-63.74c0.76-2,1.91-4.08,3.9-4.87
			c3.55-1.42,8.48,1.35,9.26,5.09c5.09,24.41-6.98,31.31-10.16,51.96c-1.49,9.68-6.47,12.06-15.79,15.07
			c-4.18,1.35-10-0.11-10.67-4.45"/>
	</g>
	<path class="st63" d="M2044.32,461.49c0,0,17.39-20.47,29.69-41.17c11.59-19.51,16.46-42.32,21.15-44.44
		c21.24-9.58,16.06,23.72,1.81,52.15c-10.6,21.13-21.13,39.4-21.13,39.4L2044.32,461.49z"/>
	<path class="st63" d="M2060.41,467.53c0,0,15.07-19.75,27.37-40.45c11.59-19.51,20.79-47.84,25.48-49.96
		c21.24-9.58,14.05,28.52-0.21,56.95c-10.6,21.13-21.12,39.4-21.12,39.4L2060.41,467.53z"/>
	<path class="st63" d="M2076.13,478.63c0,0,15.08-19.75,27.37-40.45c11.59-19.51,21.3-53.63,25.99-55.75
		c21.24-9.58,13.54,34.31-0.72,62.74c-10.6,21.13-21.13,39.4-21.13,39.4L2076.13,478.63z"/>
	<path class="st63" d="M2083.64,500.58c0,0,15.07-19.75,27.37-40.45c11.59-19.51,26.58-54.67,31.27-56.79
		c21.24-9.58,8.26,35.35-5.99,63.78c-10.6,21.13-21.12,39.4-21.12,39.4L2083.64,500.58z"/>
	<path class="st64" d="M2107.44,385.66l-39.07,73.75c0,0,13.06-14.46,22.42-30.9C2095.22,420.75,2107.44,385.66,2107.44,385.66z"/>
	<path class="st64" d="M2126.17,390.65l-39.07,73.75c0,0,13.06-14.46,22.42-30.9C2113.95,425.74,2126.17,390.65,2126.17,390.65z"/>
	<path class="st64" d="M2142.81,402.71l-39.07,73.75c0,0,13.06-14.46,22.42-30.9C2130.59,437.8,2142.81,402.71,2142.81,402.71z"/>
	<path class="st64" d="M2029.82,480.67c0,0,24.67-7.28,49.51,1.53c24.83,8.81,18.26,6.79,18.26,6.79s-10.09-14.87-31.2-17.85
		C2045.28,468.16,2029.82,480.67,2029.82,480.67z"/>
</g>
<g id="Ebene_44_Kopie_Kopie_2">
	<g>
		<path class="st0" d="M1782.63,883.95c0,0,20.56-2.08,36.4,7.6c15.38,9.4,57.55,10.65,69.02,6.69c12.03-4.16,8.54-23.8,11.92-27.11
			c7.62-7.47,2.55-14.66,2.55-14.66s-68.95-35.6-76.22-33.09C1780.09,839.36,1782.63,883.95,1782.63,883.95z"/>
	</g>
	<path class="st0" d="M1835.04,824.92c0,0-48.22-18.81-61.34-20.51c-12.73-1.65-36.21-5.48-50.77-6.15
		c-2.14-0.1-21.39-4.14-15.94,6.14c3.92,7.39,31.32,13.56,38.56,12.33s35.2,12.88,35.2,12.88s21.43,9.19,23.61,8.73
		C1806.55,837.89,1835.04,824.92,1835.04,824.92z"/>
	<path class="st0" d="M1814.17,834.32c0,0-45.52-6.73-58.72-2.87c-13.21,3.86-29.35,29.8-29.35,29.8s-11.17,11.59-3.49,17.32
		c7.68,5.73,44.43-29.01,44.43-29.01l31.36,2.62L1814.17,834.32z"/>
	<path class="st0" d="M1814,853.06l-45.02-10.53c0,0-39.18,29.91-41.53,36.1c-4.38,11.57,8.27,18.5,14.28,12.53
		s23.56-21.26,23.56-21.26l30.32-3.38L1814,853.06z"/>
	<path class="st0" d="M1800.53,859.7c0,0-39.24,8.92-50.78,15.09c-15.87,8.48-17.97,23.75-3.47,20.82s37.19-11.99,37.19-11.99
		l28.01,2.78L1800.53,859.7z"/>
	<path class="st61" d="M1728.45,877.81c0,0,14.01-28.74,29.98-31.64c15.96-2.9,18.65-2.28,18.65-2.28s-18.58,3.22-24.46,7.5
		C1746.74,855.68,1728.45,877.81,1728.45,877.81z"/>
	<path class="st61" d="M1736.56,891.81c0,0,14.01-28.74,29.98-31.64c15.96-2.9,18.65-2.28,18.65-2.28s-18.58,3.22-24.46,7.5
		C1754.86,869.68,1736.56,891.81,1736.56,891.81z"/>
</g>
<polygon class="st61" points="2021.49,834.01 2028.42,856.04 2099.35,799.15 2094.17,789.79 "/>
<g id="Ebene_70_Kopie_2" class="st62">
	<path class="st66" d="M1657.07,263.33c-14.72,19.67-12.06,54.44-9.22,54.46c168.92,0.78,339.7-31.58,339.7-31.58
		s-1.47-51.11-12.91-54.36C1963.19,228.59,1657.07,263.33,1657.07,263.33z"/>
	<path class="st67" d="M1650.89,274.72c0.28-0.72,266.76-21.28,330.63-32.92"/>
	<path class="st67" d="M1648.75,281.1c0.77,0,268.9-21.28,332.76-32.92"/>
</g>
<path class="st37" d="M1324.98,534.46"/>
<g>
	<polygon class="st68" points="1577.13,772.91 1465.13,848.51 1452.16,848.51 1370.45,584.47 1378.62,577.59 1531.04,555.15 	"/>
	<g>
		<polygon class="st37" points="1571.8,765.22 1468.62,828.47 1392.89,588.77 1525.23,565.81 		"/>
		<polygon points="1378.62,577.59 1465.13,848.51 1452.16,848.51 1370.45,584.47 		"/>
		<path class="st69" d="M1455.22,628.42c0.77,1.24,35.4,117.75,35.4,117.75c0.77-1.53,26.96-83.11,26.96-83.11L1455.22,628.42z"/>
		<polygon class="st70" points="1525.23,565.81 1468.62,828.78 1392.89,589.08 		"/>
	</g>
</g>
<path class="st0" d="M1528.42,872.18c22.98-2.27,26.54-37.72,26.54-37.72l-17.43-35.04l-40.6,27.19l-16.73,11.73
	C1480.21,838.33,1505.44,874.44,1528.42,872.18z"/>
<path class="st0" d="M1548.21,772.03c0,0-5.18,17.81-8.76,29.58c-5.4,17.73,6.57,14.52,6.57,14.52s5.71,46.8,9.76,33.37
	c5.28-17.54,5.56-44.91,7.81-62.89c1.59-12.73,7.68-17.85,8.22-20.26C1573.09,760.55,1557.36,754.17,1548.21,772.03z"/>
<path class="st61" d="M1495.8,827.46c0,0,5.07-3.46,15.31-3.46c10.24,0,17.87,2.61,17.87,2.61l8.01-15.33l-24.82,5.12L1495.8,827.46
	z"/>
<polygon class="st61" points="1512.18,816.4 1523.9,816.91 1536.99,811.28 1534.62,801.61 "/>
<polygon class="st71" points="1383.96,587.06 1389.32,587.06 1467.45,835.84 1465.13,842.53 "/>
</svg>
