<?xml version="1.0" encoding="utf-8"?>
<!-- Generator: Adobe Illustrator 25.4.0, SVG Export Plug-In . SVG Version: 6.00 Build 0)  -->
<svg version="1.1" id="Zuhören" xmlns="http://www.w3.org/2000/svg" xmlns:xlink="http://www.w3.org/1999/xlink" x="0px" y="0px"
	 viewBox="0 0 3840 2160" style="enable-background:new 0 0 3840 2160;" xml:space="preserve">
<style type="text/css">
	.st0{fill:#FFB699;}
	.st1{fill:#54A465;}
	.st2{fill:#FFF8C5;}
	.st3{fill:none;stroke:#2E753B;stroke-miterlimit:10;}
	.st4{fill:#76C484;}
	.st5{fill:#F99A79;}
	.st6{fill:#449353;}
	.st7{fill:none;stroke:#FFF8C5;stroke-width:2;stroke-miterlimit:10;}
	.st8{fill:#FFF8C5;stroke:#002A2B;stroke-miterlimit:10;}
	.st9{fill:none;stroke:#22722F;stroke-miterlimit:10;}
	.st10{fill:#CCF6E6;}
	.st11{fill:none;stroke:#002A2B;stroke-width:4;stroke-miterlimit:10;}
	.st12{fill:#995B34;}
	.st13{fill:#633318;}
	.st14{fill:#AA6944;}
	.st15{fill:#D86C45;}
	.st16{fill:#FFCAB8;}
	.st17{fill:#FFFFFF;}
	.st18{fill:url(#SVGID_1_);}
	.st19{fill:#16100B;}
	.st20{fill:url(#SVGID_00000113348542505412775960000000324348937822374536_);}
	.st21{fill:#FCD2CA;}
	.st22{fill:url(#SVGID_00000009585706379999547900000010509537409620526739_);}
	.st23{fill:url(#SVGID_00000056426017916170446760000007740066270775824319_);}
	.st24{fill:#841A06;}
	.st25{fill:#D64B2B;}
	.st26{fill:#FFAF9C;}
	.st27{fill:#894A27;}
	.st28{opacity:0.72;fill:#F99A79;}
	.st29{opacity:0.72;fill:#E27F64;}
	.st30{opacity:0.33;fill:#F98869;}
	.st31{fill:#D88C66;}
	.st32{fill:none;stroke:#995B34;stroke-miterlimit:10;}
	.st33{fill:none;stroke:#C9563F;stroke-width:0.5;stroke-miterlimit:10;}
	.st34{fill:#F0FFF9;}
	.st35{fill:#545454;}
	.st36{fill:#3F3F3F;}
	.st37{fill:#28564D;}
	.st38{opacity:0.41;fill:#28564D;}
	.st39{fill:#002A2B;}
	.st40{fill:none;stroke:#CCF6E6;stroke-miterlimit:10;}
	.st41{opacity:0.41;}
	.st42{fill:#336B61;stroke:#002A2B;stroke-miterlimit:10;}
	.st43{fill:none;stroke:#002A2B;stroke-width:2;stroke-miterlimit:10;}
	.st44{opacity:0.31;}
	.st45{fill:none;stroke:#006A58;stroke-width:0.25;stroke-miterlimit:10;}
	.st46{fill:#EAE0A4;}
	.st47{fill:#97D1B8;}
	.st48{opacity:0.44;fill:#C3EDDC;}
	.st49{fill:#EAE1AC;}
	.st50{opacity:0.31;fill:#002A2B;}
	.st51{opacity:0.44;}
	.st52{fill:#C3EDDC;}
	.st53{opacity:0.45;}
	.st54{display:none;opacity:0.45;}
	.st55{display:inline;fill:#F0FFF9;}
	.st56{fill:none;stroke:#64D250;stroke-width:16;stroke-miterlimit:10;}
	.st57{fill:none;stroke:#64D250;stroke-width:12;stroke-miterlimit:10;}
	.st58{fill:#A5EA96;}
</style>
<g id="Füsse_Kopie_Kopie_2">
	<g>
		<g>
			<polygon class="st0" points="1753.42,1858.83 1762.7,1952.71 1820.55,1958.71 1826.56,1835.36 			"/>
			<path class="st1" d="M1751.92,1907.41c0,0,0.61,32.75-11.89,51.56c-4.82,7.25-12.94,13.61-20.43,18.47
				c-1.45,0.94-2.92,1.8-4.39,2.56c-19.1,9.82-66.04,35.48-78.05,49.67c-12.01,14.19-13.1,26.2-13.1,26.2l-6.55,2.18l9.96,9.01
				c0,0,10.64,13.24,49.94,2.87c39.3-10.37,150.23-73.82,150.23-73.82l0.2-92.38l-4.91-0.2c0,0-9.48,8.26-34.59,7.16
				c-25.11-1.09-31.31-8.39-31.31-8.39L1751.92,1907.41z"/>
			<path class="st2" d="M1624.07,2055.86l-6.55,2.18l7.1,11.46c0,0,15.96,11.19,55.26,0.82c39.3-10.37,146.96-62.22,146.96-62.22
				l1.64-13.1l-25.38,13.92c0,0-45.03,19.65-70.82,29.06C1646.63,2069.25,1624.07,2055.86,1624.07,2055.86z"/>
			<path class="st3" d="M1827.92,1980.54"/>
			<g>
				<path class="st4" d="M1630.17,2050.91c1.06-11.13,8.08-21.51,18.02-26.62c1.13-0.58,2.88-0.89,3.35,0.29
					c0.3,0.77-0.24,1.58-0.76,2.23c-6.07,7.61-12.14,15.22-18.21,22.83c-0.49,0.62-1.31,1.3-1.96,0.86"/>
			</g>
			<path class="st5" d="M1753.97,1867.56l0.82,10.37c0,0,29.06,9.96,48.71,7.78c14.27-1.59,20.47-6.96,20.47-6.96l2.05-22.65
				l-72.04,6.55V1867.56"/>
		</g>
		<path class="st6" d="M1826.42,1919.28c0,0-1.64,53.21-17.19,63.86c-15.56,10.64-128.53,70-128.53,70s65.9-15.56,102.75-35.2
			c31.46-16.78,44.21-21.83,44.21-21.83L1826.42,1919.28z"/>
		<path class="st7" d="M1714.67,1977.81c28.24-11.87,46.05,16.17,46.05,16.17"/>
		<path class="st7" d="M1691.74,1990.5c28.24-11.87,46.05,16.17,46.05,16.17"/>
		<path class="st7" d="M1665.55,2006.06c28.24-11.87,46.05,16.17,46.05,16.17"/>
		<ellipse class="st8" cx="1807.88" cy="1941.41" rx="12.09" ry="17.35"/>
		<path class="st9" d="M1758.06,1905.22c0,0-0.27-1.09-3,8.19c-2.73,9.28-2.23,31.87,2.73,39.02c4.91,7.1,13.78,4.91,13.78,4.91"/>
		<path class="st10" d="M1757.34,1902.7c0,0,14.74,13.61,41.45,9.93c13.97-1.93,24.15-9.11,24.15-9.11l1.23-20.47
			c0,0-8.54,6.72-32.54,6.62c-23.74-0.1-35.82-5.59-35.82-5.59L1757.34,1902.7z"/>
		<ellipse class="st1" cx="1777.09" cy="1919.69" rx="21.49" ry="28.65"/>
		<path class="st6" d="M1796.13,1909.04c0,0-17.6,11.87-19.24,28.65c-1.64,16.78-5.32,19.65-5.32,19.65s9.01,1.64,18.42-19.65
			C1799.4,1916.41,1796.13,1909.04,1796.13,1909.04z"/>
		<path class="st11" d="M1752.6,1883.12c0,0,11.19,4.64,32.75,5.46c21.56,0.82,33.29-4.09,41.21-8.73"/>
	</g>
	<g>
		<g>
			<polygon class="st0" points="2055.41,1859.45 2058.27,1953.74 2001.67,1967.13 1979.86,1845.57 			"/>
			<path class="st1" d="M2063.14,1907.43c0,0,3.6,32.55,18.42,49.6c5.71,6.57,14.59,11.83,22.63,15.69
				c1.56,0.75,3.13,1.41,4.68,1.97c20.21,7.29,70.05,26.69,83.79,39.22c13.73,12.53,16.36,24.3,16.36,24.3l6.78,1.32l-8.72,10.21
				c0,0-8.85,14.49-49.16,9.26c-40.3-5.23-158.47-53.9-158.47-53.9l-12.08-91.58l4.85-0.83c0,0,10.47,6.97,35.22,2.66
				c24.76-4.31,29.98-12.35,29.98-12.35L2063.14,1907.43z"/>
			<path class="st2" d="M2209.02,2038.22l6.78,1.32l-5.56,12.28c0,0-14.39,13.15-54.7,7.92c-40.3-5.23-153.73-42.81-153.73-42.81
				l-3.31-12.78l26.96,10.54c0,0,47.18,13.7,73.97,19.72C2188.36,2054.4,2209.02,2038.22,2209.02,2038.22z"/>
			<path class="st3" d="M1997.17,1989.73"/>
			<g>
				<path class="st4" d="M2202.33,2034.09c-2.48-10.9-10.78-20.29-21.29-24.09c-1.19-0.43-2.97-0.51-3.28,0.72
					c-0.2,0.8,0.44,1.54,1.04,2.11c7,6.77,14,13.53,21,20.3c0.57,0.55,1.46,1.12,2.06,0.6"/>
			</g>
			<path class="st5" d="M2055.99,1868.18l0.52,10.39c0,0-27.54,13.61-47.31,13.97c-14.36,0.26-21.19-4.27-21.19-4.27l-4.94-22.2
				l72.29-2.77L2055.99,1868.18"/>
		</g>
		<path class="st6" d="M1990.78,1928.78c0,0,8.46,52.56,25.26,61.12c16.79,8.56,136.47,52.9,136.47,52.9s-67.36-6.95-106.42-21.7
			c-33.35-12.59-46.65-15.97-46.65-15.97L1990.78,1928.78z"/>
		<path class="st7" d="M2109.13,1972.46c-29.54-8.14-43.59,21.95-43.59,21.95"/>
		<path class="st7" d="M2133.5,1982.1c-29.54-8.14-43.59,21.95-43.59,21.95"/>
		<path class="st7" d="M2161.48,1994.16c-29.54-8.14-43.59,21.95-43.59,21.95"/>
		
			<ellipse transform="matrix(0.9917 -0.1285 0.1285 0.9917 -233.7508 274.7896)" class="st8" cx="2012.01" cy="1948.34" rx="12.09" ry="17.35"/>
		<path class="st9" d="M2056.77,1906.05c0,0,0.13-1.12,4.03,7.73c3.9,8.85,6.3,31.31,2.31,39.05c-3.96,7.67-13.04,6.64-13.04,6.64"
			/>
		<path class="st10" d="M2057.16,1903.46c0,0-12.86,15.39-39.83,15.17c-14.1-0.12-25.12-5.93-25.12-5.93l-3.85-20.14
			c0,0,9.33,5.57,33.12,2.38c23.53-3.15,34.8-10.15,34.8-10.15L2057.16,1903.46z"/>
		
			<ellipse transform="matrix(0.9917 -0.1285 0.1285 0.9917 -230.243 278.1443)" class="st1" cx="2039.75" cy="1922.84" rx="21.49" ry="28.65"/>
		<path class="st6" d="M2019.51,1914.73c0,0,18.98,9.51,22.76,25.94s7.8,18.8,7.8,18.8s-8.72,2.78-20.79-17.12
			S2019.51,1914.73,2019.51,1914.73z"/>
		<path class="st11" d="M2059.34,1883.43c0,0-10.5,6.04-31.77,9.62c-21.27,3.58-33.54,0.22-41.99-3.36"/>
	</g>
</g>
<g id="Haarehinten_10_">
	<path class="st12" d="M1966.72,479.75l6.68,23.12c9.64-2.87,18.51-61.76,13.8-87.16c-21.48-115.94-25.72-135.8-42.13-172.9
		c-18.09-40.91-36.71-59.61-72.08-69.63c-47.95-13.58-72.4-9.25-158.2,19c-73.92,24.34-93.89,90.14-98.98,129.97
		c-2.55,19.91,8.18,52.45,29.11,124.92c20.92,72.47,33.84,83.91,33.84,83.91s28.28,39.49,55.18,31.62l3.29-0.98l6.89-4.07
		c7.5-0.47-14.09-18.14-5.09-18.21c99.19-0.81,121.12-65.05,167.71-88.83l25.75-3.7l31.01,60.34c5.99-3.31-0.24,0.27,4.65-2.78
		L1966.72,479.75z"/>
	<path class="st13" d="M1935.22,399.12c0,0,0.81-14.75,10.44,2.88c13.58,24.87,13.32,106.53,13.32,106.53s-7.77,3.37-9.55,2.94
		s-0.67-34.25-0.67-34.25l-24.26-49.3L1935.22,399.12z"/>
	<path class="st13" d="M1876.31,420.55c-58.82-83.93-0.26-31.07-68.6-13.3c-83.97,21.83-105.11-55.85-126.55-10.3
		c-21.44,45.55,54.53,167.12,54.53,167.12c20.26-3.42,49.07-3.28,57.87-5.16c88.22-18.82,60.43-12.2,109.4-25.74
		C1903.24,533.09,1892.5,443.65,1876.31,420.55z"/>
	<polygon class="st13" points="1898.97,488.42 1905.76,530.96 1959.25,508.12 1926.49,391.61 	"/>
	<g>
		<g>
			<g>
				<path class="st14" d="M1712.73,474.73c4.52,22.22,9.45,44.35,14.5,66.45c1.55,6.78,3.11,13.56,4.67,20.33
					c0.11,0.47,0.83,0.27,0.72-0.2c-5.24-22.69-10.45-45.39-15.3-68.17c-1.32-6.2-2.61-12.4-3.88-18.61
					C1713.36,474.06,1712.63,474.26,1712.73,474.73L1712.73,474.73z"/>
			</g>
		</g>
		<g>
			<g>
				<path class="st14" d="M1733.26,497.13c2.56,15.64,6.88,30.91,10.81,46.24c1.28,4.99,2.52,9.99,3.7,15
					c0.11,0.47,0.83,0.27,0.72-0.2c-3.81-16.19-8.51-32.17-12.06-48.42c-0.93-4.25-1.76-8.53-2.46-12.82
					C1733.9,496.45,1733.18,496.66,1733.26,497.13L1733.26,497.13z"/>
			</g>
		</g>
		<g>
			<g>
				<path class="st14" d="M1920.56,449.76c-0.33,0.08-0.12-0.03-0.02,0.31c0.07,0.24,0.21,0.48,0.3,0.72c0.26,0.69,0.48,1.4,0.7,2.1
					c0.45,1.46,0.86,2.92,1.26,4.4c1.02,3.75,1.99,7.49,2.74,11.31c2.08,10.67,3.14,21.5,4.81,32.23
					c0.91,5.81,1.99,11.61,3.61,17.26c0.13,0.46,0.86,0.27,0.72-0.2c-3.1-10.82-4.33-22.09-5.85-33.21
					c-1.31-9.57-2.93-18.99-5.51-28.31c-0.49-1.78-0.99-3.57-1.6-5.32c-0.17-0.48-0.56-2.22-1.36-2.02
					C1919.89,449.15,1920.09,449.88,1920.56,449.76L1920.56,449.76z"/>
			</g>
		</g>
		<g>
			<g>
				<path class="st14" d="M1924.39,448.37c5.29,17.58,6.71,36.02,11,53.84c1.17,4.87,2.57,9.68,4.33,14.37
					c0.17,0.45,0.89,0.25,0.72-0.2c-6.47-17.18-8.1-35.7-11.73-53.58c-1-4.92-2.15-9.81-3.59-14.62
					C1924.98,447.71,1924.25,447.91,1924.39,448.37L1924.39,448.37z"/>
			</g>
		</g>
	</g>
</g>
<polygon class="st15" points="1610.15,805.99 1686.7,854.71 1689.97,847.75 "/>
<g id="Arm_x5F_R_6_">
	<path class="st0" d="M1619.56,767.24c0,0-27.29,113.39-36.57,148.87c-4.7,17.98-59.49,184.75-62.22,187.48
		c-2.73,2.73,34.39,10.23,46.39,1.5c12.01-8.73,64.64-128.52,82.96-160.46c21.29-37.11,56.9-155.01,56.9-155.01"/>
	<path class="st5" d="M1610.9,812.92c0,0,28.72,47.11,68.29,55.02l2.46,0.82l7.1-21.01l-70.13-43.39L1610.9,812.92z"/>
	<polygon class="st16" points="1615.33,792.89 1628.43,800.26 1544.11,1047.51 	"/>
	<path class="st5" d="M1662.68,830.83c0,0-106.29,298.28-104.11,296.64c1.34-1.01,56.13-105.39,94.29-188.16
		c23.89-51.83,39.49-96.56,36.84-97.83C1680.28,836.97,1662.68,830.83,1662.68,830.83z"/>
</g>
<g id="Hals_13_">
	<path id="Hals_14_" class="st0" d="M1791.22,505.6l-1.23,66.11c0,0-44.76,9.96-61.67,18.69c-27.5,14.19,185.3,111.07,227.05,62.77
		c25-28.92,2.83-53.93-26.61-65.5c-11.46-4.5-45.64-13.71-45.64-13.71l-3.27-89.03L1791.22,505.6z"/>
	<path class="st15" d="M1790.81,509.9v19.65c0,0,43.19,36.43,91.28,15.35l-0.41-44L1790.81,509.9z"/>
	<path class="st16" d="M1793.26,534.46l-1.36,40.66c0,0,10.37-0.55,8.73-15.56C1798.99,544.56,1793.26,534.46,1793.26,534.46z"/>
	<path class="st5" d="M1882.23,563.39c0,0-18.28,33.29-54.31,45.3c-3.66,1.22-37.66,0-37.66,0l23.2,2.73c0,0,20.74,7.1,21.56,7.1
		s12.83,0.27,12.83,0.27l36.02-48.3L1882.23,563.39"/>
</g>
<g id="KOPFPBEN_Kopie_3_Kopie_Kopie_Kopie_Kopie_2">
	<g id="Kopf_13_">
		<path id="Kopf_14_" class="st0" d="M1644.49,298.81c0,0,43.65,126.73,60.21,162.39c19.21,41.36,82.35,86.46,142.04,73.25
			c47.46-10.51,88.19-94.06,89.79-126.32c1.41-28.47-15.72-80.65-29.1-120.42c-8.5-25.28-48.86-50.62-85.28-71.81
			c-20.83-12.12-47.35-7.46-62.76,11.06L1644.49,298.81z"/>
		<path class="st15" d="M1788.05,221.34c0,0-53.16,113.09-100.19,136.27c-47.03,23.17-15.62,12.43-15.62,12.43l-8.17-43.91
			L1788.05,221.34z"/>
		<path class="st5" d="M1929.48,361.51c0,0-4.91,50.46-5.06,50.88c-3.33,9.15-33.9,109.83-72.47,120.14c0,0,35.35-6.13,64.97-67.08
			c14.19-29.2,19.53-55.55,19.53-55.55"/>
	</g>
	<g id="Augen_Kopie_3_Kopie_Kopie_Kopie_Kopie_2">
		<g>
			<g>
				<path class="st17" d="M1842.81,355.47c0,0,6.59-26.97,21.93-29.67c15.34-2.7,23.41,4.09,33.25,16.38c0,0-2.96,14.31-19.59,18.71
					C1856.24,366.74,1842.81,355.47,1842.81,355.47z"/>
				
					<linearGradient id="SVGID_1_" gradientUnits="userSpaceOnUse" x1="1935.5764" y1="654.2073" x2="1935.3259" y2="629.2756" gradientTransform="matrix(0.9744 -0.2248 0.2248 0.9744 -149.0971 158.1139)">
					<stop  offset="0" style="stop-color:#008CB2"/>
					<stop  offset="0.2227" style="stop-color:#0188AD"/>
					<stop  offset="0.5014" style="stop-color:#047B9D"/>
					<stop  offset="0.8087" style="stop-color:#086684"/>
					<stop  offset="1" style="stop-color:#0B5570"/>
				</linearGradient>
				<path class="st18" d="M1896.81,338.16c1.88,1.49,2.03-0.72,1.75,1.52c-0.98,7.78-7.46,17.24-15.42,19.08
					c-10.25,2.37-20.52-4.19-22.93-14.63c-0.99-4.31-0.48-8.05,1.19-11.13c2.38-4.38,3.89-6.67,9.91-8.05
					C1881.57,322.58,1888.85,331.86,1896.81,338.16z"/>
				
					<ellipse transform="matrix(0.9744 -0.2248 0.2248 0.9744 -28.1811 431.0091)" class="st19" cx="1878.27" cy="339.23" rx="7.78" ry="7.98"/>
				<g>
					<path d="M1840.84,353.72c1.35-6.15,3.6-12.06,6.64-17.44c3.54-6.27,8.48-12.07,15.09-14.26c5.53-1.83,11.65-0.94,17.21,1.12
						c5.56,2.05,16.11,11.46,18.21,11.7c0,0,3.98-0.67,5.26-2.41c-1.35,3.14-2.92,7.37-5.33,9.67c-5.55-4.72-5-5.27-12.97-10.38
						c-5.87-3.77-13.24-6.79-19.95-4.81c-7.28,2.15-12.51,8.82-15.53,16.14c-2.7,6.53-4.98,13.33-5.04,13.94"/>
				</g>
				<path class="st17" d="M1874.01,343.37l-10.21,9.52c-0.9,0.84-2.31,0.79-3.15-0.11l-0.31-0.33c-0.84-0.9-0.79-2.31,0.11-3.15
					l10.21-9.52c0.9-0.84,2.31-0.79,3.15,0.11l0.31,0.33C1874.96,341.11,1874.91,342.53,1874.01,343.37z"/>
			</g>
			<g>
				<path class="st17" d="M1768.84,371.55c0,0-18.78-20.85-33.75-16.56c-14.97,4.3-18.22,13.43-21.68,28.79
					c0,0,10.58,10.71,27.45,7.38C1763.35,386.72,1768.84,371.55,1768.84,371.55z"/>
				
					<linearGradient id="SVGID_00000166633363463840789850000005997370074355745471_" gradientUnits="userSpaceOnUse" x1="1391.5255" y1="652.5999" x2="1391.2861" y2="628.7835" gradientTransform="matrix(-0.9744 0.2248 0.2248 0.9744 2962.2136 -559.8388)">
					<stop  offset="0" style="stop-color:#008CB2"/>
					<stop  offset="0.2227" style="stop-color:#0188AD"/>
					<stop  offset="0.5014" style="stop-color:#047B9D"/>
					<stop  offset="0.8087" style="stop-color:#086684"/>
					<stop  offset="1" style="stop-color:#0B5570"/>
				</linearGradient>
				<path style="fill:url(#SVGID_00000166633363463840789850000005997370074355745471_);" d="M1730.66,373.19
					c2.41,10.45,11.22,16.59,21.47,14.22c6.64-1.53,13.31-8.46,15.65-13.36c1.5-3.16-0.72-3.03-2.62-6.29
					c-4.71-8.09-14.1-13.2-22.08-12.91c-5.85,0.22-7.5,2.31-10.32,6.4C1730.51,364.52,1729.59,368.55,1730.66,373.19z"/>
				
					<ellipse transform="matrix(0.9744 -0.2248 0.2248 0.9744 -37.9779 402.7763)" class="st19" cx="1749.41" cy="368.13" rx="7.78" ry="7.98"/>
				<g>
					<path d="M1769.87,369.21c-3.88-4.81-8.46-9.01-13.53-12.42c-5.9-3.96-12.86-6.91-19.75-5.96c-5.77,0.79-10.89,4.22-15,8.43
						c-4.12,4.21-9.54,17.02-11.33,18.14c0,0-3.87,1.14-5.77,0.16c2.57,2.17,5.82,5.2,8.99,6.17c2.95-6.54,2.21-6.79,7.18-14.72
						c3.66-5.84,8.97-11.69,15.87-12.86c7.49-1.27,15.08,2.31,20.97,7.42c4.68,4.05,9.15,8.44,10.31,9.71
						c0.14,0.16,0.23,0.27,0.27,0.32"/>
				</g>
				<path class="st17" d="M1746.01,373.54l-10.21,9.52c-0.9,0.84-2.31,0.79-3.15-0.11l-0.31-0.33c-0.84-0.9-0.79-2.31,0.11-3.15
					l10.21-9.52c0.9-0.84,2.31-0.79,3.15,0.11l0.31,0.33C1746.96,371.28,1746.91,372.7,1746.01,373.54z"/>
			</g>
		</g>
		<path class="st21" d="M1846.28,360.82c0.78,0.94,15.81,11.48,26.14,7.69c10.33-3.78,6.19,2.36,0.47,3.25
			C1853.97,374.73,1846.28,360.82,1846.28,360.82z"/>
		<path class="st21" d="M1773.42,376.94c-0.29,1.19-9.18,17.24-20.13,18.37c-10.94,1.12-4.53,4.83,1,3.13
			C1772.6,392.81,1773.42,376.94,1773.42,376.94z"/>
		
			<linearGradient id="SVGID_00000025422013530204765410000006035902088077293213_" gradientUnits="userSpaceOnUse" x1="2303.2561" y1="607.4745" x2="2368.7454" y2="607.4745" gradientTransform="matrix(-0.9744 0.2248 0.2248 0.9744 3860.7861 -767.1896)">
			<stop  offset="0" style="stop-color:#FFB699;stop-opacity:0"/>
			<stop  offset="0.0426" style="stop-color:#FDAF91;stop-opacity:0.0818"/>
			<stop  offset="0.1473" style="stop-color:#FBA383;stop-opacity:0.2831"/>
			<stop  offset="0.2788" style="stop-color:#F99C7B;stop-opacity:0.5359"/>
			<stop  offset="0.5203" style="stop-color:#F99A79"/>
			<stop  offset="0.7469" style="stop-color:#F99C7B;stop-opacity:0.5276"/>
			<stop  offset="0.866" style="stop-color:#FBA383;stop-opacity:0.2793"/>
			<stop  offset="0.9599" style="stop-color:#FDAF91;stop-opacity:0.0836"/>
			<stop  offset="1" style="stop-color:#FFB699;stop-opacity:0"/>
		</linearGradient>
		<path style="fill:url(#SVGID_00000025422013530204765410000006035902088077293213_);" d="M1751.73,338.76
			c2.32,6.4,4,9.16-7.32,9.25c-11.32,0.09-17.8-1.57-23.61,4.19c-5.81,5.75-12.07,16.86-17.8,17.55
			c-5.72,0.69-15.57-3.76-11.29-9.79c4.28-6.03,12.73-18.5,24.61-23.53C1741.39,325.81,1751.73,338.76,1751.73,338.76z"/>
		
			<linearGradient id="SVGID_00000173861313344209256700000004975087937946916264_" gradientUnits="userSpaceOnUse" x1="1696.0459" y1="604.3369" x2="1761.5352" y2="604.3369" gradientTransform="matrix(0.9744 -0.2248 0.2248 0.9744 48.9326 112.4175)">
			<stop  offset="0" style="stop-color:#FFB699;stop-opacity:0"/>
			<stop  offset="0.0426" style="stop-color:#FDAF91;stop-opacity:0.0818"/>
			<stop  offset="0.1473" style="stop-color:#FBA383;stop-opacity:0.2831"/>
			<stop  offset="0.2788" style="stop-color:#F99C7B;stop-opacity:0.5359"/>
			<stop  offset="0.5203" style="stop-color:#F99A79"/>
			<stop  offset="0.7469" style="stop-color:#F99C7B;stop-opacity:0.5276"/>
			<stop  offset="0.866" style="stop-color:#FBA383;stop-opacity:0.2793"/>
			<stop  offset="0.9599" style="stop-color:#FDAF91;stop-opacity:0.0836"/>
			<stop  offset="1" style="stop-color:#FFB699;stop-opacity:0"/>
		</linearGradient>
		<path style="fill:url(#SVGID_00000173861313344209256700000004975087937946916264_);" d="M1836.97,315.87
			c0.72,6.77,0.41,9.99,10.63,5.11c10.22-4.88,15.31-9.2,23.06-6.58s18.24,9.86,23.69,7.98c5.45-1.89,12.35-10.2,5.86-13.75
			s-19.55-11.05-32.43-10.37C1840.6,299.7,1836.97,315.87,1836.97,315.87z"/>
	</g>
	<g id="Mund_7_">
		<g>
			<path class="st24" d="M1784.03,458.51l-1.76,4.19c0,0,21.72,18.1,28.23,18.07c6.5-0.03,36.26-0.79,43.51-12.13
				c7.26-11.34,16.65-28.86,16.65-28.86s-34.32,6.03-35.27,6.46C1834.44,446.67,1784.03,458.51,1784.03,458.51z"/>
			<path class="st17" d="M1782.91,460.03c0,0,5.28,7.39,14.48,9.05c9.2,1.66,34.49-4.39,40.78-6.26
				c6.29-1.87,24.15-10.32,28.6-20.17S1782.91,460.03,1782.91,460.03z"/>
			<path class="st25" d="M1773.59,462.39c0,0,6.79-7.84,34.89-16.77c7.24-2.3,13.8-0.6,14.84-1.22c2.86-1.71,10.83-5.08,12.49-5.38
				c32.2-5.72,34.86,0.75,34.86,0.75s-27.36,13.4-44.92,16.98C1802.27,461.55,1773.59,462.39,1773.59,462.39z"/>
			<path class="st25" d="M1773.23,462.68c3.6-0.78,0.76-4.99,14.31,0.33c13.36,5.25,16.49,5.48,30.4,4.79
				c16.48-0.82,28.09-6.64,32.34-10.98c4.25-4.34,18.63-21.89,15.57-16.98c-1.07,1.72,7.1-2.9,4.05,3.9
				c-3.05,6.8-7.59,15.81-12.54,22.63c-4.94,6.81-11.21,14.07-34.24,16.23c-23.03,2.16-32.43-10.71-39.53-16
				C1776.89,461.6,1773.23,462.68,1773.23,462.68z"/>
		</g>
		<path class="st26" d="M1796.2,455.7c0,0,5.43-1.45,10.4-2.26c6.14-1,10.63-0.35,5.69,1S1796.2,455.7,1796.2,455.7z"/>
		<path class="st26" d="M1815.29,480.05c0,0,2.52-0.69,5.88-1.36c5.93-1.18,6.17-0.95,6.06-0.82
			C1824.37,481.39,1815.24,480.09,1815.29,480.05z"/>
		<g>
			<path class="st25" d="M1872.08,443c-1.85-1.28-3.29-3.15-4.07-5.26c-0.31-0.84-0.52-1.76-0.29-2.62c0.08-0.28,0.3-0.6,0.58-0.52
				c0.16,0.05,0.25,0.22,0.32,0.37c1.26,2.77,2.07,5.9,4.3,7.97C1872.87,443.09,1872.16,443.07,1872.08,443"/>
		</g>
		<g>
			<path class="st25" d="M1772.86,467.15c1.1-1.96,1.58-4.27,1.36-6.51c-0.09-0.89-0.31-1.81-0.89-2.48
				c-0.19-0.22-0.53-0.41-0.75-0.21c-0.13,0.12-0.13,0.31-0.13,0.48c0.08,3.04,0.72,6.21-0.37,9.05
				C1772.2,467.58,1772.82,467.25,1772.86,467.15"/>
		</g>
	</g>
	<g id="Brauen_Kopie_3_Kopie_Kopie_Kopie_Kopie_2">
		<path class="st27" d="M1819.84,310.53c0.68-0.68,10.31-17.8,22.19-23.08c12.76-5.68,16.46-4.63,28.52-3.85
			c12.79,0.83,26.23,8.97,26.23,8.97s3.21,2.09-11.64-0.36c-6.28-1.04-30.37-3.28-43.84,5.71c-5.88,3.93-15.99,12.57-17.44,14.11
			C1821.58,314.44,1819.84,310.53,1819.84,310.53z"/>
		<path class="st27" d="M1763.34,333.5c-0.9-0.35-16.54-12.22-29.55-12.33c-13.97-0.12-16.94,2.31-27.69,7.83
			c-11.41,5.86-20.48,18.67-20.48,18.67s-2.11,3.2,10.53-4.96c5.34-3.45,26.55-15.11,42.49-12.23c6.96,1.26,19.67,5.17,21.61,6
			C1763.29,337.78,1763.34,333.5,1763.34,333.5z"/>
	</g>
	<g id="sprossen_14_">
		
			<ellipse transform="matrix(0.9744 -0.2248 0.2248 0.9744 -89.3688 426.3314)" class="st28" cx="1827.14" cy="605.54" rx="2.25" ry="1.84"/>
		
			<ellipse transform="matrix(0.9744 -0.2248 0.2248 0.9744 -91.1847 422.1263)" class="st28" cx="1807.76" cy="611.41" rx="2.25" ry="1.84"/>
		
			<ellipse transform="matrix(0.9744 -0.2248 0.2248 0.9744 -88.3006 421.7606)" class="st28" cx="1807.6" cy="598.57" rx="2.25" ry="1.84"/>
		
			<ellipse transform="matrix(0.9744 -0.2248 0.2248 0.9744 -90.1763 419.6075)" class="st28" cx="1797.21" cy="605.73" rx="2.25" ry="1.84"/>
		
			<ellipse transform="matrix(0.9744 -0.2248 0.2248 0.9744 -43.9481 408.9941)" class="st29" cx="1773.73" cy="397.45" rx="2.25" ry="1.74"/>
		
			<ellipse transform="matrix(0.9744 -0.2248 0.2248 0.9744 -47.5775 408.1332)" class="st29" cx="1768.13" cy="412.96" rx="2.25" ry="1.74"/>
		
			<ellipse transform="matrix(0.9744 -0.2248 0.2248 0.9744 -46.0859 405.337)" class="st29" cx="1756.6" cy="405.01" rx="2.56" ry="2.35"/>
	</g>
	<g id="sprossen_13_">
		
			<ellipse transform="matrix(0.9744 -0.2248 0.2248 0.9744 -85.2111 438.6335)" class="st28" cx="1883.23" cy="593.44" rx="2.25" ry="1.84"/>
		
			<ellipse transform="matrix(0.9744 -0.2248 0.2248 0.9744 -83.9774 443.0446)" class="st28" cx="1903.21" cy="590.23" rx="2.25" ry="1.84"/>
		
			<ellipse transform="matrix(0.9744 -0.2248 0.2248 0.9744 -81.5054 441.5146)" class="st28" cx="1897.73" cy="578.61" rx="2.25" ry="1.84"/>
		
			<ellipse transform="matrix(0.9744 -0.2248 0.2248 0.9744 -38.9971 423.5376)" class="st29" cx="1840.06" cy="382.99" rx="2.25" ry="1.74"/>
		
			<ellipse transform="matrix(0.9744 -0.2248 0.2248 0.9744 -41.2768 426.49)" class="st29" cx="1851.88" cy="394.47" rx="2.25" ry="1.74"/>
		
			<ellipse transform="matrix(0.9744 -0.2248 0.2248 0.9744 -38.3584 427.7253)" class="st29" cx="1858.76" cy="382.28" rx="2.56" ry="2.35"/>
	</g>
	<g id="Rouge_7_">
		<path class="st30" d="M1772.49,423.68c2.7,11.68-12.47,25.32-28.16,28.94s-35.29-12.91-37.99-24.59
			c-2.7-11.68,6.17-13.65,21.86-17.27C1743.9,407.14,1769.8,412,1772.49,423.68z"/>
		<path class="st30" d="M1863.84,404c2.7,11.68,22.31,17.3,38,13.67c15.69-3.62,26.06-27.07,23.37-38.75
			c-2.7-11.68-11.53-9.57-27.22-5.94C1882.29,376.6,1861.14,392.32,1863.84,404z"/>
	</g>
	<g id="Ohren_7_">
		<g>
			<g>
				<path class="st0" d="M1927.7,366.52c4.47,19.39,7.91,42.44,8.65,42.98c16.62,12.06,38.25-32.66,33.78-52.05
					c-4.47-19.39-15.9-27.28-29.12-24.23C1927.8,336.27,1923.23,347.13,1927.7,366.52z"/>
			</g>
		</g>
		<g>
			<g>
				<path class="st0" d="M1699.28,417.99c4.47,19.39,17.79,40.43,4.57,43.48c-27.12,6.26-47.57-16.22-52.05-35.6
					c-4.47-19.39,2.72-28.63,15.93-31.68C1680.95,391.13,1694.8,398.61,1699.28,417.99z"/>
			</g>
			<path class="st15" d="M1689.4,409.16c0,0-15.83-17.63-25.73-4.7s-1.6,22.21-1.6,22.21s8.9-19.86,9.12-6.59
				c0.29,17.02,24.77,28.45,24.77,28.45s-19.86-25.38-11.07-28.53C1693.69,416.85,1689.4,409.16,1689.4,409.16z"/>
			<path class="st15" d="M1929.33,359.26c0,0,6.5-22.79,21.07-15.5s11.17,19.27,11.17,19.27s-16.7-13.96-11.09-1.92
				c7.2,15.42-9.8,36.43-9.8,36.43s6.73-31.52-2.56-30.5C1928.84,368.05,1929.33,359.26,1929.33,359.26z"/>
		</g>
	</g>
	<path id="nase_7_" class="st15" d="M1795.23,418.66c-0.62-0.41-0.4-1.37,0.35-1.44c4.22-0.4,14.06-1.43,19.93-2.78
		c8.04-1.86,16.58-4.61,20.26-5.84c0.7-0.23,1.31,0.53,0.92,1.16c-1.92,3.08-7.09,9.3-18.67,12.13
		C1806.42,424.72,1798.5,420.81,1795.23,418.66z"/>
	<g>
		<circle class="st5" cx="1540.35" cy="1133.71" r="2.18"/>
		
			<ellipse transform="matrix(0.9989 -0.0459 0.0459 0.9989 -50.6175 71.4401)" class="st5" cx="1531.85" cy="1139.01" rx="1.64" ry="2.18"/>
		
			<ellipse transform="matrix(0.9989 -0.0459 0.0459 0.9989 -50.369 70.8584)" class="st5" cx="1519.29" cy="1133.31" rx="1.91" ry="1.36"/>
		<circle class="st5" cx="1566.1" cy="1087.72" r="2.18"/>
		
			<ellipse transform="matrix(0.9989 -0.0459 0.0459 0.9989 -48.6522 73.1051)" class="st5" cx="1569.12" cy="1097.01" rx="1.77" ry="2.05"/>
		
			<ellipse transform="matrix(0.9989 -0.0459 0.0459 0.9989 -47.9169 73.1234)" class="st5" cx="1569.89" cy="1080.99" rx="1.36" ry="1.64"/>
		<circle class="st5" cx="1533.33" cy="1132.53" r="1.77"/>
		
			<ellipse transform="matrix(0.9989 -0.0459 0.0459 0.9989 -50.4618 71.0593)" class="st5" cx="1523.63" cy="1135.43" rx="1.23" ry="1.5"/>
		<circle class="st5" cx="1529.06" cy="1140.65" r="2.32"/>
	</g>
	<g>
		<g id="Haareoben_9_">
			<g>
				<path class="st12" d="M1781.23,191.28c17.41,4.88,35.91,5.56,52.92,11.69c27.06,9.76,71.99,13.14,88.58,36.64
					c17.97,25.46,30.41,41.44,17.95,93.05c-5.54-16.51-17.69-24.58-32.71-33.41c-15.01-8.83-41.94-12.55-56.39-22.28
					c-14.49-9.75-34.53-27.03-43.32-42.1c-6.79-11.65-13.78-19.3-23.5-29.03c-19.62-19.64-60.1,5.15-82.04,11.13
					c-25.21,6.88-26.55-0.39-47.4,15.38s-38.97,88.69-35.18,114.54c0,0,0.14,0.94,0.36,2.59c1.49,11.11,17.1,48.83-3.51,83.28
					c-7.21,12.04,26.28-18.39,24.12-37.49"/>
			</g>
			<g>
				<path class="st12" d="M1668.83,408.69c-2.39-21.46,6.17,11.52,19.99-5.08c17.84-21.44-19.05-56.3,2.73-73.73
					c33.48-26.79,114.92-101.85,111.43-144.59c-5.28,4.92-10.9,9.39-16.77,13.52c-20.39,14.32-43.84,24.44-66.76,34.62
					c-13.1,5.82-26.3,11.81-37.61,20.61c-18.62,14.47-39.62,25.12-42.82,48.49c-3.2,23.36,11.43,59.16,25.47,78.11
					c2.29-7.11,3.31,36.59,5.6,29.47"/>
			</g>
			<g>
				<g>
					<path class="st12" d="M1647.95,443.61c-7.9-12.8-14.82-26.23-20.17-40.3c-4.53-11.92-7.94-24.28-9.86-36.89
						c-1.69-11.12-2.19-22.42-1.39-33.64c0.73-10.19,2.54-20.29,5.37-30.11c2.63-9.12,6.13-17.97,10.37-26.45
						c3.94-7.88,8.51-15.44,13.59-22.64c4.63-6.57,9.7-12.83,15.11-18.77c4.7-5.16,9.66-10.07,14.85-14.73
						c4.13-3.7,8.4-7.24,12.84-10.55c2.97-2.22,6-4.36,9.17-6.29c0.49-0.3,0.99-0.59,1.49-0.88c0.84-0.47,0.09-1.77-0.76-1.3
						c-2.82,1.59-5.51,3.43-8.14,5.31c-4.25,3.04-8.34,6.29-12.31,9.69c-5.12,4.38-10.01,9.02-14.67,13.88
						c-5.47,5.71-10.61,11.74-15.37,18.05c-5.25,6.97-10.03,14.29-14.22,21.95c-4.5,8.23-8.32,16.83-11.33,25.71
						c-3.24,9.58-5.51,19.47-6.75,29.51c-1.36,10.95-1.45,22.03-0.38,33.01c1.21,12.34,3.87,24.51,7.69,36.29
						c4.47,13.79,10.5,27.06,17.58,39.7c1.92,3.44,3.93,6.83,6,10.18C1647.16,445.19,1648.46,444.44,1647.95,443.61L1647.95,443.61z
						"/>
				</g>
			</g>
			<g>
				<path class="st14" d="M1817.94,201.57c8.41,18.48,30.12,34.41,47.78,44.43c22.64,12.84,36.1,10.18,40.87,9.61
					c-14.74-48.73-73.52-36.67-89.43-54.98"/>
			</g>
			<path class="st14" d="M1621.01,361.61c0,0,31.74,43.73,42.7,101.12c10.96,57.39,77.91,101.38,77.91,101.38
				s-28.88,8.2-56.04-20.96C1661.91,517.76,1621.01,361.61,1621.01,361.61z"/>
			<path class="st27" d="M1623.43,340.55c11.41,49.46,47.67,56.08,47.67,56.08l20.61,16.81c0,0,7.01-23.32,2.92-34.98
				c-4.09-11.66-8.68-19.42-10.09-29.18c-1.41-9.76,4.18-17.07,4.18-17.07s-78.01,19.96-39.54-53.61S1612.02,291.09,1623.43,340.55z
				"/>
			<path class="st27" d="M1901.24,198.45c0,0-15.33,47.65,27.95,84.71s49.12,83.61,49.12,83.61s-18.75-90.9-48.48-140.89
				C1915.19,201.25,1901.24,198.45,1901.24,198.45z"/>
			<path class="st31" d="M1678.21,219.09c0,0-25.48,14.98-32.49,34.78c-7.01,19.81-9.83,37.78-1.15,20.11
				c9.84-20.05,27.72-35.75,27.72-35.75s40.18-41.94,23.61-27.84C1689.58,215.78,1678.21,219.09,1678.21,219.09z"/>
			<g>
				<g>
					<g>
						<path class="st12" d="M1655.72,231.23c-2.45,1.63-4.27,4.15-5.94,6.52c-2.37,3.36-4.46,6.93-6.44,10.53
							c-4.33,7.88-8.22,16.06-11.44,24.46c-1.04,2.71-2.1,5.49-2.64,8.35c-1.36,7.19-2.11,14.57-2.65,21.86
							c-1.1,14.96-0.74,30.05,1.1,44.94c1.72,13.91,5.05,28.2,14.37,39.11c0.39,0.46,1.32,0.6,1.82,0.23
							c1.89-1.38,2.55-3.8,1.35-5.89c-0.96-1.67-3.56-0.16-2.59,1.51c0.32,0.56,0.3,1.36-0.27,1.78c0.61,0.08,1.21,0.16,1.82,0.23
							c-8.07-9.46-11.33-21.89-13.08-33.94c-2.06-14.16-2.56-28.62-1.83-42.9c0.37-7.31,1.09-14.6,2.17-21.83
							c0.53-3.58,1.23-6.88,2.44-10.28c2.81-7.9,6.43-15.56,10.33-22.98c2.17-4.14,4.47-8.22,7.06-12.11
							c0.99-1.49,2.02-2.96,3.18-4.32c0.85-1.01,1.95-2.16,2.77-2.7C1658.83,232.75,1657.33,230.15,1655.72,231.23L1655.72,231.23z"
							/>
					</g>
				</g>
				<path class="st32" d="M1793.23,187.94c0,0,8.25,75.81,48.51,90.05c40.25,14.24,77.41,18.69,77.41,18.69l-105.79-90.7
					L1793.23,187.94z"/>
				<g>
					<g>
						<path class="st12" d="M1658.11,232.38c18.97-16.34,40.62-30.01,64.67-37.45c16.88-5.22,34.75-7.23,52.33-5.21
							c11.82,1.36,23.68,4.47,34.34,9.82c4.14,2.08,8.18,3.88,12.63,5.25c6.52,2,13.19,3.53,19.85,5
							c16.68,3.69,33.49,6.8,50.14,10.64c8.02,1.85,16.03,3.84,23.9,6.25c6.41,1.97,12.84,4.17,18.8,7.27
							c2.29,1.19,4.56,2.53,6.55,4.18c2.06,1.7,3.4,3.63,4.78,5.9c6.72,11.09,12.68,22.68,17.61,34.68
							c4.84,11.77,8.82,24.06,10.61,36.7c1.95,13.78,2.63,27.77,3.42,41.65c0.39,6.83,0.76,13.66,1.22,20.48
							c0.38,5.69,0.96,11.37,1.2,17.06c0.39,9.46,0.21,18.94,0.28,28.41c0.08,10.14,0.33,20.32,1.56,30.39
							c1.08,8.86,2.85,17.88,6.84,25.93c1.68,3.4,3.81,6.57,6.46,9.29c0.67,0.69,1.73-0.37,1.06-1.06
							c-6-6.17-9.04-14.57-10.92-22.81c-2.25-9.87-2.95-20.05-3.29-30.14c-0.33-10.07-0.19-20.15-0.28-30.23
							c-0.1-10.89-1.11-21.69-1.78-32.55c-0.85-13.75-1.45-27.51-2.66-41.23c-0.59-6.74-1.18-13.51-2.41-20.17
							c-1.14-6.17-2.78-12.25-4.72-18.22c-4.05-12.44-9.42-24.46-15.56-36.01c-2.76-5.2-5.56-10.54-8.88-15.42
							c-1.17-1.73-2.71-3.16-4.36-4.42c-4.62-3.52-10.12-5.85-15.52-7.88c-7.22-2.72-14.66-4.83-22.13-6.74
							c-16.88-4.33-34.02-7.6-51.08-11.16c-7.49-1.56-14.99-3.16-22.41-5.05c-5.38-1.37-10.89-2.8-15.96-5.12
							c-4.16-1.91-8.11-4.11-12.41-5.75c-5.77-2.2-11.74-3.86-17.79-5.04c-16.11-3.13-32.77-2.79-48.82,0.52
							c-22.58,4.65-43.63,15.08-62.26,28.48c-5.55,3.99-10.9,8.25-16.08,12.71C1656.32,231.95,1657.38,233,1658.11,232.38
							L1658.11,232.38z"/>
					</g>
				</g>
			</g>
			<path class="st32" d="M1621.54,354.92c0,0,52.43,148.55,54.92,171.16c1.53,13.93-5.6,32.33-5.6,32.33"/>
			<path class="st32" d="M1655.61,567.61"/>
			<path class="st32" d="M1635.62,405.51"/>
			<g>
				<path class="st14" d="M1656.7,313.71c-2.41-3.72-2.93-8.34-2.88-12.77c0.21-18.9,9.77-36.8,22.91-50.38
					c5.68-5.87,12.03-11.06,18.36-16.24c16.24-13.28,32.5-26.56,49.45-38.92c1.88-1.37,3.82-2.75,6.08-3.29s4.93-0.03,6.32,1.83
					c2.25,3.01,0.07,7.26-2.32,10.16c-6.62,8.06-14.87,14.59-22.95,21.19c-21.42,17.47-42.45,36.22-56.83,59.83
					c-3.54,5.82-6.67,11.91-10.87,17.28c-2.64,3.37-5.68,6.43-9.05,9.09"/>
			</g>
			<g>
				<g>
					<path class="st14" d="M1684.17,392.8c-12.79-17.44-24.22-38.79-22.09-61.14c1.29-13.58,8-25.7,17.46-35.32
						c3.32-3.38,6.94-6.43,10.68-9.34c9.35-7.28,19.33-13.61,29.13-20.24c5.18-3.5,10.54-7.03,15.23-11.18
						c2.21-1.96,4.08-4.3,5.85-6.66c5.11-6.85,9.39-14.34,13.43-21.86c4.59-8.54,8.82-17.29,12.7-26.17
						c3.04-6.97,6-14.06,8.14-21.37c0.36-1.23,0.69-2.46,0.96-3.71c0.1-0.47-0.62-0.67-0.72-0.2c-1.44,6.75-4.16,13.3-6.79,19.66
						c-3.68,8.88-7.76,17.59-12.15,26.13c-4.14,8.05-8.54,16.03-13.63,23.52c-1.93,2.84-3.97,5.64-6.31,8.17
						c-3.4,3.67-7.72,6.5-11.78,9.37c-14.54,10.28-30.4,19.13-43.36,31.49c-9.4,8.97-16.61,20.23-18.94,33.16
						c-3.63,20.19,4.65,40.32,15.35,57.04c1.97,3.08,4.06,6.08,6.22,9.03C1683.8,393.56,1684.45,393.19,1684.17,392.8L1684.17,392.8
						z"/>
				</g>
			</g>
			<g>
				<g>
					<path class="st14" d="M1794.22,173.87c4.01,13.72,9.5,27.04,16.12,39.71c6.86,13.13,15.04,25.77,25.12,36.68
						c4.55,4.92,9.52,9.49,15.01,13.36c7.03,4.96,14.76,8.88,22.6,12.37c7.79,3.47,15.76,6.52,23.63,9.78
						c3.61,1.49,7.24,2.97,10.67,4.85c3.06,1.68,6,3.58,8.84,5.62c12.26,8.81,23.34,20.06,31.85,32.54c0.9,1.32,1.77,2.67,2.59,4.04
						c0.25,0.41,0.9,0.04,0.65-0.38c-7.51-12.43-17.9-23.43-29.13-32.56c-5.42-4.41-11.22-8.5-17.54-11.5
						c-7.51-3.56-15.37-6.4-23.05-9.56c-8.13-3.35-16.2-6.93-23.79-11.39c-6.31-3.71-12.1-8.07-17.36-13.15
						c-10.66-10.3-19.23-22.68-26.45-35.56c-7.17-12.79-13.1-26.34-17.57-40.31c-0.5-1.57-0.98-3.14-1.44-4.71
						C1794.8,173.21,1794.08,173.4,1794.22,173.87L1794.22,173.87z"/>
				</g>
			</g>
			<g>
				<g>
					<path class="st14" d="M1911.73,267.43c6.12,13.74,16.41,24.96,26.8,35.6c10.7,10.95,22.48,21.71,30.16,35.12
						c3.98,6.94,6.77,14.4,8.03,22.3c1.28,7.99,1.42,16.12,1.56,24.19c0.14,7.84,0.46,15.59,1.2,23.39
						c0.76,8.05,1.24,16.13,1.96,24.18c1.36,15.27,3.97,30.38,10.8,44.25c0.93,1.89,1.93,3.75,2.99,5.59
						c0.24,0.42,0.89,0.04,0.65-0.38c-4.06-7.06-7.19-14.59-9.32-22.44c-2.03-7.48-3.18-15.15-3.97-22.85
						c-0.81-7.92-1.28-15.87-1.95-23.8c-0.34-4.01-0.82-8.01-1.1-12.03c-0.26-3.85-0.36-7.71-0.43-11.57
						c-0.15-8.08-0.16-16.2-1.06-24.24c-0.84-7.58-2.71-14.7-5.94-21.62c-6.54-13.99-17.78-25.12-28.48-35.98
						c-10.61-10.77-21.59-21.67-28.81-35.11c-0.88-1.63-1.69-3.29-2.44-4.98C1912.18,266.61,1911.54,266.99,1911.73,267.43
						L1911.73,267.43z"/>
				</g>
			</g>
			<g>
				<g>
					<path class="st14" d="M1618.13,305.84c-0.54,5.31-0.8,10.66-1.04,15.99c-0.32,7.04-0.54,14.1-0.33,21.15
						c0.08,2.63,0.19,5.27,0.58,7.87c0.53,3.49,1.91,6.89,2.88,10.28c2.81,9.84,5.25,19.77,7.67,29.71
						c4.89,20.06,9.66,40.27,17.09,59.58c7.19,18.68,17.78,35.67,27.42,53.13c9.43,17.08,17.93,35,20.65,54.51
						c0.36,2.56,0.61,5.14,0.77,7.73c0.03,0.48,0.78,0.48,0.75,0c-1.22-19.46-8.34-37.61-17.28-54.74
						c-9.25-17.7-20.31-34.52-28.32-52.86c-8.28-18.96-13.4-39.15-18.32-59.19c-2.48-10.09-4.88-20.21-7.56-30.25
						c-1.27-4.77-2.61-9.52-4.06-14.24c-0.74-2.41-1.15-4.71-1.33-7.23c-0.48-6.69-0.3-13.44-0.08-20.14
						c0.21-6.22,0.51-12.44,1.01-18.64c0.07-0.88,0.15-1.77,0.24-2.65C1618.93,305.36,1618.18,305.36,1618.13,305.84L1618.13,305.84
						z"/>
				</g>
			</g>
		</g>
		<path class="st12" d="M1970.67,408.14c0,0-15.18,33.75,9.2,39.89c24.38,6.14,34.2-2.29,34.2-2.29s-28.51-4.62-34.77-17.18
			S1970.67,408.14,1970.67,408.14z"/>
		<path class="st12" d="M1706.03,194.2c0,0,1.9-22.7,32.19-22.55c30.28,0.15,46.79,4.33,46.79,4.33s-29.24-2.92-45.62,2.55
			c-16.38,5.46-33.26,21.54-33.26,21.54L1706.03,194.2z"/>
		<path class="st27" d="M1714.8,192.18c0,0-9.04,33.03-23.07,40.19c-14.03,7.16,33.34-13.29,32.93-27.2
			c-0.41-13.91-0.37-16.16-0.37-16.16L1714.8,192.18"/>
		<path class="st21" d="M1691.54,422.72c0,0,4.82,24.51,13.87,40.07s18.47,27.25,25.9,33.93c7.42,6.69-12.58-12.64-19.48-31.63
			S1691.54,422.72,1691.54,422.72z"/>
	</g>
</g>
<g id="Hand_x5F_R_6_">
	<path class="st0" d="M1542.33,1091.99l-80.37,23.2c0,0,0.55,41.21,27.56,37.11c27.02-4.09,37.11,3,53.21-6
		c16.1-9.01,31.93-51.85,31.93-51.85L1542.33,1091.99z"/>
	<path class="st0" d="M1510.54,1139.75c0,0-15.5,8.37-29.61,18.56c-12.7,9.17-23.94,20.08-27.43,22.92
		c-6.43,5.24-0.82,11.73,14.74,7.64c15.56-4.09,40.25-21.56,41.34-22.1c1.09-0.55,25.32-11.27,32.75-18.69
		c7.23-7.23,12.69-17.33,12.69-17.33L1510.54,1139.75z"/>
	<path class="st0" d="M1474.25,1133.2l-37.66,21.01l-39.3,32.75c0,0-9.01,5.73,1.36,6.55s23.4-7.03,26.4-10.85
		c1.04-1.33,21.95-11.25,29.06-16.58c0.82-0.61,46.46-14.53,46.46-14.53L1474.25,1133.2z"/>
	<path class="st0" d="M1470.15,1121.19l-37.66,21.01l-39.3,32.75c0,0-9.01,5.73,1.36,6.55c10.37,0.82,37.39-16.65,40.39-20.47
		s58.13-24.56,58.13-24.56L1470.15,1121.19z"/>
	<path class="st0" d="M1461.15,1117.64l-35.56,19.61l-35.46,33.8c0,0-8.26,6.07,1.79,6.07c10.05,0,34.8-18.48,37.41-22.3
		s54.2-27.48,54.2-27.48L1461.15,1117.64z"/>
	<path class="st0" d="M1463.33,1115.32l-22.51,7.78l-44.43,31.48c0,0-9.12,4.67,0.8,6.28s37.3-12.67,40.49-16.03
		c3.19-3.36,57.89-18.46,57.89-18.46L1463.33,1115.32z"/>
	<g>
		<path class="st33" d="M1470.15,1139.2c0,0-12.14,4.98-24.42,10.92s-36.23,26.2-36.23,26.2"/>
		<path class="st33" d="M1461.15,1131.7c0,0-15.56,6.48-27.84,12.42c-12.28,5.94-36.23,26.2-36.23,26.2"/>
		<path class="st33" d="M1456.64,1125.83c0,0-8.05,3.07-20.33,9.01c-12.28,5.94-36.23,26.2-36.23,26.2"/>
	</g>
	<path class="st16" d="M1520.77,1103.59c0.94-0.97-72.18,15.42-68.5,17.06S1513.95,1110.68,1520.77,1103.59z"/>
</g>
<g id="Hose_Kopie_Kopie_2">
	<g>
		<path class="st34" d="M1607.15,771.61c16.92-64.4,88.13-173.39,88.13-173.39l47.23-14.91c0,0-25.49,24.66-44.76,56.76
			c-12.28,20.47-49.39,106.16-66.59,146.27c-0.43,1-24.15-13.37-24.15-13.37"/>
		<path class="st35" d="M1669.91,1192.83c-2.85,2.14,18.34,162.74,35.75,331.43c9.28,89.91,22.59,182.27,25.79,257.07
			c0.02,0.38-10.78,2.33-10.64,3.14c4.97,29.87,16.99,68.09,19.75,75.35c0,0,28.48,28.02,95.28,2.97
			c0.23-0.09,3.68-30.02,11.05-76.14c0.23-1.47-9.72-0.26-9.69-1.77c1.43-66.05,4.09-166.69,5.95-262.26
			c3-154.33,5.78-302.91,5.78-302.91L1669.91,1192.83z"/>
		<path class="st36" d="M1731.45,1781.33c-0.37-0.08-10.78,2.33-10.64,3.14c4.97,29.87,16.99,68.09,19.75,75.35
			c0,0,28.48,28.02,95.28,2.97c0.23-0.09,3.68-30.02,11.05-76.14c0.23-1.47-8.22-2.15-9.69-1.77
			C1809.64,1791.97,1782.62,1792.79,1731.45,1781.33z"/>
		<path class="st35" d="M2031.23,1216.16c0.46-6.96,34.77,347.15,33.98,560.22c0,0.38,0,0.76,0,1.14c0,0.83,7.78,2.98,7.77,3.8
			c-0.17,30.28-5.98,69.92-7.56,77.53c0,0-23.68,32.18-93.6,18.03c-0.25-0.05-8.4-29.06-22.98-73.42c-0.46-1.41,8.4-4.51,8.12-6
			c-9.45-51.7-12.42-152.42-26.98-228.99c-33.29-175.11-81.6-341.12-81.6-341.12L2031.23,1216.16z"/>
		<g>
			<path class="st35" d="M1713.57,1016.11c-20.71,50.22-34.92,102.9-43.78,177.11c78.13,37.2,168.13,37.77,254.64,35.45
				c36.01-0.97,72.39-2.36,107.16-11.77c-11.13-62.31-49.98-214.64-51.67-215.51c-0.1-0.05-0.39,1.07-0.55,1.09
				c-3.82,0.55-9.05,2.82-9.28,2.18c-8.47,3.59-44.9,11.81-119.53,9.82c-38.86-1.03-86.1-1.5-133.58-6.14
				c-0.03,0-0.68,3.97-0.68,3.89"/>
		</g>
	</g>
	<path class="st37" d="M1738.41,1061.29c0,0,0.58,0.13,1.64,0.38c13.4,3.09,104.3,23.88,108.47,20.09c4.5-4.09,3.68-9.82,3.68-9.82
		l-113.29-23.71L1738.41,1061.29"/>
	<g>
		<path class="st38" d="M1738.41,1061.29c0,0,0.58,0.13,1.64,0.38c13.4,3.09,110.03,25.11,114.2,21.32
			c4.5-4.09,13.51-57.31,13.51-57.31l-128.84,22.55L1738.41,1061.29"/>
		<path class="st38" d="M1882.91,1073.98c0,0,0.57,3.85,1.64,4.09c13.4,3.09,107.58-7.26,111.75-11.05
			c4.5-4.09-11.05-51.99-11.05-51.99l-118.71,11.87l17.19,50.76"/>
	</g>
	<g>
		<path class="st38" d="M1897.51,1414.55c0,0,62.77,265.8,76.41,292.55c13.64,26.74,28.38,85.69,28.38,85.69l-46.12,5.46
			C1956.18,1798.25,1911.15,1444.57,1897.51,1414.55z"/>
		<g>
			<g>
				<path class="st39" d="M1857.69,1233.9c11.65,35.46,22.48,71.18,32.46,107.14c10.02,36.14,19.19,72.51,27.5,109.08
					c8.27,36.39,15.68,72.98,22.23,109.72c6.62,37.14,12.37,74.43,17.22,111.85c4.79,37.01,8.72,74.13,11.77,111.33
					c0.38,4.65,0.75,9.3,1.1,13.95c0.15,1.91,3.15,1.93,3,0c-2.85-37.39-6.57-74.72-11.18-111.93
					c-4.58-36.99-10.02-73.88-16.32-110.62c-6.37-37.14-13.62-74.12-21.75-110.92c-8.08-36.62-17.03-73.05-26.83-109.24
					s-20.46-72.16-31.96-107.85c-1.43-4.44-2.88-8.88-4.33-13.31C1859.98,1231.27,1857.09,1232.06,1857.69,1233.9L1857.69,1233.9z"
					/>
			</g>
		</g>
	</g>
	<path class="st40" d="M1968.58,1799.93l-10.22,5.15c0,0,18.28,62.22,22.92,74.23"/>
	<path class="st36" d="M2065.46,1779.07c0.36-0.13,10.98,0.99,10.95,1.81c-1.27,30.25-8.51,69.66-10.37,77.21
		c0,0-25.21,36.24-94.58,19.57c-0.24-0.06-9.96-29.63-22.92-74.5c-0.41-1.43,6.14-5.11,7.64-4.91
		C1984.41,1801.91,2016.08,1796.72,2065.46,1779.07z"/>
	<path class="st40" d="M1739.23,1784.33l-10.37,2.73c0,0,13.64,73.14,18.56,78.05"/>
	<g>
		<g class="st41">
			<path class="st37" d="M1847.84,1231.44c-3.82-1.23-42.3-3.27-49.94-2.18c-5.46,0.78,10.37,15.01,14.19,20.47
				c9.89,14.12,10.33,35.5,10.75,52.74c2.15,87.2-3.9,386.21-1.75,473.41c0.07,2.8,17.24,8.55,17.47-1.64
				c2.18-98.79,5.61-414.66,10.37-504.31c0.58-10.92,2.49-27.15-0.55-37.66"/>
		</g>
		<g class="st41">
			<path class="st37" d="M2034.88,1582.69c-3.68,2-4.93,7.4-8.29,11.56c-8.62,10.71-13.41,23.25-20.8,34.85
				c-2.76,4.34-5.04,10.96-0.77,13.83c2.54,1.71,5.97,0.81,8.77-0.44c21.61-9.67,31.74-63.02,21.14-59.87"/>
		</g>
		<g class="st41">
			<path class="st37" d="M2020.08,1650.7c-1.63,0.29-2.76,2.17-4.53,3.32c-4.55,2.96-7.9,7.07-12.09,10.51
				c-1.57,1.29-3.24,3.49-1.99,5.09c0.74,0.95,2.14,1.04,3.34,0.91c9.3-0.97,19.66-19.73,15.3-19.86"/>
		</g>
		<g class="st41">
			<path class="st37" d="M1802.37,1581.87c-3.68,2-4.93,7.4-8.29,11.56c-8.62,10.71-13.41,23.25-20.8,34.85
				c-2.76,4.34-5.04,10.96-0.77,13.83c2.54,1.71,5.97,0.81,8.77-0.44c21.61-9.67,31.74-63.02,21.14-59.87"/>
		</g>
		<g class="st41">
			<path class="st37" d="M1787.57,1649.88c-1.63,0.29-2.76,2.17-4.53,3.32c-4.55,2.96-7.9,7.07-12.09,10.51
				c-1.57,1.29-3.24,3.49-1.99,5.09c0.74,0.95,2.14,1.04,3.34,0.91c9.3-0.97,19.66-19.73,15.3-19.86"/>
		</g>
		<path class="st38" d="M1712.01,1043.43l-0.82,2.4l-28.45,91.18c0,0,36.02-17.19,46.67-40.93c7.93-17.69,9.52-47.86,9.52-47.86
			L1712.01,1043.43z"/>
		<path class="st38" d="M1988.01,1046.25l1.74,4.2l22.92,89.14c0,0-31.93-30.91-42.98-50.45c-9.54-16.87-14.02-35.1-14.02-35.1
			L1988.01,1046.25z"/>
		<path class="st38" d="M1772.27,1193.51c0,0,53.85,21.83,51.91,24.74s-43.66,0.97-49.97-1.94
			C1767.9,1213.4,1760.14,1196.42,1772.27,1193.51z"/>
		<path class="st38" d="M1868.04,1236.63c0,0,9.28,4.37,34.39-9.82c25.11-14.19,18.56,3.27,9.28,9.82
			C1902.42,1243.17,1868.04,1236.63,1868.04,1236.63z"/>
	</g>
	<g>
		<g class="st41">
			<path class="st37" d="M1956.52,1798.72c29.67,1.95,59.65-0.88,88.44-8.35c4.05-1.05,17.38-6.04,21.2-11.77
				c0.08-0.11-0.03-4.96-1.09-9.01c-33.72,11.35-72.96,23.7-108.39,26.94"/>
		</g>
		<g>
			<g>
				<path class="st39" d="M1952.83,1054.73c3.26,13.81,9.01,26.88,16.57,38.86c7.54,11.95,16.69,22.8,26.27,33.15
					c5.61,6.07,11.39,11.98,17.17,17.89c1.35,1.38,3.47-0.74,2.12-2.12c-9.96-10.18-19.94-20.38-29.02-31.36
					c-8.78-10.62-16.64-22.07-22.44-34.61c-3.35-7.25-5.94-14.83-7.78-22.6C1955.27,1052.05,1952.38,1052.85,1952.83,1054.73
					L1952.83,1054.73z"/>
			</g>
		</g>
	</g>
	<g>
		<path class="st42" d="M1704.03,1040.82c0,0,182.16,38.48,287.36,3.27l-9.82-42.71c-65.5,24.56-262.39,6.69-262.39,6.69
			L1704.03,1040.82z"/>
		<path class="st43" d="M1781.39,1189.41c0,0,61.81,28.24,66.72,40.93l4.09,0.82c11.05-6.55,15.56-173.15,15.56-173.15"/>
		<path class="st43" d="M1847.71,1229.94c0,0-39.71-3.68-49.94-1.64"/>
		<g>
			<g>
				<path class="st39" d="M1676.33,1188.6c4.78,37.67,9.24,75.38,13.49,113.12c4.39,39.01,8.56,78.05,12.58,117.11
					c4.07,39.52,8,79.05,11.84,118.59c3.81,39.18,7.55,78.38,11.27,117.57c3.61,38.01,7.21,76.03,10.87,114.04
					c0.45,4.65,0.9,9.3,1.34,13.95c0.18,1.9,3.19,1.92,3,0c-3.65-37.8-7.24-75.61-10.83-113.41c-3.71-39.09-7.43-78.18-11.21-117.26
					c-3.83-39.54-7.73-79.08-11.76-118.6c-4-39.16-8.13-78.31-12.48-117.43c-4.22-37.95-8.64-75.87-13.37-113.76
					c-0.58-4.63-1.16-9.27-1.75-13.9C1679.09,1186.71,1676.08,1186.68,1676.33,1188.6L1676.33,1188.6z"/>
			</g>
		</g>
		<g>
			<g>
				<path class="st39" d="M1739.18,1047.76c-1.7,10.36-3.06,20.8-5.51,31.01c-2.27,9.43-5.58,18.71-11.32,26.62
					c-2.84,3.91-6.3,7.42-10.14,10.34c-2.23,1.69-4.61,3.18-6.93,4.74c-6.12,4.1-12.27,8.21-18.13,12.69
					c-1.2,0.91-2.4,1.83-3.51,2.85c-0.35,0.31-0.69,0.64-0.99,0.99c-0.11,0.13-0.23,0.26-0.31,0.4c-0.14,0.24,0.01-0.19-0.01,0
					c0.75,0.21,1.5,0.42,2.25,0.62c0-0.02-0.01-0.04-0.01-0.06c0.03-0.02-0.03,0.43,0.04-0.04c0.14-0.93,0.39-2.43,0.66-3.66
					c0.21-0.93,0.47-1.85,0.66-2.79c0.27-1.37-1.43-2.65-2.51-1.46c-0.51,0.56-0.62,1.54-0.81,2.23c-0.51,1.94-0.99,3.89-1.44,5.85
					c-0.9,3.91-1.68,7.85-2.34,11.82c-1.32,7.98-2.18,16.03-2.53,24.11c-0.2,4.57-0.23,9.15-0.12,13.73c0.05,1.93,3.05,1.93,3,0
					c-0.25-9.96,0.24-19.93,1.48-29.81c0.63-4.97,1.46-9.91,2.47-14.81c0.49-2.36,1.02-4.71,1.59-7.05
					c0.31-1.25,0.62-2.49,0.96-3.73c-0.01,0.05,0.21-0.61,0.19-0.73c-0.04-0.24,0.95-0.91-0.35,0.52c-0.84-0.49-1.67-0.97-2.51-1.46
					c-0.43,2.2-1.09,4.35-1.36,6.59c-0.15,1.22,0.08,2.98,1.79,2.74c0.72-0.1,1.02-0.56,1.44-1.07c-0.32,0.39,0.04-0.03,0.13-0.12
					c0.19-0.19,0.38-0.38,0.57-0.56c2.28-2.12,4.89-3.92,7.42-5.73c3.36-2.41,6.76-4.75,10.18-7.06
					c6.32-4.28,12.84-8.24,18.01-13.97c6.87-7.6,11.18-16.99,13.99-26.77c3.4-11.82,4.88-24.09,6.87-36.19
					C1742.38,1046.67,1739.49,1045.85,1739.18,1047.76L1739.18,1047.76z"/>
			</g>
		</g>
		<g>
			<g>
				<path class="st39" d="M1849.33,1234.39c15.47,2.14,31.39-2.59,43.14-12.9c1.45-1.28-0.68-3.39-2.12-2.12
					c-10.85,9.54-25.89,14.11-40.22,12.13c-0.81-0.11-1.6,0.2-1.85,1.05C1848.09,1233.24,1848.53,1234.27,1849.33,1234.39
					L1849.33,1234.39z"/>
			</g>
		</g>
		<g class="st44">
			<path class="st39" d="M1686.29,744.05c-6.55,17.47,9.28,55.94,21.29,85.14"/>
		</g>
		<g class="st41">
			<path class="st37" d="M1730.63,1782.8c29.08,6.22,58.73,9.94,88.29,6.71c4.15-0.45,14.56-2.59,18.69-4.09
				c1.5-0.55,1.69-8.4,1.23-12.55c-35.01,6.36-72.21,9.71-107.74,7.79"/>
		</g>
	</g>
</g>
<g id="Shirt_6_">
	<g id="Kleidung_7_">
		<path class="st10" d="M1749.33,580.85c0,0,14.74,46.34,90.06,46.34c83.02,0,86.78-42.28,86.78-42.28l63.04,14.77
			c0,0,9.69,175.06-18.01,249.7c-13.92,54.85-5.47,78.02-5.39,78.66c1.64,12.49,6.74,22.7,14.8,73.48c0,0-42.84,17.87-135.08,14.05
			c-81.81-3.39-127.37-6.86-126.9-7.5c3.34-4.57,10.23-43.25,15.96-80.91c1.97-12.96-17.1-73.09-19.65-79.41
			c-39.3-97.42-19.44-249.5-19.44-249.5L1749.33,580.85z"/>
		<path class="st10" d="M1695.28,598.22c0,0-61.4,88.42-88.42,175.2c23.74,41.75,92.51,50.76,92.51,50.76l39.3-85.14L1695.28,598.22
			z"/>
		<path class="st10" d="M1988.38,599.96c0,0,72.59,79.83,99.61,166.61c-23.74,41.75-88.93,53.36-88.93,53.36l-54.06-79.15
			L1988.38,599.96z"/>
	</g>
	<g>
		<path class="st2" d="M1997.12,1055.97c0,0-107.25,22.51-112.16,15.56c-4.91-6.96-18.01-58.54-18.01-58.54l114.62-12.69
			L1997.12,1055.97z"/>
		<path class="st2" d="M1694.2,1045.73c0,0,153.1,33.16,158.01,26.2s15.83-59.08,15.83-59.08l-149.27-7.23L1694.2,1045.73z"/>
	</g>
	<path class="st2" d="M1608.7,788.87l-3.68,14.99l86.58,45.64c0,0,5.17-14.33,5.22-14.33
		C1698.43,835.18,1608.7,788.87,1608.7,788.87z"/>
	<path class="st2" d="M2088.1,775.09l5.39,18.33l-72.59,43.87c0,0-9.93-14.77-9.99-14.77C2009.3,822.52,2088.1,775.09,2088.1,775.09
		z"/>
	<g>
		<path class="st45" d="M1743.6,588.77c0,0-50.21,68.09-57.99,90.6c-2.92,8.46-45.18,112.93-45.18,112.93"/>
		<path class="st45" d="M1752.33,604.05c0,0-58.2,92.1-61.81,100.29c-12.28,27.84-32.9,97.27-32.9,97.27"/>
		<path class="st45" d="M1758.33,610.05c0,0-60.45,90.6-51.44,135.63c3.64,18.2,32.88,132.36,32.88,145.45s-4.84,115.71-4.84,115.71
			"/>
		<path class="st45" d="M1753.97,1006.44c0,0,2.18-110.39,0.55-130.04c-1.64-19.65-25.91-118.08-25.52-133.17
			c0.82-31.52,43.53-122.8,43.53-122.8"/>
		<path class="st45" d="M1792.17,628.06c0,0-33.43,102.47-32.88,130.31c0.55,27.84,18.69,247.38,18.69,247.38"/>
		<path class="st45" d="M1815.09,633.52c0,0-20.6,92.1-21.83,130.58c-1.1,34.58,11.46,241.1,11.46,241.1"/>
		<path class="st45" d="M1830.1,635.16c0,0-1.77,93.88,0.41,126.08s0,250.11,0,250.11"/>
		<polyline class="st45" points="1851.66,635.16 1854.94,738.86 1862.44,1009.3 		"/>
		<polyline class="st45" points="1896.83,1006.85 1884.41,742.14 1872.4,632.43 		"/>
		<path class="st45" d="M1899.15,624.24c0,0,28.93,86.78,28.93,108.61c0,21.83,6,273.58,6,273.58"/>
		<path class="st45" d="M1959.05,1002.34c0,0-5.87-157.05-4.23-171.79c1.64-14.74,20.74-77.5,12.55-103.16s-52.4-114.62-52.4-114.62
			"/>
		<path class="st45" d="M1927.53,596.95c0,0,20.74,12.55,36.02,39.3s66.5,170.46,66.5,170.46"/>
		<path class="st45" d="M2055.02,790.07c0,0-51.08-155.46-61.99-166.37c-10.92-10.92-63.86-33.57-63.86-33.57"/>
	</g>
	<path class="st46" d="M1715.21,1012.03c147.91,24.01,270.44,1.36,270.44,1.36l-4.09-13.1c0,0-207.4,11.46-263.62,4.91"/>
	<path class="st47" d="M1718.49,1006.85c217.64,18.42,263.07-6.55,263.07-6.55l-4.5-13.1c-0.08-0.65-40.55,19.01-257.89,18.63"/>
	<path class="st48" d="M1988.72,600.37l-55.6-13.3l-1.15,1.99l-1.17-0.56c0,0-26.61,43.39-72.04,44.62
		c-45.44,1.23-93.74-19.24-93.74-19.24s63.04,62.63,122.39,40.12c45.44-17.24,68.76-38.53,78.46-45.78
		c6.11,4.85,14.57,14.24,18.97,20.4c16.37,22.92,82.89,116.77,60.69,69.64C2023.31,651.12,1988.72,600.37,1988.72,600.37z"/>
	<path class="st49" d="M1838.29,618.51c0,0-9.93,13.06-9.41,13.06c0.51,0,20.47-0.2,20.47-0.2L1838.29,618.51z"/>
	<path class="st48" d="M1733.7,926.41c0,0,42.5,44.96,42.5,62.97c0,18.01,1.5,16.24,1.5,16.24l-57.92,0.41L1733.7,926.41z"/>
	<polygon class="st50" points="1827.65,615.31 1821.92,635.57 1855.89,635.36 1851.59,622.27 	"/>
	<g>
		<path class="st50" d="M1742.5,583.31c0,0,49.39,87.87,59.22,86.78c9.82-1.09,37.39-50.9,37.39-50.9l-89.24-38.61L1742.5,583.31"/>
		<path class="st50" d="M1932.64,586.04c0,0-41.41,87.6-51.24,86.51c-9.82-1.09-44.55-53.35-44.55-53.35l92.03-33.43"/>
	</g>
	<g class="st51">
		<path class="st52" d="M1994.69,710.19c-3.95,9.57-8.53,68.44-12.69,85.71c-0.04,0.18,16.12,23.4,16.12,23.4
			s45.54-24.51,44.1-21.64c-0.82,1.64-22.99-48.78-37.55-72.92c-1.48-2.46-7.47-14.43-9.99-15.81"/>
	</g>
	<g class="st53">
		<path class="st34" d="M1693.66,717.44c-0.65,12.41,4.88,59.9,8.22,71.47c3.86,13.35,12.26,38.46,19.48,48.83
			c7.22,10.38,18.25,13.15,28.67,14.07c1.21,0.11,2.59,0.02,3.37-1.25c0.72-1.17,0.63-2.9,0.4-4.4
			c-1.63-10.36-8.11-17.69-13.92-24.64c-15.05-18-31.24-62.41-41.89-85.62"/>
	</g>
	<g class="st54">
		<path class="st55" d="M1695.12,597.85c-0.65,12.41-2.82,63.41,0.52,74.97c3.86,13.35,12.26,38.46,19.48,48.83
			c7.22,10.38,18.25,13.15,28.67,14.07c1.21,0.11,2.59,0.02,3.37-1.25c0.72-1.17,0.63-2.9,0.4-4.4
			c-1.63-10.36-8.11-17.69-13.92-24.64c-15.05-18-31.24-62.41-41.89-85.62"/>
	</g>
	<path class="st56" d="M1925.07,585.19c0,0-6.62,44.72-89.03,41.99c-75.07-2.49-87.8-46.05-87.8-46.05"/>
	<g>
		<path class="st57" d="M1595.34,773.31c0,0,61.27,38.21,109.3,58.13"/>
		<path class="st57" d="M2093.5,764.07c0,0-45.77,39.32-96.94,60.12"/>
	</g>
	<g class="st51">
		<path class="st52" d="M1981.97,795.62c-10.09,30.62-23.13,84.73-46.05,129.97c-2.66,5.24-17.12,54.91-17.12,80.71
			c0,3.27,45.98-1.09,62.36-6.82c-9.2-34.53-18.95-66.36-19.03-88.62c-0.15-40.27,6.01-51.05,12.28-74.81
			c2.33-8.84,4.35-17.35,4.83-21.1"/>
	</g>
	<path class="st50" d="M1991.39,730.54l-8.56,67.23c0,0,9.78,7.27,11.83-11.56S1991.39,730.54,1991.39,730.54z"/>
	<path class="st50" d="M1679.19,771.06l24.01,43.94C1703.21,815,1681.1,788.53,1679.19,771.06z"/>
	<polygon class="st58" points="1598.55,767.92 1631.03,786.89 1626.25,798.9 1591.73,778.84 	"/>
	<g>
		<path class="st2" d="M1741.96,579.01l48.03-15.28l48.31,54.85c0,0-33.98,46.87-34.11,46.67
			C1803.48,664.21,1741.96,579.01,1741.96,579.01z"/>
		<path class="st2" d="M1930.26,584.4l-46.66-18.59l-45.31,52.7c0,0,39.35,46.88,39.57,46.67
			C1878.82,664.22,1930.26,584.4,1930.26,584.4z"/>
	</g>
</g>
<g id="Arm_x5F_L_x5F_oben_11_">
	<path class="st0" d="M2029.57,823.08c-8.27-16.65-6.52-313.38-4.97-316.91c9.96-22.67,28.39-27.38,40,4.51
		c5.08,13.95,111.75,336.36-20.24,338.53c-37.05,0.61-23.53-22.13-23.53-22.13"/>
	<path class="st5" d="M2111.3,736.04l-7.4-63.09l3.12,81.76c-1.14,6.47-11.23,71.15-38.63,70.83c-17.22-0.2-39.17-5.92-39.17-5.92
		l-10.82,7.07l-3.33,1.46c4.66,29.55,26.21,28.29,29.21,28.37C2115.09,858.43,2111.3,736.04,2111.3,736.04z"/>
	<g>
		
			<ellipse transform="matrix(0.1936 -0.9811 0.9811 0.1936 1126.1482 2466.4656)" class="st5" cx="2063.5" cy="548.16" rx="3.68" ry="3.27"/>
		<circle class="st5" cx="2068.83" cy="561.31" r="2.05"/>
		
			<ellipse transform="matrix(0.1936 -0.9811 0.9811 0.1936 1105.1804 2488.9458)" class="st5" cx="2066.69" cy="572.16" rx="2.46" ry="2.05"/>
		<circle class="st5" cx="2072.51" cy="554.32" r="1.84"/>
	</g>
</g>
<path class="st34" d="M1607.15,771.61c16.92-64.4,88.13-173.39,88.13-173.39l47.23-14.91c0,0-25.49,24.66-44.76,56.76
	c-12.28,20.47-49.39,106.16-66.59,146.27c-0.43,1-24.15-13.37-24.15-13.37"/>
<g>
	<path class="st0" d="M2115.68,503.96c-3.04,12.5-30.97,34.63-53.96,37.53c-9.65,1.22-13.7-10.18-22.28-12.26
		c-29.03-7.05-33.99-35.48-29.68-53.23s34.95-25.87,63.98-18.83C2102.76,464.22,2119.99,486.21,2115.68,503.96z"/>
	<g>
		<path class="st0" d="M2012.7,479.14c3.21-6.41-3.72,2.91-2.53-4.17c3.59-21.3,22.57-43.55,30.26-63.74c0.76-2,1.91-4.08,3.9-4.87
			c3.55-1.42,8.48,1.35,9.26,5.09c5.09,24.41-6.98,31.31-10.16,51.96c-1.49,9.68-6.47,12.06-15.79,15.07
			c-4.18,1.35-10-0.11-10.67-4.45"/>
	</g>
	<path class="st0" d="M2044.32,461.49c0,0,17.39-20.47,29.69-41.17c11.59-19.51,16.46-42.32,21.15-44.44
		c21.24-9.58,16.06,23.72,1.81,52.15c-10.6,21.13-21.13,39.4-21.13,39.4L2044.32,461.49z"/>
	<path class="st0" d="M2060.41,467.53c0,0,15.07-19.75,27.37-40.45c11.59-19.51,20.79-47.84,25.48-49.96
		c21.24-9.58,14.05,28.52-0.21,56.95c-10.6,21.13-21.12,39.4-21.12,39.4L2060.41,467.53z"/>
	<path class="st0" d="M2076.13,478.63c0,0,15.08-19.75,27.37-40.45c11.59-19.51,21.3-53.63,25.99-55.75
		c21.24-9.58,13.54,34.31-0.72,62.74c-10.6,21.13-21.13,39.4-21.13,39.4L2076.13,478.63z"/>
	<path class="st0" d="M2083.64,500.58c0,0,15.07-19.75,27.37-40.45c11.59-19.51,26.58-54.67,31.27-56.79
		c21.24-9.58,8.26,35.35-5.99,63.78c-10.6,21.13-21.12,39.4-21.12,39.4L2083.64,500.58z"/>
	<path class="st5" d="M2107.44,385.66l-39.07,73.75c0,0,13.06-14.46,22.42-30.9C2095.22,420.75,2107.44,385.66,2107.44,385.66z"/>
	<path class="st5" d="M2126.17,390.65l-39.07,73.75c0,0,13.06-14.46,22.42-30.9C2113.95,425.74,2126.17,390.65,2126.17,390.65z"/>
	<path class="st5" d="M2142.81,402.71l-39.07,73.75c0,0,13.06-14.46,22.42-30.9C2130.59,437.8,2142.81,402.71,2142.81,402.71z"/>
	<path class="st5" d="M2029.82,480.67c0,0,24.67-7.28,49.51,1.53c24.83,8.81,18.26,6.79,18.26,6.79s-10.09-14.87-31.2-17.85
		C2045.28,468.16,2029.82,480.67,2029.82,480.67z"/>
</g>
<path class="st5" d="M2015.91,467.31c1.21-0.91,13.59-12.1,27.15-12.19c0.41,0,1.92-0.15,2.34-0.13l1.64-5.15
	c0,0-13.26,1.17-19.43,7.26C2021.45,463.17,2015.91,467.31,2015.91,467.31z"/>
</svg>
