<svg width="148" height="148" viewBox="0 0 148 148" fill="none" xmlns="http://www.w3.org/2000/svg">
  <path d="M30 115C30 115 30 99.2474 30 92.7305C30 85.4045 33.2459 74 47.8743 74C51.1092 74 53.7849 74.5611 56 75.5105" stroke="#10B981" stroke-width="6" stroke-miterlimit="10" stroke-linecap="round"/>
  <path d="M91 75.6292C93.3326 74.6042 96.1724 74 99.6319 74C114.653 74 118 85.4045 118 92.7305C118 99.2474 118 115 118 115" stroke="#10B981" stroke-width="6" stroke-miterlimit="10" stroke-linecap="round"/>
  <path d="M103 61C107.971 61 112 56.9706 112 52C112 47.0294 107.971 43 103 43C98.0294 43 94 47.0294 94 52C94 56.9706 98.0294 61 103 61Z" stroke="#10B981" stroke-width="6" stroke-miterlimit="10"/>
  <path d="M57 105C57 105 57 88.5246 57 81.9434C57 74.5283 60.0919 63 74 63C87.9081 63 91 74.5283 91 81.9434C91 88.5357 91 105 91 105" stroke="#10B981" stroke-width="6" stroke-miterlimit="10" stroke-linecap="round"/>
  <path d="M74 50C78.9706 50 83 45.9706 83 41C83 36.0294 78.9706 32 74 32C69.0294 32 65 36.0294 65 41C65 45.9706 69.0294 50 74 50Z" stroke="#10B981" stroke-width="6" stroke-miterlimit="10"/>
  <path d="M46 61C50.9706 61 55 56.9706 55 52C55 47.0294 50.9706 43 46 43C41.0294 43 37 47.0294 37 52C37 56.9706 41.0294 61 46 61Z" stroke="#10B981" stroke-width="6" stroke-miterlimit="10"/>
  <path d="M117.571 135H30.4286C20.8429 135 13 127.157 13 117.571V30.4286C13 20.8429 20.8429 13 30.4286 13H117.571C127.157 13 135 20.8429 135 30.4286V117.571C135 127.157 127.157 135 117.571 135Z" stroke="#10B981" stroke-width="6" stroke-miterlimit="10"/>
</svg>
