<svg width="96" height="96" viewBox="0 0 96 96" fill="none" xmlns="http://www.w3.org/2000/svg">
<path d="M81 81C80.6 81 80.2 80.84 79.91 80.53C78.31 78.84 74.35 77.02 71 77.02C67.65 77.02 63.69 78.83 62.09 80.53C61.52 81.13 60.57 81.16 59.97 80.59C59.37 80.02 59.34 79.07 59.91 78.47C62.26 75.98 67.13 74.02 71 74.02C74.87 74.02 79.74 75.97 82.09 78.47C82.66 79.07 82.63 80.02 82.03 80.59C81.74 80.86 81.37 81 81 81Z" fill="#34D399"/>
<path d="M71 92C59.42 92 50 82.58 50 71C50 59.42 59.42 50 71 50C82.58 50 92 59.42 92 71C92 82.58 82.58 92 71 92ZM71 54C61.63 54 54 61.63 54 71C54 80.37 61.63 88 71 88C80.37 88 88 80.37 88 71C88 61.63 80.38 54 71 54Z" fill="#34D399"/>
<path d="M77.5 71.5C74.65 71.5 72.5 69.35 72.5 66.5C72.5 65.67 73.17 65 74 65C74.83 65 75.5 65.67 75.5 66.5C75.5 67.68 76.32 68.5 77.5 68.5C78.65 68.5 79.49 67.65 79.49 66.48C79.49 65.65 80.16 64.98 80.99 64.98C81.82 64.98 82.49 65.65 82.49 66.48C82.49 69.29 80.3 71.5 77.5 71.5Z" fill="#34D399"/>
<path d="M64.5 71.5C61.65 71.5 59.5 69.35 59.5 66.5C59.5 65.67 60.17 65 61 65C61.83 65 62.5 65.67 62.5 66.5C62.5 67.68 63.32 68.5 64.5 68.5C65.68 68.5 66.5 67.68 66.5 66.5C66.5 65.67 67.17 65 68 65C68.83 65 69.5 65.67 69.5 66.5C69.5 69.35 67.35 71.5 64.5 71.5Z" fill="#34D399"/>
<path d="M25 92C13.42 92 4 82.58 4 71C4 59.42 13.42 50 25 50C36.58 50 46 59.42 46 71C46 82.58 36.58 92 25 92ZM25 54C15.63 54 8 61.63 8 71C8 80.37 15.63 88 25 88C34.37 88 42 80.37 42 71C42 61.63 34.38 54 25 54Z" fill="#34D399"/>
<path d="M25 84C24.73 84 24.45 83.92 24.2 83.77L14.7 77.77C14 77.33 13.79 76.4 14.23 75.7C14.67 75 15.6 74.79 16.3 75.23L25.8 81.23C26.5 81.67 26.71 82.6 26.27 83.3C25.98 83.75 25.5 84 25 84Z" fill="#34D399"/>
<path d="M31.5 72C29.02 72 27 69.98 27 67.5C27 65.02 29.02 63 31.5 63C33.98 63 36 65.02 36 67.5C36 69.98 33.98 72 31.5 72ZM31.5 66C30.67 66 30 66.67 30 67.5C30 68.33 30.67 69 31.5 69C32.33 69 33 68.33 33 67.5C33 66.67 32.33 66 31.5 66Z" fill="#34D399"/>
<path d="M18.5 72C16.02 72 14 69.98 14 67.5C14 65.02 16.02 63 18.5 63C20.98 63 23 65.02 23 67.5C23 69.98 20.98 72 18.5 72ZM18.5 66C17.67 66 17 66.67 17 67.5C17 68.33 17.67 69 18.5 69C19.33 69 20 68.33 20 67.5C20 66.67 19.33 66 18.5 66Z" fill="#34D399"/>
<path d="M25 46C13.42 46 4 36.58 4 25C4 13.42 13.42 4 25 4C36.58 4 46 13.42 46 25C46 36.58 36.58 46 25 46ZM25 8C15.63 8 8 15.63 8 25C8 34.37 15.63 42 25 42C34.37 42 42 34.37 42 25C42 15.63 34.38 8 25 8Z" fill="#34D399"/>
<path d="M35 24C34.17 24 33.5 23.33 33.5 22.5C33.5 21.32 32.68 20.5 31.5 20.5C30.32 20.5 29.5 21.32 29.5 22.5C29.5 23.33 28.83 24 28 24C27.17 24 26.5 23.33 26.5 22.5C26.5 19.65 28.65 17.5 31.5 17.5C34.35 17.5 36.5 19.65 36.5 22.5C36.5 23.33 35.83 24 35 24Z" fill="#34D399"/>
<path d="M22 24C21.17 24 20.5 23.33 20.5 22.5C20.5 21.32 19.68 20.5 18.5 20.5C17.32 20.5 16.5 21.32 16.5 22.5C16.5 23.33 15.83 24 15 24C14.17 24 13.5 23.33 13.5 22.5C13.5 19.65 15.65 17.5 18.5 17.5C21.35 17.5 23.5 19.65 23.5 22.5C23.5 23.33 22.83 24 22 24Z" fill="#34D399"/>
<path d="M25 38.5C18.22 38.5 14.15 33.7 13.08 30.47C12.82 29.68 13.24 28.83 14.03 28.57C14.82 28.31 15.67 28.73 15.93 29.52C16.7 31.83 19.85 35.49 25.01 35.49C30.17 35.49 33.32 31.83 34.09 29.52C34.35 28.73 35.19 28.31 35.99 28.57C36.78 28.83 37.2 29.68 36.94 30.47C35.85 33.7 31.79 38.5 25 38.5Z" fill="#34D399"/>
<path d="M70.504 35.004C65.274 35.004 60.164 32.984 59.944 32.894C59.174 32.584 58.804 31.714 59.104 30.944C59.414 30.174 60.284 29.804 61.054 30.104C61.114 30.134 65.864 32.004 70.504 32.004C75.144 32.004 79.904 30.134 79.944 30.114C80.714 29.804 81.584 30.184 81.894 30.954C82.204 31.724 81.824 32.594 81.054 32.904C80.844 32.984 75.734 35.004 70.504 35.004Z" fill="#34D399"/>
<path d="M71 46C59.42 46 50 36.58 50 25C50 13.42 59.42 4 71 4C82.58 4 92 13.42 92 25C92 36.58 82.58 46 71 46ZM71 8C61.63 8 54 15.63 54 25C54 34.37 61.63 42 71 42C80.37 42 88 34.37 88 25C88 15.63 80.38 8 71 8Z" fill="#34D399"/>
<path d="M77.5 26C75.02 26 73 23.98 73 21.5C73 19.02 75.02 17 77.5 17C79.98 17 82 19.02 82 21.5C82 23.98 79.98 26 77.5 26ZM77.5 20C76.67 20 76 20.67 76 21.5C76 22.33 76.67 23 77.5 23C78.33 23 79 22.33 79 21.5C79 20.67 78.33 20 77.5 20Z" fill="#34D399"/>
<path d="M64.5 26C62.02 26 60 23.98 60 21.5C60 19.02 62.02 17 64.5 17C66.98 17 69 19.02 69 21.5C69 23.98 66.98 26 64.5 26ZM64.5 20C63.67 20 63 20.67 63 21.5C63 22.33 63.67 23 64.5 23C65.33 23 66 22.33 66 21.5C66 20.67 65.33 20 64.5 20Z" fill="#34D399"/>
</svg>
