<svg width="32" height="32" viewBox="0 0 32 32" fill="none" xmlns="http://www.w3.org/2000/svg">
<g clip-path="url(#clip0_367_3903)">
<path fill-rule="evenodd" clip-rule="evenodd" d="M22 6C23.6569 6 25 4.65685 25 3C25 1.34315 23.6569 0 22 0C20.3431 0 19 1.34315 19 3C19 4.65685 20.3431 6 22 6ZM13 7C13 8.65685 11.6569 10 10 10C8.34315 10 7 8.65685 7 7C7 5.34315 8.34315 4 10 4C11.6569 4 13 5.34315 13 7ZM12.6506 16.4519C12.2208 17.5846 12 18.7868 12 20L12 25H12.0015C12.0015 25.6568 11.8721 26.3072 11.6208 26.914C11.3694 27.5208 11.001 28.0722 10.5366 28.5366C10.0722 29.001 9.5208 29.3694 8.91399 29.6208C8.30718 29.8721 7.65681 30.0015 7 30.0015C6.34319 30.0015 5.69282 29.8721 5.08601 29.6208C4.4792 29.3694 3.92784 29.001 3.46341 28.5366C2.99897 28.0722 2.63057 27.5208 2.37922 26.914C2.12787 26.3072 1.9985 25.6568 1.9985 25H2L2 24C2 22.9494 2.20693 21.9091 2.60896 20.9385C3.011 19.9679 3.60028 19.086 4.34315 18.3431C5.08601 17.6003 5.96793 17.011 6.93853 16.609C7.90914 16.2069 8.94943 16 10 16C10.9038 16 11.7999 16.1531 12.6506 16.4519ZM0 24C0 22.6868 0.258657 21.3864 0.761205 20.1732C1.26375 18.9599 2.00035 17.8575 2.92893 16.9289C3.85752 16.0003 4.95991 15.2638 6.17317 14.7612C7.38642 14.2587 8.68678 14 10 14C11.214 14 12.4171 14.2211 13.5505 14.6515C13.9441 14.0297 14.4061 13.4518 14.9289 12.9289C15.8575 12.0003 16.9599 11.2638 18.1732 10.7612C19.3864 10.2587 20.6868 10 22 10C23.3132 10 24.6136 10.2587 25.8268 10.7612C27.0401 11.2638 28.1425 12.0003 29.0711 12.9289C29.9997 13.8575 30.7362 14.9599 31.2388 16.1732C31.7413 17.3864 32 18.6868 32 20V25C32 25.9193 31.8189 26.8295 31.4672 27.6788C31.1154 28.5281 30.5998 29.2997 29.9497 29.9497C29.2997 30.5998 28.5281 31.1154 27.6788 31.4672C26.8295 31.8189 25.9193 32 25 32C24.0807 32 23.1705 31.8189 22.3212 31.4672C21.4719 31.1154 20.7003 30.5998 20.0503 29.9497C19.4002 29.2997 18.8846 28.5281 18.5328 27.6788C18.1811 26.8295 18 25.9193 18 25V24C18 22.9494 17.7931 21.9091 17.391 20.9385C16.989 19.9679 16.3997 19.086 15.6569 18.3431C15.2872 17.9735 14.8831 17.6419 14.4508 17.3524C14.1528 18.2022 14 19.0973 14 20L14 25C14 25.9193 13.8189 26.8295 13.4672 27.6788C13.1154 28.5281 12.5998 29.2997 11.9497 29.9497C11.2997 30.5998 10.5281 31.1154 9.67878 31.4672C8.8295 31.8189 7.91925 32 7 32C6.08075 32 5.17049 31.8189 4.32122 31.4672C3.47194 31.1154 2.70026 30.5998 2.05025 29.9497C1.40024 29.2997 0.884626 28.5281 0.532843 27.6788C0.18106 26.8295 0 25.9193 0 25V24ZM20 25V24C20 22.6868 19.7413 21.3864 19.2388 20.1732C18.7362 18.9599 17.9997 17.8575 17.0711 16.9289C16.5488 16.4067 15.9716 15.9452 15.3506 15.5519C15.6405 15.1186 15.9727 14.7136 16.3431 14.3431C17.086 13.6003 17.9679 13.011 18.9385 12.609C19.9091 12.2069 20.9494 12 22 12C23.0506 12 24.0909 12.2069 25.0615 12.609C26.0321 13.011 26.914 13.6003 27.6569 14.3431C28.3997 15.086 28.989 15.9679 29.391 16.9385C29.7931 17.9091 30 18.9494 30 20V25H30.0015C30.0015 25.6568 29.8721 26.3072 29.6208 26.914C29.3694 27.5208 29.001 28.0722 28.5366 28.5366C28.0722 29.001 27.5208 29.3694 26.914 29.6208C26.3072 29.8721 25.6568 30.0015 25 30.0015C24.3432 30.0015 23.6928 29.8721 23.086 29.6208C22.4792 29.3694 21.9278 29.001 21.4634 28.5366C20.999 28.0722 20.6306 27.5208 20.3792 26.914C20.1279 26.3072 19.9985 25.6568 19.9985 25H20Z" fill="url(#paint0_linear_367_3903)"/>
</g>
<defs>
<linearGradient id="paint0_linear_367_3903" x1="1" y1="-7.47852e-07" x2="31" y2="32" gradientUnits="userSpaceOnUse">
<stop offset="0.462494" stop-color="#10B981"/>
<stop offset="1" stop-color="#84CC16"/>
</linearGradient>
<clipPath id="clip0_367_3903">
<rect width="32" height="32" fill="white"/>
</clipPath>
</defs>
</svg>
