<svg width="64" height="45" viewBox="0 0 64 45" fill="none" xmlns="http://www.w3.org/2000/svg">
<path d="M24.8911 5.78563C26.48 5.78563 27.7731 4.48798 27.7731 2.89281C27.7731 1.29781 26.48 1.94308e-07 24.8911 1.94308e-07C23.3022 1.94308e-07 22.0094 1.29781 22.0094 2.89281C22.0094 4.48798 23.3022 5.78563 24.8911 5.78563ZM62.2067 27.2556C62.2067 22.4356 58.3003 18.5143 53.4986 18.5143C51.1635 18.5143 48.9753 19.4256 47.3307 21.0807C46.0021 22.4182 45.1575 24.1106 44.8853 25.9444C47.7591 27.8261 49.6628 31.0821 49.6628 34.7757V36.9039C49.6628 40.3753 52.4762 43.1999 55.9348 43.1999C59.3934 43.1999 62.2067 40.3753 62.2067 36.9039V27.2556ZM43.0264 39.3553L42.9963 27.2767C42.9958 27.1622 42.9976 27.0477 43.0008 26.9337C41.8433 26.3612 40.5416 26.0391 39.1663 26.0391C37.8124 26.0391 36.5293 26.3509 35.3855 26.9072V39.3651C35.3855 41.4796 37.0994 43.1999 39.2059 43.1999C40.2279 43.1999 41.1885 42.8 41.9104 42.0735C42.6323 41.3472 43.029 40.3816 43.0264 39.3553ZM33.5922 19.7494C33.5922 14.9337 29.6893 11.0155 24.8921 11.0155C20.5435 11.0155 16.93 14.2333 16.2907 18.4206C19.1866 20.3113 21.1052 23.5884 21.1052 27.3071V39.4035C21.1052 41.4969 22.8018 43.1999 24.8871 43.1999C26.9727 43.1999 28.6687 41.4969 28.6687 39.4035V34.7757C28.6687 31.0198 30.6372 27.7161 33.5922 25.85V19.7494ZM14.4021 19.4097C13.2399 18.8366 11.9328 18.5143 10.5526 18.5143C5.72263 18.5143 1.79326 22.4587 1.79326 27.3071V36.8741C1.79326 40.362 4.61991 43.1999 8.0948 43.1999C11.5697 43.1999 14.3968 40.362 14.3968 36.8741V19.7494C14.3968 19.6356 14.3986 19.5227 14.4021 19.4097V19.4097ZM64 27.2556V36.9039C64 41.3679 60.3817 45 55.9348 45C51.4878 45 47.8696 41.3679 47.8696 36.9039V34.7757C47.8696 32.1094 46.6732 29.718 44.7917 28.1144L44.8196 39.3508C44.8231 40.859 44.2406 42.2773 43.1798 43.3448C42.119 44.4122 40.7074 45 39.2059 45C36.1106 45 33.5922 42.4723 33.5922 39.3651V28.0702C31.6803 29.6742 30.462 32.0848 30.462 34.7757V39.4035C30.462 42.4895 27.961 45 24.8871 45C21.8131 45 19.3119 42.4895 19.3119 39.4035V27.3071C19.3119 24.6121 18.0981 22.1965 16.1901 20.5821V36.8741C16.1901 41.3547 12.5586 45 8.09525 45C3.63155 45 0 41.3547 0 36.8741V27.3071C0 21.4662 4.73375 16.7142 10.5526 16.7142C11.9969 16.7142 13.3749 17.0073 14.6298 17.5368C15.6451 12.7871 19.8599 9.21542 24.8908 9.21542C30.6782 9.21542 35.3855 13.941 35.3855 19.7494V24.9456C36.5589 24.4893 37.8336 24.239 39.1653 24.239C40.603 24.239 41.9735 24.5304 43.2223 25.0578C43.6362 23.0846 44.6087 21.2712 46.0613 19.8095C48.0446 17.8136 50.6838 16.7142 53.4924 16.7142C59.2892 16.7142 64 21.4433 64 27.2556V27.2556ZM11.0042 13.3106C12.5932 13.3106 13.8862 12.0128 13.8862 10.4178C13.8862 8.82281 12.5932 7.525 11.0042 7.525C9.41514 7.525 8.12249 8.82281 8.12249 10.4178C8.12249 12.0128 9.41514 13.3106 11.0042 13.3106V13.3106ZM53.4861 13.3106C55.075 13.3106 56.3681 12.0128 56.3681 10.4178C56.3681 8.82281 55.075 7.525 53.4861 7.525C51.897 7.525 50.6044 8.82281 50.6044 10.4178C50.6044 12.0128 51.897 13.3106 53.4861 13.3106V13.3106ZM37.115 18.8329C37.115 17.2379 38.4075 15.9401 39.9966 15.9401C41.5856 15.9401 42.8786 17.2379 42.8786 18.8329C42.8786 20.4281 41.5856 21.7259 39.9966 21.7259C38.4075 21.7259 37.115 20.4281 37.115 18.8329Z" fill="url(#paint0_linear_507_3937)"/>
<defs>
<linearGradient id="paint0_linear_507_3937" x1="1.90463" y1="9.32843" x2="59.5725" y2="43.7362" gradientUnits="userSpaceOnUse">
<stop offset="0.171875" stop-color="#5EEAD4"/>
<stop offset="0.572917" stop-color="#4ADE80"/>
<stop offset="1" stop-color="#FDE047"/>
</linearGradient>
</defs>
</svg>
