<svg width="64" height="48" viewBox="0 0 64 48" fill="none" xmlns="http://www.w3.org/2000/svg">
<path fill-rule="evenodd" clip-rule="evenodd" d="M28 3C28 4.65685 26.6569 6 25 6C23.3431 6 22 4.65685 22 3C22 1.34315 23.3431 0 25 0C26.6569 0 28 1.34315 28 3ZM18.7782 22.2218C17.9623 21.406 17.0245 20.7249 16 20.202L16 20C16 18.8181 16.2328 17.6478 16.6851 16.5558C17.1374 15.4639 17.8003 14.4718 18.636 13.636C19.4718 12.8003 20.4639 12.1374 21.5558 11.6851C22.6478 11.2328 23.8181 11 25 11C26.1819 11 27.3522 11.2328 28.4442 11.6851C29.5361 12.1374 30.5282 12.8003 31.364 13.636C32.1997 14.4718 32.8626 15.4639 33.3149 16.5559C33.7672 17.6478 34 18.8181 34 20V26.202C32.9755 26.7249 32.0377 27.406 31.2218 28.2218C30.2004 29.2433 29.3901 30.4559 28.8373 31.7905C28.2845 33.1251 28 34.5555 28 36V43C28 43.394 27.9224 43.7841 27.7716 44.148C27.6209 44.512 27.3999 44.8427 27.1213 45.1213C26.8427 45.3999 26.512 45.6209 26.1481 45.7716C25.7841 45.9224 25.394 46 25 46C24.606 46 24.2159 45.9224 23.8519 45.7716C23.488 45.6209 23.1573 45.3999 22.8787 45.1213C22.6001 44.8427 22.3791 44.512 22.2284 44.148C22.0776 43.7841 22 43.394 22 43L22 30C22 28.5555 21.7155 27.1251 21.1627 25.7905C20.6099 24.4559 19.7996 23.2433 18.7782 22.2218ZM36 25.417V20C36 18.5555 35.7155 17.1251 35.1627 15.7905C34.6099 14.4559 33.7996 13.2433 32.7782 12.2218C31.7567 11.2004 30.5441 10.3901 29.2095 9.83733C27.8749 9.28452 26.4445 9 25 9C23.5555 9 22.1251 9.28452 20.7905 9.83733C19.4559 10.3901 18.2433 11.2004 17.2218 12.2218C16.2004 13.2433 15.3901 14.4559 14.8373 15.7905C14.3585 16.9466 14.0809 18.1745 14.0152 19.4213C13.0365 19.1424 12.0218 19 11 19C9.55546 19 8.12506 19.2845 6.79048 19.8373C5.4559 20.3901 4.24327 21.2004 3.22183 22.2218C2.20038 23.2433 1.39013 24.4559 0.837325 25.7905C0.284522 27.1251 0 28.5555 0 30V40C0 41.0506 0.206926 42.0909 0.608963 43.0615C1.011 44.0321 1.60028 44.914 2.34315 45.6569C3.08601 46.3997 3.96793 46.989 4.93853 47.391C5.90914 47.7931 6.94942 48 8 48C9.05057 48 10.0909 47.7931 11.0615 47.391C12.0321 46.989 12.914 46.3997 13.6569 45.6569C14.3997 44.914 14.989 44.0321 15.391 43.0615C15.7931 42.0909 16 41.0506 16 40V22.5167C16.489 22.8434 16.9461 23.2181 17.364 23.636C18.1997 24.4718 18.8626 25.4639 19.3149 26.5559C19.7672 27.6478 20 28.8181 20 30L20 43C20 43.6566 20.1293 44.3068 20.3806 44.9134C20.6319 45.52 21.0002 46.0712 21.4645 46.5355C21.9288 46.9998 22.48 47.3681 23.0866 47.6194C23.6932 47.8707 24.3434 48 25 48C25.6566 48 26.3068 47.8707 26.9134 47.6194C27.52 47.3681 28.0712 46.9998 28.5355 46.5355C28.9998 46.0712 29.3681 45.52 29.6194 44.9134C29.8707 44.3068 30 43.6566 30 43V36C30 34.8181 30.2328 33.6478 30.6851 32.5558C31.1374 31.4639 31.8003 30.4718 32.636 29.636C33.0539 29.2181 33.511 28.8434 34 28.5167V43C34 43.6566 34.1293 44.3068 34.3806 44.9134C34.6319 45.52 35.0002 46.0712 35.4645 46.5355C35.9288 46.9998 36.48 47.3681 37.0866 47.6194C37.6932 47.8707 38.3434 48 39 48C39.6566 48 40.3068 47.8707 40.9134 47.6194C41.52 47.3681 42.0712 46.9998 42.5355 46.5355C42.9998 46.0712 43.3681 45.52 43.6194 44.9134C43.8707 44.3068 44 43.6566 44 43V28.5167C44.489 28.8434 44.9461 29.2181 45.364 29.636C46.1997 30.4718 46.8626 31.4639 47.3149 32.5559C47.7672 33.6478 48 34.8181 48 36V40C48 41.0506 48.2069 42.0909 48.609 43.0615C49.011 44.0321 49.6003 44.914 50.3431 45.6569C51.086 46.3997 51.9679 46.989 52.9385 47.391C53.9091 47.7931 54.9494 48 56 48C57.0506 48 58.0909 47.7931 59.0615 47.391C60.0321 46.989 60.914 46.3997 61.6569 45.6569C62.3997 44.914 62.989 44.0321 63.391 43.0615C63.7931 42.0909 64 41.0506 64 40V28C64 26.5555 63.7155 25.1251 63.1627 23.7905C62.6099 22.4559 61.7996 21.2433 60.7782 20.2218C59.7567 19.2004 58.5441 18.3901 57.2095 17.8373C55.8749 17.2845 54.4445 17 53 17C51.5555 17 50.1251 17.2845 48.7905 17.8373C47.4559 18.3901 46.2433 19.2004 45.2218 20.2218C44.2004 21.2433 43.3901 22.4559 42.8373 23.7905C42.607 24.3465 42.4232 24.9192 42.2872 25.5027C41.2251 25.1701 40.1168 25 39 25C37.9835 25 36.974 25.1409 36 25.417ZM62 28C62 26.8181 61.7672 25.6478 61.3149 24.5559C60.8626 23.4639 60.1997 22.4718 59.364 21.636C58.5282 20.8003 57.5361 20.1374 56.4442 19.6851C55.3522 19.2328 54.1819 19 53 19C51.8181 19 50.6478 19.2328 49.5559 19.6851C48.4639 20.1374 47.4718 20.8003 46.636 21.636C45.8003 22.4718 45.1374 23.4639 44.6851 24.5558C44.4533 25.1155 44.2791 25.6958 44.1644 26.2877C45.1249 26.7984 46.0062 27.4498 46.7782 28.2218C47.7996 29.2433 48.6099 30.4559 49.1627 31.7905C49.7155 33.1251 50 34.5555 50 36V40C50 40.7879 50.1552 41.5681 50.4567 42.2961C50.7583 43.0241 51.2002 43.6855 51.7574 44.2426C52.3145 44.7998 52.9759 45.2417 53.7039 45.5433C54.4319 45.8448 55.2121 46 56 46C56.7879 46 57.5681 45.8448 58.2961 45.5433C59.0241 45.2417 59.6855 44.7998 60.2426 44.2426C60.7998 43.6855 61.2417 43.0241 61.5433 42.2961C61.8448 41.5681 62 40.7879 62 40V28ZM42 28C42 27.8393 42.0035 27.6787 42.0105 27.5185C41.045 27.1757 40.0269 27 39 27C37.9769 27 36.9624 27.1744 36 27.5147V43C36 43.394 36.0776 43.7841 36.2284 44.148C36.3791 44.512 36.6001 44.8427 36.8787 45.1213C37.1573 45.3999 37.488 45.6209 37.8519 45.7716C38.2159 45.9224 38.606 46 39 46C39.394 46 39.7841 45.9224 40.148 45.7716C40.512 45.6209 40.8427 45.3999 41.1213 45.1213C41.3999 44.8427 41.6209 44.512 41.7716 44.148C41.9224 43.7841 42 43.394 42 43V28ZM14 21.5147V40C14 40.7879 13.8448 41.5681 13.5433 42.2961C13.2417 43.0241 12.7998 43.6855 12.2426 44.2426C11.6855 44.7998 11.0241 45.2417 10.2961 45.5433C9.56815 45.8448 8.78793 46 8 46C7.21207 46 6.43185 45.8448 5.7039 45.5433C4.97595 45.2417 4.31451 44.7998 3.75736 44.2426C3.20021 43.6855 2.75825 43.0241 2.45672 42.2961C2.15519 41.5681 2 40.7879 2 40L2 30C2 28.8181 2.23279 27.6478 2.68508 26.5558C3.13738 25.4639 3.80031 24.4718 4.63604 23.636C5.47177 22.8003 6.46392 22.1374 7.55585 21.6851C8.64778 21.2328 9.8181 21 11 21C12.0231 21 13.0376 21.1744 14 21.5147ZM11 16C12.6569 16 14 14.6569 14 13C14 11.3431 12.6569 10 11 10C9.34315 10 8 11.3431 8 13C8 14.6569 9.34315 16 11 16ZM43 19C43 20.6569 41.6569 22 40 22C38.3431 22 37 20.6569 37 19C37 17.3431 38.3431 16 40 16C41.6569 16 43 17.3431 43 19ZM53 14C54.6569 14 56 12.6569 56 11C56 9.34315 54.6569 8 53 8C51.3431 8 50 9.34315 50 11C50 12.6569 51.3431 14 53 14Z" fill="url(#paint0_linear_828_4561)"/>
<defs>
<linearGradient id="paint0_linear_828_4561" x1="11.7893" y1="-7.23683e-07" x2="47.5234" y2="50.8219" gradientUnits="userSpaceOnUse">
<stop offset="0.307292" stop-color="#10B981"/>
<stop offset="1" stop-color="#84CC16"/>
</linearGradient>
</defs>
</svg>
