<svg width="700" height="700" viewBox="0 0 700 700" fill="none" xmlns="http://www.w3.org/2000/svg">
<rect width="700" height="700" fill="white"/>
<path fill-rule="evenodd" clip-rule="evenodd" d="M434 206C453.882 206 470 189.882 470 170C470 150.118 453.882 134 434 134C414.118 134 398 150.118 398 170C398 189.882 414.118 206 434 206ZM302 266C302 285.882 285.882 302 266 302C246.118 302 230 285.882 230 266C230 246.118 246.118 230 266 230C285.882 230 302 246.118 302 266ZM338 350C342.533 353.399 346.829 357.123 350.853 361.147C361.996 372.29 370.835 385.519 376.866 400.078C382.896 414.637 386 430.241 386 446L386 470C386 479.455 387.862 488.818 391.481 497.553C395.099 506.289 400.403 514.226 407.088 520.912C413.774 527.598 421.711 532.901 430.447 536.519C439.182 540.138 448.545 542 458 542C467.455 542 476.818 540.138 485.553 536.519C494.289 532.901 502.226 527.598 508.912 520.912C515.598 514.226 520.901 506.289 524.519 497.553C528.138 488.818 530 479.455 530 470L530 350C530 337.393 527.517 324.91 522.692 313.262C517.868 301.615 510.797 291.032 501.882 282.118C492.968 273.203 482.385 266.132 470.738 261.308C459.09 256.483 446.607 254 434 254C421.393 254 408.91 256.483 397.262 261.308C385.615 266.132 375.032 273.203 366.118 282.118C357.203 291.032 350.132 301.615 345.308 313.262C340.483 324.91 338 337.393 338 350ZM354.692 409.262C350.636 399.47 344.992 390.43 338 382.502V470C338 482.607 335.517 495.09 330.692 506.738C325.868 518.385 318.797 528.968 309.882 537.882C300.968 546.797 290.385 553.868 278.738 558.692C267.09 563.517 254.607 566 242 566C229.393 566 216.91 563.517 205.262 558.692C193.615 553.868 183.032 546.797 174.118 537.882C165.203 528.968 158.132 518.385 153.308 506.738C148.483 495.09 146 482.607 146 470L146 446C146 430.241 149.104 414.637 155.134 400.078C161.165 385.519 170.004 372.29 181.147 361.147C192.29 350.004 205.519 341.165 220.078 335.134C234.637 329.104 250.241 326 266 326C281.759 326 297.363 329.104 311.922 335.134C312.88 335.531 313.832 335.94 314.778 336.361C316.045 325.285 318.851 314.418 323.134 304.078C329.165 289.519 338.004 276.29 349.147 265.147C360.29 254.004 373.519 245.165 388.078 239.134C402.637 233.104 418.241 230 434 230C449.759 230 465.363 233.104 479.922 239.134C494.481 245.165 507.71 254.004 518.853 265.147C529.996 276.29 538.835 289.519 544.866 304.078C550.896 318.637 554 334.241 554 350L554 470C554 482.607 551.517 495.09 546.692 506.738C541.868 518.385 534.797 528.968 525.882 537.882C516.968 546.797 506.385 553.868 494.738 558.692C483.09 563.517 470.607 566 458 566C445.393 566 432.91 563.517 421.262 558.692C409.615 553.868 399.032 546.797 390.118 537.882C381.203 528.968 374.132 518.385 369.308 506.738C364.483 495.09 362 482.607 362 470L362 446C362 433.393 359.517 420.91 354.692 409.262ZM170 470C170 479.455 171.862 488.818 175.481 497.553C179.099 506.289 184.403 514.226 191.088 520.912C197.774 527.598 205.711 532.901 214.447 536.519C223.182 540.138 232.545 542 242 542C251.455 542 260.818 540.138 269.553 536.519C278.289 532.901 286.226 527.598 292.912 520.912C299.598 514.226 304.901 506.289 308.519 497.553C312.138 488.818 314 479.455 314 470V362.862C310.379 360.771 306.617 358.915 302.738 357.308C291.09 352.483 278.607 350 266 350C253.393 350 240.91 352.483 229.262 357.308C217.615 362.132 207.032 369.203 198.118 378.118C189.203 387.032 182.132 397.615 177.308 409.262C172.483 420.91 170 433.393 170 446L170 470Z" fill="url(#paint0_linear_349_3269)"/>
<defs>
<linearGradient id="paint0_linear_349_3269" x1="221.157" y1="134" x2="562.911" y2="478.286" gradientUnits="userSpaceOnUse">
<stop offset="0.385417" stop-color="#34D399"/>
<stop offset="1" stop-color="#A3E635"/>
</linearGradient>
</defs>
</svg>
