<svg width="700" height="700" viewBox="0 0 700 700" fill="none" xmlns="http://www.w3.org/2000/svg">
<path fill-rule="evenodd" clip-rule="evenodd" d="M462 158C488.51 158 510 136.51 510 110C510 83.4903 488.51 62 462 62C435.49 62 414 83.4903 414 110C414 136.51 435.49 158 462 158ZM334 350C340.043 354.533 345.772 359.497 351.137 364.863C365.994 379.72 377.78 397.359 385.821 416.771C393.862 436.183 398 456.988 398 478V510C398 522.607 400.483 535.09 405.308 546.738C410.132 558.385 417.203 568.968 426.118 577.882C435.032 586.797 445.615 593.868 457.262 598.692C468.91 603.517 481.393 606 494 606C506.607 606 519.09 603.517 530.738 598.692C542.385 593.868 552.968 586.797 561.882 577.882C570.797 568.968 577.868 558.385 582.692 546.738C587.517 535.09 590 522.607 590 510L590 350C590 333.191 586.689 316.546 580.257 301.017C573.824 285.487 564.396 271.376 552.51 259.49C540.624 247.604 526.513 238.176 510.984 231.743C495.454 225.311 478.809 222 462 222C445.191 222 428.546 225.311 413.017 231.743C397.487 238.176 383.376 247.604 371.49 259.49C359.604 271.376 350.176 285.487 343.743 301.016C337.311 316.546 334 333.191 334 350ZM366 510V478C366 461.191 362.689 444.546 356.257 429.017C350.849 415.96 343.323 403.907 334 393.336L334 510C334 526.809 330.689 543.454 324.257 558.983C317.824 574.513 308.396 588.624 296.51 600.51C284.624 612.396 270.513 621.824 254.983 628.257C239.454 634.689 222.809 638 206 638C189.191 638 172.546 634.689 157.017 628.257C141.487 621.824 127.376 612.396 115.49 600.51C103.604 588.624 94.176 574.513 87.7434 558.983C81.3108 543.454 78 526.809 78 510L78 478C78 456.988 82.1385 436.183 90.1793 416.771C98.22 397.359 110.006 379.72 124.863 364.863C139.72 350.006 157.359 338.22 176.771 330.179C196.183 322.138 216.989 318 238 318C259.012 318 279.817 322.139 299.229 330.179C300.506 330.708 301.776 331.253 303.037 331.814C304.726 317.047 308.469 302.557 314.179 288.771C322.22 269.359 334.006 251.72 348.863 236.863C363.72 222.006 381.359 210.22 400.771 202.179C420.183 194.139 440.989 190 462 190C483.012 190 503.817 194.139 523.229 202.179C542.641 210.22 560.28 222.006 575.137 236.863C589.994 251.72 601.78 269.359 609.821 288.771C617.862 308.183 622 328.988 622 350V510C622 526.809 618.689 543.454 612.257 558.983C605.824 574.513 596.396 588.624 584.51 600.51C572.624 612.396 558.513 621.824 542.983 628.257C527.454 634.689 510.809 638 494 638C477.191 638 460.546 634.689 445.017 628.257C429.487 621.824 415.376 612.396 403.49 600.51C391.604 588.624 382.176 574.513 375.743 558.983C369.311 543.454 366 526.809 366 510ZM110 478L110 510C110 522.607 112.483 535.09 117.308 546.738C122.132 558.385 129.203 568.968 138.118 577.882C147.032 586.797 157.615 593.868 169.262 598.692C180.91 603.517 193.393 606 206 606C218.607 606 231.09 603.517 242.738 598.692C254.385 593.868 264.968 586.797 273.882 577.882C282.797 568.968 289.868 558.385 294.692 546.738C299.517 535.09 302 522.607 302 510L302 367.149C297.172 364.361 292.156 361.886 286.984 359.743C271.454 353.311 254.809 350 238 350C221.191 350 204.546 353.311 189.017 359.743C173.487 366.176 159.376 375.604 147.49 387.49C135.604 399.376 126.176 413.487 119.743 429.016C113.311 444.546 110 461.191 110 478ZM286 238C286 264.51 264.51 286 238 286C211.49 286 190 264.51 190 238C190 211.49 211.49 190 238 190C264.51 190 286 211.49 286 238Z" fill="url(#paint0_linear_349_3269)"/>
<path fill-rule="evenodd" clip-rule="evenodd" d="M462 158C488.51 158 510 136.51 510 110C510 83.4903 488.51 62 462 62C435.49 62 414 83.4903 414 110C414 136.51 435.49 158 462 158ZM334 350C340.043 354.533 345.772 359.497 351.137 364.863C365.994 379.72 377.78 397.359 385.821 416.771C393.862 436.183 398 456.988 398 478V510C398 522.607 400.483 535.09 405.308 546.738C410.132 558.385 417.203 568.968 426.118 577.882C435.032 586.797 445.615 593.868 457.262 598.692C468.91 603.517 481.393 606 494 606C506.607 606 519.09 603.517 530.738 598.692C542.385 593.868 552.968 586.797 561.882 577.882C570.797 568.968 577.868 558.385 582.692 546.738C587.517 535.09 590 522.607 590 510L590 350C590 333.191 586.689 316.546 580.257 301.017C573.824 285.487 564.396 271.376 552.51 259.49C540.624 247.604 526.513 238.176 510.984 231.743C495.454 225.311 478.809 222 462 222C445.191 222 428.546 225.311 413.017 231.743C397.487 238.176 383.376 247.604 371.49 259.49C359.604 271.376 350.176 285.487 343.743 301.016C337.311 316.546 334 333.191 334 350ZM366 510V478C366 461.191 362.689 444.546 356.257 429.017C350.849 415.96 343.323 403.907 334 393.336L334 510C334 526.809 330.689 543.454 324.257 558.983C317.824 574.513 308.396 588.624 296.51 600.51C284.624 612.396 270.513 621.824 254.983 628.257C239.454 634.689 222.809 638 206 638C189.191 638 172.546 634.689 157.017 628.257C141.487 621.824 127.376 612.396 115.49 600.51C103.604 588.624 94.176 574.513 87.7434 558.983C81.3108 543.454 78 526.809 78 510L78 478C78 456.988 82.1385 436.183 90.1793 416.771C98.22 397.359 110.006 379.72 124.863 364.863C139.72 350.006 157.359 338.22 176.771 330.179C196.183 322.138 216.989 318 238 318C259.012 318 279.817 322.139 299.229 330.179C300.506 330.708 301.776 331.253 303.037 331.814C304.726 317.047 308.469 302.557 314.179 288.771C322.22 269.359 334.006 251.72 348.863 236.863C363.72 222.006 381.359 210.22 400.771 202.179C420.183 194.139 440.989 190 462 190C483.012 190 503.817 194.139 523.229 202.179C542.641 210.22 560.28 222.006 575.137 236.863C589.994 251.72 601.78 269.359 609.821 288.771C617.862 308.183 622 328.988 622 350V510C622 526.809 618.689 543.454 612.257 558.983C605.824 574.513 596.396 588.624 584.51 600.51C572.624 612.396 558.513 621.824 542.983 628.257C527.454 634.689 510.809 638 494 638C477.191 638 460.546 634.689 445.017 628.257C429.487 621.824 415.376 612.396 403.49 600.51C391.604 588.624 382.176 574.513 375.743 558.983C369.311 543.454 366 526.809 366 510ZM110 478L110 510C110 522.607 112.483 535.09 117.308 546.738C122.132 558.385 129.203 568.968 138.118 577.882C147.032 586.797 157.615 593.868 169.262 598.692C180.91 603.517 193.393 606 206 606C218.607 606 231.09 603.517 242.738 598.692C254.385 593.868 264.968 586.797 273.882 577.882C282.797 568.968 289.868 558.385 294.692 546.738C299.517 535.09 302 522.607 302 510L302 367.149C297.172 364.361 292.156 361.886 286.984 359.743C271.454 353.311 254.809 350 238 350C221.191 350 204.546 353.311 189.017 359.743C173.487 366.176 159.376 375.604 147.49 387.49C135.604 399.376 126.176 413.487 119.743 429.016C113.311 444.546 110 461.191 110 478ZM286 238C286 264.51 264.51 286 238 286C211.49 286 190 264.51 190 238C190 211.49 211.49 190 238 190C264.51 190 286 211.49 286 238Z" fill="url(#paint1_linear_349_3269)"/>
<defs>
<linearGradient id="paint0_linear_349_3269" x1="416.857" y1="138.099" x2="516.599" y2="96.2555" gradientUnits="userSpaceOnUse">
<stop offset="0.171875" stop-color="#2DD4BF"/>
<stop offset="0.40625" stop-color="#4ADE80"/>
<stop offset="0.645833" stop-color="#FDE047"/>
<stop offset="0.911458" stop-color="#FB923C"/>
</linearGradient>
<linearGradient id="paint1_linear_349_3269" x1="94.1893" y1="518.596" x2="668.68" y2="290.974" gradientUnits="userSpaceOnUse">
<stop offset="0.171875" stop-color="#2DD4BF"/>
<stop offset="0.40625" stop-color="#4ADE80"/>
<stop offset="0.645833" stop-color="#FDE047"/>
<stop offset="0.911458" stop-color="#FB923C"/>
</linearGradient>
</defs>
</svg>
