<svg width="700" height="700" viewBox="0 0 700 700" fill="none" xmlns="http://www.w3.org/2000/svg">
<rect width="700" height="700" fill="white"/>
<g clip-path="url(#clip0_349_3269)">
<path fill-rule="evenodd" clip-rule="evenodd" d="M318 182C318 195.255 307.255 206 294 206C280.745 206 270 195.255 270 182C270 168.745 280.745 158 294 158C307.255 158 318 168.745 318 182ZM244.225 335.775C237.699 329.248 230.196 323.799 222 319.616L222 318C222 308.545 223.862 299.182 227.481 290.447C231.099 281.711 236.402 273.774 243.088 267.088C249.774 260.402 257.711 255.099 266.447 251.481C275.182 247.862 284.545 246 294 246C303.455 246 312.818 247.862 321.553 251.481C330.289 255.099 338.226 260.403 344.912 267.088C351.598 273.774 356.901 281.711 360.519 290.447C364.138 299.182 366 308.545 366 318V367.616C357.804 371.799 350.301 377.248 343.775 383.775C335.603 391.946 329.121 401.647 324.699 412.324C320.276 423.001 318 434.444 318 446L318 502C318 505.152 317.379 508.273 316.173 511.184C314.967 514.096 313.199 516.742 310.971 518.971C308.742 521.199 306.096 522.967 303.184 524.173C300.273 525.379 297.152 526 294 526C290.848 526 287.727 525.379 284.816 524.173C281.904 522.967 279.258 521.199 277.029 518.971C274.801 516.742 273.033 514.096 271.827 511.184C270.621 508.273 270 505.152 270 502L270 398C270 386.444 267.724 375.001 263.301 364.324C258.879 353.647 252.397 343.946 244.225 335.775ZM382 361.336V318C382 306.444 379.724 295.001 375.301 284.324C370.879 273.647 364.397 263.946 356.225 255.775C348.054 247.603 338.353 241.121 327.676 236.699C317 232.276 305.556 230 294 230C282.444 230 271.001 232.276 260.324 236.699C249.647 241.121 239.946 247.603 231.775 255.775C223.603 263.946 217.121 273.647 212.699 284.324C208.868 293.572 206.647 303.396 206.122 313.371C198.292 311.139 190.174 310 182 310C170.444 310 159.001 312.276 148.324 316.699C137.647 321.121 127.946 327.603 119.775 335.775C111.603 343.946 105.121 353.647 100.699 364.324C96.2762 375.001 94 386.444 94 398L94 478C94 486.405 95.6554 494.727 98.8717 502.492C102.088 510.257 106.802 517.312 112.745 523.255C118.688 529.198 125.743 533.912 133.508 537.128C141.273 540.345 149.595 542 158 542C166.405 542 174.727 540.345 182.492 537.128C190.257 533.912 197.312 529.198 203.255 523.255C209.198 517.312 213.912 510.257 217.128 502.492C220.345 494.727 222 486.405 222 478V338.133C225.912 340.748 229.568 343.745 232.912 347.088C239.598 353.774 244.901 361.711 248.519 370.447C252.138 379.182 254 388.545 254 398L254 502C254 507.253 255.035 512.454 257.045 517.307C259.055 522.16 262.001 526.57 265.716 530.284C269.43 533.999 273.84 536.945 278.693 538.955C283.546 540.965 288.747 542 294 542C299.253 542 304.454 540.965 309.307 538.955C314.16 536.945 318.57 533.999 322.284 530.284C325.999 526.57 328.945 522.16 330.955 517.307C332.965 512.454 334 507.253 334 502L334 446C334 436.545 335.862 427.182 339.481 418.447C343.099 409.711 348.402 401.774 355.088 395.088C358.432 391.745 362.088 388.748 366 386.133V502C366 507.253 367.035 512.454 369.045 517.307C371.055 522.16 374.001 526.57 377.716 530.284C381.43 533.999 385.84 536.945 390.693 538.955C395.546 540.965 400.747 542 406 542C411.253 542 416.454 540.965 421.307 538.955C426.16 536.945 430.57 533.999 434.284 530.284C437.999 526.57 440.945 522.16 442.955 517.307C444.965 512.454 446 507.253 446 502V386.133C449.912 388.748 453.569 391.745 456.912 395.088C463.598 401.774 468.901 409.711 472.519 418.447C476.138 427.182 478 436.545 478 446V478C478 486.405 479.655 494.727 482.872 502.492C486.088 510.257 490.802 517.312 496.745 523.255C502.688 529.198 509.743 533.912 517.508 537.128C525.273 540.345 533.595 542 542 542C550.405 542 558.727 540.345 566.492 537.128C574.257 533.912 581.312 529.198 587.255 523.255C593.198 517.312 597.912 510.257 601.128 502.492C604.345 494.727 606 486.405 606 478L606 382C606 370.444 603.724 359.001 599.301 348.324C594.879 337.647 588.397 327.946 580.225 319.775C572.054 311.603 562.353 305.121 551.676 300.699C540.999 296.276 529.556 294 518 294C506.444 294 495.001 296.276 484.324 300.699C473.647 305.121 463.946 311.603 455.775 319.775C447.603 327.946 441.121 337.647 436.699 348.324C434.856 352.772 433.386 357.354 432.298 362.021C423.801 359.36 414.934 358 406 358C397.868 358 389.792 359.127 382 361.336ZM590 382C590 372.545 588.138 363.182 584.519 354.447C580.901 345.711 575.598 337.774 568.912 331.088C562.226 324.403 554.289 319.099 545.553 315.481C536.818 311.862 527.455 310 518 310C508.545 310 499.182 311.862 490.447 315.481C481.711 319.099 473.774 324.402 467.088 331.088C460.403 337.774 455.099 345.711 451.481 354.447C449.626 358.924 448.233 363.566 447.315 368.301C455 372.388 462.049 377.599 468.225 383.775C476.397 391.946 482.879 401.647 487.301 412.324C491.724 423.001 494 434.444 494 446V478C494 484.303 495.242 490.545 497.654 496.369C500.066 502.192 503.602 507.484 508.059 511.941C512.516 516.398 517.808 519.934 523.631 522.346C529.455 524.758 535.697 526 542 526C548.303 526 554.545 524.758 560.369 522.346C566.192 519.934 571.484 516.398 575.941 511.941C580.398 507.484 583.934 502.192 586.346 496.369C588.758 490.545 590 484.303 590 478L590 382ZM430 382C430 380.714 430.028 379.43 430.084 378.148C422.36 375.406 414.215 374 406 374C397.815 374 389.699 375.396 382 378.118V502C382 505.152 382.621 508.273 383.827 511.184C385.033 514.096 386.801 516.742 389.029 518.971C391.258 521.199 393.904 522.967 396.816 524.173C399.727 525.379 402.848 526 406 526C409.152 526 412.273 525.379 415.184 524.173C418.096 522.967 420.742 521.199 422.971 518.971C425.199 516.742 426.967 514.096 428.173 511.184C429.379 508.273 430 505.152 430 502V382ZM206 330.118V478C206 484.303 204.758 490.545 202.346 496.369C199.934 502.192 196.398 507.484 191.941 511.941C187.484 516.398 182.192 519.934 176.369 522.346C170.545 524.758 164.303 526 158 526C151.697 526 145.455 524.758 139.631 522.346C133.808 519.934 128.516 516.398 124.059 511.941C119.602 507.484 116.066 502.192 113.654 496.369C111.242 490.545 110 484.303 110 478L110 398C110 388.545 111.862 379.182 115.481 370.447C119.099 361.711 124.403 353.774 131.088 347.088C137.774 340.402 145.711 335.099 154.447 331.481C163.182 327.862 172.545 326 182 326C190.185 326 198.301 327.396 206 330.118ZM182 286C195.255 286 206 275.255 206 262C206 248.745 195.255 238 182 238C168.745 238 158 248.745 158 262C158 275.255 168.745 286 182 286ZM438 310C438 323.255 427.255 334 414 334C400.745 334 390 323.255 390 310C390 296.745 400.745 286 414 286C427.255 286 438 296.745 438 310ZM518 270C531.255 270 542 259.255 542 246C542 232.745 531.255 222 518 222C504.745 222 494 232.745 494 246C494 259.255 504.745 270 518 270Z" fill="url(#paint0_linear_349_3269)"/>
</g>
<defs>
<linearGradient id="paint0_linear_349_3269" x1="188.314" y1="158" x2="474.187" y2="564.575" gradientUnits="userSpaceOnUse">
<stop offset="0.385417" stop-color="#34D399"/>
<stop offset="1" stop-color="#A3E635"/>
</linearGradient>
<clipPath id="clip0_349_3269">
<rect width="512" height="384" fill="white" transform="translate(94 158)"/>
</clipPath>
</defs>
</svg>
