<svg width="97" height="96" viewBox="0 0 97 96" fill="none" xmlns="http://www.w3.org/2000/svg">
    <path
        d="M50.6172 10.4549C17.8783 4.2044 11.8359 19.1796 3.37657 34.6757C-3.10528 51.6043 4.69491 61.7614 14.4726 76.8668C24.2503 91.9723 45.0142 85.7218 60.7245 76.8668C76.4347 68.0119 99.6155 57.3339 96.7591 33.5038C93.9027 9.67361 83.356 16.7055 50.6172 10.4549Z"
        fill="#A7F3D0" />
    <path
        d="M79.05 16.9498C77.3417 15.2264 75.3089 13.8585 73.0691 12.9249C70.8292 11.9914 68.4267 11.5107 66 11.5107C63.5734 11.5107 61.1708 11.9914 58.931 12.9249C56.6911 13.8585 54.6584 15.2264 52.95 16.9498L16.95 52.9498C13.489 56.4109 11.5446 61.1051 11.5446 65.9998C11.5446 70.8945 13.489 75.5887 16.95 79.0498C20.4111 82.5109 25.1053 84.4553 30 84.4553C34.8947 84.4553 39.589 82.5109 43.05 79.0498L79.05 43.0498C82.5033 39.5846 84.4423 34.8919 84.4423 29.9998C84.4423 25.1077 82.5033 20.415 79.05 16.9498V16.9498ZM40.95 76.9498C38.0307 79.78 34.1156 81.3486 30.0498 81.3171C25.9839 81.2855 22.0936 79.6564 19.2185 76.7814C16.3435 73.9063 14.7143 70.0159 14.6828 65.9501C14.6513 61.8843 16.2199 57.9691 19.05 55.0498L36 38.1373L57.8625 59.9998L40.95 76.9498ZM76.95 40.9498L60 57.8623L38.1375 35.9998L55.05 19.0498C57.9693 16.2197 61.8845 14.6511 65.9503 14.6826C70.0161 14.7141 73.9065 16.3432 76.7816 19.2183C79.6566 22.0934 81.2858 25.9837 81.3173 30.0495C81.3488 34.1154 79.7802 38.0305 76.95 40.9498V40.9498ZM70.275 32.1373C70.5473 32.4289 70.6956 32.8148 70.6886 33.2137C70.6816 33.6125 70.5199 33.993 70.2375 34.2748L61.05 43.0873C60.9227 43.2297 60.7666 43.3434 60.5921 43.421C60.4175 43.4986 60.2285 43.5382 60.0375 43.5373C59.8314 43.542 59.6269 43.5006 59.4388 43.4163C59.2507 43.332 59.0837 43.2068 58.95 43.0498C58.6801 42.7645 58.5329 42.3848 58.5399 41.9922C58.5469 41.5995 58.7076 41.2253 58.9875 40.9498L68.1375 32.0998C68.4291 31.8276 68.815 31.6793 69.2139 31.6863C69.6127 31.6933 69.9932 31.855 70.275 32.1373V32.1373Z"
        fill="#2F363D" />
</svg>