<svg width="97" height="96" viewBox="0 0 97 96" fill="none" xmlns="http://www.w3.org/2000/svg">
<path d="M50.6172 10.4549C17.8783 4.2044 11.8359 19.1796 3.37657 34.6757C-3.10528 51.6043 4.69491 61.7614 14.4726 76.8668C24.2503 91.9723 45.0142 85.7218 60.7245 76.8668C76.4347 68.0119 99.6155 57.3339 96.7591 33.5038C93.9027 9.67361 83.356 16.7055 50.6172 10.4549Z" fill="#A7F3D0"/>
<path d="M15.9999 84.0001V56.0001" stroke="#2F363D" stroke-width="3" stroke-linecap="round" stroke-linejoin="round"/>
<path d="M15.9999 40V12" stroke="#2F363D" stroke-width="3" stroke-linecap="round" stroke-linejoin="round"/>
<path d="M48 84V48" stroke="#2F363D" stroke-width="3" stroke-linecap="round" stroke-linejoin="round"/>
<path d="M48 32V12" stroke="#2F363D" stroke-width="3" stroke-linecap="round" stroke-linejoin="round"/>
<path d="M80.0001 83.9999V63.9999" stroke="#2F363D" stroke-width="3" stroke-linecap="round" stroke-linejoin="round"/>
<path d="M80.0001 48V12" stroke="#2F363D" stroke-width="3" stroke-linecap="round" stroke-linejoin="round"/>
<path d="M3.99988 56.0001H27.9999" stroke="#2F363D" stroke-width="3" stroke-linecap="round" stroke-linejoin="round"/>
<path d="M36 32.0001H60" stroke="#2F363D" stroke-width="3" stroke-linecap="round" stroke-linejoin="round"/>
<path d="M68.0001 63.9999H92.0001" stroke="#2F363D" stroke-width="3" stroke-linecap="round" stroke-linejoin="round"/>
</svg>
