<svg width="96" height="96" viewBox="0 0 96 96" fill="none" xmlns="http://www.w3.org/2000/svg">
    <path d="M79.2681 86.7424C64.4915 91.3205 59.1262 82.5713 44.3495 73.822C18.1384 58.3024 -4.99373 57.1372 2.3945 34.7554C7.18247 20.2507 17.9627 20.9193 39.424 17.1551C60.8853 13.3909 62.2046 5.96415 73.551 10.3388C84.8973 14.7134 79.2681 25.0905 90.6144 44.2168C101.961 63.3432 94.0447 82.1643 79.2681 86.7424Z" fill="#0f766e" />
    <path d="M79.9999 48V88H15.9999V48" stroke="#6ee7b7" stroke-width="3" stroke-linecap="round" stroke-linejoin="round" />
    <path d="M88.0001 28H8.00012V48H88.0001V28Z" stroke="#6ee7b7" stroke-width="3" stroke-linecap="round" stroke-linejoin="round" />
    <path d="M48 88V28" stroke="#6ee7b7" stroke-width="3" stroke-linecap="round" stroke-linejoin="round" />
    <path d="M48.0001 28H30.0001C27.348 28 24.8044 26.9464 22.9291 25.0711C21.0537 23.1957 20.0001 20.6522 20.0001 18C20.0001 15.3478 21.0537 12.8043 22.9291 10.9289C24.8044 9.05357 27.348 8 30.0001 8C44.0001 8 48.0001 28 48.0001 28Z" stroke="#6ee7b7" stroke-width="3" stroke-linecap="round" stroke-linejoin="round" />
    <path d="M48 28H66C68.6522 28 71.1957 26.9464 73.0711 25.0711C74.9464 23.1957 76 20.6522 76 18C76 15.3478 74.9464 12.8043 73.0711 10.9289C71.1957 9.05357 68.6522 8 66 8C52 8 48 28 48 28Z" stroke="#6ee7b7" stroke-width="3" stroke-linecap="round" stroke-linejoin="round" />
</svg>