<svg width="97" height="96" viewBox="0 0 97 96" fill="none" xmlns="http://www.w3.org/2000/svg">
<path d="M47.3828 84.5451C80.1217 90.7956 86.1641 75.8204 94.6234 60.3243C101.105 43.3957 93.3051 33.2386 83.5274 18.1332C73.7497 3.0277 52.9858 9.27824 37.2755 18.1332C21.5653 26.9881 -1.61554 37.6661 1.24087 61.4962C4.09727 85.3264 14.644 78.2945 47.3828 84.5451Z" fill="#FBBF24"/>
<path d="M36 72V20L84 12V64" stroke="#2F363D" stroke-width="3" stroke-linecap="round" stroke-linejoin="round"/>
<path d="M24 84C30.6274 84 36 78.6274 36 72C36 65.3726 30.6274 60 24 60C17.3726 60 12 65.3726 12 72C12 78.6274 17.3726 84 24 84Z" stroke="#2F363D" stroke-width="3" stroke-linecap="round" stroke-linejoin="round"/>
<path d="M72 76C78.6274 76 84 70.6274 84 64C84 57.3726 78.6274 52 72 52C65.3726 52 60 57.3726 60 64C60 70.6274 65.3726 76 72 76Z" stroke="#2F363D" stroke-width="3" stroke-linecap="round" stroke-linejoin="round"/>
</svg>
