<svg width="97" height="96" viewBox="0 0 97 96" fill="none" xmlns="http://www.w3.org/2000/svg">
<path d="M50.6172 10.4549C17.8783 4.2044 11.8359 19.1796 3.37657 34.6757C-3.10528 51.6043 4.69491 61.7614 14.4726 76.8668C24.2503 91.9723 45.0142 85.7218 60.7245 76.8668C76.4347 68.0119 99.6155 57.3339 96.7591 33.5038C93.9027 9.67361 83.356 16.7055 50.6172 10.4549Z" fill="#A7F3D0"/>
<path d="M63.9999 12H3.99988V64H63.9999V12Z" stroke="#2F363D" stroke-width="3" stroke-linecap="round" stroke-linejoin="round"/>
<path d="M63.9999 32H79.9999L91.9999 44V64H63.9999V32Z" stroke="#2F363D" stroke-width="3" stroke-linecap="round" stroke-linejoin="round"/>
<path d="M22 84C27.5228 84 32 79.5228 32 74C32 68.4772 27.5228 64 22 64C16.4772 64 12 68.4772 12 74C12 79.5228 16.4772 84 22 84Z" stroke="#2F363D" stroke-width="3" stroke-linecap="round" stroke-linejoin="round"/>
<path d="M73.9999 84C79.5227 84 83.9999 79.5228 83.9999 74C83.9999 68.4772 79.5227 64 73.9999 64C68.477 64 63.9999 68.4772 63.9999 74C63.9999 79.5228 68.477 84 73.9999 84Z" stroke="#2F363D" stroke-width="3" stroke-linecap="round" stroke-linejoin="round"/>
</svg>
