<svg width="96" height="96" viewBox="0 0 96 96" fill="none" xmlns="http://www.w3.org/2000/svg">
<path d="M79.2681 86.7424C64.4915 91.3205 59.1262 82.5713 44.3495 73.822C18.1384 58.3024 -4.99373 57.1372 2.3945 34.7554C7.18247 20.2507 17.9627 20.9193 39.424 17.1551C60.8853 13.3909 62.2046 5.96415 73.551 10.3388C84.8973 14.7134 79.2681 25.0905 90.6144 44.2168C101.961 63.3432 94.0447 82.1643 79.2681 86.7424Z" fill="#A7F3D0"/>
<path d="M48 4C44.8174 4 41.7652 5.26428 39.5147 7.51472C37.2643 9.76516 36 12.8174 36 16V48C36 51.1826 37.2643 54.2348 39.5147 56.4853C41.7652 58.7357 44.8174 60 48 60C51.1826 60 54.2348 58.7357 56.4853 56.4853C58.7357 54.2348 60 51.1826 60 48V16C60 12.8174 58.7357 9.76516 56.4853 7.51472C54.2348 5.26428 51.1826 4 48 4V4Z" stroke="#2F363D" stroke-width="3" stroke-linecap="round" stroke-linejoin="round"/>
<path d="M76.0001 40V48C76.0001 55.4261 73.0501 62.548 67.7991 67.799C62.5481 73.05 55.4262 76 48.0001 76C40.5741 76 33.4522 73.05 28.2011 67.799C22.9501 62.548 20.0001 55.4261 20.0001 48V40" stroke="#2F363D" stroke-width="3" stroke-linecap="round" stroke-linejoin="round"/>
<path d="M48 76V92" stroke="#2F363D" stroke-width="3" stroke-linecap="round" stroke-linejoin="round"/>
<path d="M32.0001 92H64.0001" stroke="#2F363D" stroke-width="3" stroke-linecap="round" stroke-linejoin="round"/>
</svg>
