<svg width="96" height="96" viewBox="0 0 96 96" fill="none" xmlns="http://www.w3.org/2000/svg">
<path d="M79.2681 86.7424C64.4915 91.3205 59.1262 82.5713 44.3495 73.822C18.1384 58.3024 -4.99373 57.1372 2.3945 34.7554C7.18247 20.2507 17.9627 20.9193 39.424 17.1551C60.8853 13.3909 62.2046 5.96415 73.551 10.3388C84.8973 14.7134 79.2681 25.0905 90.6144 44.2168C101.961 63.3432 94.0447 82.1643 79.2681 86.7424Z" fill="#A7F3D0"/>
<path d="M16.0001 15.9999H80.0001C84.4001 15.9999 88.0001 19.5999 88.0001 23.9999V71.9999C88.0001 76.3999 84.4001 79.9999 80.0001 79.9999H16.0001C11.6001 79.9999 8.00012 76.3999 8.00012 71.9999V23.9999C8.00012 19.5999 11.6001 15.9999 16.0001 15.9999Z" stroke="#2F363D" stroke-width="3" stroke-linecap="round" stroke-linejoin="round"/>
<path d="M88.0001 24L48.0001 52L8.00012 24" stroke="#2F363D" stroke-width="3" stroke-linecap="round" stroke-linejoin="round"/>
</svg>
