<svg width="96" height="96" viewBox="0 0 96 96" fill="none" xmlns="http://www.w3.org/2000/svg">
<path d="M17.7319 10.2576C32.5085 5.67947 37.8738 14.4287 52.6505 23.178C78.8616 38.6976 101.994 39.8628 94.6055 62.2446C89.8175 76.7493 79.0373 76.0807 57.576 79.8449C36.1147 83.6091 34.7954 91.0358 23.449 86.6612C12.1027 82.2866 17.7319 71.9095 6.38556 52.7832C-4.96078 33.6568 2.95527 14.8357 17.7319 10.2576Z" fill="#A7F3D0"/>
<path d="M3.99988 48C3.99988 48 19.9999 16 47.9999 16C75.9999 16 91.9999 48 91.9999 48C91.9999 48 75.9999 80 47.9999 80C19.9999 80 3.99988 48 3.99988 48Z" stroke="#2F363D" stroke-width="3" stroke-linecap="round" stroke-linejoin="round"/>
<path d="M48 60C54.6274 60 60 54.6274 60 48C60 41.3726 54.6274 36 48 36C41.3726 36 36 41.3726 36 48C36 54.6274 41.3726 60 48 60Z" stroke="#2F363D" stroke-width="3" stroke-linecap="round" stroke-linejoin="round"/>
</svg>
