<svg width="97" height="96" viewBox="0 0 97 96" fill="none" xmlns="http://www.w3.org/2000/svg">
<path d="M47.3828 84.5451C80.1217 90.7956 86.1641 75.8204 94.6234 60.3243C101.105 43.3957 93.3051 33.2386 83.5274 18.1332C73.7497 3.0277 52.9858 9.27824 37.2755 18.1332C21.5653 26.9881 -1.61554 37.6661 1.24087 61.4962C4.09727 85.3264 14.644 78.2945 47.3828 84.5451Z" fill="#A7F3D0"/>
<path d="M55.9999 8H23.9999C21.8781 8 19.8433 8.84285 18.343 10.3431C16.8427 11.8434 15.9999 13.8783 15.9999 16V80C15.9999 82.1217 16.8427 84.1566 18.343 85.6569C19.8433 87.1571 21.8781 88 23.9999 88H71.9999C74.1216 88 76.1564 87.1571 77.6567 85.6569C79.157 84.1566 79.9999 82.1217 79.9999 80V32L55.9999 8Z" stroke="#2F363D" stroke-width="3" stroke-linecap="round" stroke-linejoin="round"/>
<path d="M56.0001 8V32H80.0001" stroke="#2F363D" stroke-width="3" stroke-linecap="round" stroke-linejoin="round"/>
<path d="M64.0001 52H32.0001" stroke="#2F363D" stroke-width="3" stroke-linecap="round" stroke-linejoin="round"/>
<path d="M64.0001 68H32.0001" stroke="#2F363D" stroke-width="3" stroke-linecap="round" stroke-linejoin="round"/>
<path d="M40.0001 36H36.0001H32.0001" stroke="#2F363D" stroke-width="3" stroke-linecap="round" stroke-linejoin="round"/>
</svg>
