<svg width="36" height="36" viewBox="0 0 36 36" fill="none" xmlns="http://www.w3.org/2000/svg">
    <path
        d="M29.7255 32.5284C24.1843 34.2452 22.1723 30.9642 16.6311 27.6832C6.80191 21.8634 -1.87265 21.4265 0.897937 13.0333C2.69342 7.59401 6.73602 7.84475 14.784 6.43316C22.832 5.02158 23.3267 2.23656 27.5816 3.87705C31.8365 5.51754 29.7255 9.40893 33.9804 16.5813C38.2353 23.7537 35.2668 30.8116 29.7255 32.5284Z"
        fill="#34D399" />
    <path fill-rule="evenodd" clip-rule="evenodd"
        d="M12.75 5.625C10.0576 5.625 7.87502 7.80761 7.87502 10.5C7.87502 13.1924 10.0576 15.375 12.75 15.375C15.4424 15.375 17.625 13.1924 17.625 10.5C17.625 7.80761 15.4424 5.625 12.75 5.625ZM5.62502 10.5C5.62502 6.56497 8.81499 3.375 12.75 3.375C16.6851 3.375 19.875 6.56497 19.875 10.5C19.875 14.435 16.6851 17.625 12.75 17.625C8.81499 17.625 5.62502 14.435 5.62502 10.5ZM30 10.875C30.6214 10.875 31.125 11.3787 31.125 12V15.375H34.5C35.1214 15.375 35.625 15.8787 35.625 16.5C35.625 17.1213 35.1214 17.625 34.5 17.625H31.125V21C31.125 21.6213 30.6214 22.125 30 22.125C29.3787 22.125 28.875 21.6213 28.875 21V17.625H25.5C24.8787 17.625 24.375 17.1213 24.375 16.5C24.375 15.8787 24.8787 15.375 25.5 15.375H28.875V12C28.875 11.3787 29.3787 10.875 30 10.875ZM2.46186 23.4619C3.79806 22.1257 5.61033 21.375 7.5 21.375H18C19.8897 21.375 21.7019 22.1257 23.0381 23.4619C24.3743 24.7981 25.125 26.6103 25.125 28.5V31.5C25.125 32.1213 24.6213 32.625 24 32.625C23.3787 32.625 22.875 32.1213 22.875 31.5V28.5C22.875 27.2071 22.3614 25.9671 21.4471 25.0529C20.5329 24.1386 19.2929 23.625 18 23.625H7.5C6.20707 23.625 4.96709 24.1386 4.05285 25.0529C3.13861 25.9671 2.625 27.2071 2.625 28.5V31.5C2.625 32.1213 2.12132 32.625 1.5 32.625C0.87868 32.625 0.375 32.1213 0.375 31.5V28.5C0.375 26.6103 1.12567 24.7981 2.46186 23.4619Z"
        fill="#2F363D" />
</svg>