<svg width="96" height="96" viewBox="0 0 96 96" fill="none" xmlns="http://www.w3.org/2000/svg">
<path d="M17.7319 10.2576C32.5085 5.67947 37.8738 14.4287 52.6505 23.178C78.8616 38.6976 101.994 39.8628 94.6055 62.2446C89.8175 76.7493 79.0373 76.0807 57.576 79.8449C36.1147 83.6091 34.7954 91.0358 23.449 86.6612C12.1027 82.2866 17.7319 71.9095 6.38556 52.7832C-4.96078 33.6568 2.95527 14.8357 17.7319 10.2576Z" fill="#A7F3D0"/>
<path d="M28.0001 88H16.0001C13.8784 88 11.8436 87.1571 10.3433 85.6568C8.84298 84.1566 8.00012 82.1217 8.00012 80V52C8.00012 49.8783 8.84298 47.8434 10.3433 46.3431C11.8436 44.8429 13.8784 44 16.0001 44H28.0001M56.0001 36V20C56.0001 16.8174 54.7358 13.7652 52.4854 11.5147C50.235 9.26428 47.1827 8 44.0001 8L28.0001 44V88H73.1201C75.0494 88.0218 76.9216 87.3456 78.3917 86.096C79.8619 84.8464 80.8308 83.1076 81.1201 81.2L86.6401 45.2C86.8142 44.0534 86.7368 42.8827 86.4135 41.769C86.0901 40.6553 85.5285 39.6252 84.7676 38.7501C84.0066 37.8749 83.0644 37.1757 82.0064 36.7009C80.9484 36.226 79.7998 35.9869 78.6401 36H56.0001Z" stroke="#2F363D" stroke-width="3" stroke-linecap="round" stroke-linejoin="round"/>
</svg>
