<svg width="96" height="96" viewBox="0 0 96 96" fill="none" xmlns="http://www.w3.org/2000/svg">
<path d="M79.2681 86.7424C64.4915 91.3205 59.1262 82.5713 44.3495 73.822C18.1384 58.3024 -4.99373 57.1372 2.3945 34.7554C7.18247 20.2507 17.9627 20.9193 39.424 17.1551C60.8853 13.3909 62.2046 5.96415 73.551 10.3388C84.8973 14.7134 79.2681 25.0905 90.6144 44.2168C101.961 63.3432 94.0447 82.1643 79.2681 86.7424Z" fill="#A7F3D0"/>
<path d="M55.9999 8H23.9999C21.8781 8 19.8433 8.84285 18.343 10.3431C16.8427 11.8434 15.9999 13.8783 15.9999 16V80C15.9999 82.1217 16.8427 84.1566 18.343 85.6569C19.8433 87.1571 21.8781 88 23.9999 88H71.9999C74.1216 88 76.1564 87.1571 77.6567 85.6569C79.157 84.1566 79.9999 82.1217 79.9999 80V32L55.9999 8Z" stroke="#2F363D" stroke-width="3" stroke-linecap="round" stroke-linejoin="round"/>
<path d="M56.0001 8V32H80.0001" stroke="#2F363D" stroke-width="3" stroke-linecap="round" stroke-linejoin="round"/>
<path d="M64.0001 52H32.0001" stroke="#2F363D" stroke-width="3" stroke-linecap="round" stroke-linejoin="round"/>
<path d="M64.0001 68H32.0001" stroke="#2F363D" stroke-width="3" stroke-linecap="round" stroke-linejoin="round"/>
<path d="M40.0001 36H36.0001H32.0001" stroke="#2F363D" stroke-width="3" stroke-linecap="round" stroke-linejoin="round"/>
</svg>
