<svg width="37" height="36" viewBox="0 0 37 36" fill="none" xmlns="http://www.w3.org/2000/svg">
<path d="M18.9814 3.9206C6.70437 1.57665 4.43848 7.19236 1.26621 13.0034C-1.16448 19.3516 1.76059 23.1605 5.42723 28.8251C9.09387 34.4896 16.8803 32.1457 22.7717 28.8251C28.663 25.5045 37.3558 21.5002 36.2847 12.5639C35.2135 3.6276 31.2585 6.26455 18.9814 3.9206Z" fill="#A7F3D0"/>
<path d="M30 34.05C29.85 34.05 29.7 34.05 29.7 34.05C24.9 33.6 20.25 31.95 16.2 29.25C12.45 26.85 9.3 23.7 6.9 19.95C4.35 15.9 2.7 11.25 2.1 6.44999C1.95 5.24999 2.25 4.19999 3 3.29999C3.75 2.39999 4.65 1.94999 5.85 1.79999C6 1.79999 6.15 1.79999 6.15 1.79999H10.65C12.75 1.79999 14.4 3.29999 14.7 5.39999C14.85 6.74999 15.15 8.09999 15.75 9.44999C16.35 10.95 15.9 12.6 14.85 13.8L13.5 15C15.3 18 17.85 20.55 20.85 22.35L22.2 21C23.4 19.8 25.05 19.5 26.55 20.1C27.9 20.55 29.1 20.85 30.45 21.15C32.55 21.45 34.05 23.25 34.05 25.35V29.85C34.05 30.9 33.6 31.95 32.85 32.7C32.1 33.6 31.05 34.05 30 34.05ZM10.65 4.19999H6C5.55 4.19999 5.1 4.49999 4.8 4.79999C4.35 5.24999 4.2 5.69999 4.35 6.14999C4.8 10.5 6.3 14.85 8.85 18.6C11.1 22.05 14.1 25.05 17.55 27.3C21.3 29.7 25.65 31.2 30 31.8H30.15C30.6 31.8 31.2 31.65 31.5 31.2C31.8 30.9 32.1 30.3 32.1 29.85V25.35C32.1 24.45 31.5 23.55 30.45 23.4C28.95 23.25 27.45 22.8 25.95 22.35C25.2 22.05 24.45 22.2 24 22.8L22.05 24.75C21.75 25.05 21.15 25.2 20.7 24.9C16.8 22.65 13.5 19.35 11.25 15.45C10.95 15 10.95 14.4 11.4 14.1L13.35 12.15C13.8 11.7 13.95 10.8 13.8 10.2C13.2 8.69999 12.9 7.19999 12.75 5.69999C12.45 4.79999 11.55 4.19999 10.65 4.19999ZM28.5 14.55C27.9 14.55 27.45 14.25 27.45 13.65C27 11.1 24.9 9.14999 22.35 8.54999C21.75 8.39999 21.3 7.79999 21.45 7.19999C21.6 6.59999 22.2 6.14999 22.8 6.29999C26.25 7.04999 28.95 9.59999 29.55 13.05C29.7 13.65 29.25 14.25 28.65 14.4C28.65 14.55 28.5 14.55 28.5 14.55ZM34.5 14.55C33.9 14.55 33.45 14.1 33.45 13.5C32.85 7.64999 28.35 3.14999 22.5 2.54999C21.9 2.54999 21.45 1.94999 21.45 1.34999C21.45 0.749988 22.05 0.299988 22.65 0.299988C29.55 1.04999 34.8 6.29999 35.55 13.2C35.7 13.95 35.25 14.4 34.5 14.55C34.5 14.55 34.65 14.55 34.5 14.55Z" fill="#2F363D"/>
</svg>
