<svg width="97" height="96" viewBox="0 0 97 96" fill="none" xmlns="http://www.w3.org/2000/svg">
<path d="M47.3828 84.5451C80.1217 90.7956 86.1641 75.8204 94.6234 60.3243C101.105 43.3957 93.3051 33.2386 83.5274 18.1332C73.7497 3.0277 52.9858 9.27824 37.2755 18.1332C21.5653 26.9881 -1.61554 37.6661 1.24087 61.4962C4.09727 85.3264 14.644 78.2945 47.3828 84.5451Z" fill="#A7F3D0"/>
<path d="M48 10.7603L70.64 33.4003C75.1174 37.8747 78.1672 43.5765 79.4036 49.7845C80.6401 55.9924 80.0076 62.4277 77.5862 68.2761C75.1648 74.1246 71.0633 79.1235 65.8005 82.6407C60.5376 86.1578 54.3499 88.0351 48.02 88.0351C41.6901 88.0351 35.5024 86.1578 30.2396 82.6407C24.9768 79.1235 20.8753 74.1246 18.4539 68.2761C16.0325 62.4277 15.4 55.9924 16.6364 49.7845C17.8729 43.5765 20.9227 37.8747 25.4 33.4003L48 10.7603Z" stroke="#2F363D" stroke-width="3" stroke-linecap="round" stroke-linejoin="round"/>
</svg>
