<svg width="97" height="96" viewBox="0 0 97 96" fill="none" xmlns="http://www.w3.org/2000/svg">
<path d="M50.6172 10.4549C17.8783 4.2044 11.8359 19.1796 3.37657 34.6757C-3.10528 51.6043 4.69491 61.7614 14.4726 76.8668C24.2503 91.9723 45.0142 85.7218 60.7245 76.8668C76.4347 68.0119 99.6155 57.3339 96.7591 33.5038C93.9027 9.67361 83.356 16.7055 50.6172 10.4549Z" fill="#A7F3D0"/>
<path d="M48.0001 88C70.0915 88 88.0001 70.0914 88.0001 48C88.0001 25.9086 70.0915 8 48.0001 8C25.9087 8 8.00012 25.9086 8.00012 48C8.00012 70.0914 25.9087 88 48.0001 88Z" stroke="#2F363D" stroke-width="3" stroke-linecap="round" stroke-linejoin="round"/>
<path d="M34.24 11C51.72 35.12 58.32 48.68 66.36 81.88M76.52 20.36C61.64 37.76 40.76 43 9 43.76M87 51.36C73 47.64 60.48 48.08 51.24 51.36C40.92 55.04 31.2 62.8 21.48 76.64" stroke="#2F363D" stroke-width="3" stroke-linecap="round" stroke-linejoin="round"/>
</svg>
