<svg width="97" height="96" viewBox="0 0 97 96" fill="none" xmlns="http://www.w3.org/2000/svg">
<path d="M47.3828 84.5451C80.1217 90.7956 86.1641 75.8204 94.6234 60.3243C101.105 43.3957 93.3051 33.2386 83.5274 18.1332C73.7497 3.0277 52.9858 9.27824 37.2755 18.1332C21.5653 26.9881 -1.61554 37.6661 1.24087 61.4962C4.09727 85.3264 14.644 78.2945 47.3828 84.5451Z" fill="#A7F3D0"/>
<path d="M16.0001 15.9999H80.0001C84.4001 15.9999 88.0001 19.5999 88.0001 23.9999V71.9999C88.0001 76.3999 84.4001 79.9999 80.0001 79.9999H16.0001C11.6001 79.9999 8.00012 76.3999 8.00012 71.9999V23.9999C8.00012 19.5999 11.6001 15.9999 16.0001 15.9999Z" stroke="#2F363D" stroke-width="3" stroke-linecap="round" stroke-linejoin="round"/>
<path d="M88.0001 24L48.0001 52L8.00012 24" stroke="#2F363D" stroke-width="3" stroke-linecap="round" stroke-linejoin="round"/>
</svg>
