<svg width="36" height="36" viewBox="0 0 36 36" fill="none" xmlns="http://www.w3.org/2000/svg">
<path d="M6.64946 3.8466C12.1907 2.1298 14.2027 5.41078 19.7439 8.69176C29.5731 14.5116 38.2476 14.9485 35.4771 23.3417C33.6816 28.781 29.639 28.5303 21.591 29.9418C13.543 31.3534 13.0483 34.1384 8.79339 32.498C4.53851 30.8575 6.64946 26.9661 2.39458 19.7937C-1.86029 12.6213 1.10823 5.56339 6.64946 3.8466Z" fill="#A7F3D0"/>
<path fill-rule="evenodd" clip-rule="evenodd" d="M13.5 3.375C13.9842 3.375 14.4141 3.68486 14.5673 4.14424L22.5 27.9424L25.9327 17.6442C26.0859 17.1849 26.5158 16.875 27 16.875H33C33.6213 16.875 34.125 17.3787 34.125 18C34.125 18.6213 33.6213 19.125 33 19.125H27.8109L23.5673 31.8558C23.4141 32.3151 22.9842 32.625 22.5 32.625C22.0158 32.625 21.5859 32.3151 21.4327 31.8558L17.4664 19.9567L13.5 8.05756L10.0673 18.3558C9.91414 18.8151 9.48423 19.125 9 19.125H3C2.37868 19.125 1.875 18.6213 1.875 18C1.875 17.3787 2.37868 16.875 3 16.875H8.18915L12.4327 4.14424C12.5859 3.68486 13.0158 3.375 13.5 3.375Z" fill="#2F363D"/>
</svg>
