<svg width="97" height="96" viewBox="0 0 97 96" fill="none" xmlns="http://www.w3.org/2000/svg">
    <path
        d="M47.3828 84.5451C80.1217 90.7956 86.1641 75.8204 94.6234 60.3243C101.105 43.3957 93.3051 33.2386 83.5274 18.1332C73.7497 3.0277 52.9858 9.27824 37.2755 18.1332C21.5653 26.9881 -1.61554 37.6661 1.24087 61.4962C4.09727 85.3264 14.644 78.2945 47.3828 84.5451Z"
        fill="#A7F3D0" />
    <path
        d="M92.925 40.9124L83.7 23.2499C83.1553 22.2031 82.2212 21.4121 81.099 21.0473C79.9767 20.6826 78.756 20.7733 77.7 21.2999L68.6625 25.8374H61.8375L49.1625 20.0999C48.1859 19.6527 47.0808 19.5729 46.05 19.8749L27.225 25.3499L18.3 20.8874C17.244 20.3608 16.0233 20.2701 14.9011 20.6348C13.7788 20.9996 12.8447 21.7906 12.3 22.8374L3.075 40.4999C2.79656 41.0324 2.62667 41.6149 2.57517 42.2135C2.52367 42.8122 2.59159 43.4152 2.775 43.9874C3.16528 45.1276 3.98634 46.0698 5.0625 46.6124L14.2125 51.1874L34.575 67.1249C35.0811 67.5027 35.6535 67.7826 36.2625 67.9499L57.975 73.3499C58.3283 73.4524 58.6946 73.503 59.0625 73.4999C59.6549 73.5076 60.2427 73.3954 60.7905 73.1698C61.3384 72.9442 61.8348 72.61 62.25 72.1874L76.05 58.3874L76.125 58.3124L81.9375 51.5249L90.9375 47.0249C91.4753 46.7535 91.9542 46.3786 92.3468 45.9217C92.7393 45.4648 93.0378 44.9349 93.225 44.3624C93.4095 43.7967 93.4781 43.1996 93.4265 42.6068C93.375 42.014 93.2044 41.4377 92.925 40.9124V40.9124ZM74.775 55.3124L59.4 44.0999C59.1363 43.9105 58.8183 43.8118 58.4937 43.8185C58.1692 43.8253 57.8556 43.9372 57.6 44.1374L52.8 47.7374C50.9777 49.0891 48.7689 49.8188 46.5 49.8188C44.2311 49.8188 42.0223 49.0891 40.2 47.7374L38.175 46.1999C37.9974 46.0777 37.8507 45.9158 37.7465 45.727C37.6424 45.5382 37.5836 45.3278 37.575 45.1124C37.5511 44.8967 37.5795 44.6784 37.6578 44.4761C37.7361 44.2737 37.8621 44.0932 38.025 43.9499L52.6875 29.2499C52.9726 28.9843 53.3479 28.8369 53.7375 28.8374H68.1L79.2 50.0999L74.775 55.3124ZM5.6625 43.0499C5.58999 42.8623 5.55914 42.6611 5.57209 42.4604C5.58504 42.2596 5.64148 42.0641 5.7375 41.8874L14.9625 24.2249C15.09 23.9794 15.2845 23.7751 15.5235 23.6357C15.7624 23.4963 16.036 23.4275 16.3125 23.4374C16.5346 23.4292 16.7548 23.481 16.95 23.5874L24.975 27.5624L14.3625 47.8874L6.4125 43.9124C6.23054 43.8345 6.06856 43.7164 5.93868 43.5671C5.8088 43.4177 5.71439 43.2409 5.6625 43.0499ZM60.15 70.0499C59.9646 70.2304 59.7376 70.3625 59.4891 70.4344C59.2406 70.5064 58.9781 70.516 58.725 70.4624L36.975 65.0249C36.7745 64.9686 36.5845 64.8799 36.4125 64.7624L16.9125 49.4999L28.0125 28.2374L46.875 22.7624C47.2222 22.6562 47.5964 22.6829 47.925 22.8374L54.5625 25.8374H53.7375C53.1457 25.8339 52.5591 25.9481 52.0119 26.1734C51.4647 26.3988 50.9677 26.7307 50.55 27.1499L35.8875 41.8124C35.431 42.2687 35.0779 42.8179 34.8524 43.4227C34.6268 44.0275 34.534 44.6737 34.5802 45.3175C34.6265 45.9614 34.8107 46.5877 35.1204 47.154C35.43 47.7204 35.8579 48.2135 36.375 48.5999L38.4 50.1374C40.744 51.8728 43.5835 52.8096 46.5 52.8096C49.4165 52.8096 52.256 51.8728 54.6 50.1374L58.5 47.1749L72.7125 57.4874L60.15 70.0499ZM90.3375 43.4624C90.2788 43.6501 90.1818 43.8237 90.0528 43.9721C89.9237 44.1206 89.7653 44.2407 89.5875 44.3249L81.6375 48.2999L71.025 27.9749L79.05 23.9999C79.3992 23.8273 79.8019 23.7973 80.1728 23.9163C80.5437 24.0352 80.8538 24.2938 81.0375 24.6374L90.2625 42.2999C90.3585 42.4766 90.415 42.6721 90.4279 42.8729C90.4409 43.0736 90.41 43.2748 90.3375 43.4624V43.4624ZM43.4625 80.1749C43.3802 80.5024 43.1924 80.7936 42.9281 81.0037C42.6637 81.2138 42.3376 81.3311 42 81.3374L41.625 81.2624L30.3375 78.4499C29.644 78.2783 29.0012 77.9441 28.4625 77.4749L20.025 70.1249C19.8486 70.0064 19.6994 69.8518 19.5872 69.6714C19.475 69.4909 19.4025 69.2886 19.3744 69.078C19.3462 68.8674 19.3632 68.6532 19.4241 68.4496C19.485 68.2461 19.5885 68.0577 19.7276 67.8972C19.8668 67.7366 20.0385 67.6074 20.2314 67.5182C20.4242 67.429 20.6338 67.3817 20.8463 67.3796C21.0588 67.3775 21.2693 67.4206 21.4639 67.506C21.6585 67.5913 21.8327 67.7171 21.975 67.8749L30.45 75.2249C30.6206 75.3752 30.8274 75.4785 31.05 75.5249L42.375 78.3749C42.7561 78.4724 43.0836 78.7157 43.287 79.0524C43.4904 79.3891 43.5535 79.7922 43.4625 80.1749V80.1749Z"
        fill="#2F363D" />
</svg>