<svg width="97" height="96" viewBox="0 0 97 96" fill="none" xmlns="http://www.w3.org/2000/svg">
<path d="M50.6172 10.4549C17.8783 4.2044 11.8359 19.1796 3.37657 34.6757C-3.10528 51.6043 4.69491 61.7614 14.4726 76.8668C24.2503 91.9723 45.0142 85.7218 60.7245 76.8668C76.4347 68.0119 99.6155 57.3339 96.7591 33.5038C93.9027 9.67361 83.356 16.7055 50.6172 10.4549Z" fill="#A7F3D0"/>
<path d="M48 4C44.8174 4 41.7652 5.26428 39.5147 7.51472C37.2643 9.76516 36 12.8174 36 16V48C36 51.1826 37.2643 54.2348 39.5147 56.4853C41.7652 58.7357 44.8174 60 48 60C51.1826 60 54.2348 58.7357 56.4853 56.4853C58.7357 54.2348 60 51.1826 60 48V16C60 12.8174 58.7357 9.76516 56.4853 7.51472C54.2348 5.26428 51.1826 4 48 4V4Z" stroke="#2F363D" stroke-width="3" stroke-linecap="round" stroke-linejoin="round"/>
<path d="M76.0001 40V48C76.0001 55.4261 73.0501 62.548 67.7991 67.799C62.5481 73.05 55.4262 76 48.0001 76C40.5741 76 33.4522 73.05 28.2011 67.799C22.9501 62.548 20.0001 55.4261 20.0001 48V40" stroke="#2F363D" stroke-width="3" stroke-linecap="round" stroke-linejoin="round"/>
<path d="M48 76V92" stroke="#2F363D" stroke-width="3" stroke-linecap="round" stroke-linejoin="round"/>
<path d="M32.0001 92H64.0001" stroke="#2F363D" stroke-width="3" stroke-linecap="round" stroke-linejoin="round"/>
</svg>
