<svg width="97" height="96" viewBox="0 0 97 96" fill="none" xmlns="http://www.w3.org/2000/svg">
<path d="M50.6172 10.4549C17.8783 4.2044 11.8359 19.1796 3.37657 34.6757C-3.10528 51.6043 4.69491 61.7614 14.4726 76.8668C24.2503 91.9723 45.0142 85.7218 60.7245 76.8668C76.4347 68.0119 99.6155 57.3339 96.7591 33.5038C93.9027 9.67361 83.356 16.7055 50.6172 10.4549Z" fill="#A7F3D0"/>
<path d="M76 12H20C15.5817 12 12 15.5817 12 20V76C12 80.4183 15.5817 84 20 84H76C80.4183 84 84 80.4183 84 76V20C84 15.5817 80.4183 12 76 12Z" stroke="#2F363D" stroke-width="3" stroke-linecap="round" stroke-linejoin="round"/>
<path d="M33.9999 40C37.3136 40 39.9999 37.3137 39.9999 34C39.9999 30.6863 37.3136 28 33.9999 28C30.6862 28 27.9999 30.6863 27.9999 34C27.9999 37.3137 30.6862 40 33.9999 40Z" stroke="#2F363D" stroke-width="3" stroke-linecap="round" stroke-linejoin="round"/>
<path d="M84.0001 60L64.0001 40L20.0001 84" stroke="#2F363D" stroke-width="3" stroke-linecap="round" stroke-linejoin="round"/>
</svg>
