<svg width="96" height="96" viewBox="0 0 96 96" fill="none" xmlns="http://www.w3.org/2000/svg">
<path d="M79.2681 86.7424C64.4915 91.3205 59.1262 82.5713 44.3495 73.822C18.1384 58.3024 -4.99373 57.1372 2.3945 34.7554C7.18247 20.2507 17.9627 20.9193 39.424 17.1551C60.8853 13.3909 62.2046 5.96415 73.551 10.3388C84.8973 14.7134 79.2681 25.0905 90.6144 44.2168C101.961 63.3432 94.0447 82.1643 79.2681 86.7424Z" fill="#A7F3D0"/>
<path d="M76 15.9999H20C15.5817 15.9999 12 19.5816 12 23.9999V79.9999C12 84.4181 15.5817 87.9999 20 87.9999H76C80.4183 87.9999 84 84.4181 84 79.9999V23.9999C84 19.5816 80.4183 15.9999 76 15.9999Z" stroke="#2F363D" stroke-width="3" stroke-linecap="round" stroke-linejoin="round"/>
<path d="M63.9999 8.00012V24.0001" stroke="#2F363D" stroke-width="3" stroke-linecap="round" stroke-linejoin="round"/>
<path d="M32.0001 8.00012V24.0001" stroke="#2F363D" stroke-width="3" stroke-linecap="round" stroke-linejoin="round"/>
<path d="M12 39.9999H84" stroke="#2F363D" stroke-width="3" stroke-linecap="round" stroke-linejoin="round"/>
</svg>
