<svg width="96" height="96" viewBox="0 0 96 96" fill="none" xmlns="http://www.w3.org/2000/svg">
<path d="M79.2681 86.7424C64.4915 91.3205 59.1262 82.5713 44.3495 73.822C18.1384 58.3024 -4.99373 57.1372 2.3945 34.7554C7.18247 20.2507 17.9627 20.9193 39.424 17.1551C60.8853 13.3909 62.2046 5.96415 73.551 10.3388C84.8973 14.7134 79.2681 25.0905 90.6144 44.2168C101.961 63.3432 94.0447 82.1643 79.2681 86.7424Z" fill="#A7F3D0"/>
<path d="M28.0001 88H16.0001C13.8784 88 11.8436 87.1571 10.3433 85.6568C8.84298 84.1566 8.00012 82.1217 8.00012 80V52C8.00012 49.8783 8.84298 47.8434 10.3433 46.3431C11.8436 44.8429 13.8784 44 16.0001 44H28.0001M56.0001 36V20C56.0001 16.8174 54.7358 13.7652 52.4854 11.5147C50.235 9.26428 47.1827 8 44.0001 8L28.0001 44V88H73.1201C75.0494 88.0218 76.9216 87.3456 78.3917 86.096C79.8619 84.8464 80.8308 83.1076 81.1201 81.2L86.6401 45.2C86.8142 44.0534 86.7368 42.8827 86.4135 41.769C86.0901 40.6553 85.5285 39.6252 84.7676 38.7501C84.0066 37.8749 83.0644 37.1757 82.0064 36.7009C80.9484 36.226 79.7998 35.9869 78.6401 36H56.0001Z" stroke="#2F363D" stroke-width="3" stroke-linecap="round" stroke-linejoin="round"/>
</svg>
