<svg width="97" height="96" viewBox="0 0 97 96" fill="none" xmlns="http://www.w3.org/2000/svg">
    <path
        d="M50.6172 10.4549C17.8783 4.2044 11.8359 19.1796 3.37657 34.6757C-3.10528 51.6043 4.69491 61.7614 14.4726 76.8668C24.2503 91.9723 45.0142 85.7218 60.7245 76.8668C76.4347 68.0119 99.6155 57.3339 96.7591 33.5038C93.9027 9.67361 83.356 16.7055 50.6172 10.4549Z"
        fill="#FEF3C7" />
    <path
        d="M48.0001 88C70.0915 88 88.0001 70.0914 88.0001 48C88.0001 25.9086 70.0915 8 48.0001 8C25.9087 8 8.00012 25.9086 8.00012 48C8.00012 70.0914 25.9087 88 48.0001 88Z"
        stroke="#F59E0B" stroke-width="3" stroke-linecap="round" stroke-linejoin="round" />
    <path d="M32.0001 56C32.0001 56 38.0001 64 48.0001 64C58.0001 64 64.0001 56 64.0001 56" stroke="#F59E0B"
        stroke-width="3" stroke-linecap="round" stroke-linejoin="round" />
    <path d="M36 36H36.04" stroke="#F59E0B" stroke-width="3" stroke-linecap="round" stroke-linejoin="round" />
    <path d="M60 36H60.04" stroke="#F59E0B" stroke-width="3" stroke-linecap="round" stroke-linejoin="round" />
</svg>