<svg width="37" height="36" viewBox="0 0 37 36" fill="none" xmlns="http://www.w3.org/2000/svg">
<path d="M18.9814 3.9206C6.70437 1.57665 4.43848 7.19236 1.26621 13.0034C-1.16448 19.3516 1.76059 23.1605 5.42723 28.8251C9.09387 34.4896 16.8803 32.1457 22.7717 28.8251C28.663 25.5045 37.3558 21.5002 36.2847 12.5639C35.2135 3.6276 31.2585 6.26455 18.9814 3.9206Z" fill="#FBBF24"/>
<path fill-rule="evenodd" clip-rule="evenodd" d="M4.13332 17.5149C4.12779 17.6759 4.125 17.8376 4.125 18C4.125 21.5782 5.47948 24.8401 7.70369 27.3008C11.2566 22.4667 14.895 19.6061 18.8371 18.2004L18.8386 18.1998C19.1322 18.0956 19.4333 17.9987 19.7415 17.9093C19.5548 17.4685 19.3636 17.0351 19.1674 16.607C18.9925 16.2257 18.8134 15.8482 18.6294 15.4733C14.5327 16.7803 9.74971 17.3453 4.13332 17.5149ZM4.39641 15.2554C9.60321 15.0821 13.9265 14.5552 17.5744 13.4454C16.1711 10.8925 14.4858 8.33922 12.3256 5.33458C8.29688 7.14232 5.28721 10.8159 4.39641 15.2554ZM14.5385 4.56027C16.6358 7.50298 18.3108 10.0737 19.7257 12.6909C22.6459 11.5185 25.0938 9.87631 27.2034 7.61648C24.7543 5.44412 21.5312 4.125 18 4.125C16.8048 4.125 15.645 4.27611 14.5385 4.56027ZM28.7629 9.2428C26.4604 11.6838 23.816 13.4456 20.7562 14.7013C20.9114 15.0215 21.0634 15.3439 21.2126 15.6692C21.4751 16.2416 21.7283 16.8222 21.9738 17.4149C24.882 16.9536 28.2567 17.078 31.8747 17.9145C31.8549 14.627 30.6918 11.6106 28.7629 9.2428ZM31.7037 20.1863C28.4003 19.3827 25.3774 19.2312 22.8128 19.5669C23.8576 22.4148 24.785 25.6072 25.7507 29.51C28.8719 27.4042 31.0902 24.0622 31.7037 20.1863ZM23.7133 30.6479C22.6656 26.353 21.6856 22.9736 20.5781 20.0112C20.2376 20.1045 19.9086 20.2076 19.5919 20.32C16.1331 21.5536 12.7793 24.1311 9.35568 28.8539C11.7268 30.7448 14.7314 31.875 18 31.875C20.0367 31.875 21.971 31.4362 23.7133 30.6479ZM1.875 18C1.875 9.09441 9.09441 1.875 18 1.875C26.9056 1.875 34.125 9.09441 34.125 18C34.125 26.9056 26.9056 34.125 18 34.125C9.09441 34.125 1.875 26.9056 1.875 18Z" fill="#2F363D"/>
</svg>
