<svg width="96" height="96" viewBox="0 0 96 96" fill="none" xmlns="http://www.w3.org/2000/svg">
<path d="M17.7319 10.2576C32.5085 5.67947 37.8738 14.4287 52.6505 23.178C78.8616 38.6976 101.994 39.8628 94.6055 62.2446C89.8175 76.7493 79.0373 76.0807 57.576 79.8449C36.1147 83.6091 34.7954 91.0358 23.449 86.6612C12.1027 82.2866 17.7319 71.9095 6.38556 52.7832C-4.96078 33.6568 2.95527 14.8357 17.7319 10.2576Z" fill="#A7F3D0"/>
<path d="M72 32C72 25.6348 69.4714 19.5303 64.9706 15.0294C60.4697 10.5286 54.3652 8 48 8C41.6348 8 35.5303 10.5286 31.0294 15.0294C26.5286 19.5303 24 25.6348 24 32C24 60 12 68 12 68H84C84 68 72 60 72 32Z" stroke="#2F363D" stroke-width="3" stroke-linecap="round" stroke-linejoin="round"/>
<path d="M54.92 84C54.2167 85.2123 53.2073 86.2186 51.9929 86.9181C50.7784 87.6176 49.4015 87.9858 48 87.9858C46.5984 87.9858 45.2215 87.6176 44.007 86.9181C42.7926 86.2186 41.7832 85.2123 41.08 84" stroke="#2F363D" stroke-width="3" stroke-linecap="round" stroke-linejoin="round"/>
</svg>
