<svg width="97" height="96" viewBox="0 0 97 96" fill="none" xmlns="http://www.w3.org/2000/svg">
<path d="M47.3828 84.5451C80.1217 90.7956 86.1641 75.8204 94.6234 60.3243C101.105 43.3957 93.3051 33.2386 83.5274 18.1332C73.7497 3.0277 52.9858 9.27824 37.2755 18.1332C21.5653 26.9881 -1.61554 37.6661 1.24087 61.4962C4.09727 85.3264 14.644 78.2945 47.3828 84.5451Z" fill="#A7F3D0"/>
<path d="M48 4C44.8174 4 41.7652 5.26428 39.5147 7.51472C37.2643 9.76516 36 12.8174 36 16V48C36 51.1826 37.2643 54.2348 39.5147 56.4853C41.7652 58.7357 44.8174 60 48 60C51.1826 60 54.2348 58.7357 56.4853 56.4853C58.7357 54.2348 60 51.1826 60 48V16C60 12.8174 58.7357 9.76516 56.4853 7.51472C54.2348 5.26428 51.1826 4 48 4V4Z" stroke="#2F363D" stroke-width="3" stroke-linecap="round" stroke-linejoin="round"/>
<path d="M76.0001 40V48C76.0001 55.4261 73.0501 62.548 67.7991 67.799C62.5481 73.05 55.4262 76 48.0001 76C40.5741 76 33.4522 73.05 28.2011 67.799C22.9501 62.548 20.0001 55.4261 20.0001 48V40" stroke="#2F363D" stroke-width="3" stroke-linecap="round" stroke-linejoin="round"/>
<path d="M48 76V92" stroke="#2F363D" stroke-width="3" stroke-linecap="round" stroke-linejoin="round"/>
<path d="M32.0001 92H64.0001" stroke="#2F363D" stroke-width="3" stroke-linecap="round" stroke-linejoin="round"/>
</svg>
