<svg width="97" height="96" viewBox="0 0 97 96" fill="none" xmlns="http://www.w3.org/2000/svg">
    <path
        d="M47.3828 84.5451C80.1217 90.7956 86.1641 75.8204 94.6234 60.3243C101.105 43.3957 93.3051 33.2386 83.5274 18.1332C73.7497 3.0277 52.9858 9.27824 37.2755 18.1332C21.5653 26.9881 -1.61554 37.6661 1.24087 61.4962C4.09727 85.3264 14.644 78.2945 47.3828 84.5451Z"
        fill="#34D399" />
    <path
        d="M72 32C72 25.6348 69.4714 19.5303 64.9706 15.0294C60.4697 10.5286 54.3652 8 48 8C41.6348 8 35.5303 10.5286 31.0294 15.0294C26.5286 19.5303 24 25.6348 24 32C24 60 12 68 12 68H84C84 68 72 60 72 32Z"
        stroke="#2F363D" stroke-width="3" stroke-linecap="round" stroke-linejoin="round" />
    <path
        d="M54.92 84C54.2167 85.2123 53.2073 86.2186 51.9929 86.9181C50.7784 87.6176 49.4015 87.9858 48 87.9858C46.5984 87.9858 45.2215 87.6176 44.007 86.9181C42.7926 86.2186 41.7832 85.2123 41.08 84"
        stroke="#2F363D" stroke-width="3" stroke-linecap="round" stroke-linejoin="round" />
</svg>