<svg width="96" height="96" viewBox="0 0 96 96" fill="none" xmlns="http://www.w3.org/2000/svg">
<path d="M79.2681 86.7424C64.4915 91.3205 59.1262 82.5713 44.3495 73.822C18.1384 58.3024 -4.99373 57.1372 2.3945 34.7554C7.18247 20.2507 17.9627 20.9193 39.424 17.1551C60.8853 13.3909 62.2046 5.96415 73.551 10.3388C84.8973 14.7134 79.2681 25.0905 90.6144 44.2168C101.961 63.3432 94.0447 82.1643 79.2681 86.7424Z" fill="#A7F3D0"/>
<path d="M20.0001 50.2003C27.9064 43.615 37.8705 40.0088 48.1601 40.0088C58.4497 40.0088 68.4139 43.615 76.3201 50.2003" stroke="#2F363D" stroke-width="3" stroke-linecap="round" stroke-linejoin="round"/>
<path d="M5.68005 36.0001C17.3697 25.696 32.4172 20.0107 48.0001 20.0107C63.5829 20.0107 78.6304 25.696 90.3201 36.0001" stroke="#2F363D" stroke-width="3" stroke-linecap="round" stroke-linejoin="round"/>
<path d="M59.7867 58.1467C59.1057 57.4653 58.2971 56.9249 57.4071 56.5561C56.5172 56.1874 55.5633 55.9976 54.6 55.9976C53.6367 55.9976 52.6828 56.1874 51.7929 56.5561C50.9029 56.9249 50.0943 57.4653 49.4133 58.1467L48 59.56L46.5867 58.1467C45.2111 56.7711 43.3454 55.9983 41.4 55.9983C39.4546 55.9983 37.5889 56.7711 36.2133 58.1467C34.8377 59.5222 34.0649 61.3879 34.0649 63.3333C34.0649 65.2787 34.8377 67.1444 36.2133 68.52L37.6267 69.9333L48 80.3067L58.3733 69.9333L59.7867 68.52C60.468 67.839 61.0085 67.0304 61.3772 66.1405C61.746 65.2505 61.9358 64.2966 61.9358 63.3333C61.9358 62.37 61.746 61.4161 61.3772 60.5262C61.0085 59.6362 60.468 58.8277 59.7867 58.1467V58.1467Z" stroke="#2F363D" stroke-width="3" stroke-linecap="round" stroke-linejoin="round"/>
</svg>
