<svg width="97" height="96" viewBox="0 0 97 96" fill="none" xmlns="http://www.w3.org/2000/svg">
<path d="M50.6172 10.4549C17.8783 4.2044 11.8359 19.1796 3.37657 34.6757C-3.10528 51.6043 4.69491 61.7614 14.4726 76.8668C24.2503 91.9723 45.0142 85.7218 60.7245 76.8668C76.4347 68.0119 99.6155 57.3339 96.7591 33.5038C93.9027 9.67361 83.356 16.7055 50.6172 10.4549Z" fill="#A7F3D0"/>
<path d="M83.3599 18.44C81.3168 16.396 78.8911 14.7746 76.2213 13.6683C73.5514 12.5621 70.6898 11.9927 67.7999 11.9927C64.9099 11.9927 62.0483 12.5621 59.3784 13.6683C56.7086 14.7746 54.2829 16.396 52.2399 18.44L47.9999 22.68L43.7599 18.44C39.6331 14.3132 34.036 11.9948 28.1999 11.9948C22.3637 11.9948 16.7666 14.3132 12.6399 18.44C8.5131 22.5667 6.1947 28.1638 6.1947 34C6.1947 39.8361 8.5131 45.4332 12.6399 49.56L16.8799 53.8L47.9999 84.92L79.1199 53.8L83.3599 49.56C85.4038 47.517 87.0253 45.0912 88.1315 42.4214C89.2378 39.7516 89.8072 36.8899 89.8072 34C89.8072 31.11 89.2378 28.2484 88.1315 25.5786C87.0253 22.9087 85.4038 20.483 83.3599 18.44V18.44Z" stroke="#2F363D" stroke-width="3" stroke-linecap="round" stroke-linejoin="round"/>
</svg>
