<svg width="96" height="96" viewBox="0 0 96 96" fill="none" xmlns="http://www.w3.org/2000/svg">
<path d="M17.7319 10.2576C32.5085 5.67947 37.8738 14.4287 52.6505 23.178C78.8616 38.6976 101.994 39.8628 94.6055 62.2446C89.8175 76.7493 79.0373 76.0807 57.576 79.8449C36.1147 83.6091 34.7954 91.0358 23.449 86.6612C12.1027 82.2866 17.7319 71.9095 6.38556 52.7832C-4.96078 33.6568 2.95527 14.8357 17.7319 10.2576Z" fill="#A7F3D0"/>
<path d="M55.9999 8H23.9999C21.8781 8 19.8433 8.84285 18.343 10.3431C16.8427 11.8434 15.9999 13.8783 15.9999 16V80C15.9999 82.1217 16.8427 84.1566 18.343 85.6569C19.8433 87.1571 21.8781 88 23.9999 88H71.9999C74.1216 88 76.1564 87.1571 77.6567 85.6569C79.157 84.1566 79.9999 82.1217 79.9999 80V32L55.9999 8Z" stroke="#2F363D" stroke-width="3" stroke-linecap="round" stroke-linejoin="round"/>
<path d="M56.0001 8V32H80.0001" stroke="#2F363D" stroke-width="3" stroke-linecap="round" stroke-linejoin="round"/>
<path d="M64.0001 52H32.0001" stroke="#2F363D" stroke-width="3" stroke-linecap="round" stroke-linejoin="round"/>
<path d="M64.0001 68H32.0001" stroke="#2F363D" stroke-width="3" stroke-linecap="round" stroke-linejoin="round"/>
<path d="M40.0001 36H36.0001H32.0001" stroke="#2F363D" stroke-width="3" stroke-linecap="round" stroke-linejoin="round"/>
</svg>
