<svg width="96" height="96" viewBox="0 0 96 96" fill="none" xmlns="http://www.w3.org/2000/svg">
<path d="M79.2681 86.7424C64.4915 91.3205 59.1262 82.5713 44.3495 73.822C18.1384 58.3024 -4.99373 57.1372 2.3945 34.7554C7.18247 20.2507 17.9627 20.9193 39.424 17.1551C60.8853 13.3909 62.2046 5.96415 73.551 10.3388C84.8973 14.7134 79.2681 25.0905 90.6144 44.2168C101.961 63.3432 94.0447 82.1643 79.2681 86.7424Z" fill="#A7F3D0"/>
<path d="M84 46C84.0138 51.2795 82.7803 56.4875 80.4 61.2C77.5777 66.847 73.239 71.5967 67.8698 74.9171C62.5006 78.2375 56.313 79.9975 50 80C44.7205 80.0137 39.5125 78.7803 34.8 76.4L12 84L19.6 61.2C17.2197 56.4875 15.9862 51.2795 16 46C16.0024 39.687 17.7624 33.4994 21.0829 28.1302C24.4033 22.761 29.153 18.4223 34.8 15.6C39.5125 13.2197 44.7205 11.9862 50 12H52C60.3374 12.46 68.2122 15.979 74.1166 21.8834C80.0209 27.7878 83.54 35.6626 84 44V46Z" stroke="#2F363D" stroke-width="3" stroke-linecap="round" stroke-linejoin="round"/>
</svg>
