<svg width="37" height="36" viewBox="0 0 37 36" fill="none" xmlns="http://www.w3.org/2000/svg">
<path d="M17.7686 31.7044C30.0456 34.0484 32.3115 28.4326 35.4838 22.6216C37.9145 16.2734 34.9894 12.4645 31.3228 6.79994C27.6561 1.13539 19.8697 3.47934 13.9783 6.79994C8.08699 10.1205 -0.605831 14.1248 0.465324 23.0611C1.53648 31.9974 5.4915 29.3605 17.7686 31.7044Z" fill="#FBBF24"/>
<path fill-rule="evenodd" clip-rule="evenodd" d="M32.2272 3.64161C32.4795 3.85536 32.625 4.16931 32.625 4.50001V24C32.625 27.1066 30.1066 29.625 27 29.625C23.8934 29.625 21.375 27.1066 21.375 24C21.375 20.8934 23.8934 18.375 27 18.375C28.2663 18.375 29.4349 18.7934 30.375 19.4996V5.82803L14.625 8.45303V27C14.625 30.1066 12.1066 32.625 9 32.625C5.8934 32.625 3.375 30.1066 3.375 27C3.375 23.8934 5.8934 21.375 9 21.375C10.2663 21.375 11.4349 21.7934 12.375 22.4996V7.50001C12.375 6.95006 12.7726 6.48073 13.3151 6.39032L31.3151 3.39032C31.6412 3.33595 31.9748 3.42786 32.2272 3.64161ZM12.375 27C12.375 25.136 10.864 23.625 9 23.625C7.13604 23.625 5.625 25.136 5.625 27C5.625 28.864 7.13604 30.375 9 30.375C10.864 30.375 12.375 28.864 12.375 27ZM30.375 24C30.375 22.136 28.864 20.625 27 20.625C25.136 20.625 23.625 22.136 23.625 24C23.625 25.8639 25.136 27.375 27 27.375C28.864 27.375 30.375 25.864 30.375 24Z" fill="#2F363D"/>
</svg>
