<svg width="97" height="96" viewBox="0 0 97 96" fill="none" xmlns="http://www.w3.org/2000/svg">
<path d="M50.6172 10.4549C17.8783 4.2044 11.8359 19.1796 3.37657 34.6757C-3.10528 51.6043 4.69491 61.7614 14.4726 76.8668C24.2503 91.9723 45.0142 85.7218 60.7245 76.8668C76.4347 68.0119 99.6155 57.3339 96.7591 33.5038C93.9027 9.67361 83.356 16.7055 50.6172 10.4549Z" fill="#A7F3D0"/>
<path d="M84 51.16C83.3707 57.9688 80.8154 64.4576 76.633 69.8671C72.4505 75.2767 66.8139 79.3832 60.3828 81.7062C53.9516 84.0291 46.9919 84.4725 40.318 82.9844C33.644 81.4962 27.5319 78.1382 22.6969 73.3031C17.8618 68.468 14.5037 62.3559 13.0156 55.682C11.5275 49.0081 11.9708 42.0483 14.2938 35.6172C16.6168 29.186 20.7233 23.5495 26.1328 19.367C31.5424 15.1846 38.0312 12.6292 44.84 12C40.8536 17.3931 38.9354 24.0378 39.4341 30.7257C39.9328 37.4135 42.8154 43.7002 47.5576 48.4424C52.2997 53.1846 58.5865 56.0671 65.2743 56.5659C71.9622 57.0646 78.6069 55.1463 84 51.16Z" stroke="#2F363D" stroke-width="3" stroke-linecap="round" stroke-linejoin="round"/>
</svg>
