<svg width="97" height="96" viewBox="0 0 97 96" fill="none" xmlns="http://www.w3.org/2000/svg">
<path d="M50.6172 10.4549C17.8783 4.2044 11.8359 19.1796 3.37657 34.6757C-3.10528 51.6043 4.69491 61.7614 14.4726 76.8668C24.2503 91.9723 45.0142 85.7218 60.7245 76.8668C76.4347 68.0119 99.6155 57.3339 96.7591 33.5038C93.9027 9.67361 83.356 16.7055 50.6172 10.4549Z" fill="#A7F3D0"/>
<path d="M3.99988 4L91.9999 92" stroke="#2F363D" stroke-width="3" stroke-linecap="round" stroke-linejoin="round"/>
<path d="M66.88 44.2397C70.1564 45.8387 73.2201 47.8409 76 50.1997" stroke="#2F363D" stroke-width="3" stroke-linecap="round" stroke-linejoin="round"/>
<path d="M20.0001 50.1997C25.9285 45.243 33.0636 41.9445 40.6801 40.6396" stroke="#2F363D" stroke-width="3" stroke-linecap="round" stroke-linejoin="round"/>
<path d="M42.8401 20.1999C51.4097 19.5094 60.0307 20.5526 68.1883 23.2672C76.3459 25.9818 83.8729 30.3122 90.3201 35.9999" stroke="#2F363D" stroke-width="3" stroke-linecap="round" stroke-linejoin="round"/>
<path d="M5.68005 36C11.2287 31.0954 17.5908 27.1969 24.4801 24.48" stroke="#2F363D" stroke-width="3" stroke-linecap="round" stroke-linejoin="round"/>
<path d="M34.12 64.4399C38.1808 61.5549 43.0387 60.0049 48.02 60.0049C53.0013 60.0049 57.8592 61.5549 61.92 64.4399" stroke="#2F363D" stroke-width="3" stroke-linecap="round" stroke-linejoin="round"/>
<path d="M48 80H48.04" stroke="#2F363D" stroke-width="3" stroke-linecap="round" stroke-linejoin="round"/>
</svg>
