<svg width="97" height="96" viewBox="0 0 97 96" fill="none" xmlns="http://www.w3.org/2000/svg">
    <path
        d="M50.6172 10.4549C17.8783 4.2044 11.8359 19.1796 3.37657 34.6757C-3.10528 51.6043 4.69491 61.7614 14.4726 76.8668C24.2503 91.9723 45.0142 85.7218 60.7245 76.8668C76.4347 68.0119 99.6155 57.3339 96.7591 33.5038C93.9027 9.67361 83.356 16.7055 50.6172 10.4549Z"
        fill="#A7F3D0" />
    <path
        d="M81.16 33.48L77.16 26.56C76.6246 25.6423 75.7494 24.9724 74.7237 24.6954C73.698 24.4184 72.6045 24.5566 71.68 25.08L56 34.16V16C56 13.8 54.2 12 52 12H44C41.8 12 40 13.8 40 16V34.16L24.28 25.08C23.8285 24.8164 23.3294 24.6445 22.8113 24.5743C22.2932 24.504 21.7664 24.5367 21.261 24.6705C20.7556 24.8043 20.2815 25.0365 19.8661 25.3539C19.4506 25.6713 19.1019 26.0676 18.84 26.52L14.84 33.44C13.72 35.36 14.36 37.84 16.28 38.92L32 48L16.28 57.08C14.36 58.2 13.72 60.64 14.8 62.56L18.8 69.48C19.92 71.4 22.36 72.04 24.28 70.96L40 61.84V80C40 82.2 41.8 84 44 84H52C54.2 84 56 82.2 56 80V61.84L71.72 70.92C73.64 72.04 76.08 71.36 77.2 69.44L81.2 62.52C82.32 60.6 81.64 58.16 79.72 57.04L64 48L79.72 38.92C81.64 37.84 82.28 35.36 81.16 33.48V33.48Z"
        stroke="#2F363D" stroke-width="3" />
</svg>