<svg width="97" height="96" viewBox="0 0 97 96" fill="none" xmlns="http://www.w3.org/2000/svg">
<path d="M47.3828 84.5451C80.1217 90.7956 86.1641 75.8204 94.6234 60.3243C101.105 43.3957 93.3051 33.2386 83.5274 18.1332C73.7497 3.0277 52.9858 9.27824 37.2755 18.1332C21.5653 26.9881 -1.61554 37.6661 1.24087 61.4962C4.09727 85.3264 14.644 78.2945 47.3828 84.5451Z" fill="#A7F3D0"/>
<path d="M60.2001 19.9999C64.107 20.7621 67.6976 22.6729 70.5124 25.4876C73.3271 28.3023 75.2378 31.8929 76.0001 35.7999M60.2001 3.99988C68.3172 4.90162 75.8865 8.53658 81.6651 14.3079C87.4437 20.0792 91.0881 27.6439 92.0001 35.7599M88.0001 67.6799V79.6799C88.0046 80.7939 87.7764 81.8966 87.3301 82.9173C86.8838 83.938 86.2293 84.8542 85.4084 85.6074C84.5875 86.3605 83.6184 86.9338 82.5631 87.2907C81.5078 87.6476 80.3896 87.7802 79.2801 87.6799C66.9714 86.3424 55.1481 82.1365 44.7601 75.3999C35.0954 69.2585 26.9014 61.0646 20.7601 51.3999C14 40.9647 9.79307 29.0839 8.4801 16.7199C8.38014 15.6137 8.5116 14.4989 8.8661 13.4464C9.2206 12.3938 9.79038 11.4266 10.5392 10.6064C11.2879 9.78609 12.1993 9.13072 13.2153 8.68197C14.2312 8.23322 15.3295 8.00092 16.4401 7.99988H28.4401C30.3813 7.98077 32.2633 8.66819 33.7351 9.93401C35.207 11.1998 36.1684 12.9577 36.4401 14.8799C36.9466 18.7201 37.8859 22.4908 39.2401 26.1199C39.7783 27.5516 39.8947 29.1075 39.5757 30.6034C39.2567 32.0993 38.5155 33.4723 37.4401 34.5599L32.3601 39.6399C38.0543 49.6541 46.3459 57.9457 56.3601 63.6399L61.4401 58.5599C62.5277 57.4844 63.9007 56.7433 65.3966 56.4243C66.8924 56.1052 68.4484 56.2217 69.8801 56.7599C73.5092 58.1141 77.2798 59.0534 81.1201 59.5599C83.0632 59.834 84.8377 60.8127 86.1062 62.3099C87.3748 63.807 88.0488 65.7182 88.0001 67.6799Z" stroke="#2F363D" stroke-width="3" stroke-linecap="round" stroke-linejoin="round"/>
</svg>
