<svg width="97" height="96" viewBox="0 0 97 96" fill="none" xmlns="http://www.w3.org/2000/svg">
<path d="M47.3828 84.5451C80.1217 90.7956 86.1641 75.8204 94.6234 60.3243C101.105 43.3957 93.3051 33.2386 83.5274 18.1332C73.7497 3.0277 52.9858 9.27824 37.2755 18.1332C21.5653 26.9881 -1.61554 37.6661 1.24087 61.4962C4.09727 85.3264 14.644 78.2945 47.3828 84.5451Z" fill="#A7F3D0"/>
<path d="M79.9999 48V88H15.9999V48" stroke="#2F363D" stroke-width="3" stroke-linecap="round" stroke-linejoin="round"/>
<path d="M88.0001 28H8.00012V48H88.0001V28Z" stroke="#2F363D" stroke-width="3" stroke-linecap="round" stroke-linejoin="round"/>
<path d="M48 88V28" stroke="#2F363D" stroke-width="3" stroke-linecap="round" stroke-linejoin="round"/>
<path d="M48.0001 28H30.0001C27.348 28 24.8044 26.9464 22.9291 25.0711C21.0537 23.1957 20.0001 20.6522 20.0001 18C20.0001 15.3478 21.0537 12.8043 22.9291 10.9289C24.8044 9.05357 27.348 8 30.0001 8C44.0001 8 48.0001 28 48.0001 28Z" stroke="#2F363D" stroke-width="3" stroke-linecap="round" stroke-linejoin="round"/>
<path d="M48 28H66C68.6522 28 71.1957 26.9464 73.0711 25.0711C74.9464 23.1957 76 20.6522 76 18C76 15.3478 74.9464 12.8043 73.0711 10.9289C71.1957 9.05357 68.6522 8 66 8C52 8 48 28 48 28Z" stroke="#2F363D" stroke-width="3" stroke-linecap="round" stroke-linejoin="round"/>
</svg>
