<svg width="97" height="96" viewBox="0 0 97 96" fill="none" xmlns="http://www.w3.org/2000/svg">
<path d="M50.6172 10.4549C17.8783 4.2044 11.8359 19.1796 3.37657 34.6757C-3.10528 51.6043 4.69491 61.7614 14.4726 76.8668C24.2503 91.9723 45.0142 85.7218 60.7245 76.8668C76.4347 68.0119 99.6155 57.3339 96.7591 33.5038C93.9027 9.67361 83.356 16.7055 50.6172 10.4549Z" fill="#A7F3D0"/>
<path d="M67.9999 84V76C67.9999 71.7565 66.3142 67.6869 63.3136 64.6863C60.313 61.6857 56.2433 60 51.9999 60H19.9999C15.7564 60 11.6868 61.6857 8.68617 64.6863C5.68559 67.6869 3.99988 71.7565 3.99988 76V84" stroke="#2F363D" stroke-width="3" stroke-linecap="round" stroke-linejoin="round"/>
<path d="M36.0001 44C44.8367 44 52.0001 36.8366 52.0001 28C52.0001 19.1634 44.8367 12 36.0001 12C27.1636 12 20.0001 19.1634 20.0001 28C20.0001 36.8366 27.1636 44 36.0001 44Z" stroke="#2F363D" stroke-width="3" stroke-linecap="round" stroke-linejoin="round"/>
<path d="M92.0001 84.0001V76.0001C91.9975 72.4551 90.8175 69.0112 88.6456 66.2094C86.4736 63.4076 83.4326 61.4064 80.0001 60.5201" stroke="#2F363D" stroke-width="3" stroke-linecap="round" stroke-linejoin="round"/>
<path d="M63.9999 12.5201C67.4415 13.4013 70.492 15.4029 72.6704 18.2094C74.8488 21.0158 76.0312 24.4675 76.0312 28.0201C76.0312 31.5728 74.8488 35.0245 72.6704 37.8309C70.492 40.6373 67.4415 42.6389 63.9999 43.5201" stroke="#2F363D" stroke-width="3" stroke-linecap="round" stroke-linejoin="round"/>
</svg>
