<svg width="96" height="96" viewBox="0 0 96 96" fill="none" xmlns="http://www.w3.org/2000/svg">
<path d="M17.7319 10.2576C32.5085 5.67947 37.8738 14.4287 52.6505 23.178C78.8616 38.6976 101.994 39.8628 94.6055 62.2446C89.8175 76.7493 79.0373 76.0807 57.576 79.8449C36.1147 83.6091 34.7954 91.0358 23.449 86.6612C12.1027 82.2866 17.7319 71.9095 6.38556 52.7832C-4.96078 33.6568 2.95527 14.8357 17.7319 10.2576Z" fill="#A7F3D0"/>
<path d="M67.9999 84V76C67.9999 71.7565 66.3142 67.6869 63.3136 64.6863C60.313 61.6857 56.2433 60 51.9999 60H19.9999C15.7564 60 11.6868 61.6857 8.68617 64.6863C5.68559 67.6869 3.99988 71.7565 3.99988 76V84" stroke="#2F363D" stroke-width="3" stroke-linecap="round" stroke-linejoin="round"/>
<path d="M36.0001 44C44.8367 44 52.0001 36.8366 52.0001 28C52.0001 19.1634 44.8367 12 36.0001 12C27.1636 12 20.0001 19.1634 20.0001 28C20.0001 36.8366 27.1636 44 36.0001 44Z" stroke="#2F363D" stroke-width="3" stroke-linecap="round" stroke-linejoin="round"/>
<path d="M92.0001 84.0001V76.0001C91.9975 72.4551 90.8175 69.0112 88.6456 66.2094C86.4736 63.4076 83.4326 61.4064 80.0001 60.5201" stroke="#2F363D" stroke-width="3" stroke-linecap="round" stroke-linejoin="round"/>
<path d="M63.9999 12.5201C67.4415 13.4013 70.492 15.4029 72.6704 18.2094C74.8488 21.0158 76.0312 24.4675 76.0312 28.0201C76.0312 31.5728 74.8488 35.0245 72.6704 37.8309C70.492 40.6373 67.4415 42.6389 63.9999 43.5201" stroke="#2F363D" stroke-width="3" stroke-linecap="round" stroke-linejoin="round"/>
</svg>
