<svg width="97" height="96" viewBox="0 0 97 96" fill="none" xmlns="http://www.w3.org/2000/svg">
<path d="M47.3828 84.5451C80.1217 90.7956 86.1641 75.8204 94.6234 60.3243C101.105 43.3957 93.3051 33.2386 83.5274 18.1332C73.7497 3.0277 52.9858 9.27824 37.2755 18.1332C21.5653 26.9881 -1.61554 37.6661 1.24087 61.4962C4.09727 85.3264 14.644 78.2945 47.3828 84.5451Z" fill="#A7F3D0"/>
<path d="M3.99988 48C3.99988 48 19.9999 16 47.9999 16C75.9999 16 91.9999 48 91.9999 48C91.9999 48 75.9999 80 47.9999 80C19.9999 80 3.99988 48 3.99988 48Z" stroke="#2F363D" stroke-width="3" stroke-linecap="round" stroke-linejoin="round"/>
<path d="M48 60C54.6274 60 60 54.6274 60 48C60 41.3726 54.6274 36 48 36C41.3726 36 36 41.3726 36 48C36 54.6274 41.3726 60 48 60Z" stroke="#2F363D" stroke-width="3" stroke-linecap="round" stroke-linejoin="round"/>
</svg>
