<svg width="96" height="96" viewBox="0 0 96 96" fill="none" xmlns="http://www.w3.org/2000/svg">
<path d="M17.7319 10.2576C32.5085 5.67947 37.8738 14.4287 52.6505 23.178C78.8616 38.6976 101.994 39.8628 94.6055 62.2446C89.8175 76.7493 79.0373 76.0807 57.576 79.8449C36.1147 83.6091 34.7954 91.0358 23.449 86.6612C12.1027 82.2866 17.7319 71.9095 6.38556 52.7832C-4.96078 33.6568 2.95527 14.8357 17.7319 10.2576Z" fill="#A7F3D0"/>
<path d="M20.0001 50.2003C27.9064 43.615 37.8705 40.0088 48.1601 40.0088C58.4497 40.0088 68.4139 43.615 76.3201 50.2003" stroke="#2F363D" stroke-width="3" stroke-linecap="round" stroke-linejoin="round"/>
<path d="M5.68005 36.0001C17.3697 25.696 32.4172 20.0107 48.0001 20.0107C63.5829 20.0107 78.6304 25.696 90.3201 36.0001" stroke="#2F363D" stroke-width="3" stroke-linecap="round" stroke-linejoin="round"/>
<path d="M59.7867 58.1467C59.1057 57.4653 58.2971 56.9249 57.4071 56.5561C56.5172 56.1874 55.5633 55.9976 54.6 55.9976C53.6367 55.9976 52.6828 56.1874 51.7929 56.5561C50.9029 56.9249 50.0943 57.4653 49.4133 58.1467L48 59.56L46.5867 58.1467C45.2111 56.7711 43.3454 55.9983 41.4 55.9983C39.4546 55.9983 37.5889 56.7711 36.2133 58.1467C34.8377 59.5222 34.0649 61.3879 34.0649 63.3333C34.0649 65.2787 34.8377 67.1444 36.2133 68.52L37.6267 69.9333L48 80.3067L58.3733 69.9333L59.7867 68.52C60.468 67.839 61.0085 67.0304 61.3772 66.1405C61.746 65.2505 61.9358 64.2966 61.9358 63.3333C61.9358 62.37 61.746 61.4161 61.3772 60.5262C61.0085 59.6362 60.468 58.8277 59.7867 58.1467V58.1467Z" stroke="#2F363D" stroke-width="3" stroke-linecap="round" stroke-linejoin="round"/>
</svg>
