<svg width="96" height="96" viewBox="0 0 96 96" fill="none" xmlns="http://www.w3.org/2000/svg">
    <path
        d="M17.7319 10.2576C32.5085 5.67947 37.8738 14.4287 52.6505 23.178C78.8616 38.6976 101.994 39.8628 94.6055 62.2446C89.8175 76.7493 79.0373 76.0807 57.576 79.8449C36.1147 83.6091 34.7954 91.0358 23.449 86.6612C12.1027 82.2866 17.7319 71.9095 6.38556 52.7832C-4.96078 33.6568 2.95527 14.8357 17.7319 10.2576Z"
        fill="#FEF3C7" />
    <path
        d="M16.0001 15.9999H80.0001C84.4001 15.9999 88.0001 19.5999 88.0001 23.9999V71.9999C88.0001 76.3999 84.4001 79.9999 80.0001 79.9999H16.0001C11.6001 79.9999 8.00012 76.3999 8.00012 71.9999V23.9999C8.00012 19.5999 11.6001 15.9999 16.0001 15.9999Z"
        stroke="#F59E0B" stroke-width="3" stroke-linecap="round" stroke-linejoin="round" />
    <path d="M88.0001 24L48.0001 52L8.00012 24" stroke="#F59E0B" stroke-width="3" stroke-linecap="round"
        stroke-linejoin="round" />
</svg>