<svg width="97" height="96" viewBox="0 0 97 96" fill="none" xmlns="http://www.w3.org/2000/svg">
<path d="M47.3828 84.5451C80.1217 90.7956 86.1641 75.8204 94.6234 60.3243C101.105 43.3957 93.3051 33.2386 83.5274 18.1332C73.7497 3.0277 52.9858 9.27824 37.2755 18.1332C21.5653 26.9881 -1.61554 37.6661 1.24087 61.4962C4.09727 85.3264 14.644 78.2945 47.3828 84.5451Z" fill="#A7F3D0"/>
<path d="M28.0001 88H16.0001C13.8784 88 11.8436 87.1571 10.3433 85.6568C8.84298 84.1566 8.00012 82.1217 8.00012 80V52C8.00012 49.8783 8.84298 47.8434 10.3433 46.3431C11.8436 44.8429 13.8784 44 16.0001 44H28.0001M56.0001 36V20C56.0001 16.8174 54.7358 13.7652 52.4854 11.5147C50.235 9.26428 47.1827 8 44.0001 8L28.0001 44V88H73.1201C75.0494 88.0218 76.9216 87.3456 78.3917 86.096C79.8619 84.8464 80.8308 83.1076 81.1201 81.2L86.6401 45.2C86.8142 44.0534 86.7368 42.8827 86.4135 41.769C86.0901 40.6553 85.5285 39.6252 84.7676 38.7501C84.0066 37.8749 83.0644 37.1757 82.0064 36.7009C80.9484 36.226 79.7998 35.9869 78.6401 36H56.0001Z" stroke="#2F363D" stroke-width="3" stroke-linecap="round" stroke-linejoin="round"/>
</svg>
