<svg width="96" height="96" viewBox="0 0 96 96" fill="none" xmlns="http://www.w3.org/2000/svg">
<path d="M17.7319 10.2576C32.5085 5.67947 37.8738 14.4287 52.6505 23.178C78.8616 38.6976 101.994 39.8628 94.6055 62.2446C89.8175 76.7493 79.0373 76.0807 57.576 79.8449C36.1147 83.6091 34.7954 91.0358 23.449 86.6612C12.1027 82.2866 17.7319 71.9095 6.38556 52.7832C-4.96078 33.6568 2.95527 14.8357 17.7319 10.2576Z" fill="#A7F3D0"/>
<path d="M3.99988 4L91.9999 92" stroke="#2F363D" stroke-width="3" stroke-linecap="round" stroke-linejoin="round"/>
<path d="M66.88 44.2397C70.1564 45.8387 73.2201 47.8409 76 50.1997" stroke="#2F363D" stroke-width="3" stroke-linecap="round" stroke-linejoin="round"/>
<path d="M20.0001 50.1997C25.9285 45.243 33.0636 41.9445 40.6801 40.6396" stroke="#2F363D" stroke-width="3" stroke-linecap="round" stroke-linejoin="round"/>
<path d="M42.8401 20.1999C51.4097 19.5094 60.0307 20.5526 68.1883 23.2672C76.3459 25.9818 83.8729 30.3122 90.3201 35.9999" stroke="#2F363D" stroke-width="3" stroke-linecap="round" stroke-linejoin="round"/>
<path d="M5.68005 36C11.2287 31.0954 17.5908 27.1969 24.4801 24.48" stroke="#2F363D" stroke-width="3" stroke-linecap="round" stroke-linejoin="round"/>
<path d="M34.12 64.4399C38.1808 61.5549 43.0387 60.0049 48.02 60.0049C53.0013 60.0049 57.8592 61.5549 61.92 64.4399" stroke="#2F363D" stroke-width="3" stroke-linecap="round" stroke-linejoin="round"/>
<path d="M48 80H48.04" stroke="#2F363D" stroke-width="3" stroke-linecap="round" stroke-linejoin="round"/>
</svg>
