<svg width="96" height="96" viewBox="0 0 96 96" fill="none" xmlns="http://www.w3.org/2000/svg">
<path d="M17.7319 10.2576C32.5085 5.67947 37.8738 14.4287 52.6505 23.178C78.8616 38.6976 101.994 39.8628 94.6055 62.2446C89.8175 76.7493 79.0373 76.0807 57.576 79.8449C36.1147 83.6091 34.7954 91.0358 23.449 86.6612C12.1027 82.2866 17.7319 71.9095 6.38556 52.7832C-4.96078 33.6568 2.95527 14.8357 17.7319 10.2576Z" fill="#A7F3D0"/>
<path d="M84 46C84.0138 51.2795 82.7803 56.4875 80.4 61.2C77.5777 66.847 73.239 71.5967 67.8698 74.9171C62.5006 78.2375 56.313 79.9975 50 80C44.7205 80.0137 39.5125 78.7803 34.8 76.4L12 84L19.6 61.2C17.2197 56.4875 15.9862 51.2795 16 46C16.0024 39.687 17.7624 33.4994 21.0829 28.1302C24.4033 22.761 29.153 18.4223 34.8 15.6C39.5125 13.2197 44.7205 11.9862 50 12H52C60.3374 12.46 68.2122 15.979 74.1166 21.8834C80.0209 27.7878 83.54 35.6626 84 44V46Z" stroke="#2F363D" stroke-width="3" stroke-linecap="round" stroke-linejoin="round"/>
</svg>
