<svg width="36" height="36" viewBox="0 0 36 36" fill="none" xmlns="http://www.w3.org/2000/svg">
<path d="M29.7255 32.5284C24.1843 34.2452 22.1723 30.9642 16.6311 27.6832C6.80191 21.8634 -1.87265 21.4265 0.897937 13.0333C2.69342 7.59401 6.73602 7.84475 14.784 6.43316C22.832 5.02158 23.3267 2.23656 27.5816 3.87705C31.8365 5.51754 29.7255 9.40893 33.9804 16.5813C38.2353 23.7537 35.2668 30.8116 29.7255 32.5284Z" fill="#34D399"/>
<path fill-rule="evenodd" clip-rule="evenodd" d="M27.8096 6.5994C28.249 6.16013 28.9613 6.16024 29.4006 6.59964C32.4235 9.62353 34.1217 13.7242 34.1217 18C34.1217 22.2758 32.4235 26.3765 29.4006 29.4004C28.9613 29.8398 28.249 29.8399 27.8096 29.4006C27.3702 28.9614 27.3701 28.2491 27.8093 27.8096C30.4105 25.2077 31.8717 21.6792 31.8717 18C31.8717 14.3209 30.4105 10.7923 27.8093 8.19039C27.3701 7.75099 27.3702 7.03868 27.8096 6.5994ZM16.9873 6.4861C17.3771 6.67344 17.625 7.06761 17.625 7.50007V28.5001C17.625 28.9325 17.3771 29.3267 16.9873 29.514C16.5976 29.7014 16.1349 29.6487 15.7972 29.3785L8.60537 23.6251H3C2.37868 23.6251 1.875 23.1214 1.875 22.5001V13.5001C1.875 12.8787 2.37868 12.3751 3 12.3751H8.60537L15.7972 6.62159C16.1349 6.35144 16.5976 6.29877 16.9873 6.4861ZM15.375 9.84077L9.70278 14.3785C9.50331 14.5381 9.25546 14.6251 9 14.6251H4.125V21.3751H9C9.25546 21.3751 9.50331 21.462 9.70278 21.6216L15.375 26.1594V9.84077ZM22.5146 11.8944C22.954 11.4551 23.6663 11.4552 24.1056 11.8946C25.7225 13.5121 26.6308 15.7055 26.6308 17.9925C26.6308 20.2796 25.7225 22.473 24.1056 24.0904C23.6663 24.5298 22.954 24.5299 22.5146 24.0906C22.0752 23.6514 22.0751 22.9391 22.5143 22.4996C23.7095 21.3042 24.3809 19.6829 24.3809 17.9925C24.3809 16.3021 23.7095 14.6809 22.5143 13.4854C22.0751 13.046 22.0752 12.3337 22.5146 11.8944Z" fill="#2F363D"/>
</svg>
