<svg width="97" height="96" viewBox="0 0 97 96" fill="none" xmlns="http://www.w3.org/2000/svg">
<path d="M47.3828 84.5451C80.1217 90.7956 86.1641 75.8204 94.6234 60.3243C101.105 43.3957 93.3051 33.2386 83.5274 18.1332C73.7497 3.0277 52.9858 9.27824 37.2755 18.1332C21.5653 26.9881 -1.61554 37.6661 1.24087 61.4962C4.09727 85.3264 14.644 78.2945 47.3828 84.5451Z" fill="#A7F3D0"/>
<path d="M63.9999 12H3.99988V64H63.9999V12Z" stroke="#2F363D" stroke-width="3" stroke-linecap="round" stroke-linejoin="round"/>
<path d="M63.9999 32H79.9999L91.9999 44V64H63.9999V32Z" stroke="#2F363D" stroke-width="3" stroke-linecap="round" stroke-linejoin="round"/>
<path d="M22 84C27.5228 84 32 79.5228 32 74C32 68.4772 27.5228 64 22 64C16.4772 64 12 68.4772 12 74C12 79.5228 16.4772 84 22 84Z" stroke="#2F363D" stroke-width="3" stroke-linecap="round" stroke-linejoin="round"/>
<path d="M73.9999 84C79.5227 84 83.9999 79.5228 83.9999 74C83.9999 68.4772 79.5227 64 73.9999 64C68.477 64 63.9999 68.4772 63.9999 74C63.9999 79.5228 68.477 84 73.9999 84Z" stroke="#2F363D" stroke-width="3" stroke-linecap="round" stroke-linejoin="round"/>
</svg>
