<svg width="96" height="96" viewBox="0 0 96 96" fill="none" xmlns="http://www.w3.org/2000/svg">
<path d="M17.7319 10.2576C32.5085 5.67947 37.8738 14.4287 52.6505 23.178C78.8616 38.6976 101.994 39.8628 94.6055 62.2446C89.8175 76.7493 79.0373 76.0807 57.576 79.8449C36.1147 83.6091 34.7954 91.0358 23.449 86.6612C12.1027 82.2866 17.7319 71.9095 6.38556 52.7832C-4.96078 33.6568 2.95527 14.8357 17.7319 10.2576Z" fill="#A7F3D0"/>
<path d="M55.5 84C55.5 84.3978 55.342 84.7793 55.0607 85.0606C54.7794 85.3419 54.3978 85.5 54 85.5H42C41.6022 85.5 41.2207 85.3419 40.9393 85.0606C40.658 84.7793 40.5 84.3978 40.5 84C40.5 83.6022 40.658 83.2206 40.9393 82.9393C41.2207 82.658 41.6022 82.5 42 82.5H54C54.3978 82.5 54.7794 82.658 55.0607 82.9393C55.342 83.2206 55.5 83.6022 55.5 84ZM82.1625 58.7625L77.5125 79.6125C77.3526 80.3631 77.0033 81.0604 76.4979 81.638C75.9925 82.2156 75.3478 82.6543 74.625 82.9125C74.1381 83.0577 73.6331 83.1334 73.125 83.1375C72.104 83.1409 71.1123 82.7971 70.3125 82.1625L59.475 73.5H36.525L25.6875 82.1625C24.8878 82.7971 23.896 83.1409 22.875 83.1375C22.3669 83.1334 21.8619 83.0577 21.375 82.9125C20.6522 82.6543 20.0075 82.2156 19.5021 81.638C18.9967 81.0604 18.6475 80.3631 18.4875 79.6125L13.8375 58.7625C13.6986 58.0894 13.7107 57.3939 13.8728 56.726C14.0349 56.0581 14.343 55.4345 14.775 54.9L26.2125 41.2125C26.4909 36.6099 27.4906 32.0797 29.175 27.7875C33.6 16.35 41.85 8.92498 45.1875 6.22498C45.9899 5.59126 46.9842 5.24969 48.0066 5.25651C49.029 5.26332 50.0186 5.61812 50.8125 6.26248C54.9 9.56248 62.4 16.8 66.6375 27.7875C68.2699 31.9896 69.2561 36.4148 69.5625 40.9125L81.225 54.9C81.657 55.4345 81.9651 56.0581 82.1272 56.726C82.2893 57.3939 82.3014 58.0894 82.1625 58.7625V58.7625ZM36.8625 70.5H59.1375C78.0375 36.15 56.1375 14.4375 48.9375 8.58748C48.6745 8.36781 48.3427 8.24747 48 8.24747C47.6573 8.24747 47.3255 8.36781 47.0625 8.58748C39.75 14.4375 17.55 36.1125 36.8625 70.5ZM34.05 71.625C29.175 62.8125 26.55 54.225 26.175 45.9375L17.1 56.8125C16.9537 56.9942 16.8507 57.2067 16.7987 57.4341C16.7467 57.6615 16.7472 57.8978 16.8 58.125L21.4125 78.975C21.4689 79.2243 21.5881 79.4551 21.7587 79.6454C21.9293 79.8357 22.1458 79.9793 22.3875 80.0625C22.6248 80.1478 22.8798 80.1719 23.1288 80.1325C23.3779 80.0932 23.613 79.9917 23.8125 79.8375L34.05 71.625ZM78.9 56.8125L69.6375 45.7125C69.3375 54.075 66.75 62.7375 61.9125 71.625L72.1875 79.8375C72.387 79.9917 72.6221 80.0932 72.8712 80.1325C73.1203 80.1719 73.3752 80.1478 73.6125 80.0625C73.8542 79.9793 74.0707 79.8357 74.2413 79.6454C74.4119 79.4551 74.5311 79.2243 74.5875 78.975L79.2 58.125C79.2528 57.8978 79.2533 57.6615 79.2013 57.4341C79.1493 57.2067 79.0463 56.9942 78.9 56.8125V56.8125ZM48 39C48.5934 39 49.1734 38.824 49.6667 38.4944C50.1601 38.1647 50.5446 37.6962 50.7716 37.148C50.9987 36.5998 51.0581 35.9966 50.9424 35.4147C50.8266 34.8328 50.5409 34.2982 50.1213 33.8787C49.7018 33.4591 49.1672 33.1734 48.5853 33.0576C48.0033 32.9419 47.4001 33.0013 46.852 33.2283C46.3038 33.4554 45.8352 33.8399 45.5056 34.3333C45.176 34.8266 45 35.4066 45 36C45 36.7956 45.3161 37.5587 45.8787 38.1213C46.4413 38.6839 47.2044 39 48 39Z" fill="black"/>
</svg>
