<svg width="97" height="96" viewBox="0 0 97 96" fill="none" xmlns="http://www.w3.org/2000/svg">
    <path
        d="M47.3828 84.5451C80.1217 90.7956 86.1641 75.8204 94.6234 60.3243C101.105 43.3957 93.3051 33.2386 83.5274 18.1332C73.7497 3.0277 52.9858 9.27824 37.2755 18.1332C21.5653 26.9881 -1.61554 37.6661 1.24087 61.4962C4.09727 85.3264 14.644 78.2945 47.3828 84.5451Z"
        fill="#FBBF24" />
    <path
        d="M76 12H20C15.5817 12 12 15.5817 12 20V76C12 80.4183 15.5817 84 20 84H76C80.4183 84 84 80.4183 84 76V20C84 15.5817 80.4183 12 76 12Z"
        stroke="#2F363D" stroke-width="3" stroke-linecap="round" stroke-linejoin="round" />
    <path
        d="M33.9999 40C37.3136 40 39.9999 37.3137 39.9999 34C39.9999 30.6863 37.3136 28 33.9999 28C30.6862 28 27.9999 30.6863 27.9999 34C27.9999 37.3137 30.6862 40 33.9999 40Z"
        stroke="#2F363D" stroke-width="3" stroke-linecap="round" stroke-linejoin="round" />
    <path d="M84.0001 60L64.0001 40L20.0001 84" stroke="#2F363D" stroke-width="3" stroke-linecap="round"
        stroke-linejoin="round" />
</svg>