<svg width="96" height="96" viewBox="0 0 96 96" fill="none" xmlns="http://www.w3.org/2000/svg">
<path d="M17.7319 10.2576C32.5085 5.67947 37.8738 14.4287 52.6505 23.178C78.8616 38.6976 101.994 39.8628 94.6055 62.2446C89.8175 76.7493 79.0373 76.0807 57.576 79.8449C36.1147 83.6091 34.7954 91.0358 23.449 86.6612C12.1027 82.2866 17.7319 71.9095 6.38556 52.7832C-4.96078 33.6568 2.95527 14.8357 17.7319 10.2576Z" fill="#A7F3D0"/>
<path d="M48.0001 88C70.0915 88 88.0001 70.0914 88.0001 48C88.0001 25.9086 70.0915 8 48.0001 8C25.9087 8 8.00012 25.9086 8.00012 48C8.00012 70.0914 25.9087 88 48.0001 88Z" stroke="#2F363D" stroke-width="3" stroke-linecap="round" stroke-linejoin="round"/>
<path d="M34.24 11C51.72 35.12 58.32 48.68 66.36 81.88M76.52 20.36C61.64 37.76 40.76 43 9 43.76M87 51.36C73 47.64 60.48 48.08 51.24 51.36C40.92 55.04 31.2 62.8 21.48 76.64" stroke="#2F363D" stroke-width="3" stroke-linecap="round" stroke-linejoin="round"/>
</svg>
