<svg width="96" height="96" viewBox="0 0 96 96" fill="none" xmlns="http://www.w3.org/2000/svg">
<path d="M79.2681 86.7424C64.4915 91.3205 59.1262 82.5713 44.3495 73.822C18.1384 58.3024 -4.99373 57.1372 2.3945 34.7554C7.18247 20.2507 17.9627 20.9193 39.424 17.1551C60.8853 13.3909 62.2046 5.96415 73.551 10.3388C84.8973 14.7134 79.2681 25.0905 90.6144 44.2168C101.961 63.3432 94.0447 82.1643 79.2681 86.7424Z" fill="#A7F3D0"/>
<path d="M84 40C84 68 48 92 48 92C48 92 12 68 12 40C12 30.4522 15.7928 21.2955 22.5442 14.5442C29.2955 7.79285 38.4522 4 48 4C57.5478 4 66.7045 7.79285 73.4558 14.5442C80.2072 21.2955 84 30.4522 84 40Z" stroke="#2F363D" stroke-width="3" stroke-linecap="round" stroke-linejoin="round"/>
<path d="M48 52C54.6274 52 60 46.6274 60 40C60 33.3726 54.6274 28 48 28C41.3726 28 36 33.3726 36 40C36 46.6274 41.3726 52 48 52Z" stroke="#2F363D" stroke-width="3" stroke-linecap="round" stroke-linejoin="round"/>
</svg>
