<svg width="96" height="96" viewBox="0 0 96 96" fill="none" xmlns="http://www.w3.org/2000/svg">
<path d="M79.2681 86.7424C64.4915 91.3205 59.1262 82.5713 44.3495 73.822C18.1384 58.3024 -4.99373 57.1372 2.3945 34.7554C7.18247 20.2507 17.9627 20.9193 39.424 17.1551C60.8853 13.3909 62.2046 5.96415 73.551 10.3388C84.8973 14.7134 79.2681 25.0905 90.6144 44.2168C101.961 63.3432 94.0447 82.1643 79.2681 86.7424Z" fill="#A7F3D0"/>
<path d="M67.9999 84V76C67.9999 71.7565 66.3142 67.6869 63.3136 64.6863C60.313 61.6857 56.2433 60 51.9999 60H19.9999C15.7564 60 11.6868 61.6857 8.68617 64.6863C5.68559 67.6869 3.99988 71.7565 3.99988 76V84" stroke="#2F363D" stroke-width="3" stroke-linecap="round" stroke-linejoin="round"/>
<path d="M36.0001 44C44.8367 44 52.0001 36.8366 52.0001 28C52.0001 19.1634 44.8367 12 36.0001 12C27.1636 12 20.0001 19.1634 20.0001 28C20.0001 36.8366 27.1636 44 36.0001 44Z" stroke="#2F363D" stroke-width="3" stroke-linecap="round" stroke-linejoin="round"/>
<path d="M92.0001 84.0001V76.0001C91.9975 72.4551 90.8175 69.0112 88.6456 66.2094C86.4736 63.4076 83.4326 61.4064 80.0001 60.5201" stroke="#2F363D" stroke-width="3" stroke-linecap="round" stroke-linejoin="round"/>
<path d="M63.9999 12.5201C67.4415 13.4013 70.492 15.4029 72.6704 18.2094C74.8488 21.0158 76.0312 24.4675 76.0312 28.0201C76.0312 31.5728 74.8488 35.0245 72.6704 37.8309C70.492 40.6373 67.4415 42.6389 63.9999 43.5201" stroke="#2F363D" stroke-width="3" stroke-linecap="round" stroke-linejoin="round"/>
</svg>
