<svg width="96" height="96" viewBox="0 0 96 96" fill="none" xmlns="http://www.w3.org/2000/svg">
<path d="M17.7319 10.2576C32.5085 5.67947 37.8738 14.4287 52.6505 23.178C78.8616 38.6976 101.994 39.8628 94.6055 62.2446C89.8175 76.7493 79.0373 76.0807 57.576 79.8449C36.1147 83.6091 34.7954 91.0358 23.449 86.6612C12.1027 82.2866 17.7319 71.9095 6.38556 52.7832C-4.96078 33.6568 2.95527 14.8357 17.7319 10.2576Z" fill="#A7F3D0"/>
<path d="M92.0001 28V4H68.0001" stroke="#2F363D" stroke-width="3" stroke-linecap="round" stroke-linejoin="round"/>
<path d="M63.9999 32L91.9999 4" stroke="#2F363D" stroke-width="3" stroke-linecap="round" stroke-linejoin="round"/>
<path d="M88.0001 67.6799V79.6799C88.0046 80.7939 87.7764 81.8966 87.3301 82.9173C86.8838 83.938 86.2293 84.8542 85.4084 85.6074C84.5875 86.3605 83.6184 86.9338 82.5631 87.2907C81.5078 87.6476 80.3896 87.7802 79.2801 87.6799C66.9714 86.3425 55.1481 82.1365 44.7601 75.3999C35.0954 69.2586 26.9014 61.0646 20.7601 51.3999C14 40.9647 9.79307 29.0839 8.4801 16.7199C8.38014 15.6138 8.5116 14.4989 8.8661 13.4464C9.2206 12.3939 9.79038 11.4267 10.5392 10.6064C11.2879 9.78611 12.1993 9.13074 13.2153 8.68199C14.2312 8.23324 15.3295 8.00095 16.4401 7.9999H28.4401C30.3813 7.98079 32.2633 8.66821 33.7351 9.93403C35.207 11.1998 36.1684 12.9577 36.4401 14.8799C36.9466 18.7202 37.8859 22.4908 39.2401 26.1199C39.7783 27.5516 39.8947 29.1076 39.5757 30.6034C39.2567 32.0993 38.5156 33.4723 37.4401 34.5599L32.3601 39.6399C38.0543 49.6541 46.3459 57.9457 56.3601 63.6399L61.4401 58.5599C62.5277 57.4844 63.9007 56.7433 65.3966 56.4243C66.8924 56.1052 68.4484 56.2217 69.8801 56.7599C73.5092 58.1141 77.2798 59.0534 81.1201 59.5599C83.0632 59.834 84.8377 60.8127 86.1062 62.3099C87.3748 63.807 88.0488 65.7182 88.0001 67.6799Z" stroke="#2F363D" stroke-width="3" stroke-linecap="round" stroke-linejoin="round"/>
</svg>
