<svg width="96" height="96" viewBox="0 0 96 96" fill="none" xmlns="http://www.w3.org/2000/svg">
<path d="M79.2681 86.7424C64.4915 91.3205 59.1262 82.5713 44.3495 73.822C18.1384 58.3024 -4.99373 57.1372 2.3945 34.7554C7.18247 20.2507 17.9627 20.9193 39.424 17.1551C60.8853 13.3909 62.2046 5.96415 73.551 10.3388C84.8973 14.7134 79.2681 25.0905 90.6144 44.2168C101.961 63.3432 94.0447 82.1643 79.2681 86.7424Z" fill="#A7F3D0"/>
<path d="M63.9999 12H3.99988V64H63.9999V12Z" stroke="#2F363D" stroke-width="3" stroke-linecap="round" stroke-linejoin="round"/>
<path d="M63.9999 32H79.9999L91.9999 44V64H63.9999V32Z" stroke="#2F363D" stroke-width="3" stroke-linecap="round" stroke-linejoin="round"/>
<path d="M22 84C27.5228 84 32 79.5228 32 74C32 68.4772 27.5228 64 22 64C16.4772 64 12 68.4772 12 74C12 79.5228 16.4772 84 22 84Z" stroke="#2F363D" stroke-width="3" stroke-linecap="round" stroke-linejoin="round"/>
<path d="M73.9999 84C79.5227 84 83.9999 79.5228 83.9999 74C83.9999 68.4772 79.5227 64 73.9999 64C68.477 64 63.9999 68.4772 63.9999 74C63.9999 79.5228 68.477 84 73.9999 84Z" stroke="#2F363D" stroke-width="3" stroke-linecap="round" stroke-linejoin="round"/>
</svg>
