<svg width="37" height="36" viewBox="0 0 37 36" fill="none" xmlns="http://www.w3.org/2000/svg">
<path d="M18.9814 3.9206C6.70437 1.57665 4.43848 7.19236 1.26621 13.0034C-1.16448 19.3516 1.76059 23.1605 5.42723 28.8251C9.09387 34.4896 16.8803 32.1457 22.7717 28.8251C28.663 25.5045 37.3558 21.5002 36.2847 12.5639C35.2135 3.6276 31.2585 6.26455 18.9814 3.9206Z" fill="#FBBF24"/>
<path d="M30.053 5.94841C28.6454 4.54525 26.739 3.75732 24.7514 3.75732C22.7639 3.75732 20.8575 4.54525 19.4499 5.94841L5.94989 19.4484C4.54382 20.8545 3.75391 22.7615 3.75391 24.75C3.75391 26.7385 4.54382 28.6455 5.94989 30.0515C7.35595 31.4576 9.26298 32.2475 11.2514 32.2475C13.2399 32.2475 15.1469 31.4576 16.553 30.0515L23.303 23.3015L30.053 16.5515C31.4528 15.1421 32.2383 13.2364 32.2383 11.25C32.2383 9.26359 31.4528 7.35782 30.053 5.94841ZM14.9499 28.4484C14.467 28.9391 13.8913 29.3288 13.2564 29.5947C12.6214 29.8607 11.9399 29.9977 11.2514 29.9977C10.563 29.9977 9.88149 29.8607 9.24653 29.5947C8.61157 29.3288 8.03589 28.9391 7.55301 28.4484C7.06575 27.9636 6.67909 27.3873 6.41525 26.7526C6.1514 26.1179 6.01558 25.4373 6.01558 24.75C6.01558 24.0626 6.1514 23.382 6.41525 22.7473C6.67909 22.1126 7.06575 21.5363 7.55301 21.0515L13.5014 15.089L20.9124 22.5L14.9499 28.4484ZM28.4499 14.9484L22.5014 20.9109L15.0905 13.5L21.053 7.55154C21.5359 7.06088 22.1116 6.6712 22.7465 6.40522C23.3815 6.13923 24.063 6.00225 24.7514 6.00225C25.4399 6.00225 26.1214 6.13923 26.7564 6.40522C27.3913 6.6712 27.967 7.06088 28.4499 7.55154C28.9371 8.03634 29.3238 8.61265 29.5877 9.24735C29.8515 9.88204 29.9873 10.5626 29.9873 11.25C29.9873 11.9373 29.8515 12.6179 29.5877 13.2526C29.3238 13.8873 28.9371 14.4636 28.4499 14.9484ZM26.7483 11.6578C26.8524 11.7631 26.9344 11.8882 26.9894 12.0257C27.0444 12.1631 27.0714 12.3102 27.0688 12.4582C27.0662 12.6063 27.034 12.7523 26.9741 12.8877C26.9143 13.0232 26.8279 13.1453 26.7202 13.2469L23.2889 16.5656C23.1836 16.6697 23.0585 16.7516 22.9211 16.8067C22.7836 16.8617 22.6365 16.8887 22.4885 16.8861C22.3404 16.8835 22.1944 16.8513 22.059 16.7914C21.9236 16.7315 21.8015 16.6452 21.6999 16.5375C21.5958 16.4321 21.5139 16.3071 21.4588 16.1696C21.4038 16.0321 21.3768 15.8851 21.3794 15.737C21.382 15.589 21.4142 15.4429 21.4741 15.3075C21.5339 15.1721 21.6203 15.05 21.728 14.9484L25.1593 11.6297C25.3756 11.4264 25.6627 11.3155 25.9595 11.3208C26.2563 11.326 26.5393 11.447 26.7483 11.6578V11.6578Z" fill="black"/>
</svg>
