<svg width="96" height="96" viewBox="0 0 96 96" fill="none" xmlns="http://www.w3.org/2000/svg">
<path d="M79.2681 86.7424C64.4915 91.3205 59.1262 82.5713 44.3495 73.822C18.1384 58.3024 -4.99373 57.1372 2.3945 34.7554C7.18247 20.2507 17.9627 20.9193 39.424 17.1551C60.8853 13.3909 62.2046 5.96415 73.551 10.3388C84.8973 14.7134 79.2681 25.0905 90.6144 44.2168C101.961 63.3432 94.0447 82.1643 79.2681 86.7424Z" fill="#A7F3D0"/>
<path d="M48 10.7603L70.64 33.4003C75.1174 37.8747 78.1672 43.5765 79.4036 49.7845C80.6401 55.9924 80.0076 62.4277 77.5862 68.2761C75.1648 74.1246 71.0633 79.1235 65.8005 82.6407C60.5376 86.1578 54.3499 88.0351 48.02 88.0351C41.6901 88.0351 35.5024 86.1578 30.2396 82.6407C24.9768 79.1235 20.8753 74.1246 18.4539 68.2761C16.0325 62.4277 15.4 55.9924 16.6364 49.7845C17.8729 43.5765 20.9227 37.8747 25.4 33.4003L48 10.7603Z" stroke="#2F363D" stroke-width="3" stroke-linecap="round" stroke-linejoin="round"/>
</svg>
