<svg width="97" height="96" viewBox="0 0 97 96" fill="none" xmlns="http://www.w3.org/2000/svg">
<path d="M50.6172 10.4549C17.8783 4.2044 11.8359 19.1796 3.37657 34.6757C-3.10528 51.6043 4.69491 61.7614 14.4726 76.8668C24.2503 91.9723 45.0142 85.7218 60.7245 76.8668C76.4347 68.0119 99.6155 57.3339 96.7591 33.5038C93.9027 9.67361 83.356 16.7055 50.6172 10.4549Z" fill="#A7F3D0"/>
<path d="M84 46C84.0138 51.2795 82.7803 56.4875 80.4 61.2C77.5777 66.847 73.239 71.5967 67.8698 74.9171C62.5006 78.2375 56.313 79.9975 50 80C44.7205 80.0137 39.5125 78.7803 34.8 76.4L12 84L19.6 61.2C17.2197 56.4875 15.9862 51.2795 16 46C16.0024 39.687 17.7624 33.4994 21.0829 28.1302C24.4033 22.761 29.153 18.4223 34.8 15.6C39.5125 13.2197 44.7205 11.9862 50 12H52C60.3374 12.46 68.2122 15.979 74.1166 21.8834C80.0209 27.7878 83.54 35.6626 84 44V46Z" stroke="#2F363D" stroke-width="3" stroke-linecap="round" stroke-linejoin="round"/>
</svg>
