<svg width="97" height="96" viewBox="0 0 97 96" fill="none" xmlns="http://www.w3.org/2000/svg">
<path d="M47.3828 84.5451C80.1217 90.7956 86.1641 75.8204 94.6234 60.3243C101.105 43.3957 93.3051 33.2386 83.5274 18.1332C73.7497 3.0277 52.9858 9.27824 37.2755 18.1332C21.5653 26.9881 -1.61554 37.6661 1.24087 61.4962C4.09727 85.3264 14.644 78.2945 47.3828 84.5451Z" fill="#A7F3D0"/>
<path d="M76 15.9999H20C15.5817 15.9999 12 19.5816 12 23.9999V79.9999C12 84.4181 15.5817 87.9999 20 87.9999H76C80.4183 87.9999 84 84.4181 84 79.9999V23.9999C84 19.5816 80.4183 15.9999 76 15.9999Z" stroke="#2F363D" stroke-width="3" stroke-linecap="round" stroke-linejoin="round"/>
<path d="M63.9999 8.00012V24.0001" stroke="#2F363D" stroke-width="3" stroke-linecap="round" stroke-linejoin="round"/>
<path d="M32.0001 8.00012V24.0001" stroke="#2F363D" stroke-width="3" stroke-linecap="round" stroke-linejoin="round"/>
<path d="M12 39.9999H84" stroke="#2F363D" stroke-width="3" stroke-linecap="round" stroke-linejoin="round"/>
</svg>
