<svg width="96" height="96" viewBox="0 0 96 96" fill="none" xmlns="http://www.w3.org/2000/svg">
<path d="M17.7319 10.2576C32.5085 5.67947 37.8738 14.4287 52.6505 23.178C78.8616 38.6976 101.994 39.8628 94.6055 62.2446C89.8175 76.7493 79.0373 76.0807 57.576 79.8449C36.1147 83.6091 34.7954 91.0358 23.449 86.6612C12.1027 82.2866 17.7319 71.9095 6.38556 52.7832C-4.96078 33.6568 2.95527 14.8357 17.7319 10.2576Z" fill="#A7F3D0"/>
<path d="M79.9999 48V88H15.9999V48" stroke="#2F363D" stroke-width="3" stroke-linecap="round" stroke-linejoin="round"/>
<path d="M88.0001 28H8.00012V48H88.0001V28Z" stroke="#2F363D" stroke-width="3" stroke-linecap="round" stroke-linejoin="round"/>
<path d="M48 88V28" stroke="#2F363D" stroke-width="3" stroke-linecap="round" stroke-linejoin="round"/>
<path d="M48.0001 28H30.0001C27.348 28 24.8044 26.9464 22.9291 25.0711C21.0537 23.1957 20.0001 20.6522 20.0001 18C20.0001 15.3478 21.0537 12.8043 22.9291 10.9289C24.8044 9.05357 27.348 8 30.0001 8C44.0001 8 48.0001 28 48.0001 28Z" stroke="#2F363D" stroke-width="3" stroke-linecap="round" stroke-linejoin="round"/>
<path d="M48 28H66C68.6522 28 71.1957 26.9464 73.0711 25.0711C74.9464 23.1957 76 20.6522 76 18C76 15.3478 74.9464 12.8043 73.0711 10.9289C71.1957 9.05357 68.6522 8 66 8C52 8 48 28 48 28Z" stroke="#2F363D" stroke-width="3" stroke-linecap="round" stroke-linejoin="round"/>
</svg>
