<svg width="96" height="96" viewBox="0 0 96 96" fill="none" xmlns="http://www.w3.org/2000/svg">
<path d="M17.7319 10.2576C32.5085 5.67947 37.8738 14.4287 52.6505 23.178C78.8616 38.6976 101.994 39.8628 94.6055 62.2446C89.8175 76.7493 79.0373 76.0807 57.576 79.8449C36.1147 83.6091 34.7954 91.0358 23.449 86.6612C12.1027 82.2866 17.7319 71.9095 6.38556 52.7832C-4.96078 33.6568 2.95527 14.8357 17.7319 10.2576Z" fill="#A7F3D0"/>
<path d="M48 4C44.8174 4 41.7652 5.26428 39.5147 7.51472C37.2643 9.76516 36 12.8174 36 16V48C36 51.1826 37.2643 54.2348 39.5147 56.4853C41.7652 58.7357 44.8174 60 48 60C51.1826 60 54.2348 58.7357 56.4853 56.4853C58.7357 54.2348 60 51.1826 60 48V16C60 12.8174 58.7357 9.76516 56.4853 7.51472C54.2348 5.26428 51.1826 4 48 4V4Z" stroke="#2F363D" stroke-width="3" stroke-linecap="round" stroke-linejoin="round"/>
<path d="M76.0001 40V48C76.0001 55.4261 73.0501 62.548 67.7991 67.799C62.5481 73.05 55.4262 76 48.0001 76C40.5741 76 33.4522 73.05 28.2011 67.799C22.9501 62.548 20.0001 55.4261 20.0001 48V40" stroke="#2F363D" stroke-width="3" stroke-linecap="round" stroke-linejoin="round"/>
<path d="M48 76V92" stroke="#2F363D" stroke-width="3" stroke-linecap="round" stroke-linejoin="round"/>
<path d="M32.0001 92H64.0001" stroke="#2F363D" stroke-width="3" stroke-linecap="round" stroke-linejoin="round"/>
</svg>
