<svg width="36" height="36" viewBox="0 0 36 36" fill="none" xmlns="http://www.w3.org/2000/svg">
<path d="M6.64946 3.8466C12.1907 2.1298 14.2027 5.41078 19.7439 8.69176C29.5731 14.5116 38.2476 14.9485 35.4771 23.3417C33.6816 28.781 29.639 28.5303 21.591 29.9418C13.543 31.3534 13.0483 34.1384 8.79339 32.498C4.53851 30.8575 6.64946 26.9661 2.39458 19.7937C-1.86029 12.6213 1.10823 5.56339 6.64946 3.8466Z" fill="#FBBF24"/>
<path fill-rule="evenodd" clip-rule="evenodd" d="M18 4.125C10.337 4.125 4.125 10.337 4.125 18C4.125 25.663 10.337 31.875 18 31.875C25.663 31.875 31.875 25.663 31.875 18C31.875 10.337 25.663 4.125 18 4.125ZM1.875 18C1.875 9.09441 9.09441 1.875 18 1.875C26.9056 1.875 34.125 9.09441 34.125 18C34.125 26.9056 26.9056 34.125 18 34.125C9.09441 34.125 1.875 26.9056 1.875 18ZM12.375 13.5C12.375 12.8787 12.8787 12.375 13.5 12.375H13.515C14.1363 12.375 14.64 12.8787 14.64 13.5C14.64 14.1213 14.1363 14.625 13.515 14.625H13.5C12.8787 14.625 12.375 14.1213 12.375 13.5ZM21.375 13.5C21.375 12.8787 21.8787 12.375 22.5 12.375H22.515C23.1363 12.375 23.64 12.8787 23.64 13.5C23.64 14.1213 23.1363 14.625 22.515 14.625H22.5C21.8787 14.625 21.375 14.1213 21.375 13.5ZM11.325 20.1C11.8209 19.7281 12.524 19.8275 12.8975 20.3216C12.8983 20.3228 12.8992 20.3239 12.9 20.325L12 21C12.9 20.325 12.9002 20.3253 12.9 20.325L12.899 20.3237L12.9082 20.3354C12.9193 20.3494 12.9385 20.3732 12.9657 20.4057C13.0202 20.4706 13.1063 20.5692 13.2224 20.6904C13.4555 20.9336 13.8041 21.2619 14.2554 21.5902C15.1624 22.2498 16.435 22.875 18 22.875C19.565 22.875 20.8375 22.2498 21.7446 21.5902C22.1959 21.2619 22.5445 20.9336 22.7776 20.6904C22.8937 20.5692 22.9798 20.4706 23.0343 20.4057C23.0615 20.3732 23.0807 20.3494 23.0918 20.3354L23.1017 20.3227L23.1005 20.3243C23.4734 19.8279 24.1782 19.7274 24.675 20.1C25.1721 20.4728 25.2728 21.1779 24.9 21.675L24 21C24.9 21.675 24.9003 21.6746 24.9 21.675L24.8988 21.6765L24.8975 21.6784L24.8941 21.6828L24.8847 21.6951L24.8559 21.732C24.8321 21.762 24.7993 21.8025 24.7577 21.8521C24.6745 21.9513 24.5555 22.087 24.4021 22.2471C24.0961 22.5664 23.6479 22.9881 23.0679 23.4098C21.9124 24.2502 20.185 25.125 18 25.125C15.815 25.125 14.0875 24.2502 12.9321 23.4098C12.3521 22.9881 11.9039 22.5664 11.5979 22.2471C11.4445 22.087 11.3255 21.9513 11.2423 21.8521C11.2007 21.8025 11.1679 21.762 11.1441 21.732L11.1153 21.6951L11.1059 21.6828L11.1025 21.6784L11.1012 21.6765C11.1009 21.6762 11.1 21.675 12 21L11.1 21.675C10.7272 21.1779 10.8279 20.4728 11.325 20.1Z" fill="#2F363D"/>
</svg>
