<svg width="97" height="96" viewBox="0 0 97 96" fill="none" xmlns="http://www.w3.org/2000/svg">
<path d="M50.6172 10.4549C17.8783 4.2044 11.8359 19.1796 3.37657 34.6757C-3.10528 51.6043 4.69491 61.7614 14.4726 76.8668C24.2503 91.9723 45.0142 85.7218 60.7245 76.8668C76.4347 68.0119 99.6155 57.3339 96.7591 33.5038C93.9027 9.67361 83.356 16.7055 50.6172 10.4549Z" fill="#A7F3D0"/>
<path d="M79.9999 48V88H15.9999V48" stroke="#2F363D" stroke-width="3" stroke-linecap="round" stroke-linejoin="round"/>
<path d="M88.0001 28H8.00012V48H88.0001V28Z" stroke="#2F363D" stroke-width="3" stroke-linecap="round" stroke-linejoin="round"/>
<path d="M48 88V28" stroke="#2F363D" stroke-width="3" stroke-linecap="round" stroke-linejoin="round"/>
<path d="M48.0001 28H30.0001C27.348 28 24.8044 26.9464 22.9291 25.0711C21.0537 23.1957 20.0001 20.6522 20.0001 18C20.0001 15.3478 21.0537 12.8043 22.9291 10.9289C24.8044 9.05357 27.348 8 30.0001 8C44.0001 8 48.0001 28 48.0001 28Z" stroke="#2F363D" stroke-width="3" stroke-linecap="round" stroke-linejoin="round"/>
<path d="M48 28H66C68.6522 28 71.1957 26.9464 73.0711 25.0711C74.9464 23.1957 76 20.6522 76 18C76 15.3478 74.9464 12.8043 73.0711 10.9289C71.1957 9.05357 68.6522 8 66 8C52 8 48 28 48 28Z" stroke="#2F363D" stroke-width="3" stroke-linecap="round" stroke-linejoin="round"/>
</svg>
