<svg width="97" height="96" viewBox="0 0 97 96" fill="none" xmlns="http://www.w3.org/2000/svg">
<path d="M50.6172 10.4549C17.8783 4.2044 11.8359 19.1796 3.37657 34.6757C-3.10528 51.6043 4.69491 61.7614 14.4726 76.8668C24.2503 91.9723 45.0142 85.7218 60.7245 76.8668C76.4347 68.0119 99.6155 57.3339 96.7591 33.5038C93.9027 9.67361 83.356 16.7055 50.6172 10.4549Z" fill="#A7F3D0"/>
<path d="M36 72V20L84 12V64" stroke="#2F363D" stroke-width="3" stroke-linecap="round" stroke-linejoin="round"/>
<path d="M24 84C30.6274 84 36 78.6274 36 72C36 65.3726 30.6274 60 24 60C17.3726 60 12 65.3726 12 72C12 78.6274 17.3726 84 24 84Z" stroke="#2F363D" stroke-width="3" stroke-linecap="round" stroke-linejoin="round"/>
<path d="M72 76C78.6274 76 84 70.6274 84 64C84 57.3726 78.6274 52 72 52C65.3726 52 60 57.3726 60 64C60 70.6274 65.3726 76 72 76Z" stroke="#2F363D" stroke-width="3" stroke-linecap="round" stroke-linejoin="round"/>
</svg>
