<svg width="96" height="96" viewBox="0 0 96 96" fill="none" xmlns="http://www.w3.org/2000/svg">
<path d="M79.2681 86.7424C64.4915 91.3205 59.1262 82.5713 44.3495 73.822C18.1384 58.3024 -4.99373 57.1372 2.3945 34.7554C7.18247 20.2507 17.9627 20.9193 39.424 17.1551C60.8853 13.3909 62.2046 5.96415 73.551 10.3388C84.8973 14.7134 79.2681 25.0905 90.6144 44.2168C101.961 63.3432 94.0447 82.1643 79.2681 86.7424Z" fill="#FBBF24"/>
<path d="M72 32C72 25.6348 69.4714 19.5303 64.9706 15.0294C60.4697 10.5286 54.3652 8 48 8C41.6348 8 35.5303 10.5286 31.0294 15.0294C26.5286 19.5303 24 25.6348 24 32C24 60 12 68 12 68H84C84 68 72 60 72 32Z" stroke="#2F363D" stroke-width="3" stroke-linecap="round" stroke-linejoin="round"/>
<path d="M54.92 84C54.2167 85.2123 53.2073 86.2186 51.9929 86.9181C50.7784 87.6176 49.4015 87.9858 48 87.9858C46.5984 87.9858 45.2215 87.6176 44.007 86.9181C42.7926 86.2186 41.7832 85.2123 41.08 84" stroke="#2F363D" stroke-width="3" stroke-linecap="round" stroke-linejoin="round"/>
</svg>
