<svg width="97" height="96" viewBox="0 0 97 96" fill="none" xmlns="http://www.w3.org/2000/svg">
<path d="M50.6172 10.4549C17.8783 4.2044 11.8359 19.1796 3.37657 34.6757C-3.10528 51.6043 4.69491 61.7614 14.4726 76.8668C24.2503 91.9723 45.0142 85.7218 60.7245 76.8668C76.4347 68.0119 99.6155 57.3339 96.7591 33.5038C93.9027 9.67361 83.356 16.7055 50.6172 10.4549Z" fill="#A7F3D0"/>
<path d="M55.9999 8H23.9999C21.8781 8 19.8433 8.84285 18.343 10.3431C16.8427 11.8434 15.9999 13.8783 15.9999 16V80C15.9999 82.1217 16.8427 84.1566 18.343 85.6569C19.8433 87.1571 21.8781 88 23.9999 88H71.9999C74.1216 88 76.1564 87.1571 77.6567 85.6569C79.157 84.1566 79.9999 82.1217 79.9999 80V32L55.9999 8Z" stroke="#2F363D" stroke-width="3" stroke-linecap="round" stroke-linejoin="round"/>
<path d="M56.0001 8V32H80.0001" stroke="#2F363D" stroke-width="3" stroke-linecap="round" stroke-linejoin="round"/>
<path d="M64.0001 52H32.0001" stroke="#2F363D" stroke-width="3" stroke-linecap="round" stroke-linejoin="round"/>
<path d="M64.0001 68H32.0001" stroke="#2F363D" stroke-width="3" stroke-linecap="round" stroke-linejoin="round"/>
<path d="M40.0001 36H36.0001H32.0001" stroke="#2F363D" stroke-width="3" stroke-linecap="round" stroke-linejoin="round"/>
</svg>
