<svg width="96" height="96" viewBox="0 0 96 96" fill="none" xmlns="http://www.w3.org/2000/svg">
<path d="M79.2681 86.7424C64.4915 91.3205 59.1262 82.5713 44.3495 73.822C18.1384 58.3024 -4.99373 57.1372 2.3945 34.7554C7.18247 20.2507 17.9627 20.9193 39.424 17.1551C60.8853 13.3909 62.2046 5.96415 73.551 10.3388C84.8973 14.7134 79.2681 25.0905 90.6144 44.2168C101.961 63.3432 94.0447 82.1643 79.2681 86.7424Z" fill="#A7F3D0"/>
<path d="M92.0001 16V40H68.0001" stroke="#2F363D" stroke-width="3" stroke-linecap="round" stroke-linejoin="round"/>
<path d="M3.99988 80V56H27.9999" stroke="#2F363D" stroke-width="3" stroke-linecap="round" stroke-linejoin="round"/>
<path d="M14.0399 35.9998C16.0685 30.267 19.5164 25.1414 24.0617 21.1015C28.6071 17.0615 34.1017 14.2389 40.033 12.8968C45.9643 11.5548 52.1389 11.7372 57.9806 13.4269C63.8224 15.1166 69.1409 18.2587 73.4399 22.5598L91.9999 39.9998M3.99988 55.9998L22.5599 73.4398C26.8589 77.741 32.1774 80.883 38.0191 82.5727C43.8609 84.2625 50.0354 84.4448 55.9667 83.1028C61.898 81.7608 67.3927 78.9381 71.938 74.8981C76.4833 70.8582 79.9312 65.7327 81.9599 59.9998" stroke="#2F363D" stroke-width="3" stroke-linecap="round" stroke-linejoin="round"/>
</svg>
