<svg width="97" height="96" viewBox="0 0 97 96" fill="none" xmlns="http://www.w3.org/2000/svg">
<path d="M47.3828 84.5451C80.1217 90.7956 86.1641 75.8204 94.6234 60.3243C101.105 43.3957 93.3051 33.2386 83.5274 18.1332C73.7497 3.0277 52.9858 9.27824 37.2755 18.1332C21.5653 26.9881 -1.61554 37.6661 1.24087 61.4962C4.09727 85.3264 14.644 78.2945 47.3828 84.5451Z" fill="#A7F3D0"/>
<path d="M15.9999 84.0001V56.0001" stroke="#2F363D" stroke-width="3" stroke-linecap="round" stroke-linejoin="round"/>
<path d="M15.9999 40V12" stroke="#2F363D" stroke-width="3" stroke-linecap="round" stroke-linejoin="round"/>
<path d="M48 84V48" stroke="#2F363D" stroke-width="3" stroke-linecap="round" stroke-linejoin="round"/>
<path d="M48 32V12" stroke="#2F363D" stroke-width="3" stroke-linecap="round" stroke-linejoin="round"/>
<path d="M80.0001 83.9999V63.9999" stroke="#2F363D" stroke-width="3" stroke-linecap="round" stroke-linejoin="round"/>
<path d="M80.0001 48V12" stroke="#2F363D" stroke-width="3" stroke-linecap="round" stroke-linejoin="round"/>
<path d="M3.99988 56.0001H27.9999" stroke="#2F363D" stroke-width="3" stroke-linecap="round" stroke-linejoin="round"/>
<path d="M36 32.0001H60" stroke="#2F363D" stroke-width="3" stroke-linecap="round" stroke-linejoin="round"/>
<path d="M68.0001 63.9999H92.0001" stroke="#2F363D" stroke-width="3" stroke-linecap="round" stroke-linejoin="round"/>
</svg>
