<svg width="96" height="96" viewBox="0 0 96 96" fill="none" xmlns="http://www.w3.org/2000/svg">
<path d="M17.7319 10.2576C32.5085 5.67947 37.8738 14.4287 52.6505 23.178C78.8616 38.6976 101.994 39.8628 94.6055 62.2446C89.8175 76.7493 79.0373 76.0807 57.576 79.8449C36.1147 83.6091 34.7954 91.0358 23.449 86.6612C12.1027 82.2866 17.7319 71.9095 6.38556 52.7832C-4.96078 33.6568 2.95527 14.8357 17.7319 10.2576Z" fill="#A7F3D0"/>
<path d="M76 12H20C15.5817 12 12 15.5817 12 20V76C12 80.4183 15.5817 84 20 84H76C80.4183 84 84 80.4183 84 76V20C84 15.5817 80.4183 12 76 12Z" stroke="#2F363D" stroke-width="3" stroke-linecap="round" stroke-linejoin="round"/>
<path d="M33.9999 40C37.3136 40 39.9999 37.3137 39.9999 34C39.9999 30.6863 37.3136 28 33.9999 28C30.6862 28 27.9999 30.6863 27.9999 34C27.9999 37.3137 30.6862 40 33.9999 40Z" stroke="#2F363D" stroke-width="3" stroke-linecap="round" stroke-linejoin="round"/>
<path d="M84.0001 60L64.0001 40L20.0001 84" stroke="#2F363D" stroke-width="3" stroke-linecap="round" stroke-linejoin="round"/>
</svg>
