<svg width="96" height="96" viewBox="0 0 96 96" fill="none" xmlns="http://www.w3.org/2000/svg">
<path d="M17.7319 10.2576C32.5085 5.67947 37.8738 14.4287 52.6505 23.178C78.8616 38.6976 101.994 39.8628 94.6055 62.2446C89.8175 76.7493 79.0373 76.0807 57.576 79.8449C36.1147 83.6091 34.7954 91.0358 23.449 86.6612C12.1027 82.2866 17.7319 71.9095 6.38556 52.7832C-4.96078 33.6568 2.95527 14.8357 17.7319 10.2576Z" fill="#A7F3D0"/>
<path d="M48 10.7603L70.64 33.4003C75.1174 37.8747 78.1672 43.5765 79.4036 49.7845C80.6401 55.9924 80.0076 62.4277 77.5862 68.2761C75.1648 74.1246 71.0633 79.1235 65.8005 82.6407C60.5376 86.1578 54.3499 88.0351 48.02 88.0351C41.6901 88.0351 35.5024 86.1578 30.2396 82.6407C24.9768 79.1235 20.8753 74.1246 18.4539 68.2761C16.0325 62.4277 15.4 55.9924 16.6364 49.7845C17.8729 43.5765 20.9227 37.8747 25.4 33.4003L48 10.7603Z" stroke="#2F363D" stroke-width="3" stroke-linecap="round" stroke-linejoin="round"/>
</svg>
