<svg width="96" height="96" viewBox="0 0 96 96" fill="none" xmlns="http://www.w3.org/2000/svg">
<path d="M17.7319 10.2576C32.5085 5.67947 37.8738 14.4287 52.6505 23.178C78.8616 38.6976 101.994 39.8628 94.6055 62.2446C89.8175 76.7493 79.0373 76.0807 57.576 79.8449C36.1147 83.6091 34.7954 91.0358 23.449 86.6612C12.1027 82.2866 17.7319 71.9095 6.38556 52.7832C-4.96078 33.6568 2.95527 14.8357 17.7319 10.2576Z" fill="#A7F3D0"/>
<path d="M92.0001 16V40H68.0001" stroke="#2F363D" stroke-width="3" stroke-linecap="round" stroke-linejoin="round"/>
<path d="M3.99988 80V56H27.9999" stroke="#2F363D" stroke-width="3" stroke-linecap="round" stroke-linejoin="round"/>
<path d="M14.0399 35.9998C16.0685 30.267 19.5164 25.1414 24.0617 21.1015C28.6071 17.0615 34.1017 14.2389 40.033 12.8968C45.9643 11.5548 52.1389 11.7372 57.9806 13.4269C63.8224 15.1166 69.1409 18.2587 73.4399 22.5598L91.9999 39.9998M3.99988 55.9998L22.5599 73.4398C26.8589 77.741 32.1774 80.883 38.0191 82.5727C43.8609 84.2625 50.0354 84.4448 55.9667 83.1028C61.898 81.7608 67.3927 78.9381 71.938 74.8981C76.4833 70.8582 79.9312 65.7327 81.9599 59.9998" stroke="#2F363D" stroke-width="3" stroke-linecap="round" stroke-linejoin="round"/>
</svg>
