<svg width="36" height="36" viewBox="0 0 36 36" fill="none" xmlns="http://www.w3.org/2000/svg">
<path d="M29.7255 32.5284C24.1843 34.2452 22.1723 30.9642 16.6311 27.6832C6.80191 21.8634 -1.87265 21.4265 0.897937 13.0333C2.69342 7.59401 6.73602 7.84475 14.784 6.43316C22.832 5.02158 23.3267 2.23656 27.5816 3.87705C31.8365 5.51754 29.7255 9.40893 33.9804 16.5813C38.2353 23.7537 35.2668 30.8116 29.7255 32.5284Z" fill="#FBBF24"/>
<path fill-rule="evenodd" clip-rule="evenodd" d="M10.8406 4.84054C12.7394 2.94174 15.3148 1.875 18.0001 1.875C20.6854 1.875 23.2607 2.94174 25.1595 4.84054C27.0584 6.73935 28.1251 9.31468 28.1251 12C28.1251 17.0842 29.213 20.2702 30.2377 22.1488C30.7516 23.0909 31.2557 23.7156 31.6137 24.0935C31.7929 24.2827 31.9363 24.4108 32.0269 24.4863C32.0723 24.5241 32.1044 24.5488 32.1213 24.5613L32.1343 24.5708C32.5396 24.8474 32.7193 25.3554 32.5768 25.826C32.4332 26.3005 31.9958 26.625 31.5001 26.625H4.50009C4.00434 26.625 3.56702 26.3005 3.42336 25.826C3.28088 25.3554 3.46055 24.8474 3.86589 24.5708L3.87884 24.5613C3.89574 24.5488 3.92791 24.5241 3.97324 24.4863C4.06387 24.4108 4.20725 24.2827 4.38652 24.0935C4.74447 23.7156 5.24856 23.0909 5.76245 22.1488C6.78714 20.2702 7.87509 17.0842 7.87509 12C7.87509 9.31468 8.94183 6.73935 10.8406 4.84054ZM7.03482 24.375H28.9654C28.7351 24.0398 28.4981 23.6582 28.2625 23.2262C27.0371 20.9798 25.8751 17.4158 25.8751 12C25.8751 9.91142 25.0454 7.90838 23.5686 6.43153C22.0917 4.95469 20.0887 4.125 18.0001 4.125C15.9115 4.125 13.9085 4.95469 12.4316 6.43153C10.9548 7.90838 10.1251 9.91142 10.1251 12C10.1251 17.4158 8.96304 20.9798 7.73772 23.2262C7.50211 23.6582 7.26504 24.0398 7.03482 24.375ZM14.8406 30.5268C15.378 30.2151 16.0665 30.398 16.3782 30.9355C16.543 31.2196 16.7796 31.4555 17.0643 31.6194C17.3489 31.7834 17.6716 31.8697 18.0001 31.8697C18.3286 31.8697 18.6513 31.7834 18.9359 31.6194C19.2206 31.4555 19.4571 31.2196 19.622 30.9355C19.9337 30.398 20.6221 30.2151 21.1596 30.5268C21.697 30.8386 21.88 31.527 21.5682 32.0645C21.2056 32.6896 20.6851 33.2084 20.0589 33.5691C19.4327 33.9298 18.7227 34.1197 18.0001 34.1197C17.2774 34.1197 16.5675 33.9298 15.9412 33.5691C15.315 33.2084 14.7946 32.6896 14.432 32.0645C14.1202 31.527 14.3032 30.8386 14.8406 30.5268Z" fill="#2F363D"/>
</svg>
