<svg width="36" height="36" viewBox="0 0 36 36" fill="none" xmlns="http://www.w3.org/2000/svg">
<path d="M29.7255 32.5284C24.1843 34.2452 22.1723 30.9642 16.6311 27.6832C6.80191 21.8634 -1.87265 21.4265 0.897937 13.0333C2.69342 7.59401 6.73602 7.84475 14.784 6.43316C22.832 5.02158 23.3267 2.23656 27.5816 3.87705C31.8365 5.51754 29.7255 9.40893 33.9804 16.5813C38.2353 23.7537 35.2668 30.8116 29.7255 32.5284Z" fill="#FBBF24"/>
<path d="M34.5928 18.5625C34.5907 17.0962 34.1648 15.6617 33.3664 14.4317C32.5681 13.2017 31.4313 12.2287 30.0928 11.6297V10.125C30.0923 8.69725 29.6195 7.30977 28.7481 6.17883C27.8766 5.0479 26.6555 4.23704 25.275 3.87266C23.8945 3.50828 22.4323 3.61085 21.1162 4.16438C19.8001 4.71791 18.7041 5.69129 17.9991 6.93281C17.294 5.69129 16.1981 4.71791 14.882 4.16438C13.5659 3.61085 12.1036 3.50828 10.7232 3.87266C9.34271 4.23704 8.12157 5.0479 7.25011 6.17883C6.37864 7.30977 5.90582 8.69725 5.90533 10.125V11.6297C4.56674 12.228 3.42997 13.201 2.6323 14.4312C1.83462 15.6614 1.41016 17.0963 1.41016 18.5625C1.41016 20.0287 1.83462 21.4636 2.6323 22.6938C3.42997 23.924 4.56674 24.897 5.90533 25.4953V25.875C5.90582 27.3028 6.37864 28.6902 7.25011 29.8212C8.12157 30.9521 9.34271 31.763 10.7232 32.1273C12.1036 32.4917 13.5659 32.3892 14.882 31.8356C16.1981 31.2821 17.294 30.3087 17.9991 29.0672C18.7041 30.3087 19.8001 31.2821 21.1162 31.8356C22.4323 32.3892 23.8945 32.4917 25.275 32.1273C26.6555 31.763 27.8766 30.9521 28.7481 29.8212C29.6195 28.6902 30.0923 27.3028 30.0928 25.875V25.4953C31.4313 24.8963 32.5681 23.9233 33.3664 22.6933C34.1648 21.4633 34.5907 20.0289 34.5928 18.5625ZM12.3741 30.6563C11.1334 30.6534 9.94217 30.1698 9.05058 29.307C8.159 28.4443 7.63649 27.2696 7.59283 26.0297C8.0568 26.1143 8.52747 26.1566 8.99908 26.1563H10.1241C10.3479 26.1563 10.5625 26.0674 10.7207 25.9091C10.8789 25.7509 10.9678 25.5363 10.9678 25.3125C10.9678 25.0887 10.8789 24.8741 10.7207 24.7159C10.5625 24.5576 10.3479 24.4688 10.1241 24.4688H8.99908C7.60568 24.4689 6.25708 23.9765 5.19169 23.0784C4.12629 22.1804 3.41271 20.9346 3.17708 19.5612C2.94146 18.1879 3.19898 16.7755 3.9041 15.5737C4.60923 14.3718 5.71656 13.458 7.03033 12.9938C7.19582 12.9352 7.33894 12.8266 7.43976 12.6829C7.54059 12.5392 7.59409 12.3677 7.59283 12.1922V10.125C7.59283 8.85694 8.09657 7.64081 8.99323 6.74415C9.88989 5.84749 11.106 5.34375 12.3741 5.34375C13.6421 5.34375 14.8583 5.84749 15.7549 6.74415C16.6516 7.64081 17.1553 8.85694 17.1553 10.125V21.5156C16.5495 20.8501 15.8111 20.3187 14.9877 19.9554C14.1643 19.5922 13.2741 19.4051 12.3741 19.4063C12.1503 19.4063 11.9357 19.4951 11.7775 19.6534C11.6192 19.8116 11.5303 20.0262 11.5303 20.25C11.5303 20.4738 11.6192 20.6884 11.7775 20.8466C11.9357 21.0049 12.1503 21.0938 12.3741 21.0938C13.6421 21.0938 14.8583 21.5975 15.7549 22.4941C16.6516 23.3908 17.1553 24.6069 17.1553 25.875C17.1553 27.1431 16.6516 28.3592 15.7549 29.2559C14.8583 30.1525 13.6421 30.6563 12.3741 30.6563V30.6563ZM26.9991 24.4688H25.8741C25.6503 24.4688 25.4357 24.5576 25.2775 24.7159C25.1192 24.8741 25.0303 25.0887 25.0303 25.3125C25.0303 25.5363 25.1192 25.7509 25.2775 25.9091C25.4357 26.0674 25.6503 26.1563 25.8741 26.1563H26.9991C27.4707 26.1566 27.9414 26.1143 28.4053 26.0297C28.375 26.9681 28.0689 27.8769 27.5254 28.6425C26.9819 29.4082 26.225 29.9969 25.3491 30.3352C24.4732 30.6735 23.5171 30.7463 22.6001 30.5448C21.683 30.3432 20.8456 29.876 20.1923 29.2016C19.5391 28.5272 19.0988 27.6753 18.9265 26.7523C18.7542 25.8293 18.8575 24.876 19.2235 24.0113C19.5895 23.1467 20.202 22.4089 20.9845 21.89C21.7671 21.3712 22.6851 21.0942 23.6241 21.0938C23.8479 21.0938 24.0625 21.0049 24.2207 20.8466C24.3789 20.6884 24.4678 20.4738 24.4678 20.25C24.4678 20.0262 24.3789 19.8116 24.2207 19.6534C24.0625 19.4951 23.8479 19.4063 23.6241 19.4063C22.7241 19.4051 21.8338 19.5922 21.0104 19.9554C20.187 20.3187 19.4487 20.8501 18.8428 21.5156V10.125C18.8428 8.85694 19.3466 7.64081 20.2432 6.74415C21.1399 5.84749 22.356 5.34375 23.6241 5.34375C24.8922 5.34375 26.1083 5.84749 27.0049 6.74415C27.9016 7.64081 28.4053 8.85694 28.4053 10.125V12.1922C28.4041 12.3677 28.4576 12.5392 28.5584 12.6829C28.6592 12.8266 28.8024 12.9352 28.9678 12.9938C30.2816 13.458 31.3889 14.3718 32.0941 15.5737C32.7992 16.7755 33.0567 18.1879 32.8211 19.5612C32.5855 20.9346 31.8719 22.1804 30.8065 23.0784C29.7411 23.9765 28.3925 24.4689 26.9991 24.4688V24.4688ZM8.43658 17.7188C8.21281 17.7188 7.9982 17.6299 7.83996 17.4716C7.68173 17.3134 7.59283 17.0988 7.59283 16.875C7.59283 16.6512 7.68173 16.4366 7.83996 16.2784C7.9982 16.1201 8.21281 16.0313 8.43658 16.0313C9.25596 16.0276 10.0407 15.7004 10.6201 15.121C11.1995 14.5416 11.5266 13.7569 11.5303 12.9375V11.8125C11.5303 11.5887 11.6192 11.3741 11.7775 11.2159C11.9357 11.0576 12.1503 10.9688 12.3741 10.9688C12.5979 10.9688 12.8125 11.0576 12.9707 11.2159C13.1289 11.3741 13.2178 11.5887 13.2178 11.8125V12.9375C13.2141 14.2044 12.7092 15.4184 11.8133 16.3143C10.9175 17.2101 9.70351 17.715 8.43658 17.7188ZM28.4053 16.875C28.4053 17.0988 28.3164 17.3134 28.1582 17.4716C28 17.6299 27.7854 17.7188 27.5616 17.7188C26.2947 17.715 25.0807 17.2101 24.1848 16.3143C23.289 15.4184 22.784 14.2044 22.7803 12.9375V11.8125C22.7803 11.5887 22.8692 11.3741 23.0275 11.2159C23.1857 11.0576 23.4003 10.9688 23.6241 10.9688C23.8479 10.9688 24.0625 11.0576 24.2207 11.2159C24.3789 11.3741 24.4678 11.5887 24.4678 11.8125V12.9375C24.4715 13.7569 24.7987 14.5416 25.3781 15.121C25.9575 15.7004 26.7422 16.0276 27.5616 16.0313C27.7854 16.0313 28 16.1201 28.1582 16.2784C28.3164 16.4366 28.4053 16.6512 28.4053 16.875Z" fill="black"/>
</svg>
