<svg width="96" height="96" viewBox="0 0 96 96" fill="none" xmlns="http://www.w3.org/2000/svg">
<path d="M79.2681 86.7424C64.4915 91.3205 59.1262 82.5713 44.3495 73.822C18.1384 58.3024 -4.99373 57.1372 2.3945 34.7554C7.18247 20.2507 17.9627 20.9193 39.424 17.1551C60.8853 13.3909 62.2046 5.96415 73.551 10.3388C84.8973 14.7134 79.2681 25.0905 90.6144 44.2168C101.961 63.3432 94.0447 82.1643 79.2681 86.7424Z" fill="#A7F3D0"/>
<path d="M76 12H20C15.5817 12 12 15.5817 12 20V76C12 80.4183 15.5817 84 20 84H76C80.4183 84 84 80.4183 84 76V20C84 15.5817 80.4183 12 76 12Z" stroke="#2F363D" stroke-width="3" stroke-linecap="round" stroke-linejoin="round"/>
<path d="M33.9999 40C37.3136 40 39.9999 37.3137 39.9999 34C39.9999 30.6863 37.3136 28 33.9999 28C30.6862 28 27.9999 30.6863 27.9999 34C27.9999 37.3137 30.6862 40 33.9999 40Z" stroke="#2F363D" stroke-width="3" stroke-linecap="round" stroke-linejoin="round"/>
<path d="M84.0001 60L64.0001 40L20.0001 84" stroke="#2F363D" stroke-width="3" stroke-linecap="round" stroke-linejoin="round"/>
</svg>
