<svg width="97" height="96" viewBox="0 0 97 96" fill="none" xmlns="http://www.w3.org/2000/svg">
    <path
        d="M50.6172 10.4549C17.8783 4.2044 11.8359 19.1796 3.37657 34.6757C-3.10528 51.6043 4.69491 61.7614 14.4726 76.8668C24.2503 91.9723 45.0142 85.7218 60.7245 76.8668C76.4347 68.0119 99.6155 57.3339 96.7591 33.5038C93.9027 9.67361 83.356 16.7055 50.6172 10.4549Z"
        fill="#FEF3C7" />
    <path
        d="M16.0001 15.9999H80.0001C84.4001 15.9999 88.0001 19.5999 88.0001 23.9999V71.9999C88.0001 76.3999 84.4001 79.9999 80.0001 79.9999H16.0001C11.6001 79.9999 8.00012 76.3999 8.00012 71.9999V23.9999C8.00012 19.5999 11.6001 15.9999 16.0001 15.9999Z"
        stroke="#2F363D" stroke-width="3" stroke-linecap="round" stroke-linejoin="round" />
    <path d="M88.0001 24L48.0001 52L8.00012 24" stroke="#2F363D" stroke-width="3" stroke-linecap="round"
        stroke-linejoin="round" />
</svg>