<svg width="36" height="36" viewBox="0 0 36 36" fill="none" xmlns="http://www.w3.org/2000/svg">
<path d="M29.7255 32.5284C24.1843 34.2452 22.1723 30.9642 16.6311 27.6832C6.80191 21.8634 -1.87265 21.4265 0.897937 13.0333C2.69342 7.59401 6.73602 7.84475 14.784 6.43316C22.832 5.02158 23.3267 2.23656 27.5816 3.87705C31.8365 5.51754 29.7255 9.40893 33.9804 16.5813C38.2353 23.7537 35.2668 30.8116 29.7255 32.5284Z" fill="#A7F3D0"/>
<path fill-rule="evenodd" clip-rule="evenodd" d="M13.5 5.625C10.8077 5.625 8.62505 7.80761 8.62505 10.5C8.62505 13.1924 10.8077 15.375 13.5 15.375C16.1924 15.375 18.375 13.1924 18.375 10.5C18.375 7.80761 16.1924 5.625 13.5 5.625ZM6.37505 10.5C6.37505 6.56497 9.56502 3.375 13.5 3.375C17.4351 3.375 20.625 6.56497 20.625 10.5C20.625 14.435 17.4351 17.625 13.5 17.625C9.56502 17.625 6.37505 14.435 6.37505 10.5ZM22.9102 4.41601C23.0643 3.8141 23.6771 3.45109 24.279 3.60521C25.8117 3.99762 27.1701 4.88895 28.1402 6.1387C29.1102 7.38844 29.6368 8.9255 29.6368 10.5076C29.6368 12.0896 29.1102 13.6267 28.1402 14.8764C27.1701 16.1261 25.8117 17.0175 24.279 17.4099C23.6771 17.564 23.0643 17.201 22.9102 16.5991C22.756 15.9972 23.1191 15.3843 23.721 15.2302C24.7696 14.9617 25.699 14.3519 26.3628 13.4968C27.0265 12.6417 27.3868 11.59 27.3868 10.5076C27.3868 9.42509 27.0265 8.37342 26.3628 7.51833C25.699 6.66325 24.7696 6.05339 23.721 5.78489C23.1191 5.63078 22.756 5.01791 22.9102 4.41601ZM2.46186 23.4619C3.79806 22.1257 5.61033 21.375 7.5 21.375H19.5C21.3897 21.375 23.2019 22.1257 24.5381 23.4619C25.8743 24.7981 26.625 26.6103 26.625 28.5V31.5C26.625 32.1213 26.1213 32.625 25.5 32.625C24.8787 32.625 24.375 32.1213 24.375 31.5V28.5C24.375 27.2071 23.8614 25.9671 22.9471 25.0529C22.0329 24.1386 20.7929 23.625 19.5 23.625H7.5C6.20707 23.625 4.96709 24.1386 4.05285 25.0529C3.13861 25.9671 2.625 27.2071 2.625 28.5V31.5C2.625 32.1213 2.12132 32.625 1.5 32.625C0.87868 32.625 0.375 32.1213 0.375 31.5V28.5C0.375 26.6103 1.12567 24.7981 2.46186 23.4619ZM28.9108 22.4138C29.0661 21.8122 29.6797 21.4504 30.2813 21.6058C31.8098 22.0004 33.164 22.8916 34.1312 24.1393C35.0984 25.387 35.6239 26.9205 35.625 28.4992V31.5001C35.625 32.1214 35.1214 32.6251 34.5 32.6251C33.8787 32.6251 33.375 32.1214 33.375 31.5001V28.5009C33.3742 27.4207 33.0147 26.3715 32.353 25.5178C31.6912 24.6641 30.7646 24.0544 29.7188 23.7843C29.1172 23.629 28.7554 23.0154 28.9108 22.4138Z" fill="#2F363D"/>
</svg>
