<svg width="97" height="96" viewBox="0 0 97 96" fill="none" xmlns="http://www.w3.org/2000/svg">
<path d="M50.6172 10.4549C17.8783 4.2044 11.8359 19.1796 3.37657 34.6757C-3.10528 51.6043 4.69491 61.7614 14.4726 76.8668C24.2503 91.9723 45.0142 85.7218 60.7245 76.8668C76.4347 68.0119 99.6155 57.3339 96.7591 33.5038C93.9027 9.67361 83.356 16.7055 50.6172 10.4549Z" fill="#A7F3D0"/>
<path d="M92.0001 16V40H68.0001" stroke="#2F363D" stroke-width="3" stroke-linecap="round" stroke-linejoin="round"/>
<path d="M3.99988 80V56H27.9999" stroke="#2F363D" stroke-width="3" stroke-linecap="round" stroke-linejoin="round"/>
<path d="M14.0399 35.9998C16.0685 30.267 19.5164 25.1414 24.0617 21.1015C28.6071 17.0615 34.1017 14.2389 40.033 12.8968C45.9643 11.5548 52.1389 11.7372 57.9806 13.4269C63.8224 15.1166 69.1409 18.2587 73.4399 22.5598L91.9999 39.9998M3.99988 55.9998L22.5599 73.4398C26.8589 77.741 32.1774 80.883 38.0191 82.5727C43.8609 84.2625 50.0354 84.4448 55.9667 83.1028C61.898 81.7608 67.3927 78.9381 71.938 74.8981C76.4833 70.8582 79.9312 65.7327 81.9599 59.9998" stroke="#2F363D" stroke-width="3" stroke-linecap="round" stroke-linejoin="round"/>
</svg>
