<svg width="97" height="96" viewBox="0 0 97 96" fill="none" xmlns="http://www.w3.org/2000/svg">
<path d="M50.6172 10.4549C17.8783 4.2044 11.8359 19.1796 3.37657 34.6757C-3.10528 51.6043 4.69491 61.7614 14.4726 76.8668C24.2503 91.9723 45.0142 85.7218 60.7245 76.8668C76.4347 68.0119 99.6155 57.3339 96.7591 33.5038C93.9027 9.67361 83.356 16.7055 50.6172 10.4549Z" fill="#A7F3D0"/>
<path d="M48 10.7603L70.64 33.4003C75.1174 37.8747 78.1672 43.5765 79.4036 49.7845C80.6401 55.9924 80.0076 62.4277 77.5862 68.2761C75.1648 74.1246 71.0633 79.1235 65.8005 82.6407C60.5376 86.1578 54.3499 88.0351 48.02 88.0351C41.6901 88.0351 35.5024 86.1578 30.2396 82.6407C24.9768 79.1235 20.8753 74.1246 18.4539 68.2761C16.0325 62.4277 15.4 55.9924 16.6364 49.7845C17.8729 43.5765 20.9227 37.8747 25.4 33.4003L48 10.7603Z" stroke="#2F363D" stroke-width="3" stroke-linecap="round" stroke-linejoin="round"/>
</svg>
