<svg width="36" height="36" viewBox="0 0 36 36" fill="none" xmlns="http://www.w3.org/2000/svg">
<path d="M6.64946 3.8466C12.1907 2.1298 14.2027 5.41078 19.7439 8.69176C29.5731 14.5116 38.2476 14.9485 35.4771 23.3417C33.6816 28.781 29.639 28.5303 21.591 29.9418C13.543 31.3534 13.0483 34.1384 8.79339 32.498C4.53851 30.8575 6.64946 26.9661 2.39458 19.7937C-1.86029 12.6213 1.10823 5.56339 6.64946 3.8466Z" fill="#FBBF24"/>
<path fill-rule="evenodd" clip-rule="evenodd" d="M21.8375 4.08636C22.9752 3.61495 24.1946 3.37231 25.4262 3.37231C26.6577 3.37231 27.8771 3.61495 29.0148 4.08636C30.1525 4.55778 31.1862 5.24873 32.0568 6.11974C32.9277 6.99027 33.6185 8.02383 34.0898 9.16138C34.5612 10.2991 34.8039 11.5185 34.8039 12.7501C34.8039 13.9816 34.5612 15.201 34.0898 16.3387C33.6185 17.4764 32.9276 18.51 32.0566 19.3805C32.0566 19.3806 32.0567 19.3805 32.0566 19.3805L18.7966 32.6405C18.3573 33.0799 17.645 33.0799 17.2057 32.6405L3.94566 19.3805C2.18714 17.622 1.19922 15.237 1.19922 12.7501C1.19922 10.2631 2.18714 7.87807 3.94566 6.11956C5.70418 4.36104 8.08924 3.37312 10.5762 3.37312C13.0631 3.37312 15.4481 4.36104 17.2066 6.11956L18.0012 6.91406L18.7955 6.11974C19.6661 5.24873 20.6998 4.55778 21.8375 4.08636ZM25.4262 5.62231C24.4902 5.62231 23.5634 5.80672 22.6988 6.16499C21.8341 6.52327 21.0485 7.04839 20.3868 7.71036L18.7966 9.30055C18.3573 9.73989 17.645 9.73989 17.2057 9.30055L15.6157 7.71055C14.2791 6.37399 12.4663 5.62312 10.5762 5.62312C8.68597 5.62312 6.87321 6.37399 5.53665 7.71055C4.20009 9.04711 3.44922 10.8599 3.44922 12.7501C3.44922 14.6402 4.20009 16.453 5.53665 17.7896L18.0012 30.2541L30.4657 17.7896C31.1276 17.1279 31.6529 16.3421 32.0112 15.4774C32.3695 14.6128 32.5539 13.686 32.5539 12.7501C32.5539 11.8141 32.3695 10.8873 32.0112 10.0227C31.6529 9.158 31.1278 8.3724 30.4658 7.71073C29.8042 7.04876 29.0182 6.52327 28.1535 6.16499C27.2889 5.80672 26.3621 5.62231 25.4262 5.62231Z" fill="#2F363D"/>
</svg>
