<svg width="96" height="96" viewBox="0 0 96 96" fill="none" xmlns="http://www.w3.org/2000/svg">
<path d="M17.7319 10.2576C32.5085 5.67947 37.8738 14.4287 52.6505 23.178C78.8616 38.6976 101.994 39.8628 94.6055 62.2446C89.8175 76.7493 79.0373 76.0807 57.576 79.8449C36.1147 83.6091 34.7954 91.0358 23.449 86.6612C12.1027 82.2866 17.7319 71.9095 6.38556 52.7832C-4.96078 33.6568 2.95527 14.8357 17.7319 10.2576Z" fill="#A7F3D0"/>
<path d="M84 40C84 68 48 92 48 92C48 92 12 68 12 40C12 30.4522 15.7928 21.2955 22.5442 14.5442C29.2955 7.79285 38.4522 4 48 4C57.5478 4 66.7045 7.79285 73.4558 14.5442C80.2072 21.2955 84 30.4522 84 40Z" stroke="#2F363D" stroke-width="3" stroke-linecap="round" stroke-linejoin="round"/>
<path d="M48 52C54.6274 52 60 46.6274 60 40C60 33.3726 54.6274 28 48 28C41.3726 28 36 33.3726 36 40C36 46.6274 41.3726 52 48 52Z" stroke="#2F363D" stroke-width="3" stroke-linecap="round" stroke-linejoin="round"/>
</svg>
