<svg width="97" height="96" viewBox="0 0 97 96" fill="none" xmlns="http://www.w3.org/2000/svg">
<path d="M50.6172 10.4549C17.8783 4.2044 11.8359 19.1796 3.37657 34.6757C-3.10528 51.6043 4.69491 61.7614 14.4726 76.8668C24.2503 91.9723 45.0142 85.7218 60.7245 76.8668C76.4347 68.0119 99.6155 57.3339 96.7591 33.5038C93.9027 9.67361 83.356 16.7055 50.6172 10.4549Z" fill="#A7F3D0"/>
<path d="M72 32C72 25.6348 69.4714 19.5303 64.9706 15.0294C60.4697 10.5286 54.3652 8 48 8C41.6348 8 35.5303 10.5286 31.0294 15.0294C26.5286 19.5303 24 25.6348 24 32C24 60 12 68 12 68H84C84 68 72 60 72 32Z" stroke="#2F363D" stroke-width="3" stroke-linecap="round" stroke-linejoin="round"/>
<path d="M54.92 84C54.2167 85.2123 53.2073 86.2186 51.9929 86.9181C50.7784 87.6176 49.4015 87.9858 48 87.9858C46.5984 87.9858 45.2215 87.6176 44.007 86.9181C42.7926 86.2186 41.7832 85.2123 41.08 84" stroke="#2F363D" stroke-width="3" stroke-linecap="round" stroke-linejoin="round"/>
</svg>
