<svg width="96" height="96" viewBox="0 0 96 96" fill="none" xmlns="http://www.w3.org/2000/svg">
    <path
        d="M79.2681 86.7424C64.4915 91.3205 59.1262 82.5713 44.3495 73.822C18.1384 58.3024 -4.99373 57.1372 2.3945 34.7554C7.18247 20.2507 17.9627 20.9193 39.424 17.1551C60.8853 13.3909 62.2046 5.96415 73.551 10.3388C84.8973 14.7134 79.2681 25.0905 90.6144 44.2168C101.961 63.3432 94.0447 82.1643 79.2681 86.7424Z"
        fill="#FEF3C7" />
    <path
        d="M71.9999 8H23.9999C19.5816 8 15.9999 11.5817 15.9999 16V80C15.9999 84.4183 19.5816 88 23.9999 88H71.9999C76.4182 88 79.9999 84.4183 79.9999 80V16C79.9999 11.5817 76.4182 8 71.9999 8Z"
        stroke="#F59E0B" stroke-width="3" stroke-linecap="round" stroke-linejoin="round" />
    <path d="M48 72H48.04" stroke="#F59E0B" stroke-width="3" stroke-linecap="round" stroke-linejoin="round" />
</svg>