<svg width="97" height="96" viewBox="0 0 97 96" fill="none" xmlns="http://www.w3.org/2000/svg">
    <path
        d="M47.3828 84.5451C80.1217 90.7956 86.1641 75.8204 94.6234 60.3243C101.105 43.3957 93.3051 33.2386 83.5274 18.1332C73.7497 3.0277 52.9858 9.27824 37.2755 18.1332C21.5653 26.9881 -1.61554 37.6661 1.24087 61.4962C4.09727 85.3264 14.644 78.2945 47.3828 84.5451Z"
        fill="#A7F3D0" />
    <path
        d="M91.5 49.4999C91.5 45.6501 90.3605 41.8865 88.225 38.6832C86.0895 35.48 83.0536 32.9806 79.5 31.4999V26.9999C79.4974 23.2359 78.208 19.5859 75.8456 16.6556C73.4833 13.7252 70.19 11.6906 66.5123 10.8894C62.8345 10.0882 58.9934 10.5685 55.6262 12.2506C52.259 13.9327 49.5681 16.7156 48 20.1374C46.4319 16.7156 43.741 13.9327 40.3738 12.2506C37.0066 10.5685 33.1655 10.0882 29.4877 10.8894C25.81 11.6906 22.5167 13.7252 20.1544 16.6556C17.792 19.5859 16.5026 23.2359 16.5 26.9999V31.4999C12.9464 32.9806 9.9105 35.48 7.77502 38.6832C5.63954 41.8865 4.5 45.6501 4.5 49.4999C4.5 53.3497 5.63954 57.1133 7.77502 60.3165C9.9105 63.5198 12.9464 66.0192 16.5 67.4999V68.9999C16.5026 72.7639 17.792 76.4139 20.1544 79.3442C22.5167 82.2746 25.81 84.3092 29.4877 85.1104C33.1655 85.9116 37.0066 85.4313 40.3738 83.7492C43.741 82.067 46.4319 79.2842 48 75.8624C49.5681 79.2842 52.259 82.067 55.6262 83.7492C58.9934 85.4313 62.8345 85.9116 66.5123 85.1104C70.19 84.3092 73.4833 82.2746 75.8456 79.3442C78.208 76.4139 79.4974 72.7639 79.5 68.9999V67.4999C83.0507 66.0151 86.0838 63.5146 88.2187 60.3124C90.3536 57.1101 91.4951 53.3486 91.5 49.4999V49.4999ZM33 82.4999C29.4196 82.4999 25.9858 81.0776 23.4541 78.5458C20.9223 76.0141 19.5 72.5803 19.5 68.9999V68.4749C20.9752 68.8202 22.4849 68.9963 24 68.9999H27C27.3978 68.9999 27.7794 68.8419 28.0607 68.5606C28.342 68.2792 28.5 67.8977 28.5 67.4999C28.5 67.1021 28.342 66.7205 28.0607 66.4392C27.7794 66.1579 27.3978 65.9999 27 65.9999H24C20.1036 66.007 16.3303 64.6349 13.3485 62.1267C10.3667 59.6184 8.36882 56.1359 7.70859 52.2957C7.04836 48.4556 7.76843 44.5058 9.74127 41.1457C11.7141 37.7856 14.8124 35.2321 18.4875 33.9374C18.781 33.8308 19.0351 33.6373 19.216 33.3828C19.3968 33.1282 19.4959 32.8246 19.5 32.5124V26.9999C19.5 23.4195 20.9223 19.9857 23.4541 17.454C25.9858 14.9222 29.4196 13.4999 33 13.4999C36.5804 13.4999 40.0142 14.9222 42.5459 17.454C45.0777 19.9857 46.5 23.4195 46.5 26.9999V59.5124C44.9775 57.3461 42.9561 55.578 40.6064 54.3575C38.2567 53.137 35.6478 52.4998 33 52.4999C32.6022 52.4999 32.2206 52.6579 31.9393 52.9392C31.658 53.2205 31.5 53.6021 31.5 53.9999C31.5 54.3977 31.658 54.7792 31.9393 55.0606C32.2206 55.3419 32.6022 55.4999 33 55.4999C36.5804 55.4999 40.0142 56.9222 42.5459 59.454C45.0777 61.9857 46.5 65.4195 46.5 68.9999C46.5 72.5803 45.0777 76.0141 42.5459 78.5458C40.0142 81.0776 36.5804 82.4999 33 82.4999V82.4999ZM72 65.9999H69C68.6022 65.9999 68.2206 66.1579 67.9393 66.4392C67.658 66.7205 67.5 67.1021 67.5 67.4999C67.5 67.8977 67.658 68.2792 67.9393 68.5606C68.2206 68.8419 68.6022 68.9999 69 68.9999H72C73.5151 68.9963 75.0248 68.8202 76.5 68.4749V68.9999C76.5 71.6699 75.7082 74.28 74.2248 76.5001C72.7414 78.7202 70.633 80.4505 68.1662 81.4723C65.6994 82.494 62.985 82.7614 60.3663 82.2405C57.7475 81.7196 55.3421 80.4338 53.4541 78.5458C51.5661 76.6578 50.2803 74.2524 49.7594 71.6336C49.2385 69.0149 49.5058 66.3005 50.5276 63.8337C51.5494 61.3669 53.2797 59.2585 55.4998 57.7751C57.7199 56.2917 60.33 55.4999 63 55.4999C63.3978 55.4999 63.7794 55.3419 64.0607 55.0606C64.342 54.7792 64.5 54.3977 64.5 53.9999C64.5 53.6021 64.342 53.2205 64.0607 52.9392C63.7794 52.6579 63.3978 52.4999 63 52.4999C60.3522 52.4998 57.7433 53.137 55.3936 54.3575C53.0439 55.578 51.0225 57.3461 49.5 59.5124V26.9999C49.5 23.4195 50.9223 19.9857 53.4541 17.454C55.9858 14.9222 59.4196 13.4999 63 13.4999C66.5804 13.4999 70.0142 14.9222 72.5459 17.454C75.0777 19.9857 76.5 23.4195 76.5 26.9999V32.5124C76.5041 32.8246 76.6032 33.1282 76.784 33.3828C76.9649 33.6373 77.219 33.8308 77.5125 33.9374C81.1876 35.2321 84.2859 37.7856 86.2587 41.1457C88.2316 44.5058 88.9516 48.4556 88.2914 52.2957C87.6312 56.1359 85.6333 59.6184 82.6515 62.1267C79.6697 64.6349 75.8964 66.007 72 65.9999V65.9999ZM34.5 34.4999C34.4901 37.6794 33.2227 40.726 30.9744 42.9742C28.7261 45.2225 25.6796 46.49 22.5 46.4999C22.1022 46.4999 21.7206 46.3419 21.4393 46.0606C21.158 45.7792 21 45.3977 21 44.9999C21 44.6021 21.158 44.2205 21.4393 43.9392C21.7206 43.6579 22.1022 43.4999 22.5 43.4999C24.8839 43.49 27.1674 42.5386 28.8531 40.8529C30.5387 39.1673 31.4901 36.8838 31.5 34.4999V31.4999C31.5 31.1021 31.658 30.7205 31.9393 30.4392C32.2206 30.1579 32.6022 29.9999 33 29.9999C33.3978 29.9999 33.7794 30.1579 34.0607 30.4392C34.342 30.7205 34.5 31.1021 34.5 31.4999V34.4999ZM75 44.9999C75 45.3977 74.842 45.7792 74.5607 46.0606C74.2794 46.3419 73.8978 46.4999 73.5 46.4999C70.3204 46.49 67.2739 45.2225 65.0256 42.9742C62.7773 40.726 61.5099 37.6794 61.5 34.4999V31.4999C61.5 31.1021 61.658 30.7205 61.9393 30.4392C62.2206 30.1579 62.6022 29.9999 63 29.9999C63.3978 29.9999 63.7794 30.1579 64.0607 30.4392C64.342 30.7205 64.5 31.1021 64.5 31.4999V34.4999C64.5099 36.8838 65.4613 39.1673 67.1469 40.8529C68.8326 42.5386 71.1161 43.49 73.5 43.4999C73.8978 43.4999 74.2794 43.6579 74.5607 43.9392C74.842 44.2205 75 44.6021 75 44.9999Z"
        fill="#2F363D" />
</svg>