<svg width="119" height="61" viewBox="0 0 119 61" fill="none" xmlns="http://www.w3.org/2000/svg">
<g id="BR24_logo 1" clip-path="url(#clip0_7415_36039)">
<path id="b" d="M55.9754 31.2559C62.8033 28.9156 67.6783 23.5243 67.6783 15.5141C67.6783 13.5081 66.6527 8.6323 62.9297 5.49787C60.4711 3.42218 56.9307 0.970355 45.4806 0.70567C43.1204 0.649947 35.9272 0.900701 35.9272 0.900701V1.30469C37.9643 2.85101 40.1419 5.38642 41.1956 8.33975C42.2915 8.29796 43.9493 8.21438 45.579 8.29796C50.173 8.54872 52.1821 9.3985 54.2473 11.0005C56.3266 12.6165 57.4505 15.4027 57.4365 17.9242C57.4365 21.3651 55.7787 24.9314 50.7491 26.9652C46.6888 28.6091 41.7716 28.9713 41.7716 28.9713V30.2251C41.7716 30.2251 44.7079 31.6181 47.6582 35.477C50.1871 38.7925 64.8825 60.246 64.8825 60.246H77.021C77.021 60.246 57.4084 33.1366 55.9754 31.2559ZM29.296 28.233C33.9603 25.5025 36.9528 21.4765 36.9528 15.4863C36.9528 9.07809 33.1173 0.608154 17.0451 0.608154C9.26183 0.608154 0.621582 0.900701 0.621582 0.900701V60.2599H14.3336C31.7686 60.2599 40.9989 53.8796 40.9989 41.8294C40.9989 34.6272 36.447 29.8768 29.296 28.233ZM17.1434 51.9711H10.3436V8.24224C10.4279 8.24224 13.3923 8.20045 15.2327 8.20045C22.8193 8.20045 27.034 12.0871 27.1464 17.4366C27.2167 20.6825 26.2473 23.789 22.9176 26.0737C20.1921 27.9404 16.3988 28.4976 16.3988 28.4976V29.9046C16.3988 29.9046 21.6532 30.6848 24.3366 31.9246C29.31 34.2232 30.7852 37.8034 30.8273 42.4284C30.8695 49.7421 23.7606 51.9711 17.1434 51.9711Z" fill="white"/>
<path id="c" d="M76.5293 29.5702V24.9452L80.8845 20.0694C82.149 18.6763 83.1886 17.4365 83.9894 16.3499C84.7902 15.2632 85.4365 14.302 85.9141 13.4662C86.3918 12.6303 86.715 11.8641 86.8835 11.1955C87.0521 10.5268 87.1364 9.88595 87.1364 9.28693C87.1364 8.1446 86.7852 7.18338 86.0968 6.41718C85.4084 5.65099 84.3547 5.26093 82.9498 5.26093C82.0225 5.26093 81.0812 5.41417 80.1259 5.73457C79.1565 6.05498 78.2995 6.43111 77.5549 6.89083L76.74 1.93146C77.7235 1.44388 78.8334 1.05382 80.1118 0.733413C81.3763 0.426935 82.8233 0.259766 84.4671 0.259766C85.9282 0.259766 87.2207 0.468728 88.3306 0.900583C89.4405 1.33244 90.3537 1.9036 91.0983 2.628C91.8289 3.35241 92.3768 4.21612 92.7421 5.19127C93.1073 6.18036 93.2759 7.22517 93.2759 8.33964C93.2759 9.28693 93.1495 10.2342 92.8825 11.2094C92.6297 12.1845 92.2082 13.1876 91.6462 14.2463C91.0842 15.305 90.3677 16.4195 89.5107 17.6036C88.6537 18.7877 87.6141 20.0694 86.4059 21.4346L83.8208 24.4297V24.4715C85.3522 24.3879 86.9538 24.3322 88.6397 24.3183C90.3256 24.3043 92.152 24.3043 94.147 24.3043V29.5702H76.5293ZM114.645 22.6884V29.5841H109.208V22.6884H97.3783L96.6056 18.328L107.648 0.691621H114.645V17.6872H119V22.6884H114.645ZM109.292 5.94354H109.25L101.958 17.8404C102.422 17.8126 102.998 17.7847 103.714 17.7708C104.417 17.7569 105.119 17.7569 105.836 17.7569H109.306V5.94354H109.292Z" fill="white"/>
</g>
<defs>
<clipPath id="clip0_7415_36039">
<rect width="118.378" height="60" fill="white" transform="translate(0.621582 0.259766)"/>
</clipPath>
</defs>
</svg>
