<svg width="160" height="61" viewBox="0 0 160 61" fill="none" xmlns="http://www.w3.org/2000/svg">
<g id="Logo_klassikradio 1" clip-path="url(#clip0_7969_23549)">
<path id="b" d="M117.11 59.9342C117.11 40.0909 117.108 20.2476 117.11 0.404297C122.176 0.404297 127.244 0.404297 132.311 0.404297C132.308 20.2476 132.313 40.0909 132.308 59.9342C127.242 59.9342 122.175 59.9342 117.108 59.9342H117.11ZM135.849 15.7454C143.239 15.748 150.63 15.7401 158.02 15.7493C156.047 16.9028 154.28 18.4053 152.853 20.1962C149.266 24.7011 147.493 30.4728 147.277 36.1878C147.174 36.9871 147.186 37.8009 147.279 38.6002C147.484 44.2231 149.198 49.9013 152.671 54.3732C154.552 56.8159 157.049 58.8215 159.941 59.9144C151.91 59.9592 143.879 59.9197 135.849 59.9342C135.849 45.2041 135.849 30.4754 135.849 15.7454Z" fill="#D1D5DB"/>
<path id="c" d="M20.056 19.9553C21.5415 19.95 23.0283 19.9553 24.515 19.9526C24.5164 25.7941 24.515 31.6369 24.515 37.4783C23.0296 37.4783 21.5428 37.4796 20.0574 37.4783C20.0534 31.6369 20.0574 25.7967 20.056 19.9553ZM36.1297 23.5054C35.547 23.5054 34.9657 23.5173 34.387 23.5252C33.7755 23.5937 33.164 23.6648 32.5538 23.7319C31.3295 24.0164 30.0146 24.3456 29.1315 25.3121C28.4439 25.9613 28.1434 26.8857 27.9505 27.7878C29.4648 27.8009 30.9791 27.7996 32.4935 27.7904C32.7769 27.3559 33.1627 26.9529 33.6876 26.8423C35.2137 26.4946 36.8252 26.5157 38.3526 26.8423C39.0862 27.0029 39.6819 27.5692 39.7987 28.3277C39.7987 28.5186 39.804 28.7095 39.8053 28.9005C38.1295 28.9005 36.4525 28.9044 34.7754 28.9005C33.2782 29.0085 31.7639 28.9887 30.2981 29.3745C29.9595 29.4931 29.6249 29.6234 29.2916 29.7538C28.4229 30.1831 27.7025 30.9416 27.4571 31.8963C27.3088 32.2821 27.3757 32.7048 27.2602 33.0972C27.2602 33.1881 27.2602 33.3711 27.2602 33.4633C27.3679 33.9018 27.3403 34.3666 27.5227 34.7893C28.0187 36.1628 29.3257 37.0622 30.6786 37.4586C31.1668 37.5652 31.6602 37.6495 32.1523 37.7417C32.7231 37.7351 33.2926 37.7614 33.8582 37.8339C34.3437 37.7338 34.8424 37.7628 35.3345 37.7325C36.2872 37.5692 37.2569 37.3914 38.1256 36.945C38.6807 36.6606 39.2554 36.4117 39.779 36.0693C39.7974 36.5513 39.8984 37.0227 40.0651 37.4744C41.691 37.4744 43.3168 37.4823 44.9427 37.4717C44.591 36.9424 44.2853 36.3643 44.2669 35.7138C44.2433 33.0446 44.2734 30.374 44.2511 27.7048C44.0714 26.8502 43.864 25.9179 43.1882 25.3082C42.6856 24.7459 41.9796 24.443 41.3012 24.1533C39.6307 23.5963 37.8763 23.5041 36.1284 23.5054H36.1297ZM35.4276 31.2747C36.6769 31.2708 37.9248 31.2734 39.1741 31.2747C39.3263 32.3124 38.6111 33.2144 37.8225 33.7859C36.9734 34.4167 35.9171 34.6682 34.8896 34.8131C34.1101 34.8842 33.3136 34.8012 32.5709 34.5563C31.9554 34.3377 31.3767 33.7846 31.4292 33.0814C31.4266 32.477 31.92 32.0582 32.378 31.7488C33.353 31.3669 34.4028 31.3643 35.4289 31.2747H35.4276ZM70.0996 23.7438C72.0418 23.4475 74.0337 23.4001 75.9693 23.782C77.5164 24.1191 79.0832 24.7959 80.0438 26.1154C80.3784 26.6145 80.5936 27.1807 80.7577 27.7562C79.2499 27.8352 77.7461 27.9366 76.2409 28.0446C75.9916 27.5771 75.6714 27.1333 75.1675 26.9239C73.8763 26.3445 72.3777 26.2892 71.0208 26.654C70.5773 26.808 70.0472 26.9845 69.8529 27.4572C69.7742 27.7259 69.8529 28.0722 70.1154 28.2157C70.6482 28.5818 71.3095 28.6266 71.9237 28.7622C73.8093 28.9624 75.7003 29.1059 77.5781 29.3693C78.1962 29.5352 78.8182 29.7367 79.3496 30.1067C80.0215 30.5413 80.465 31.2708 80.6802 32.0319C80.9611 33.2013 80.734 34.5378 79.9493 35.4702C78.4927 37.1517 76.1307 37.6219 74.0114 37.6719C73.3291 37.8049 72.5929 37.7996 71.9092 37.6745C71.1206 37.6851 70.3372 37.5797 69.5669 37.4164C68.2717 37.1636 66.9634 36.6764 66.0146 35.7243C65.2824 35.0422 64.8664 34.098 64.583 33.1538C64.9635 33.0498 65.3533 32.9866 65.7496 33.0037C66.9162 32.9102 68.0867 32.8352 69.2546 32.739C69.5249 33.4989 70.1088 34.1757 70.8896 34.4299C71.925 34.8354 73.0601 34.7354 74.1479 34.7327C74.8644 34.5945 75.7554 34.5141 76.1845 33.8333C76.4876 33.3738 76.0966 32.7601 75.615 32.6271C73.1506 31.8607 70.4973 32.186 68.0276 31.4472C66.8624 31.093 65.7181 30.2502 65.4491 28.9966C65.2352 27.8852 65.3625 26.6145 66.1314 25.7309C67.1051 24.5378 68.6496 24.0506 70.101 23.7425L70.0996 23.7438ZM52.2322 23.7109C53.278 23.6055 54.3213 23.4633 55.375 23.5107C57.3525 23.5739 59.4613 23.886 61.0622 25.1515C61.9205 25.7599 62.4768 26.7172 62.7039 27.7364C62.196 27.8365 61.6737 27.7522 61.1672 27.8549C60.6869 27.9339 60.1949 27.8457 59.7172 27.9445C59.2172 28.0314 58.7055 27.9379 58.2094 28.0459C57.842 27.3506 57.1911 26.8383 56.4287 26.6553C55.1952 26.3182 53.8672 26.3498 52.6521 26.7448C52.2676 26.8594 52.0052 27.1715 51.7939 27.4954C51.7965 27.6087 51.8031 27.8352 51.807 27.9484C52.0222 28.1538 52.2309 28.3988 52.5379 28.4607C53.5247 28.7583 54.5588 28.8597 55.5836 28.9123L55.6926 28.9769C56.9982 29.0743 58.3157 29.1388 59.6017 29.4114C60.2303 29.5392 60.8379 29.7749 61.3706 30.137C61.616 30.3938 61.868 30.6453 62.1238 30.8929C62.8718 32.0332 62.9243 33.5845 62.3272 34.7999C61.805 35.9047 60.7289 36.6118 59.6201 37.028C57.8459 37.6627 55.938 37.7851 54.0706 37.7377C53.6258 37.5929 53.1521 37.7061 52.6993 37.6205C51.3897 37.4283 50.0421 37.1741 48.907 36.4512C48.5513 36.2365 48.243 35.9574 47.9084 35.7138C47.6512 35.3556 47.3572 35.0237 47.1368 34.6419C46.8481 34.1783 46.726 33.6398 46.5489 33.1288C47.1682 32.9445 47.8191 33.059 48.4464 32.93C49.3715 32.9037 50.294 32.8167 51.2139 32.7101C51.3805 33.2131 51.6364 33.7175 52.0905 34.019C52.9985 34.6748 54.1651 34.7814 55.2503 34.7406C56.0508 34.7867 56.8513 34.6458 57.5979 34.3561C57.9365 34.156 58.1779 33.8478 58.2593 33.4567C58.1884 33.2724 58.1255 33.0841 58.031 32.9116C57.6688 32.6508 57.2384 32.5007 56.8067 32.4059C55.8973 32.2755 54.9931 32.0688 54.0693 32.0754C52.1863 31.8199 50.109 31.866 48.5028 30.6874C48.0829 30.3885 47.7824 29.9645 47.5514 29.5089C47.142 28.3843 47.205 27.0767 47.8506 26.0522C48.5723 25 49.7271 24.339 50.9396 24.0111C51.3661 23.8926 51.8018 23.8123 52.2322 23.7109ZM0.871094 23.965C2.38673 23.9676 3.90368 23.9663 5.42063 23.965C5.43507 25.7243 5.39307 27.4849 5.44294 29.2442C7.4323 27.4572 9.50826 25.7678 11.4806 23.9624C13.4515 23.9755 15.4225 23.9545 17.3935 23.9729C15.2887 25.7506 13.1484 27.4862 11.041 29.26L11.1656 29.3429C11.6997 29.9658 12.1957 30.6255 12.7731 31.2102L12.802 31.3248C13.3689 31.9081 13.8833 32.5415 14.3885 33.1789C14.5801 33.3803 14.773 33.5845 14.9357 33.8123C15.9973 35.0106 17.0051 36.255 18.0496 37.4678C16.1548 37.4941 14.2599 37.4744 12.3663 37.4783C12.2548 37.3598 12.1446 37.2426 12.033 37.1254C10.6709 35.3319 9.2012 33.62 7.85615 31.8133C7.02025 32.4559 6.26571 33.1999 5.42457 33.8373C5.41801 35.0514 5.42457 36.2655 5.42063 37.4809C3.90368 37.4783 2.38804 37.4809 0.871094 37.4809C0.873718 32.9761 0.871094 28.4712 0.871094 23.965ZM83.5501 23.965C85.0356 23.965 86.521 23.965 88.0065 23.965C88.0091 28.4699 88.0078 32.9748 88.0065 37.4796C86.521 37.4796 85.0343 37.4796 83.5488 37.4796C83.5488 32.9748 83.5488 28.4712 83.5488 23.9663L83.5501 23.965ZM91.5535 23.965C93.0704 23.965 94.5874 23.965 96.1043 23.965C96.103 25.7085 96.103 27.4533 96.1043 29.1968C96.6213 28.7965 97.1239 28.3724 97.5858 27.9089L97.7039 27.8826C98.4401 27.1254 99.3022 26.5065 100.07 25.7836C100.76 25.1686 101.486 24.5945 102.162 23.9637C104.117 23.9769 106.072 23.94 108.027 23.9835C105.94 25.7678 103.806 27.4981 101.696 29.256C101.919 29.4838 102.151 29.7064 102.344 29.9632C104.077 31.9766 105.768 34.0282 107.514 36.0298C107.9 36.5276 108.325 36.9911 108.739 37.4665C106.811 37.4941 104.883 37.4691 102.956 37.4796C102.915 37.4138 102.833 37.2834 102.793 37.2189C101.326 35.4399 99.9466 33.5884 98.4716 31.8173C97.6777 32.4875 96.9008 33.1776 96.1056 33.8452C96.1056 35.0567 96.1056 36.2681 96.1056 37.4796C94.5887 37.4783 93.073 37.4783 91.5561 37.4796C91.5561 32.9748 91.5561 28.4699 91.5561 23.9637L91.5535 23.965ZM75.6399 41.9542C75.6334 43.8597 75.6517 45.7664 75.6268 47.6732C74.6728 46.8555 73.4813 46.413 72.2806 46.1128C70.9001 45.8402 69.4619 45.8336 68.1011 46.2142C66.4752 46.6342 65.0436 47.6956 64.1185 49.0954C62.5267 51.65 62.5976 55.2134 64.4032 57.6455C64.9215 58.1683 65.4005 58.753 66.0501 59.1204C66.7456 59.5892 67.5368 59.8855 68.3439 60.0975C70.8542 60.6506 73.7175 60.162 75.6294 58.3527C75.6386 58.8504 75.6373 59.3508 75.6399 59.8512C77.1241 59.8512 78.6095 59.8512 80.095 59.8512C80.0963 53.886 80.095 47.9208 80.095 41.9555C78.6095 41.9542 77.1254 41.9555 75.6399 41.9555V41.9542ZM71.4709 49.0783C71.9276 49.0783 72.3856 49.1889 72.8357 49.2692C73.1178 49.3535 73.396 49.4509 73.6755 49.5484C74.598 49.9895 75.3604 50.8007 75.5979 51.8173C75.8709 53.167 75.7397 54.6932 74.8631 55.8073C74.1663 56.7093 73.0115 57.1465 71.904 57.2097C70.8319 57.2782 69.6942 57.0069 68.8753 56.2813C68.3977 55.8059 68.0526 55.2121 67.836 54.576C67.5592 53.5607 67.5027 52.4441 67.9174 51.4591C68.3596 50.2094 69.5564 49.3298 70.8503 49.1573C71.0563 49.0993 71.2623 49.0783 71.4709 49.0783ZM99.94 45.6901C99.8744 45.6901 99.8088 45.694 99.7432 45.7006C99.2681 45.8718 98.7524 45.7243 98.2669 45.8389C96.0308 46.143 93.7462 47.0095 92.2529 48.7754C91.3842 49.7485 90.875 51.0114 90.7412 52.3045C90.7556 53.0709 90.6677 53.8518 90.8488 54.6063C91.0482 55.694 91.6151 56.679 92.3054 57.5257C93.5402 58.8979 95.2934 59.7314 97.0819 60.0909C98.4283 60.3503 99.8271 60.5149 101.189 60.3174C103.087 60.2344 104.986 59.6195 106.534 58.5068C107.789 57.635 108.644 56.276 109.063 54.8157C109.19 53.936 109.389 53.0459 109.237 52.1557C109.101 50.6835 108.413 49.2771 107.374 48.2355C107.156 48.0604 106.953 47.8694 106.757 47.6732C105.185 46.5052 103.253 45.9034 101.315 45.7862C100.852 45.8165 100.399 45.6887 99.94 45.6901ZM100.268 48.9795C100.361 48.9966 100.549 49.0282 100.642 49.0453C101.819 49.0993 103.013 49.5852 103.791 50.4912C104.722 51.5908 104.903 53.2026 104.378 54.5273C103.98 55.6571 102.975 56.4486 101.872 56.8252C101.008 57.1017 100.095 57.0029 99.2051 57.0135C98.5963 56.9516 98.0058 56.7738 97.4441 56.5368C96.4402 56.0614 95.7028 55.1093 95.4652 54.0243C95.3222 53.512 95.3747 52.9774 95.38 52.4533C95.603 51.4617 96.0741 50.4781 96.9415 49.9013C97.9086 49.2152 99.1146 49.0374 100.268 48.9795ZM39.2725 46.4156C40.0074 46.1589 40.7789 45.9521 41.5624 45.9613L41.687 45.8863C41.9377 45.8863 42.1883 45.8889 42.4402 45.8902C42.4402 47.2255 42.4402 48.5607 42.4402 49.896C41.851 49.896 41.2619 49.8947 40.674 49.8934C40.0835 49.8789 39.5192 50.0751 38.9484 50.1923C38.4104 50.4017 37.8999 50.6953 37.4773 51.0917C36.9984 51.6421 36.7845 52.3888 36.7989 53.1117C36.8068 55.3582 36.7989 57.6047 36.8029 59.8526C35.2859 59.8526 33.769 59.8526 32.2507 59.8526C32.2481 55.3464 32.2507 50.8415 32.2507 46.3353C33.769 46.3393 35.2859 46.3353 36.8042 46.3366C36.7976 47.0517 36.8094 47.7667 36.7963 48.4831C37.3868 47.5613 38.2384 46.7936 39.2751 46.4183L39.2725 46.4156ZM52.4264 45.885C51.9212 45.885 51.4147 45.885 50.9108 45.8876C49.3348 46.0272 47.6892 46.1773 46.2956 47.0003C45.1172 47.6192 44.486 48.8952 44.2262 50.1541C45.7353 50.1712 47.2483 50.1844 48.7561 50.1475C48.9936 49.8605 49.2468 49.5813 49.5591 49.3732C50.0814 49.1889 50.6208 49.0769 51.1666 48.9914C52.5274 48.9742 53.9683 48.8623 55.2346 49.4628C55.9051 49.7801 56.1308 50.586 56.0915 51.2761C54.4958 51.3129 52.9001 51.2194 51.3044 51.2629C50.6089 51.388 49.903 51.3432 49.2022 51.3551C48.4516 51.438 47.6971 51.4815 46.9583 51.654C46.2877 51.7896 45.6697 52.0846 45.0713 52.4085C44.1291 53.0564 43.5675 54.206 43.6213 55.349C43.6488 55.8731 43.5373 56.4235 43.7525 56.9226C44.0674 58.1433 45.087 59.0677 46.2129 59.5497C47.1906 59.9711 48.2679 60.1093 49.3229 60.1462C50.1182 60.3003 50.916 60.0922 51.7138 60.1028C53.2623 59.871 54.7517 59.3048 56.0574 58.437C56.0744 58.9202 56.186 59.3943 56.3461 59.8499C57.9732 59.8473 59.6004 59.8565 61.2276 59.846C60.851 59.2929 60.5807 58.6687 60.5492 57.9919C60.5098 55.2713 60.5885 52.5468 60.5059 49.8275C60.3274 48.9123 59.9482 48.0037 59.1976 47.4138C57.7265 46.2207 55.7516 46.043 53.9381 45.8902C53.4329 45.8836 52.9303 45.8836 52.4264 45.8836V45.885ZM54.7753 53.645C55.2175 53.645 55.6584 53.6503 56.1007 53.6542C56.0836 53.8241 56.0652 53.9966 56.0482 54.1678C55.9091 54.9382 55.4524 55.6348 54.8055 56.0706C54.1612 56.5816 53.3673 56.8252 52.597 57.0714C51.4015 57.2518 50.0932 57.3308 49.0041 56.7093C48.1222 56.2932 48.1131 54.8842 48.8794 54.3456C49.4424 53.9439 50.1392 53.8505 50.8018 53.7398C52.1233 53.6608 53.4499 53.6411 54.774 53.645H54.7753ZM83.6433 46.1562C85.1287 46.1562 86.6142 46.1562 88.101 46.1562C88.0983 50.7203 88.101 55.2858 88.101 59.8499C86.6155 59.8499 85.1301 59.8499 83.6446 59.8499C83.6446 55.2858 83.6446 50.7203 83.6446 46.1562H83.6433Z" fill="#D1D5DB"/>
</g>
<defs>
<clipPath id="clip0_7969_23549">
<rect width="159.07" height="60" fill="white" transform="translate(0.871094 0.404297)"/>
</clipPath>
</defs>
</svg>
