<?xml version="1.0" encoding="utf-8"?>
<svg version="1.1" width="1174px" height="394px" style="shape-rendering:geometricPrecision; text-rendering:geometricPrecision; image-rendering:optimizeQuality; fill-rule:evenodd; clip-rule:evenodd" xmlns="http://www.w3.org/2000/svg">
  <g>
    <path style="opacity: 0.925; fill: rgb(209, 213, 219);" d="M 1080.5,-0.5 C 1090.83,-0.5 1101.17,-0.5 1111.5,-0.5C 1145.2,8.86641 1165.87,30.5331 1173.5,64.5C 1173.5,72.8333 1173.5,81.1667 1173.5,89.5C 1167.81,119.193 1150.98,139.86 1123,151.5C 1084.74,162.691 1053.74,152.358 1030,120.5C 1009.03,80.7187 1014.86,45.552 1047.5,15C 1052.58,11.7107 1057.74,8.544 1063,5.5C 1069.09,3.70159 1074.92,1.70159 1080.5,-0.5 Z M 1090.5,12.5 C 1121.04,12.3478 1142.87,26.0145 1156,53.5C 1165.33,83.7397 1158.16,108.906 1134.5,129C 1110.81,145.632 1086.48,146.632 1061.5,132C 1042.71,118.699 1032.71,100.532 1031.5,77.5C 1034.83,40.8403 1054.5,19.1736 1090.5,12.5 Z"/>
  </g>
  <g>
    <path style="opacity: 0.986; fill: rgb(209, 213, 219);" d="M -0.5,240.5 C -0.5,238.167 -0.5,235.833 -0.5,233.5C 0.117425,233.389 0.617425,233.056 1,232.5C 11.8346,164.486 22.6679,96.4863 33.5,28.5C 65.5017,28.3334 97.5017,28.5 129.5,29C 136.716,52.6927 143.549,76.526 150,100.5C 152.982,113.453 155.648,126.453 158,139.5C 160.485,129.226 162.818,118.892 165,108.5C 173.456,82.0071 181.29,55.3405 188.5,28.5C 220.502,28.3334 252.502,28.5 284.5,29C 289.773,59.6625 294.607,90.4958 299,121.5C 307.907,76.9203 333.741,46.7536 376.5,31C 410.742,20.2408 444.409,21.5741 477.5,35C 509.598,51.0068 528.098,76.8401 533,112.5C 536.893,84.4164 541.393,56.4164 546.5,28.5C 578.507,28.1668 610.507,28.5001 642.5,29.5C 653.149,65.2678 662.649,101.268 671,137.5C 673.211,126.326 675.877,115.326 679,104.5C 686.836,79.1899 694.336,53.8565 701.5,28.5C 733.5,28.5 765.5,28.5 797.5,28.5C 804.831,77.3283 812.665,125.995 821,174.5C 837.386,126.14 853.719,77.8072 870,29.5C 901.093,28.5044 932.26,28.171 963.5,28.5C 987.904,98.5995 1012.24,168.766 1036.5,239C 1036.36,239.772 1036.02,240.439 1035.5,241C 1007.83,241.833 980.161,241.667 952.5,240.5C 949.203,231.965 946.536,223.298 944.5,214.5C 923.833,214.5 903.167,214.5 882.5,214.5C 879.794,222.479 877.461,230.645 875.5,239C 875.095,239.945 874.428,240.612 873.5,241C 832.5,241.667 791.5,241.667 750.5,241C 749.874,240.25 749.374,239.416 749,238.5C 744.159,202.434 739.159,166.434 734,130.5C 725.8,167.179 716.467,203.512 706,239.5C 705.5,240 705,240.5 704.5,241C 679.5,241.667 654.5,241.667 629.5,241C 627.631,237.359 626.131,233.526 625,229.5C 617.21,197.556 609.544,165.556 602,133.5C 598.616,169.689 594.116,205.689 588.5,241.5C 563.498,241.667 538.498,241.5 513.5,241C 512.919,240.107 512.585,239.107 512.5,238C 515.946,219.932 518.779,201.765 521,183.5C 500.053,218.06 469.553,238.227 429.5,244C 394.086,249.3 362.086,241.634 333.5,221C 325.199,213.038 318.033,204.205 312,194.5C 314.391,209.969 316.224,225.636 317.5,241.5C 290.592,241.828 263.759,241.495 237,240.5C 231.231,204.581 225.897,168.581 221,132.5C 212.302,168.322 202.968,203.988 193,239.5C 192.5,240 192,240.5 191.5,241C 166.5,241.667 141.5,241.667 116.5,241C 115.484,240.481 114.818,239.647 114.5,238.5C 105.796,202.467 97.2961,166.467 89,130.5C 85.3211,167.299 80.9877,203.966 76,240.5C 50.5,241.829 25,241.829 -0.5,240.5 Z M 413.5,92.5 C 433.878,92.7158 446.378,102.716 451,122.5C 452.573,135.315 450.906,147.649 446,159.5C 436.449,173.468 423.283,178.635 406.5,175C 403.736,174.468 401.07,173.634 398.5,172.5C 385.611,163.05 379.611,150.216 380.5,134C 380.262,110.881 391.262,97.0477 413.5,92.5 Z M 912.5,114.5 C 917.314,129.411 921.98,144.411 926.5,159.5C 917.494,159.666 908.494,159.5 899.5,159C 904.677,144.466 909.011,129.632 912.5,114.5 Z"/>
  </g>
  <g>
    <path style="opacity: 0.974; fill: rgb(209, 213, 219);" d="M 1125.5,29.5 C 1126.76,29.4614 1127.76,29.9614 1128.5,31C 1127.67,57.0945 1127.17,83.2612 1127,109.5C 1109.33,116.334 1091.5,122.667 1073.5,128.5C 1073.83,109.488 1073.5,90.4883 1072.5,71.5C 1067.56,72.7305 1062.89,74.5638 1058.5,77C 1055.18,78.1163 1051.85,78.783 1048.5,79C 1048.43,72.0437 1048.43,64.8771 1048.5,57.5C 1074.59,48.9102 1100.25,39.5769 1125.5,29.5 Z"/>
  </g>
  <g>
    <path style="opacity: 0.922; fill: rgb(209, 213, 219);" d="M 5.5,289.5 C 19.1707,289.333 32.8374,289.5 46.5,290C 67.875,293.219 78.2083,305.719 77.5,327.5C 77.6002,346.875 68.6002,359.708 50.5,366C 35.5406,367.563 20.5406,367.896 5.5,367C 4.54948,363.943 4.21614,360.777 4.5,357.5C 7.5873,355.983 10.9206,355.316 14.5,355.5C 14.5,337.5 14.5,319.5 14.5,301.5C 5.34223,302.32 2.34223,298.32 5.5,289.5 Z M 28.5,302.5 C 38.2331,301.236 47.2331,303.069 55.5,308C 64.7516,321.34 64.7516,334.674 55.5,348C 47.4764,353.775 38.4764,355.942 28.5,354.5C 28.5,337.167 28.5,319.833 28.5,302.5 Z"/>
  </g>
  <g>
    <path style="opacity: 0.882; fill: rgb(209, 213, 219);" d="M 210.5,289.5 C 226.837,289.333 243.17,289.5 259.5,290C 260,290.5 260.5,291 261,291.5C 261.831,297.859 261.664,304.193 260.5,310.5C 252.378,313.49 248.378,310.823 248.5,302.5C 243.5,302.5 238.5,302.5 233.5,302.5C 233.5,309.167 233.5,315.833 233.5,322.5C 237.167,322.5 240.833,322.5 244.5,322.5C 244.694,319.67 245.361,317.004 246.5,314.5C 249.777,314.216 252.943,314.549 256,315.5C 256.5,323.493 256.666,331.493 256.5,339.5C 253.102,339.82 249.768,339.487 246.5,338.5C 245.05,337.15 244.383,335.484 244.5,333.5C 240.833,333.5 237.167,333.5 233.5,333.5C 233.5,340.5 233.5,347.5 233.5,354.5C 238.5,354.5 243.5,354.5 248.5,354.5C 248.337,345.634 252.504,342.968 261,346.5C 261.811,353.414 261.645,360.248 260.5,367C 243.833,367.667 227.167,367.667 210.5,367C 209.549,363.943 209.216,360.777 209.5,357.5C 212.261,356.08 215.261,355.413 218.5,355.5C 218.5,337.5 218.5,319.5 218.5,301.5C 210.174,301.578 207.508,297.578 210.5,289.5 Z"/>
  </g>
  <g>
    <path style="opacity: 0.933; fill: rgb(209, 213, 219);" d="M 371.5,289.5 C 373.167,289.5 374.833,289.5 376.5,289.5C 376.5,296.167 376.5,302.833 376.5,309.5C 381.179,309.334 385.845,309.501 390.5,310C 391.833,313.667 391.833,317.333 390.5,321C 385.845,321.499 381.179,321.666 376.5,321.5C 376.071,332.245 376.571,342.912 378,353.5C 382.066,354.464 386.233,354.797 390.5,354.5C 391.556,358.725 391.556,362.891 390.5,367C 383.775,368.372 377.108,368.372 370.5,367C 368.032,365.616 365.865,363.783 364,361.5C 362.556,348.24 362.056,334.907 362.5,321.5C 359.167,321.5 355.833,321.5 352.5,321.5C 352.5,317.5 352.5,313.5 352.5,309.5C 355.833,309.5 359.167,309.5 362.5,309.5C 362.5,303.833 362.5,298.167 362.5,292.5C 365.69,291.819 368.69,290.819 371.5,289.5 Z"/>
  </g>
  <g>
    <path style="opacity: 0.911; fill: rgb(209, 213, 219);" d="M 661.5,289.5 C 670.418,289.183 679.251,289.516 688,290.5C 694.461,308.009 700.461,325.676 706,343.5C 711.006,325.145 717.172,307.312 724.5,290C 733.215,289.196 741.882,289.363 750.5,290.5C 753.26,298.795 750.26,302.628 741.5,302C 744.908,319.675 747.908,337.508 750.5,355.5C 752.484,355.383 754.15,356.05 755.5,357.5C 756.487,360.768 756.82,364.102 756.5,367.5C 746.833,367.5 737.167,367.5 727.5,367.5C 727.18,364.102 727.513,360.768 728.5,357.5C 730.323,356.253 732.323,355.586 734.5,355.5C 733.401,342.368 731.567,329.368 729,316.5C 723.637,333.647 718.137,350.647 712.5,367.5C 707.57,367.803 702.737,367.469 698,366.5C 692.081,350.408 686.747,334.075 682,317.5C 679.445,330.037 677.612,342.703 676.5,355.5C 679.33,355.694 681.996,356.361 684.5,357.5C 684.784,360.777 684.451,363.943 683.5,367C 674.5,367.667 665.5,367.667 656.5,367C 652.429,360.007 654.429,356.174 662.5,355.5C 665.201,337.592 667.534,319.592 669.5,301.5C 666.635,301.945 664.135,301.278 662,299.5C 661.502,296.183 661.335,292.85 661.5,289.5 Z"/>
  </g>
  <g>
    <path style="opacity: 0.915; fill: rgb(209, 213, 219);" d="M 97.5,308.5 C 108.729,306.563 118.229,309.563 126,317.5C 127.42,330.106 127.92,342.772 127.5,355.5C 130.448,355.223 133.281,355.556 136,356.5C 136.498,359.817 136.665,363.15 136.5,366.5C 129.161,367.584 121.828,367.584 114.5,366.5C 113.902,365.205 113.402,363.872 113,362.5C 103.4,370.335 93.9,370.335 84.5,362.5C 78.5925,350.39 81.5925,341.223 93.5,335C 100.028,333.058 106.695,332.225 113.5,332.5C 114.849,324.52 111.516,320.52 103.5,320.5C 101.182,320.997 98.8484,321.33 96.5,321.5C 95.9084,324.127 95.5751,326.794 95.5,329.5C 91.8936,329.789 88.3936,329.456 85,328.5C 84.3333,323.167 84.3333,317.833 85,312.5C 88.9842,310.393 93.1509,309.06 97.5,308.5 Z M 105.5,342.5 C 108.247,342.187 110.914,342.52 113.5,343.5C 111.879,352.633 106.546,356.466 97.5,355C 95.1145,352.293 94.9478,349.46 97,346.5C 99.5638,344.376 102.397,343.042 105.5,342.5 Z"/>
  </g>
  <g>
    <path style="opacity: 0.906; fill: rgb(209, 213, 219);" d="M 157.5,308.5 C 163.88,308.393 170.213,308.893 176.5,310C 177.476,316.076 177.81,322.242 177.5,328.5C 174.482,328.665 171.482,328.498 168.5,328C 167.833,325.333 167.167,322.667 166.5,320C 160.421,318.104 156.088,319.937 153.5,325.5C 153.529,327.029 154.196,328.196 155.5,329C 161.241,331.915 167.241,334.249 173.5,336C 181.314,342.727 182.481,350.56 177,359.5C 171.09,365.807 163.757,368.807 155,368.5C 150.842,367.927 146.676,367.427 142.5,367C 142,366.5 141.5,366 141,365.5C 140.501,359.843 140.334,354.176 140.5,348.5C 143.85,348.335 147.183,348.502 150.5,349C 151.423,351.041 151.756,353.208 151.5,355.5C 156.763,356.747 161.596,355.747 166,352.5C 166.682,348.82 165.182,346.32 161.5,345C 154.706,343.933 148.54,341.433 143,337.5C 137.468,328.335 138.635,320.168 146.5,313C 149.979,310.791 153.646,309.291 157.5,308.5 Z"/>
  </g>
  <g>
    <path style="opacity: 0.882; fill: rgb(209, 213, 219);" d="M 299.5,308.5 C 302.167,308.5 304.833,308.5 307.5,308.5C 307.167,313.167 306.833,317.833 306.5,322.5C 300.199,321.314 295.366,323.314 292,328.5C 290.041,337.389 289.207,346.389 289.5,355.5C 292.482,355.104 295.149,355.771 297.5,357.5C 298.487,360.768 298.82,364.102 298.5,367.5C 287.813,367.832 277.146,367.499 266.5,366.5C 265.593,363.579 265.26,360.579 265.5,357.5C 268.261,356.08 271.261,355.413 274.5,355.5C 274.5,344.167 274.5,332.833 274.5,321.5C 266.004,322.5 263.337,319 266.5,311C 273.719,309.571 281.053,309.071 288.5,309.5C 288.338,311.527 288.505,313.527 289,315.5C 291.701,311.748 295.201,309.415 299.5,308.5 Z"/>
  </g>
  <g>
    <path style="opacity: 0.916; fill: rgb(209, 213, 219);" d="M 327.5,308.5 C 334.18,308.612 340.847,308.946 347.5,309.5C 347.5,315.833 347.5,322.167 347.5,328.5C 339.524,330.367 336.19,327.367 337.5,319.5C 331.404,318.159 326.737,319.993 323.5,325C 323.903,326.473 324.57,327.806 325.5,329C 331.241,331.915 337.241,334.249 343.5,336C 352.748,343.092 353.748,351.258 346.5,360.5C 336.343,368.14 325.01,370.307 312.5,367C 311.524,360.924 311.19,354.758 311.5,348.5C 314.833,348.5 318.167,348.5 321.5,348.5C 321.5,350.833 321.5,353.167 321.5,355.5C 326.267,356.555 330.934,355.888 335.5,353.5C 336.631,351.926 336.798,350.259 336,348.5C 330.79,344.728 324.957,342.228 318.5,341C 306.317,330.656 306.65,320.656 319.5,311C 322.31,310.218 324.977,309.384 327.5,308.5 Z"/>
  </g>
  <g>
    <path style="opacity: 0.9; fill: rgb(209, 213, 219);" d="M 414.5,308.5 C 436.116,308.362 445.116,319.028 441.5,340.5C 430.218,341.478 418.885,341.812 407.5,341.5C 408.089,351.256 413.256,355.923 423,355.5C 427.74,355.352 432.406,354.686 437,353.5C 437.833,353.833 438.667,354.167 439.5,354.5C 440.417,357.758 440.751,361.091 440.5,364.5C 426.653,370.598 413.32,369.765 400.5,362C 392.436,350.56 390.603,338.06 395,324.5C 398.819,315.701 405.319,310.368 414.5,308.5 Z M 416.5,319.5 C 423.001,319.596 427.001,322.763 428.5,329C 421.842,329.5 415.175,329.666 408.5,329.5C 408.608,327.217 409.441,325.217 411,323.5C 413.167,322.512 415,321.179 416.5,319.5 Z"/>
  </g>
  <g>
    <path style="opacity: 0.905; fill: rgb(209, 213, 219);" d="M 489.5,308.5 C 495.898,308.243 502.231,308.743 508.5,310C 515.564,312.679 519.064,317.846 519,325.5C 519.5,335.494 519.666,345.494 519.5,355.5C 522.448,355.223 525.281,355.556 528,356.5C 528.784,359.76 528.617,362.927 527.5,366C 520.563,367.288 513.563,367.788 506.5,367.5C 506.663,365.143 506.497,362.81 506,360.5C 495.498,371.09 485.165,371.09 475,360.5C 470.395,348.554 473.895,340.054 485.5,335C 491.697,333.114 498.03,332.28 504.5,332.5C 506.279,324.681 503.279,320.681 495.5,320.5C 492.86,321.095 490.193,321.428 487.5,321.5C 488.093,328.712 484.76,331.212 477.5,329C 476.363,323.918 476.196,318.751 477,313.5C 477.374,312.584 477.874,311.75 478.5,311C 482.312,310.205 485.979,309.371 489.5,308.5 Z M 497.5,342.5 C 499.833,342.5 502.167,342.5 504.5,342.5C 503.877,353.88 498.377,357.547 488,353.5C 486.877,350.044 487.71,347.21 490.5,345C 492.927,344.098 495.26,343.264 497.5,342.5 Z"/>
  </g>
  <g>
    <path style="opacity: 0.901; fill: rgb(209, 213, 219);" d="M 566.5,308.5 C 575.271,307.014 581.938,310.014 586.5,317.5C 594.139,308.425 603.472,306.258 614.5,311C 617.543,313.593 619.71,316.76 621,320.5C 621.5,332.162 621.667,343.829 621.5,355.5C 629.74,355.316 632.407,359.15 629.5,367C 622.174,367.5 614.841,367.666 607.5,367.5C 607.667,353.829 607.5,340.163 607,326.5C 605.427,321.965 602.261,320.465 597.5,322C 596.167,322.667 594.833,323.333 593.5,324C 591.858,326.786 590.358,329.619 589,332.5C 588.816,340.079 588.316,347.579 587.5,355C 595.708,355.178 598.374,359.178 595.5,367C 588.253,367.812 581.086,367.646 574,366.5C 573.667,352.5 573.333,338.5 573,324.5C 566.034,319.949 560.701,321.616 557,329.5C 555.624,338.098 555.124,346.765 555.5,355.5C 558.157,355.162 560.49,355.829 562.5,357.5C 563.787,360.709 563.787,363.875 562.5,367C 552.172,367.5 541.839,367.666 531.5,367.5C 531.18,364.102 531.513,360.768 532.5,357.5C 534.851,355.771 537.518,355.104 540.5,355.5C 540.179,344.252 540.513,333.085 541.5,322C 538.443,321.744 535.443,321.244 532.5,320.5C 531.513,317.232 531.18,313.898 531.5,310.5C 538.798,309.441 546.131,309.274 553.5,310C 554.249,311.734 554.749,313.567 555,315.5C 558.263,312.037 562.097,309.704 566.5,308.5 Z"/>
  </g>
  <g>
    <path style="opacity: 0.922; fill: rgb(209, 213, 219);" d="M 780.5,308.5 C 801.337,307.006 812.004,316.673 812.5,337.5C 811.408,355.924 801.741,366.257 783.5,368.5C 765.729,367.06 757.063,357.393 757.5,339.5C 757.247,323.109 764.914,312.776 780.5,308.5 Z M 781.5,321.5 C 788.034,320.502 792.868,322.836 796,328.5C 799.34,338.26 797.506,346.76 790.5,354C 781.59,356.992 775.757,354.159 773,345.5C 772.333,340.5 772.333,335.5 773,330.5C 774.714,326.29 777.547,323.29 781.5,321.5 Z"/>
  </g>
  <g>
    <path style="opacity: 0.915; fill: rgb(209, 213, 219);" d="M 847.5,308.5 C 850.119,308.232 852.619,308.565 855,309.5C 855.667,313.5 855.667,317.5 855,321.5C 851.175,322.21 847.342,323.044 843.5,324C 840.781,327.048 838.948,330.548 838,334.5C 837.5,341.492 837.334,348.492 837.5,355.5C 845.484,355.4 848.484,359.4 846.5,367.5C 835.828,367.667 825.161,367.5 814.5,367C 813.549,363.943 813.216,360.777 813.5,357.5C 816.587,355.983 819.921,355.316 823.5,355.5C 823.5,344.167 823.5,332.833 823.5,321.5C 814.51,323.014 811.51,319.514 814.5,311C 821.719,309.571 829.053,309.071 836.5,309.5C 836.338,311.527 836.505,313.527 837,315.5C 839.911,312.055 843.411,309.721 847.5,308.5 Z"/>
  </g>
  <g>
    <path style="opacity: 0.922; fill: rgb(209, 213, 219);" d="M 893.5,393.5 C 884.833,393.5 876.167,393.5 867.5,393.5C 856.206,387.872 853.373,379.206 859,367.5C 860.5,366 862,364.5 863.5,363C 858.014,356.696 858.348,350.696 864.5,345C 858.754,340.227 856.588,334.06 858,326.5C 861.445,314.338 869.612,308.338 882.5,308.5C 891.734,309.032 900.901,309.698 910,310.5C 910.667,313.833 910.667,317.167 910,320.5C 907.931,321.264 905.764,321.764 903.5,322C 906.82,326.479 907.32,331.312 905,336.5C 902.833,342 899,345.833 893.5,348C 887.53,348.975 881.53,349.808 875.5,350.5C 873.978,352.156 874.311,353.323 876.5,354C 884.218,354.188 891.885,354.854 899.5,356C 911.333,361.844 914.166,370.678 908,382.5C 904.127,387.51 899.294,391.177 893.5,393.5 Z M 879.5,319.5 C 889.541,319.71 893.375,324.71 891,334.5C 886.666,339.208 881.499,340.375 875.5,338C 869.507,330.163 870.84,323.996 879.5,319.5 Z M 873.5,367.5 C 879.842,367.334 886.175,367.5 892.5,368C 896.292,370.053 897.458,373.219 896,377.5C 888.453,384.429 880.453,385.096 872,379.5C 869.954,375.219 870.454,371.219 873.5,367.5 Z"/>
  </g>
  <g>
    <path style="opacity: 0.909; fill: rgb(209, 213, 219);" d="M 933.5,308.5 C 954.967,308.38 964.134,319.047 961,340.5C 949.561,341.157 938.061,341.823 926.5,342.5C 926.751,349.241 930.084,353.407 936.5,355C 943.909,355.605 951.242,355.105 958.5,353.5C 958.339,356.528 959.006,359.361 960.5,362C 959.66,363.767 958.327,365.101 956.5,366C 921.15,373.317 907.15,359.317 914.5,324C 918.6,315.968 924.934,310.801 933.5,308.5 Z M 935.5,319.5 C 939.25,319.402 942.583,320.569 945.5,323C 946.669,325.007 947.335,327.173 947.5,329.5C 940.8,329.83 934.134,329.497 927.5,328.5C 928.098,327.205 928.598,325.872 929,324.5C 931.326,322.934 933.492,321.268 935.5,319.5 Z"/>
  </g>
  <g>
    <path style="opacity: 0.888; fill: rgb(209, 213, 219);" d="M 1000.5,308.5 C 1009.41,307.084 1016.24,310.084 1021,317.5C 1022.4,330.114 1022.9,342.781 1022.5,355.5C 1025.74,355.413 1028.74,356.08 1031.5,357.5C 1031.78,360.777 1031.45,363.943 1030.5,367C 1023.14,367.831 1015.81,367.665 1008.5,366.5C 1007.68,352.545 1007.18,338.545 1007,324.5C 1002.82,320.738 998.318,320.571 993.5,324C 992,326.833 990.5,329.667 989,332.5C 988.5,340.159 988.334,347.826 988.5,355.5C 991.157,355.162 993.49,355.829 995.5,357.5C 996.487,360.768 996.82,364.102 996.5,367.5C 986.161,367.666 975.828,367.5 965.5,367C 964.549,363.943 964.216,360.777 964.5,357.5C 967.261,356.08 970.261,355.413 973.5,355.5C 973.5,344.167 973.5,332.833 973.5,321.5C 965.004,322.5 962.337,319 965.5,311C 972.719,309.571 980.053,309.071 987.5,309.5C 986.845,316.504 988.845,317.004 993.5,311C 995.927,310.098 998.26,309.264 1000.5,308.5 Z"/>
  </g>
</svg>