<?xml version="1.0" encoding="UTF-8"?><svg id="a" xmlns="http://www.w3.org/2000/svg" viewBox="0 0 84.26 43.07"><defs><style>.d{fill:#9ca3af;}</style></defs><path id="b" class="d" d="M39.4,22.25c4.86-1.68,8.33-5.55,8.33-11.3,0-1.44-.73-4.94-3.38-7.19-1.75-1.49-4.27-3.25-12.42-3.44-1.68-.04-6.8,.14-6.8,.14v.29c1.45,1.11,3,2.93,3.75,5.05,.78-.03,1.96-.09,3.12-.03,3.27,.18,4.7,.79,6.17,1.94,1.48,1.16,2.28,3.16,2.27,4.97,0,2.47-1.18,5.03-4.76,6.49-2.89,1.18-6.39,1.44-6.39,1.44v.9s2.09,1,4.19,3.77c1.8,2.38,12.26,17.78,12.26,17.78h8.64s-13.96-19.46-14.98-20.81Zm-18.99-2.17c3.32-1.96,5.45-4.85,5.45-9.15C25.86,6.33,23.13,.25,11.69,.25,6.15,.25,0,.46,0,.46V43.07H9.76c12.41,0,18.98-4.58,18.98-13.23,0-5.17-3.24-8.58-8.33-9.76Zm-8.65,17.04H6.92V5.73c.06,0,2.17-.03,3.48-.03,5.4,0,8.4,2.79,8.48,6.63,.05,2.33-.64,4.56-3.01,6.2-1.94,1.34-4.64,1.74-4.64,1.74v1.01s3.74,.56,5.65,1.45c3.54,1.65,4.59,4.22,4.62,7.54,.03,5.25-5.03,6.85-9.74,6.85Z"/><path id="c" class="d" d="M54.03,21.04v-3.32l3.1-3.5c.9-1,1.64-1.89,2.21-2.67s1.03-1.47,1.37-2.07c.34-.6,.57-1.15,.69-1.63s.18-.94,.18-1.37c0-.82-.25-1.51-.74-2.06-.49-.55-1.24-.83-2.24-.83-.66,0-1.33,.11-2.01,.34-.69,.23-1.3,.5-1.83,.83l-.58-3.56c.7-.35,1.49-.63,2.4-.86,.9-.22,1.93-.34,3.1-.34,1.04,0,1.96,.15,2.75,.46s1.44,.72,1.97,1.24c.52,.52,.91,1.14,1.17,1.84,.26,.71,.38,1.46,.38,2.26,0,.68-.09,1.36-.28,2.06-.18,.7-.48,1.42-.88,2.18-.4,.76-.91,1.56-1.52,2.41-.61,.85-1.35,1.77-2.21,2.75l-1.84,2.15v.03c1.09-.06,2.23-.1,3.43-.11s2.5-.01,3.92-.01v3.78h-12.54Zm27.13-4.94v4.95h-3.87v-4.95h-8.42l-.55-3.13L76.18,.31h4.98V12.51h3.1v3.59h-3.1Zm-3.81-12.02h-.03l-5.19,8.54c.33-.02,.74-.04,1.25-.05,.5-.01,1-.01,1.51-.01h2.47V4.08h-.01Z"/></svg>