<?xml version="1.0" encoding="utf-8"?>
<!-- Generator: Adobe Illustrator 26.1.0, SVG Export Plug-In . SVG Version: 6.00 Build 0)  -->
<svg version="1.1" id="a" xmlns="http://www.w3.org/2000/svg" xmlns:xlink="http://www.w3.org/1999/xlink" x="0px" y="0px"
	 viewBox="0 0 84.3 43.1" style="enable-background:new 0 0 84.3 43.1;" xml:space="preserve">
<style type="text/css">
	.st0{fill:#FFFFFF;}
</style>
<path id="b" class="st0" d="M39.4,22.2c4.9-1.7,8.3-5.5,8.3-11.3c0-1.4-0.7-4.9-3.4-7.2c-1.8-1.5-4.3-3.2-12.4-3.4
	c-1.7,0-6.8,0.1-6.8,0.1v0.3c1.5,1.1,3,2.9,3.8,5.1c0.8,0,2-0.1,3.1,0c3.3,0.2,4.7,0.8,6.2,1.9c1.5,1.2,2.3,3.2,2.3,5
	c0,2.5-1.2,5-4.8,6.5c-2.9,1.2-6.4,1.4-6.4,1.4v0.9c0,0,2.1,1,4.2,3.8c1.8,2.4,12.3,17.8,12.3,17.8h8.6
	C54.4,43.1,40.4,23.6,39.4,22.2z M20.4,20.1c3.3-2,5.4-4.8,5.4-9.1c0-4.6-2.7-10.7-14.2-10.7C6.2,0.2,0,0.5,0,0.5v42.6h9.8
	c12.4,0,19-4.6,19-13.2C28.7,24.7,25.5,21.3,20.4,20.1z M11.8,37.1H6.9V5.7c0.1,0,2.2,0,3.5,0c5.4,0,8.4,2.8,8.5,6.6
	c0,2.3-0.6,4.6-3,6.2c-1.9,1.3-4.6,1.7-4.6,1.7v1c0,0,3.7,0.6,5.6,1.5c3.5,1.6,4.6,4.2,4.6,7.5C21.5,35.5,16.5,37.1,11.8,37.1z"/>
<path id="c" class="st0" d="M54,21v-3.3l3.1-3.5c0.9-1,1.6-1.9,2.2-2.7s1-1.5,1.4-2.1c0.3-0.6,0.6-1.1,0.7-1.6s0.2-0.9,0.2-1.4
	c0-0.8-0.2-1.5-0.7-2.1s-1.2-0.8-2.2-0.8c-0.7,0-1.3,0.1-2,0.3c-0.7,0.2-1.3,0.5-1.8,0.8l-0.6-3.6c0.7-0.4,1.5-0.6,2.4-0.9
	C57.5,0.1,58.5,0,59.7,0c1,0,2,0.2,2.8,0.5s1.4,0.7,2,1.2c0.5,0.5,0.9,1.1,1.2,1.8c0.3,0.7,0.4,1.5,0.4,2.3c0,0.7-0.1,1.4-0.3,2.1
	c-0.2,0.7-0.5,1.4-0.9,2.2c-0.4,0.8-0.9,1.6-1.5,2.4c-0.6,0.9-1.3,1.8-2.2,2.8l-1.8,2.1v0c1.1-0.1,2.2-0.1,3.4-0.1s2.5,0,3.9,0V21
	L54,21L54,21z M81.2,16.1V21h-3.9v-5h-8.4L68.3,13l7.9-12.7h5v12.2h3.1v3.6C84.3,16.1,81.2,16.1,81.2,16.1z M77.3,4.1L77.3,4.1
	l-5.2,8.5c0.3,0,0.7,0,1.2-0.1c0.5,0,1,0,1.5,0h2.5L77.3,4.1L77.3,4.1z"/>
</svg>
