<?xml version="1.0" encoding="UTF-8"?><svg id="a" xmlns="http://www.w3.org/2000/svg" viewBox="0 0 1212.2 455.64"><defs><style>.d{fill:#9ca3af;}</style></defs><path id="b" class="d" d="M885.8,452.07c0-150.69-.01-301.38,0-452.07,38.61,0,77.23,0,115.84,0-.02,150.69,.02,301.38-.02,452.07-38.61,0-77.22,0-115.83,0Zm142.8-335.57c56.32,.02,112.64-.04,168.96,.03-15.04,8.76-28.5,20.17-39.38,33.77-27.33,34.21-40.84,78.04-42.49,121.44-.78,6.07-.69,12.25,.02,18.32,1.56,42.7,14.62,85.82,41.09,119.78,14.33,18.55,33.36,33.78,55.4,42.08-61.2,.34-122.4,.04-183.6,.15,0-111.86,0-223.71,0-335.57Z"/><path id="c" class="d" d="M146.2,148.47c11.32-.04,22.65,0,33.98-.02,.01,44.36,0,88.73,0,133.09-11.32,0-22.65,.01-33.97,0-.03-44.36,0-88.71-.01-133.07Zm122.49,26.96c-4.44,0-8.87,.09-13.28,.15-4.66,.52-9.32,1.06-13.97,1.57-9.33,2.16-19.35,4.66-26.08,12-5.24,4.93-7.53,11.95-9,18.8,11.54,.1,23.08,.09,34.62,.02,2.16-3.3,5.1-6.36,9.1-7.2,11.63-2.64,23.91-2.48,35.55,0,5.59,1.22,10.13,5.52,11.02,11.28,0,1.45,.04,2.9,.05,4.35-12.77,0-25.55,.03-38.33,0-11.41,.82-22.95,.67-34.12,3.6-2.58,.9-5.13,1.89-7.67,2.88-6.62,3.26-12.11,9.02-13.98,16.27-1.13,2.93-.62,6.14-1.5,9.12,0,.69,0,2.08,0,2.78,.82,3.33,.61,6.86,2,10.07,3.78,10.43,13.74,17.26,24.05,20.27,3.72,.81,7.48,1.45,11.23,2.15,4.35-.05,8.69,.15,13,.7,3.7-.76,7.5-.54,11.25-.77,7.26-1.24,14.65-2.59,21.27-5.98,4.23-2.16,8.61-4.05,12.6-6.65,.14,3.66,.91,7.24,2.18,10.67,12.39,0,24.78,.06,37.17-.02-2.68-4.02-5.01-8.41-5.15-13.35-.18-20.27,.05-40.55-.12-60.82-1.37-6.49-2.95-13.57-8.1-18.2-3.83-4.27-9.21-6.57-14.38-8.77-12.73-4.23-26.1-4.93-39.42-4.92Zm-5.35,59c9.52-.03,19.03-.01,28.55,0,1.16,7.88-4.29,14.73-10.3,19.07-6.47,4.79-14.52,6.7-22.35,7.8-5.94,.54-12.01-.09-17.67-1.95-4.69-1.66-9.1-5.86-8.7-11.2-.02-4.59,3.74-7.77,7.23-10.12,7.43-2.9,15.43-2.92,23.25-3.6Zm264.22-57.19c14.8-2.25,29.98-2.61,44.73,.29,11.79,2.56,23.73,7.7,31.05,17.72,2.55,3.79,4.19,8.09,5.44,12.46-11.49,.6-22.95,1.37-34.42,2.19-1.9-3.55-4.34-6.92-8.18-8.51-9.84-4.4-21.26-4.82-31.6-2.05-3.38,1.17-7.42,2.51-8.9,6.1-.6,2.04,0,4.67,2,5.76,4.06,2.78,9.1,3.12,13.78,4.15,14.37,1.52,28.78,2.61,43.09,4.61,4.71,1.26,9.45,2.79,13.5,5.6,5.12,3.3,8.5,8.84,10.14,14.62,2.14,8.88,.41,19.03-5.57,26.11-11.1,12.77-29.1,16.34-45.25,16.72-5.2,1.01-10.81,.97-16.02,.02-6.01,.08-11.98-.72-17.85-1.96-9.87-1.92-19.84-5.62-27.07-12.85-5.58-5.18-8.75-12.35-10.91-19.52,2.9-.79,5.87-1.27,8.89-1.14,8.89-.71,17.81-1.28,26.71-2.01,2.06,5.77,6.51,10.91,12.46,12.84,7.89,3.08,16.54,2.32,24.83,2.3,5.46-1.05,12.25-1.66,15.52-6.83,2.31-3.49-.67-8.15-4.34-9.16-18.78-5.82-39-3.35-57.82-8.96-8.88-2.69-17.6-9.09-19.65-18.61-1.63-8.44-.66-18.09,5.2-24.8,7.42-9.06,19.19-12.76,30.25-15.1Zm-136.16-.25c7.97-.8,15.92-1.88,23.95-1.52,15.07,.48,31.14,2.85,43.34,12.46,6.54,4.62,10.78,11.89,12.51,19.63-3.87,.76-7.85,.12-11.71,.9-3.66,.6-7.41-.07-11.05,.68-3.81,.66-7.71-.05-11.49,.77-2.8-5.28-7.76-9.17-13.57-10.56-9.4-2.56-19.52-2.32-28.78,.68-2.93,.87-4.93,3.24-6.54,5.7,.02,.86,.07,2.58,.1,3.44,1.64,1.56,3.23,3.42,5.57,3.89,7.52,2.26,15.4,3.03,23.21,3.43l.83,.49c9.95,.74,19.99,1.23,29.79,3.3,4.79,.97,9.42,2.76,13.48,5.51,1.87,1.95,3.79,3.86,5.74,5.74,5.7,8.66,6.1,20.44,1.55,29.67-3.98,8.39-12.18,13.76-20.63,16.92-13.52,4.82-28.06,5.75-42.29,5.39-3.39-1.1-7-.24-10.45-.89-9.98-1.46-20.25-3.39-28.9-8.88-2.71-1.63-5.06-3.75-7.61-5.6-1.96-2.72-4.2-5.24-5.88-8.14-2.2-3.52-3.13-7.61-4.48-11.49,4.72-1.4,9.68-.53,14.46-1.51,7.05-.2,14.08-.86,21.09-1.67,1.27,3.82,3.22,7.65,6.68,9.94,6.92,4.98,15.81,5.79,24.08,5.48,6.1,.35,12.2-.72,17.89-2.92,2.58-1.52,4.42-3.86,5.04-6.83-.54-1.4-1.02-2.83-1.74-4.14-2.76-1.98-6.04-3.12-9.33-3.84-6.93-.99-13.82-2.56-20.86-2.51-14.35-1.94-30.18-1.59-42.42-10.54-3.2-2.27-5.49-5.49-7.25-8.95-3.12-8.54-2.64-18.47,2.28-26.25,5.5-7.99,14.3-13.01,23.54-15.5,3.25-.9,6.57-1.51,9.85-2.28ZM0,178.92c11.55,.02,23.11,.01,34.67,0,.11,13.36-.21,26.73,.17,40.09,15.16-13.57,30.98-26.4,46.01-40.11,15.02,.1,30.04-.06,45.06,.08-16.04,13.5-32.35,26.68-48.41,40.15l.95,.63c4.07,4.73,7.85,9.74,12.25,14.18l.22,.87c4.32,4.43,8.24,9.24,12.09,14.08,1.46,1.53,2.93,3.08,4.17,4.81,8.09,9.1,15.77,18.55,23.73,27.76-14.44,.2-28.88,.05-43.31,.08-.85-.9-1.69-1.79-2.54-2.68-10.38-13.62-21.58-26.62-31.83-40.34-6.37,4.88-12.12,10.53-18.53,15.37-.05,9.22,0,18.44-.03,27.67-11.56-.02-23.11,0-34.67,0,.02-34.21,0-68.42,0-102.64Zm630.06,0c11.32,0,22.64,0,33.96,0,.02,34.21,.01,68.42,0,102.63-11.32,0-22.65,0-33.97,0,0-34.21,0-68.41,0-102.62Zm60.99,0c11.56,0,23.12,0,34.68,0-.01,13.24-.01,26.49,0,39.73,3.94-3.04,7.77-6.26,11.29-9.78l.9-.2c5.61-5.75,12.18-10.45,18.03-15.94,5.26-4.67,10.79-9.03,15.94-13.82,14.9,.1,29.8-.18,44.7,.15-15.91,13.55-32.17,26.69-48.25,40.04,1.7,1.73,3.47,3.42,4.94,5.37,13.21,15.29,26.09,30.87,39.4,46.07,2.94,3.78,6.18,7.3,9.33,10.91-14.69,.21-29.38,.02-44.07,.1-.31-.5-.93-1.49-1.24-1.98-11.18-13.51-21.69-27.57-32.93-41.02-6.05,5.09-11.97,10.33-18.03,15.4,0,9.2,0,18.4,0,27.6-11.56-.01-23.11-.01-34.67,0,0-34.21,0-68.42,0-102.64Zm-121.27,136.61c-.05,14.47,.09,28.95-.1,43.43-7.27-6.21-16.35-9.57-25.5-11.85-10.52-2.07-21.48-2.12-31.85,.77-12.39,3.19-23.3,11.25-30.35,21.88-12.13,19.4-11.59,46.46,2.17,64.93,3.95,3.97,7.6,8.41,12.55,11.2,5.3,3.56,11.33,5.81,17.48,7.42,19.13,4.2,40.95,.49,55.52-13.25,.07,3.78,.06,7.58,.08,11.38,11.31,0,22.63,0,33.95,0,.01-45.3,0-90.6,0-135.9-11.32-.01-22.63,0-33.95,0Zm-31.77,54.1c3.48,0,6.97,.84,10.4,1.45,2.15,.64,4.27,1.38,6.4,2.12,7.03,3.35,12.84,9.51,14.65,17.23,2.08,10.25,1.08,21.84-5.6,30.3-5.31,6.85-14.11,10.17-22.55,10.65-8.17,.52-16.84-1.54-23.08-7.05-3.64-3.61-6.27-8.12-7.92-12.95-2.11-7.71-2.54-16.19,.62-23.67,3.37-9.49,12.49-16.17,22.35-17.48,1.57-.44,3.14-.6,4.73-.6Zm216.95-25.73c-.5,0-1,.03-1.5,.08-3.62,1.3-7.55,.18-11.25,1.05-17.04,2.31-34.45,8.89-45.83,22.3-6.62,7.39-10.5,16.98-11.52,26.8,.11,5.82-.56,11.75,.82,17.48,1.52,8.26,5.84,15.74,11.1,22.17,9.41,10.42,22.77,16.75,36.4,19.48,10.26,1.97,20.92,3.22,31.3,1.72,14.46-.63,28.93-5.3,40.73-13.75,9.56-6.62,16.08-16.94,19.27-28.03,.97-6.68,2.49-13.44,1.33-20.2-1.04-11.18-6.28-21.86-14.2-29.77-1.66-1.33-3.21-2.78-4.7-4.27-11.98-8.87-26.7-13.44-41.47-14.33-3.53,.23-6.98-.74-10.48-.73Zm2.5,24.98c.71,.13,2.14,.37,2.85,.5,8.97,.41,18.07,4.1,24,10.98,7.09,8.35,8.47,20.59,4.47,30.65-3.03,8.58-10.69,14.59-19.1,17.45-6.58,2.1-13.54,1.35-20.32,1.43-4.64-.47-9.14-1.82-13.42-3.62-7.65-3.61-13.27-10.84-15.08-19.08-1.09-3.89-.69-7.95-.65-11.93,1.7-7.53,5.29-15,11.9-19.38,7.37-5.21,16.56-6.56,25.35-7Zm-464.82-19.47c5.6-1.95,11.48-3.52,17.45-3.45l.95-.57c1.91,0,3.82,.02,5.74,.03,0,10.14,0,20.28,0,30.42-4.49,0-8.98-.01-13.46-.02-4.5-.11-8.8,1.38-13.15,2.27-4.1,1.59-7.99,3.82-11.21,6.83-3.65,4.18-5.28,9.85-5.17,15.34,.06,17.06,0,34.12,.03,51.19-11.56,0-23.12,0-34.69,0-.02-34.22,0-68.43,0-102.65,11.57,.03,23.13,0,34.7,.01-.05,5.43,.04,10.86-.06,16.3,4.5-7,10.99-12.83,18.89-15.68Zm100.24-4.03c-3.85,0-7.71,0-11.55,.02-12.01,1.06-24.55,2.2-35.17,8.45-8.98,4.7-13.79,14.39-15.77,23.95,11.5,.13,23.03,.23,34.52-.05,1.81-2.18,3.74-4.3,6.12-5.88,3.98-1.4,8.09-2.25,12.25-2.9,10.37-.13,21.35-.98,31,3.58,5.11,2.41,6.83,8.53,6.53,13.77-12.16,.28-24.32-.43-36.48-.1-5.3,.95-10.68,.61-16.02,.7-5.72,.63-11.47,.96-17.1,2.27-5.11,1.03-9.82,3.27-14.38,5.73-7.18,4.92-11.46,13.65-11.05,22.33,.21,3.98-.64,8.16,1,11.95,2.4,9.27,10.17,16.29,18.75,19.95,7.45,3.2,15.66,4.25,23.7,4.53,6.06,1.17,12.14-.41,18.22-.33,11.8-1.76,23.15-6.06,33.1-12.65,.13,3.67,.98,7.27,2.2,10.73,12.4-.02,24.8,.05,37.2-.03-2.87-4.2-4.93-8.94-5.17-14.08-.3-20.66,.3-41.35-.33-62-1.36-6.95-4.25-13.85-9.97-18.33-11.21-9.06-26.26-10.41-40.08-11.57-3.85-.05-7.68-.05-11.52-.05Zm17.9,58.93c3.37,0,6.73,.04,10.1,.07-.13,1.29-.27,2.6-.4,3.9-1.06,5.85-4.54,11.14-9.47,14.45-4.91,3.88-10.96,5.73-16.83,7.6-9.11,1.37-19.08,1.97-27.38-2.75-6.72-3.16-6.79-13.86-.95-17.95,4.29-3.05,9.6-3.76,14.65-4.6,10.07-.6,20.18-.75,30.27-.72Zm219.99-56.87c11.32,0,22.64,0,33.97,0-.02,34.66,0,69.33,0,103.99-11.32,0-22.64,0-33.96,0,0-34.66,0-69.33,0-103.99Z"/></svg>