<?xml version="1.0" encoding="utf-8"?>
<!-- Generator: Adobe Illustrator 26.1.0, SVG Export Plug-In . SVG Version: 6.00 Build 0)  -->
<svg version="1.1"
	 id="svg2" xmlns:cc="http://creativecommons.org/ns#" xmlns:dc="http://purl.org/dc/elements/1.1/" xmlns:inkscape="http://www.inkscape.org/namespaces/inkscape" xmlns:rdf="http://www.w3.org/1999/02/22-rdf-syntax-ns#" xmlns:sodipodi="http://sodipodi.sourceforge.net/DTD/sodipodi-0.dtd" xmlns:svg="http://www.w3.org/2000/svg"
	 xmlns="http://www.w3.org/2000/svg" xmlns:xlink="http://www.w3.org/1999/xlink" x="0px" y="0px" viewBox="0 0 1000 190"
	 style="enable-background:new 0 0 1000 190;" xml:space="preserve">
<style type="text/css">
	.st0{fill:#9CA3AF;}
</style>
<sodipodi:namedview  bordercolor="#666666" borderopacity="1" gridtolerance="10" guidetolerance="10" id="namedview4" inkscape:current-layer="g10" inkscape:cx="522.36842" inkscape:cy="182.89474" inkscape:deskcolor="#d1d1d1" inkscape:document-rotation="0" inkscape:pagecheckerboard="0" inkscape:pageopacity="0" inkscape:pageshadow="2" inkscape:showpageshadow="2" inkscape:window-height="991" inkscape:window-maximized="1" inkscape:window-width="1920" inkscape:window-x="-9" inkscape:window-y="-9" inkscape:zoom="0.38" objecttolerance="10" pagecolor="#ffffff" showgrid="false">
	</sodipodi:namedview>
<g id="g10" transform="matrix(1.3333333,0,0,-1.3333333,0,87.093333)" inkscape:groupmode="layer" inkscape:label="ink_ext_XXXXXX">
	<g id="g12" transform="matrix(0.21825547,0,0,0.21825547,0,-77.247745)">
		<path id="path14" class="st0" d="M147.9,158c-64.2,0-83.7,26.4-83.7,93.8v180.1H0V476h64.2v101.4l56.7,15.7V476h87.5v-44.1h-87.5
			V272c0-51.6,9.4-65.5,44.7-65.5c14.5,0,30.2,2.5,42.8,5.7v-47.9C190.8,160.5,168.1,158,147.9,158"/>
		<path id="path16" class="st0" d="M448.9,307.2c-108.9,0-132.8-33.4-132.8-61.7c0-26.4,18.9-43.4,47.8-43.4c51,0,85,50.4,85,99.5
			V307.2z M452,163.1c0,22,0,44.7,3.2,62.3h-1.3c-15.1-38.4-54.8-68-106.4-68c-51.6,0-86.9,27.7-86.9,77.4
			c0,68.6,69.9,112.1,188.2,112.1v23.3c0,43.4-17,66.7-68.6,66.7c-29.6,0-67.4-9.4-94.4-25.8l-5.7,48.5
			c30.2,12.6,68,22.7,109.5,22.7c90,0,115.8-42.2,115.8-104.5V253.1c0-29.6,0.6-63,1.3-90L452,163.1"/>
		<path id="path18" class="st0" d="M730.3,439.5c-49.7,0-79.3-30.9-79.3-73c0-46.6,28.3-71.8,77.4-71.8c47.2,0,77.4,25.8,77.4,71.8
			C805.9,412.4,778.2,439.5,730.3,439.5z M761.8,159.9h-80c-24.6-12.6-40.3-33.4-40.3-57.3c0-37.1,35.3-57.3,84.4-57.3
			c64.2,0,101.4,27.1,101.4,65.5C827.3,141,805.9,159.9,761.8,159.9z M717.1,0c-80.6,0-131.6,32.1-131.6,91.9
			c0,37.1,23.9,66.7,51.6,81.2c-18.9,8.8-30.9,25.2-30.9,46c0,22,13.2,42.2,35.3,52.3c-30.8,17.6-46,49.7-46,89.4
			c0,66.1,49.7,120.9,137.3,120.9c18.3,0,32.7-1.9,49.1-5.7h106.4v-44.7h-52.9c16.4-12.6,26.4-34.6,26.4-61.1
			c0-67.4-46.6-116.5-136-116.5c-13.2,0-29,1.9-39.7,3.8c-13.8-5.7-20.1-15.7-20.1-25.8c0-17.6,15.7-24.6,53.5-24.6h57.9
			c68,0,105.8-32.7,105.8-89.4C883.3,51.6,815.3,0,717.1,0"/>
		<path id="path20" class="st0" d="M1072.8,440.1c-40.9,0-69.9-30.8-76.2-76.8h146.1C1144,409.2,1116.9,440.1,1072.8,440.1z
			 M1198.7,323H994.1c-2.5-83.7,32.1-119.6,98.8-119.6c32.1,0,66.1,7.6,91.3,19.5l5-46c-30.2-12.6-66.7-19.5-105.8-19.5
			c-96.3,0-148,50.4-148,160.5c0,93.8,51,163.7,139.8,163.7c88.1,0,125.3-59.8,125.3-131.6C1200.6,342.5,1200,333.7,1198.7,323"/>
		<path id="path22" class="st0" d="M1332.2,157.4c-23.3,0-46.6,1.9-66.1,5.7l1.9,50.4c19.5-6.3,44.7-10.7,68.6-10.7
			c41.6,0,69.9,18.9,69.9,47.8c0,69.9-145.4,27.1-145.4,137.3c0,52.9,43.4,93.8,125.3,93.8c18.9,0,40.9-2.5,59.8-6.3l-1.3-47.2
			c-19.5,6.3-42.2,10.1-63,10.1c-41.6,0-62.3-17.6-62.3-44.7c0-68.6,146.1-31.5,146.1-136.6C1465.7,200.2,1415.3,157.4,1332.2,157.4
			"/>
		<path id="path24" class="st0" d="M1599.7,156.1c-24.6,0-49.1,3.1-69.3,8.8l5,78.1c18.9-8.2,42.2-12.6,65.5-12.6
			c23.9,0,38.4,9.4,38.4,24.6c0,46-115.2,20.1-115.2,124c0,57.3,42.8,104.5,138.5,104.5c17,0,37.1-2.5,54.8-5.7l-3.2-74.9
			c-15.7,5.7-35.9,8.2-54.1,8.2c-24.6,0-35.9-9.4-35.9-23.9c0-41.6,117.1-23.9,117.1-124C1741.4,197.1,1684.7,156.1,1599.7,156.1"/>
		<path id="path26" class="st0" d="M1924,156.1c-95.1,0-143.5,52.9-143.5,153.6c0,94.4,50.4,173.1,163.7,173.1
			c21.4,0,44.1-3.8,63.6-10.1l-14.5-83.1c-15.7,6.9-32.7,10.7-49.7,10.7c-42.8,0-63-32.1-63-83.1c0-47.9,20.1-77.4,63-77.4
			c18.3,0,37.1,3.2,52.9,10.7l11.3-80.6C1984.4,161.2,1952.9,156.1,1924,156.1"/>
		<path id="path28" class="st0" d="M2248.9,163.1V362c0,25.2-6.9,40.3-29,40.3c-34,0-62.3-42.2-62.3-88.1V163.1h-95.7v459.6h95.7
			V497.4c0-18.3-1.3-44.7-5-64.2h0.6c18.3,29.6,52.3,49.7,98.8,49.7c69.9,0,92.6-45.3,92.6-99.5V163.1H2248.9"/>
		<path id="path30" class="st0" d="M2578.7,297.8c-66.7,0-84.4-15.7-84.4-39c0-16.4,12-29.6,30.8-29.6c31.5,0,53.5,29,53.5,59.8
			V297.8z M2587.6,163.1c0,15.1,0,31.5,2.5,47.2h-0.6c-15.1-32.7-52.2-54.1-95.7-54.1c-59.8,0-91.3,40.9-91.3,92.6
			c0,78.7,73.7,110.2,176.3,110.2v9.4c0,29.6-13.9,42.2-49.1,42.2c-27.7,0-66.1-8.8-95.1-20.8l-14.5,73
			c32.7,12,79.3,21.4,122.1,21.4c103.3,0,132.8-40.3,132.8-110.8v-136c0-22.7,0.6-49.7,2.5-74.3L2587.6,163.1"/>
		<path id="path32" class="st0" d="M2943.9,163.1c0,12,0.6,34,3.8,49.1l-1.3,0.6c-18.9-32.7-53.5-56.7-103.3-56.7
			c-69.9,0-93.2,45.3-93.2,99.5V476h96.3V277c0-25.2,6.9-40.3,28.9-40.3c34,0,61.7,42.2,61.7,87.5V476h96.3V163.1H2943.9"/>
		<path id="path34" class="st0" d="M3167.9,483.6l55.8,20.2V377.9l112.6,40.3v167.4l-168.4-60.4V483.6z M3269.1,343.2
			c-78.8,0-142.7,63.9-142.7,142.7c0,78.8,63.9,142.7,142.7,142.7c78.8,0,142.7-63.9,142.7-142.7
			C3411.8,407.1,3347.9,343.2,3269.1,343.2z M3269.1,653.2c-92.4,0-167.3-74.9-167.3-167.3c0-92.4,74.9-167.3,167.3-167.3
			c92.4,0,167.3,74.9,167.3,167.3C3436.3,578.3,3361.4,653.2,3269.1,653.2"/>
	</g>
</g>
</svg>
