<svg width="96" height="97" viewBox="0 0 96 97" fill="none" xmlns="http://www.w3.org/2000/svg">
<path d="M78.2681 95.0027C63.4915 99.5808 58.1262 90.8315 43.3495 82.0822C17.1384 66.5626 -5.99373 65.3975 1.3945 43.0156C6.18247 28.5109 16.9627 29.1796 38.424 25.4154C59.8853 21.6511 61.2046 14.2244 72.551 18.599C83.8973 22.9737 78.2681 33.3507 89.6144 52.4771C100.961 71.6034 93.0447 90.4246 78.2681 95.0027Z" fill="#A7F3D0"/>
<path d="M48 60.2603C63.464 60.2603 76 47.7242 76 32.2603C76 16.7963 63.464 4.26025 48 4.26025C32.536 4.26025 20 16.7963 20 32.2603C20 47.7242 32.536 60.2603 48 60.2603Z" stroke="#2F363D" stroke-width="3" stroke-linecap="round" stroke-linejoin="round"/>
<path d="M32.84 55.8203L28 92.2603L48 80.2603L68 92.2603L63.16 55.7803" stroke="#2F363D" stroke-width="3" stroke-linecap="round" stroke-linejoin="round"/>
</svg>
