<svg width="96" height="96" viewBox="0 0 96 96" fill="none" xmlns="http://www.w3.org/2000/svg">
<path d="M78.2681 94.7424C63.4915 99.3205 58.1262 90.5713 43.3495 81.822C17.1384 66.3024 -5.99373 65.1372 1.3945 42.7554C6.18247 28.2507 16.9627 28.9193 38.424 25.1551C59.8853 21.3909 61.2046 13.9642 72.551 18.3388C83.8973 22.7134 78.2681 33.0905 89.6144 52.2168C100.961 71.3432 93.0447 90.1643 78.2681 94.7424Z" fill="#A7F3D0"/>
<path d="M16 60C16 60 20 56 32 56C44 56 52 64 64 64C76 64 80 60 80 60V12C80 12 76 16 64 16C52 16 44 8 32 8C20 8 16 12 16 12V60Z" stroke="#2F363D" stroke-width="3" stroke-linecap="round" stroke-linejoin="round"/>
<path d="M16 88V60" stroke="#2F363D" stroke-width="3" stroke-linecap="round" stroke-linejoin="round"/>
</svg>
