<svg width="96" height="97" viewBox="0 0 96 97" fill="none" xmlns="http://www.w3.org/2000/svg">
<path d="M49.6172 7.71518C16.8783 1.46465 10.8359 16.4399 2.37657 31.936C-4.10528 48.8645 3.69491 59.0216 13.4726 74.1271C23.2503 89.2326 44.0142 82.982 59.7245 74.1271C75.4347 65.2722 98.6155 54.5942 95.7591 30.764C92.9027 6.93386 82.356 13.9657 49.6172 7.71518Z" fill="#A7F3D0"/>
<path d="M83.3605 18.7002C81.3174 16.6562 78.8917 15.0348 76.2219 13.9286C73.552 12.8223 70.6904 12.2529 67.8005 12.2529C64.9105 12.2529 62.0489 12.8223 59.379 13.9286C56.7092 15.0348 54.2835 16.6562 52.2405 18.7002L48.0005 22.9402L43.7605 18.7002C39.6337 14.5735 34.0366 12.2551 28.2005 12.2551C22.3643 12.2551 16.7672 14.5735 12.6405 18.7002C8.51371 22.827 6.19531 28.4241 6.19531 34.2602C6.19531 40.0964 8.51371 45.6935 12.6405 49.8202L16.8805 54.0602L48.0005 85.1802L79.1205 54.0602L83.3605 49.8202C85.4044 47.7772 87.0259 45.3515 88.1321 42.6816C89.2384 40.0118 89.8078 37.1502 89.8078 34.2602C89.8078 31.3703 89.2384 28.5086 88.1321 25.8388C87.0259 23.169 85.4044 20.7433 83.3605 18.7002V18.7002Z" stroke="#2F363D" stroke-width="3" stroke-linecap="round" stroke-linejoin="round"/>
</svg>
