<svg width="96" height="96" viewBox="0 0 96 96" fill="none" xmlns="http://www.w3.org/2000/svg">
<path d="M78.2681 94.7424C63.4915 99.3205 58.1262 90.5713 43.3495 81.822C17.1384 66.3024 -5.99373 65.1372 1.3945 42.7554C6.18247 28.2507 16.9627 28.9193 38.424 25.1551C59.8853 21.3909 61.2046 13.9642 72.551 18.3388C83.8973 22.7134 78.2681 33.0905 89.6144 52.2168C100.961 71.3432 93.0447 90.1643 78.2681 94.7424Z" fill="#A7F3D0"/>
<path d="M94.5269 73.5837L79.3072 58.3768C77.3105 56.3584 73.1568 52.1594 65.3545 52.0378C62.0988 51.9811 58.2578 52.816 53.5909 54.5507C52.4682 54.9317 49.0522 56.0909 47.689 56.0909H31.6514C30.5448 56.0909 29.5746 56.2449 28.7246 56.5124L15.9426 44.4101C12.695 41.1271 6.92143 39.8869 3.24882 43.5995C-0.423793 47.312 0.803084 53.1484 4.0507 56.4313C4.0507 56.4313 23.777 76.356 27.3052 79.9388C30.8576 83.5298 32.5736 84.462 35.6608 84.462H63.863L73.8143 94.5216C74.127 94.8377 74.536 94.9998 74.9449 94.9998C75.3539 94.9998 75.7629 94.8377 76.0756 94.5216C76.7011 93.8893 76.7011 92.8598 76.0756 92.2276L65.1941 81.2196H35.6608C33.8887 81.2196 32.9665 81.0737 29.5826 77.6448C26.0543 74.0619 6.32804 54.1373 6.32804 54.1373C4.52381 52.3134 3.01627 48.4307 5.52616 45.8935C8.03605 43.3563 11.8771 44.8802 13.7214 46.7365L25.8458 58.2227C24.2821 59.7386 23.6326 61.7732 23.6326 63.3863C23.6326 66.3207 25.7656 70.6817 31.6514 70.6817H49.2928C50.1749 70.6817 50.8966 69.9522 50.8966 69.0605C50.8966 68.1689 50.1749 67.4393 49.2928 67.4393H31.6514C26.9765 67.4393 26.8401 63.7997 26.8401 63.3863C26.8401 62.9729 26.9765 59.3333 31.6514 59.3333H47.689C49.3489 59.3333 52.1234 58.474 54.6574 57.6148C58.9875 56.0017 62.4677 55.2073 65.3063 55.2803C71.8016 55.3775 75.2096 58.8226 77.0459 60.6789L92.2656 75.8939C92.5783 76.2019 92.9873 76.3641 93.3962 76.3641C93.8132 76.3641 94.2222 76.2019 94.5349 75.8858C95.1604 75.2373 95.1523 74.2079 94.5269 73.5837Z" fill="black"/>
<path d="M45.8146 41.9055C46.1193 42.2054 47.0655 43.1214 48.4848 43.1214C49.1504 43.1214 50.1688 42.9106 51.2273 41.8811C55.5334 37.6903 67.1767 25.7582 67.2889 25.6447C70.0715 22.832 71.7394 18.7546 71.7394 14.7502C71.7394 11.8564 71.1059 7.76283 68.0908 4.71496C63.2154 -0.21351 54.2584 -0.189192 48.5169 4.4961C42.7754 -0.189192 33.8184 -0.21351 28.943 4.71496C26.5374 7.13056 25.2303 10.6972 25.2383 14.7502C25.2463 18.7303 26.9303 22.8076 29.7289 25.6366C29.8411 25.7582 41.4844 37.6984 45.8146 41.9055ZM31.2043 7.00897C33.0005 5.19322 35.5425 4.21239 38.4212 4.21239C38.6778 4.21239 38.9344 4.22049 39.1991 4.2367C42.3344 4.42314 45.3094 5.72822 47.3782 7.81957L48.5089 8.96252L49.6395 7.81957C54.0018 3.40989 61.8682 3.01269 65.8135 7.00897C68.0587 9.27055 68.5318 12.4643 68.5318 14.7502C68.5318 17.9116 67.2168 21.1297 65.0116 23.367C64.8913 23.4885 53.2801 35.3882 49.0061 39.5466C48.6612 39.879 48.4848 39.879 48.4848 39.879C48.4367 39.879 48.3164 39.8384 48.0197 39.5466C43.7457 35.3882 32.1265 23.4804 32.0062 23.3588C29.785 21.1135 28.4539 17.8954 28.4458 14.7502C28.4378 11.5565 29.4161 8.80851 31.2043 7.00897Z" fill="black"/>
</svg>
