<svg width="96" height="97" viewBox="0 0 96 97" fill="none" xmlns="http://www.w3.org/2000/svg">
<path d="M49.6172 7.71518C16.8783 1.46465 10.8359 16.4399 2.37657 31.936C-4.10528 48.8645 3.69491 59.0216 13.4726 74.1271C23.2503 89.2326 44.0142 82.982 59.7245 74.1271C75.4347 65.2722 98.6155 54.5942 95.7591 30.764C92.9027 6.93386 82.356 13.9657 49.6172 7.71518Z" fill="#FEF3C7"/>
<path d="M16 16.2603H80C84.4 16.2603 88 19.8603 88 24.2603V72.2603C88 76.6603 84.4 80.2603 80 80.2603H16C11.6 80.2603 8 76.6603 8 72.2603V24.2603C8 19.8603 11.6 16.2603 16 16.2603Z" stroke="#2F363D" stroke-width="3" stroke-linecap="round" stroke-linejoin="round"/>
<path d="M88 24.2603L48 52.2603L8 24.2603" stroke="#2F363D" stroke-width="3" stroke-linecap="round" stroke-linejoin="round"/>
</svg>
