<svg width="96" height="97" viewBox="0 0 96 97" fill="none" xmlns="http://www.w3.org/2000/svg">
<path d="M78.2681 95.0027C63.4915 99.5808 58.1262 90.8315 43.3495 82.0822C17.1384 66.5626 -5.99373 65.3975 1.3945 43.0156C6.18247 28.5109 16.9627 29.1796 38.424 25.4154C59.8853 21.6511 61.2046 14.2244 72.551 18.599C83.8973 22.9737 78.2681 33.3507 89.6144 52.4771C100.961 71.6034 93.0447 90.4246 78.2681 95.0027Z" fill="#A7F3D0"/>
<path d="M68 12.2605C69.0506 11.2099 70.2978 10.3765 71.6704 9.80798C73.0431 9.23941 74.5143 8.94678 76 8.94678C77.4857 8.94678 78.9569 9.23941 80.3296 9.80798C81.7022 10.3765 82.9494 11.2099 84 12.2605C85.0506 13.3111 85.8839 14.5583 86.4525 15.9309C87.0211 17.3036 87.3137 18.7747 87.3137 20.2605C87.3137 21.7462 87.0211 23.2174 86.4525 24.5901C85.8839 25.9627 85.0506 27.2099 84 28.2605L30 82.2605L8 88.2605L14 66.2605L68 12.2605Z" stroke="#2F363D" stroke-width="3" stroke-linecap="round" stroke-linejoin="round"/>
</svg>
