<svg width="96" height="97" viewBox="0 0 96 97" fill="none" xmlns="http://www.w3.org/2000/svg">
<path d="M49.6172 7.71518C16.8783 1.46465 10.8359 16.4399 2.37657 31.936C-4.10528 48.8645 3.69491 59.0216 13.4726 74.1271C23.2503 89.2326 44.0142 82.982 59.7245 74.1271C75.4347 65.2722 98.6155 54.5942 95.7591 30.764C92.9027 6.93386 82.356 13.9657 49.6172 7.71518Z" fill="#FEF3C7"/>
<path d="M64 16.2603H72C74.1217 16.2603 76.1566 17.1031 77.6568 18.6034C79.1571 20.1037 80 22.1385 80 24.2603V80.2602C80 82.382 79.1571 84.4168 77.6568 85.9171C76.1566 87.4174 74.1217 88.2602 72 88.2602H24C21.8783 88.2602 19.8434 87.4174 18.3431 85.9171C16.8429 84.4168 16 82.382 16 80.2602V24.2603C16 22.1385 16.8429 20.1037 18.3431 18.6034C19.8434 17.1031 21.8783 16.2603 24 16.2603H32" stroke="#2F363D" stroke-width="3" stroke-linecap="round" stroke-linejoin="round"/>
<path d="M60 8.26025H36C33.7909 8.26025 32 10.0511 32 12.2603V20.2603C32 22.4694 33.7909 24.2603 36 24.2603H60C62.2091 24.2603 64 22.4694 64 20.2603V12.2603C64 10.0511 62.2091 8.26025 60 8.26025Z" stroke="#2F363D" stroke-width="3" stroke-linecap="round" stroke-linejoin="round"/>
</svg>
