<svg width="96" height="96" viewBox="0 0 96 96" fill="none" xmlns="http://www.w3.org/2000/svg">
<path d="M78.2681 94.7424C63.4915 99.3205 58.1262 90.5713 43.3495 81.822C17.1384 66.3024 -5.99373 65.1372 1.3945 42.7554C6.18247 28.2507 16.9627 28.9193 38.424 25.1551C59.8853 21.3909 61.2046 13.9642 72.551 18.3388C83.8973 22.7134 78.2681 33.0905 89.6144 52.2168C100.961 71.3432 93.0447 90.1643 78.2681 94.7424Z" fill="#A7F3D0"/>
<path d="M91.4761 52.9805C91.3261 52.1705 90.5461 51.6305 89.7286 51.773L82.8736 53.018L76.7911 28.0205L90.2911 23.933C91.0861 23.693 91.5286 22.853 91.2886 22.0655C91.0486 21.2705 90.2086 20.8205 89.4211 21.068L75.2461 25.3655C74.1061 25.7105 73.4311 26.8955 73.7161 28.0505L73.9036 28.8155L66.2686 31.5905C62.8186 32.783 60.4336 32.7605 57.2311 32.303C55.3636 32.033 53.6836 31.568 53.6611 31.5605L53.5336 31.5305C50.9761 31.0505 47.9836 32.018 45.5686 34.0805L44.3461 35.0555L41.2336 33.188C39.4486 32.198 37.4161 31.943 35.0011 32.4155L33.3286 32.738C31.2736 33.1355 29.0386 32.993 26.6686 32.303L22.7911 31.193L23.0161 30.338C23.3236 29.1605 22.6261 27.938 21.4561 27.6005L6.41111 23.3105C5.61611 23.0855 4.78361 23.543 4.55861 24.338C4.33361 25.133 4.79111 25.9655 5.58611 26.1905L19.9261 30.2855L13.1536 56.0255L6.26861 54.773C5.45111 54.6305 4.67111 55.163 4.52111 55.9805C4.37111 56.798 4.91111 57.578 5.72861 57.728L13.2961 59.1005C13.4311 59.123 13.5661 59.138 13.6936 59.138C14.6986 59.138 15.6136 58.4555 15.8761 57.458L16.3261 55.763L20.1436 57.233C19.4161 58.478 18.6436 59.903 18.1711 60.803C16.8811 63.278 16.9261 66.5555 19.4986 68.048L19.5811 68.093C20.3836 68.498 21.3661 68.723 22.3711 68.723C22.9336 68.723 23.5036 68.648 24.0586 68.498C23.6911 70.658 24.2911 72.9155 26.2486 74.048C27.1261 74.558 28.1761 74.8205 29.2486 74.8205C29.7136 74.8205 30.1786 74.768 30.6436 74.6705C31.1386 74.5655 31.5961 74.4005 32.0311 74.1905C32.4661 75.353 33.3136 76.3505 34.4611 77.0255C35.3011 77.573 36.2086 77.8505 37.1236 77.8505C37.7986 77.8505 38.4886 77.7005 39.1486 77.393C39.1636 77.3855 39.1786 77.378 39.1936 77.3705C39.3736 78.923 40.1011 80.138 41.2411 80.798C42.0286 81.2555 42.9511 81.5255 43.8961 81.5255C45.5086 81.5255 47.2111 80.7455 48.5236 78.773L50.7736 75.023L50.7886 75.0005C50.8336 74.918 50.8636 74.828 50.9086 74.7455C50.9386 74.7605 50.9611 74.783 50.9911 74.8055C52.8136 75.8555 54.2686 76.2455 55.4236 76.2455C57.3286 76.2455 58.4161 75.1955 58.9861 74.3405L59.0461 74.2505C59.6461 73.2155 59.9011 72.143 59.8411 71.1455C61.3336 71.0555 62.7361 70.3955 63.5461 69.0005C64.1686 67.928 64.3411 66.593 64.0561 65.2955C64.2361 65.288 64.4086 65.2805 64.5886 65.258C66.1036 65.033 67.3336 64.2305 68.0461 63.0005C68.5261 62.1755 68.7211 61.238 68.6911 60.3005C69.4261 60.5405 70.2436 60.683 71.0761 60.683C72.8536 60.683 74.6461 60.0605 75.5461 58.493C76.4761 56.8805 76.3711 54.8555 75.4711 53.243L79.5361 52.0205L80.1136 54.413C80.3611 55.433 81.2761 56.1305 82.2961 56.1305C82.4311 56.1305 82.5661 56.1155 82.7011 56.093L90.2536 54.7205C91.0786 54.578 91.6261 53.798 91.4761 52.9805ZM20.9611 65.4305C19.9336 64.793 20.4361 62.948 20.8261 62.1905C21.5536 60.788 22.9786 58.2305 23.7436 57.083C24.9736 55.238 26.6086 55.8605 27.0736 56.093C27.7711 56.438 28.3036 58.5305 27.9061 59.333C27.0511 61.0355 25.7686 63.6155 24.4411 64.943C23.4286 65.948 21.8161 65.8355 20.9611 65.4305ZM30.0061 71.738C29.2036 71.9105 28.3561 71.8055 27.7486 71.453C27.1786 71.123 27.0136 70.448 26.9686 69.9455C26.9086 69.143 27.1261 68.228 27.5311 67.523L32.0461 60.0005C32.5186 59.1905 33.5836 58.703 34.6111 58.703C35.1061 58.703 35.5861 58.8155 35.9911 59.048C36.5611 59.378 36.7261 60.053 36.7711 60.5555C36.8311 61.358 36.6211 62.2655 36.2011 62.993L31.7386 70.613C31.4236 71.1605 30.7936 71.5655 30.0061 71.738ZM36.0811 74.5055L35.9986 74.453C35.3911 74.1005 34.9636 73.5905 34.7911 73.013C34.6261 72.443 34.7161 71.8355 35.0611 71.228L38.0311 65.843C38.4586 65.1005 39.4636 64.6655 40.4686 64.6655C41.0086 64.6655 41.5486 64.7855 41.9986 65.048C43.0411 65.648 42.9661 67.658 42.2086 68.9855L40.0036 72.6605C39.2311 73.8155 37.7011 75.5855 36.0811 74.5055ZM48.2086 73.493L46.0036 77.168C44.7436 79.0655 43.3111 78.5255 42.7486 78.203C42.0436 77.798 41.9386 76.058 42.5311 75.023L44.7961 71.2505C45.0361 70.8305 45.6211 70.4405 46.2886 70.2455C46.5886 70.1555 46.8886 70.118 47.1586 70.118C47.4886 70.118 47.7811 70.178 47.9911 70.3055C48.7036 70.703 48.8086 72.428 48.2086 73.493ZM72.9211 50.8805L66.7261 47.438C65.9986 47.033 65.0911 47.2955 64.6861 48.023C64.2811 48.7505 64.5436 49.658 65.2711 50.063L71.9986 53.798C73.0786 54.4205 73.5361 55.973 72.9511 57.0005C72.4711 57.8405 70.2886 57.9455 69.0136 57.2105L56.2636 49.7105C56.2261 49.688 56.1886 49.673 56.1436 49.658C56.0911 49.6355 56.0461 49.6055 55.9936 49.5905C55.9486 49.5755 55.9111 49.568 55.8661 49.5605C55.8136 49.5455 55.7611 49.5305 55.7086 49.523C55.6636 49.5155 55.6186 49.5155 55.5736 49.5155C55.5211 49.5155 55.4686 49.508 55.4161 49.508C55.3711 49.508 55.3261 49.523 55.2811 49.5305C55.2361 49.538 55.1836 49.5455 55.1386 49.553C55.0936 49.568 55.0411 49.583 54.9961 49.598C54.9511 49.613 54.9061 49.628 54.8686 49.643C54.8236 49.6655 54.7786 49.6955 54.7261 49.7255C54.6886 49.748 54.6511 49.763 54.6136 49.793C54.5686 49.823 54.5311 49.868 54.4861 49.9055C54.4561 49.9355 54.4186 49.958 54.3886 49.9955C54.3511 50.033 54.3211 50.078 54.2911 50.123C54.2686 50.1605 54.2386 50.1905 54.2161 50.228C54.2161 50.2355 54.2086 50.2355 54.2086 50.243C54.2086 50.2505 54.2011 50.2505 54.2011 50.258C54.1786 50.2955 54.1636 50.3405 54.1486 50.378C54.1261 50.423 54.1036 50.468 54.0811 50.5205C54.0661 50.5655 54.0586 50.618 54.0436 50.663C54.0286 50.708 54.0136 50.7605 54.0061 50.8055C53.9986 50.8505 53.9986 50.903 53.9986 50.948C53.9986 50.993 53.9911 51.0455 53.9911 51.0905C53.9911 51.1355 54.0061 51.188 54.0136 51.233C54.0211 51.278 54.0211 51.3305 54.0361 51.3755C54.0511 51.4205 54.0661 51.4655 54.0811 51.5105C54.0961 51.5555 54.1111 51.6005 54.1336 51.6455C54.1561 51.6905 54.1786 51.728 54.2011 51.7655C54.2236 51.8105 54.2461 51.8555 54.2761 51.893C54.3061 51.9305 54.3436 51.968 54.3736 52.0055C54.4036 52.043 54.4336 52.0805 54.4711 52.1105C54.5086 52.148 54.5536 52.1705 54.5911 52.2005C54.6286 52.2305 54.6586 52.2605 54.6961 52.283L64.4986 58.298C65.5786 58.9205 66.0361 60.473 65.4511 61.5005C65.1361 62.0405 64.5736 62.228 64.1536 62.288C63.5086 62.3855 62.7661 62.2355 62.1961 61.9055L51.7636 55.703C51.7186 55.673 51.6661 55.658 51.6211 55.6355C51.5836 55.6205 51.5386 55.598 51.5011 55.583C51.4486 55.568 51.3961 55.553 51.3436 55.5455C51.2986 55.538 51.2536 55.523 51.2161 55.5155C51.1636 55.508 51.1111 55.508 51.0586 55.508C51.0136 55.508 50.9686 55.5005 50.9236 55.5005C50.8711 55.5005 50.8186 55.5155 50.7661 55.523C50.7286 55.5305 50.6836 55.5305 50.6461 55.5455C50.5861 55.5605 50.5336 55.583 50.4811 55.6055C50.4436 55.6205 50.4061 55.628 50.3761 55.643C50.3161 55.6655 50.2636 55.703 50.2111 55.733C50.1811 55.748 50.1511 55.763 50.1211 55.7855C50.0686 55.823 50.0236 55.868 49.9786 55.913C49.9561 55.9355 49.9261 55.958 49.9036 55.9805C49.8586 56.0255 49.8286 56.078 49.7911 56.1305C49.7686 56.1605 49.7461 56.183 49.7236 56.213C49.7236 56.213 49.7236 56.2205 49.7161 56.2205C49.7161 56.228 49.7086 56.228 49.7086 56.2355C49.6786 56.2805 49.6636 56.333 49.6411 56.378C49.6261 56.4155 49.6036 56.453 49.5886 56.498C49.5736 56.5505 49.5586 56.603 49.5511 56.648C49.5436 56.693 49.5286 56.738 49.5211 56.783C49.5136 56.8355 49.5136 56.8805 49.5136 56.933C49.5136 56.978 49.5061 57.0305 49.5061 57.0755C49.5061 57.1205 49.5211 57.173 49.5286 57.218C49.5361 57.263 49.5361 57.3155 49.5511 57.3605C49.5661 57.4055 49.5811 57.4505 49.5961 57.4955C49.6111 57.5405 49.6261 57.5855 49.6411 57.6305C49.6636 57.6755 49.6936 57.7205 49.7161 57.7655C49.7386 57.803 49.7611 57.848 49.7836 57.8855C49.8136 57.9305 49.8586 57.968 49.8961 58.013C49.9261 58.043 49.9486 58.0805 49.9786 58.103C50.0236 58.1405 50.0761 58.178 50.1211 58.2155C50.1511 58.238 50.1811 58.2605 50.2111 58.283L50.2261 58.2905L50.2486 58.298L59.9986 64.298C60.5086 64.5905 60.9061 65.1305 61.0936 65.7755C61.2736 66.398 61.2211 67.028 60.9511 67.5005C60.4261 68.408 58.8436 68.333 57.7561 67.703L48.7636 62.4605C48.0436 62.0405 47.1286 62.288 46.7086 63.0005C46.2886 63.713 46.5361 64.6355 47.2486 65.0555L56.2486 70.298C56.6086 70.5005 56.7961 70.7855 56.8411 71.183C56.9011 71.633 56.7661 72.1805 56.4736 72.7055C55.8736 73.5455 54.5311 73.3805 52.4986 72.203C52.2136 72.038 51.8911 71.978 51.5836 72.0155C51.5911 71.753 51.5911 71.483 51.5611 71.2205C51.3961 69.6305 50.6611 68.378 49.4986 67.703C48.4711 67.1105 47.1286 66.968 45.7711 67.283C45.8986 65.3555 45.2386 63.458 43.4986 62.453C42.3511 61.793 41.0161 61.568 39.7336 61.718C40.0036 59.648 39.3736 57.533 37.4986 56.453C35.4286 55.2605 32.6836 55.5605 30.8386 56.948C30.4861 55.4405 29.6611 54.0305 28.4161 53.408C26.4436 52.4255 23.7511 52.5005 21.8236 54.6755L17.0836 52.8455L22.0186 34.103L25.8286 35.1905C28.6486 36.008 31.3636 36.173 33.8836 35.6855L35.5561 35.363C37.2736 35.033 38.6086 35.1755 39.7186 35.7905L41.8336 37.058C38.9911 39.158 36.6736 39.848 34.9786 40.358C33.0661 40.928 31.0936 41.5205 30.7561 44.0555C30.4861 46.103 31.8211 48.8855 34.2436 49.7705C35.0461 50.063 35.8411 50.213 36.6586 50.213C38.3686 50.213 40.1461 49.5605 42.1561 48.2255L45.7786 45.9905L47.3461 46.8605L47.4736 46.9205C49.8811 47.978 53.4961 48.4355 56.1661 47.0855C56.5636 46.883 57.2536 46.4255 57.8086 46.0355L60.7186 47.783C61.4311 48.2105 62.3461 47.978 62.7736 47.2655C63.2011 46.553 62.9686 45.6305 62.2561 45.2105L57.6586 42.4505L56.8561 43.028C56.1061 43.568 55.1086 44.2505 54.8086 44.408C53.1211 45.263 50.4961 44.9555 48.7336 44.198L45.6961 42.503L40.5361 45.6905C38.3311 47.1455 36.8086 47.513 35.2636 46.9505C34.2436 46.5755 33.6211 45.173 33.7186 44.4455C33.7861 43.9505 33.8011 43.8305 35.8261 43.223C37.6261 42.683 40.3486 41.873 43.6636 39.4205L47.4511 36.3905C48.8011 35.2355 50.9386 34.1255 52.8961 34.463C53.2636 34.5605 54.9136 34.9955 56.7736 35.2655C60.3511 35.7755 63.2086 35.8055 67.2361 34.4105L74.5786 31.7405L78.8011 49.1105L72.9211 50.8805Z" fill="black"/>
</svg>
