<svg width="96" height="97" viewBox="0 0 96 97" fill="none" xmlns="http://www.w3.org/2000/svg">
<path d="M78.2681 95.0027C63.4915 99.5808 58.1262 90.8315 43.3495 82.0822C17.1384 66.5626 -5.99373 65.3975 1.3945 43.0156C6.18247 28.5109 16.9627 29.1796 38.424 25.4154C59.8853 21.6511 61.2046 14.2244 72.551 18.599C83.8973 22.9737 78.2681 33.3507 89.6144 52.4771C100.961 71.6034 93.0447 90.4246 78.2681 95.0027Z" fill="#A7F3D0"/>
<path d="M48 88.2603C70.0914 88.2603 88 70.3516 88 48.2603C88 26.1689 70.0914 8.26025 48 8.26025C25.9086 8.26025 8 26.1689 8 48.2603C8 70.3516 25.9086 88.2603 48 88.2603Z" stroke="#2F363D" stroke-width="3" stroke-linecap="round" stroke-linejoin="round"/>
<path d="M32 56.2603C32 56.2603 38 64.2603 48 64.2603C58 64.2603 64 56.2603 64 56.2603" stroke="#2F363D" stroke-width="3" stroke-linecap="round" stroke-linejoin="round"/>
<path d="M36 36.2603H36.04" stroke="#2F363D" stroke-width="5" stroke-linecap="round" stroke-linejoin="round"/>
<path d="M60 36.2603H60.04" stroke="#2F363D" stroke-width="5" stroke-linecap="round" stroke-linejoin="round"/>
</svg>
