<svg width="610" height="690" viewBox="0 0 61 69" fill="none" xmlns="http://www.w3.org/2000/svg">
<path d="M1 1.99979C23 0.499583 33 14 28 19.9998C29.1606 24.7646 28.2093 27.7496 28.5 28.5C31.6245 34.3781 39.0314 41.1687 29.5 41.5C31.5 44 30.5 45.4998 29.5 46.5C31 48.5002 30.5 50 28.5 51C28.5 57.5 25 59.9118 19 58.5C13 57.0882 15.5 64 15 67C14.5 70 1.5 64.5 1.5 64.5M40.5 38.5L56.5 26.5M43.5 46.9998H59.5M40.5 55L56.5 67" stroke="black" stroke-width="2" stroke-linecap="round" stroke-linejoin="round"/>
</svg>
