<svg width="540" height="739" viewBox="0 0 540 739" fill="none" xmlns="http://www.w3.org/2000/svg">
<g clip-path="url(#clip0_5184_22039)">
<path d="M520.788 160H18.916C8.488 160 0 151.488 0 141.068V18.904C0 8.48 8.488 0 18.916 0H520.788C531.212 0 540 8.48 540 18.904V141.068C540 151.488 531.212 160 520.788 160Z" fill="#A6A6A6"/>
<path d="M536.568 142.512C536.568 150.976 529.712 157.832 521.232 157.832H19.356C10.88 157.832 4 150.976 4 142.512V20.34C4 11.88 10.88 5 19.356 5H521.228C529.712 5 536.564 11.88 536.564 20.34L536.568 142.512Z" fill="black"/>
<path d="M130.189 79.1894C130.232 75.8507 131.119 72.5772 132.767 69.6734C134.415 66.7696 136.771 64.3298 139.615 62.5811C137.809 60.0005 135.425 57.8767 132.653 56.3785C129.882 54.8803 126.8 54.0489 123.651 53.9504C116.934 53.2454 110.422 57.9697 106.999 57.9697C103.51 57.9697 98.2402 54.0204 92.5652 54.1372C88.8946 54.2557 85.3172 55.3232 82.1817 57.2354C79.0461 59.1476 76.4594 61.8395 74.6736 65.0486C66.9376 78.4423 72.7079 98.1265 80.1184 108.953C83.826 114.254 88.1591 120.176 93.8289 119.966C99.3771 119.736 101.449 116.428 108.146 116.428C114.782 116.428 116.726 119.966 122.51 119.833C128.464 119.736 132.215 114.508 135.793 109.156C138.456 105.379 140.506 101.204 141.866 96.786C138.407 95.3231 135.456 92.8744 133.379 89.7452C131.303 86.616 130.193 82.9448 130.189 79.1894Z" fill="white"/>
<path d="M119.263 46.8302C122.509 42.9334 124.108 37.9246 123.721 32.8677C118.761 33.3886 114.18 35.7588 110.89 39.5061C109.282 41.3368 108.05 43.4666 107.265 45.7736C106.48 48.0807 106.157 50.5199 106.316 52.9517C108.796 52.9772 111.25 52.4396 113.493 51.3792C115.736 50.3189 117.708 48.7635 119.263 46.8302Z" fill="white"/>
<path d="M200.323 106.545H181.389L176.842 119.971H168.823L186.756 70.299H195.088L213.022 119.971H204.866L200.323 106.545ZM183.35 100.35H198.358L190.96 78.5608H190.753L183.35 100.35Z" fill="white"/>
<path d="M251.753 101.866C251.753 113.119 245.729 120.35 236.639 120.35C234.337 120.47 232.047 119.94 230.031 118.819C228.016 117.699 226.357 116.033 225.245 114.014H225.073V131.951H217.639V83.7562H224.835V89.7796H224.971C226.135 87.7697 227.822 86.113 229.853 84.9856C231.883 83.8582 234.181 83.3024 236.503 83.3772C245.694 83.3773 251.753 90.6429 251.753 101.866ZM244.112 101.866C244.112 94.5336 240.323 89.7132 234.542 89.7132C228.862 89.7132 225.042 94.6351 225.042 101.866C225.042 109.162 228.862 114.049 234.542 114.049C240.323 114.049 244.112 109.264 244.112 101.866Z" fill="white"/>
<path d="M291.612 101.866C291.612 113.119 285.588 120.35 276.499 120.35C274.196 120.47 271.906 119.94 269.891 118.819C267.876 117.699 266.217 116.033 265.104 114.014H264.932V131.951H257.498V83.7562H264.694V89.7796H264.83C265.994 87.7697 267.681 86.113 269.712 84.9856C271.742 83.8582 274.04 83.3024 276.362 83.3773C285.553 83.3773 291.612 90.6429 291.612 101.866ZM283.971 101.866C283.971 94.5336 280.182 89.7132 274.401 89.7132C268.721 89.7132 264.901 94.6351 264.901 101.866C264.901 109.162 268.721 114.049 274.401 114.049C280.182 114.049 283.971 109.264 283.971 101.866Z" fill="white"/>
<path d="M317.956 106.131C318.506 111.057 323.292 114.291 329.831 114.291C336.096 114.291 340.604 111.057 340.604 106.615C340.604 102.76 337.885 100.451 331.448 98.8693L325.01 97.3185C315.889 95.1154 311.655 90.8497 311.655 83.9278C311.655 75.3575 319.124 69.4708 329.729 69.4708C340.225 69.4708 347.421 75.3575 347.663 83.9278H340.159C339.71 78.9708 335.612 75.9786 329.624 75.9786C323.635 75.9786 319.538 79.006 319.538 83.4122C319.538 86.924 322.155 88.9904 328.557 90.5722L334.03 91.916C344.221 94.3262 348.456 98.42 348.456 105.686C348.456 114.978 341.053 120.799 329.28 120.799C318.264 120.799 310.827 115.115 310.346 106.131L317.956 106.131Z" fill="white"/>
<path d="M364.499 75.1858V83.7562H371.385V89.6429H364.499V109.608C364.499 112.709 365.877 114.155 368.905 114.155C369.722 114.14 370.539 114.083 371.35 113.983V119.834C369.989 120.088 368.606 120.204 367.221 120.178C359.889 120.178 357.03 117.424 357.03 110.401V89.6429H351.764V83.7562H357.03V75.1858H364.499Z" fill="white"/>
<path d="M375.374 101.866C375.374 90.471 382.085 83.3109 392.55 83.3109C403.05 83.3109 409.729 90.4709 409.729 101.866C409.729 113.291 403.085 120.42 392.55 120.42C382.018 120.42 375.374 113.291 375.374 101.866ZM402.155 101.866C402.155 94.0492 398.573 89.4359 392.55 89.4359C386.526 89.4359 382.948 94.0843 382.948 101.866C382.948 109.713 386.526 114.291 392.55 114.291C398.573 114.291 402.155 109.713 402.155 101.866Z" fill="white"/>
<path d="M415.858 83.7562H422.948V89.9202H423.12C423.599 87.995 424.727 86.2937 426.314 85.1021C427.9 83.9106 429.848 83.3015 431.831 83.3772C432.687 83.3742 433.542 83.4672 434.378 83.6546V90.6077C433.296 90.2772 432.168 90.1255 431.038 90.1585C429.958 90.1147 428.881 90.3051 427.882 90.7166C426.882 91.1282 425.984 91.7511 425.248 92.5427C424.512 93.3342 423.956 94.2757 423.618 95.3023C423.281 96.329 423.169 97.4166 423.292 98.4905V119.971H415.858L415.858 83.7562Z" fill="white"/>
<path d="M468.651 109.334C467.651 115.908 461.249 120.42 453.057 120.42C442.522 120.42 435.983 113.362 435.983 102.037C435.983 90.678 442.557 83.3108 452.745 83.3108C462.764 83.3108 469.065 90.1936 469.065 101.174V103.721H443.487V104.17C443.369 105.503 443.536 106.846 443.976 108.109C444.417 109.372 445.122 110.528 446.043 111.498C446.964 112.468 448.082 113.231 449.321 113.736C450.56 114.241 451.892 114.477 453.229 114.428C454.986 114.593 456.749 114.186 458.255 113.268C459.762 112.35 460.933 110.971 461.592 109.334L468.651 109.334ZM443.522 98.5257H461.627C461.694 97.3273 461.512 96.128 461.094 95.0032C460.675 93.8784 460.028 92.8522 459.194 91.9892C458.36 91.1261 457.357 90.4448 456.247 89.9879C455.137 89.531 453.945 89.3085 452.745 89.3343C451.534 89.3271 450.334 89.5596 449.214 90.0186C448.094 90.4776 447.076 91.1538 446.218 92.0084C445.361 92.8629 444.681 93.8788 444.218 94.9974C443.755 96.116 443.519 97.3151 443.522 98.5257Z" fill="white"/>
<path d="M188.684 56.7776H173.797V32.9106H177.504V53.3694H188.684V56.7776Z" fill="white"/>
<path d="M192.43 51.6839C192.43 48.4417 194.844 46.5726 199.129 46.307L204.008 46.0257V44.471C204.008 42.5687 202.751 41.4945 200.321 41.4945C198.337 41.4945 196.962 42.223 196.567 43.4964H193.126C193.489 40.4027 196.399 38.4183 200.485 38.4183C205.001 38.4183 207.547 40.6663 207.547 44.471V56.7777H204.126V54.2464H203.844C203.273 55.1544 202.472 55.8946 201.521 56.3914C200.571 56.8883 199.506 57.124 198.434 57.0744C197.678 57.1531 196.914 57.0724 196.191 56.8376C195.468 56.6028 194.802 56.2191 194.236 55.7113C193.671 55.2034 193.218 54.5826 192.907 53.8889C192.595 53.1953 192.433 52.4441 192.43 51.6839ZM204.008 50.1448V48.639L199.61 48.9202C197.129 49.0862 196.004 49.93 196.004 51.5179C196.004 53.139 197.411 54.0823 199.344 54.0823C199.911 54.1397 200.483 54.0825 201.027 53.9142C201.571 53.7458 202.076 53.4697 202.511 53.1024C202.946 52.735 203.303 52.2838 203.56 51.7758C203.817 51.2677 203.97 50.713 204.008 50.1448Z" fill="white"/>
<path d="M212.219 47.764C212.219 42.0726 215.145 38.4671 219.696 38.4671C220.822 38.4153 221.939 38.6849 222.917 39.2445C223.895 39.804 224.694 40.6305 225.219 41.6271H225.485V31.7346H229.04V56.7776H225.633V53.9319H225.352C224.786 54.9219 223.959 55.738 222.962 56.2919C221.965 56.8458 220.836 57.1165 219.696 57.0744C215.114 57.0746 212.219 53.4691 212.219 47.764ZM215.891 47.764C215.891 51.5843 217.692 53.8832 220.704 53.8832C223.7 53.8832 225.551 51.5512 225.551 47.7796C225.551 44.0257 223.68 41.6605 220.704 41.6605C217.711 41.6605 215.891 43.9749 215.891 47.764Z" fill="white"/>
<path d="M250.102 51.9144C249.619 53.5605 248.573 54.9845 247.146 55.9371C245.719 56.8897 244.003 57.3103 242.297 57.1253C241.111 57.1566 239.931 56.9293 238.841 56.4592C237.751 55.9891 236.777 55.2874 235.985 54.4029C235.194 53.5183 234.604 52.4721 234.257 51.3368C233.91 50.2015 233.815 49.0043 233.977 47.8284C233.819 46.6489 233.916 45.4491 234.262 44.3105C234.608 43.1718 235.195 42.1207 235.982 41.2284C236.77 40.3361 237.74 39.6235 238.827 39.1386C239.913 38.6538 241.092 38.4081 242.282 38.4183C247.293 38.4183 250.317 41.8423 250.317 47.4983V48.7386H237.598V48.9378C237.543 49.5988 237.626 50.2641 237.842 50.8911C238.059 51.5181 238.404 52.093 238.855 52.5788C239.307 53.0646 239.855 53.4507 240.465 53.7123C241.074 53.9739 241.732 54.1052 242.395 54.0978C243.245 54.1999 244.107 54.0468 244.87 53.658C245.633 53.2692 246.263 52.6622 246.68 51.9142L250.102 51.9144ZM237.598 46.1097H246.696C246.741 45.5052 246.658 44.898 246.455 44.3271C246.251 43.7562 245.93 43.2343 245.512 42.7949C245.095 42.3555 244.59 42.0082 244.03 41.7755C243.47 41.5428 242.868 41.4298 242.262 41.4437C241.647 41.436 241.037 41.5514 240.468 41.7832C239.898 42.0149 239.381 42.3584 238.946 42.7932C238.512 43.2281 238.168 43.7456 237.937 44.3151C237.705 44.8847 237.59 45.4949 237.598 46.1097Z" fill="white"/>
<path d="M255.09 38.7659H258.512V41.6272H258.778C259.228 40.5996 259.988 39.7381 260.952 39.1628C261.915 38.5876 263.034 38.3273 264.153 38.4182C265.029 38.3524 265.909 38.4845 266.728 38.8049C267.546 39.1253 268.282 39.6257 268.88 40.2691C269.479 40.9124 269.925 41.6823 270.186 42.5216C270.447 43.3608 270.516 44.248 270.387 45.1174V56.7774H266.832V46.0101C266.832 43.1156 265.575 41.6761 262.946 41.6761C262.351 41.6484 261.757 41.7496 261.204 41.973C260.652 42.1963 260.155 42.5364 259.746 42.9699C259.338 43.4035 259.028 43.9202 258.838 44.4847C258.648 45.0492 258.582 45.6482 258.645 46.2405V56.7776H255.09L255.09 38.7659Z" fill="white"/>
<path d="M285.192 33.4398C285.165 32.9794 285.276 32.5213 285.512 32.125C285.748 31.7287 286.097 31.4123 286.515 31.2169C286.933 31.0215 287.4 30.956 287.855 31.029C288.31 31.102 288.733 31.31 289.069 31.6261C289.405 31.9423 289.638 32.352 289.739 32.8021C289.839 33.2523 289.802 33.7222 289.632 34.151C289.462 34.5798 289.167 34.9477 288.786 35.2071C288.404 35.4665 287.954 35.6054 287.493 35.6058C287.198 35.6208 286.903 35.5761 286.626 35.4743C286.349 35.3724 286.095 35.2157 285.881 35.0133C285.666 34.811 285.494 34.5673 285.375 34.2969C285.257 34.0265 285.195 33.7349 285.192 33.4398ZM285.723 38.7659H289.262V56.7776H285.723V38.7659Z" fill="white"/>
<path d="M294.999 38.7659H298.42V41.6604H298.686C299.114 40.6955 299.813 39.8755 300.699 39.3C301.584 38.7245 302.617 38.4182 303.672 38.4182C304.728 38.4182 305.761 38.7245 306.646 39.3C307.531 39.8755 308.23 40.6955 308.659 41.6604H308.94C309.443 40.6493 310.227 39.8052 311.199 39.2299C312.171 38.6546 313.288 38.3728 314.417 38.4182C315.206 38.3536 316 38.4649 316.741 38.7442C317.482 39.0234 318.152 39.4637 318.702 40.0331C319.253 40.6026 319.67 41.2871 319.924 42.0373C320.178 42.7875 320.262 43.5847 320.17 44.3714V56.7776H316.616V45.2992C316.616 42.8675 315.456 41.6761 313.124 41.6761C312.621 41.6546 312.12 41.7371 311.651 41.9186C311.182 42.1002 310.756 42.3767 310.399 42.7309C310.042 43.0851 309.762 43.5093 309.577 43.9768C309.392 44.4443 309.305 44.9451 309.323 45.4476V56.7777H305.831V44.9515C305.853 44.4983 305.777 44.0456 305.608 43.6247C305.438 43.2038 305.18 42.8246 304.85 42.5133C304.52 42.2019 304.126 41.9659 303.696 41.8213C303.266 41.6768 302.809 41.6273 302.358 41.6761C301.837 41.6846 301.323 41.7983 300.847 42.0103C300.37 42.2222 299.942 42.5281 299.587 42.9096C299.231 43.2911 298.957 43.7403 298.779 44.2305C298.602 44.7206 298.525 45.2415 298.554 45.762V56.7776H294.999L294.999 38.7659Z" fill="white"/>
</g>
<rect y="199" width="540" height="540" rx="39" fill="white"/>
<path d="M39 238H137V336H39V238ZM179 238H193V252H207V266H221V238H235V252H263V280H277V238H347V252H361V238H375V252H389V266H375V280H389V378H361V392H389V434H403V420H417V434H431V462H445V448H459V434H445V420H431V378H403V350H473V378H487V364H501V378H487V392H473V406H501V434H487V448H473V462H445V476H473V490H487V462H501V490H487V532H501V546H487V560H501V602H487V630H501V658H487V644H473V630H459V658H473V686H487V700H473V686H431V700H417V686H403V700H347V686H319V700H277V686H263V672H277V686H305V658H319V644H333V630H319V602H305V616H291V588H277V630H263V616H249V630H235V644H193V658H179V672H151V616H165V602H151V574H165V546H179V532H123V546H151V560H123V574H137V588H109V560H95V574H67V560H95V546H109V532H81V546H67V504H53V518H39V504H53V490H39V476H53V462H39V392H53V406H67V434H53V448H67V462H81V476H95V462H109V434H151V420H109V406H95V420H81V406H95V392H67V378H109V364H67V350H137V364H123V378H137V392H123V406H151V420H179V434H193V392H165V378H193V364H179V350H193V336H179V322H165V350H151V266H165V294H179V322H193V336H207V308H221V294H193V280H179V266H193V252H179V238ZM403 238H501V336H403V238ZM123 252H53V322H123V252ZM319 252H291V266H319V252ZM375 252H361V266H375V252ZM487 252H417V322H487V252ZM207 266H193V280H207V266ZM249 266H235V280H249V266ZM361 266H333V280H361V266ZM67 266H109V308H67V266ZM431 266H473V308H431V266ZM235 280H221V294H235V280ZM305 280H277V294H305V280ZM249 294H235V308H249V294ZM277 294H263V308H277V294ZM333 294H305V308H277V336H263V350H305V364H333V378H347V350H333V336H319V308H333V294ZM375 294H361V308H375V294ZM361 308H347V322H361V308ZM235 322H221V350H235V322ZM263 322H249V336H263V322ZM347 322H333V336H347V322ZM375 322H361V336H375V322ZM291 322H305V336H291V322ZM221 350H193V364H221V350ZM39 350H53V364H39V350ZM263 364H221V406H207V448H221V434H235V420H249V406H235V392H249V378H263V364ZM291 364H277V378H263V420H291V406H305V392H291V364ZM445 364H431V378H445V364ZM123 378H109V392H123V378ZM207 378H193V392H207V378ZM319 378H305V392H319V378ZM459 378H445V392H459V378ZM333 392H319V406H305V420H291V448H277V462H291V476H305V434H319V420H333V392ZM375 406H347V420H375V406ZM473 406H459V434H473V406ZM165 434H151V448H165V434ZM277 434H235V448H249V490H263V448H277V434ZM333 434H319V448H333V434ZM375 434H347V462H361V476H375V490H403V476H389V462H375V434ZM81 434H95V448H81V434ZM151 448H123V462H137V476H207V448H193V462H179V448H165V462H151V448ZM235 448H221V462H235V448ZM123 462H109V476H123V462ZM347 462H319V476H347V462ZM417 462H403V476H417V462ZM67 476H53V490H67V476ZM109 476H95V490H81V504H95V518H109V532H123V518H151V490H137V504H109V476ZM137 476H123V490H137V476ZM445 476H431V490H445V476ZM207 490H179V504H193V518H207V490ZM249 490H221V504H235V518H207V532H193V560H207V546H221V532H249V490ZM333 490H291V504H333V490ZM375 490H361V532H347V574H361V588H375V574H389V560H375V532H389V518H375V490ZM459 490H445V504H459V490ZM277 504H263V518H277V504ZM193 518H179V532H193V518ZM305 518H277V532H263V546H277V560H263V588H277V574H291V560H305V574H291V588H319V602H333V588H347V574H333V560H319V546H333V532H305V546H291V532H305V518ZM431 518H403V532H417V546H403V532H389V560H403V574H417V560H431V574H445V616H459V588H473V602H487V560H473V574H459V560H445V546H487V532H473V518H459V532H431V518ZM39 532H53V588H39V532ZM123 546H109V560H123V546ZM249 546H221V560H207V574H179V588H165V602H193V588H207V602H193V616H207V630H221V616H249V602H263V588H221V574H249V546ZM361 588H347V602H333V616H361V588ZM431 588H389V630H431V588ZM39 602H137V700H39V602ZM403 602H417V616H403V602ZM123 616H53V686H123V616ZM179 616H165V644H179V616ZM375 630H347V644H333V658H361V672H347V686H403V672H375V630ZM67 630H109V672H67V630ZM291 630H305V644H291V630ZM431 644H403V658H431V644ZM249 644H277V658H249V644ZM333 658H319V672H333V658ZM445 658H431V672H445V658ZM207 658H221V686H235V672H249V700H207V686H193V700H151V686H193V672H207V658ZM431 672H417V686H431V672Z" fill="black"/>
<defs>
<clipPath id="clip0_5184_22039">
<rect width="540" height="160" fill="white"/>
</clipPath>
</defs>
</svg>
