<svg width="713" height="389" viewBox="0 0 713 389" fill="none" xmlns="http://www.w3.org/2000/svg">
<path d="M472.62 382.08C383.488 404.58 351.124 361.58 261.992 318.58C103.887 242.306 -35.6463 236.58 8.91941 126.58C37.8004 55.2937 102.827 58.5798 232.281 40.0798C361.735 21.5798 369.693 -14.9202 438.134 6.57976C506.575 28.0798 472.62 79.0798 541.061 173.08C609.502 267.08 561.752 359.58 472.62 382.08Z" fill="#D1FAE5"/>
<path d="M488.465 51.8892C330.361 27.8892 301.181 85.3892 260.329 144.889C229.026 209.889 266.695 248.889 313.914 306.889C361.133 364.889 461.407 340.889 537.276 306.889C613.144 272.889 725.09 231.889 711.296 140.389C697.502 48.8892 646.569 75.8892 488.465 51.8892Z" fill="#FEF3C7"/>
</svg>
