<svg width="100" height="80" viewBox="0 0 100 80" fill="none" xmlns="http://www.w3.org/2000/svg">
<path d="M26.2005 10.303C19.3771 13.7262 9.52107 17.7955 5.55533 21.9936C1.58958 26.1918 -0.696397 29.3179 0.190059 45.4393C1.29813 65.5911 12.6704 69.0791 18.4441 71.8564C21.6337 73.3907 29.4081 73.7295 36.7564 76.1193L36.9286 76.1753C44.1944 78.5384 49.883 80.3885 55.2436 79.9298C67.3158 78.8966 80.6709 73.2128 94.7842 56.355C108.898 39.4973 90.7602 18.958 82.8287 11.2072C74.8973 3.45635 58.2987 -0.402378 51.2196 0.0331867C37.5728 0.872844 33.0238 6.87981 26.2005 10.303Z" fill="#6EE7B7"/>
</svg>
