<svg width="858" height="621" viewBox="0 0 858 621" fill="none" xmlns="http://www.w3.org/2000/svg">
<path d="M225 80.5C166.5 107 82.0002 138.501 48 171C13.9998 203.499 -5.59896 227.699 2.00104 352.499C11.501 508.499 109.001 535.5 158.501 557C185.847 568.878 252.501 571.5 315.501 590L316.978 590.434C379.271 608.727 428.042 623.049 474.001 619.498C577.501 611.5 692.001 567.5 813.001 437C934.001 306.5 778.501 147.5 710.501 87.4991C642.501 27.4982 500.194 -2.37321 439.501 0.998606C322.501 7.49861 283.5 54 225 80.5Z" fill="#C4C4C4"/>
</svg>
