<svg width="142" height="100" viewBox="0 0 142 100" fill="none" xmlns="http://www.w3.org/2000/svg">
<path d="M99.0828 98.4081C80.3764 104.203 73.5843 93.1282 54.8779 82.0531C21.6962 62.4081 -7.58769 60.9332 1.76536 32.6017C7.82664 14.2414 21.4738 15.0878 48.6425 10.3229C75.8112 5.55806 77.4814 -3.84284 91.8452 1.69468C106.209 7.2322 99.0828 20.3677 113.447 44.5783C127.81 68.7888 117.789 92.613 99.0828 98.4081Z" fill="#A7F3D0"/>
<path d="M90.5401 12.6031C54.6343 5.77287 48.0074 22.1369 38.7298 39.0701C31.6209 57.5686 40.1756 68.6677 50.8992 85.174C61.6227 101.68 84.3951 94.8501 101.625 85.174C118.855 75.4979 144.278 63.8296 141.145 37.7895C138.013 11.7493 126.446 19.4333 90.5401 12.6031Z" fill="#6EE7B7"/>
</svg>
